<?xml version="1.0" encoding="utf-8" standalone="no"?>
<!DOCTYPE svg PUBLIC "-//W3C//DTD SVG 1.1//EN"
  "http://www.w3.org/Graphics/SVG/1.1/DTD/svg11.dtd">
<svg xmlns:xlink="http://www.w3.org/1999/xlink" width="1072.08pt" height="350.829375pt" viewBox="0 0 1072.08 350.829375" xmlns="http://www.w3.org/2000/svg" version="1.1">
 <metadata>
  <rdf:RDF xmlns:dc="http://purl.org/dc/elements/1.1/" xmlns:cc="http://creativecommons.org/ns#" xmlns:rdf="http://www.w3.org/1999/02/22-rdf-syntax-ns#">
   <cc:Work>
    <dc:type rdf:resource="http://purl.org/dc/dcmitype/StillImage"/>
    <dc:date>2025-08-25T17:43:03.305417</dc:date>
    <dc:format>image/svg+xml</dc:format>
    <dc:creator>
     <cc:Agent>
      <dc:title>Matplotlib v3.10.5, https://matplotlib.org/</dc:title>
     </cc:Agent>
    </dc:creator>
   </cc:Work>
  </rdf:RDF>
 </metadata>
 <defs>
  <style type="text/css">*{stroke-linejoin: round; stroke-linecap: butt}</style>
 </defs>
 <g id="figure_1">
  <g id="patch_1">
   <path d="M 0 350.829375 
L 1072.08 350.829375 
L 1072.08 0 
L 0 0 
z
" style="fill: #ffffff"/>
  </g>
  <g id="axes_1">
   <g id="patch_2">
    <path d="M 46.55 314.629375 
L 531.174375 314.629375 
L 531.174375 21.455625 
L 46.55 21.455625 
z
" style="fill: #ffffff"/>
   </g>
   <g id="matplotlib.axis_1">
    <g id="xtick_1">
     <g id="line2d_1">
      <path d="M 68.578381 314.629375 
L 68.578381 21.455625 
" clip-path="url(#p142066906a)" style="fill: none; stroke: #b0b0b0; stroke-width: 0.8; stroke-linecap: square"/>
     </g>
     <g id="line2d_2">
      <defs>
       <path id="m2832c3acfd" d="M 0 0 
L 0 3.5 
" style="stroke: #000000; stroke-width: 0.8"/>
      </defs>
      <g>
       <use xlink:href="#m2832c3acfd" x="68.578381" y="314.629375" style="stroke: #000000; stroke-width: 0.8"/>
      </g>
     </g>
     <g id="text_1">
      <!-- −10.0 -->
      <g transform="translate(56.403381 328.459062) scale(0.1 -0.1)">
       <defs>
        <path id="STIXGeneral-Regular-2212" d="M 3974 1408 
L 410 1408 
L 410 1830 
L 3974 1830 
L 3974 1408 
z
" transform="scale(0.015625)"/>
        <path id="STIXGeneral-Regular-31" d="M 2522 0 
L 755 0 
L 755 96 
Q 1107 115 1235 227 
Q 1363 339 1363 608 
L 1363 3482 
Q 1363 3795 1171 3795 
Q 1082 3795 883 3718 
L 710 3654 
L 710 3744 
L 1856 4326 
L 1914 4307 
L 1914 486 
Q 1914 275 2042 185 
Q 2170 96 2522 96 
L 2522 0 
z
" transform="scale(0.015625)"/>
        <path id="STIXGeneral-Regular-30" d="M 3046 2112 
Q 3046 1683 2963 1302 
Q 2880 922 2717 602 
Q 2554 282 2266 96 
Q 1978 -90 1600 -90 
Q 1210 -90 915 108 
Q 621 307 461 640 
Q 301 973 227 1350 
Q 154 1728 154 2150 
Q 154 2746 301 3222 
Q 448 3699 790 4012 
Q 1133 4326 1626 4326 
Q 2253 4326 2649 3712 
Q 3046 3098 3046 2112 
z
M 2432 2080 
Q 2432 3091 2217 3625 
Q 2003 4160 1587 4160 
Q 1190 4160 979 3622 
Q 768 3085 768 2106 
Q 768 1120 979 598 
Q 1190 77 1600 77 
Q 2003 77 2217 598 
Q 2432 1120 2432 2080 
z
" transform="scale(0.015625)"/>
        <path id="STIXGeneral-Regular-2e" d="M 1158 275 
Q 1158 134 1052 32 
Q 947 -70 800 -70 
Q 653 -70 550 32 
Q 448 134 448 281 
Q 448 429 553 534 
Q 659 640 806 640 
Q 947 640 1052 531 
Q 1158 422 1158 275 
z
" transform="scale(0.015625)"/>
       </defs>
       <use xlink:href="#STIXGeneral-Regular-2212"/>
       <use xlink:href="#STIXGeneral-Regular-31" transform="translate(68.499985 0)"/>
       <use xlink:href="#STIXGeneral-Regular-30" transform="translate(118.499969 0)"/>
       <use xlink:href="#STIXGeneral-Regular-2e" transform="translate(168.499954 0)"/>
       <use xlink:href="#STIXGeneral-Regular-30" transform="translate(193.499939 0)"/>
      </g>
     </g>
    </g>
    <g id="xtick_2">
     <g id="line2d_3">
      <path d="M 123.649332 314.629375 
L 123.649332 21.455625 
" clip-path="url(#p142066906a)" style="fill: none; stroke: #b0b0b0; stroke-width: 0.8; stroke-linecap: square"/>
     </g>
     <g id="line2d_4">
      <g>
       <use xlink:href="#m2832c3acfd" x="123.649332" y="314.629375" style="stroke: #000000; stroke-width: 0.8"/>
      </g>
     </g>
     <g id="text_2">
      <!-- −7.5 -->
      <g transform="translate(113.974332 328.459062) scale(0.1 -0.1)">
       <defs>
        <path id="STIXGeneral-Regular-37" d="M 2874 4134 
L 1517 -51 
L 1101 -51 
L 2368 3763 
L 992 3763 
Q 717 3763 582 3667 
Q 448 3571 243 3238 
L 128 3296 
L 512 4237 
L 2874 4237 
L 2874 4134 
z
" transform="scale(0.015625)"/>
        <path id="STIXGeneral-Regular-35" d="M 2803 4358 
L 2573 3814 
Q 2534 3731 2400 3731 
L 1158 3731 
L 902 3187 
Q 1606 3053 1920 2896 
Q 2234 2739 2502 2368 
Q 2726 2061 2726 1555 
Q 2726 1094 2576 780 
Q 2426 467 2099 224 
Q 1664 -90 1011 -90 
Q 646 -90 422 19 
Q 198 128 198 307 
Q 198 550 486 550 
Q 717 550 960 352 
Q 1210 147 1414 147 
Q 1747 147 2012 480 
Q 2278 813 2278 1229 
Q 2278 1843 1850 2189 
Q 1293 2637 486 2637 
Q 410 2637 410 2688 
L 416 2720 
L 1114 4237 
L 2438 4237 
Q 2547 4237 2608 4269 
Q 2669 4301 2746 4403 
L 2803 4358 
z
" transform="scale(0.015625)"/>
       </defs>
       <use xlink:href="#STIXGeneral-Regular-2212"/>
       <use xlink:href="#STIXGeneral-Regular-37" transform="translate(68.499985 0)"/>
       <use xlink:href="#STIXGeneral-Regular-2e" transform="translate(118.499969 0)"/>
       <use xlink:href="#STIXGeneral-Regular-35" transform="translate(143.499954 0)"/>
      </g>
     </g>
    </g>
    <g id="xtick_3">
     <g id="line2d_5">
      <path d="M 178.720284 314.629375 
L 178.720284 21.455625 
" clip-path="url(#p142066906a)" style="fill: none; stroke: #b0b0b0; stroke-width: 0.8; stroke-linecap: square"/>
     </g>
     <g id="line2d_6">
      <g>
       <use xlink:href="#m2832c3acfd" x="178.720284" y="314.629375" style="stroke: #000000; stroke-width: 0.8"/>
      </g>
     </g>
     <g id="text_3">
      <!-- −5.0 -->
      <g transform="translate(169.045284 328.459062) scale(0.1 -0.1)">
       <use xlink:href="#STIXGeneral-Regular-2212"/>
       <use xlink:href="#STIXGeneral-Regular-35" transform="translate(68.499985 0)"/>
       <use xlink:href="#STIXGeneral-Regular-2e" transform="translate(118.499969 0)"/>
       <use xlink:href="#STIXGeneral-Regular-30" transform="translate(143.499954 0)"/>
      </g>
     </g>
    </g>
    <g id="xtick_4">
     <g id="line2d_7">
      <path d="M 233.791236 314.629375 
L 233.791236 21.455625 
" clip-path="url(#p142066906a)" style="fill: none; stroke: #b0b0b0; stroke-width: 0.8; stroke-linecap: square"/>
     </g>
     <g id="line2d_8">
      <g>
       <use xlink:href="#m2832c3acfd" x="233.791236" y="314.629375" style="stroke: #000000; stroke-width: 0.8"/>
      </g>
     </g>
     <g id="text_4">
      <!-- −2.5 -->
      <g transform="translate(224.116236 328.459062) scale(0.1 -0.1)">
       <defs>
        <path id="STIXGeneral-Regular-32" d="M 3034 877 
L 2688 0 
L 186 0 
L 186 77 
L 1325 1286 
Q 1773 1754 1965 2144 
Q 2157 2534 2157 2950 
Q 2157 3379 1920 3616 
Q 1683 3853 1267 3853 
Q 922 3853 720 3673 
Q 518 3494 326 3021 
L 192 3053 
Q 301 3648 630 3987 
Q 960 4326 1523 4326 
Q 2054 4326 2380 4006 
Q 2707 3686 2707 3200 
Q 2707 2477 1888 1613 
L 832 486 
L 2330 486 
Q 2541 486 2665 569 
Q 2790 653 2944 915 
L 3034 877 
z
" transform="scale(0.015625)"/>
       </defs>
       <use xlink:href="#STIXGeneral-Regular-2212"/>
       <use xlink:href="#STIXGeneral-Regular-32" transform="translate(68.499985 0)"/>
       <use xlink:href="#STIXGeneral-Regular-2e" transform="translate(118.499969 0)"/>
       <use xlink:href="#STIXGeneral-Regular-35" transform="translate(143.499954 0)"/>
      </g>
     </g>
    </g>
    <g id="xtick_5">
     <g id="line2d_9">
      <path d="M 288.862188 314.629375 
L 288.862188 21.455625 
" clip-path="url(#p142066906a)" style="fill: none; stroke: #b0b0b0; stroke-width: 0.8; stroke-linecap: square"/>
     </g>
     <g id="line2d_10">
      <g>
       <use xlink:href="#m2832c3acfd" x="288.862188" y="314.629375" style="stroke: #000000; stroke-width: 0.8"/>
      </g>
     </g>
     <g id="text_5">
      <!-- 0.0 -->
      <g transform="translate(282.612188 328.459062) scale(0.1 -0.1)">
       <use xlink:href="#STIXGeneral-Regular-30"/>
       <use xlink:href="#STIXGeneral-Regular-2e" transform="translate(49.999985 0)"/>
       <use xlink:href="#STIXGeneral-Regular-30" transform="translate(74.999969 0)"/>
      </g>
     </g>
    </g>
    <g id="xtick_6">
     <g id="line2d_11">
      <path d="M 343.933139 314.629375 
L 343.933139 21.455625 
" clip-path="url(#p142066906a)" style="fill: none; stroke: #b0b0b0; stroke-width: 0.8; stroke-linecap: square"/>
     </g>
     <g id="line2d_12">
      <g>
       <use xlink:href="#m2832c3acfd" x="343.933139" y="314.629375" style="stroke: #000000; stroke-width: 0.8"/>
      </g>
     </g>
     <g id="text_6">
      <!-- 2.5 -->
      <g transform="translate(337.683139 328.459062) scale(0.1 -0.1)">
       <use xlink:href="#STIXGeneral-Regular-32"/>
       <use xlink:href="#STIXGeneral-Regular-2e" transform="translate(49.999985 0)"/>
       <use xlink:href="#STIXGeneral-Regular-35" transform="translate(74.999969 0)"/>
      </g>
     </g>
    </g>
    <g id="xtick_7">
     <g id="line2d_13">
      <path d="M 399.004091 314.629375 
L 399.004091 21.455625 
" clip-path="url(#p142066906a)" style="fill: none; stroke: #b0b0b0; stroke-width: 0.8; stroke-linecap: square"/>
     </g>
     <g id="line2d_14">
      <g>
       <use xlink:href="#m2832c3acfd" x="399.004091" y="314.629375" style="stroke: #000000; stroke-width: 0.8"/>
      </g>
     </g>
     <g id="text_7">
      <!-- 5.0 -->
      <g transform="translate(392.754091 328.459062) scale(0.1 -0.1)">
       <use xlink:href="#STIXGeneral-Regular-35"/>
       <use xlink:href="#STIXGeneral-Regular-2e" transform="translate(49.999985 0)"/>
       <use xlink:href="#STIXGeneral-Regular-30" transform="translate(74.999969 0)"/>
      </g>
     </g>
    </g>
    <g id="xtick_8">
     <g id="line2d_15">
      <path d="M 454.075043 314.629375 
L 454.075043 21.455625 
" clip-path="url(#p142066906a)" style="fill: none; stroke: #b0b0b0; stroke-width: 0.8; stroke-linecap: square"/>
     </g>
     <g id="line2d_16">
      <g>
       <use xlink:href="#m2832c3acfd" x="454.075043" y="314.629375" style="stroke: #000000; stroke-width: 0.8"/>
      </g>
     </g>
     <g id="text_8">
      <!-- 7.5 -->
      <g transform="translate(447.825043 328.459062) scale(0.1 -0.1)">
       <use xlink:href="#STIXGeneral-Regular-37"/>
       <use xlink:href="#STIXGeneral-Regular-2e" transform="translate(49.999985 0)"/>
       <use xlink:href="#STIXGeneral-Regular-35" transform="translate(74.999969 0)"/>
      </g>
     </g>
    </g>
    <g id="xtick_9">
     <g id="line2d_17">
      <path d="M 509.145994 314.629375 
L 509.145994 21.455625 
" clip-path="url(#p142066906a)" style="fill: none; stroke: #b0b0b0; stroke-width: 0.8; stroke-linecap: square"/>
     </g>
     <g id="line2d_18">
      <g>
       <use xlink:href="#m2832c3acfd" x="509.145994" y="314.629375" style="stroke: #000000; stroke-width: 0.8"/>
      </g>
     </g>
     <g id="text_9">
      <!-- 10.0 -->
      <g transform="translate(500.395994 328.459062) scale(0.1 -0.1)">
       <use xlink:href="#STIXGeneral-Regular-31"/>
       <use xlink:href="#STIXGeneral-Regular-30" transform="translate(49.999985 0)"/>
       <use xlink:href="#STIXGeneral-Regular-2e" transform="translate(99.999969 0)"/>
       <use xlink:href="#STIXGeneral-Regular-30" transform="translate(124.999954 0)"/>
      </g>
     </g>
    </g>
    <g id="text_10">
     <!-- x -->
     <g transform="translate(286.362188 341.459062) scale(0.1 -0.1)">
      <defs>
       <path id="STIXGeneral-Regular-78" d="M 3066 0 
L 1779 0 
L 1779 96 
Q 1939 109 1987 137 
Q 2035 166 2035 250 
Q 2035 307 1997 365 
L 1414 1261 
L 909 474 
Q 781 275 781 211 
Q 781 96 1037 96 
L 1037 0 
L 109 0 
L 109 96 
Q 269 109 355 169 
Q 442 230 576 422 
L 1306 1478 
L 704 2400 
Q 557 2624 454 2704 
Q 352 2784 211 2784 
L 154 2784 
L 154 2880 
L 1478 2880 
L 1478 2784 
Q 1203 2778 1203 2643 
Q 1203 2509 1498 2074 
Q 1581 1958 1587 1946 
Q 1619 1990 1779 2227 
Q 1811 2285 1856 2349 
Q 1901 2413 1923 2451 
Q 1946 2490 1971 2528 
Q 1997 2566 2006 2595 
Q 2016 2624 2016 2643 
Q 2016 2765 1760 2784 
L 1760 2880 
L 2771 2880 
L 2771 2784 
Q 2445 2771 2253 2502 
L 1722 1734 
L 2541 480 
Q 2790 96 3066 96 
L 3066 0 
z
" transform="scale(0.015625)"/>
      </defs>
      <use xlink:href="#STIXGeneral-Regular-78"/>
     </g>
    </g>
   </g>
   <g id="matplotlib.axis_2">
    <g id="ytick_1">
     <g id="line2d_19">
      <path d="M 46.55 269.401154 
L 531.174375 269.401154 
" clip-path="url(#p142066906a)" style="fill: none; stroke: #b0b0b0; stroke-width: 0.8; stroke-linecap: square"/>
     </g>
     <g id="line2d_20">
      <defs>
       <path id="me1ccb387bd" d="M 0 0 
L -3.5 0 
" style="stroke: #000000; stroke-width: 0.8"/>
      </defs>
      <g>
       <use xlink:href="#me1ccb387bd" x="46.55" y="269.401154" style="stroke: #000000; stroke-width: 0.8"/>
      </g>
     </g>
     <g id="text_11">
      <!-- −0.2 -->
      <g transform="translate(20.2 272.815998) scale(0.1 -0.1)">
       <use xlink:href="#STIXGeneral-Regular-2212"/>
       <use xlink:href="#STIXGeneral-Regular-30" transform="translate(68.499985 0)"/>
       <use xlink:href="#STIXGeneral-Regular-2e" transform="translate(118.499969 0)"/>
       <use xlink:href="#STIXGeneral-Regular-32" transform="translate(143.499954 0)"/>
      </g>
     </g>
    </g>
    <g id="ytick_2">
     <g id="line2d_21">
      <path d="M 46.55 218.721622 
L 531.174375 218.721622 
" clip-path="url(#p142066906a)" style="fill: none; stroke: #b0b0b0; stroke-width: 0.8; stroke-linecap: square"/>
     </g>
     <g id="line2d_22">
      <g>
       <use xlink:href="#me1ccb387bd" x="46.55" y="218.721622" style="stroke: #000000; stroke-width: 0.8"/>
      </g>
     </g>
     <g id="text_12">
      <!-- −0.1 -->
      <g transform="translate(20.2 222.136465) scale(0.1 -0.1)">
       <use xlink:href="#STIXGeneral-Regular-2212"/>
       <use xlink:href="#STIXGeneral-Regular-30" transform="translate(68.499985 0)"/>
       <use xlink:href="#STIXGeneral-Regular-2e" transform="translate(118.499969 0)"/>
       <use xlink:href="#STIXGeneral-Regular-31" transform="translate(143.499954 0)"/>
      </g>
     </g>
    </g>
    <g id="ytick_3">
     <g id="line2d_23">
      <path d="M 46.55 168.042089 
L 531.174375 168.042089 
" clip-path="url(#p142066906a)" style="fill: none; stroke: #b0b0b0; stroke-width: 0.8; stroke-linecap: square"/>
     </g>
     <g id="line2d_24">
      <g>
       <use xlink:href="#me1ccb387bd" x="46.55" y="168.042089" style="stroke: #000000; stroke-width: 0.8"/>
      </g>
     </g>
     <g id="text_13">
      <!-- 0.0 -->
      <g transform="translate(27.05 171.456933) scale(0.1 -0.1)">
       <use xlink:href="#STIXGeneral-Regular-30"/>
       <use xlink:href="#STIXGeneral-Regular-2e" transform="translate(49.999985 0)"/>
       <use xlink:href="#STIXGeneral-Regular-30" transform="translate(74.999969 0)"/>
      </g>
     </g>
    </g>
    <g id="ytick_4">
     <g id="line2d_25">
      <path d="M 46.55 117.362557 
L 531.174375 117.362557 
" clip-path="url(#p142066906a)" style="fill: none; stroke: #b0b0b0; stroke-width: 0.8; stroke-linecap: square"/>
     </g>
     <g id="line2d_26">
      <g>
       <use xlink:href="#me1ccb387bd" x="46.55" y="117.362557" style="stroke: #000000; stroke-width: 0.8"/>
      </g>
     </g>
     <g id="text_14">
      <!-- 0.1 -->
      <g transform="translate(27.05 120.777401) scale(0.1 -0.1)">
       <use xlink:href="#STIXGeneral-Regular-30"/>
       <use xlink:href="#STIXGeneral-Regular-2e" transform="translate(49.999985 0)"/>
       <use xlink:href="#STIXGeneral-Regular-31" transform="translate(74.999969 0)"/>
      </g>
     </g>
    </g>
    <g id="ytick_5">
     <g id="line2d_27">
      <path d="M 46.55 66.683025 
L 531.174375 66.683025 
" clip-path="url(#p142066906a)" style="fill: none; stroke: #b0b0b0; stroke-width: 0.8; stroke-linecap: square"/>
     </g>
     <g id="line2d_28">
      <g>
       <use xlink:href="#me1ccb387bd" x="46.55" y="66.683025" style="stroke: #000000; stroke-width: 0.8"/>
      </g>
     </g>
     <g id="text_15">
      <!-- 0.2 -->
      <g transform="translate(27.05 70.097869) scale(0.1 -0.1)">
       <use xlink:href="#STIXGeneral-Regular-30"/>
       <use xlink:href="#STIXGeneral-Regular-2e" transform="translate(49.999985 0)"/>
       <use xlink:href="#STIXGeneral-Regular-32" transform="translate(74.999969 0)"/>
      </g>
     </g>
    </g>
    <g id="text_16">
     <!-- Wavefunction Value -->
     <g transform="translate(14.029688 209.558906) rotate(-90) scale(0.1 -0.1)">
      <defs>
       <path id="STIXGeneral-Regular-57" d="M 5965 4237 
L 5965 4115 
Q 5709 4064 5616 3990 
Q 5523 3917 5434 3667 
Q 4704 1709 4128 -70 
L 4032 -70 
Q 3642 1011 3008 2637 
L 2022 -70 
L 1926 -70 
Q 1709 576 1277 1753 
Q 845 2931 698 3347 
Q 538 3808 406 3958 
Q 275 4109 32 4115 
L 32 4237 
L 1594 4237 
L 1594 4115 
Q 1357 4109 1270 4064 
Q 1184 4019 1184 3917 
Q 1184 3808 1254 3616 
L 2176 1210 
L 2842 3021 
L 2662 3501 
Q 2509 3917 2400 4013 
Q 2291 4109 2010 4115 
L 2010 4237 
L 3706 4237 
L 3706 4115 
Q 3213 4102 3213 3891 
Q 3213 3808 3322 3520 
L 4237 1190 
L 5043 3360 
Q 5152 3667 5152 3853 
Q 5152 4109 4704 4115 
L 4704 4237 
L 5965 4237 
z
" transform="scale(0.015625)"/>
       <path id="STIXGeneral-Regular-61" d="M 2829 422 
L 2829 243 
Q 2586 -64 2253 -64 
Q 1888 -64 1843 403 
L 1837 403 
Q 1427 -64 909 -64 
Q 608 -64 422 112 
Q 237 288 237 602 
Q 237 1050 685 1350 
Q 992 1555 1837 1869 
L 1837 2214 
Q 1837 2502 1699 2646 
Q 1562 2790 1338 2790 
Q 1146 2790 1018 2697 
Q 890 2605 890 2477 
Q 890 2419 909 2348 
Q 928 2278 928 2208 
Q 928 2112 841 2029 
Q 755 1946 634 1946 
Q 525 1946 441 2029 
Q 358 2112 358 2240 
Q 358 2547 685 2752 
Q 986 2944 1421 2944 
Q 1939 2944 2176 2656 
Q 2291 2522 2323 2384 
Q 2355 2246 2355 1946 
L 2355 723 
Q 2355 301 2554 301 
Q 2682 301 2829 422 
z
M 1837 813 
L 1837 1715 
Q 1248 1510 1018 1293 
Q 800 1094 800 800 
Q 800 557 921 432 
Q 1043 307 1242 307 
Q 1453 307 1613 410 
Q 1747 506 1792 589 
Q 1837 672 1837 813 
z
" transform="scale(0.015625)"/>
       <path id="STIXGeneral-Regular-76" d="M 3053 2880 
L 3053 2784 
Q 2906 2771 2835 2688 
Q 2765 2605 2637 2285 
L 1818 230 
Q 1690 -90 1638 -90 
Q 1587 -90 1523 77 
Q 1510 96 1497 141 
Q 1485 186 1472 211 
L 704 2048 
Q 499 2534 403 2652 
Q 307 2771 122 2784 
L 122 2880 
L 1376 2880 
L 1376 2784 
Q 1210 2771 1146 2732 
Q 1082 2694 1082 2611 
Q 1082 2509 1139 2368 
L 1792 730 
L 2426 2387 
Q 2464 2483 2464 2579 
Q 2464 2758 2163 2784 
L 2163 2880 
L 3053 2880 
z
" transform="scale(0.015625)"/>
       <path id="STIXGeneral-Regular-65" d="M 2611 1050 
L 2714 1005 
Q 2330 -64 1376 -64 
Q 813 -64 486 329 
Q 160 723 160 1389 
Q 160 2074 525 2509 
Q 890 2944 1485 2944 
Q 2061 2944 2374 2502 
Q 2560 2246 2592 1773 
L 621 1773 
Q 646 1370 700 1158 
Q 755 947 915 730 
Q 1184 378 1626 378 
Q 1939 378 2153 531 
Q 2368 685 2611 1050 
z
M 634 1978 
L 1939 1978 
Q 1882 2381 1750 2547 
Q 1619 2714 1312 2714 
Q 1043 2714 864 2525 
Q 685 2336 634 1978 
z
" transform="scale(0.015625)"/>
       <path id="STIXGeneral-Regular-66" d="M 134 2880 
L 659 2880 
Q 666 3264 710 3478 
Q 755 3693 883 3910 
Q 1152 4371 1786 4371 
Q 2074 4371 2262 4259 
Q 2451 4147 2451 3974 
Q 2451 3866 2374 3789 
Q 2298 3712 2182 3712 
Q 2029 3712 1894 3942 
Q 1741 4192 1555 4192 
Q 1197 4192 1197 3622 
L 1197 2880 
L 1978 2880 
L 1978 2675 
L 1197 2675 
L 1197 666 
Q 1197 307 1299 208 
Q 1402 109 1792 96 
L 1792 0 
L 128 0 
L 128 96 
Q 474 115 566 214 
Q 659 314 659 666 
L 659 2675 
L 134 2675 
L 134 2880 
z
" transform="scale(0.015625)"/>
       <path id="STIXGeneral-Regular-75" d="M 3072 320 
L 3072 230 
Q 2573 96 2195 -58 
L 2163 -38 
L 2163 486 
L 2150 486 
Q 1747 -64 1235 -64 
Q 870 -64 662 160 
Q 454 384 454 755 
L 454 2362 
Q 454 2598 371 2688 
Q 288 2778 58 2790 
L 58 2880 
L 992 2880 
L 992 813 
Q 992 595 1123 451 
Q 1254 307 1446 307 
Q 1760 307 1984 506 
Q 2067 582 2099 649 
Q 2131 717 2131 877 
L 2131 2355 
Q 2131 2605 2041 2678 
Q 1952 2752 1658 2771 
L 1658 2880 
L 2669 2880 
L 2669 685 
Q 2669 461 2742 390 
Q 2816 320 3034 320 
L 3072 320 
z
" transform="scale(0.015625)"/>
       <path id="STIXGeneral-Regular-6e" d="M 3104 0 
L 1773 0 
L 1779 96 
Q 2016 115 2096 233 
Q 2176 352 2176 672 
L 2176 1946 
Q 2176 2592 1709 2592 
Q 1549 2592 1408 2515 
Q 1267 2438 1050 2227 
L 1050 461 
Q 1050 269 1136 192 
Q 1222 115 1466 96 
L 1466 0 
L 115 0 
L 115 96 
Q 358 115 435 214 
Q 512 314 512 602 
L 512 2157 
Q 512 2394 467 2483 
Q 422 2573 288 2573 
Q 160 2573 102 2547 
L 102 2656 
Q 550 2784 979 2944 
L 1030 2925 
L 1030 2426 
L 1037 2426 
Q 1491 2944 1958 2944 
Q 2323 2944 2518 2688 
Q 2714 2432 2714 1958 
L 2714 544 
Q 2714 288 2790 205 
Q 2867 122 3104 96 
L 3104 0 
z
" transform="scale(0.015625)"/>
       <path id="STIXGeneral-Regular-63" d="M 2547 998 
L 2637 941 
Q 2362 403 2112 205 
Q 1786 -64 1376 -64 
Q 845 -64 502 336 
Q 160 736 160 1357 
Q 160 2170 698 2618 
Q 1094 2944 1562 2944 
Q 1965 2944 2256 2749 
Q 2547 2554 2547 2285 
Q 2547 2176 2457 2096 
Q 2368 2016 2246 2016 
Q 2022 2016 1939 2310 
L 1901 2451 
Q 1850 2630 1773 2694 
Q 1696 2758 1523 2758 
Q 1133 2758 893 2451 
Q 653 2144 653 1645 
Q 653 1094 928 745 
Q 1203 397 1645 397 
Q 1920 397 2118 528 
Q 2317 659 2547 998 
z
" transform="scale(0.015625)"/>
       <path id="STIXGeneral-Regular-74" d="M 1702 493 
L 1786 422 
Q 1478 -64 1011 -64 
Q 448 -64 448 749 
L 448 2675 
L 109 2675 
Q 83 2694 83 2720 
Q 83 2771 192 2842 
Q 435 2982 813 3526 
Q 826 3546 874 3606 
Q 922 3667 941 3706 
Q 986 3706 986 3622 
L 986 2880 
L 1632 2880 
L 1632 2675 
L 986 2675 
L 986 845 
Q 986 538 1062 403 
Q 1139 269 1318 269 
Q 1510 269 1702 493 
z
" transform="scale(0.015625)"/>
       <path id="STIXGeneral-Regular-69" d="M 1152 4045 
Q 1152 3904 1056 3811 
Q 960 3718 819 3718 
Q 685 3718 592 3811 
Q 499 3904 499 4045 
Q 499 4179 595 4275 
Q 691 4371 826 4371 
Q 966 4371 1059 4275 
Q 1152 4179 1152 4045 
z
M 1619 0 
L 102 0 
L 102 96 
Q 435 115 521 211 
Q 608 307 608 666 
L 608 2118 
Q 608 2342 563 2432 
Q 518 2522 397 2522 
Q 243 2522 128 2490 
L 128 2592 
L 1120 2944 
L 1146 2918 
L 1146 672 
Q 1146 314 1226 218 
Q 1306 122 1619 96 
L 1619 0 
z
" transform="scale(0.015625)"/>
       <path id="STIXGeneral-Regular-6f" d="M 3008 1478 
Q 3008 806 2608 371 
Q 2208 -64 1568 -64 
Q 979 -64 582 368 
Q 186 800 186 1459 
Q 186 2125 582 2534 
Q 979 2944 1626 2944 
Q 2221 2944 2614 2537 
Q 3008 2131 3008 1478 
z
M 2432 1306 
Q 2432 2035 2112 2445 
Q 1856 2765 1504 2765 
Q 1171 2765 966 2493 
Q 762 2221 762 1747 
Q 762 928 1101 435 
Q 1318 115 1677 115 
Q 2029 115 2230 432 
Q 2432 749 2432 1306 
z
" transform="scale(0.015625)"/>
       <path id="STIXGeneral-Regular-20" transform="scale(0.015625)"/>
       <path id="STIXGeneral-Regular-56" d="M 4461 4237 
L 4461 4115 
Q 4262 4109 4134 3990 
Q 4006 3872 3872 3533 
L 2451 -70 
L 2355 -70 
L 794 3411 
Q 589 3866 467 3987 
Q 346 4109 102 4115 
L 102 4237 
L 1798 4237 
L 1798 4115 
L 1619 4102 
Q 1331 4083 1331 3904 
Q 1331 3776 1581 3219 
L 2554 1030 
L 3494 3392 
Q 3616 3699 3616 3853 
Q 3616 3898 3606 3933 
Q 3597 3968 3584 3993 
Q 3571 4019 3536 4038 
Q 3501 4058 3481 4067 
Q 3462 4077 3411 4086 
Q 3360 4096 3337 4099 
Q 3315 4102 3248 4108 
Q 3181 4115 3155 4115 
L 3155 4237 
L 4461 4237 
z
" transform="scale(0.015625)"/>
       <path id="STIXGeneral-Regular-6c" d="M 1645 0 
L 134 0 
L 134 96 
Q 435 122 531 221 
Q 627 320 627 589 
L 627 3590 
Q 627 3821 569 3910 
Q 512 4000 358 4000 
Q 224 4000 122 3987 
L 122 4090 
Q 730 4237 1133 4371 
L 1165 4346 
L 1165 557 
Q 1165 288 1254 201 
Q 1344 115 1645 96 
L 1645 0 
z
" transform="scale(0.015625)"/>
      </defs>
      <use xlink:href="#STIXGeneral-Regular-57"/>
      <use xlink:href="#STIXGeneral-Regular-61" transform="translate(94.399994 0)"/>
      <use xlink:href="#STIXGeneral-Regular-76" transform="translate(138.799988 0)"/>
      <use xlink:href="#STIXGeneral-Regular-65" transform="translate(188.799973 0)"/>
      <use xlink:href="#STIXGeneral-Regular-66" transform="translate(233.199966 0)"/>
      <use xlink:href="#STIXGeneral-Regular-75" transform="translate(266.499954 0)"/>
      <use xlink:href="#STIXGeneral-Regular-6e" transform="translate(316.499939 0)"/>
      <use xlink:href="#STIXGeneral-Regular-63" transform="translate(366.499924 0)"/>
      <use xlink:href="#STIXGeneral-Regular-74" transform="translate(410.899918 0)"/>
      <use xlink:href="#STIXGeneral-Regular-69" transform="translate(438.699905 0)"/>
      <use xlink:href="#STIXGeneral-Regular-6f" transform="translate(466.499893 0)"/>
      <use xlink:href="#STIXGeneral-Regular-6e" transform="translate(516.499878 0)"/>
      <use xlink:href="#STIXGeneral-Regular-20" transform="translate(566.499863 0)"/>
      <use xlink:href="#STIXGeneral-Regular-56" transform="translate(591.499847 0)"/>
      <use xlink:href="#STIXGeneral-Regular-61" transform="translate(663.699829 0)"/>
      <use xlink:href="#STIXGeneral-Regular-6c" transform="translate(708.099823 0)"/>
      <use xlink:href="#STIXGeneral-Regular-75" transform="translate(735.899811 0)"/>
      <use xlink:href="#STIXGeneral-Regular-65" transform="translate(785.899796 0)"/>
     </g>
    </g>
   </g>
   <g id="line2d_29">
    <path d="M 68.578381 168.042089 
L 72.10645 202.525612 
L 74.311493 221.716709 
L 76.075527 234.798919 
L 77.398553 242.948342 
L 78.721579 249.473712 
L 79.603596 252.850295 
L 80.485613 255.408837 
L 81.367631 257.124662 
L 81.808639 257.66106 
L 82.249648 257.981217 
L 82.690657 258.08436 
L 83.131665 257.970241 
L 83.572674 257.639134 
L 84.013682 257.091839 
L 84.8957 255.354486 
L 85.777717 252.774937 
L 86.659734 249.378076 
L 87.541751 245.196668 
L 88.864777 237.543732 
L 90.187803 228.383922 
L 91.951838 214.174241 
L 94.156881 193.986096 
L 98.125958 154.598719 
L 100.77201 129.313713 
L 102.536045 114.188173 
L 104.300079 101.13547 
L 105.623105 93.012033 
L 106.946131 86.515333 
L 107.828148 83.15905 
L 108.710165 80.621528 
L 109.592183 78.927244 
L 110.033191 78.401746 
L 110.4742 78.09254 
L 110.915208 78.000374 
L 111.356217 78.125468 
L 111.797226 78.467522 
L 112.238234 79.02571 
L 113.120252 80.784583 
L 114.002269 83.385121 
L 114.884286 86.80224 
L 115.766303 91.002978 
L 117.089329 98.682766 
L 118.412355 107.866342 
L 120.176389 122.102031 
L 122.381433 142.312199 
L 126.791519 186.06039 
L 129.437571 210.912192 
L 131.201605 225.546833 
L 132.524631 235.098085 
L 133.847657 243.195487 
L 135.170683 249.663478 
L 136.0527 252.999441 
L 136.934717 255.515926 
L 137.816734 257.188659 
L 138.257743 257.703254 
L 138.698752 258.001506 
L 139.13976 258.082696 
L 139.580769 257.946626 
L 140.021777 257.593627 
L 140.462786 257.024549 
L 141.344803 255.244168 
L 142.226821 252.622657 
L 143.108838 249.185302 
L 143.990855 244.965259 
L 145.313881 237.258667 
L 146.636907 228.051381 
L 148.400941 213.789771 
L 150.605984 193.557705 
L 158.54414 117.426432 
L 160.308174 103.860957 
L 161.6312 95.282858 
L 162.954226 88.282262 
L 163.836243 84.568054 
L 164.71826 81.659017 
L 165.600278 79.58321 
L 166.041286 78.864345 
L 166.482295 78.360656 
L 166.923303 78.073359 
L 167.364312 78.003148 
L 167.805321 78.150191 
L 168.246329 78.514134 
L 168.687338 79.094098 
L 169.569355 80.895976 
L 170.451372 83.538444 
L 171.33339 86.996015 
L 172.215407 91.235336 
L 173.538433 98.968685 
L 174.861459 108.199624 
L 176.625493 122.487067 
L 178.830536 142.740906 
L 186.768691 218.842449 
L 188.532726 232.379793 
L 189.855752 240.932771 
L 191.178778 247.905396 
L 192.060795 251.59967 
L 192.942812 254.487968 
L 193.824829 256.54243 
L 194.265838 257.25046 
L 194.706847 257.743239 
L 195.147855 258.019578 
L 195.588864 258.078812 
L 196.029873 257.920796 
L 196.470881 257.545912 
L 196.91189 256.955065 
L 197.793907 255.131701 
L 198.675924 252.468291 
L 199.557941 248.990527 
L 200.439959 244.731953 
L 201.762985 236.971896 
L 203.08601 227.717361 
L 204.850045 213.404173 
L 207.055088 193.128684 
L 214.993243 117.057341 
L 216.757278 103.54821 
L 218.080304 95.020406 
L 219.403329 88.075796 
L 220.285347 84.401478 
L 221.167364 81.533937 
L 222.049381 79.500833 
L 222.49039 78.803644 
L 222.931398 78.321777 
L 223.372407 78.056396 
L 223.813416 78.008141 
L 224.254424 78.177129 
L 224.695433 78.562951 
L 225.136442 79.164678 
L 226.018459 81.009517 
L 226.900476 83.693851 
L 227.782493 87.191788 
L 228.664511 91.469587 
L 229.987536 99.256306 
L 231.310562 108.53438 
L 233.074597 122.873225 
L 235.27964 143.170237 
L 243.217795 219.210913 
L 244.98183 232.691746 
L 246.304855 241.194323 
L 247.627881 248.110877 
L 248.509899 251.765216 
L 249.391916 254.611982 
L 250.273933 256.623716 
L 250.714942 257.310061 
L 251.15595 257.781012 
L 251.596959 258.035433 
L 252.037968 258.072709 
L 252.478976 257.89275 
L 252.919985 257.495991 
L 253.360993 256.88339 
L 254.243011 255.017087 
L 255.125028 252.311845 
L 256.007045 248.764333 
L 256.889062 243.55748 
L 257.77108 236.41512 
L 258.653097 227.520316 
L 259.976123 211.401846 
L 261.740157 186.213308 
L 265.709235 126.962679 
L 267.032261 110.467144 
L 267.914278 101.258534 
L 268.796295 93.761629 
L 269.678312 88.16858 
L 270.119321 86.132814 
L 270.56033 84.622739 
L 271.001338 83.648046 
L 271.442347 83.21499 
L 271.883356 83.326351 
L 272.324364 83.981414 
L 272.765373 85.175975 
L 273.206381 86.902366 
L 274.088399 91.902982 
L 274.970416 98.855091 
L 275.852433 107.580508 
L 277.175459 123.493336 
L 278.939493 148.515549 
L 283.34958 213.767973 
L 284.672606 229.470873 
L 285.554623 238.024546 
L 286.43664 244.784525 
L 287.318657 249.577545 
L 287.759666 251.195992 
L 288.200675 252.28076 
L 288.641683 252.824888 
L 289.082692 252.824884 
L 289.5237 252.280747 
L 289.964709 251.195971 
L 290.405718 249.577516 
L 291.287735 244.784479 
L 292.169752 238.024486 
L 293.051769 229.4708 
L 294.374795 213.767884 
L 296.13883 188.918712 
L 300.548916 123.493246 
L 301.871942 107.580433 
L 302.753959 98.85503 
L 303.635976 91.902935 
L 304.517994 86.902335 
L 304.959002 85.175952 
L 305.400011 83.981399 
L 305.841019 83.326345 
L 306.282028 83.214993 
L 306.723037 83.648057 
L 307.164045 84.622759 
L 307.605054 86.132842 
L 308.487071 90.717013 
L 309.369088 97.283076 
L 310.251106 105.662737 
L 311.574132 121.151526 
L 313.338166 145.820989 
L 318.189261 217.101133 
L 319.512287 232.173584 
L 320.394304 240.217967 
L 321.276321 246.412436 
L 322.158338 250.652619 
L 323.040356 253.768049 
L 323.922373 256.056586 
L 324.80439 257.496157 
L 325.245399 257.892916 
L 325.686407 258.072875 
L 326.127416 258.035599 
L 326.568425 257.781178 
L 327.009433 257.310226 
L 327.450442 256.62388 
L 328.332459 254.612142 
L 329.214476 251.765371 
L 330.096494 248.111025 
L 330.978511 243.684354 
L 332.301537 235.691576 
L 333.624563 226.23208 
L 335.388597 211.696373 
L 337.59364 191.235939 
L 345.090787 119.102558 
L 346.854821 105.287664 
L 348.177847 96.485854 
L 349.500873 89.235466 
L 350.38289 85.342894 
L 351.264908 82.248019 
L 352.146925 79.980693 
L 353.028942 78.562786 
L 353.469951 78.176963 
L 353.910959 78.007975 
L 354.351968 78.05623 
L 354.792977 78.321611 
L 355.233985 78.803478 
L 355.674994 79.500669 
L 356.557011 81.533777 
L 357.439028 84.401323 
L 358.321046 88.075648 
L 359.203063 92.52131 
L 360.526089 100.540322 
L 361.849114 110.022849 
L 363.613149 124.583431 
L 365.818192 145.064285 
L 373.315339 217.169089 
L 375.079373 230.956611 
L 376.402399 239.733781 
L 377.725425 246.956592 
L 378.607442 250.829441 
L 379.489459 253.903742 
L 380.371477 256.149843 
L 381.253494 257.546078 
L 381.694502 257.920962 
L 382.135511 258.078978 
L 382.57652 258.019745 
L 383.017528 257.743405 
L 383.458537 257.250625 
L 383.899546 256.542594 
L 384.781563 254.488128 
L 385.66358 251.599825 
L 386.545597 247.905544 
L 387.427615 243.440919 
L 388.75064 235.395723 
L 390.073666 225.890222 
L 391.837701 211.304855 
L 394.042744 190.803707 
L 401.098882 122.486982 
L 402.862916 108.199513 
L 404.185942 98.968557 
L 405.508968 91.235194 
L 406.390985 86.995865 
L 407.273003 83.538288 
L 408.15502 80.895815 
L 409.037037 79.093933 
L 409.478046 78.513968 
L 409.919054 78.150024 
L 410.360063 78.002981 
L 410.801072 78.073193 
L 411.24208 78.36049 
L 411.683089 78.86418 
L 412.124097 79.583046 
L 413.006115 81.658857 
L 413.888132 84.567899 
L 414.770149 88.282114 
L 415.652166 92.765674 
L 416.975192 100.837006 
L 418.298218 110.36542 
L 420.062253 124.975483 
L 422.267296 145.496798 
L 429.323434 213.789855 
L 431.087468 228.051492 
L 432.410494 237.258795 
L 433.73352 244.965401 
L 434.615537 249.185452 
L 435.497554 252.622813 
L 436.379572 255.244329 
L 437.261589 257.024713 
L 437.702598 257.593793 
L 438.143606 257.946793 
L 438.584615 258.082862 
L 439.025623 258.001673 
L 439.466632 257.70342 
L 439.907641 257.188824 
L 440.789658 255.516088 
L 441.671675 252.999598 
L 442.553692 249.663629 
L 443.43571 245.540358 
L 444.758735 237.968245 
L 446.081761 228.880054 
L 447.845796 214.748898 
L 450.050839 194.62753 
L 454.019917 155.262093 
L 456.665968 129.920064 
L 458.430003 114.726956 
L 460.194037 101.585947 
L 461.517063 93.38469 
L 462.840089 86.802089 
L 463.722106 83.384964 
L 464.604123 80.784422 
L 465.486141 79.025546 
L 465.927149 78.467357 
L 466.368158 78.125302 
L 466.809167 78.000207 
L 467.250175 78.092374 
L 467.691184 78.40158 
L 468.132192 78.927079 
L 469.01421 80.621366 
L 469.896227 83.158892 
L 470.778244 86.515182 
L 471.660261 90.65786 
L 472.983287 98.256965 
L 474.306313 107.369091 
L 476.070348 121.526518 
L 478.275391 141.670282 
L 482.244468 181.043299 
L 484.89052 206.366492 
L 486.654555 221.53718 
L 488.418589 234.648842 
L 489.741615 242.824216 
L 491.064641 249.378227 
L 491.946658 252.775094 
L 492.828675 255.354647 
L 493.710693 257.092004 
L 494.151701 257.6393 
L 494.59271 257.970407 
L 495.033718 258.084527 
L 495.474727 257.981383 
L 495.915736 257.661226 
L 496.356744 257.124827 
L 497.238762 255.408999 
L 498.120779 252.850452 
L 499.002796 249.473863 
L 499.884813 245.311803 
L 501.207839 237.685752 
L 502.530865 228.549747 
L 504.294899 214.366136 
L 506.499943 194.200101 
L 509.145994 168.042089 
L 509.145994 168.042089 
" clip-path="url(#p142066906a)" style="fill: none; stroke: #0000ff; stroke-width: 1.5; stroke-linecap: square"/>
   </g>
   <g id="line2d_30">
    <path d="M 68.578381 168.042089 
L 72.10645 219.077184 
L 73.870484 242.12967 
L 75.634519 262.330524 
L 76.957545 275.137049 
L 78.28057 285.621632 
L 79.162588 291.206904 
L 80.044605 295.604157 
L 80.926622 298.770977 
L 81.367631 299.882956 
L 81.808639 300.676817 
L 82.249648 301.150645 
L 82.690657 301.303295 
L 83.131665 301.134401 
L 83.572674 300.644368 
L 84.013682 299.83438 
L 84.454691 298.706391 
L 85.336708 295.508057 
L 86.218726 291.080217 
L 87.100743 285.465581 
L 88.423769 274.939857 
L 89.746795 262.096468 
L 91.06982 247.213873 
L 92.833855 224.761524 
L 95.038898 193.735845 
L 101.213019 104.886079 
L 102.977053 83.190749 
L 104.300079 69.0213 
L 105.623105 56.998735 
L 106.946131 47.383716 
L 107.828148 42.416467 
L 108.710165 38.660973 
L 109.592183 36.153459 
L 110.033191 35.375729 
L 110.4742 34.91811 
L 110.915208 34.781705 
L 111.356217 34.966843 
L 111.797226 35.473078 
L 112.238234 36.299188 
L 112.679243 37.44318 
L 113.56126 40.673007 
L 114.443277 45.131406 
L 115.325295 50.775373 
L 116.648321 61.342171 
L 117.971346 74.222346 
L 119.294372 89.13664 
L 121.058407 111.62217 
L 123.26345 142.673006 
L 129.437571 231.489196 
L 131.201605 253.148244 
L 132.524631 267.283954 
L 133.847657 279.267988 
L 135.170683 288.840516 
L 136.0527 293.777692 
L 136.934717 297.502052 
L 137.816734 299.977672 
L 138.257743 300.739265 
L 138.698752 301.180673 
L 139.13976 301.300832 
L 139.580769 301.099452 
L 140.021777 300.577018 
L 140.462786 299.734791 
L 140.903795 298.574803 
L 141.785812 295.313501 
L 142.667829 290.82457 
L 143.549846 285.151309 
L 144.872872 274.5435 
L 146.195898 261.626619 
L 147.518924 246.680718 
L 149.282959 224.162146 
L 151.92901 186.628747 
L 157.221114 110.128108 
L 158.985148 87.809865 
L 160.749183 68.579761 
L 162.072209 56.634333 
L 163.395234 47.104353 
L 164.277252 42.197282 
L 165.159269 38.504079 
L 166.041286 36.060369 
L 166.482295 35.314917 
L 166.923303 34.889722 
L 167.364312 34.78581 
L 167.805321 35.003432 
L 168.246329 35.542062 
L 168.687338 36.4004 
L 169.569355 39.067152 
L 170.451372 42.977966 
L 171.33339 48.095118 
L 172.215407 54.36925 
L 173.538433 65.81449 
L 174.861459 79.47614 
L 176.625493 100.621341 
L 178.830536 130.596719 
L 186.768691 243.225858 
L 188.532726 263.260924 
L 189.855752 275.919202 
L 191.178778 286.238582 
L 192.060795 291.706052 
L 192.942812 295.98069 
L 193.824829 299.021262 
L 194.265838 300.069135 
L 194.706847 300.798441 
L 195.147855 301.207419 
L 195.588864 301.295084 
L 196.029873 301.061223 
L 196.470881 300.506401 
L 196.91189 299.631956 
L 197.793907 296.933404 
L 198.675924 292.991598 
L 199.557941 287.844559 
L 200.439959 281.541935 
L 201.762985 270.057166 
L 203.08601 256.360593 
L 204.850045 235.17729 
L 207.055088 205.169873 
L 214.993243 92.585428 
L 216.757278 72.592119 
L 218.080304 59.971097 
L 219.403329 49.693178 
L 220.285347 44.255243 
L 221.167364 40.011325 
L 222.049381 37.002362 
L 222.49039 35.970532 
L 222.931398 35.257377 
L 223.372407 34.864617 
L 223.813416 34.793201 
L 224.254424 35.0433 
L 224.695433 35.614311 
L 225.136442 36.504857 
L 226.018459 39.235191 
L 226.900476 43.207965 
L 227.782493 48.384859 
L 228.664511 54.715938 
L 229.987536 66.240165 
L 231.310562 79.971575 
L 233.074597 101.192849 
L 235.27964 131.232122 
L 243.217795 243.771179 
L 244.98183 263.722609 
L 246.304855 276.306295 
L 247.627881 286.542691 
L 248.509899 291.951058 
L 249.391916 296.164228 
L 250.273933 299.141564 
L 250.714942 300.157345 
L 251.15595 300.854345 
L 251.596959 301.230884 
L 252.037968 301.286052 
L 252.478976 301.019716 
L 252.919985 300.432519 
L 253.360993 299.525877 
L 254.243011 296.763778 
L 255.125028 292.76006 
L 256.007045 287.509795 
L 256.889062 279.803732 
L 257.77108 269.233146 
L 258.653097 256.068969 
L 259.976123 232.213876 
L 261.740157 194.93522 
L 265.709235 107.245181 
L 267.032261 82.832037 
L 267.914278 69.203432 
L 268.796295 58.108125 
L 269.678312 49.830496 
L 270.119321 46.817594 
L 270.56033 44.582706 
L 271.001338 43.140175 
L 271.442347 42.499259 
L 271.883356 42.664071 
L 272.324364 43.633554 
L 272.765373 45.401486 
L 273.206381 47.95652 
L 274.088399 55.357356 
L 274.970416 65.646373 
L 275.852433 78.559858 
L 277.175459 102.110605 
L 278.939493 139.143103 
L 283.34958 235.71571 
L 284.672606 258.955765 
L 285.554623 271.615073 
L 286.43664 281.619739 
L 287.318657 288.713338 
L 287.759666 291.108614 
L 288.200675 292.714055 
L 288.641683 293.519356 
L 289.082692 293.51935 
L 289.5237 292.714036 
L 289.964709 291.108583 
L 290.405718 288.713294 
L 291.287735 281.619672 
L 292.169752 271.614984 
L 293.051769 258.955656 
L 294.374795 235.715577 
L 296.13883 198.939176 
L 300.548916 102.110471 
L 301.871942 78.559748 
L 302.753959 65.646282 
L 303.635976 55.357286 
L 304.517994 47.956474 
L 304.959002 45.401452 
L 305.400011 43.633533 
L 305.841019 42.664062 
L 306.282028 42.499262 
L 306.723037 43.140191 
L 307.164045 44.582735 
L 307.605054 46.817635 
L 308.487071 53.60214 
L 309.369088 63.319814 
L 310.251106 75.721586 
L 311.574132 98.64476 
L 313.338166 135.155194 
L 318.189261 240.648735 
L 319.512287 262.955736 
L 320.394304 274.861302 
L 321.276321 284.029023 
L 322.158338 290.304101 
L 323.040356 294.914877 
L 323.922373 298.301869 
L 324.80439 300.432407 
L 325.245399 301.019603 
L 325.686407 301.285939 
L 326.127416 301.230771 
L 326.568425 300.854233 
L 327.009433 300.157233 
L 327.450442 299.141453 
L 328.332459 296.16412 
L 329.214476 291.950953 
L 330.096494 286.542591 
L 330.978511 279.991201 
L 332.301537 268.162042 
L 333.624563 254.162168 
L 335.388597 232.649598 
L 337.59364 202.368545 
L 345.090787 95.612514 
L 346.854821 75.166734 
L 348.177847 62.140223 
L 349.500873 51.409786 
L 350.38289 45.648854 
L 351.264908 41.068498 
L 352.146925 37.712899 
L 353.028942 35.614423 
L 353.469951 35.043412 
L 353.910959 34.793313 
L 354.351968 34.864729 
L 354.792977 35.257489 
L 355.233985 35.970644 
L 355.674994 37.002473 
L 356.557011 40.011434 
L 357.439028 44.255347 
L 358.321046 49.693278 
L 359.203063 56.272773 
L 360.526089 68.140758 
L 361.849114 82.174718 
L 363.613149 103.724102 
L 365.818192 134.035376 
L 373.315339 240.749114 
L 375.079373 261.154384 
L 376.402399 274.144428 
L 377.725425 284.834052 
L 378.607442 290.565794 
L 379.489459 295.115702 
L 380.371477 298.439888 
L 381.253494 300.506289 
L 381.694502 301.061111 
L 382.135511 301.294971 
L 382.57652 301.207307 
L 383.017528 300.798329 
L 383.458537 300.069024 
L 383.899546 299.021151 
L 384.781563 295.980582 
L 385.66358 291.705948 
L 386.545597 286.238482 
L 387.427615 279.630922 
L 388.75064 267.724185 
L 390.073666 253.656225 
L 391.837701 232.070159 
L 394.042744 201.728851 
L 401.098882 100.621398 
L 402.862916 79.476215 
L 404.185942 65.814576 
L 405.508968 54.369346 
L 406.390985 48.09522 
L 407.273003 42.978072 
L 408.15502 39.067261 
L 409.037037 36.400511 
L 409.478046 35.542173 
L 409.919054 35.003544 
L 410.360063 34.785923 
L 410.801072 34.889835 
L 411.24208 35.315029 
L 411.683089 36.06048 
L 412.124097 37.124389 
L 413.006115 40.196549 
L 413.888132 44.501877 
L 414.770149 49.998844 
L 415.652166 56.634428 
L 416.975192 68.579845 
L 418.298218 82.681717 
L 420.062253 104.304332 
L 422.267296 134.675487 
L 429.323434 235.747912 
L 431.087468 256.854863 
L 432.410494 270.481496 
L 433.73352 281.887127 
L 434.615537 288.132721 
L 435.497554 293.219951 
L 436.379572 297.099745 
L 437.261589 299.734679 
L 437.702598 300.576906 
L 438.143606 301.099339 
L 438.584615 301.300719 
L 439.025623 301.180561 
L 439.466632 300.739152 
L 439.907641 299.97756 
L 440.348649 298.897622 
L 441.230666 295.79389 
L 442.112684 291.457895 
L 442.994701 285.93146 
L 443.876718 279.267894 
L 445.199744 267.28387 
L 446.52277 253.148172 
L 448.286804 231.489142 
L 450.491848 201.088326 
L 457.547986 100.051552 
L 459.31202 78.982964 
L 460.635046 65.39142 
L 461.958072 54.02546 
L 462.840089 47.808435 
L 463.722106 42.751156 
L 464.604123 38.902402 
L 465.486141 36.299299 
L 465.927149 35.47319 
L 466.368158 34.966955 
L 466.809167 34.781817 
L 467.250175 34.918222 
L 467.691184 35.375841 
L 468.132192 36.15357 
L 468.573201 37.249532 
L 469.455218 40.384816 
L 470.337236 44.751452 
L 471.219253 50.30732 
L 472.10127 56.998828 
L 473.424296 69.021383 
L 474.747322 83.19082 
L 476.511356 104.886132 
L 478.716399 135.316421 
L 485.772537 236.316922 
L 487.536572 257.347018 
L 488.859598 270.903388 
L 490.182624 282.229609 
L 491.064641 288.418025 
L 491.946658 293.445324 
L 492.828675 297.263013 
L 493.710693 299.834268 
L 494.151701 300.644256 
L 494.59271 301.134288 
L 495.033718 301.303183 
L 495.474727 301.150533 
L 495.915736 300.676705 
L 496.356744 299.882845 
L 496.797753 298.770866 
L 497.67977 295.604049 
L 498.561787 291.206799 
L 499.443805 285.621533 
L 500.325822 278.902123 
L 501.648848 266.84111 
L 502.971874 252.638022 
L 504.735908 230.906562 
L 506.940951 200.446987 
L 509.145994 168.042089 
L 509.145994 168.042089 
" clip-path="url(#p142066906a)" style="fill: none; stroke-dasharray: 5.55,2.4; stroke-dashoffset: 0; stroke: #ff0000; stroke-width: 1.5"/>
   </g>
   <g id="patch_3">
    <path d="M 46.55 314.629375 
L 46.55 21.455625 
" style="fill: none; stroke: #000000; stroke-width: 0.8; stroke-linejoin: miter; stroke-linecap: square"/>
   </g>
   <g id="patch_4">
    <path d="M 531.174375 314.629375 
L 531.174375 21.455625 
" style="fill: none; stroke: #000000; stroke-width: 0.8; stroke-linejoin: miter; stroke-linecap: square"/>
   </g>
   <g id="patch_5">
    <path d="M 46.55 314.629375 
L 531.174375 314.629375 
" style="fill: none; stroke: #000000; stroke-width: 0.8; stroke-linejoin: miter; stroke-linecap: square"/>
   </g>
   <g id="patch_6">
    <path d="M 46.55 21.455625 
L 531.174375 21.455625 
" style="fill: none; stroke: #000000; stroke-width: 0.8; stroke-linejoin: miter; stroke-linecap: square"/>
   </g>
   <g id="text_17">
    <!-- Wavefunction for Energy = 8.010695508379715 eV -->
    <g transform="translate(162.44125 15.455625) scale(0.12 -0.12)">
     <defs>
      <path id="STIXGeneral-Regular-72" d="M 1024 2931 
L 1024 2342 
Q 1267 2688 1430 2816 
Q 1594 2944 1792 2944 
Q 1958 2944 2051 2854 
Q 2144 2765 2144 2605 
Q 2144 2470 2077 2393 
Q 2010 2317 1894 2317 
Q 1773 2317 1638 2445 
Q 1536 2541 1472 2541 
Q 1338 2541 1181 2355 
Q 1024 2170 1024 2016 
L 1024 576 
Q 1024 301 1133 205 
Q 1242 109 1568 96 
L 1568 0 
L 32 0 
L 32 96 
Q 339 154 412 224 
Q 486 294 486 538 
L 486 2138 
Q 486 2349 438 2435 
Q 390 2522 269 2522 
Q 166 2522 45 2496 
L 45 2598 
Q 448 2726 992 2944 
L 1024 2931 
z
" transform="scale(0.015625)"/>
      <path id="STIXGeneral-Regular-45" d="M 3821 1082 
L 3526 0 
L 77 0 
L 77 122 
Q 442 147 538 252 
Q 634 358 634 730 
L 634 3520 
Q 634 3878 534 3987 
Q 435 4096 77 4115 
L 77 4237 
L 3469 4237 
L 3494 3322 
L 3334 3322 
Q 3264 3750 3085 3872 
Q 2906 3994 2349 3994 
L 1510 3994 
Q 1370 3994 1328 3952 
Q 1286 3910 1286 3763 
L 1286 2355 
L 2253 2355 
Q 2656 2355 2787 2470 
Q 2918 2586 2976 2970 
L 3123 2970 
L 3123 1472 
L 2976 1472 
Q 2918 1875 2790 1984 
Q 2662 2093 2253 2093 
L 1286 2093 
L 1286 538 
Q 1286 346 1420 291 
Q 1555 237 1933 237 
L 2163 237 
Q 2848 237 3136 403 
Q 3424 570 3642 1082 
L 3821 1082 
z
" transform="scale(0.015625)"/>
      <path id="STIXGeneral-Regular-67" d="M 3008 2483 
L 2477 2483 
Q 2598 2208 2598 1946 
Q 2598 1453 2265 1203 
Q 1933 954 1600 954 
Q 1530 954 1357 973 
L 1235 986 
Q 1107 947 979 812 
Q 851 678 851 582 
Q 851 435 1350 410 
L 2176 371 
Q 2528 358 2739 172 
Q 2950 -13 2950 -314 
Q 2950 -685 2566 -986 
Q 2035 -1395 1286 -1395 
Q 826 -1395 502 -1212 
Q 179 -1030 179 -774 
Q 179 -595 320 -419 
Q 461 -243 806 6 
Q 602 102 534 172 
Q 467 243 467 346 
Q 467 531 762 787 
Q 909 915 1037 1043 
Q 717 1203 579 1401 
Q 442 1600 442 1901 
Q 442 2336 752 2640 
Q 1062 2944 1510 2944 
Q 1766 2944 2022 2848 
L 2163 2797 
Q 2349 2733 2515 2733 
L 3008 2733 
L 3008 2483 
z
M 973 2163 
L 973 2144 
Q 973 1683 1155 1398 
Q 1338 1114 1632 1114 
Q 1850 1114 1978 1270 
Q 2106 1427 2106 1690 
Q 2106 2112 1914 2464 
Q 1754 2765 1446 2765 
Q 1222 2765 1097 2605 
Q 973 2445 973 2163 
z
M 2771 -410 
Q 2771 -230 2595 -163 
Q 2419 -96 1978 -96 
Q 1344 -96 941 -13 
Q 749 -243 688 -348 
Q 627 -454 627 -563 
Q 627 -774 880 -902 
Q 1133 -1030 1555 -1030 
Q 2099 -1030 2435 -860 
Q 2771 -691 2771 -410 
z
" transform="scale(0.015625)"/>
      <path id="STIXGeneral-Regular-79" d="M 3040 2880 
L 3040 2784 
Q 2925 2771 2854 2700 
Q 2784 2630 2720 2458 
L 1760 -160 
Q 1510 -838 1257 -1116 
Q 1005 -1395 640 -1395 
Q 435 -1395 313 -1289 
Q 192 -1184 192 -1024 
Q 192 -902 272 -816 
Q 352 -730 467 -730 
Q 653 -730 800 -813 
Q 883 -858 966 -858 
Q 1101 -858 1286 -576 
Q 1376 -448 1459 -211 
Q 1542 26 1542 115 
Q 1542 198 1274 762 
L 429 2566 
Q 346 2752 90 2790 
L 90 2880 
L 1402 2880 
L 1402 2784 
Q 1197 2778 1117 2739 
Q 1037 2701 1037 2611 
Q 1037 2541 1120 2349 
L 1837 749 
L 2458 2515 
Q 2483 2573 2483 2630 
Q 2483 2784 2189 2784 
L 2189 2880 
L 3040 2880 
z
" transform="scale(0.015625)"/>
      <path id="STIXGeneral-Regular-3d" d="M 4077 2048 
L 307 2048 
L 307 2470 
L 4077 2470 
L 4077 2048 
z
M 4077 768 
L 307 768 
L 307 1190 
L 4077 1190 
L 4077 768 
z
" transform="scale(0.015625)"/>
      <path id="STIXGeneral-Regular-38" d="M 2848 992 
Q 2848 499 2505 204 
Q 2163 -90 1587 -90 
Q 1050 -90 704 204 
Q 358 499 358 954 
Q 358 1293 524 1533 
Q 691 1773 1190 2125 
Q 710 2522 553 2765 
Q 397 3008 397 3328 
Q 397 3782 745 4054 
Q 1094 4326 1638 4326 
Q 2106 4326 2410 4060 
Q 2714 3795 2714 3411 
Q 2714 3059 2531 2848 
Q 2349 2637 1856 2374 
Q 2432 1990 2640 1689 
Q 2848 1389 2848 992 
z
M 2272 3411 
Q 2272 3744 2086 3945 
Q 1901 4147 1574 4147 
Q 1248 4147 1059 3977 
Q 870 3808 870 3513 
Q 870 3219 1059 2979 
Q 1248 2739 1670 2490 
Q 1997 2682 2134 2896 
Q 2272 3110 2272 3411 
z
M 1734 1741 
L 1357 1997 
Q 1075 1766 960 1545 
Q 845 1325 845 1011 
Q 845 576 1065 333 
Q 1286 90 1658 90 
Q 1971 90 2166 285 
Q 2362 480 2362 794 
Q 2362 1082 2214 1299 
Q 2067 1517 1734 1741 
z
" transform="scale(0.015625)"/>
      <path id="STIXGeneral-Regular-36" d="M 2854 4378 
L 2867 4275 
Q 2112 4154 1606 3664 
Q 1101 3174 973 2451 
Q 1344 2739 1786 2739 
Q 2349 2739 2672 2380 
Q 2995 2022 2995 1402 
Q 2995 774 2669 378 
Q 2291 -90 1651 -90 
Q 870 -90 518 557 
Q 218 1107 218 1786 
Q 218 2835 915 3552 
Q 1312 3962 1731 4131 
Q 2150 4301 2854 4378 
z
M 2419 1203 
Q 2419 2445 1555 2445 
Q 1235 2445 1024 2275 
Q 813 2106 813 1702 
Q 813 954 1046 522 
Q 1280 90 1722 90 
Q 2061 90 2240 394 
Q 2419 698 2419 1203 
z
" transform="scale(0.015625)"/>
      <path id="STIXGeneral-Regular-39" d="M 378 -141 
L 358 -13 
Q 1094 115 1603 608 
Q 2112 1101 2304 1882 
Q 1933 1517 1344 1517 
Q 826 1517 509 1875 
Q 192 2234 192 2816 
Q 192 3462 573 3894 
Q 954 4326 1523 4326 
Q 2131 4326 2528 3840 
Q 2938 3328 2938 2522 
Q 2938 1958 2742 1462 
Q 2547 966 2170 621 
Q 1773 262 1395 105 
Q 1018 -51 378 -141 
z
M 2317 2272 
L 2317 2522 
Q 2317 4147 1472 4147 
Q 1171 4147 1005 3930 
Q 909 3802 845 3546 
Q 781 3290 781 3034 
Q 781 2464 995 2128 
Q 1210 1792 1568 1792 
Q 1824 1792 2070 1917 
Q 2317 2042 2317 2272 
z
" transform="scale(0.015625)"/>
      <path id="STIXGeneral-Regular-33" d="M 390 3264 
L 288 3290 
Q 435 3770 748 4048 
Q 1062 4326 1542 4326 
Q 1990 4326 2265 4083 
Q 2541 3840 2541 3450 
Q 2541 2925 1946 2566 
Q 2298 2413 2477 2227 
Q 2758 1914 2758 1402 
Q 2758 890 2464 506 
Q 2246 211 1840 60 
Q 1434 -90 979 -90 
Q 262 -90 262 275 
Q 262 378 339 442 
Q 416 506 525 506 
Q 685 506 915 339 
Q 1197 141 1466 141 
Q 1818 141 2058 425 
Q 2298 710 2298 1120 
Q 2298 1856 1632 2048 
Q 1434 2112 979 2112 
L 979 2202 
Q 1338 2323 1517 2432 
Q 2035 2726 2035 3290 
Q 2035 3610 1852 3776 
Q 1670 3942 1344 3942 
Q 768 3942 390 3264 
z
" transform="scale(0.015625)"/>
     </defs>
     <use xlink:href="#STIXGeneral-Regular-57"/>
     <use xlink:href="#STIXGeneral-Regular-61" transform="translate(94.399994 0)"/>
     <use xlink:href="#STIXGeneral-Regular-76" transform="translate(138.799988 0)"/>
     <use xlink:href="#STIXGeneral-Regular-65" transform="translate(188.799973 0)"/>
     <use xlink:href="#STIXGeneral-Regular-66" transform="translate(233.199966 0)"/>
     <use xlink:href="#STIXGeneral-Regular-75" transform="translate(266.499954 0)"/>
     <use xlink:href="#STIXGeneral-Regular-6e" transform="translate(316.499939 0)"/>
     <use xlink:href="#STIXGeneral-Regular-63" transform="translate(366.499924 0)"/>
     <use xlink:href="#STIXGeneral-Regular-74" transform="translate(410.899918 0)"/>
     <use xlink:href="#STIXGeneral-Regular-69" transform="translate(438.699905 0)"/>
     <use xlink:href="#STIXGeneral-Regular-6f" transform="translate(466.499893 0)"/>
     <use xlink:href="#STIXGeneral-Regular-6e" transform="translate(516.499878 0)"/>
     <use xlink:href="#STIXGeneral-Regular-20" transform="translate(566.499863 0)"/>
     <use xlink:href="#STIXGeneral-Regular-66" transform="translate(591.499847 0)"/>
     <use xlink:href="#STIXGeneral-Regular-6f" transform="translate(624.799835 0)"/>
     <use xlink:href="#STIXGeneral-Regular-72" transform="translate(674.79982 0)"/>
     <use xlink:href="#STIXGeneral-Regular-20" transform="translate(708.099808 0)"/>
     <use xlink:href="#STIXGeneral-Regular-45" transform="translate(733.099792 0)"/>
     <use xlink:href="#STIXGeneral-Regular-6e" transform="translate(794.199783 0)"/>
     <use xlink:href="#STIXGeneral-Regular-65" transform="translate(844.199768 0)"/>
     <use xlink:href="#STIXGeneral-Regular-72" transform="translate(888.599762 0)"/>
     <use xlink:href="#STIXGeneral-Regular-67" transform="translate(921.89975 0)"/>
     <use xlink:href="#STIXGeneral-Regular-79" transform="translate(971.899734 0)"/>
     <use xlink:href="#STIXGeneral-Regular-20" transform="translate(1021.899719 0)"/>
     <use xlink:href="#STIXGeneral-Regular-3d" transform="translate(1046.899704 0)"/>
     <use xlink:href="#STIXGeneral-Regular-20" transform="translate(1115.399689 0)"/>
     <use xlink:href="#STIXGeneral-Regular-38" transform="translate(1140.399673 0)"/>
     <use xlink:href="#STIXGeneral-Regular-2e" transform="translate(1190.399658 0)"/>
     <use xlink:href="#STIXGeneral-Regular-30" transform="translate(1215.399643 0)"/>
     <use xlink:href="#STIXGeneral-Regular-31" transform="translate(1265.399628 0)"/>
     <use xlink:href="#STIXGeneral-Regular-30" transform="translate(1315.399612 0)"/>
     <use xlink:href="#STIXGeneral-Regular-36" transform="translate(1365.399597 0)"/>
     <use xlink:href="#STIXGeneral-Regular-39" transform="translate(1415.399582 0)"/>
     <use xlink:href="#STIXGeneral-Regular-35" transform="translate(1465.399567 0)"/>
     <use xlink:href="#STIXGeneral-Regular-35" transform="translate(1515.399551 0)"/>
     <use xlink:href="#STIXGeneral-Regular-30" transform="translate(1565.399536 0)"/>
     <use xlink:href="#STIXGeneral-Regular-38" transform="translate(1615.399521 0)"/>
     <use xlink:href="#STIXGeneral-Regular-33" transform="translate(1665.399506 0)"/>
     <use xlink:href="#STIXGeneral-Regular-37" transform="translate(1715.39949 0)"/>
     <use xlink:href="#STIXGeneral-Regular-39" transform="translate(1765.399475 0)"/>
     <use xlink:href="#STIXGeneral-Regular-37" transform="translate(1815.39946 0)"/>
     <use xlink:href="#STIXGeneral-Regular-31" transform="translate(1865.399445 0)"/>
     <use xlink:href="#STIXGeneral-Regular-35" transform="translate(1915.399429 0)"/>
     <use xlink:href="#STIXGeneral-Regular-20" transform="translate(1965.399414 0)"/>
     <use xlink:href="#STIXGeneral-Regular-65" transform="translate(1990.399399 0)"/>
     <use xlink:href="#STIXGeneral-Regular-56" transform="translate(2034.799393 0)"/>
    </g>
   </g>
   <g id="legend_1">
    <g id="patch_7">
     <path d="M 243.002031 57.805625 
L 334.722344 57.805625 
Q 336.722344 57.805625 336.722344 55.805625 
L 336.722344 28.455625 
Q 336.722344 26.455625 334.722344 26.455625 
L 243.002031 26.455625 
Q 241.002031 26.455625 241.002031 28.455625 
L 241.002031 55.805625 
Q 241.002031 57.805625 243.002031 57.805625 
z
" style="fill: #ffffff; opacity: 0.8; stroke: #cccccc; stroke-linejoin: miter"/>
    </g>
    <g id="line2d_31">
     <path d="M 245.002031 33.955625 
L 255.002031 33.955625 
L 265.002031 33.955625 
" style="fill: none; stroke: #0000ff; stroke-width: 1.5; stroke-linecap: square"/>
    </g>
    <g id="text_18">
     <!-- Real Part -->
     <g transform="translate(273.002031 37.455625) scale(0.1 -0.1)">
      <defs>
       <path id="STIXGeneral-Regular-52" d="M 4224 0 
L 3187 0 
L 1664 1971 
L 1306 1958 
L 1306 717 
Q 1306 352 1405 249 
Q 1504 147 1875 122 
L 1875 0 
L 109 0 
L 109 122 
Q 474 154 563 262 
Q 653 371 653 794 
L 653 3526 
Q 653 3885 563 3987 
Q 474 4090 109 4115 
L 109 4237 
L 1850 4237 
Q 2726 4237 3187 3859 
Q 3501 3603 3501 3091 
Q 3501 2221 2342 2042 
L 3622 422 
Q 3757 256 3878 198 
Q 4000 141 4224 122 
L 4224 0 
z
M 1306 3731 
L 1306 2195 
Q 1766 2202 1990 2246 
Q 2214 2291 2438 2413 
Q 2803 2618 2803 3142 
Q 2803 4000 1632 4000 
Q 1459 4000 1382 3945 
Q 1306 3891 1306 3731 
z
" transform="scale(0.015625)"/>
       <path id="STIXGeneral-Regular-50" d="M 102 4237 
L 1760 4237 
Q 2669 4237 3149 3834 
Q 3469 3565 3469 3072 
Q 3469 2560 3104 2234 
Q 2835 1990 2553 1916 
Q 2272 1843 1734 1843 
Q 1549 1843 1293 1862 
L 1293 717 
Q 1293 352 1398 246 
Q 1504 141 1894 122 
L 1894 0 
L 102 0 
L 102 122 
Q 474 147 557 256 
Q 640 365 640 781 
L 640 3526 
Q 640 3885 547 3987 
Q 454 4090 102 4115 
L 102 4237 
z
M 1293 3770 
L 1293 2118 
Q 1510 2099 1683 2099 
Q 2202 2099 2486 2352 
Q 2771 2605 2771 3040 
Q 2771 3558 2476 3779 
Q 2182 4000 1517 4000 
Q 1382 4000 1337 3952 
Q 1293 3904 1293 3770 
z
" transform="scale(0.015625)"/>
      </defs>
      <use xlink:href="#STIXGeneral-Regular-52"/>
      <use xlink:href="#STIXGeneral-Regular-65" transform="translate(66.699997 0)"/>
      <use xlink:href="#STIXGeneral-Regular-61" transform="translate(111.099991 0)"/>
      <use xlink:href="#STIXGeneral-Regular-6c" transform="translate(155.499985 0)"/>
      <use xlink:href="#STIXGeneral-Regular-20" transform="translate(183.299973 0)"/>
      <use xlink:href="#STIXGeneral-Regular-50" transform="translate(208.299957 0)"/>
      <use xlink:href="#STIXGeneral-Regular-61" transform="translate(263.999954 0)"/>
      <use xlink:href="#STIXGeneral-Regular-72" transform="translate(308.399948 0)"/>
      <use xlink:href="#STIXGeneral-Regular-74" transform="translate(341.699936 0)"/>
     </g>
    </g>
    <g id="line2d_32">
     <path d="M 245.002031 48.125937 
L 255.002031 48.125937 
L 265.002031 48.125937 
" style="fill: none; stroke-dasharray: 5.55,2.4; stroke-dashoffset: 0; stroke: #ff0000; stroke-width: 1.5"/>
    </g>
    <g id="text_19">
     <!-- Imaginary Part -->
     <g transform="translate(273.002031 51.625937) scale(0.1 -0.1)">
      <defs>
       <path id="STIXGeneral-Regular-49" d="M 2016 0 
L 115 0 
L 115 122 
Q 518 134 627 240 
Q 736 346 736 717 
L 736 3526 
Q 736 3898 633 3994 
Q 531 4090 115 4115 
L 115 4237 
L 2016 4237 
L 2016 4115 
Q 1613 4096 1501 3993 
Q 1389 3891 1389 3526 
L 1389 717 
Q 1389 358 1504 246 
Q 1619 134 2016 122 
L 2016 0 
z
" transform="scale(0.015625)"/>
       <path id="STIXGeneral-Regular-6d" d="M 4960 0 
L 3565 0 
L 3565 96 
Q 3834 122 3907 208 
Q 3981 294 3981 576 
L 3981 1894 
Q 3981 2278 3869 2444 
Q 3757 2611 3488 2611 
Q 3264 2611 3107 2521 
Q 2950 2432 2803 2221 
L 2803 608 
Q 2803 301 2896 201 
Q 2989 102 3264 96 
L 3264 0 
L 1830 0 
L 1830 96 
Q 2112 115 2189 188 
Q 2266 262 2266 550 
L 2266 1901 
Q 2266 2611 1850 2611 
Q 1670 2611 1468 2531 
Q 1267 2451 1171 2336 
Q 1088 2240 1088 2227 
L 1088 448 
Q 1088 243 1177 176 
Q 1267 109 1523 96 
L 1523 0 
L 102 0 
L 102 96 
Q 371 102 460 195 
Q 550 288 550 563 
L 550 2150 
Q 550 2387 499 2480 
Q 448 2573 326 2573 
Q 230 2573 122 2547 
L 122 2656 
Q 557 2778 1011 2944 
L 1062 2925 
L 1062 2451 
L 1075 2451 
Q 1363 2752 1584 2848 
Q 1805 2944 2054 2944 
Q 2560 2944 2733 2406 
Q 3232 2944 3776 2944 
Q 4518 2944 4518 1792 
L 4518 493 
Q 4518 282 4582 202 
Q 4646 122 4794 109 
L 4960 96 
L 4960 0 
z
" transform="scale(0.015625)"/>
      </defs>
      <use xlink:href="#STIXGeneral-Regular-49"/>
      <use xlink:href="#STIXGeneral-Regular-6d" transform="translate(33.299988 0)"/>
      <use xlink:href="#STIXGeneral-Regular-61" transform="translate(111.099976 0)"/>
      <use xlink:href="#STIXGeneral-Regular-67" transform="translate(155.499969 0)"/>
      <use xlink:href="#STIXGeneral-Regular-69" transform="translate(205.499954 0)"/>
      <use xlink:href="#STIXGeneral-Regular-6e" transform="translate(233.299942 0)"/>
      <use xlink:href="#STIXGeneral-Regular-61" transform="translate(283.299927 0)"/>
      <use xlink:href="#STIXGeneral-Regular-72" transform="translate(327.699921 0)"/>
      <use xlink:href="#STIXGeneral-Regular-79" transform="translate(360.999908 0)"/>
      <use xlink:href="#STIXGeneral-Regular-20" transform="translate(410.999893 0)"/>
      <use xlink:href="#STIXGeneral-Regular-50" transform="translate(435.999878 0)"/>
      <use xlink:href="#STIXGeneral-Regular-61" transform="translate(491.699875 0)"/>
      <use xlink:href="#STIXGeneral-Regular-72" transform="translate(536.099869 0)"/>
      <use xlink:href="#STIXGeneral-Regular-74" transform="translate(569.399857 0)"/>
     </g>
    </g>
   </g>
  </g>
  <g id="axes_2">
   <g id="patch_8">
    <path d="M 580.255625 314.629375 
L 1064.88 314.629375 
L 1064.88 21.455625 
L 580.255625 21.455625 
z
" style="fill: #ffffff"/>
   </g>
   <g id="matplotlib.axis_3">
    <g id="xtick_10">
     <g id="line2d_33">
      <path d="M 602.284006 314.629375 
L 602.284006 21.455625 
" clip-path="url(#p29644c4747)" style="fill: none; stroke: #b0b0b0; stroke-width: 0.8; stroke-linecap: square"/>
     </g>
     <g id="line2d_34">
      <g>
       <use xlink:href="#m2832c3acfd" x="602.284006" y="314.629375" style="stroke: #000000; stroke-width: 0.8"/>
      </g>
     </g>
     <g id="text_20">
      <!-- −10.0 -->
      <g transform="translate(590.109006 328.459062) scale(0.1 -0.1)">
       <use xlink:href="#STIXGeneral-Regular-2212"/>
       <use xlink:href="#STIXGeneral-Regular-31" transform="translate(68.499985 0)"/>
       <use xlink:href="#STIXGeneral-Regular-30" transform="translate(118.499969 0)"/>
       <use xlink:href="#STIXGeneral-Regular-2e" transform="translate(168.499954 0)"/>
       <use xlink:href="#STIXGeneral-Regular-30" transform="translate(193.499939 0)"/>
      </g>
     </g>
    </g>
    <g id="xtick_11">
     <g id="line2d_35">
      <path d="M 657.354957 314.629375 
L 657.354957 21.455625 
" clip-path="url(#p29644c4747)" style="fill: none; stroke: #b0b0b0; stroke-width: 0.8; stroke-linecap: square"/>
     </g>
     <g id="line2d_36">
      <g>
       <use xlink:href="#m2832c3acfd" x="657.354957" y="314.629375" style="stroke: #000000; stroke-width: 0.8"/>
      </g>
     </g>
     <g id="text_21">
      <!-- −7.5 -->
      <g transform="translate(647.679957 328.459062) scale(0.1 -0.1)">
       <use xlink:href="#STIXGeneral-Regular-2212"/>
       <use xlink:href="#STIXGeneral-Regular-37" transform="translate(68.499985 0)"/>
       <use xlink:href="#STIXGeneral-Regular-2e" transform="translate(118.499969 0)"/>
       <use xlink:href="#STIXGeneral-Regular-35" transform="translate(143.499954 0)"/>
      </g>
     </g>
    </g>
    <g id="xtick_12">
     <g id="line2d_37">
      <path d="M 712.425909 314.629375 
L 712.425909 21.455625 
" clip-path="url(#p29644c4747)" style="fill: none; stroke: #b0b0b0; stroke-width: 0.8; stroke-linecap: square"/>
     </g>
     <g id="line2d_38">
      <g>
       <use xlink:href="#m2832c3acfd" x="712.425909" y="314.629375" style="stroke: #000000; stroke-width: 0.8"/>
      </g>
     </g>
     <g id="text_22">
      <!-- −5.0 -->
      <g transform="translate(702.750909 328.459062) scale(0.1 -0.1)">
       <use xlink:href="#STIXGeneral-Regular-2212"/>
       <use xlink:href="#STIXGeneral-Regular-35" transform="translate(68.499985 0)"/>
       <use xlink:href="#STIXGeneral-Regular-2e" transform="translate(118.499969 0)"/>
       <use xlink:href="#STIXGeneral-Regular-30" transform="translate(143.499954 0)"/>
      </g>
     </g>
    </g>
    <g id="xtick_13">
     <g id="line2d_39">
      <path d="M 767.496861 314.629375 
L 767.496861 21.455625 
" clip-path="url(#p29644c4747)" style="fill: none; stroke: #b0b0b0; stroke-width: 0.8; stroke-linecap: square"/>
     </g>
     <g id="line2d_40">
      <g>
       <use xlink:href="#m2832c3acfd" x="767.496861" y="314.629375" style="stroke: #000000; stroke-width: 0.8"/>
      </g>
     </g>
     <g id="text_23">
      <!-- −2.5 -->
      <g transform="translate(757.821861 328.459062) scale(0.1 -0.1)">
       <use xlink:href="#STIXGeneral-Regular-2212"/>
       <use xlink:href="#STIXGeneral-Regular-32" transform="translate(68.499985 0)"/>
       <use xlink:href="#STIXGeneral-Regular-2e" transform="translate(118.499969 0)"/>
       <use xlink:href="#STIXGeneral-Regular-35" transform="translate(143.499954 0)"/>
      </g>
     </g>
    </g>
    <g id="xtick_14">
     <g id="line2d_41">
      <path d="M 822.567813 314.629375 
L 822.567813 21.455625 
" clip-path="url(#p29644c4747)" style="fill: none; stroke: #b0b0b0; stroke-width: 0.8; stroke-linecap: square"/>
     </g>
     <g id="line2d_42">
      <g>
       <use xlink:href="#m2832c3acfd" x="822.567813" y="314.629375" style="stroke: #000000; stroke-width: 0.8"/>
      </g>
     </g>
     <g id="text_24">
      <!-- 0.0 -->
      <g transform="translate(816.317813 328.459062) scale(0.1 -0.1)">
       <use xlink:href="#STIXGeneral-Regular-30"/>
       <use xlink:href="#STIXGeneral-Regular-2e" transform="translate(49.999985 0)"/>
       <use xlink:href="#STIXGeneral-Regular-30" transform="translate(74.999969 0)"/>
      </g>
     </g>
    </g>
    <g id="xtick_15">
     <g id="line2d_43">
      <path d="M 877.638764 314.629375 
L 877.638764 21.455625 
" clip-path="url(#p29644c4747)" style="fill: none; stroke: #b0b0b0; stroke-width: 0.8; stroke-linecap: square"/>
     </g>
     <g id="line2d_44">
      <g>
       <use xlink:href="#m2832c3acfd" x="877.638764" y="314.629375" style="stroke: #000000; stroke-width: 0.8"/>
      </g>
     </g>
     <g id="text_25">
      <!-- 2.5 -->
      <g transform="translate(871.388764 328.459062) scale(0.1 -0.1)">
       <use xlink:href="#STIXGeneral-Regular-32"/>
       <use xlink:href="#STIXGeneral-Regular-2e" transform="translate(49.999985 0)"/>
       <use xlink:href="#STIXGeneral-Regular-35" transform="translate(74.999969 0)"/>
      </g>
     </g>
    </g>
    <g id="xtick_16">
     <g id="line2d_45">
      <path d="M 932.709716 314.629375 
L 932.709716 21.455625 
" clip-path="url(#p29644c4747)" style="fill: none; stroke: #b0b0b0; stroke-width: 0.8; stroke-linecap: square"/>
     </g>
     <g id="line2d_46">
      <g>
       <use xlink:href="#m2832c3acfd" x="932.709716" y="314.629375" style="stroke: #000000; stroke-width: 0.8"/>
      </g>
     </g>
     <g id="text_26">
      <!-- 5.0 -->
      <g transform="translate(926.459716 328.459062) scale(0.1 -0.1)">
       <use xlink:href="#STIXGeneral-Regular-35"/>
       <use xlink:href="#STIXGeneral-Regular-2e" transform="translate(49.999985 0)"/>
       <use xlink:href="#STIXGeneral-Regular-30" transform="translate(74.999969 0)"/>
      </g>
     </g>
    </g>
    <g id="xtick_17">
     <g id="line2d_47">
      <path d="M 987.780668 314.629375 
L 987.780668 21.455625 
" clip-path="url(#p29644c4747)" style="fill: none; stroke: #b0b0b0; stroke-width: 0.8; stroke-linecap: square"/>
     </g>
     <g id="line2d_48">
      <g>
       <use xlink:href="#m2832c3acfd" x="987.780668" y="314.629375" style="stroke: #000000; stroke-width: 0.8"/>
      </g>
     </g>
     <g id="text_27">
      <!-- 7.5 -->
      <g transform="translate(981.530668 328.459062) scale(0.1 -0.1)">
       <use xlink:href="#STIXGeneral-Regular-37"/>
       <use xlink:href="#STIXGeneral-Regular-2e" transform="translate(49.999985 0)"/>
       <use xlink:href="#STIXGeneral-Regular-35" transform="translate(74.999969 0)"/>
      </g>
     </g>
    </g>
    <g id="xtick_18">
     <g id="line2d_49">
      <path d="M 1042.851619 314.629375 
L 1042.851619 21.455625 
" clip-path="url(#p29644c4747)" style="fill: none; stroke: #b0b0b0; stroke-width: 0.8; stroke-linecap: square"/>
     </g>
     <g id="line2d_50">
      <g>
       <use xlink:href="#m2832c3acfd" x="1042.851619" y="314.629375" style="stroke: #000000; stroke-width: 0.8"/>
      </g>
     </g>
     <g id="text_28">
      <!-- 10.0 -->
      <g transform="translate(1034.101619 328.459062) scale(0.1 -0.1)">
       <use xlink:href="#STIXGeneral-Regular-31"/>
       <use xlink:href="#STIXGeneral-Regular-30" transform="translate(49.999985 0)"/>
       <use xlink:href="#STIXGeneral-Regular-2e" transform="translate(99.999969 0)"/>
       <use xlink:href="#STIXGeneral-Regular-30" transform="translate(124.999954 0)"/>
      </g>
     </g>
    </g>
    <g id="text_29">
     <!-- x -->
     <g transform="translate(820.067813 341.459062) scale(0.1 -0.1)">
      <use xlink:href="#STIXGeneral-Regular-78"/>
     </g>
    </g>
   </g>
   <g id="matplotlib.axis_4">
    <g id="ytick_6">
     <g id="line2d_51">
      <path d="M 580.255625 301.303295 
L 1064.88 301.303295 
" clip-path="url(#p29644c4747)" style="fill: none; stroke: #b0b0b0; stroke-width: 0.8; stroke-linecap: square"/>
     </g>
     <g id="line2d_52">
      <g>
       <use xlink:href="#me1ccb387bd" x="580.255625" y="301.303295" style="stroke: #000000; stroke-width: 0.8"/>
      </g>
     </g>
     <g id="text_30">
      <!-- 0.00 -->
      <g transform="translate(555.755625 304.718139) scale(0.1 -0.1)">
       <use xlink:href="#STIXGeneral-Regular-30"/>
       <use xlink:href="#STIXGeneral-Regular-2e" transform="translate(49.999985 0)"/>
       <use xlink:href="#STIXGeneral-Regular-30" transform="translate(74.999969 0)"/>
       <use xlink:href="#STIXGeneral-Regular-30" transform="translate(124.999954 0)"/>
      </g>
     </g>
    </g>
    <g id="ytick_7">
     <g id="line2d_53">
      <path d="M 580.255625 248.374058 
L 1064.88 248.374058 
" clip-path="url(#p29644c4747)" style="fill: none; stroke: #b0b0b0; stroke-width: 0.8; stroke-linecap: square"/>
     </g>
     <g id="line2d_54">
      <g>
       <use xlink:href="#me1ccb387bd" x="580.255625" y="248.374058" style="stroke: #000000; stroke-width: 0.8"/>
      </g>
     </g>
     <g id="text_31">
      <!-- 0.02 -->
      <g transform="translate(555.755625 251.788902) scale(0.1 -0.1)">
       <use xlink:href="#STIXGeneral-Regular-30"/>
       <use xlink:href="#STIXGeneral-Regular-2e" transform="translate(49.999985 0)"/>
       <use xlink:href="#STIXGeneral-Regular-30" transform="translate(74.999969 0)"/>
       <use xlink:href="#STIXGeneral-Regular-32" transform="translate(124.999954 0)"/>
      </g>
     </g>
    </g>
    <g id="ytick_8">
     <g id="line2d_55">
      <path d="M 580.255625 195.444821 
L 1064.88 195.444821 
" clip-path="url(#p29644c4747)" style="fill: none; stroke: #b0b0b0; stroke-width: 0.8; stroke-linecap: square"/>
     </g>
     <g id="line2d_56">
      <g>
       <use xlink:href="#me1ccb387bd" x="580.255625" y="195.444821" style="stroke: #000000; stroke-width: 0.8"/>
      </g>
     </g>
     <g id="text_32">
      <!-- 0.04 -->
      <g transform="translate(555.755625 198.859665) scale(0.1 -0.1)">
       <defs>
        <path id="STIXGeneral-Regular-34" d="M 3027 1069 
L 2368 1069 
L 2368 0 
L 1869 0 
L 1869 1069 
L 77 1069 
L 77 1478 
L 2086 4326 
L 2368 4326 
L 2368 1478 
L 3027 1478 
L 3027 1069 
z
M 1869 1478 
L 1869 3674 
L 333 1478 
L 1869 1478 
z
" transform="scale(0.015625)"/>
       </defs>
       <use xlink:href="#STIXGeneral-Regular-30"/>
       <use xlink:href="#STIXGeneral-Regular-2e" transform="translate(49.999985 0)"/>
       <use xlink:href="#STIXGeneral-Regular-30" transform="translate(74.999969 0)"/>
       <use xlink:href="#STIXGeneral-Regular-34" transform="translate(124.999954 0)"/>
      </g>
     </g>
    </g>
    <g id="ytick_9">
     <g id="line2d_57">
      <path d="M 580.255625 142.515584 
L 1064.88 142.515584 
" clip-path="url(#p29644c4747)" style="fill: none; stroke: #b0b0b0; stroke-width: 0.8; stroke-linecap: square"/>
     </g>
     <g id="line2d_58">
      <g>
       <use xlink:href="#me1ccb387bd" x="580.255625" y="142.515584" style="stroke: #000000; stroke-width: 0.8"/>
      </g>
     </g>
     <g id="text_33">
      <!-- 0.06 -->
      <g transform="translate(555.755625 145.930427) scale(0.1 -0.1)">
       <use xlink:href="#STIXGeneral-Regular-30"/>
       <use xlink:href="#STIXGeneral-Regular-2e" transform="translate(49.999985 0)"/>
       <use xlink:href="#STIXGeneral-Regular-30" transform="translate(74.999969 0)"/>
       <use xlink:href="#STIXGeneral-Regular-36" transform="translate(124.999954 0)"/>
      </g>
     </g>
    </g>
    <g id="ytick_10">
     <g id="line2d_59">
      <path d="M 580.255625 89.586346 
L 1064.88 89.586346 
" clip-path="url(#p29644c4747)" style="fill: none; stroke: #b0b0b0; stroke-width: 0.8; stroke-linecap: square"/>
     </g>
     <g id="line2d_60">
      <g>
       <use xlink:href="#me1ccb387bd" x="580.255625" y="89.586346" style="stroke: #000000; stroke-width: 0.8"/>
      </g>
     </g>
     <g id="text_34">
      <!-- 0.08 -->
      <g transform="translate(555.755625 93.00119) scale(0.1 -0.1)">
       <use xlink:href="#STIXGeneral-Regular-30"/>
       <use xlink:href="#STIXGeneral-Regular-2e" transform="translate(49.999985 0)"/>
       <use xlink:href="#STIXGeneral-Regular-30" transform="translate(74.999969 0)"/>
       <use xlink:href="#STIXGeneral-Regular-38" transform="translate(124.999954 0)"/>
      </g>
     </g>
    </g>
    <g id="ytick_11">
     <g id="line2d_61">
      <path d="M 580.255625 36.657109 
L 1064.88 36.657109 
" clip-path="url(#p29644c4747)" style="fill: none; stroke: #b0b0b0; stroke-width: 0.8; stroke-linecap: square"/>
     </g>
     <g id="line2d_62">
      <g>
       <use xlink:href="#me1ccb387bd" x="580.255625" y="36.657109" style="stroke: #000000; stroke-width: 0.8"/>
      </g>
     </g>
     <g id="text_35">
      <!-- 0.10 -->
      <g transform="translate(555.755625 40.071953) scale(0.1 -0.1)">
       <use xlink:href="#STIXGeneral-Regular-30"/>
       <use xlink:href="#STIXGeneral-Regular-2e" transform="translate(49.999985 0)"/>
       <use xlink:href="#STIXGeneral-Regular-31" transform="translate(74.999969 0)"/>
       <use xlink:href="#STIXGeneral-Regular-30" transform="translate(124.999954 0)"/>
      </g>
     </g>
    </g>
    <g id="text_36">
     <!-- Wavefunction Magnitude -->
     <g transform="translate(549.575938 219.283906) rotate(-90) scale(0.1 -0.1)">
      <defs>
       <path id="STIXGeneral-Regular-4d" d="M 5530 0 
L 3738 0 
L 3738 122 
Q 4115 147 4214 265 
Q 4314 384 4314 787 
L 4314 3661 
L 2682 0 
L 2592 0 
L 979 3514 
L 979 966 
Q 979 448 1088 294 
Q 1197 141 1574 122 
L 1574 0 
L 77 0 
L 77 122 
Q 358 141 480 205 
Q 602 269 650 432 
Q 698 595 698 966 
L 698 3514 
Q 698 3878 589 3984 
Q 480 4090 90 4115 
L 90 4237 
L 1357 4237 
L 2835 1024 
L 4250 4237 
L 5523 4237 
L 5523 4115 
Q 5178 4109 5072 3993 
Q 4966 3878 4966 3520 
L 4966 717 
Q 4966 378 5072 262 
Q 5178 147 5530 122 
L 5530 0 
z
" transform="scale(0.015625)"/>
       <path id="STIXGeneral-Regular-64" d="M 3142 269 
L 2202 -64 
L 2176 -45 
L 2176 365 
Q 1869 -64 1357 -64 
Q 826 -64 499 317 
Q 173 698 173 1312 
Q 173 1990 563 2467 
Q 954 2944 1504 2944 
Q 1850 2944 2176 2669 
L 2176 3667 
Q 2176 3866 2118 3930 
Q 2061 3994 1882 3994 
Q 1792 3994 1741 3987 
L 1741 4090 
Q 2323 4243 2682 4371 
L 2714 4358 
L 2714 730 
Q 2714 506 2768 435 
Q 2822 365 2995 365 
Q 3034 365 3142 371 
L 3142 269 
z
M 2176 653 
L 2176 2125 
Q 2176 2381 1981 2573 
Q 1786 2765 1523 2765 
Q 1158 2765 940 2438 
Q 723 2112 723 1568 
Q 723 979 963 624 
Q 1203 269 1606 269 
Q 1907 269 2080 474 
Q 2176 582 2176 653 
z
" transform="scale(0.015625)"/>
      </defs>
      <use xlink:href="#STIXGeneral-Regular-57"/>
      <use xlink:href="#STIXGeneral-Regular-61" transform="translate(94.399994 0)"/>
      <use xlink:href="#STIXGeneral-Regular-76" transform="translate(138.799988 0)"/>
      <use xlink:href="#STIXGeneral-Regular-65" transform="translate(188.799973 0)"/>
      <use xlink:href="#STIXGeneral-Regular-66" transform="translate(233.199966 0)"/>
      <use xlink:href="#STIXGeneral-Regular-75" transform="translate(266.499954 0)"/>
      <use xlink:href="#STIXGeneral-Regular-6e" transform="translate(316.499939 0)"/>
      <use xlink:href="#STIXGeneral-Regular-63" transform="translate(366.499924 0)"/>
      <use xlink:href="#STIXGeneral-Regular-74" transform="translate(410.899918 0)"/>
      <use xlink:href="#STIXGeneral-Regular-69" transform="translate(438.699905 0)"/>
      <use xlink:href="#STIXGeneral-Regular-6f" transform="translate(466.499893 0)"/>
      <use xlink:href="#STIXGeneral-Regular-6e" transform="translate(516.499878 0)"/>
      <use xlink:href="#STIXGeneral-Regular-20" transform="translate(566.499863 0)"/>
      <use xlink:href="#STIXGeneral-Regular-4d" transform="translate(591.499847 0)"/>
      <use xlink:href="#STIXGeneral-Regular-61" transform="translate(680.399841 0)"/>
      <use xlink:href="#STIXGeneral-Regular-67" transform="translate(724.799835 0)"/>
      <use xlink:href="#STIXGeneral-Regular-6e" transform="translate(774.79982 0)"/>
      <use xlink:href="#STIXGeneral-Regular-69" transform="translate(824.799805 0)"/>
      <use xlink:href="#STIXGeneral-Regular-74" transform="translate(852.599792 0)"/>
      <use xlink:href="#STIXGeneral-Regular-75" transform="translate(880.39978 0)"/>
      <use xlink:href="#STIXGeneral-Regular-64" transform="translate(930.399765 0)"/>
      <use xlink:href="#STIXGeneral-Regular-65" transform="translate(980.39975 0)"/>
     </g>
    </g>
   </g>
   <g id="line2d_63">
    <path d="M 602.284006 301.303295 
L 602.725014 300.660594 
L 603.166023 298.738688 
L 603.607032 295.556116 
L 604.04804 291.143576 
L 604.930057 278.810296 
L 605.812075 262.213556 
L 607.135101 230.760788 
L 608.899135 180.949833 
L 611.545187 105.032124 
L 612.868213 73.637268 
L 613.75023 57.090725 
L 614.632247 44.814707 
L 615.073256 40.432767 
L 615.514264 37.281718 
L 615.955273 35.391955 
L 616.396282 34.781705 
L 616.83729 35.456854 
L 617.278299 37.41089 
L 617.719307 40.624966 
L 618.160316 45.068079 
L 619.042333 57.458545 
L 619.924351 74.105379 
L 621.247376 105.615867 
L 623.011411 155.46404 
L 625.657463 231.343756 
L 626.980489 262.680505 
L 627.862506 279.17675 
L 628.744523 291.39543 
L 629.185532 295.746743 
L 629.62654 298.866249 
L 630.067549 300.723858 
L 630.508558 301.301653 
L 630.949566 300.59406 
L 631.390575 298.607905 
L 631.831583 295.362346 
L 632.272592 290.888687 
L 633.154609 278.441112 
L 634.036626 261.744287 
L 635.359652 230.176273 
L 637.123687 180.291189 
L 639.769739 104.449934 
L 641.092764 73.171484 
L 641.974782 56.725639 
L 642.856799 44.564372 
L 643.297808 40.243713 
L 643.738816 37.155769 
L 644.179825 35.330325 
L 644.620833 34.784989 
L 645.061842 35.525021 
L 645.502851 37.543282 
L 645.943859 40.820306 
L 646.384868 45.324482 
L 647.266885 57.82909 
L 648.148902 74.575804 
L 649.471928 106.201148 
L 651.235963 156.122837 
L 653.882014 231.925164 
L 655.20504 263.145121 
L 656.087058 279.540465 
L 656.969075 291.644244 
L 657.410083 295.934222 
L 657.851092 298.990585 
L 658.292101 300.783852 
L 658.733109 301.296726 
L 659.174118 300.52426 
L 659.615127 298.473905 
L 660.056135 295.165438 
L 660.497144 290.630771 
L 661.379161 278.069207 
L 662.261178 261.272707 
L 663.584204 229.590228 
L 665.348239 179.632243 
L 667.99429 103.869311 
L 669.317316 72.708039 
L 670.199334 56.363298 
L 671.081351 44.31708 
L 671.522359 40.05781 
L 671.963368 37.033047 
L 672.404377 35.271967 
L 672.845385 34.791558 
L 673.286394 35.596454 
L 673.727402 37.678891 
L 674.168411 41.018781 
L 674.60942 45.58391 
L 675.491437 58.202353 
L 676.373454 75.048534 
L 677.69648 106.787955 
L 679.460515 156.781928 
L 682.106566 232.504997 
L 683.429592 263.607392 
L 684.311609 279.901431 
L 685.193627 291.890011 
L 685.634635 296.118549 
L 686.075644 299.111694 
L 686.516653 300.840574 
L 686.957661 301.288515 
L 687.39867 300.451194 
L 687.839678 298.336689 
L 688.280687 294.965396 
L 688.721696 290.369833 
L 689.603713 277.69459 
L 690.48573 260.79883 
L 691.808756 229.002665 
L 693.57279 178.973011 
L 696.218842 103.29027 
L 697.541868 72.246944 
L 698.423885 56.003709 
L 699.305903 44.072839 
L 699.746911 39.875061 
L 700.18792 36.913553 
L 700.628928 35.216881 
L 701.069937 34.801412 
L 701.510946 35.671152 
L 701.951954 37.817712 
L 702.392963 41.220387 
L 702.833972 45.846356 
L 703.715989 58.578322 
L 704.598006 75.523556 
L 705.921032 107.37627 
L 707.685066 157.441296 
L 710.331118 233.083242 
L 711.654144 264.067309 
L 712.536161 280.25964 
L 713.418178 292.132726 
L 713.859187 296.299719 
L 714.300196 299.229572 
L 714.741204 300.894023 
L 715.182213 301.277019 
L 715.623222 300.374865 
L 716.06423 298.196263 
L 716.505239 294.762226 
L 717.387256 284.272138 
L 718.269273 269.308363 
L 719.151291 250.446857 
L 720.474316 216.46868 
L 725.325411 81.292901 
L 726.207429 63.211961 
L 727.089446 49.165941 
L 727.971463 39.69547 
L 728.412472 36.797291 
L 728.85348 35.165069 
L 729.294489 34.814549 
L 729.735498 35.749112 
L 730.176506 37.959743 
L 730.617515 41.42512 
L 731.499532 51.974622 
L 732.381549 66.991568 
L 733.263566 85.897957 
L 734.586592 119.924243 
L 739.437687 255.04253 
L 740.319704 273.076538 
L 741.201722 287.067779 
L 742.083739 296.477728 
L 742.524748 299.344216 
L 742.965756 300.944198 
L 743.406765 301.26224 
L 743.847773 300.295274 
L 744.288782 298.052628 
L 744.729791 294.555933 
L 745.611808 283.947082 
L 746.493825 268.877057 
L 747.375842 249.925901 
L 748.698868 215.851717 
L 753.549963 80.791753 
L 754.43198 62.804788 
L 755.313998 48.868415 
L 756.196015 39.519044 
L 756.637023 36.684264 
L 757.078032 35.116533 
L 757.519041 34.830971 
L 757.960049 35.830334 
L 758.401058 38.104981 
L 758.842067 41.632973 
L 759.724084 52.301106 
L 760.606101 67.424118 
L 761.488118 86.419923 
L 762.811144 120.541797 
L 767.662239 255.542605 
L 768.544256 273.482416 
L 769.426274 287.363837 
L 770.308291 296.652571 
L 770.749299 299.455625 
L 771.190308 300.991097 
L 771.631317 301.244177 
L 772.072325 300.212423 
L 772.513334 297.905788 
L 772.954342 294.346521 
L 773.83636 283.61917 
L 774.718377 268.443266 
L 775.600394 249.402928 
L 776.92342 215.233576 
L 781.774515 80.292755 
L 782.656532 62.400209 
L 783.538549 48.573826 
L 784.420567 39.345785 
L 784.861575 36.574475 
L 785.302584 35.071272 
L 785.743593 34.850676 
L 786.184601 35.914814 
L 786.62561 38.253421 
L 787.066618 41.843942 
L 787.948636 52.630444 
L 788.830653 67.859148 
L 789.71267 87.100091 
L 790.594687 113.842495 
L 791.917713 166.101862 
L 793.681748 239.499779 
L 794.563765 269.375399 
L 795.445782 290.44885 
L 795.886791 296.97219 
L 796.327799 300.573473 
L 796.768808 301.160396 
L 797.209817 298.717916 
L 797.650825 293.308635 
L 798.091834 285.071197 
L 798.973851 261.023448 
L 799.855868 229.024307 
L 802.942929 104.749822 
L 803.824946 80.753994 
L 804.265955 72.546963 
L 804.706963 67.170037 
L 805.147972 64.76103 
L 805.588981 65.381687 
L 806.029989 69.016099 
L 806.470998 75.571116 
L 806.912006 84.878726 
L 807.794024 110.733054 
L 809.11705 162.273841 
L 811.322093 252.260104 
L 812.20411 278.954951 
L 812.645118 288.769282 
L 813.086127 295.871803 
L 813.527136 300.08047 
L 813.968144 301.287413 
L 814.409153 299.461698 
L 814.850162 294.650118 
L 815.29117 286.975998 
L 816.173187 263.895234 
L 817.055205 232.570543 
L 820.583274 94.092774 
L 821.465291 74.000493 
L 821.9063 68.03134 
L 822.347308 65.008031 
L 822.788317 65.008054 
L 823.229325 68.03141 
L 823.670334 74.000608 
L 824.111343 82.762653 
L 824.99336 107.701153 
L 825.875377 140.306532 
L 828.962438 263.89545 
L 829.844455 286.976139 
L 830.285463 294.650216 
L 830.726472 299.46175 
L 831.167481 301.287418 
L 831.608489 300.080427 
L 832.049498 295.871714 
L 832.490507 288.76915 
L 833.372524 266.680147 
L 834.254541 236.06353 
L 837.78261 96.700169 
L 838.664627 75.570991 
L 839.105636 69.01602 
L 839.546644 65.381653 
L 839.987653 64.761044 
L 840.428662 67.170098 
L 840.86967 72.547069 
L 841.310679 80.754144 
L 842.192696 104.750044 
L 843.074713 136.713441 
L 846.161774 261.02367 
L 847.043791 285.071347 
L 847.4848 293.308742 
L 847.925808 298.717978 
L 848.366817 301.16041 
L 848.807826 300.57344 
L 849.248834 296.97211 
L 849.689843 290.448726 
L 850.130851 281.170486 
L 851.012869 255.365179 
L 852.335895 203.864999 
L 854.540938 113.842254 
L 855.422955 87.099918 
L 856.304972 67.859148 
L 857.186989 52.630444 
L 858.069007 41.843942 
L 858.510015 38.253421 
L 858.951024 35.914814 
L 859.392032 34.850676 
L 859.833041 35.071272 
L 860.27405 36.574475 
L 860.715058 39.345785 
L 861.156067 43.358471 
L 862.038084 54.941546 
L 862.920101 70.877869 
L 863.802119 90.554051 
L 865.125145 125.391603 
L 869.535231 249.402928 
L 870.417248 268.443266 
L 871.299265 283.61917 
L 872.181283 294.346521 
L 872.622291 297.905788 
L 873.0633 300.212423 
L 873.504308 301.244177 
L 873.945317 300.991097 
L 874.386326 299.455625 
L 874.827334 296.652571 
L 875.268343 292.608974 
L 876.15036 280.967752 
L 877.032377 264.98003 
L 877.914395 245.261174 
L 879.23742 210.379457 
L 883.647507 86.419923 
L 884.529524 67.424118 
L 885.411541 52.301106 
L 886.293558 41.632973 
L 886.734567 38.104981 
L 887.175576 35.830334 
L 887.616584 34.830971 
L 888.057593 35.116533 
L 888.498602 36.684264 
L 888.93961 39.519044 
L 889.380619 43.593528 
L 890.262636 55.292824 
L 891.144653 71.331848 
L 892.026671 91.093256 
L 893.349696 126.018924 
L 897.759783 249.925901 
L 898.6418 268.877057 
L 899.523817 283.947082 
L 900.405834 294.555933 
L 900.846843 298.052628 
L 901.287852 300.295274 
L 901.72886 301.26224 
L 902.169869 300.944198 
L 902.610877 299.344216 
L 903.051886 296.477728 
L 903.492895 292.372382 
L 904.374912 280.615083 
L 905.256929 264.524858 
L 906.138946 244.721019 
L 907.461972 209.751616 
L 911.872059 85.897957 
L 912.754076 66.991568 
L 913.636093 51.974622 
L 914.51811 41.42512 
L 914.959119 37.959743 
L 915.400127 35.749112 
L 915.841136 34.814549 
L 916.282145 35.165069 
L 916.723153 36.797291 
L 917.164162 39.69547 
L 917.605171 43.831652 
L 918.487188 55.646881 
L 919.369205 71.788209 
L 920.251222 91.634357 
L 921.574248 126.64728 
L 925.984334 250.446857 
L 926.866352 269.308363 
L 927.748369 284.272138 
L 928.630386 294.762226 
L 929.071395 298.196263 
L 929.512403 300.374865 
L 929.953412 301.277019 
L 930.394421 300.894023 
L 930.835429 299.229572 
L 931.276438 296.299719 
L 931.717447 292.132726 
L 932.599464 280.25964 
L 933.481481 264.067309 
L 934.363498 244.178975 
L 935.686524 209.122747 
L 940.09661 85.378016 
L 940.978628 66.561509 
L 941.860645 51.650998 
L 942.742662 41.220387 
L 943.183671 37.817712 
L 943.624679 35.671152 
L 944.065688 34.801412 
L 944.506697 35.216881 
L 944.947705 36.913553 
L 945.388714 39.875061 
L 945.829722 44.072839 
L 946.71174 56.003709 
L 947.593757 72.246944 
L 948.916783 103.29027 
L 950.680817 152.832114 
L 953.326869 229.002665 
L 954.649895 260.79883 
L 955.531912 277.69459 
L 956.413929 290.369833 
L 956.854938 294.965396 
L 957.295947 298.336689 
L 957.736955 300.451194 
L 958.177964 301.288515 
L 958.618972 300.840574 
L 959.059981 299.111694 
L 959.50099 296.118549 
L 959.941998 291.890011 
L 960.824016 279.901431 
L 961.706033 263.607392 
L 963.029059 232.504997 
L 964.793093 182.923791 
L 967.439145 106.787955 
L 968.762171 75.048534 
L 969.644188 58.202353 
L 970.526205 45.58391 
L 970.967214 41.018781 
L 971.408223 37.678891 
L 971.849231 35.596454 
L 972.29024 34.791558 
L 972.731248 35.271967 
L 973.172257 37.033047 
L 973.613266 40.05781 
L 974.054274 44.31708 
L 974.936291 56.363298 
L 975.818309 72.708039 
L 977.141335 103.869311 
L 978.905369 153.489574 
L 981.551421 229.590228 
L 982.874447 261.272707 
L 983.756464 278.069207 
L 984.638481 290.630771 
L 985.07949 295.165438 
L 985.520498 298.473905 
L 985.961507 300.52426 
L 986.402516 301.296726 
L 986.843524 300.783852 
L 987.284533 298.990585 
L 987.725542 295.934222 
L 988.16655 291.644244 
L 989.048567 279.540465 
L 989.930585 263.145121 
L 991.253611 231.925164 
L 993.017645 182.26615 
L 995.663697 106.201148 
L 996.986723 74.575804 
L 997.86874 57.82909 
L 998.750757 45.324482 
L 999.191766 40.820306 
L 999.632774 37.543282 
L 1000.073783 35.525021 
L 1000.514792 34.784989 
L 1000.9558 35.330325 
L 1001.396809 37.155769 
L 1001.837817 40.243713 
L 1002.278826 44.564372 
L 1003.160843 56.725639 
L 1004.042861 73.171484 
L 1005.365886 104.449934 
L 1007.129921 154.147392 
L 1009.775973 230.176273 
L 1011.098999 261.744287 
L 1011.981016 278.441112 
L 1012.863033 290.888687 
L 1013.304042 295.362346 
L 1013.74505 298.607905 
L 1014.186059 300.59406 
L 1014.627067 301.301653 
L 1015.068076 300.723858 
L 1015.509085 298.866249 
L 1015.950093 295.746743 
L 1016.391102 291.39543 
L 1017.273119 279.17675 
L 1018.155136 262.680505 
L 1019.478162 231.343756 
L 1021.242197 181.608159 
L 1023.888249 105.615867 
L 1025.211274 74.105379 
L 1026.093292 57.458545 
L 1026.975309 45.068079 
L 1027.416318 40.624966 
L 1027.857326 37.41089 
L 1028.298335 35.456854 
L 1028.739343 34.781705 
L 1029.180352 35.391955 
L 1029.621361 37.281718 
L 1030.062369 40.432767 
L 1030.503378 44.814707 
L 1031.385395 57.090725 
L 1032.267412 73.637268 
L 1033.590438 105.032124 
L 1035.354473 154.805553 
L 1038.000524 230.760788 
L 1039.32355 262.213556 
L 1040.205568 278.810296 
L 1041.087585 291.143576 
L 1041.528593 295.556116 
L 1041.969602 298.738688 
L 1042.410611 300.660594 
L 1042.851619 301.303295 
L 1042.851619 301.303295 
" clip-path="url(#p29644c4747)" style="fill: none; stroke: #800080; stroke-width: 1.5; stroke-linecap: square"/>
   </g>
   <g id="patch_9">
    <path d="M 580.255625 314.629375 
L 580.255625 21.455625 
" style="fill: none; stroke: #000000; stroke-width: 0.8; stroke-linejoin: miter; stroke-linecap: square"/>
   </g>
   <g id="patch_10">
    <path d="M 1064.88 314.629375 
L 1064.88 21.455625 
" style="fill: none; stroke: #000000; stroke-width: 0.8; stroke-linejoin: miter; stroke-linecap: square"/>
   </g>
   <g id="patch_11">
    <path d="M 580.255625 314.629375 
L 1064.88 314.629375 
" style="fill: none; stroke: #000000; stroke-width: 0.8; stroke-linejoin: miter; stroke-linecap: square"/>
   </g>
   <g id="patch_12">
    <path d="M 580.255625 21.455625 
L 1064.88 21.455625 
" style="fill: none; stroke: #000000; stroke-width: 0.8; stroke-linejoin: miter; stroke-linecap: square"/>
   </g>
   <g id="text_37">
    <!-- Wavefunction for Energy = 8.010695508379715 eV -->
    <g transform="translate(696.146875 15.455625) scale(0.12 -0.12)">
     <use xlink:href="#STIXGeneral-Regular-57"/>
     <use xlink:href="#STIXGeneral-Regular-61" transform="translate(94.399994 0)"/>
     <use xlink:href="#STIXGeneral-Regular-76" transform="translate(138.799988 0)"/>
     <use xlink:href="#STIXGeneral-Regular-65" transform="translate(188.799973 0)"/>
     <use xlink:href="#STIXGeneral-Regular-66" transform="translate(233.199966 0)"/>
     <use xlink:href="#STIXGeneral-Regular-75" transform="translate(266.499954 0)"/>
     <use xlink:href="#STIXGeneral-Regular-6e" transform="translate(316.499939 0)"/>
     <use xlink:href="#STIXGeneral-Regular-63" transform="translate(366.499924 0)"/>
     <use xlink:href="#STIXGeneral-Regular-74" transform="translate(410.899918 0)"/>
     <use xlink:href="#STIXGeneral-Regular-69" transform="translate(438.699905 0)"/>
     <use xlink:href="#STIXGeneral-Regular-6f" transform="translate(466.499893 0)"/>
     <use xlink:href="#STIXGeneral-Regular-6e" transform="translate(516.499878 0)"/>
     <use xlink:href="#STIXGeneral-Regular-20" transform="translate(566.499863 0)"/>
     <use xlink:href="#STIXGeneral-Regular-66" transform="translate(591.499847 0)"/>
     <use xlink:href="#STIXGeneral-Regular-6f" transform="translate(624.799835 0)"/>
     <use xlink:href="#STIXGeneral-Regular-72" transform="translate(674.79982 0)"/>
     <use xlink:href="#STIXGeneral-Regular-20" transform="translate(708.099808 0)"/>
     <use xlink:href="#STIXGeneral-Regular-45" transform="translate(733.099792 0)"/>
     <use xlink:href="#STIXGeneral-Regular-6e" transform="translate(794.199783 0)"/>
     <use xlink:href="#STIXGeneral-Regular-65" transform="translate(844.199768 0)"/>
     <use xlink:href="#STIXGeneral-Regular-72" transform="translate(888.599762 0)"/>
     <use xlink:href="#STIXGeneral-Regular-67" transform="translate(921.89975 0)"/>
     <use xlink:href="#STIXGeneral-Regular-79" transform="translate(971.899734 0)"/>
     <use xlink:href="#STIXGeneral-Regular-20" transform="translate(1021.899719 0)"/>
     <use xlink:href="#STIXGeneral-Regular-3d" transform="translate(1046.899704 0)"/>
     <use xlink:href="#STIXGeneral-Regular-20" transform="translate(1115.399689 0)"/>
     <use xlink:href="#STIXGeneral-Regular-38" transform="translate(1140.399673 0)"/>
     <use xlink:href="#STIXGeneral-Regular-2e" transform="translate(1190.399658 0)"/>
     <use xlink:href="#STIXGeneral-Regular-30" transform="translate(1215.399643 0)"/>
     <use xlink:href="#STIXGeneral-Regular-31" transform="translate(1265.399628 0)"/>
     <use xlink:href="#STIXGeneral-Regular-30" transform="translate(1315.399612 0)"/>
     <use xlink:href="#STIXGeneral-Regular-36" transform="translate(1365.399597 0)"/>
     <use xlink:href="#STIXGeneral-Regular-39" transform="translate(1415.399582 0)"/>
     <use xlink:href="#STIXGeneral-Regular-35" transform="translate(1465.399567 0)"/>
     <use xlink:href="#STIXGeneral-Regular-35" transform="translate(1515.399551 0)"/>
     <use xlink:href="#STIXGeneral-Regular-30" transform="translate(1565.399536 0)"/>
     <use xlink:href="#STIXGeneral-Regular-38" transform="translate(1615.399521 0)"/>
     <use xlink:href="#STIXGeneral-Regular-33" transform="translate(1665.399506 0)"/>
     <use xlink:href="#STIXGeneral-Regular-37" transform="translate(1715.39949 0)"/>
     <use xlink:href="#STIXGeneral-Regular-39" transform="translate(1765.399475 0)"/>
     <use xlink:href="#STIXGeneral-Regular-37" transform="translate(1815.39946 0)"/>
     <use xlink:href="#STIXGeneral-Regular-31" transform="translate(1865.399445 0)"/>
     <use xlink:href="#STIXGeneral-Regular-35" transform="translate(1915.399429 0)"/>
     <use xlink:href="#STIXGeneral-Regular-20" transform="translate(1965.399414 0)"/>
     <use xlink:href="#STIXGeneral-Regular-65" transform="translate(1990.399399 0)"/>
     <use xlink:href="#STIXGeneral-Regular-56" transform="translate(2034.799393 0)"/>
    </g>
   </g>
   <g id="legend_2">
    <g id="patch_13">
     <path d="M 795.008438 43.625938 
L 850.127188 43.625938 
Q 852.127188 43.625938 852.127188 41.625938 
L 852.127188 28.455625 
Q 852.127188 26.455625 850.127188 26.455625 
L 795.008438 26.455625 
Q 793.008438 26.455625 793.008438 28.455625 
L 793.008438 41.625938 
Q 793.008438 43.625938 795.008438 43.625938 
z
" style="fill: #ffffff; opacity: 0.8; stroke: #cccccc; stroke-linejoin: miter"/>
    </g>
    <g id="line2d_64">
     <path d="M 797.008438 33.955625 
L 807.008438 33.955625 
L 817.008438 33.955625 
" style="fill: none; stroke: #800080; stroke-width: 1.5; stroke-linecap: square"/>
    </g>
    <g id="text_38">
     <!-- |Ψ(x)| -->
     <g transform="translate(825.008438 37.455625) scale(0.1 -0.1)">
      <defs>
       <path id="STIXGeneral-Regular-7c" d="M 851 -90 
L 429 -90 
L 429 4326 
L 851 4326 
L 851 -90 
z
" transform="scale(0.015625)"/>
       <path id="STIXGeneral-Regular-3a8" d="M 4634 4416 
L 4634 4294 
Q 4467 4262 4400 4054 
Q 4333 3846 4333 3629 
Q 4333 3533 4345 3341 
Q 4358 3149 4358 3053 
Q 4358 2598 4118 2291 
Q 3878 1984 3520 1856 
Q 3162 1728 2714 1728 
L 2714 710 
Q 2714 339 2851 236 
Q 2989 134 3373 122 
L 3373 0 
L 1414 0 
L 1414 122 
Q 1830 141 1945 259 
Q 2061 378 2061 794 
L 2061 1728 
Q 1613 1728 1254 1856 
Q 896 1984 656 2291 
Q 416 2598 416 3053 
Q 416 3149 429 3341 
Q 442 3533 442 3629 
Q 442 3846 374 4054 
Q 307 4262 141 4294 
L 141 4416 
Q 1133 4416 1133 3258 
Q 1133 3046 1145 2886 
Q 1158 2726 1212 2544 
Q 1267 2362 1353 2243 
Q 1440 2125 1603 2045 
Q 1766 1965 1990 1965 
L 2061 1965 
L 2061 3597 
Q 2061 3910 1904 4012 
Q 1747 4115 1414 4115 
L 1414 4237 
L 3373 4237 
L 3373 4115 
Q 3027 4115 2870 4019 
Q 2714 3923 2714 3597 
L 2714 1965 
L 2784 1965 
Q 3008 1965 3171 2045 
Q 3334 2125 3420 2243 
Q 3507 2362 3561 2544 
Q 3616 2726 3629 2886 
Q 3642 3046 3642 3258 
Q 3642 4416 4634 4416 
z
" transform="scale(0.015625)"/>
       <path id="STIXGeneral-Regular-28" d="M 1946 -1030 
L 1869 -1133 
Q 1126 -710 716 32 
Q 307 774 307 1613 
Q 307 3386 1888 4326 
L 1946 4224 
Q 1293 3667 1075 3126 
Q 858 2586 858 1632 
Q 858 685 1082 96 
Q 1306 -493 1946 -1030 
z
" transform="scale(0.015625)"/>
       <path id="STIXGeneral-Regular-29" d="M 186 4224 
L 262 4326 
Q 992 3891 1408 3148 
Q 1824 2406 1824 1581 
Q 1824 -166 243 -1133 
L 186 -1030 
Q 845 -486 1059 54 
Q 1274 595 1274 1562 
Q 1274 2534 1059 3120 
Q 845 3706 186 4224 
z
" transform="scale(0.015625)"/>
      </defs>
      <use xlink:href="#STIXGeneral-Regular-7c"/>
      <use xlink:href="#STIXGeneral-Regular-3a8" transform="translate(19.999985 0)"/>
      <use xlink:href="#STIXGeneral-Regular-28" transform="translate(94.599976 0)"/>
      <use xlink:href="#STIXGeneral-Regular-78" transform="translate(127.899963 0)"/>
      <use xlink:href="#STIXGeneral-Regular-29" transform="translate(177.899948 0)"/>
      <use xlink:href="#STIXGeneral-Regular-7c" transform="translate(211.199936 0)"/>
     </g>
    </g>
   </g>
  </g>
 </g>
 <defs>
  <clipPath id="p142066906a">
   <rect x="46.55" y="21.455625" width="484.624375" height="293.17375"/>
  </clipPath>
  <clipPath id="p29644c4747">
   <rect x="580.255625" y="21.455625" width="484.624375" height="293.17375"/>
  </clipPath>
 </defs>
</svg>
