<?xml version="1.0" encoding="utf-8" standalone="no"?>
<!DOCTYPE svg PUBLIC "-//W3C//DTD SVG 1.1//EN"
  "http://www.w3.org/Graphics/SVG/1.1/DTD/svg11.dtd">
<svg xmlns:xlink="http://www.w3.org/1999/xlink" width="604.9pt" height="376.04pt" viewBox="0 0 604.9 376.04" xmlns="http://www.w3.org/2000/svg" version="1.1">
 <metadata>
  <rdf:RDF xmlns:dc="http://purl.org/dc/elements/1.1/" xmlns:cc="http://creativecommons.org/ns#" xmlns:rdf="http://www.w3.org/1999/02/22-rdf-syntax-ns#">
   <cc:Work>
    <dc:type rdf:resource="http://purl.org/dc/dcmitype/StillImage"/>
    <dc:date>2025-08-25T03:33:19.128363</dc:date>
    <dc:format>image/svg+xml</dc:format>
    <dc:creator>
     <cc:Agent>
      <dc:title>Matplotlib v3.10.5, https://matplotlib.org/</dc:title>
     </cc:Agent>
    </dc:creator>
   </cc:Work>
  </rdf:RDF>
 </metadata>
 <defs>
  <style type="text/css">*{stroke-linejoin: round; stroke-linecap: butt}</style>
 </defs>
 <g id="figure_1">
  <g id="patch_1">
   <path d="M 0 376.04 
L 604.9 376.04 
L 604.9 0 
L 0 0 
z
" style="fill: #ffffff"/>
  </g>
  <g id="axes_1">
   <g id="patch_2">
    <path d="M 39.7 339.84 
L 597.7 339.84 
L 597.7 7.2 
L 39.7 7.2 
z
" style="fill: #ffffff"/>
   </g>
   <g id="matplotlib.axis_1">
    <g id="xtick_1">
     <g id="line2d_1">
      <defs>
       <path id="m0faec17931" d="M 0 0 
L 0 3.5 
" style="stroke: #000000; stroke-width: 0.8"/>
      </defs>
      <g>
       <use xlink:href="#m0faec17931" x="65.063636" y="339.84" style="stroke: #000000; stroke-width: 0.8"/>
      </g>
     </g>
     <g id="text_1">
      <!-- −15 -->
      <g transform="translate(56.638636 353.669688) scale(0.1 -0.1)">
       <defs>
        <path id="STIXGeneral-Regular-2212" d="M 3974 1408 
L 410 1408 
L 410 1830 
L 3974 1830 
L 3974 1408 
z
" transform="scale(0.015625)"/>
        <path id="STIXGeneral-Regular-31" d="M 2522 0 
L 755 0 
L 755 96 
Q 1107 115 1235 227 
Q 1363 339 1363 608 
L 1363 3482 
Q 1363 3795 1171 3795 
Q 1082 3795 883 3718 
L 710 3654 
L 710 3744 
L 1856 4326 
L 1914 4307 
L 1914 486 
Q 1914 275 2042 185 
Q 2170 96 2522 96 
L 2522 0 
z
" transform="scale(0.015625)"/>
        <path id="STIXGeneral-Regular-35" d="M 2803 4358 
L 2573 3814 
Q 2534 3731 2400 3731 
L 1158 3731 
L 902 3187 
Q 1606 3053 1920 2896 
Q 2234 2739 2502 2368 
Q 2726 2061 2726 1555 
Q 2726 1094 2576 780 
Q 2426 467 2099 224 
Q 1664 -90 1011 -90 
Q 646 -90 422 19 
Q 198 128 198 307 
Q 198 550 486 550 
Q 717 550 960 352 
Q 1210 147 1414 147 
Q 1747 147 2012 480 
Q 2278 813 2278 1229 
Q 2278 1843 1850 2189 
Q 1293 2637 486 2637 
Q 410 2637 410 2688 
L 416 2720 
L 1114 4237 
L 2438 4237 
Q 2547 4237 2608 4269 
Q 2669 4301 2746 4403 
L 2803 4358 
z
" transform="scale(0.015625)"/>
       </defs>
       <use xlink:href="#STIXGeneral-Regular-2212"/>
       <use xlink:href="#STIXGeneral-Regular-31" transform="translate(68.499985 0)"/>
       <use xlink:href="#STIXGeneral-Regular-35" transform="translate(118.499969 0)"/>
      </g>
     </g>
    </g>
    <g id="xtick_2">
     <g id="line2d_2">
      <g>
       <use xlink:href="#m0faec17931" x="149.609091" y="339.84" style="stroke: #000000; stroke-width: 0.8"/>
      </g>
     </g>
     <g id="text_2">
      <!-- −10 -->
      <g transform="translate(141.184091 353.669688) scale(0.1 -0.1)">
       <defs>
        <path id="STIXGeneral-Regular-30" d="M 3046 2112 
Q 3046 1683 2963 1302 
Q 2880 922 2717 602 
Q 2554 282 2266 96 
Q 1978 -90 1600 -90 
Q 1210 -90 915 108 
Q 621 307 461 640 
Q 301 973 227 1350 
Q 154 1728 154 2150 
Q 154 2746 301 3222 
Q 448 3699 790 4012 
Q 1133 4326 1626 4326 
Q 2253 4326 2649 3712 
Q 3046 3098 3046 2112 
z
M 2432 2080 
Q 2432 3091 2217 3625 
Q 2003 4160 1587 4160 
Q 1190 4160 979 3622 
Q 768 3085 768 2106 
Q 768 1120 979 598 
Q 1190 77 1600 77 
Q 2003 77 2217 598 
Q 2432 1120 2432 2080 
z
" transform="scale(0.015625)"/>
       </defs>
       <use xlink:href="#STIXGeneral-Regular-2212"/>
       <use xlink:href="#STIXGeneral-Regular-31" transform="translate(68.499985 0)"/>
       <use xlink:href="#STIXGeneral-Regular-30" transform="translate(118.499969 0)"/>
      </g>
     </g>
    </g>
    <g id="xtick_3">
     <g id="line2d_3">
      <g>
       <use xlink:href="#m0faec17931" x="234.154545" y="339.84" style="stroke: #000000; stroke-width: 0.8"/>
      </g>
     </g>
     <g id="text_3">
      <!-- −5 -->
      <g transform="translate(228.229545 353.669688) scale(0.1 -0.1)">
       <use xlink:href="#STIXGeneral-Regular-2212"/>
       <use xlink:href="#STIXGeneral-Regular-35" transform="translate(68.499985 0)"/>
      </g>
     </g>
    </g>
    <g id="xtick_4">
     <g id="line2d_4">
      <g>
       <use xlink:href="#m0faec17931" x="318.7" y="339.84" style="stroke: #000000; stroke-width: 0.8"/>
      </g>
     </g>
     <g id="text_4">
      <!-- 0 -->
      <g transform="translate(316.2 353.669688) scale(0.1 -0.1)">
       <use xlink:href="#STIXGeneral-Regular-30"/>
      </g>
     </g>
    </g>
    <g id="xtick_5">
     <g id="line2d_5">
      <g>
       <use xlink:href="#m0faec17931" x="403.245455" y="339.84" style="stroke: #000000; stroke-width: 0.8"/>
      </g>
     </g>
     <g id="text_5">
      <!-- 5 -->
      <g transform="translate(400.745455 353.669688) scale(0.1 -0.1)">
       <use xlink:href="#STIXGeneral-Regular-35"/>
      </g>
     </g>
    </g>
    <g id="xtick_6">
     <g id="line2d_6">
      <g>
       <use xlink:href="#m0faec17931" x="487.790909" y="339.84" style="stroke: #000000; stroke-width: 0.8"/>
      </g>
     </g>
     <g id="text_6">
      <!-- 10 -->
      <g transform="translate(482.790909 353.669688) scale(0.1 -0.1)">
       <use xlink:href="#STIXGeneral-Regular-31"/>
       <use xlink:href="#STIXGeneral-Regular-30" transform="translate(49.999985 0)"/>
      </g>
     </g>
    </g>
    <g id="xtick_7">
     <g id="line2d_7">
      <g>
       <use xlink:href="#m0faec17931" x="572.336364" y="339.84" style="stroke: #000000; stroke-width: 0.8"/>
      </g>
     </g>
     <g id="text_7">
      <!-- 15 -->
      <g transform="translate(567.336364 353.669688) scale(0.1 -0.1)">
       <use xlink:href="#STIXGeneral-Regular-31"/>
       <use xlink:href="#STIXGeneral-Regular-35" transform="translate(49.999985 0)"/>
      </g>
     </g>
    </g>
    <g id="text_8">
     <!-- x -->
     <g transform="translate(316.2 366.669688) scale(0.1 -0.1)">
      <defs>
       <path id="STIXGeneral-Regular-78" d="M 3066 0 
L 1779 0 
L 1779 96 
Q 1939 109 1987 137 
Q 2035 166 2035 250 
Q 2035 307 1997 365 
L 1414 1261 
L 909 474 
Q 781 275 781 211 
Q 781 96 1037 96 
L 1037 0 
L 109 0 
L 109 96 
Q 269 109 355 169 
Q 442 230 576 422 
L 1306 1478 
L 704 2400 
Q 557 2624 454 2704 
Q 352 2784 211 2784 
L 154 2784 
L 154 2880 
L 1478 2880 
L 1478 2784 
Q 1203 2778 1203 2643 
Q 1203 2509 1498 2074 
Q 1581 1958 1587 1946 
Q 1619 1990 1779 2227 
Q 1811 2285 1856 2349 
Q 1901 2413 1923 2451 
Q 1946 2490 1971 2528 
Q 1997 2566 2006 2595 
Q 2016 2624 2016 2643 
Q 2016 2765 1760 2784 
L 1760 2880 
L 2771 2880 
L 2771 2784 
Q 2445 2771 2253 2502 
L 1722 1734 
L 2541 480 
Q 2790 96 3066 96 
L 3066 0 
z
" transform="scale(0.015625)"/>
      </defs>
      <use xlink:href="#STIXGeneral-Regular-78"/>
     </g>
    </g>
   </g>
   <g id="matplotlib.axis_2">
    <g id="ytick_1">
     <g id="line2d_8">
      <defs>
       <path id="m1b49702733" d="M 0 0 
L -3.5 0 
" style="stroke: #000000; stroke-width: 0.8"/>
      </defs>
      <g>
       <use xlink:href="#m1b49702733" x="39.7" y="324.72" style="stroke: #000000; stroke-width: 0.8"/>
      </g>
     </g>
     <g id="text_9">
      <!-- 0.0 -->
      <g transform="translate(20.2 328.134844) scale(0.1 -0.1)">
       <defs>
        <path id="STIXGeneral-Regular-2e" d="M 1158 275 
Q 1158 134 1052 32 
Q 947 -70 800 -70 
Q 653 -70 550 32 
Q 448 134 448 281 
Q 448 429 553 534 
Q 659 640 806 640 
Q 947 640 1052 531 
Q 1158 422 1158 275 
z
" transform="scale(0.015625)"/>
       </defs>
       <use xlink:href="#STIXGeneral-Regular-30"/>
       <use xlink:href="#STIXGeneral-Regular-2e" transform="translate(49.999985 0)"/>
       <use xlink:href="#STIXGeneral-Regular-30" transform="translate(74.999969 0)"/>
      </g>
     </g>
    </g>
    <g id="ytick_2">
     <g id="line2d_9">
      <g>
       <use xlink:href="#m1b49702733" x="39.7" y="257.569386" style="stroke: #000000; stroke-width: 0.8"/>
      </g>
     </g>
     <g id="text_10">
      <!-- 0.1 -->
      <g transform="translate(20.2 260.98423) scale(0.1 -0.1)">
       <use xlink:href="#STIXGeneral-Regular-30"/>
       <use xlink:href="#STIXGeneral-Regular-2e" transform="translate(49.999985 0)"/>
       <use xlink:href="#STIXGeneral-Regular-31" transform="translate(74.999969 0)"/>
      </g>
     </g>
    </g>
    <g id="ytick_3">
     <g id="line2d_10">
      <g>
       <use xlink:href="#m1b49702733" x="39.7" y="190.418773" style="stroke: #000000; stroke-width: 0.8"/>
      </g>
     </g>
     <g id="text_11">
      <!-- 0.2 -->
      <g transform="translate(20.2 193.833616) scale(0.1 -0.1)">
       <defs>
        <path id="STIXGeneral-Regular-32" d="M 3034 877 
L 2688 0 
L 186 0 
L 186 77 
L 1325 1286 
Q 1773 1754 1965 2144 
Q 2157 2534 2157 2950 
Q 2157 3379 1920 3616 
Q 1683 3853 1267 3853 
Q 922 3853 720 3673 
Q 518 3494 326 3021 
L 192 3053 
Q 301 3648 630 3987 
Q 960 4326 1523 4326 
Q 2054 4326 2380 4006 
Q 2707 3686 2707 3200 
Q 2707 2477 1888 1613 
L 832 486 
L 2330 486 
Q 2541 486 2665 569 
Q 2790 653 2944 915 
L 3034 877 
z
" transform="scale(0.015625)"/>
       </defs>
       <use xlink:href="#STIXGeneral-Regular-30"/>
       <use xlink:href="#STIXGeneral-Regular-2e" transform="translate(49.999985 0)"/>
       <use xlink:href="#STIXGeneral-Regular-32" transform="translate(74.999969 0)"/>
      </g>
     </g>
    </g>
    <g id="ytick_4">
     <g id="line2d_11">
      <g>
       <use xlink:href="#m1b49702733" x="39.7" y="123.268159" style="stroke: #000000; stroke-width: 0.8"/>
      </g>
     </g>
     <g id="text_12">
      <!-- 0.3 -->
      <g transform="translate(20.2 126.683003) scale(0.1 -0.1)">
       <defs>
        <path id="STIXGeneral-Regular-33" d="M 390 3264 
L 288 3290 
Q 435 3770 748 4048 
Q 1062 4326 1542 4326 
Q 1990 4326 2265 4083 
Q 2541 3840 2541 3450 
Q 2541 2925 1946 2566 
Q 2298 2413 2477 2227 
Q 2758 1914 2758 1402 
Q 2758 890 2464 506 
Q 2246 211 1840 60 
Q 1434 -90 979 -90 
Q 262 -90 262 275 
Q 262 378 339 442 
Q 416 506 525 506 
Q 685 506 915 339 
Q 1197 141 1466 141 
Q 1818 141 2058 425 
Q 2298 710 2298 1120 
Q 2298 1856 1632 2048 
Q 1434 2112 979 2112 
L 979 2202 
Q 1338 2323 1517 2432 
Q 2035 2726 2035 3290 
Q 2035 3610 1852 3776 
Q 1670 3942 1344 3942 
Q 768 3942 390 3264 
z
" transform="scale(0.015625)"/>
       </defs>
       <use xlink:href="#STIXGeneral-Regular-30"/>
       <use xlink:href="#STIXGeneral-Regular-2e" transform="translate(49.999985 0)"/>
       <use xlink:href="#STIXGeneral-Regular-33" transform="translate(74.999969 0)"/>
      </g>
     </g>
    </g>
    <g id="ytick_5">
     <g id="line2d_12">
      <g>
       <use xlink:href="#m1b49702733" x="39.7" y="56.117545" style="stroke: #000000; stroke-width: 0.8"/>
      </g>
     </g>
     <g id="text_13">
      <!-- 0.4 -->
      <g transform="translate(20.2 59.532389) scale(0.1 -0.1)">
       <defs>
        <path id="STIXGeneral-Regular-34" d="M 3027 1069 
L 2368 1069 
L 2368 0 
L 1869 0 
L 1869 1069 
L 77 1069 
L 77 1478 
L 2086 4326 
L 2368 4326 
L 2368 1478 
L 3027 1478 
L 3027 1069 
z
M 1869 1478 
L 1869 3674 
L 333 1478 
L 1869 1478 
z
" transform="scale(0.015625)"/>
       </defs>
       <use xlink:href="#STIXGeneral-Regular-30"/>
       <use xlink:href="#STIXGeneral-Regular-2e" transform="translate(49.999985 0)"/>
       <use xlink:href="#STIXGeneral-Regular-34" transform="translate(74.999969 0)"/>
      </g>
     </g>
    </g>
    <g id="text_14">
     <!-- Pth -->
     <g transform="translate(14.029688 180.195) rotate(-90) scale(0.1 -0.1)">
      <defs>
       <path id="STIXGeneral-Regular-50" d="M 102 4237 
L 1760 4237 
Q 2669 4237 3149 3834 
Q 3469 3565 3469 3072 
Q 3469 2560 3104 2234 
Q 2835 1990 2553 1916 
Q 2272 1843 1734 1843 
Q 1549 1843 1293 1862 
L 1293 717 
Q 1293 352 1398 246 
Q 1504 141 1894 122 
L 1894 0 
L 102 0 
L 102 122 
Q 474 147 557 256 
Q 640 365 640 781 
L 640 3526 
Q 640 3885 547 3987 
Q 454 4090 102 4115 
L 102 4237 
z
M 1293 3770 
L 1293 2118 
Q 1510 2099 1683 2099 
Q 2202 2099 2486 2352 
Q 2771 2605 2771 3040 
Q 2771 3558 2476 3779 
Q 2182 4000 1517 4000 
Q 1382 4000 1337 3952 
Q 1293 3904 1293 3770 
z
" transform="scale(0.015625)"/>
       <path id="STIXGeneral-Regular-74" d="M 1702 493 
L 1786 422 
Q 1478 -64 1011 -64 
Q 448 -64 448 749 
L 448 2675 
L 109 2675 
Q 83 2694 83 2720 
Q 83 2771 192 2842 
Q 435 2982 813 3526 
Q 826 3546 874 3606 
Q 922 3667 941 3706 
Q 986 3706 986 3622 
L 986 2880 
L 1632 2880 
L 1632 2675 
L 986 2675 
L 986 845 
Q 986 538 1062 403 
Q 1139 269 1318 269 
Q 1510 269 1702 493 
z
" transform="scale(0.015625)"/>
       <path id="STIXGeneral-Regular-68" d="M 3117 0 
L 1760 0 
L 1760 96 
Q 2042 128 2118 224 
Q 2195 320 2195 653 
L 2195 1920 
Q 2195 2598 1722 2598 
Q 1530 2598 1370 2508 
Q 1210 2419 1005 2195 
L 1005 653 
Q 1005 320 1081 224 
Q 1158 128 1440 96 
L 1440 0 
L 58 0 
L 58 96 
Q 333 134 400 224 
Q 467 314 467 653 
L 467 3667 
Q 467 3872 406 3933 
Q 346 3994 141 3994 
Q 83 3994 64 3987 
L 64 4090 
L 237 4141 
Q 730 4288 973 4371 
L 1005 4352 
L 1005 2406 
Q 1229 2694 1446 2819 
Q 1664 2944 1946 2944 
Q 2733 2944 2733 1926 
L 2733 653 
Q 2733 320 2793 233 
Q 2854 147 3117 96 
L 3117 0 
z
" transform="scale(0.015625)"/>
      </defs>
      <use xlink:href="#STIXGeneral-Regular-50"/>
      <use xlink:href="#STIXGeneral-Regular-74" transform="translate(55.699997 0)"/>
      <use xlink:href="#STIXGeneral-Regular-68" transform="translate(83.499985 0)"/>
     </g>
    </g>
   </g>
   <g id="line2d_13">
    <path d="M 65.063636 324.72 
L 281.378085 324.604084 
L 283.916985 324.371271 
L 285.440325 324.019408 
L 286.455885 323.594946 
L 287.471445 322.904595 
L 288.487005 321.779702 
L 288.994785 320.973702 
L 289.502565 319.94355 
L 290.010345 318.62636 
L 290.518125 316.941501 
L 291.025905 314.785526 
L 291.533685 312.025768 
L 292.041465 308.491819 
L 292.549245 303.964934 
L 293.057025 298.164303 
L 294.072585 282.648631 
L 295.595925 254.479212 
L 298.134825 200.893041 
L 300.673725 147.888391 
L 302.197133 119.641965 
L 303.720473 95.277163 
L 305.243813 75.165299 
L 306.259373 64.100648 
L 307.274933 54.79954 
L 308.290493 47.115585 
L 309.306053 40.874944 
L 310.32163 35.891582 
L 311.33719 31.980984 
L 312.35275 28.966263 
L 313.36831 26.687304 
L 314.38387 25.006868 
L 315.39943 23.808299 
L 316.41499 23.000866 
L 317.430548 22.518999 
L 318.44611 22.32 
L 319.46167 22.385571 
L 320.47723 22.722573 
L 321.49279 23.360742 
L 322.50835 24.35345 
L 323.52391 25.779991 
L 324.53947 27.744058 
L 325.55503 30.371455 
L 326.57059 33.813147 
L 327.586167 38.237635 
L 328.601727 43.82562 
L 329.617287 50.765425 
L 330.632847 59.237752 
L 331.648407 69.404239 
L 332.663967 81.392978 
L 334.187307 102.93367 
L 335.710715 128.657917 
L 337.234055 158.026667 
L 340.280735 222.797422 
L 342.311855 264.377164 
L 343.835195 290.848306 
L 344.850755 303.964934 
L 345.866315 312.025768 
L 346.881875 316.941501 
L 347.897435 319.94355 
L 348.912995 321.779702 
L 349.928555 322.904595 
L 350.944115 323.594946 
L 351.959675 324.019408 
L 353.483015 324.371271 
L 355.514135 324.576803 
L 359.576375 324.686668 
L 375.317555 324.706923 
L 572.336364 324.72 
L 572.336364 324.72 
" clip-path="url(#pa4b5450515)" style="fill: none; stroke: #1f77b4; stroke-width: 1.5; stroke-linecap: square"/>
   </g>
   <g id="line2d_14">
    <path d="M 65.063636 324.72 
L 65.570909 324.551847 
L 66.079873 324.053264 
L 66.587145 323.241635 
L 67.603382 320.80124 
L 68.617927 317.559801 
L 71.157673 308.762287 
L 72.172218 306.020935 
L 73.188455 304.122924 
L 73.695727 303.516607 
L 74.203 303.133506 
L 74.711964 302.958515 
L 75.219236 302.969157 
L 75.726509 303.136984 
L 76.742745 303.810318 
L 79.2808 305.867435 
L 80.297036 306.28324 
L 81.313273 306.329025 
L 82.327818 306.046891 
L 83.851327 305.27202 
L 85.374836 304.530475 
L 86.391073 304.265367 
L 87.405618 304.253168 
L 88.421855 304.479499 
L 89.945364 305.100091 
L 91.468873 305.733194 
L 92.483418 305.997731 
L 93.499655 306.073157 
L 94.5142 305.961394 
L 96.546673 305.39972 
L 98.070182 305.013868 
L 99.084727 304.911085 
L 100.100964 304.967823 
L 101.624473 305.309395 
L 104.6698 306.155228 
L 106.193309 306.255883 
L 107.716818 306.081515 
L 110.763836 305.546056 
L 112.287345 305.542993 
L 113.810855 305.786662 
L 117.365145 306.558471 
L 118.888655 306.615988 
L 120.919436 306.395886 
L 123.459182 306.100411 
L 124.981 306.145625 
L 127.013473 306.483927 
L 129.551527 306.956107 
L 131.075036 307.045549 
L 133.105818 306.901341 
L 136.152836 306.628394 
L 137.676345 306.698422 
L 140.2144 307.10156 
L 142.246873 307.391793 
L 144.277655 307.423355 
L 149.863065 307.112202 
L 152.401965 307.433322 
L 154.940865 307.734196 
L 156.971985 307.72044 
L 162.049785 307.404978 
L 164.588685 307.647453 
L 167.635365 307.936025 
L 169.666485 307.876535 
L 174.236505 307.546798 
L 176.775405 307.713847 
L 179.822085 307.962655 
L 181.853205 307.907474 
L 187.438785 307.530862 
L 190.993245 307.783096 
L 193.024365 307.825974 
L 195.563265 307.624042 
L 198.609945 307.341699 
L 201.148845 307.375493 
L 205.211085 307.542386 
L 207.749985 307.341595 
L 211.304445 306.996908 
L 213.843345 307.027432 
L 217.397805 307.142726 
L 219.936705 306.94832 
L 223.998945 306.549282 
L 226.537845 306.58671 
L 230.092305 306.657672 
L 232.631205 306.430666 
L 236.185665 306.071912 
L 238.724565 306.09008 
L 242.279025 306.176044 
L 244.817925 305.967 
L 248.372385 305.604092 
L 250.911285 305.621327 
L 254.973525 305.720736 
L 257.512425 305.487657 
L 260.559105 305.196178 
L 262.590225 305.209623 
L 267.160245 305.38451 
L 269.699145 305.152314 
L 272.745825 304.885908 
L 274.776945 304.959361 
L 278.331405 305.216423 
L 280.362525 305.080884 
L 283.916985 304.685325 
L 285.440325 304.772639 
L 287.471445 304.961438 
L 288.487005 304.76127 
L 288.994785 304.476021 
L 289.502565 304.007579 
L 290.010345 303.30206 
L 290.518125 302.297017 
L 291.025905 300.920294 
L 291.533685 299.088313 
L 292.041465 296.703691 
L 292.549245 293.651861 
L 293.564805 285.11769 
L 294.580365 276.526573 
L 295.595925 270.072049 
L 296.103705 267.725166 
L 296.611485 265.936842 
L 297.119265 264.652572 
L 297.627045 263.797603 
L 298.134825 263.286801 
L 298.642605 263.032958 
L 299.658165 262.968589 
L 301.181505 263.079158 
L 302.197133 262.953535 
L 305.243813 262.280253 
L 306.259373 262.333202 
L 309.813833 262.923426 
L 311.33719 262.760427 
L 313.87609 262.349294 
L 315.39943 262.431832 
L 318.44611 262.89228 
L 319.969452 262.794688 
L 323.01613 262.342546 
L 324.53947 262.462459 
L 327.586167 262.923945 
L 329.109507 262.758869 
L 331.648407 262.283367 
L 332.663967 262.324896 
L 334.187307 262.684637 
L 335.710715 263.040225 
L 336.726275 263.068776 
L 338.249615 262.951977 
L 338.757395 263.033477 
L 339.265175 263.28732 
L 339.772955 263.797603 
L 340.280735 264.652572 
L 340.788515 265.937362 
L 341.296295 267.725166 
L 341.804075 270.072049 
L 342.819635 276.526418 
L 343.835195 285.117379 
L 344.850755 293.651861 
L 345.866315 299.088313 
L 346.374095 300.920294 
L 346.881875 302.297017 
L 347.389655 303.30206 
L 347.897435 304.007579 
L 348.405215 304.476021 
L 348.912995 304.76127 
L 349.928555 304.961438 
L 351.451895 304.835658 
L 353.483015 304.685325 
L 355.006355 304.796985 
L 358.560815 305.207702 
L 360.591935 305.148316 
L 364.654175 304.885908 
L 366.685295 305.030791 
L 370.747535 305.39837 
L 373.286435 305.305398 
L 376.333115 305.181747 
L 378.364235 305.309551 
L 382.934255 305.737607 
L 385.473155 305.674743 
L 388.519835 305.58665 
L 391.058735 305.779395 
L 395.120975 306.176044 
L 397.659875 306.137838 
L 401.214335 306.071912 
L 403.753235 306.302603 
L 407.307695 306.657672 
L 409.846595 306.635143 
L 413.401055 306.549282 
L 415.939955 306.759936 
L 419.494415 307.124868 
L 422.033315 307.10888 
L 426.095555 306.996908 
L 428.634455 307.219034 
L 432.188915 307.542386 
L 434.727815 307.475577 
L 438.282275 307.326334 
L 440.821175 307.507762 
L 444.375635 307.825974 
L 446.406755 307.783096 
L 450.976775 307.524062 
L 453.515675 307.705022 
L 456.562355 307.961253 
L 458.593475 307.911419 
L 463.671275 307.549238 
L 466.210175 307.73051 
L 469.256855 307.942098 
L 471.287975 307.832982 
L 475.857995 307.393195 
L 477.889115 307.485959 
L 481.443575 307.758542 
L 483.474695 307.646519 
L 488.551818 307.075553 
L 490.584291 307.187473 
L 494.138582 307.443756 
L 496.169364 307.270737 
L 500.739891 306.632132 
L 502.770673 306.722508 
L 506.324964 307.045549 
L 507.848473 306.956107 
L 509.879255 306.592161 
L 512.419 306.145625 
L 513.940818 306.100411 
L 515.973291 306.318591 
L 518.511345 306.615988 
L 520.034855 306.558471 
L 521.558364 306.284642 
L 524.605382 305.600147 
L 526.128891 305.515688 
L 527.6524 305.681543 
L 531.206691 306.255883 
L 532.7302 306.155228 
L 534.252018 305.785157 
L 536.791764 305.052853 
L 537.808 304.919494 
L 538.822545 304.943217 
L 540.346055 305.250061 
L 543.393073 306.038637 
L 544.407618 306.06018 
L 545.423855 305.887161 
L 546.947364 305.328187 
L 548.978145 304.479499 
L 549.994382 304.253168 
L 551.008927 304.265367 
L 552.025164 304.530475 
L 553.548673 305.27202 
L 555.072182 306.046891 
L 556.086727 306.329025 
L 557.102964 306.28324 
L 558.1192 305.867435 
L 559.133745 305.136273 
L 561.164527 303.429138 
L 562.180764 302.969157 
L 562.688036 302.958515 
L 563.197 303.133506 
L 563.704273 303.516607 
L 564.211545 304.122924 
L 564.718818 304.95879 
L 565.735055 307.296433 
L 566.751291 310.386314 
L 569.796618 320.80124 
L 570.812855 323.241635 
L 571.320127 324.053264 
L 571.829091 324.551847 
L 572.336364 324.72 
L 572.336364 324.72 
" clip-path="url(#pa4b5450515)" style="fill: none; stroke: #ff7f0e; stroke-width: 1.5; stroke-linecap: square"/>
   </g>
   <g id="line2d_15">
    <path d="M 65.063636 324.72 
L 65.570909 324.488404 
L 66.079873 323.802484 
L 66.587145 322.688448 
L 67.603382 319.359563 
L 68.617927 314.99483 
L 70.648709 305.688329 
L 71.664945 301.959751 
L 72.681182 299.420175 
L 73.188455 298.6542 
L 73.695727 298.2241 
L 74.203 298.112141 
L 74.711964 298.28713 
L 75.219236 298.707401 
L 76.235473 300.078678 
L 78.266255 303.373076 
L 79.2808 304.512873 
L 79.789764 304.84471 
L 80.297036 305.00299 
L 80.804309 304.99017 
L 81.313273 304.818664 
L 82.327818 304.090892 
L 85.374836 301.196553 
L 86.391073 300.799571 
L 86.898345 300.780982 
L 87.914582 301.085449 
L 88.929127 301.743739 
L 91.468873 303.678205 
L 92.483418 304.081448 
L 93.499655 304.121189 
L 94.5142 303.8195 
L 96.037709 302.969299 
L 97.561218 302.120851 
L 98.577455 301.801214 
L 99.592 301.774079 
L 100.608236 302.036669 
L 102.131745 302.798798 
L 103.655255 303.614513 
L 104.6698 303.974724 
L 105.686036 304.095208 
L 106.702273 303.965793 
L 108.225782 303.43132 
L 110.256564 302.650944 
L 111.271109 302.47211 
L 112.287345 302.511424 
L 113.303582 302.759484 
L 115.334364 303.601159 
L 116.857873 304.142128 
L 117.872418 304.302523 
L 118.888655 304.266885 
L 120.412164 303.912934 
L 122.950218 303.182533 
L 123.966455 303.084463 
L 124.981 303.162449 
L 126.504509 303.563277 
L 129.551527 304.525863 
L 130.567764 304.628463 
L 132.091273 304.488985 
L 136.152836 303.641627 
L 137.169073 303.667971 
L 138.692582 303.963165 
L 142.246873 304.893916 
L 143.770382 304.927354 
L 145.2922 304.688929 
L 148.339218 304.108711 
L 149.863065 304.133496 
L 151.386405 304.418135 
L 154.433085 305.129691 
L 155.956425 305.201075 
L 157.479765 305.017561 
L 161.034225 304.414097 
L 162.557565 304.463367 
L 164.588685 304.848235 
L 166.619805 305.259533 
L 168.143145 305.353885 
L 169.666485 305.209643 
L 173.728725 304.568531 
L 175.252065 304.632245 
L 177.790965 305.084843 
L 179.822085 305.352005 
L 181.345425 305.309893 
L 183.376545 304.975492 
L 185.915445 304.581116 
L 187.438785 304.583915 
L 189.469905 304.861632 
L 192.008805 305.207934 
L 193.532145 305.186525 
L 195.563265 304.875071 
L 198.102165 304.444031 
L 199.625505 304.393543 
L 201.656625 304.604277 
L 204.195525 304.929234 
L 205.718865 304.925901 
L 207.749985 304.636839 
L 210.796665 304.124672 
L 212.320005 304.094353 
L 214.351125 304.304617 
L 216.890025 304.57007 
L 218.413365 304.520372 
L 220.444485 304.194731 
L 222.983385 303.753286 
L 224.506725 303.684914 
L 226.537845 303.855608 
L 229.076745 304.125163 
L 230.600085 304.098285 
L 232.631205 303.79448 
L 235.677885 303.280604 
L 237.201225 303.248341 
L 239.232345 303.447729 
L 241.771245 303.687564 
L 243.294585 303.621607 
L 245.325705 303.283595 
L 247.864605 302.854136 
L 249.387945 302.806703 
L 251.419065 303.006049 
L 253.957965 303.282526 
L 255.481305 303.239794 
L 257.512425 302.911397 
L 260.051325 302.468905 
L 261.574665 302.423181 
L 263.605785 302.654149 
L 266.144685 302.986819 
L 267.668025 302.954557 
L 269.699145 302.601589 
L 272.238045 302.135166 
L 273.761385 302.127902 
L 275.284725 302.363356 
L 277.823625 302.862896 
L 279.346965 302.88298 
L 280.870305 302.583427 
L 283.916985 301.756132 
L 284.932545 301.749081 
L 285.948105 301.982612 
L 287.471445 302.706282 
L 288.994785 303.429953 
L 289.502565 303.521079 
L 290.010345 303.46448 
L 290.518125 303.2086 
L 291.025905 302.696881 
L 291.533685 301.867449 
L 292.041465 300.652358 
L 292.549245 298.977469 
L 293.057025 296.759453 
L 294.072585 291.521978 
L 294.580365 289.499889 
L 295.088145 287.975417 
L 295.595925 286.939802 
L 296.103705 286.352661 
L 296.611485 286.149042 
L 297.119265 286.246472 
L 298.134825 286.981466 
L 299.150385 287.870723 
L 300.165945 288.425388 
L 300.673725 288.506793 
L 301.689285 288.300823 
L 304.736033 286.975697 
L 305.751593 287.019284 
L 306.767153 287.333152 
L 308.798273 288.046994 
L 309.813833 288.118998 
L 310.82941 287.944009 
L 313.87609 287.140643 
L 314.89165 287.197477 
L 316.41499 287.597665 
L 317.93833 287.991228 
L 318.95389 288.044857 
L 319.969452 287.890167 
L 323.01613 287.141071 
L 324.03169 287.196836 
L 325.55503 287.619885 
L 327.07837 288.058745 
L 328.093947 288.11622 
L 329.109507 287.917943 
L 332.156187 286.955827 
L 333.171747 287.081032 
L 334.187307 287.510705 
L 335.710715 288.30061 
L 336.726275 288.506793 
L 337.234055 288.425388 
L 337.741835 288.209163 
L 338.757395 287.444042 
L 339.772955 286.554785 
L 340.280735 286.246685 
L 340.788515 286.149256 
L 341.296295 286.352875 
L 341.804075 286.939802 
L 342.311855 287.975417 
L 342.819635 289.499889 
L 343.327415 291.521764 
L 344.850755 298.977469 
L 345.358535 300.652358 
L 345.866315 301.867449 
L 346.374095 302.696881 
L 346.881875 303.2086 
L 347.389655 303.46448 
L 347.897435 303.521079 
L 348.912995 303.237444 
L 351.959675 301.8354 
L 352.975235 301.723869 
L 353.990795 301.837964 
L 356.021915 302.431301 
L 357.545255 302.816104 
L 359.068595 302.904987 
L 360.591935 302.696881 
L 363.638615 302.127902 
L 365.161955 302.135166 
L 366.685295 302.377031 
L 369.731975 302.954557 
L 371.255315 302.986819 
L 373.286435 302.737263 
L 375.825335 302.423181 
L 377.348675 302.468905 
L 379.379795 302.80649 
L 381.918695 303.239794 
L 383.442035 303.282526 
L 385.473155 303.077412 
L 388.012055 302.806703 
L 389.535395 302.854136 
L 391.566515 303.180396 
L 394.105415 303.621607 
L 395.628755 303.687564 
L 397.659875 303.514114 
L 400.198775 303.248341 
L 401.722115 303.280604 
L 403.753235 303.589643 
L 406.799915 304.098285 
L 408.323255 304.125163 
L 410.354375 303.921993 
L 412.893275 303.684914 
L 414.416615 303.753286 
L 416.447735 304.091853 
L 418.986635 304.520372 
L 420.509975 304.57007 
L 422.541095 304.375296 
L 425.079995 304.094353 
L 426.603335 304.124672 
L 428.634455 304.433839 
L 431.173355 304.879836 
L 432.696695 304.950643 
L 434.727815 304.759267 
L 437.774495 304.393543 
L 439.297835 304.444031 
L 441.328955 304.773582 
L 443.867855 305.186525 
L 445.391195 305.207934 
L 447.422315 304.950451 
L 449.961215 304.583915 
L 451.484555 304.581116 
L 453.515675 304.874494 
L 456.054575 305.309893 
L 457.577915 305.352005 
L 459.101255 305.177337 
L 462.655715 304.585774 
L 464.179055 304.599021 
L 466.210175 304.919427 
L 468.749075 305.330233 
L 470.272415 305.317905 
L 471.795755 305.078156 
L 474.842435 304.463367 
L 476.365775 304.414097 
L 477.889115 304.604683 
L 481.443575 305.201075 
L 482.966915 305.129691 
L 484.490255 304.818472 
L 487.029155 304.204196 
L 488.551818 304.084696 
L 490.075327 304.243104 
L 494.138582 304.950835 
L 495.662091 304.814455 
L 497.692873 304.265261 
L 499.723655 303.736001 
L 501.247164 303.641627 
L 502.770673 303.861869 
L 506.324964 304.618784 
L 507.3412 304.597397 
L 508.863018 304.275516 
L 512.419 303.162449 
L 513.433545 303.084463 
L 514.449782 303.182533 
L 515.973291 303.58443 
L 518.004073 304.181634 
L 519.018618 304.308762 
L 520.034855 304.246459 
L 521.051091 303.994253 
L 523.081873 303.154543 
L 524.605382 302.612058 
L 525.619927 302.463777 
L 526.636164 302.535781 
L 527.6524 302.809908 
L 531.206691 304.059804 
L 532.221236 304.067133 
L 533.237473 303.82138 
L 534.760982 303.087881 
L 536.791764 302.036669 
L 537.808 301.774079 
L 538.822545 301.801214 
L 539.838782 302.120851 
L 541.362291 302.969299 
L 542.8858 303.8195 
L 543.900345 304.121189 
L 544.916582 304.081448 
L 545.931127 303.678205 
L 546.947364 302.982974 
L 548.978145 301.380515 
L 549.994382 300.879907 
L 550.501655 300.780982 
L 551.008927 300.799571 
L 551.517891 300.939305 
L 552.532436 301.55935 
L 553.548673 302.519329 
L 555.072182 304.090892 
L 556.086727 304.818664 
L 556.595691 304.99017 
L 557.102964 305.00299 
L 557.610236 304.84471 
L 558.1192 304.512873 
L 559.133745 303.373076 
L 560.657255 300.916657 
L 561.673491 299.322959 
L 562.180764 298.707401 
L 562.688036 298.28713 
L 563.197 298.112141 
L 563.704273 298.2241 
L 564.211545 298.6542 
L 564.718818 299.420175 
L 565.227782 300.525871 
L 566.242327 303.694422 
L 567.258564 307.88609 
L 569.796618 319.359563 
L 570.812855 322.688448 
L 571.320127 323.802484 
L 571.829091 324.488404 
L 572.336364 324.72 
L 572.336364 324.72 
" clip-path="url(#pa4b5450515)" style="fill: none; stroke: #2ca02c; stroke-width: 1.5; stroke-linecap: square"/>
   </g>
   <g id="line2d_16">
    <path d="M 65.063636 324.72 
L 65.570909 324.480428 
L 66.079873 323.770984 
L 66.587145 322.619057 
L 67.603382 319.179607 
L 69.1252 312.229228 
L 70.648709 305.121786 
L 71.664945 301.330356 
L 72.172218 299.887103 
L 72.681182 298.787319 
L 73.188455 298.042188 
L 73.695727 297.646782 
L 74.203 297.581386 
L 74.711964 297.812451 
L 75.219236 298.295431 
L 76.235473 299.800099 
L 78.266255 303.309095 
L 79.2808 304.495315 
L 79.789764 304.83177 
L 80.297036 304.982844 
L 80.804309 304.951947 
L 81.313273 304.753106 
L 82.327818 303.952057 
L 85.374836 300.855527 
L 85.882109 300.587121 
L 86.391073 300.444956 
L 86.898345 300.432446 
L 87.914582 300.771176 
L 88.929127 301.483704 
L 91.468873 303.547362 
L 92.483418 303.967979 
L 93.499655 303.998308 
L 94.5142 303.664316 
L 96.037709 302.74366 
L 97.561218 301.833428 
L 98.577455 301.49394 
L 99.592 301.46835 
L 100.608236 301.752869 
L 102.131745 302.570219 
L 103.655255 303.438938 
L 104.6698 303.818422 
L 105.686036 303.939926 
L 106.702273 303.793781 
L 108.225782 303.212044 
L 110.256564 302.37062 
L 111.271109 302.178414 
L 112.287345 302.220874 
L 113.303582 302.486437 
L 115.334364 303.384726 
L 116.857873 303.957744 
L 117.872418 304.123792 
L 118.888655 304.079626 
L 120.412164 303.691991 
L 122.950218 302.900988 
L 123.966455 302.79427 
L 124.981 302.876536 
L 126.504509 303.303977 
L 129.044255 304.210607 
L 130.0588 304.39959 
L 131.075036 304.417598 
L 132.598545 304.155068 
L 135.645564 303.398374 
L 136.660109 303.345489 
L 137.676345 303.45107 
L 139.199855 303.847993 
L 141.737909 304.597104 
L 143.261418 304.737373 
L 144.784927 304.559952 
L 148.339218 303.81937 
L 149.863065 303.843822 
L 151.386405 304.146917 
L 154.433085 304.903421 
L 155.956425 304.97583 
L 157.479765 304.775094 
L 161.034225 304.122086 
L 162.557565 304.173833 
L 164.588685 304.585162 
L 166.619805 305.023976 
L 168.143145 305.122923 
L 169.666485 304.966163 
L 173.728725 304.276192 
L 175.252065 304.344999 
L 177.283185 304.723157 
L 179.314305 305.078378 
L 180.837645 305.114203 
L 182.360985 304.920481 
L 185.915445 304.292304 
L 187.438785 304.297232 
L 189.469905 304.598052 
L 192.008805 304.972608 
L 193.532145 304.951188 
L 195.563265 304.619471 
L 198.102165 304.161513 
L 199.625505 304.110523 
L 201.656625 304.341398 
L 204.195525 304.695861 
L 205.718865 304.695482 
L 207.242205 304.490007 
L 210.796665 303.847993 
L 212.320005 303.819939 
L 214.351125 304.051762 
L 216.890025 304.344431 
L 218.413365 304.295526 
L 220.444485 303.951867 
L 222.983385 303.485947 
L 224.506725 303.417519 
L 226.537845 303.60783 
L 229.076745 303.905996 
L 230.600085 303.882302 
L 232.631205 303.562716 
L 235.677885 303.020975 
L 237.201225 302.991405 
L 239.232345 303.212613 
L 241.771245 303.479123 
L 243.294585 303.413538 
L 245.325705 303.0568 
L 247.864605 302.602822 
L 249.387945 302.556192 
L 251.419065 302.776831 
L 253.957965 303.08239 
L 255.481305 303.041447 
L 257.512425 302.693807 
L 260.051325 302.223338 
L 261.574665 302.176898 
L 263.605785 302.42995 
L 266.144685 302.795976 
L 267.668025 302.766406 
L 269.191365 302.508425 
L 272.238045 301.888588 
L 273.761385 301.879679 
L 275.284725 302.134248 
L 277.823625 302.683003 
L 278.839185 302.743281 
L 279.854745 302.645282 
L 281.378085 302.234711 
L 283.409205 301.580944 
L 284.424765 301.442761 
L 285.440325 301.545309 
L 286.455885 301.910008 
L 289.502565 303.481777 
L 290.010345 303.496373 
L 290.518125 303.322553 
L 291.025905 302.9044 
L 291.533685 302.182205 
L 292.041465 301.090572 
L 292.549245 299.558609 
L 293.057025 297.508029 
L 294.072585 292.667237 
L 294.580365 290.842225 
L 295.088145 289.505122 
L 295.595925 288.642279 
L 296.103705 288.209341 
L 296.611485 288.138259 
L 297.119265 288.344871 
L 298.134825 289.225911 
L 299.150385 290.173295 
L 299.658165 290.514489 
L 300.165945 290.720722 
L 300.673725 290.783275 
L 301.689285 290.527379 
L 304.228253 289.235768 
L 305.243813 289.121657 
L 306.259373 289.341917 
L 308.798273 290.282666 
L 309.813833 290.350147 
L 310.82941 290.160215 
L 313.36831 289.377174 
L 314.38387 289.322393 
L 315.39943 289.492801 
L 318.44611 290.271293 
L 319.46167 290.215186 
L 320.98501 289.803288 
L 322.50835 289.382292 
L 323.52391 289.319929 
L 324.53947 289.488062 
L 327.586167 290.350526 
L 328.601727 290.282856 
L 329.617287 289.96763 
L 331.648407 289.195962 
L 332.663967 289.13303 
L 333.679527 289.422667 
L 336.218495 290.710676 
L 336.726275 290.783275 
L 337.234055 290.720912 
L 337.741835 290.514489 
L 338.757395 289.727467 
L 340.280735 288.34506 
L 340.788515 288.138448 
L 341.296295 288.20953 
L 341.804075 288.642468 
L 342.311855 289.505122 
L 342.819635 290.842225 
L 343.327415 292.667048 
L 344.850755 299.558609 
L 345.358535 301.090572 
L 345.866315 302.182205 
L 346.374095 302.9044 
L 346.881875 303.322553 
L 347.389655 303.496373 
L 347.897435 303.481777 
L 348.912995 303.084475 
L 351.451895 301.696572 
L 352.467455 301.460958 
L 353.483015 301.4856 
L 355.006355 301.880817 
L 357.037475 302.537995 
L 358.053035 302.714658 
L 359.068595 302.731718 
L 360.591935 302.498758 
L 363.638615 301.879679 
L 365.161955 301.888588 
L 366.685295 302.149602 
L 369.731975 302.766406 
L 371.255315 302.795976 
L 373.286435 302.520935 
L 375.825335 302.176898 
L 377.348675 302.223338 
L 379.379795 302.58235 
L 381.918695 303.041447 
L 383.442035 303.08239 
L 385.473155 302.854927 
L 388.012055 302.556192 
L 389.535395 302.602822 
L 391.566515 302.947429 
L 394.105415 303.413538 
L 395.628755 303.479123 
L 397.659875 303.28559 
L 400.198775 302.991405 
L 401.722115 303.020975 
L 403.753235 303.346058 
L 406.292135 303.828658 
L 407.815475 303.92116 
L 409.846595 303.752837 
L 412.893275 303.417519 
L 414.416615 303.485947 
L 416.447735 303.843064 
L 418.986635 304.295526 
L 420.509975 304.344431 
L 422.541095 304.129289 
L 425.079995 303.819939 
L 426.603335 303.847993 
L 428.634455 304.174402 
L 431.173355 304.647146 
L 432.696695 304.719934 
L 434.220035 304.586679 
L 437.774495 304.110523 
L 439.297835 304.161513 
L 441.328955 304.511426 
L 443.867855 304.951188 
L 445.391195 304.972608 
L 447.422315 304.693966 
L 449.961215 304.297232 
L 451.484555 304.292304 
L 453.007895 304.503276 
L 456.562355 305.114203 
L 458.085695 305.078378 
L 460.116815 304.723157 
L 462.147935 304.344999 
L 463.671275 304.276192 
L 465.194615 304.448116 
L 469.256855 305.122923 
L 470.780195 305.023976 
L 472.811315 304.585162 
L 474.842435 304.173833 
L 476.365775 304.122086 
L 477.889115 304.328319 
L 481.443575 304.97583 
L 482.966915 304.903421 
L 484.490255 304.57341 
L 487.029155 303.918885 
L 488.551818 303.792833 
L 490.075327 303.965326 
L 494.138582 304.737373 
L 495.153127 304.680318 
L 496.676636 304.340829 
L 499.723655 303.45107 
L 500.739891 303.345489 
L 501.754436 303.398374 
L 503.277945 303.724973 
L 505.817691 304.363576 
L 506.832236 304.430488 
L 507.848473 304.325286 
L 509.371982 303.885524 
L 511.910036 302.98496 
L 512.926273 302.811899 
L 513.940818 302.824978 
L 514.957055 303.017373 
L 519.018618 304.127393 
L 520.034855 304.066736 
L 521.051091 303.801742 
L 523.081873 302.90876 
L 524.605382 302.328729 
L 525.619927 302.169505 
L 526.636164 302.246842 
L 527.6524 302.541407 
L 531.206691 303.898224 
L 532.221236 303.913767 
L 533.237473 303.657682 
L 534.252018 303.174323 
L 536.791764 301.752869 
L 537.808 301.46835 
L 538.822545 301.49394 
L 539.838782 301.833428 
L 541.362291 302.74366 
L 542.8858 303.664316 
L 543.900345 303.998308 
L 544.916582 303.967979 
L 545.931127 303.547362 
L 546.947364 302.810382 
L 548.978145 301.091899 
L 549.994382 300.545229 
L 550.501655 300.432446 
L 551.008927 300.444956 
L 551.517891 300.587121 
L 552.532436 301.238044 
L 553.548673 302.259353 
L 555.579455 304.409826 
L 556.086727 304.753106 
L 556.595691 304.951947 
L 557.102964 304.982844 
L 557.610236 304.83177 
L 558.1192 304.495315 
L 559.133745 303.309095 
L 560.657255 300.702369 
L 561.673491 298.977441 
L 562.180764 298.295431 
L 562.688036 297.812451 
L 563.197 297.581386 
L 563.704273 297.646782 
L 564.211545 298.042188 
L 564.718818 298.787319 
L 565.227782 299.887103 
L 566.242327 303.089593 
L 567.258564 307.37022 
L 569.796618 319.179607 
L 570.812855 322.619057 
L 571.320127 323.770984 
L 571.829091 324.480428 
L 572.336364 324.72 
L 572.336364 324.72 
" clip-path="url(#pa4b5450515)" style="fill: none; stroke: #d62728; stroke-width: 1.5; stroke-linecap: square"/>
   </g>
   <g id="patch_3">
    <path d="M 39.7 339.84 
L 39.7 7.2 
" style="fill: none; stroke: #000000; stroke-width: 0.8; stroke-linejoin: miter; stroke-linecap: square"/>
   </g>
   <g id="patch_4">
    <path d="M 597.7 339.84 
L 597.7 7.2 
" style="fill: none; stroke: #000000; stroke-width: 0.8; stroke-linejoin: miter; stroke-linecap: square"/>
   </g>
   <g id="patch_5">
    <path d="M 39.7 339.84 
L 597.7 339.84 
" style="fill: none; stroke: #000000; stroke-width: 0.8; stroke-linejoin: miter; stroke-linecap: square"/>
   </g>
   <g id="patch_6">
    <path d="M 39.7 7.2 
L 597.7 7.2 
" style="fill: none; stroke: #000000; stroke-width: 0.8; stroke-linejoin: miter; stroke-linecap: square"/>
   </g>
   <g id="legend_1">
    <g id="patch_7">
     <path d="M 530.740625 71.88125 
L 590.7 71.88125 
Q 592.7 71.88125 592.7 69.88125 
L 592.7 14.2 
Q 592.7 12.2 590.7 12.2 
L 530.740625 12.2 
Q 528.740625 12.2 528.740625 14.2 
L 528.740625 69.88125 
Q 528.740625 71.88125 530.740625 71.88125 
z
" style="fill: #ffffff; opacity: 0.8; stroke: #cccccc; stroke-linejoin: miter"/>
    </g>
    <g id="line2d_17">
     <path d="M 532.740625 19.7 
L 542.740625 19.7 
L 552.740625 19.7 
" style="fill: none; stroke: #1f77b4; stroke-width: 1.5; stroke-linecap: square"/>
    </g>
    <g id="text_15">
     <!-- T=1 -->
     <g transform="translate(560.740625 23.2) scale(0.1 -0.1)">
      <defs>
       <path id="STIXGeneral-Regular-54" d="M 3795 3149 
L 3642 3149 
Q 3539 3674 3353 3821 
Q 3168 3968 2656 3968 
L 2278 3968 
L 2278 710 
Q 2278 346 2387 243 
Q 2496 141 2893 122 
L 2893 0 
L 1024 0 
L 1024 122 
Q 1427 147 1526 256 
Q 1626 365 1626 787 
L 1626 3968 
L 1242 3968 
Q 723 3968 540 3817 
Q 358 3667 262 3149 
L 109 3149 
L 154 4237 
L 3750 4237 
L 3795 3149 
z
" transform="scale(0.015625)"/>
       <path id="STIXGeneral-Regular-3d" d="M 4077 2048 
L 307 2048 
L 307 2470 
L 4077 2470 
L 4077 2048 
z
M 4077 768 
L 307 768 
L 307 1190 
L 4077 1190 
L 4077 768 
z
" transform="scale(0.015625)"/>
      </defs>
      <use xlink:href="#STIXGeneral-Regular-54"/>
      <use xlink:href="#STIXGeneral-Regular-3d" transform="translate(61.099991 0)"/>
      <use xlink:href="#STIXGeneral-Regular-31" transform="translate(129.599976 0)"/>
     </g>
    </g>
    <g id="line2d_18">
     <path d="M 532.740625 33.870313 
L 542.740625 33.870313 
L 552.740625 33.870313 
" style="fill: none; stroke: #ff7f0e; stroke-width: 1.5; stroke-linecap: square"/>
    </g>
    <g id="text_16">
     <!-- T=10 -->
     <g transform="translate(560.740625 37.370313) scale(0.1 -0.1)">
      <use xlink:href="#STIXGeneral-Regular-54"/>
      <use xlink:href="#STIXGeneral-Regular-3d" transform="translate(61.099991 0)"/>
      <use xlink:href="#STIXGeneral-Regular-31" transform="translate(129.599976 0)"/>
      <use xlink:href="#STIXGeneral-Regular-30" transform="translate(179.59996 0)"/>
     </g>
    </g>
    <g id="line2d_19">
     <path d="M 532.740625 48.040625 
L 542.740625 48.040625 
L 552.740625 48.040625 
" style="fill: none; stroke: #2ca02c; stroke-width: 1.5; stroke-linecap: square"/>
    </g>
    <g id="text_17">
     <!-- T=50 -->
     <g transform="translate(560.740625 51.540625) scale(0.1 -0.1)">
      <use xlink:href="#STIXGeneral-Regular-54"/>
      <use xlink:href="#STIXGeneral-Regular-3d" transform="translate(61.099991 0)"/>
      <use xlink:href="#STIXGeneral-Regular-35" transform="translate(129.599976 0)"/>
      <use xlink:href="#STIXGeneral-Regular-30" transform="translate(179.59996 0)"/>
     </g>
    </g>
    <g id="line2d_20">
     <path d="M 532.740625 62.210938 
L 542.740625 62.210938 
L 552.740625 62.210938 
" style="fill: none; stroke: #d62728; stroke-width: 1.5; stroke-linecap: square"/>
    </g>
    <g id="text_18">
     <!-- T=100 -->
     <g transform="translate(560.740625 65.710938) scale(0.1 -0.1)">
      <use xlink:href="#STIXGeneral-Regular-54"/>
      <use xlink:href="#STIXGeneral-Regular-3d" transform="translate(61.099991 0)"/>
      <use xlink:href="#STIXGeneral-Regular-31" transform="translate(129.599976 0)"/>
      <use xlink:href="#STIXGeneral-Regular-30" transform="translate(179.59996 0)"/>
      <use xlink:href="#STIXGeneral-Regular-30" transform="translate(229.599945 0)"/>
     </g>
    </g>
   </g>
  </g>
 </g>
 <defs>
  <clipPath id="pa4b5450515">
   <rect x="39.7" y="7.2" width="558" height="332.64"/>
  </clipPath>
 </defs>
</svg>
