<?xml version="1.0" encoding="utf-8" standalone="no"?>
<!DOCTYPE svg PUBLIC "-//W3C//DTD SVG 1.1//EN"
  "http://www.w3.org/Graphics/SVG/1.1/DTD/svg11.dtd">
<svg xmlns:xlink="http://www.w3.org/1999/xlink" width="852.65pt" height="346.989375pt" viewBox="0 0 852.65 346.989375" xmlns="http://www.w3.org/2000/svg" version="1.1">
 <metadata>
  <rdf:RDF xmlns:dc="http://purl.org/dc/elements/1.1/" xmlns:cc="http://creativecommons.org/ns#" xmlns:rdf="http://www.w3.org/1999/02/22-rdf-syntax-ns#">
   <cc:Work>
    <dc:type rdf:resource="http://purl.org/dc/dcmitype/StillImage"/>
    <dc:date>2025-08-27T14:59:21.965415</dc:date>
    <dc:format>image/svg+xml</dc:format>
    <dc:creator>
     <cc:Agent>
      <dc:title>Matplotlib v3.10.5, https://matplotlib.org/</dc:title>
     </cc:Agent>
    </dc:creator>
   </cc:Work>
  </rdf:RDF>
 </metadata>
 <defs>
  <style type="text/css">*{stroke-linejoin: round; stroke-linecap: butt}</style>
 </defs>
 <g id="figure_1">
  <g id="patch_1">
   <path d="M 0 346.989375 
L 852.65 346.989375 
L 852.65 0 
L 0 0 
z
" style="fill: #ffffff"/>
  </g>
  <g id="axes_1">
   <g id="patch_2">
    <path d="M 59.05 310.789375 
L 421.37 310.789375 
L 421.37 21.395625 
L 59.05 21.395625 
z
" style="fill: #ffffff"/>
   </g>
   <g id="matplotlib.axis_1">
    <g id="xtick_1">
     <g id="line2d_1">
      <path d="M 75.519091 310.789375 
L 75.519091 21.395625 
" clip-path="url(#p5261d4e780)" style="fill: none; stroke: #b0b0b0; stroke-width: 0.8; stroke-linecap: square"/>
     </g>
     <g id="line2d_2">
      <defs>
       <path id="m2a9775e887" d="M 0 0 
L 0 3.5 
" style="stroke: #000000; stroke-width: 0.8"/>
      </defs>
      <g>
       <use xlink:href="#m2a9775e887" x="75.519091" y="310.789375" style="stroke: #000000; stroke-width: 0.8"/>
      </g>
     </g>
     <g id="text_1">
      <!-- 0 -->
      <g transform="translate(73.019091 324.619062) scale(0.1 -0.1)">
       <defs>
        <path id="STIXGeneral-Regular-30" d="M 3046 2112 
Q 3046 1683 2963 1302 
Q 2880 922 2717 602 
Q 2554 282 2266 96 
Q 1978 -90 1600 -90 
Q 1210 -90 915 108 
Q 621 307 461 640 
Q 301 973 227 1350 
Q 154 1728 154 2150 
Q 154 2746 301 3222 
Q 448 3699 790 4012 
Q 1133 4326 1626 4326 
Q 2253 4326 2649 3712 
Q 3046 3098 3046 2112 
z
M 2432 2080 
Q 2432 3091 2217 3625 
Q 2003 4160 1587 4160 
Q 1190 4160 979 3622 
Q 768 3085 768 2106 
Q 768 1120 979 598 
Q 1190 77 1600 77 
Q 2003 77 2217 598 
Q 2432 1120 2432 2080 
z
" transform="scale(0.015625)"/>
       </defs>
       <use xlink:href="#STIXGeneral-Regular-30"/>
      </g>
     </g>
    </g>
    <g id="xtick_2">
     <g id="line2d_3">
      <path d="M 141.408632 310.789375 
L 141.408632 21.395625 
" clip-path="url(#p5261d4e780)" style="fill: none; stroke: #b0b0b0; stroke-width: 0.8; stroke-linecap: square"/>
     </g>
     <g id="line2d_4">
      <g>
       <use xlink:href="#m2a9775e887" x="141.408632" y="310.789375" style="stroke: #000000; stroke-width: 0.8"/>
      </g>
     </g>
     <g id="text_2">
      <!-- 1 -->
      <g transform="translate(138.908632 324.619062) scale(0.1 -0.1)">
       <defs>
        <path id="STIXGeneral-Regular-31" d="M 2522 0 
L 755 0 
L 755 96 
Q 1107 115 1235 227 
Q 1363 339 1363 608 
L 1363 3482 
Q 1363 3795 1171 3795 
Q 1082 3795 883 3718 
L 710 3654 
L 710 3744 
L 1856 4326 
L 1914 4307 
L 1914 486 
Q 1914 275 2042 185 
Q 2170 96 2522 96 
L 2522 0 
z
" transform="scale(0.015625)"/>
       </defs>
       <use xlink:href="#STIXGeneral-Regular-31"/>
      </g>
     </g>
    </g>
    <g id="xtick_3">
     <g id="line2d_5">
      <path d="M 207.298174 310.789375 
L 207.298174 21.395625 
" clip-path="url(#p5261d4e780)" style="fill: none; stroke: #b0b0b0; stroke-width: 0.8; stroke-linecap: square"/>
     </g>
     <g id="line2d_6">
      <g>
       <use xlink:href="#m2a9775e887" x="207.298174" y="310.789375" style="stroke: #000000; stroke-width: 0.8"/>
      </g>
     </g>
     <g id="text_3">
      <!-- 2 -->
      <g transform="translate(204.798174 324.619062) scale(0.1 -0.1)">
       <defs>
        <path id="STIXGeneral-Regular-32" d="M 3034 877 
L 2688 0 
L 186 0 
L 186 77 
L 1325 1286 
Q 1773 1754 1965 2144 
Q 2157 2534 2157 2950 
Q 2157 3379 1920 3616 
Q 1683 3853 1267 3853 
Q 922 3853 720 3673 
Q 518 3494 326 3021 
L 192 3053 
Q 301 3648 630 3987 
Q 960 4326 1523 4326 
Q 2054 4326 2380 4006 
Q 2707 3686 2707 3200 
Q 2707 2477 1888 1613 
L 832 486 
L 2330 486 
Q 2541 486 2665 569 
Q 2790 653 2944 915 
L 3034 877 
z
" transform="scale(0.015625)"/>
       </defs>
       <use xlink:href="#STIXGeneral-Regular-32"/>
      </g>
     </g>
    </g>
    <g id="xtick_4">
     <g id="line2d_7">
      <path d="M 273.187716 310.789375 
L 273.187716 21.395625 
" clip-path="url(#p5261d4e780)" style="fill: none; stroke: #b0b0b0; stroke-width: 0.8; stroke-linecap: square"/>
     </g>
     <g id="line2d_8">
      <g>
       <use xlink:href="#m2a9775e887" x="273.187716" y="310.789375" style="stroke: #000000; stroke-width: 0.8"/>
      </g>
     </g>
     <g id="text_4">
      <!-- 3 -->
      <g transform="translate(270.687716 324.619062) scale(0.1 -0.1)">
       <defs>
        <path id="STIXGeneral-Regular-33" d="M 390 3264 
L 288 3290 
Q 435 3770 748 4048 
Q 1062 4326 1542 4326 
Q 1990 4326 2265 4083 
Q 2541 3840 2541 3450 
Q 2541 2925 1946 2566 
Q 2298 2413 2477 2227 
Q 2758 1914 2758 1402 
Q 2758 890 2464 506 
Q 2246 211 1840 60 
Q 1434 -90 979 -90 
Q 262 -90 262 275 
Q 262 378 339 442 
Q 416 506 525 506 
Q 685 506 915 339 
Q 1197 141 1466 141 
Q 1818 141 2058 425 
Q 2298 710 2298 1120 
Q 2298 1856 1632 2048 
Q 1434 2112 979 2112 
L 979 2202 
Q 1338 2323 1517 2432 
Q 2035 2726 2035 3290 
Q 2035 3610 1852 3776 
Q 1670 3942 1344 3942 
Q 768 3942 390 3264 
z
" transform="scale(0.015625)"/>
       </defs>
       <use xlink:href="#STIXGeneral-Regular-33"/>
      </g>
     </g>
    </g>
    <g id="xtick_5">
     <g id="line2d_9">
      <path d="M 339.077257 310.789375 
L 339.077257 21.395625 
" clip-path="url(#p5261d4e780)" style="fill: none; stroke: #b0b0b0; stroke-width: 0.8; stroke-linecap: square"/>
     </g>
     <g id="line2d_10">
      <g>
       <use xlink:href="#m2a9775e887" x="339.077257" y="310.789375" style="stroke: #000000; stroke-width: 0.8"/>
      </g>
     </g>
     <g id="text_5">
      <!-- 4 -->
      <g transform="translate(336.577257 324.619062) scale(0.1 -0.1)">
       <defs>
        <path id="STIXGeneral-Regular-34" d="M 3027 1069 
L 2368 1069 
L 2368 0 
L 1869 0 
L 1869 1069 
L 77 1069 
L 77 1478 
L 2086 4326 
L 2368 4326 
L 2368 1478 
L 3027 1478 
L 3027 1069 
z
M 1869 1478 
L 1869 3674 
L 333 1478 
L 1869 1478 
z
" transform="scale(0.015625)"/>
       </defs>
       <use xlink:href="#STIXGeneral-Regular-34"/>
      </g>
     </g>
    </g>
    <g id="xtick_6">
     <g id="line2d_11">
      <path d="M 404.966799 310.789375 
L 404.966799 21.395625 
" clip-path="url(#p5261d4e780)" style="fill: none; stroke: #b0b0b0; stroke-width: 0.8; stroke-linecap: square"/>
     </g>
     <g id="line2d_12">
      <g>
       <use xlink:href="#m2a9775e887" x="404.966799" y="310.789375" style="stroke: #000000; stroke-width: 0.8"/>
      </g>
     </g>
     <g id="text_6">
      <!-- 5 -->
      <g transform="translate(402.466799 324.619062) scale(0.1 -0.1)">
       <defs>
        <path id="STIXGeneral-Regular-35" d="M 2803 4358 
L 2573 3814 
Q 2534 3731 2400 3731 
L 1158 3731 
L 902 3187 
Q 1606 3053 1920 2896 
Q 2234 2739 2502 2368 
Q 2726 2061 2726 1555 
Q 2726 1094 2576 780 
Q 2426 467 2099 224 
Q 1664 -90 1011 -90 
Q 646 -90 422 19 
Q 198 128 198 307 
Q 198 550 486 550 
Q 717 550 960 352 
Q 1210 147 1414 147 
Q 1747 147 2012 480 
Q 2278 813 2278 1229 
Q 2278 1843 1850 2189 
Q 1293 2637 486 2637 
Q 410 2637 410 2688 
L 416 2720 
L 1114 4237 
L 2438 4237 
Q 2547 4237 2608 4269 
Q 2669 4301 2746 4403 
L 2803 4358 
z
" transform="scale(0.015625)"/>
       </defs>
       <use xlink:href="#STIXGeneral-Regular-35"/>
      </g>
     </g>
    </g>
    <g id="text_7">
     <!-- Energy $E$ -->
     <g transform="translate(221.46 337.589375) scale(0.1 -0.1)">
      <defs>
       <path id="STIXGeneral-Regular-45" d="M 3821 1082 
L 3526 0 
L 77 0 
L 77 122 
Q 442 147 538 252 
Q 634 358 634 730 
L 634 3520 
Q 634 3878 534 3987 
Q 435 4096 77 4115 
L 77 4237 
L 3469 4237 
L 3494 3322 
L 3334 3322 
Q 3264 3750 3085 3872 
Q 2906 3994 2349 3994 
L 1510 3994 
Q 1370 3994 1328 3952 
Q 1286 3910 1286 3763 
L 1286 2355 
L 2253 2355 
Q 2656 2355 2787 2470 
Q 2918 2586 2976 2970 
L 3123 2970 
L 3123 1472 
L 2976 1472 
Q 2918 1875 2790 1984 
Q 2662 2093 2253 2093 
L 1286 2093 
L 1286 538 
Q 1286 346 1420 291 
Q 1555 237 1933 237 
L 2163 237 
Q 2848 237 3136 403 
Q 3424 570 3642 1082 
L 3821 1082 
z
" transform="scale(0.015625)"/>
       <path id="STIXGeneral-Regular-6e" d="M 3104 0 
L 1773 0 
L 1779 96 
Q 2016 115 2096 233 
Q 2176 352 2176 672 
L 2176 1946 
Q 2176 2592 1709 2592 
Q 1549 2592 1408 2515 
Q 1267 2438 1050 2227 
L 1050 461 
Q 1050 269 1136 192 
Q 1222 115 1466 96 
L 1466 0 
L 115 0 
L 115 96 
Q 358 115 435 214 
Q 512 314 512 602 
L 512 2157 
Q 512 2394 467 2483 
Q 422 2573 288 2573 
Q 160 2573 102 2547 
L 102 2656 
Q 550 2784 979 2944 
L 1030 2925 
L 1030 2426 
L 1037 2426 
Q 1491 2944 1958 2944 
Q 2323 2944 2518 2688 
Q 2714 2432 2714 1958 
L 2714 544 
Q 2714 288 2790 205 
Q 2867 122 3104 96 
L 3104 0 
z
" transform="scale(0.015625)"/>
       <path id="STIXGeneral-Regular-65" d="M 2611 1050 
L 2714 1005 
Q 2330 -64 1376 -64 
Q 813 -64 486 329 
Q 160 723 160 1389 
Q 160 2074 525 2509 
Q 890 2944 1485 2944 
Q 2061 2944 2374 2502 
Q 2560 2246 2592 1773 
L 621 1773 
Q 646 1370 700 1158 
Q 755 947 915 730 
Q 1184 378 1626 378 
Q 1939 378 2153 531 
Q 2368 685 2611 1050 
z
M 634 1978 
L 1939 1978 
Q 1882 2381 1750 2547 
Q 1619 2714 1312 2714 
Q 1043 2714 864 2525 
Q 685 2336 634 1978 
z
" transform="scale(0.015625)"/>
       <path id="STIXGeneral-Regular-72" d="M 1024 2931 
L 1024 2342 
Q 1267 2688 1430 2816 
Q 1594 2944 1792 2944 
Q 1958 2944 2051 2854 
Q 2144 2765 2144 2605 
Q 2144 2470 2077 2393 
Q 2010 2317 1894 2317 
Q 1773 2317 1638 2445 
Q 1536 2541 1472 2541 
Q 1338 2541 1181 2355 
Q 1024 2170 1024 2016 
L 1024 576 
Q 1024 301 1133 205 
Q 1242 109 1568 96 
L 1568 0 
L 32 0 
L 32 96 
Q 339 154 412 224 
Q 486 294 486 538 
L 486 2138 
Q 486 2349 438 2435 
Q 390 2522 269 2522 
Q 166 2522 45 2496 
L 45 2598 
Q 448 2726 992 2944 
L 1024 2931 
z
" transform="scale(0.015625)"/>
       <path id="STIXGeneral-Regular-67" d="M 3008 2483 
L 2477 2483 
Q 2598 2208 2598 1946 
Q 2598 1453 2265 1203 
Q 1933 954 1600 954 
Q 1530 954 1357 973 
L 1235 986 
Q 1107 947 979 812 
Q 851 678 851 582 
Q 851 435 1350 410 
L 2176 371 
Q 2528 358 2739 172 
Q 2950 -13 2950 -314 
Q 2950 -685 2566 -986 
Q 2035 -1395 1286 -1395 
Q 826 -1395 502 -1212 
Q 179 -1030 179 -774 
Q 179 -595 320 -419 
Q 461 -243 806 6 
Q 602 102 534 172 
Q 467 243 467 346 
Q 467 531 762 787 
Q 909 915 1037 1043 
Q 717 1203 579 1401 
Q 442 1600 442 1901 
Q 442 2336 752 2640 
Q 1062 2944 1510 2944 
Q 1766 2944 2022 2848 
L 2163 2797 
Q 2349 2733 2515 2733 
L 3008 2733 
L 3008 2483 
z
M 973 2163 
L 973 2144 
Q 973 1683 1155 1398 
Q 1338 1114 1632 1114 
Q 1850 1114 1978 1270 
Q 2106 1427 2106 1690 
Q 2106 2112 1914 2464 
Q 1754 2765 1446 2765 
Q 1222 2765 1097 2605 
Q 973 2445 973 2163 
z
M 2771 -410 
Q 2771 -230 2595 -163 
Q 2419 -96 1978 -96 
Q 1344 -96 941 -13 
Q 749 -243 688 -348 
Q 627 -454 627 -563 
Q 627 -774 880 -902 
Q 1133 -1030 1555 -1030 
Q 2099 -1030 2435 -860 
Q 2771 -691 2771 -410 
z
" transform="scale(0.015625)"/>
       <path id="STIXGeneral-Regular-79" d="M 3040 2880 
L 3040 2784 
Q 2925 2771 2854 2700 
Q 2784 2630 2720 2458 
L 1760 -160 
Q 1510 -838 1257 -1116 
Q 1005 -1395 640 -1395 
Q 435 -1395 313 -1289 
Q 192 -1184 192 -1024 
Q 192 -902 272 -816 
Q 352 -730 467 -730 
Q 653 -730 800 -813 
Q 883 -858 966 -858 
Q 1101 -858 1286 -576 
Q 1376 -448 1459 -211 
Q 1542 26 1542 115 
Q 1542 198 1274 762 
L 429 2566 
Q 346 2752 90 2790 
L 90 2880 
L 1402 2880 
L 1402 2784 
Q 1197 2778 1117 2739 
Q 1037 2701 1037 2611 
Q 1037 2541 1120 2349 
L 1837 749 
L 2458 2515 
Q 2483 2573 2483 2630 
Q 2483 2784 2189 2784 
L 2189 2880 
L 3040 2880 
z
" transform="scale(0.015625)"/>
       <path id="STIXGeneral-Regular-20" transform="scale(0.015625)"/>
       <path id="STIXGeneral-Italic-45" d="M 4058 4179 
L 3859 3194 
L 3718 3206 
Q 3738 3366 3738 3501 
Q 3738 3789 3501 3878 
Q 3264 3968 2509 3968 
Q 2240 3968 2157 3939 
Q 2074 3910 2042 3802 
L 1619 2310 
L 2118 2310 
Q 2541 2310 2681 2412 
Q 2822 2515 3008 2931 
L 3123 2906 
L 2688 1421 
L 2560 1453 
Q 2605 1651 2605 1786 
Q 2605 1939 2560 1984 
Q 2451 2080 2061 2080 
L 1562 2080 
L 1357 1363 
Q 1126 550 1126 429 
Q 1126 211 1632 211 
Q 2458 211 2931 461 
Q 3174 589 3533 1088 
L 3635 1037 
L 3238 0 
L -6 0 
L -6 102 
Q 269 154 352 227 
Q 435 301 512 576 
L 1299 3405 
Q 1370 3642 1370 3814 
Q 1370 3942 1270 3996 
Q 1171 4051 877 4077 
L 877 4179 
L 4058 4179 
z
" transform="scale(0.015625)"/>
      </defs>
      <use xlink:href="#STIXGeneral-Regular-45" transform="translate(0 0.796875)"/>
      <use xlink:href="#STIXGeneral-Regular-6e" transform="translate(61.099991 0.796875)"/>
      <use xlink:href="#STIXGeneral-Regular-65" transform="translate(111.099976 0.796875)"/>
      <use xlink:href="#STIXGeneral-Regular-72" transform="translate(155.499969 0.796875)"/>
      <use xlink:href="#STIXGeneral-Regular-67" transform="translate(188.799957 0.796875)"/>
      <use xlink:href="#STIXGeneral-Regular-79" transform="translate(238.799942 0.796875)"/>
      <use xlink:href="#STIXGeneral-Regular-20" transform="translate(288.799927 0.796875)"/>
      <use xlink:href="#STIXGeneral-Italic-45" transform="translate(313.799911 0.796875)"/>
     </g>
    </g>
   </g>
   <g id="matplotlib.axis_2">
    <g id="ytick_1">
     <g id="line2d_13">
      <path d="M 59.05 266.982337 
L 421.37 266.982337 
" clip-path="url(#p5261d4e780)" style="fill: none; stroke: #b0b0b0; stroke-width: 0.8; stroke-linecap: square"/>
     </g>
     <g id="line2d_14">
      <defs>
       <path id="md2b3fb229a" d="M 0 0 
L -3.5 0 
" style="stroke: #000000; stroke-width: 0.8"/>
      </defs>
      <g>
       <use xlink:href="#md2b3fb229a" x="59.05" y="266.982337" style="stroke: #000000; stroke-width: 0.8"/>
      </g>
     </g>
     <g id="text_8">
      <!-- −20000 -->
      <g transform="translate(20.2 270.397181) scale(0.1 -0.1)">
       <defs>
        <path id="STIXGeneral-Regular-2212" d="M 3974 1408 
L 410 1408 
L 410 1830 
L 3974 1830 
L 3974 1408 
z
" transform="scale(0.015625)"/>
       </defs>
       <use xlink:href="#STIXGeneral-Regular-2212"/>
       <use xlink:href="#STIXGeneral-Regular-32" transform="translate(68.499985 0)"/>
       <use xlink:href="#STIXGeneral-Regular-30" transform="translate(118.499969 0)"/>
       <use xlink:href="#STIXGeneral-Regular-30" transform="translate(168.499954 0)"/>
       <use xlink:href="#STIXGeneral-Regular-30" transform="translate(218.499939 0)"/>
       <use xlink:href="#STIXGeneral-Regular-30" transform="translate(268.499924 0)"/>
      </g>
     </g>
    </g>
    <g id="ytick_2">
     <g id="line2d_15">
      <path d="M 59.05 209.366188 
L 421.37 209.366188 
" clip-path="url(#p5261d4e780)" style="fill: none; stroke: #b0b0b0; stroke-width: 0.8; stroke-linecap: square"/>
     </g>
     <g id="line2d_16">
      <g>
       <use xlink:href="#md2b3fb229a" x="59.05" y="209.366188" style="stroke: #000000; stroke-width: 0.8"/>
      </g>
     </g>
     <g id="text_9">
      <!-- 0 -->
      <g transform="translate(47.05 212.781032) scale(0.1 -0.1)">
       <use xlink:href="#STIXGeneral-Regular-30"/>
      </g>
     </g>
    </g>
    <g id="ytick_3">
     <g id="line2d_17">
      <path d="M 59.05 151.750039 
L 421.37 151.750039 
" clip-path="url(#p5261d4e780)" style="fill: none; stroke: #b0b0b0; stroke-width: 0.8; stroke-linecap: square"/>
     </g>
     <g id="line2d_18">
      <g>
       <use xlink:href="#md2b3fb229a" x="59.05" y="151.750039" style="stroke: #000000; stroke-width: 0.8"/>
      </g>
     </g>
     <g id="text_10">
      <!-- 20000 -->
      <g transform="translate(27.05 155.164883) scale(0.1 -0.1)">
       <use xlink:href="#STIXGeneral-Regular-32"/>
       <use xlink:href="#STIXGeneral-Regular-30" transform="translate(49.999985 0)"/>
       <use xlink:href="#STIXGeneral-Regular-30" transform="translate(99.999969 0)"/>
       <use xlink:href="#STIXGeneral-Regular-30" transform="translate(149.999954 0)"/>
       <use xlink:href="#STIXGeneral-Regular-30" transform="translate(199.999939 0)"/>
      </g>
     </g>
    </g>
    <g id="ytick_4">
     <g id="line2d_19">
      <path d="M 59.05 94.133891 
L 421.37 94.133891 
" clip-path="url(#p5261d4e780)" style="fill: none; stroke: #b0b0b0; stroke-width: 0.8; stroke-linecap: square"/>
     </g>
     <g id="line2d_20">
      <g>
       <use xlink:href="#md2b3fb229a" x="59.05" y="94.133891" style="stroke: #000000; stroke-width: 0.8"/>
      </g>
     </g>
     <g id="text_11">
      <!-- 40000 -->
      <g transform="translate(27.05 97.548734) scale(0.1 -0.1)">
       <use xlink:href="#STIXGeneral-Regular-34"/>
       <use xlink:href="#STIXGeneral-Regular-30" transform="translate(49.999985 0)"/>
       <use xlink:href="#STIXGeneral-Regular-30" transform="translate(99.999969 0)"/>
       <use xlink:href="#STIXGeneral-Regular-30" transform="translate(149.999954 0)"/>
       <use xlink:href="#STIXGeneral-Regular-30" transform="translate(199.999939 0)"/>
      </g>
     </g>
    </g>
    <g id="ytick_5">
     <g id="line2d_21">
      <path d="M 59.05 36.517742 
L 421.37 36.517742 
" clip-path="url(#p5261d4e780)" style="fill: none; stroke: #b0b0b0; stroke-width: 0.8; stroke-linecap: square"/>
     </g>
     <g id="line2d_22">
      <g>
       <use xlink:href="#md2b3fb229a" x="59.05" y="36.517742" style="stroke: #000000; stroke-width: 0.8"/>
      </g>
     </g>
     <g id="text_12">
      <!-- 60000 -->
      <g transform="translate(27.05 39.932586) scale(0.1 -0.1)">
       <defs>
        <path id="STIXGeneral-Regular-36" d="M 2854 4378 
L 2867 4275 
Q 2112 4154 1606 3664 
Q 1101 3174 973 2451 
Q 1344 2739 1786 2739 
Q 2349 2739 2672 2380 
Q 2995 2022 2995 1402 
Q 2995 774 2669 378 
Q 2291 -90 1651 -90 
Q 870 -90 518 557 
Q 218 1107 218 1786 
Q 218 2835 915 3552 
Q 1312 3962 1731 4131 
Q 2150 4301 2854 4378 
z
M 2419 1203 
Q 2419 2445 1555 2445 
Q 1235 2445 1024 2275 
Q 813 2106 813 1702 
Q 813 954 1046 522 
Q 1280 90 1722 90 
Q 2061 90 2240 394 
Q 2419 698 2419 1203 
z
" transform="scale(0.015625)"/>
       </defs>
       <use xlink:href="#STIXGeneral-Regular-36"/>
       <use xlink:href="#STIXGeneral-Regular-30" transform="translate(49.999985 0)"/>
       <use xlink:href="#STIXGeneral-Regular-30" transform="translate(99.999969 0)"/>
       <use xlink:href="#STIXGeneral-Regular-30" transform="translate(149.999954 0)"/>
       <use xlink:href="#STIXGeneral-Regular-30" transform="translate(199.999939 0)"/>
      </g>
     </g>
    </g>
    <g id="text_13">
     <!-- $f(E)$ -->
     <g transform="translate(14.029688 173.8925) rotate(-90) scale(0.1 -0.1)">
      <defs>
       <path id="STIXGeneral-Italic-66" d="M 262 2739 
L 858 2739 
Q 1107 3546 1318 3846 
Q 1664 4339 2163 4339 
Q 2400 4339 2557 4227 
Q 2714 4115 2714 3942 
Q 2714 3834 2634 3750 
Q 2554 3667 2445 3667 
Q 2355 3667 2281 3737 
Q 2208 3808 2208 3917 
Q 2208 3981 2240 4038 
Q 2272 4096 2272 4115 
Q 2272 4198 2131 4198 
Q 1862 4198 1676 3849 
Q 1491 3501 1350 2739 
L 2035 2739 
L 1997 2534 
L 1306 2534 
L 845 486 
Q 435 -1325 -435 -1325 
Q -653 -1325 -797 -1213 
Q -941 -1101 -941 -934 
Q -941 -826 -870 -746 
Q -800 -666 -698 -666 
Q -589 -666 -521 -733 
Q -454 -800 -454 -902 
Q -454 -947 -483 -1001 
Q -512 -1056 -512 -1088 
Q -512 -1190 -384 -1190 
Q 13 -1190 237 -154 
L 800 2534 
L 218 2534 
L 262 2739 
z
" transform="scale(0.015625)"/>
       <path id="STIXGeneral-Regular-28" d="M 1946 -1030 
L 1869 -1133 
Q 1126 -710 716 32 
Q 307 774 307 1613 
Q 307 3386 1888 4326 
L 1946 4224 
Q 1293 3667 1075 3126 
Q 858 2586 858 1632 
Q 858 685 1082 96 
Q 1306 -493 1946 -1030 
z
" transform="scale(0.015625)"/>
       <path id="STIXGeneral-Regular-29" d="M 186 4224 
L 262 4326 
Q 992 3891 1408 3148 
Q 1824 2406 1824 1581 
Q 1824 -166 243 -1133 
L 186 -1030 
Q 845 -486 1059 54 
Q 1274 595 1274 1562 
Q 1274 2534 1059 3120 
Q 845 3706 186 4224 
z
" transform="scale(0.015625)"/>
      </defs>
      <use xlink:href="#STIXGeneral-Italic-66" transform="translate(0 0.203125)"/>
      <use xlink:href="#STIXGeneral-Regular-28" transform="translate(27.799988 0.203125)"/>
      <use xlink:href="#STIXGeneral-Italic-45" transform="translate(61.099976 0.203125)"/>
      <use xlink:href="#STIXGeneral-Regular-29" transform="translate(122.199966 0.203125)"/>
     </g>
    </g>
   </g>
   <g id="line2d_23">
    <path d="M 75.519091 209.366188 
L 75.647551 166.729793 
L 75.98023 130.748154 
L 76.471014 100.886831 
L 77.060613 77.948816 
L 77.696326 61.372995 
L 78.341921 49.966098 
L 78.964459 42.606882 
L 79.540883 38.207715 
L 80.048136 35.874754 
L 80.466455 34.858462 
L 80.789253 34.562877 
L 81.046173 34.601439 
L 81.32615 34.896626 
L 81.691768 35.645613 
L 82.17267 37.192919 
L 82.791914 40.004066 
L 83.579145 44.693704 
L 84.580475 52.102299 
L 85.871665 63.438677 
L 87.617406 80.889699 
L 90.483057 112.103489 
L 95.285491 164.206473 
L 97.897515 190.023453 
L 100.17686 210.413957 
L 102.265162 227.156026 
L 104.218416 241.071535 
L 106.059678 252.637915 
L 107.80542 262.234279 
L 109.465521 270.156787 
L 111.043275 276.638459 
L 112.545271 281.899995 
L 113.971509 286.113552 
L 115.321988 289.435211 
L 116.600002 292.010749 
L 117.808845 293.965238 
L 118.948518 295.401688 
L 120.028901 296.41866 
L 121.059876 297.092789 
L 122.05462 297.483443 
L 123.036187 297.632252 
L 124.027636 297.557089 
L 125.058612 297.252604 
L 126.155464 296.691299 
L 127.344544 295.825696 
L 128.652203 294.58945 
L 130.104792 292.899011 
L 131.731954 290.651662 
L 133.576511 287.710293 
L 135.697751 283.892308 
L 138.201078 278.908219 
L 141.307179 272.200997 
L 145.799992 261.913839 
L 154.835026 241.157927 
L 158.774472 232.73123 
L 162.196783 225.922408 
L 165.329236 220.174079 
L 168.267351 215.237299 
L 171.06383 210.964864 
L 173.751613 207.257244 
L 176.353755 204.040205 
L 178.890021 201.252763 
L 181.373584 198.848676 
L 183.82421 196.782198 
L 186.251778 195.022927 
L 188.672758 193.540597 
L 191.103621 192.311319 
L 193.560834 191.316925 
L 196.06416 190.543405 
L 198.636658 189.981598 
L 201.304677 189.627601 
L 204.097863 189.482839 
L 207.059035 189.55435 
L 210.237602 189.856496 
L 213.709321 190.413695 
L 217.592771 191.26752 
L 222.092172 192.491781 
L 227.691719 194.25769 
L 236.677345 197.360238 
L 248.031249 201.225184 
L 255.047152 203.371769 
L 261.368053 205.075227 
L 267.435326 206.481004 
L 273.456486 207.647977 
L 279.579756 208.60743 
L 285.933594 209.376306 
L 292.666226 209.964609 
L 299.981869 210.377047 
L 308.196734 210.612225 
L 317.920183 210.660064 
L 330.782671 210.485631 
L 389.284761 209.425964 
L 404.900909 209.366283 
L 404.900909 209.366283 
" clip-path="url(#p5261d4e780)" style="fill: none; stroke: #000000; stroke-width: 1.5; stroke-linecap: square"/>
   </g>
   <g id="patch_3">
    <path d="M 59.05 310.789375 
L 59.05 21.395625 
" style="fill: none; stroke: #000000; stroke-width: 0.8; stroke-linejoin: miter; stroke-linecap: square"/>
   </g>
   <g id="patch_4">
    <path d="M 421.37 310.789375 
L 421.37 21.395625 
" style="fill: none; stroke: #000000; stroke-width: 0.8; stroke-linejoin: miter; stroke-linecap: square"/>
   </g>
   <g id="patch_5">
    <path d="M 59.05 310.789375 
L 421.37 310.789375 
" style="fill: none; stroke: #000000; stroke-width: 0.8; stroke-linejoin: miter; stroke-linecap: square"/>
   </g>
   <g id="patch_6">
    <path d="M 59.05 21.395625 
L 421.37 21.395625 
" style="fill: none; stroke: #000000; stroke-width: 0.8; stroke-linejoin: miter; stroke-linecap: square"/>
   </g>
   <g id="text_14">
    <!-- Transcendental Function $f(E &lt; V_0)$ -->
    <g transform="translate(158.01 15.395625) scale(0.12 -0.12)">
     <defs>
      <path id="STIXGeneral-Regular-54" d="M 3795 3149 
L 3642 3149 
Q 3539 3674 3353 3821 
Q 3168 3968 2656 3968 
L 2278 3968 
L 2278 710 
Q 2278 346 2387 243 
Q 2496 141 2893 122 
L 2893 0 
L 1024 0 
L 1024 122 
Q 1427 147 1526 256 
Q 1626 365 1626 787 
L 1626 3968 
L 1242 3968 
Q 723 3968 540 3817 
Q 358 3667 262 3149 
L 109 3149 
L 154 4237 
L 3750 4237 
L 3795 3149 
z
" transform="scale(0.015625)"/>
      <path id="STIXGeneral-Regular-61" d="M 2829 422 
L 2829 243 
Q 2586 -64 2253 -64 
Q 1888 -64 1843 403 
L 1837 403 
Q 1427 -64 909 -64 
Q 608 -64 422 112 
Q 237 288 237 602 
Q 237 1050 685 1350 
Q 992 1555 1837 1869 
L 1837 2214 
Q 1837 2502 1699 2646 
Q 1562 2790 1338 2790 
Q 1146 2790 1018 2697 
Q 890 2605 890 2477 
Q 890 2419 909 2348 
Q 928 2278 928 2208 
Q 928 2112 841 2029 
Q 755 1946 634 1946 
Q 525 1946 441 2029 
Q 358 2112 358 2240 
Q 358 2547 685 2752 
Q 986 2944 1421 2944 
Q 1939 2944 2176 2656 
Q 2291 2522 2323 2384 
Q 2355 2246 2355 1946 
L 2355 723 
Q 2355 301 2554 301 
Q 2682 301 2829 422 
z
M 1837 813 
L 1837 1715 
Q 1248 1510 1018 1293 
Q 800 1094 800 800 
Q 800 557 921 432 
Q 1043 307 1242 307 
Q 1453 307 1613 410 
Q 1747 506 1792 589 
Q 1837 672 1837 813 
z
" transform="scale(0.015625)"/>
      <path id="STIXGeneral-Regular-73" d="M 998 1926 
L 1664 1523 
Q 1984 1331 2105 1164 
Q 2227 998 2227 736 
Q 2227 416 1961 176 
Q 1696 -64 1331 -64 
Q 1030 -64 864 -6 
Q 691 51 570 51 
Q 461 51 416 -26 
L 333 -26 
L 333 979 
L 435 979 
Q 538 512 730 294 
Q 922 77 1248 77 
Q 1485 77 1632 211 
Q 1779 346 1779 550 
Q 1779 845 1440 1030 
L 1094 1222 
Q 326 1651 326 2150 
Q 326 2522 566 2730 
Q 806 2938 1210 2938 
Q 1491 2938 1638 2867 
Q 1754 2816 1818 2816 
Q 1862 2816 1920 2880 
L 1990 2880 
L 2022 2010 
L 1926 2010 
Q 1818 2445 1654 2621 
Q 1491 2797 1203 2797 
Q 986 2797 854 2688 
Q 723 2579 723 2362 
Q 723 2253 796 2128 
Q 870 2003 998 1926 
z
" transform="scale(0.015625)"/>
      <path id="STIXGeneral-Regular-63" d="M 2547 998 
L 2637 941 
Q 2362 403 2112 205 
Q 1786 -64 1376 -64 
Q 845 -64 502 336 
Q 160 736 160 1357 
Q 160 2170 698 2618 
Q 1094 2944 1562 2944 
Q 1965 2944 2256 2749 
Q 2547 2554 2547 2285 
Q 2547 2176 2457 2096 
Q 2368 2016 2246 2016 
Q 2022 2016 1939 2310 
L 1901 2451 
Q 1850 2630 1773 2694 
Q 1696 2758 1523 2758 
Q 1133 2758 893 2451 
Q 653 2144 653 1645 
Q 653 1094 928 745 
Q 1203 397 1645 397 
Q 1920 397 2118 528 
Q 2317 659 2547 998 
z
" transform="scale(0.015625)"/>
      <path id="STIXGeneral-Regular-64" d="M 3142 269 
L 2202 -64 
L 2176 -45 
L 2176 365 
Q 1869 -64 1357 -64 
Q 826 -64 499 317 
Q 173 698 173 1312 
Q 173 1990 563 2467 
Q 954 2944 1504 2944 
Q 1850 2944 2176 2669 
L 2176 3667 
Q 2176 3866 2118 3930 
Q 2061 3994 1882 3994 
Q 1792 3994 1741 3987 
L 1741 4090 
Q 2323 4243 2682 4371 
L 2714 4358 
L 2714 730 
Q 2714 506 2768 435 
Q 2822 365 2995 365 
Q 3034 365 3142 371 
L 3142 269 
z
M 2176 653 
L 2176 2125 
Q 2176 2381 1981 2573 
Q 1786 2765 1523 2765 
Q 1158 2765 940 2438 
Q 723 2112 723 1568 
Q 723 979 963 624 
Q 1203 269 1606 269 
Q 1907 269 2080 474 
Q 2176 582 2176 653 
z
" transform="scale(0.015625)"/>
      <path id="STIXGeneral-Regular-74" d="M 1702 493 
L 1786 422 
Q 1478 -64 1011 -64 
Q 448 -64 448 749 
L 448 2675 
L 109 2675 
Q 83 2694 83 2720 
Q 83 2771 192 2842 
Q 435 2982 813 3526 
Q 826 3546 874 3606 
Q 922 3667 941 3706 
Q 986 3706 986 3622 
L 986 2880 
L 1632 2880 
L 1632 2675 
L 986 2675 
L 986 845 
Q 986 538 1062 403 
Q 1139 269 1318 269 
Q 1510 269 1702 493 
z
" transform="scale(0.015625)"/>
      <path id="STIXGeneral-Regular-6c" d="M 1645 0 
L 134 0 
L 134 96 
Q 435 122 531 221 
Q 627 320 627 589 
L 627 3590 
Q 627 3821 569 3910 
Q 512 4000 358 4000 
Q 224 4000 122 3987 
L 122 4090 
Q 730 4237 1133 4371 
L 1165 4346 
L 1165 557 
Q 1165 288 1254 201 
Q 1344 115 1645 96 
L 1645 0 
z
" transform="scale(0.015625)"/>
      <path id="STIXGeneral-Regular-46" d="M 3494 3322 
L 3334 3322 
Q 3264 3757 3094 3875 
Q 2925 3994 2349 3994 
L 1504 3994 
Q 1370 3994 1328 3946 
Q 1286 3898 1286 3744 
L 1286 2355 
L 2195 2355 
Q 2598 2355 2736 2470 
Q 2874 2586 2918 2963 
L 3066 2963 
L 3066 1472 
L 2918 1472 
Q 2880 1862 2745 1977 
Q 2611 2093 2195 2093 
L 1286 2093 
L 1286 717 
Q 1286 352 1392 246 
Q 1498 141 1869 122 
L 1869 0 
L 70 0 
L 70 122 
Q 435 147 534 259 
Q 634 371 634 787 
L 634 3526 
Q 634 3878 538 3984 
Q 442 4090 77 4115 
L 77 4237 
L 3462 4237 
L 3494 3322 
z
" transform="scale(0.015625)"/>
      <path id="STIXGeneral-Regular-75" d="M 3072 320 
L 3072 230 
Q 2573 96 2195 -58 
L 2163 -38 
L 2163 486 
L 2150 486 
Q 1747 -64 1235 -64 
Q 870 -64 662 160 
Q 454 384 454 755 
L 454 2362 
Q 454 2598 371 2688 
Q 288 2778 58 2790 
L 58 2880 
L 992 2880 
L 992 813 
Q 992 595 1123 451 
Q 1254 307 1446 307 
Q 1760 307 1984 506 
Q 2067 582 2099 649 
Q 2131 717 2131 877 
L 2131 2355 
Q 2131 2605 2041 2678 
Q 1952 2752 1658 2771 
L 1658 2880 
L 2669 2880 
L 2669 685 
Q 2669 461 2742 390 
Q 2816 320 3034 320 
L 3072 320 
z
" transform="scale(0.015625)"/>
      <path id="STIXGeneral-Regular-69" d="M 1152 4045 
Q 1152 3904 1056 3811 
Q 960 3718 819 3718 
Q 685 3718 592 3811 
Q 499 3904 499 4045 
Q 499 4179 595 4275 
Q 691 4371 826 4371 
Q 966 4371 1059 4275 
Q 1152 4179 1152 4045 
z
M 1619 0 
L 102 0 
L 102 96 
Q 435 115 521 211 
Q 608 307 608 666 
L 608 2118 
Q 608 2342 563 2432 
Q 518 2522 397 2522 
Q 243 2522 128 2490 
L 128 2592 
L 1120 2944 
L 1146 2918 
L 1146 672 
Q 1146 314 1226 218 
Q 1306 122 1619 96 
L 1619 0 
z
" transform="scale(0.015625)"/>
      <path id="STIXGeneral-Regular-6f" d="M 3008 1478 
Q 3008 806 2608 371 
Q 2208 -64 1568 -64 
Q 979 -64 582 368 
Q 186 800 186 1459 
Q 186 2125 582 2534 
Q 979 2944 1626 2944 
Q 2221 2944 2614 2537 
Q 3008 2131 3008 1478 
z
M 2432 1306 
Q 2432 2035 2112 2445 
Q 1856 2765 1504 2765 
Q 1171 2765 966 2493 
Q 762 2221 762 1747 
Q 762 928 1101 435 
Q 1318 115 1677 115 
Q 2029 115 2230 432 
Q 2432 749 2432 1306 
z
" transform="scale(0.015625)"/>
      <path id="STIXGeneral-Regular-3c" d="M 3974 -154 
L 358 1594 
L 358 1658 
L 3974 3418 
L 3974 3002 
L 1210 1626 
L 3974 250 
L 3974 -154 
z
" transform="scale(0.015625)"/>
      <path id="STIXGeneral-Italic-56" d="M 4403 4179 
L 4403 4077 
Q 4198 4070 4045 3821 
L 1658 -115 
L 1536 -115 
L 1011 3104 
Q 902 3776 828 3910 
Q 755 4045 486 4077 
L 486 4179 
L 2022 4179 
L 2022 4077 
Q 1722 4045 1629 3981 
Q 1536 3917 1536 3750 
Q 1536 3686 1542 3654 
L 1958 819 
L 3302 3123 
Q 3616 3661 3616 3859 
Q 3616 4032 3219 4077 
L 3219 4179 
L 4403 4179 
z
" transform="scale(0.015625)"/>
     </defs>
     <use xlink:href="#STIXGeneral-Regular-54" transform="translate(0 0.703125)"/>
     <use xlink:href="#STIXGeneral-Regular-72" transform="translate(61.099991 0.703125)"/>
     <use xlink:href="#STIXGeneral-Regular-61" transform="translate(94.399979 0.703125)"/>
     <use xlink:href="#STIXGeneral-Regular-6e" transform="translate(138.799973 0.703125)"/>
     <use xlink:href="#STIXGeneral-Regular-73" transform="translate(188.799957 0.703125)"/>
     <use xlink:href="#STIXGeneral-Regular-63" transform="translate(227.699951 0.703125)"/>
     <use xlink:href="#STIXGeneral-Regular-65" transform="translate(272.099945 0.703125)"/>
     <use xlink:href="#STIXGeneral-Regular-6e" transform="translate(316.499939 0.703125)"/>
     <use xlink:href="#STIXGeneral-Regular-64" transform="translate(366.499924 0.703125)"/>
     <use xlink:href="#STIXGeneral-Regular-65" transform="translate(416.499908 0.703125)"/>
     <use xlink:href="#STIXGeneral-Regular-6e" transform="translate(460.899902 0.703125)"/>
     <use xlink:href="#STIXGeneral-Regular-74" transform="translate(510.899887 0.703125)"/>
     <use xlink:href="#STIXGeneral-Regular-61" transform="translate(538.699875 0.703125)"/>
     <use xlink:href="#STIXGeneral-Regular-6c" transform="translate(583.099869 0.703125)"/>
     <use xlink:href="#STIXGeneral-Regular-20" transform="translate(610.899857 0.703125)"/>
     <use xlink:href="#STIXGeneral-Regular-46" transform="translate(635.899841 0.703125)"/>
     <use xlink:href="#STIXGeneral-Regular-75" transform="translate(691.499832 0.703125)"/>
     <use xlink:href="#STIXGeneral-Regular-6e" transform="translate(741.499817 0.703125)"/>
     <use xlink:href="#STIXGeneral-Regular-63" transform="translate(791.499802 0.703125)"/>
     <use xlink:href="#STIXGeneral-Regular-74" transform="translate(835.899796 0.703125)"/>
     <use xlink:href="#STIXGeneral-Regular-69" transform="translate(863.699783 0.703125)"/>
     <use xlink:href="#STIXGeneral-Regular-6f" transform="translate(891.499771 0.703125)"/>
     <use xlink:href="#STIXGeneral-Regular-6e" transform="translate(941.499756 0.703125)"/>
     <use xlink:href="#STIXGeneral-Regular-20" transform="translate(991.499741 0.703125)"/>
     <use xlink:href="#STIXGeneral-Italic-66" transform="translate(1016.499725 0.703125)"/>
     <use xlink:href="#STIXGeneral-Regular-28" transform="translate(1044.299713 0.703125)"/>
     <use xlink:href="#STIXGeneral-Italic-45" transform="translate(1077.599701 0.703125)"/>
     <use xlink:href="#STIXGeneral-Regular-3c" transform="translate(1153.139688 0.703125)"/>
     <use xlink:href="#STIXGeneral-Italic-56" transform="translate(1236.079669 0.703125)"/>
     <use xlink:href="#STIXGeneral-Regular-30" transform="translate(1297.17966 -12.525) scale(0.7)"/>
     <use xlink:href="#STIXGeneral-Regular-29" transform="translate(1336.589024 0.703125)"/>
    </g>
   </g>
   <g id="legend_1">
    <g id="patch_7">
     <path d="M 346.97 43.565938 
L 414.37 43.565938 
Q 416.37 43.565938 416.37 41.565938 
L 416.37 28.395625 
Q 416.37 26.395625 414.37 26.395625 
L 346.97 26.395625 
Q 344.97 26.395625 344.97 28.395625 
L 344.97 41.565938 
Q 344.97 43.565938 346.97 43.565938 
z
" style="fill: #ffffff; opacity: 0.8; stroke: #cccccc; stroke-linejoin: miter"/>
    </g>
    <g id="line2d_24">
     <path d="M 348.97 33.895625 
L 358.97 33.895625 
L 368.97 33.895625 
" style="fill: none; stroke: #000000; stroke-width: 1.5; stroke-linecap: square"/>
    </g>
    <g id="text_15">
     <!-- $f(E &lt; V_0)$ -->
     <g transform="translate(376.97 37.395625) scale(0.1 -0.1)">
      <use xlink:href="#STIXGeneral-Italic-66" transform="translate(0 0.203125)"/>
      <use xlink:href="#STIXGeneral-Regular-28" transform="translate(27.799988 0.203125)"/>
      <use xlink:href="#STIXGeneral-Italic-45" transform="translate(61.099976 0.203125)"/>
      <use xlink:href="#STIXGeneral-Regular-3c" transform="translate(136.639963 0.203125)"/>
      <use xlink:href="#STIXGeneral-Italic-56" transform="translate(219.579944 0.203125)"/>
      <use xlink:href="#STIXGeneral-Regular-30" transform="translate(280.679935 -13.025) scale(0.7)"/>
      <use xlink:href="#STIXGeneral-Regular-29" transform="translate(320.089299 0.203125)"/>
     </g>
    </g>
   </g>
  </g>
  <g id="axes_2">
   <g id="patch_8">
    <path d="M 483.13 310.789375 
L 845.45 310.789375 
L 845.45 21.395625 
L 483.13 21.395625 
z
" style="fill: #ffffff"/>
   </g>
   <g id="matplotlib.axis_3">
    <g id="xtick_7">
     <g id="line2d_25">
      <path d="M 497.948871 310.789375 
L 497.948871 21.395625 
" clip-path="url(#p18c65ba34a)" style="fill: none; stroke: #b0b0b0; stroke-width: 0.8; stroke-linecap: square"/>
     </g>
     <g id="line2d_26">
      <g>
       <use xlink:href="#m2a9775e887" x="497.948871" y="310.789375" style="stroke: #000000; stroke-width: 0.8"/>
      </g>
     </g>
     <g id="text_16">
      <!-- 0 -->
      <g transform="translate(495.448871 324.619062) scale(0.1 -0.1)">
       <use xlink:href="#STIXGeneral-Regular-30"/>
      </g>
     </g>
    </g>
    <g id="xtick_8">
     <g id="line2d_27">
      <path d="M 563.825894 310.789375 
L 563.825894 21.395625 
" clip-path="url(#p18c65ba34a)" style="fill: none; stroke: #b0b0b0; stroke-width: 0.8; stroke-linecap: square"/>
     </g>
     <g id="line2d_28">
      <g>
       <use xlink:href="#m2a9775e887" x="563.825894" y="310.789375" style="stroke: #000000; stroke-width: 0.8"/>
      </g>
     </g>
     <g id="text_17">
      <!-- 200 -->
      <g transform="translate(556.325894 324.619062) scale(0.1 -0.1)">
       <use xlink:href="#STIXGeneral-Regular-32"/>
       <use xlink:href="#STIXGeneral-Regular-30" transform="translate(49.999985 0)"/>
       <use xlink:href="#STIXGeneral-Regular-30" transform="translate(99.999969 0)"/>
      </g>
     </g>
    </g>
    <g id="xtick_9">
     <g id="line2d_29">
      <path d="M 629.702916 310.789375 
L 629.702916 21.395625 
" clip-path="url(#p18c65ba34a)" style="fill: none; stroke: #b0b0b0; stroke-width: 0.8; stroke-linecap: square"/>
     </g>
     <g id="line2d_30">
      <g>
       <use xlink:href="#m2a9775e887" x="629.702916" y="310.789375" style="stroke: #000000; stroke-width: 0.8"/>
      </g>
     </g>
     <g id="text_18">
      <!-- 400 -->
      <g transform="translate(622.202916 324.619062) scale(0.1 -0.1)">
       <use xlink:href="#STIXGeneral-Regular-34"/>
       <use xlink:href="#STIXGeneral-Regular-30" transform="translate(49.999985 0)"/>
       <use xlink:href="#STIXGeneral-Regular-30" transform="translate(99.999969 0)"/>
      </g>
     </g>
    </g>
    <g id="xtick_10">
     <g id="line2d_31">
      <path d="M 695.579939 310.789375 
L 695.579939 21.395625 
" clip-path="url(#p18c65ba34a)" style="fill: none; stroke: #b0b0b0; stroke-width: 0.8; stroke-linecap: square"/>
     </g>
     <g id="line2d_32">
      <g>
       <use xlink:href="#m2a9775e887" x="695.579939" y="310.789375" style="stroke: #000000; stroke-width: 0.8"/>
      </g>
     </g>
     <g id="text_19">
      <!-- 600 -->
      <g transform="translate(688.079939 324.619062) scale(0.1 -0.1)">
       <use xlink:href="#STIXGeneral-Regular-36"/>
       <use xlink:href="#STIXGeneral-Regular-30" transform="translate(49.999985 0)"/>
       <use xlink:href="#STIXGeneral-Regular-30" transform="translate(99.999969 0)"/>
      </g>
     </g>
    </g>
    <g id="xtick_11">
     <g id="line2d_33">
      <path d="M 761.456961 310.789375 
L 761.456961 21.395625 
" clip-path="url(#p18c65ba34a)" style="fill: none; stroke: #b0b0b0; stroke-width: 0.8; stroke-linecap: square"/>
     </g>
     <g id="line2d_34">
      <g>
       <use xlink:href="#m2a9775e887" x="761.456961" y="310.789375" style="stroke: #000000; stroke-width: 0.8"/>
      </g>
     </g>
     <g id="text_20">
      <!-- 800 -->
      <g transform="translate(753.956961 324.619062) scale(0.1 -0.1)">
       <defs>
        <path id="STIXGeneral-Regular-38" d="M 2848 992 
Q 2848 499 2505 204 
Q 2163 -90 1587 -90 
Q 1050 -90 704 204 
Q 358 499 358 954 
Q 358 1293 524 1533 
Q 691 1773 1190 2125 
Q 710 2522 553 2765 
Q 397 3008 397 3328 
Q 397 3782 745 4054 
Q 1094 4326 1638 4326 
Q 2106 4326 2410 4060 
Q 2714 3795 2714 3411 
Q 2714 3059 2531 2848 
Q 2349 2637 1856 2374 
Q 2432 1990 2640 1689 
Q 2848 1389 2848 992 
z
M 2272 3411 
Q 2272 3744 2086 3945 
Q 1901 4147 1574 4147 
Q 1248 4147 1059 3977 
Q 870 3808 870 3513 
Q 870 3219 1059 2979 
Q 1248 2739 1670 2490 
Q 1997 2682 2134 2896 
Q 2272 3110 2272 3411 
z
M 1734 1741 
L 1357 1997 
Q 1075 1766 960 1545 
Q 845 1325 845 1011 
Q 845 576 1065 333 
Q 1286 90 1658 90 
Q 1971 90 2166 285 
Q 2362 480 2362 794 
Q 2362 1082 2214 1299 
Q 2067 1517 1734 1741 
z
" transform="scale(0.015625)"/>
       </defs>
       <use xlink:href="#STIXGeneral-Regular-38"/>
       <use xlink:href="#STIXGeneral-Regular-30" transform="translate(49.999985 0)"/>
       <use xlink:href="#STIXGeneral-Regular-30" transform="translate(99.999969 0)"/>
      </g>
     </g>
    </g>
    <g id="xtick_12">
     <g id="line2d_35">
      <path d="M 827.333984 310.789375 
L 827.333984 21.395625 
" clip-path="url(#p18c65ba34a)" style="fill: none; stroke: #b0b0b0; stroke-width: 0.8; stroke-linecap: square"/>
     </g>
     <g id="line2d_36">
      <g>
       <use xlink:href="#m2a9775e887" x="827.333984" y="310.789375" style="stroke: #000000; stroke-width: 0.8"/>
      </g>
     </g>
     <g id="text_21">
      <!-- 1000 -->
      <g transform="translate(817.333984 324.619062) scale(0.1 -0.1)">
       <use xlink:href="#STIXGeneral-Regular-31"/>
       <use xlink:href="#STIXGeneral-Regular-30" transform="translate(49.999985 0)"/>
       <use xlink:href="#STIXGeneral-Regular-30" transform="translate(99.999969 0)"/>
       <use xlink:href="#STIXGeneral-Regular-30" transform="translate(149.999954 0)"/>
      </g>
     </g>
    </g>
    <g id="text_22">
     <!-- Energy $E$ -->
     <g transform="translate(645.54 337.589375) scale(0.1 -0.1)">
      <use xlink:href="#STIXGeneral-Regular-45" transform="translate(0 0.796875)"/>
      <use xlink:href="#STIXGeneral-Regular-6e" transform="translate(61.099991 0.796875)"/>
      <use xlink:href="#STIXGeneral-Regular-65" transform="translate(111.099976 0.796875)"/>
      <use xlink:href="#STIXGeneral-Regular-72" transform="translate(155.499969 0.796875)"/>
      <use xlink:href="#STIXGeneral-Regular-67" transform="translate(188.799957 0.796875)"/>
      <use xlink:href="#STIXGeneral-Regular-79" transform="translate(238.799942 0.796875)"/>
      <use xlink:href="#STIXGeneral-Regular-20" transform="translate(288.799927 0.796875)"/>
      <use xlink:href="#STIXGeneral-Italic-45" transform="translate(313.799911 0.796875)"/>
     </g>
    </g>
   </g>
   <g id="matplotlib.axis_4">
    <g id="ytick_6">
     <g id="line2d_37">
      <path d="M 483.13 300.72358 
L 845.45 300.72358 
" clip-path="url(#p18c65ba34a)" style="fill: none; stroke: #b0b0b0; stroke-width: 0.8; stroke-linecap: square"/>
     </g>
     <g id="line2d_38">
      <g>
       <use xlink:href="#md2b3fb229a" x="483.13" y="300.72358" style="stroke: #000000; stroke-width: 0.8"/>
      </g>
     </g>
     <g id="text_23">
      <!-- −4000 -->
      <g transform="translate(449.28 304.138424) scale(0.1 -0.1)">
       <use xlink:href="#STIXGeneral-Regular-2212"/>
       <use xlink:href="#STIXGeneral-Regular-34" transform="translate(68.499985 0)"/>
       <use xlink:href="#STIXGeneral-Regular-30" transform="translate(118.499969 0)"/>
       <use xlink:href="#STIXGeneral-Regular-30" transform="translate(168.499954 0)"/>
       <use xlink:href="#STIXGeneral-Regular-30" transform="translate(218.499939 0)"/>
      </g>
     </g>
    </g>
    <g id="ytick_7">
     <g id="line2d_39">
      <path d="M 483.13 267.510683 
L 845.45 267.510683 
" clip-path="url(#p18c65ba34a)" style="fill: none; stroke: #b0b0b0; stroke-width: 0.8; stroke-linecap: square"/>
     </g>
     <g id="line2d_40">
      <g>
       <use xlink:href="#md2b3fb229a" x="483.13" y="267.510683" style="stroke: #000000; stroke-width: 0.8"/>
      </g>
     </g>
     <g id="text_24">
      <!-- −3000 -->
      <g transform="translate(449.28 270.925526) scale(0.1 -0.1)">
       <use xlink:href="#STIXGeneral-Regular-2212"/>
       <use xlink:href="#STIXGeneral-Regular-33" transform="translate(68.499985 0)"/>
       <use xlink:href="#STIXGeneral-Regular-30" transform="translate(118.499969 0)"/>
       <use xlink:href="#STIXGeneral-Regular-30" transform="translate(168.499954 0)"/>
       <use xlink:href="#STIXGeneral-Regular-30" transform="translate(218.499939 0)"/>
      </g>
     </g>
    </g>
    <g id="ytick_8">
     <g id="line2d_41">
      <path d="M 483.13 234.297785 
L 845.45 234.297785 
" clip-path="url(#p18c65ba34a)" style="fill: none; stroke: #b0b0b0; stroke-width: 0.8; stroke-linecap: square"/>
     </g>
     <g id="line2d_42">
      <g>
       <use xlink:href="#md2b3fb229a" x="483.13" y="234.297785" style="stroke: #000000; stroke-width: 0.8"/>
      </g>
     </g>
     <g id="text_25">
      <!-- −2000 -->
      <g transform="translate(449.28 237.712629) scale(0.1 -0.1)">
       <use xlink:href="#STIXGeneral-Regular-2212"/>
       <use xlink:href="#STIXGeneral-Regular-32" transform="translate(68.499985 0)"/>
       <use xlink:href="#STIXGeneral-Regular-30" transform="translate(118.499969 0)"/>
       <use xlink:href="#STIXGeneral-Regular-30" transform="translate(168.499954 0)"/>
       <use xlink:href="#STIXGeneral-Regular-30" transform="translate(218.499939 0)"/>
      </g>
     </g>
    </g>
    <g id="ytick_9">
     <g id="line2d_43">
      <path d="M 483.13 201.084887 
L 845.45 201.084887 
" clip-path="url(#p18c65ba34a)" style="fill: none; stroke: #b0b0b0; stroke-width: 0.8; stroke-linecap: square"/>
     </g>
     <g id="line2d_44">
      <g>
       <use xlink:href="#md2b3fb229a" x="483.13" y="201.084887" style="stroke: #000000; stroke-width: 0.8"/>
      </g>
     </g>
     <g id="text_26">
      <!-- −1000 -->
      <g transform="translate(449.28 204.499731) scale(0.1 -0.1)">
       <use xlink:href="#STIXGeneral-Regular-2212"/>
       <use xlink:href="#STIXGeneral-Regular-31" transform="translate(68.499985 0)"/>
       <use xlink:href="#STIXGeneral-Regular-30" transform="translate(118.499969 0)"/>
       <use xlink:href="#STIXGeneral-Regular-30" transform="translate(168.499954 0)"/>
       <use xlink:href="#STIXGeneral-Regular-30" transform="translate(218.499939 0)"/>
      </g>
     </g>
    </g>
    <g id="ytick_10">
     <g id="line2d_45">
      <path d="M 483.13 167.87199 
L 845.45 167.87199 
" clip-path="url(#p18c65ba34a)" style="fill: none; stroke: #b0b0b0; stroke-width: 0.8; stroke-linecap: square"/>
     </g>
     <g id="line2d_46">
      <g>
       <use xlink:href="#md2b3fb229a" x="483.13" y="167.87199" style="stroke: #000000; stroke-width: 0.8"/>
      </g>
     </g>
     <g id="text_27">
      <!-- 0 -->
      <g transform="translate(471.13 171.286833) scale(0.1 -0.1)">
       <use xlink:href="#STIXGeneral-Regular-30"/>
      </g>
     </g>
    </g>
    <g id="ytick_11">
     <g id="line2d_47">
      <path d="M 483.13 134.659092 
L 845.45 134.659092 
" clip-path="url(#p18c65ba34a)" style="fill: none; stroke: #b0b0b0; stroke-width: 0.8; stroke-linecap: square"/>
     </g>
     <g id="line2d_48">
      <g>
       <use xlink:href="#md2b3fb229a" x="483.13" y="134.659092" style="stroke: #000000; stroke-width: 0.8"/>
      </g>
     </g>
     <g id="text_28">
      <!-- 1000 -->
      <g transform="translate(456.13 138.073936) scale(0.1 -0.1)">
       <use xlink:href="#STIXGeneral-Regular-31"/>
       <use xlink:href="#STIXGeneral-Regular-30" transform="translate(49.999985 0)"/>
       <use xlink:href="#STIXGeneral-Regular-30" transform="translate(99.999969 0)"/>
       <use xlink:href="#STIXGeneral-Regular-30" transform="translate(149.999954 0)"/>
      </g>
     </g>
    </g>
    <g id="ytick_12">
     <g id="line2d_49">
      <path d="M 483.13 101.446194 
L 845.45 101.446194 
" clip-path="url(#p18c65ba34a)" style="fill: none; stroke: #b0b0b0; stroke-width: 0.8; stroke-linecap: square"/>
     </g>
     <g id="line2d_50">
      <g>
       <use xlink:href="#md2b3fb229a" x="483.13" y="101.446194" style="stroke: #000000; stroke-width: 0.8"/>
      </g>
     </g>
     <g id="text_29">
      <!-- 2000 -->
      <g transform="translate(456.13 104.861038) scale(0.1 -0.1)">
       <use xlink:href="#STIXGeneral-Regular-32"/>
       <use xlink:href="#STIXGeneral-Regular-30" transform="translate(49.999985 0)"/>
       <use xlink:href="#STIXGeneral-Regular-30" transform="translate(99.999969 0)"/>
       <use xlink:href="#STIXGeneral-Regular-30" transform="translate(149.999954 0)"/>
      </g>
     </g>
    </g>
    <g id="ytick_13">
     <g id="line2d_51">
      <path d="M 483.13 68.233297 
L 845.45 68.233297 
" clip-path="url(#p18c65ba34a)" style="fill: none; stroke: #b0b0b0; stroke-width: 0.8; stroke-linecap: square"/>
     </g>
     <g id="line2d_52">
      <g>
       <use xlink:href="#md2b3fb229a" x="483.13" y="68.233297" style="stroke: #000000; stroke-width: 0.8"/>
      </g>
     </g>
     <g id="text_30">
      <!-- 3000 -->
      <g transform="translate(456.13 71.648141) scale(0.1 -0.1)">
       <use xlink:href="#STIXGeneral-Regular-33"/>
       <use xlink:href="#STIXGeneral-Regular-30" transform="translate(49.999985 0)"/>
       <use xlink:href="#STIXGeneral-Regular-30" transform="translate(99.999969 0)"/>
       <use xlink:href="#STIXGeneral-Regular-30" transform="translate(149.999954 0)"/>
      </g>
     </g>
    </g>
    <g id="ytick_14">
     <g id="line2d_53">
      <path d="M 483.13 35.020399 
L 845.45 35.020399 
" clip-path="url(#p18c65ba34a)" style="fill: none; stroke: #b0b0b0; stroke-width: 0.8; stroke-linecap: square"/>
     </g>
     <g id="line2d_54">
      <g>
       <use xlink:href="#md2b3fb229a" x="483.13" y="35.020399" style="stroke: #000000; stroke-width: 0.8"/>
      </g>
     </g>
     <g id="text_31">
      <!-- 4000 -->
      <g transform="translate(456.13 38.435243) scale(0.1 -0.1)">
       <use xlink:href="#STIXGeneral-Regular-34"/>
       <use xlink:href="#STIXGeneral-Regular-30" transform="translate(49.999985 0)"/>
       <use xlink:href="#STIXGeneral-Regular-30" transform="translate(99.999969 0)"/>
       <use xlink:href="#STIXGeneral-Regular-30" transform="translate(149.999954 0)"/>
      </g>
     </g>
    </g>
    <g id="text_32">
     <!-- $f(E)$ -->
     <g transform="translate(443.109687 173.8925) rotate(-90) scale(0.1 -0.1)">
      <use xlink:href="#STIXGeneral-Italic-66" transform="translate(0 0.203125)"/>
      <use xlink:href="#STIXGeneral-Regular-28" transform="translate(27.799988 0.203125)"/>
      <use xlink:href="#STIXGeneral-Italic-45" transform="translate(61.099976 0.203125)"/>
      <use xlink:href="#STIXGeneral-Regular-29" transform="translate(122.199966 0.203125)"/>
     </g>
    </g>
   </g>
   <g id="line2d_55">
    <path d="M 499.599091 167.861798 
L 499.635323 167.821749 
L 499.688025 167.931542 
L 499.902125 168.498705 
L 499.954827 168.439377 
L 500.152458 167.810457 
L 500.300681 167.592458 
L 500.33362 167.616095 
L 500.465374 167.931057 
L 500.771702 168.65681 
L 500.791465 168.645366 
L 500.903456 168.40586 
L 501.199903 167.008855 
L 501.417297 166.523262 
L 501.423884 166.525562 
L 501.525994 166.693075 
L 501.733506 167.606353 
L 502.102418 168.987903 
L 502.207821 168.92204 
L 502.365926 168.415255 
L 502.89953 166.451533 
L 502.919293 166.460679 
L 503.031284 166.671708 
L 503.24209 167.680707 
L 503.759225 170.152806 
L 503.854747 170.11545 
L 503.867922 170.093885 
L 504.016145 169.593864 
L 504.322473 167.548179 
L 504.721029 165.394228 
L 504.83302 165.314797 
L 504.869253 165.349697 
L 505.004301 165.728757 
L 505.261221 167.281705 
L 505.788237 170.336027 
L 505.900228 170.415296 
L 505.93646 170.382807 
L 506.068215 170.032572 
L 506.308666 168.622492 
L 506.95426 164.701172 
L 507.053076 164.660897 
L 507.089308 164.69986 
L 507.22765 165.108053 
L 507.471395 166.678945 
L 508.235569 171.991652 
L 508.33109 172.022638 
L 508.364029 171.985625 
L 508.499077 171.584256 
L 508.736234 170.033598 
L 509.632161 163.459661 
L 509.727683 163.481088 
L 509.744152 163.505186 
L 509.885788 163.951696 
L 510.132827 165.616368 
L 511.045224 172.477948 
L 511.140745 172.48919 
L 511.17039 172.452339 
L 511.312025 172.018859 
L 511.552477 170.418251 
L 512.613097 162.310732 
L 512.711912 162.412086 
L 512.870017 163.012307 
L 513.133525 165.053967 
L 514.204027 174.416409 
L 514.296255 174.425485 
L 514.325899 174.388034 
L 514.464241 173.958236 
L 514.698104 172.356933 
L 515.136187 167.458561 
L 515.712611 161.746006 
L 515.962943 160.961405 
L 516.068347 161.038664 
L 516.219864 161.570791 
L 516.470196 163.424104 
L 516.964274 169.175733 
L 517.497878 174.388407 
L 517.748211 175.194136 
L 517.853614 175.131076 
L 517.998543 174.653342 
L 518.238994 172.944066 
L 518.663901 167.994362 
L 519.352316 160.423926 
L 519.619118 159.433976 
L 519.71464 159.45247 
L 519.734403 159.48144 
L 519.876038 159.937957 
L 520.109902 161.588492 
L 520.50187 166.236269 
L 521.351684 176.407382 
L 521.615192 177.407132 
L 521.70742 177.399203 
L 521.730477 177.367663 
L 521.872112 176.918012 
L 522.102682 175.29926 
L 522.481475 170.787169 
L 523.449867 158.799223 
L 523.710081 157.878324 
L 523.808897 157.913984 
L 523.822072 157.934971 
L 523.967001 158.413988 
L 524.204159 160.121246 
L 524.589539 164.79638 
L 525.59087 177.474882 
L 525.854378 178.46302 
L 525.946606 178.455992 
L 525.969663 178.425144 
L 526.111299 177.98313 
L 526.341868 176.37986 
L 526.707486 172.007197 
L 527.896566 156.637785 
L 528.133723 155.959652 
L 528.235833 156.046599 
L 528.38735 156.59589 
L 528.631095 158.474067 
L 529.016475 163.460908 
L 530.208849 180.024423 
L 530.469064 180.974516 
L 530.564585 180.951092 
L 530.581055 180.926603 
L 530.72269 180.470266 
L 530.95326 178.825583 
L 531.312289 174.389561 
L 532.751702 154.612973 
L 532.962509 154.181801 
L 532.965803 154.182795 
L 533.071206 154.340525 
L 533.242486 155.109347 
L 533.512582 157.519626 
L 533.940783 163.664196 
L 535.073867 180.689913 
L 535.373608 182.253709 
L 535.488893 182.344021 
L 535.525125 182.312236 
L 535.653585 181.9687 
L 535.864392 180.647052 
L 536.187189 176.994722 
L 536.74385 167.677497 
L 537.557431 154.830765 
L 537.909873 152.242519 
L 538.091035 151.927576 
L 538.107504 151.934753 
L 538.216201 152.132092 
L 538.397363 153.031005 
L 538.677341 155.72843 
L 539.112129 162.404942 
L 540.396731 183.372748 
L 540.699765 185.025016 
L 540.821638 185.129082 
L 540.854576 185.100763 
L 540.983036 184.761745 
L 541.193843 183.436727 
L 541.513346 179.777082 
L 542.030481 170.840499 
L 543.054869 153.117892 
L 543.413899 150.298897 
L 543.614823 149.904998 
L 543.621411 149.907087 
L 543.726814 150.070285 
L 543.901388 150.871098 
L 544.171484 153.341842 
L 544.579922 159.438482 
L 546.187321 185.849591 
L 546.444242 186.782324 
L 546.539763 186.762825 
L 546.559526 186.733783 
L 546.701162 186.276408 
L 546.928438 184.653785 
L 547.270998 180.347203 
L 547.824365 170.087911 
L 548.848753 151.265673 
L 549.23084 147.883639 
L 549.458115 147.318043 
L 549.556931 147.426371 
L 549.715036 148.044874 
L 549.962075 150.068634 
L 550.330986 155.212737 
L 550.946936 167.495594 
L 551.872508 185.153152 
L 552.274358 189.099615 
L 552.518103 189.858733 
L 552.623506 189.781985 
L 552.77173 189.260463 
L 553.008887 187.451266 
L 553.358035 182.818142 
L 553.911402 172.028112 
L 555.057662 149.46334 
L 555.449631 145.739524 
L 555.690082 145.040959 
L 555.792191 145.12782 
L 555.943708 145.677229 
L 556.184159 147.54866 
L 556.536601 152.292918 
L 557.089968 163.219668 
L 558.28893 187.280591 
L 558.684192 191.094505 
L 558.924643 191.826277 
L 559.030047 191.748392 
L 559.17827 191.227701 
L 559.412133 189.454931 
L 559.757988 184.881998 
L 560.285004 174.517198 
L 561.665128 146.195563 
L 562.047214 142.732155 
L 562.277784 142.131675 
L 562.376599 142.23228 
L 562.53141 142.820914 
L 562.775155 144.78459 
L 563.130891 149.726151 
L 563.671083 160.787068 
L 565.07097 190.635669 
L 565.462938 194.439671 
L 565.703389 195.171342 
L 565.805498 195.096947 
L 565.953722 194.580592 
L 566.187585 192.806154 
L 566.530146 188.248741 
L 567.040693 178.046553 
L 568.677737 143.075064 
L 569.04006 140.056776 
L 569.257454 139.589961 
L 569.359564 139.729204 
L 569.52755 140.454049 
L 569.784471 142.718062 
L 570.156676 148.243245 
L 570.723218 160.45664 
L 572.13628 192.030163 
L 572.548012 196.448898 
L 572.808226 197.425187 
L 572.900454 197.416074 
L 572.923511 197.384575 
L 573.065146 196.935689 
L 573.289128 195.344905 
L 573.618513 191.166305 
L 574.096122 181.876022 
L 575.143566 155.657134 
L 575.818806 142.055652 
L 576.237125 137.43229 
L 576.500633 136.391275 
L 576.592861 136.386468 
L 576.622506 136.424782 
L 576.760847 136.859093 
L 576.984829 138.440022 
L 577.31092 142.57046 
L 577.778647 151.689752 
L 578.64493 173.935133 
L 579.481568 193.093765 
L 579.942707 199.255204 
L 580.245742 200.950191 
L 580.370908 201.065464 
L 580.403847 201.038287 
L 580.529013 200.716885 
L 580.733232 199.460125 
L 581.036266 195.996545 
L 581.467761 188.174791 
L 582.156175 170.994272 
L 583.325493 142.271253 
L 583.799807 135.623615 
L 584.112723 133.719345 
L 584.254359 133.556611 
L 584.284003 133.578433 
L 584.405876 133.871078 
L 584.606801 135.058466 
L 584.903247 138.347659 
L 585.32486 145.827364 
L 585.977043 161.966567 
L 587.307759 195.233517 
L 587.775485 201.668986 
L 588.085107 203.49283 
L 588.220155 203.63639 
L 588.2498 203.614228 
L 588.371672 203.320337 
L 588.572597 202.130804 
L 588.869044 198.834297 
L 589.290657 191.317565 
L 589.92637 175.433501 
L 591.375665 138.339878 
L 591.840098 131.963486 
L 592.14972 130.157558 
L 592.281474 130.022756 
L 592.311118 130.045187 
L 592.432991 130.340821 
L 592.633916 131.535843 
L 592.930362 134.849261 
L 593.348681 142.352051 
L 593.971219 158.067719 
L 595.552268 199.468473 
L 596.010113 205.677547 
L 596.316441 207.422404 
L 596.441608 207.545331 
L 596.474546 207.520191 
L 596.599713 207.206517 
L 596.803931 205.96069 
L 597.103672 202.544365 
L 597.525285 194.862671 
L 598.151116 178.831574 
L 599.78816 135.195242 
L 600.2493 128.865598 
L 600.558922 127.068221 
L 600.687382 126.935682 
L 600.72032 126.960221 
L 600.845487 127.271016 
L 601.049705 128.510382 
L 601.349446 131.915627 
L 601.771059 139.591089 
L 602.387009 155.407318 
L 604.136044 202.530738 
L 604.590595 208.614863 
L 604.89363 210.301169 
L 605.018796 210.413719 
L 605.051735 210.386054 
L 605.180195 210.050416 
L 605.387707 208.749734 
L 605.690742 205.225968 
L 606.115648 197.345022 
L 606.734892 181.1607 
L 608.556392 131.049072 
L 609.010944 124.91993 
L 609.313978 123.213966 
L 609.439144 123.094836 
L 609.472083 123.120914 
L 609.597249 123.438 
L 609.801468 124.689927 
L 610.101208 128.124137 
L 610.519527 135.814556 
L 611.119008 151.45575 
L 613.141433 207.720832 
L 613.576221 213.142897 
L 613.862786 214.541778 
L 613.96819 214.603257 
L 614.004422 214.567747 
L 614.136176 214.194784 
L 614.350276 212.781085 
L 614.659898 209.029887 
L 615.091393 200.748664 
L 615.713931 183.954214 
L 617.677066 127.860249 
L 618.131617 121.635771 
L 618.437945 119.864272 
L 618.5697 119.732372 
L 618.599344 119.755372 
L 618.724511 120.065565 
L 618.928729 121.3053 
L 619.22847 124.722799 
L 619.643495 132.338351 
L 620.2298 147.685813 
L 622.509145 212.050866 
L 622.920877 216.676626 
L 623.187679 217.751696 
L 623.279907 217.760479 
L 623.309551 217.723543 
L 623.447893 217.295988 
L 623.668581 215.752657 
L 623.988085 211.708154 
L 624.429461 202.922897 
L 625.058586 185.406848 
L 627.133712 124.037221 
L 627.591558 117.612805 
L 627.904474 115.734255 
L 628.039521 115.584549 
L 628.07246 115.609043 
L 628.197626 115.920143 
L 628.398551 117.136193 
L 628.694998 120.499882 
L 629.103435 127.977328 
L 629.673272 142.960712 
L 630.720716 177.720586 
L 631.689109 206.757465 
L 632.245769 217.530121 
L 632.634444 221.449098 
L 632.881483 222.249798 
L 632.986886 222.182383 
L 633.131815 221.690091 
L 633.362385 219.964373 
L 633.69177 215.564178 
L 634.143028 206.183488 
L 634.785329 187.615886 
L 636.949389 121.078485 
L 637.417116 114.217401 
L 637.736619 112.145706 
L 637.888136 111.941734 
L 637.914487 111.957858 
L 638.033066 112.219509 
L 638.227403 113.313388 
L 638.513968 116.398992 
L 638.90923 123.35519 
L 639.456009 137.372225 
L 640.332174 166.509722 
L 641.610188 207.771431 
L 642.1932 219.947751 
L 642.604931 224.606014 
L 642.871733 225.692764 
L 642.963961 225.705327 
L 642.993606 225.669598 
L 643.131947 225.247529 
L 643.352635 223.711187 
L 643.668845 219.716109 
L 644.103633 211.041774 
L 644.706408 194.034012 
L 645.869138 153.27534 
L 646.807885 124.179991 
L 647.374428 112.737545 
L 647.772984 108.457852 
L 648.029904 107.507514 
L 648.122132 107.520441 
L 648.145189 107.552986 
L 648.286824 108.009625 
L 648.510806 109.625152 
L 648.833604 113.820438 
L 649.271686 122.765088 
L 649.881048 140.302176 
L 651.030602 181.420249 
L 652.002288 212.480407 
L 652.582006 224.677973 
L 652.990444 229.337335 
L 653.26054 230.453463 
L 653.352767 230.467153 
L 653.382412 230.431692 
L 653.520754 230.010256 
L 653.741442 228.472447 
L 654.057651 224.466731 
L 654.489146 215.824031 
L 655.082039 198.970526 
L 656.093251 162.668506 
L 657.239512 124.040614 
L 657.84558 110.436331 
L 658.273781 105.060367 
L 658.560346 103.642081 
L 658.669043 103.575024 
L 658.705275 103.610503 
L 658.837029 103.982934 
L 659.05113 105.396604 
L 659.360752 109.166604 
L 659.782365 117.364513 
L 660.358789 133.418781 
L 661.277773 166.252949 
L 662.615077 212.742465 
L 663.231027 226.922811 
L 663.669109 232.617867 
L 663.962262 234.154168 
L 664.077547 234.242798 
L 664.113779 234.210222 
L 664.242239 233.862074 
L 664.449752 232.537887 
L 664.752786 228.952182 
L 665.167811 221.051016 
L 665.727766 205.6754 
L 666.584167 175.156504 
L 668.128983 120.205275 
L 668.738346 106.154301 
L 669.176428 100.448131 
L 669.469581 98.910819 
L 669.584866 98.822732 
L 669.621098 98.855581 
L 669.749558 99.205099 
L 669.957071 100.533009 
L 670.260105 104.128794 
L 670.671837 111.983157 
L 671.228497 127.315463 
L 672.061842 157.23686 
L 673.735118 217.889831 
L 674.344481 231.975632 
L 674.779269 237.648698 
L 675.072422 239.198124 
L 675.187706 239.290617 
L 675.223939 239.259129 
L 675.352399 238.914353 
L 675.559912 237.593763 
L 675.862946 234.00703 
L 676.274677 226.156979 
L 676.828044 210.90056 
L 677.648213 181.319901 
L 679.430187 115.88886 
L 680.036255 101.900226 
L 680.471044 96.244579 
L 680.764196 94.706377 
L 680.879481 94.61762 
L 680.915714 94.650187 
L 681.044174 94.998415 
L 681.251686 96.32343 
L 681.554721 99.914957 
L 681.966452 107.773178 
L 682.519819 123.062885 
L 683.326813 152.297895 
L 685.210895 222.264215 
L 685.81367 236.134311 
L 686.248458 241.755768 
L 686.541611 243.269591 
L 686.653602 243.350677 
L 686.689835 243.317783 
L 686.818295 242.968451 
L 687.025807 241.641581 
L 687.328842 238.045707 
L 687.740573 230.172226 
L 688.290646 214.928404 
L 689.084464 185.998083 
L 691.100301 110.125397 
L 691.696488 96.549169 
L 692.124689 91.100307 
L 692.414548 89.640081 
L 692.523245 89.56812 
L 692.559477 89.602034 
L 692.691231 89.969164 
L 692.902038 91.347581 
L 693.208366 95.050954 
L 693.623391 103.113432 
L 694.176758 118.665432 
L 694.970576 147.995786 
L 697.055584 227.792037 
L 697.651771 241.519129 
L 698.083266 247.093579 
L 698.376418 248.604682 
L 698.488409 248.683599 
L 698.524642 248.649896 
L 698.656396 248.283466 
L 698.867202 246.905932 
L 699.17353 243.202683 
L 699.588556 235.134282 
L 700.141923 219.547405 
L 700.929153 190.319007 
L 703.122858 105.524824 
L 703.712457 92.077643 
L 704.140658 86.618207 
L 704.430517 85.153292 
L 704.539214 85.079259 
L 704.575446 85.112419 
L 704.7072 85.476541 
L 704.918007 86.849414 
L 705.221041 90.494555 
L 705.632772 98.451171 
L 706.179552 113.775552 
L 706.950313 142.345085 
L 709.305416 233.897676 
L 709.88184 246.618957 
L 710.300159 251.695511 
L 710.580137 252.991822 
L 710.682246 253.036402 
L 710.715185 253.001801 
L 710.846939 252.624704 
L 711.061039 251.201745 
L 711.367367 247.45437 
L 711.782392 239.319908 
L 712.332466 223.709276 
L 713.103227 194.795829 
L 715.534089 98.950503 
L 716.110513 86.181269 
L 716.528832 81.08608 
L 716.808809 79.781179 
L 716.910919 79.734046 
L 716.943857 79.767888 
L 717.075611 80.142283 
L 717.286418 81.532758 
L 717.592746 85.258231 
L 718.004477 93.299478 
L 718.551256 108.794416 
L 719.308842 137.279795 
L 721.910985 240.774775 
L 722.474233 252.809296 
L 722.882671 257.5087 
L 723.152766 258.634716 
L 723.244994 258.651549 
L 723.277933 258.61209 
L 723.416275 258.185355 
L 723.636963 256.6368 
L 723.953172 252.594791 
L 724.378079 243.949005 
L 724.938034 227.543413 
L 725.718676 197.423977 
L 728.235179 95.26351 
L 728.81819 81.935322 
L 729.246391 76.4817 
L 729.53625 75.027913 
L 729.644947 74.958307 
L 729.681179 74.992947 
L 729.812933 75.362476 
L 730.02374 76.744528 
L 730.330068 80.457806 
L 730.741799 88.490103 
L 731.285285 103.906225 
L 732.029695 132.027928 
L 734.892052 247.297614 
L 735.432243 258.214307 
L 735.827506 262.402778 
L 736.081132 263.306567 
L 736.176654 263.280282 
L 736.193123 263.255439 
L 736.334759 262.795529 
L 736.558741 261.172633 
L 736.878244 256.994925 
L 737.306445 248.127021 
L 737.869693 231.365386 
L 738.647042 200.886312 
L 741.344706 89.058317 
L 741.92113 76.039874 
L 742.346037 70.740944 
L 742.629308 69.371576 
L 742.734711 69.312313 
L 742.770944 69.348522 
L 742.902698 69.72401 
L 743.116798 71.146128 
L 743.423126 74.900515 
L 743.834858 83.002075 
L 744.378343 98.560756 
L 745.112872 126.641586 
L 746.529228 191.562531 
L 747.62608 236.677914 
L 748.307907 256.483808 
L 748.811867 265.504047 
L 749.17419 268.691381 
L 749.398172 269.227541 
L 749.500282 269.105 
L 749.66168 268.4431 
L 749.908719 266.328026 
L 750.254573 261.180076 
L 750.712419 250.661954 
L 751.315194 231.159208 
L 752.165007 195.595644 
L 754.553049 91.66519 
L 755.19535 74.498831 
L 755.669665 66.974057 
L 756.005638 64.537998 
L 756.180212 64.24772 
L 756.199975 64.257151 
L 756.311966 64.473082 
L 756.496421 65.429247 
L 756.769811 68.206144 
L 757.14531 74.588013 
L 757.639388 87.202257 
L 758.29157 110.126697 
L 759.256669 152.932 
L 761.160515 238.12394 
L 761.868693 259.758929 
L 762.392415 269.778388 
L 762.771208 273.458299 
L 763.011659 274.173484 
L 763.113768 274.092339 
L 763.261992 273.56633 
L 763.495855 271.759358 
L 763.82524 267.224235 
L 764.263322 257.754968 
L 764.836452 240.041884 
L 765.617095 208.279357 
L 768.634263 77.623037 
L 769.204099 64.853172 
L 769.622418 59.700895 
L 769.905689 58.361209 
L 770.007799 58.310974 
L 770.044031 58.348411 
L 770.179079 58.742765 
L 770.393179 60.18792 
L 770.702801 64.029833 
L 771.117826 72.304054 
L 771.658018 87.980254 
L 772.379371 116.038873 
L 773.555276 171.951877 
L 775.011158 238.495543 
L 775.755569 263.013305 
L 776.305642 274.678028 
L 776.710786 279.267892 
L 776.977588 280.343639 
L 777.069815 280.351019 
L 777.09946 280.313552 
L 777.237802 279.882704 
L 777.45849 278.326605 
L 777.771406 274.318041 
L 778.193019 265.706748 
L 778.739798 249.522839 
L 779.471033 220.610417 
L 780.669995 162.833497 
L 782.115995 96.030804 
L 782.866993 70.935066 
L 783.423654 58.910992 
L 783.832092 54.155388 
L 784.105481 52.993325 
L 784.201003 52.974739 
L 784.230648 53.009846 
L 784.365696 53.414562 
L 784.58309 54.905686 
L 784.892712 58.791229 
L 785.307737 67.125511 
L 785.847929 82.899885 
L 786.565988 111.041361 
L 787.689191 165.146953 
L 789.306472 241.342822 
L 790.064058 267.0184 
L 790.624013 279.349902 
L 791.039038 284.3234 
L 791.315722 285.566257 
L 791.414537 285.60237 
L 791.447476 285.566609 
L 791.582523 285.170319 
L 791.796624 283.722659 
L 792.106246 279.876507 
L 792.517977 271.666078 
L 793.054875 256.064697 
L 793.763053 228.371804 
L 794.840142 176.311737 
L 796.60894 91.555449 
L 797.366526 65.653864 
L 797.929775 53.12003 
L 798.3448 48.069839 
L 798.624777 46.772169 
L 798.726887 46.728024 
L 798.759825 46.762824 
L 798.894873 47.15543 
L 799.108973 48.598202 
L 799.415301 52.388466 
L 799.827033 60.573795 
L 800.360637 76.05929 
L 801.062227 103.506259 
L 802.109672 154.376856 
L 804.013518 246.968624 
L 804.771103 273.008833 
L 805.334352 285.612652 
L 805.752671 290.733217 
L 806.032648 292.039842 
L 806.134758 292.087137 
L 806.167696 292.053344 
L 806.29945 291.679083 
L 806.510257 290.287504 
L 806.813291 286.599614 
L 807.221729 278.583083 
L 807.752039 263.332 
L 808.447041 236.282813 
L 809.461547 187.00984 
L 811.526792 85.546066 
L 812.27779 59.870224 
L 812.837745 47.442156 
L 813.25277 42.417152 
L 813.532747 41.137568 
L 813.631563 41.097443 
L 813.667795 41.136636 
L 813.802843 41.537334 
L 814.020237 43.022478 
L 814.329859 46.903091 
L 814.744885 55.248795 
L 815.281782 70.99643 
L 815.983373 98.735732 
L 817.011054 149.289033 
L 819.069711 251.588005 
L 819.827297 277.964739 
L 820.393839 290.861344 
L 820.815452 296.161014 
L 821.102017 297.565263 
L 821.20742 297.627806 
L 821.243653 297.592781 
L 821.375407 297.221783 
L 821.586213 295.83601 
L 821.889248 292.156477 
L 822.297685 284.145837 
L 822.824701 268.98542 
L 823.509822 242.275805 
L 824.488096 194.438524 
L 826.816849 77.790517 
L 827.554672 52.791218 
L 828.108039 40.678255 
L 828.51977 35.798961 
L 828.79316 34.594332 
L 828.888681 34.56118 
L 828.924914 34.601233 
L 828.980909 34.72005 
L 828.980909 34.72005 
" clip-path="url(#p18c65ba34a)" style="fill: none; stroke: #000000; stroke-width: 1.5; stroke-linecap: square"/>
   </g>
   <g id="patch_9">
    <path d="M 483.13 310.789375 
L 483.13 21.395625 
" style="fill: none; stroke: #000000; stroke-width: 0.8; stroke-linejoin: miter; stroke-linecap: square"/>
   </g>
   <g id="patch_10">
    <path d="M 845.45 310.789375 
L 845.45 21.395625 
" style="fill: none; stroke: #000000; stroke-width: 0.8; stroke-linejoin: miter; stroke-linecap: square"/>
   </g>
   <g id="patch_11">
    <path d="M 483.13 310.789375 
L 845.45 310.789375 
" style="fill: none; stroke: #000000; stroke-width: 0.8; stroke-linejoin: miter; stroke-linecap: square"/>
   </g>
   <g id="patch_12">
    <path d="M 483.13 21.395625 
L 845.45 21.395625 
" style="fill: none; stroke: #000000; stroke-width: 0.8; stroke-linejoin: miter; stroke-linecap: square"/>
   </g>
   <g id="text_33">
    <!-- Transcendental Function $f(E &gt; V_0)$ -->
    <g transform="translate(582.09 15.395625) scale(0.12 -0.12)">
     <defs>
      <path id="STIXGeneral-Regular-3e" d="M 3974 1594 
L 358 -154 
L 358 250 
L 3123 1626 
L 358 3002 
L 358 3418 
L 3974 1658 
L 3974 1594 
z
" transform="scale(0.015625)"/>
     </defs>
     <use xlink:href="#STIXGeneral-Regular-54" transform="translate(0 0.703125)"/>
     <use xlink:href="#STIXGeneral-Regular-72" transform="translate(61.099991 0.703125)"/>
     <use xlink:href="#STIXGeneral-Regular-61" transform="translate(94.399979 0.703125)"/>
     <use xlink:href="#STIXGeneral-Regular-6e" transform="translate(138.799973 0.703125)"/>
     <use xlink:href="#STIXGeneral-Regular-73" transform="translate(188.799957 0.703125)"/>
     <use xlink:href="#STIXGeneral-Regular-63" transform="translate(227.699951 0.703125)"/>
     <use xlink:href="#STIXGeneral-Regular-65" transform="translate(272.099945 0.703125)"/>
     <use xlink:href="#STIXGeneral-Regular-6e" transform="translate(316.499939 0.703125)"/>
     <use xlink:href="#STIXGeneral-Regular-64" transform="translate(366.499924 0.703125)"/>
     <use xlink:href="#STIXGeneral-Regular-65" transform="translate(416.499908 0.703125)"/>
     <use xlink:href="#STIXGeneral-Regular-6e" transform="translate(460.899902 0.703125)"/>
     <use xlink:href="#STIXGeneral-Regular-74" transform="translate(510.899887 0.703125)"/>
     <use xlink:href="#STIXGeneral-Regular-61" transform="translate(538.699875 0.703125)"/>
     <use xlink:href="#STIXGeneral-Regular-6c" transform="translate(583.099869 0.703125)"/>
     <use xlink:href="#STIXGeneral-Regular-20" transform="translate(610.899857 0.703125)"/>
     <use xlink:href="#STIXGeneral-Regular-46" transform="translate(635.899841 0.703125)"/>
     <use xlink:href="#STIXGeneral-Regular-75" transform="translate(691.499832 0.703125)"/>
     <use xlink:href="#STIXGeneral-Regular-6e" transform="translate(741.499817 0.703125)"/>
     <use xlink:href="#STIXGeneral-Regular-63" transform="translate(791.499802 0.703125)"/>
     <use xlink:href="#STIXGeneral-Regular-74" transform="translate(835.899796 0.703125)"/>
     <use xlink:href="#STIXGeneral-Regular-69" transform="translate(863.699783 0.703125)"/>
     <use xlink:href="#STIXGeneral-Regular-6f" transform="translate(891.499771 0.703125)"/>
     <use xlink:href="#STIXGeneral-Regular-6e" transform="translate(941.499756 0.703125)"/>
     <use xlink:href="#STIXGeneral-Regular-20" transform="translate(991.499741 0.703125)"/>
     <use xlink:href="#STIXGeneral-Italic-66" transform="translate(1016.499725 0.703125)"/>
     <use xlink:href="#STIXGeneral-Regular-28" transform="translate(1044.299713 0.703125)"/>
     <use xlink:href="#STIXGeneral-Italic-45" transform="translate(1077.599701 0.703125)"/>
     <use xlink:href="#STIXGeneral-Regular-3e" transform="translate(1153.139688 0.703125)"/>
     <use xlink:href="#STIXGeneral-Italic-56" transform="translate(1236.079669 0.703125)"/>
     <use xlink:href="#STIXGeneral-Regular-30" transform="translate(1297.17966 -12.525) scale(0.7)"/>
     <use xlink:href="#STIXGeneral-Regular-29" transform="translate(1336.589024 0.703125)"/>
    </g>
   </g>
   <g id="legend_2">
    <g id="patch_13">
     <path d="M 490.13 43.565938 
L 557.53 43.565938 
Q 559.53 43.565938 559.53 41.565938 
L 559.53 28.395625 
Q 559.53 26.395625 557.53 26.395625 
L 490.13 26.395625 
Q 488.13 26.395625 488.13 28.395625 
L 488.13 41.565938 
Q 488.13 43.565938 490.13 43.565938 
z
" style="fill: #ffffff; opacity: 0.8; stroke: #cccccc; stroke-linejoin: miter"/>
    </g>
    <g id="line2d_56">
     <path d="M 492.13 33.895625 
L 502.13 33.895625 
L 512.13 33.895625 
" style="fill: none; stroke: #000000; stroke-width: 1.5; stroke-linecap: square"/>
    </g>
    <g id="text_34">
     <!-- $f(E &gt; V_0)$ -->
     <g transform="translate(520.13 37.395625) scale(0.1 -0.1)">
      <use xlink:href="#STIXGeneral-Italic-66" transform="translate(0 0.203125)"/>
      <use xlink:href="#STIXGeneral-Regular-28" transform="translate(27.799988 0.203125)"/>
      <use xlink:href="#STIXGeneral-Italic-45" transform="translate(61.099976 0.203125)"/>
      <use xlink:href="#STIXGeneral-Regular-3e" transform="translate(136.639963 0.203125)"/>
      <use xlink:href="#STIXGeneral-Italic-56" transform="translate(219.579944 0.203125)"/>
      <use xlink:href="#STIXGeneral-Regular-30" transform="translate(280.679935 -13.025) scale(0.7)"/>
      <use xlink:href="#STIXGeneral-Regular-29" transform="translate(320.089299 0.203125)"/>
     </g>
    </g>
   </g>
  </g>
 </g>
 <defs>
  <clipPath id="p5261d4e780">
   <rect x="59.05" y="21.395625" width="362.32" height="289.39375"/>
  </clipPath>
  <clipPath id="p18c65ba34a">
   <rect x="483.13" y="21.395625" width="362.32" height="289.39375"/>
  </clipPath>
 </defs>
</svg>
