<?xml version="1.0" encoding="utf-8" standalone="no"?>
<!DOCTYPE svg PUBLIC "-//W3C//DTD SVG 1.1//EN"
  "http://www.w3.org/Graphics/SVG/1.1/DTD/svg11.dtd">
<svg xmlns:xlink="http://www.w3.org/1999/xlink" width="1072.08pt" height="350.840625pt" viewBox="0 0 1072.08 350.840625" xmlns="http://www.w3.org/2000/svg" version="1.1">
 <metadata>
  <rdf:RDF xmlns:dc="http://purl.org/dc/elements/1.1/" xmlns:cc="http://creativecommons.org/ns#" xmlns:rdf="http://www.w3.org/1999/02/22-rdf-syntax-ns#">
   <cc:Work>
    <dc:type rdf:resource="http://purl.org/dc/dcmitype/StillImage"/>
    <dc:date>2025-08-25T02:30:23.502503</dc:date>
    <dc:format>image/svg+xml</dc:format>
    <dc:creator>
     <cc:Agent>
      <dc:title>Matplotlib v3.10.5, https://matplotlib.org/</dc:title>
     </cc:Agent>
    </dc:creator>
   </cc:Work>
  </rdf:RDF>
 </metadata>
 <defs>
  <style type="text/css">*{stroke-linejoin: round; stroke-linecap: butt}</style>
 </defs>
 <g id="figure_1">
  <g id="patch_1">
   <path d="M 0 350.840625 
L 1072.08 350.840625 
L 1072.08 0 
L 0 0 
z
" style="fill: #ffffff"/>
  </g>
  <g id="axes_1">
   <g id="patch_2">
    <path d="M 46.55 314.640625 
L 531.174375 314.640625 
L 531.174375 21.455625 
L 46.55 21.455625 
z
" style="fill: #ffffff"/>
   </g>
   <g id="matplotlib.axis_1">
    <g id="xtick_1">
     <g id="line2d_1">
      <path d="M 68.578381 314.640625 
L 68.578381 21.455625 
" clip-path="url(#pc044a77053)" style="fill: none; stroke: #b0b0b0; stroke-width: 0.8; stroke-linecap: square"/>
     </g>
     <g id="line2d_2">
      <defs>
       <path id="mad0207928b" d="M 0 0 
L 0 3.5 
" style="stroke: #000000; stroke-width: 0.8"/>
      </defs>
      <g>
       <use xlink:href="#mad0207928b" x="68.578381" y="314.640625" style="stroke: #000000; stroke-width: 0.8"/>
      </g>
     </g>
     <g id="text_1">
      <!-- −20 -->
      <g transform="translate(60.153381 328.470312) scale(0.1 -0.1)">
       <defs>
        <path id="STIXGeneral-Regular-2212" d="M 3974 1408 
L 410 1408 
L 410 1830 
L 3974 1830 
L 3974 1408 
z
" transform="scale(0.015625)"/>
        <path id="STIXGeneral-Regular-32" d="M 3034 877 
L 2688 0 
L 186 0 
L 186 77 
L 1325 1286 
Q 1773 1754 1965 2144 
Q 2157 2534 2157 2950 
Q 2157 3379 1920 3616 
Q 1683 3853 1267 3853 
Q 922 3853 720 3673 
Q 518 3494 326 3021 
L 192 3053 
Q 301 3648 630 3987 
Q 960 4326 1523 4326 
Q 2054 4326 2380 4006 
Q 2707 3686 2707 3200 
Q 2707 2477 1888 1613 
L 832 486 
L 2330 486 
Q 2541 486 2665 569 
Q 2790 653 2944 915 
L 3034 877 
z
" transform="scale(0.015625)"/>
        <path id="STIXGeneral-Regular-30" d="M 3046 2112 
Q 3046 1683 2963 1302 
Q 2880 922 2717 602 
Q 2554 282 2266 96 
Q 1978 -90 1600 -90 
Q 1210 -90 915 108 
Q 621 307 461 640 
Q 301 973 227 1350 
Q 154 1728 154 2150 
Q 154 2746 301 3222 
Q 448 3699 790 4012 
Q 1133 4326 1626 4326 
Q 2253 4326 2649 3712 
Q 3046 3098 3046 2112 
z
M 2432 2080 
Q 2432 3091 2217 3625 
Q 2003 4160 1587 4160 
Q 1190 4160 979 3622 
Q 768 3085 768 2106 
Q 768 1120 979 598 
Q 1190 77 1600 77 
Q 2003 77 2217 598 
Q 2432 1120 2432 2080 
z
" transform="scale(0.015625)"/>
       </defs>
       <use xlink:href="#STIXGeneral-Regular-2212"/>
       <use xlink:href="#STIXGeneral-Regular-32" transform="translate(68.499985 0)"/>
       <use xlink:href="#STIXGeneral-Regular-30" transform="translate(118.499969 0)"/>
      </g>
     </g>
    </g>
    <g id="xtick_2">
     <g id="line2d_3">
      <path d="M 123.649332 314.640625 
L 123.649332 21.455625 
" clip-path="url(#pc044a77053)" style="fill: none; stroke: #b0b0b0; stroke-width: 0.8; stroke-linecap: square"/>
     </g>
     <g id="line2d_4">
      <g>
       <use xlink:href="#mad0207928b" x="123.649332" y="314.640625" style="stroke: #000000; stroke-width: 0.8"/>
      </g>
     </g>
     <g id="text_2">
      <!-- −15 -->
      <g transform="translate(115.224332 328.470312) scale(0.1 -0.1)">
       <defs>
        <path id="STIXGeneral-Regular-31" d="M 2522 0 
L 755 0 
L 755 96 
Q 1107 115 1235 227 
Q 1363 339 1363 608 
L 1363 3482 
Q 1363 3795 1171 3795 
Q 1082 3795 883 3718 
L 710 3654 
L 710 3744 
L 1856 4326 
L 1914 4307 
L 1914 486 
Q 1914 275 2042 185 
Q 2170 96 2522 96 
L 2522 0 
z
" transform="scale(0.015625)"/>
        <path id="STIXGeneral-Regular-35" d="M 2803 4358 
L 2573 3814 
Q 2534 3731 2400 3731 
L 1158 3731 
L 902 3187 
Q 1606 3053 1920 2896 
Q 2234 2739 2502 2368 
Q 2726 2061 2726 1555 
Q 2726 1094 2576 780 
Q 2426 467 2099 224 
Q 1664 -90 1011 -90 
Q 646 -90 422 19 
Q 198 128 198 307 
Q 198 550 486 550 
Q 717 550 960 352 
Q 1210 147 1414 147 
Q 1747 147 2012 480 
Q 2278 813 2278 1229 
Q 2278 1843 1850 2189 
Q 1293 2637 486 2637 
Q 410 2637 410 2688 
L 416 2720 
L 1114 4237 
L 2438 4237 
Q 2547 4237 2608 4269 
Q 2669 4301 2746 4403 
L 2803 4358 
z
" transform="scale(0.015625)"/>
       </defs>
       <use xlink:href="#STIXGeneral-Regular-2212"/>
       <use xlink:href="#STIXGeneral-Regular-31" transform="translate(68.499985 0)"/>
       <use xlink:href="#STIXGeneral-Regular-35" transform="translate(118.499969 0)"/>
      </g>
     </g>
    </g>
    <g id="xtick_3">
     <g id="line2d_5">
      <path d="M 178.720284 314.640625 
L 178.720284 21.455625 
" clip-path="url(#pc044a77053)" style="fill: none; stroke: #b0b0b0; stroke-width: 0.8; stroke-linecap: square"/>
     </g>
     <g id="line2d_6">
      <g>
       <use xlink:href="#mad0207928b" x="178.720284" y="314.640625" style="stroke: #000000; stroke-width: 0.8"/>
      </g>
     </g>
     <g id="text_3">
      <!-- −10 -->
      <g transform="translate(170.295284 328.470312) scale(0.1 -0.1)">
       <use xlink:href="#STIXGeneral-Regular-2212"/>
       <use xlink:href="#STIXGeneral-Regular-31" transform="translate(68.499985 0)"/>
       <use xlink:href="#STIXGeneral-Regular-30" transform="translate(118.499969 0)"/>
      </g>
     </g>
    </g>
    <g id="xtick_4">
     <g id="line2d_7">
      <path d="M 233.791236 314.640625 
L 233.791236 21.455625 
" clip-path="url(#pc044a77053)" style="fill: none; stroke: #b0b0b0; stroke-width: 0.8; stroke-linecap: square"/>
     </g>
     <g id="line2d_8">
      <g>
       <use xlink:href="#mad0207928b" x="233.791236" y="314.640625" style="stroke: #000000; stroke-width: 0.8"/>
      </g>
     </g>
     <g id="text_4">
      <!-- −5 -->
      <g transform="translate(227.866236 328.470312) scale(0.1 -0.1)">
       <use xlink:href="#STIXGeneral-Regular-2212"/>
       <use xlink:href="#STIXGeneral-Regular-35" transform="translate(68.499985 0)"/>
      </g>
     </g>
    </g>
    <g id="xtick_5">
     <g id="line2d_9">
      <path d="M 288.862188 314.640625 
L 288.862188 21.455625 
" clip-path="url(#pc044a77053)" style="fill: none; stroke: #b0b0b0; stroke-width: 0.8; stroke-linecap: square"/>
     </g>
     <g id="line2d_10">
      <g>
       <use xlink:href="#mad0207928b" x="288.862188" y="314.640625" style="stroke: #000000; stroke-width: 0.8"/>
      </g>
     </g>
     <g id="text_5">
      <!-- 0 -->
      <g transform="translate(286.362188 328.470312) scale(0.1 -0.1)">
       <use xlink:href="#STIXGeneral-Regular-30"/>
      </g>
     </g>
    </g>
    <g id="xtick_6">
     <g id="line2d_11">
      <path d="M 343.933139 314.640625 
L 343.933139 21.455625 
" clip-path="url(#pc044a77053)" style="fill: none; stroke: #b0b0b0; stroke-width: 0.8; stroke-linecap: square"/>
     </g>
     <g id="line2d_12">
      <g>
       <use xlink:href="#mad0207928b" x="343.933139" y="314.640625" style="stroke: #000000; stroke-width: 0.8"/>
      </g>
     </g>
     <g id="text_6">
      <!-- 5 -->
      <g transform="translate(341.433139 328.470312) scale(0.1 -0.1)">
       <use xlink:href="#STIXGeneral-Regular-35"/>
      </g>
     </g>
    </g>
    <g id="xtick_7">
     <g id="line2d_13">
      <path d="M 399.004091 314.640625 
L 399.004091 21.455625 
" clip-path="url(#pc044a77053)" style="fill: none; stroke: #b0b0b0; stroke-width: 0.8; stroke-linecap: square"/>
     </g>
     <g id="line2d_14">
      <g>
       <use xlink:href="#mad0207928b" x="399.004091" y="314.640625" style="stroke: #000000; stroke-width: 0.8"/>
      </g>
     </g>
     <g id="text_7">
      <!-- 10 -->
      <g transform="translate(394.004091 328.470312) scale(0.1 -0.1)">
       <use xlink:href="#STIXGeneral-Regular-31"/>
       <use xlink:href="#STIXGeneral-Regular-30" transform="translate(49.999985 0)"/>
      </g>
     </g>
    </g>
    <g id="xtick_8">
     <g id="line2d_15">
      <path d="M 454.075043 314.640625 
L 454.075043 21.455625 
" clip-path="url(#pc044a77053)" style="fill: none; stroke: #b0b0b0; stroke-width: 0.8; stroke-linecap: square"/>
     </g>
     <g id="line2d_16">
      <g>
       <use xlink:href="#mad0207928b" x="454.075043" y="314.640625" style="stroke: #000000; stroke-width: 0.8"/>
      </g>
     </g>
     <g id="text_8">
      <!-- 15 -->
      <g transform="translate(449.075043 328.470312) scale(0.1 -0.1)">
       <use xlink:href="#STIXGeneral-Regular-31"/>
       <use xlink:href="#STIXGeneral-Regular-35" transform="translate(49.999985 0)"/>
      </g>
     </g>
    </g>
    <g id="xtick_9">
     <g id="line2d_17">
      <path d="M 509.145994 314.640625 
L 509.145994 21.455625 
" clip-path="url(#pc044a77053)" style="fill: none; stroke: #b0b0b0; stroke-width: 0.8; stroke-linecap: square"/>
     </g>
     <g id="line2d_18">
      <g>
       <use xlink:href="#mad0207928b" x="509.145994" y="314.640625" style="stroke: #000000; stroke-width: 0.8"/>
      </g>
     </g>
     <g id="text_9">
      <!-- 20 -->
      <g transform="translate(504.145994 328.470312) scale(0.1 -0.1)">
       <use xlink:href="#STIXGeneral-Regular-32"/>
       <use xlink:href="#STIXGeneral-Regular-30" transform="translate(49.999985 0)"/>
      </g>
     </g>
    </g>
    <g id="text_10">
     <!-- x -->
     <g transform="translate(286.362188 341.470312) scale(0.1 -0.1)">
      <defs>
       <path id="STIXGeneral-Regular-78" d="M 3066 0 
L 1779 0 
L 1779 96 
Q 1939 109 1987 137 
Q 2035 166 2035 250 
Q 2035 307 1997 365 
L 1414 1261 
L 909 474 
Q 781 275 781 211 
Q 781 96 1037 96 
L 1037 0 
L 109 0 
L 109 96 
Q 269 109 355 169 
Q 442 230 576 422 
L 1306 1478 
L 704 2400 
Q 557 2624 454 2704 
Q 352 2784 211 2784 
L 154 2784 
L 154 2880 
L 1478 2880 
L 1478 2784 
Q 1203 2778 1203 2643 
Q 1203 2509 1498 2074 
Q 1581 1958 1587 1946 
Q 1619 1990 1779 2227 
Q 1811 2285 1856 2349 
Q 1901 2413 1923 2451 
Q 1946 2490 1971 2528 
Q 1997 2566 2006 2595 
Q 2016 2624 2016 2643 
Q 2016 2765 1760 2784 
L 1760 2880 
L 2771 2880 
L 2771 2784 
Q 2445 2771 2253 2502 
L 1722 1734 
L 2541 480 
Q 2790 96 3066 96 
L 3066 0 
z
" transform="scale(0.015625)"/>
      </defs>
      <use xlink:href="#STIXGeneral-Regular-78"/>
     </g>
    </g>
   </g>
   <g id="matplotlib.axis_2">
    <g id="ytick_1">
     <g id="line2d_19">
      <path d="M 46.55 285.949012 
L 531.174375 285.949012 
" clip-path="url(#pc044a77053)" style="fill: none; stroke: #b0b0b0; stroke-width: 0.8; stroke-linecap: square"/>
     </g>
     <g id="line2d_20">
      <defs>
       <path id="m5066f7e933" d="M 0 0 
L -3.5 0 
" style="stroke: #000000; stroke-width: 0.8"/>
      </defs>
      <g>
       <use xlink:href="#m5066f7e933" x="46.55" y="285.949012" style="stroke: #000000; stroke-width: 0.8"/>
      </g>
     </g>
     <g id="text_11">
      <!-- −0.2 -->
      <g transform="translate(20.2 289.363856) scale(0.1 -0.1)">
       <defs>
        <path id="STIXGeneral-Regular-2e" d="M 1158 275 
Q 1158 134 1052 32 
Q 947 -70 800 -70 
Q 653 -70 550 32 
Q 448 134 448 281 
Q 448 429 553 534 
Q 659 640 806 640 
Q 947 640 1052 531 
Q 1158 422 1158 275 
z
" transform="scale(0.015625)"/>
       </defs>
       <use xlink:href="#STIXGeneral-Regular-2212"/>
       <use xlink:href="#STIXGeneral-Regular-30" transform="translate(68.499985 0)"/>
       <use xlink:href="#STIXGeneral-Regular-2e" transform="translate(118.499969 0)"/>
       <use xlink:href="#STIXGeneral-Regular-32" transform="translate(143.499954 0)"/>
      </g>
     </g>
    </g>
    <g id="ytick_2">
     <g id="line2d_21">
      <path d="M 46.55 226.998037 
L 531.174375 226.998037 
" clip-path="url(#pc044a77053)" style="fill: none; stroke: #b0b0b0; stroke-width: 0.8; stroke-linecap: square"/>
     </g>
     <g id="line2d_22">
      <g>
       <use xlink:href="#m5066f7e933" x="46.55" y="226.998037" style="stroke: #000000; stroke-width: 0.8"/>
      </g>
     </g>
     <g id="text_12">
      <!-- −0.1 -->
      <g transform="translate(20.2 230.41288) scale(0.1 -0.1)">
       <use xlink:href="#STIXGeneral-Regular-2212"/>
       <use xlink:href="#STIXGeneral-Regular-30" transform="translate(68.499985 0)"/>
       <use xlink:href="#STIXGeneral-Regular-2e" transform="translate(118.499969 0)"/>
       <use xlink:href="#STIXGeneral-Regular-31" transform="translate(143.499954 0)"/>
      </g>
     </g>
    </g>
    <g id="ytick_3">
     <g id="line2d_23">
      <path d="M 46.55 168.047061 
L 531.174375 168.047061 
" clip-path="url(#pc044a77053)" style="fill: none; stroke: #b0b0b0; stroke-width: 0.8; stroke-linecap: square"/>
     </g>
     <g id="line2d_24">
      <g>
       <use xlink:href="#m5066f7e933" x="46.55" y="168.047061" style="stroke: #000000; stroke-width: 0.8"/>
      </g>
     </g>
     <g id="text_13">
      <!-- 0.0 -->
      <g transform="translate(27.05 171.461905) scale(0.1 -0.1)">
       <use xlink:href="#STIXGeneral-Regular-30"/>
       <use xlink:href="#STIXGeneral-Regular-2e" transform="translate(49.999985 0)"/>
       <use xlink:href="#STIXGeneral-Regular-30" transform="translate(74.999969 0)"/>
      </g>
     </g>
    </g>
    <g id="ytick_4">
     <g id="line2d_25">
      <path d="M 46.55 109.096085 
L 531.174375 109.096085 
" clip-path="url(#pc044a77053)" style="fill: none; stroke: #b0b0b0; stroke-width: 0.8; stroke-linecap: square"/>
     </g>
     <g id="line2d_26">
      <g>
       <use xlink:href="#m5066f7e933" x="46.55" y="109.096085" style="stroke: #000000; stroke-width: 0.8"/>
      </g>
     </g>
     <g id="text_14">
      <!-- 0.1 -->
      <g transform="translate(27.05 112.510929) scale(0.1 -0.1)">
       <use xlink:href="#STIXGeneral-Regular-30"/>
       <use xlink:href="#STIXGeneral-Regular-2e" transform="translate(49.999985 0)"/>
       <use xlink:href="#STIXGeneral-Regular-31" transform="translate(74.999969 0)"/>
      </g>
     </g>
    </g>
    <g id="ytick_5">
     <g id="line2d_27">
      <path d="M 46.55 50.14511 
L 531.174375 50.14511 
" clip-path="url(#pc044a77053)" style="fill: none; stroke: #b0b0b0; stroke-width: 0.8; stroke-linecap: square"/>
     </g>
     <g id="line2d_28">
      <g>
       <use xlink:href="#m5066f7e933" x="46.55" y="50.14511" style="stroke: #000000; stroke-width: 0.8"/>
      </g>
     </g>
     <g id="text_15">
      <!-- 0.2 -->
      <g transform="translate(27.05 53.559953) scale(0.1 -0.1)">
       <use xlink:href="#STIXGeneral-Regular-30"/>
       <use xlink:href="#STIXGeneral-Regular-2e" transform="translate(49.999985 0)"/>
       <use xlink:href="#STIXGeneral-Regular-32" transform="translate(74.999969 0)"/>
      </g>
     </g>
    </g>
    <g id="text_16">
     <!-- Wavefunction Value -->
     <g transform="translate(14.029688 209.564531) rotate(-90) scale(0.1 -0.1)">
      <defs>
       <path id="STIXGeneral-Regular-57" d="M 5965 4237 
L 5965 4115 
Q 5709 4064 5616 3990 
Q 5523 3917 5434 3667 
Q 4704 1709 4128 -70 
L 4032 -70 
Q 3642 1011 3008 2637 
L 2022 -70 
L 1926 -70 
Q 1709 576 1277 1753 
Q 845 2931 698 3347 
Q 538 3808 406 3958 
Q 275 4109 32 4115 
L 32 4237 
L 1594 4237 
L 1594 4115 
Q 1357 4109 1270 4064 
Q 1184 4019 1184 3917 
Q 1184 3808 1254 3616 
L 2176 1210 
L 2842 3021 
L 2662 3501 
Q 2509 3917 2400 4013 
Q 2291 4109 2010 4115 
L 2010 4237 
L 3706 4237 
L 3706 4115 
Q 3213 4102 3213 3891 
Q 3213 3808 3322 3520 
L 4237 1190 
L 5043 3360 
Q 5152 3667 5152 3853 
Q 5152 4109 4704 4115 
L 4704 4237 
L 5965 4237 
z
" transform="scale(0.015625)"/>
       <path id="STIXGeneral-Regular-61" d="M 2829 422 
L 2829 243 
Q 2586 -64 2253 -64 
Q 1888 -64 1843 403 
L 1837 403 
Q 1427 -64 909 -64 
Q 608 -64 422 112 
Q 237 288 237 602 
Q 237 1050 685 1350 
Q 992 1555 1837 1869 
L 1837 2214 
Q 1837 2502 1699 2646 
Q 1562 2790 1338 2790 
Q 1146 2790 1018 2697 
Q 890 2605 890 2477 
Q 890 2419 909 2348 
Q 928 2278 928 2208 
Q 928 2112 841 2029 
Q 755 1946 634 1946 
Q 525 1946 441 2029 
Q 358 2112 358 2240 
Q 358 2547 685 2752 
Q 986 2944 1421 2944 
Q 1939 2944 2176 2656 
Q 2291 2522 2323 2384 
Q 2355 2246 2355 1946 
L 2355 723 
Q 2355 301 2554 301 
Q 2682 301 2829 422 
z
M 1837 813 
L 1837 1715 
Q 1248 1510 1018 1293 
Q 800 1094 800 800 
Q 800 557 921 432 
Q 1043 307 1242 307 
Q 1453 307 1613 410 
Q 1747 506 1792 589 
Q 1837 672 1837 813 
z
" transform="scale(0.015625)"/>
       <path id="STIXGeneral-Regular-76" d="M 3053 2880 
L 3053 2784 
Q 2906 2771 2835 2688 
Q 2765 2605 2637 2285 
L 1818 230 
Q 1690 -90 1638 -90 
Q 1587 -90 1523 77 
Q 1510 96 1497 141 
Q 1485 186 1472 211 
L 704 2048 
Q 499 2534 403 2652 
Q 307 2771 122 2784 
L 122 2880 
L 1376 2880 
L 1376 2784 
Q 1210 2771 1146 2732 
Q 1082 2694 1082 2611 
Q 1082 2509 1139 2368 
L 1792 730 
L 2426 2387 
Q 2464 2483 2464 2579 
Q 2464 2758 2163 2784 
L 2163 2880 
L 3053 2880 
z
" transform="scale(0.015625)"/>
       <path id="STIXGeneral-Regular-65" d="M 2611 1050 
L 2714 1005 
Q 2330 -64 1376 -64 
Q 813 -64 486 329 
Q 160 723 160 1389 
Q 160 2074 525 2509 
Q 890 2944 1485 2944 
Q 2061 2944 2374 2502 
Q 2560 2246 2592 1773 
L 621 1773 
Q 646 1370 700 1158 
Q 755 947 915 730 
Q 1184 378 1626 378 
Q 1939 378 2153 531 
Q 2368 685 2611 1050 
z
M 634 1978 
L 1939 1978 
Q 1882 2381 1750 2547 
Q 1619 2714 1312 2714 
Q 1043 2714 864 2525 
Q 685 2336 634 1978 
z
" transform="scale(0.015625)"/>
       <path id="STIXGeneral-Regular-66" d="M 134 2880 
L 659 2880 
Q 666 3264 710 3478 
Q 755 3693 883 3910 
Q 1152 4371 1786 4371 
Q 2074 4371 2262 4259 
Q 2451 4147 2451 3974 
Q 2451 3866 2374 3789 
Q 2298 3712 2182 3712 
Q 2029 3712 1894 3942 
Q 1741 4192 1555 4192 
Q 1197 4192 1197 3622 
L 1197 2880 
L 1978 2880 
L 1978 2675 
L 1197 2675 
L 1197 666 
Q 1197 307 1299 208 
Q 1402 109 1792 96 
L 1792 0 
L 128 0 
L 128 96 
Q 474 115 566 214 
Q 659 314 659 666 
L 659 2675 
L 134 2675 
L 134 2880 
z
" transform="scale(0.015625)"/>
       <path id="STIXGeneral-Regular-75" d="M 3072 320 
L 3072 230 
Q 2573 96 2195 -58 
L 2163 -38 
L 2163 486 
L 2150 486 
Q 1747 -64 1235 -64 
Q 870 -64 662 160 
Q 454 384 454 755 
L 454 2362 
Q 454 2598 371 2688 
Q 288 2778 58 2790 
L 58 2880 
L 992 2880 
L 992 813 
Q 992 595 1123 451 
Q 1254 307 1446 307 
Q 1760 307 1984 506 
Q 2067 582 2099 649 
Q 2131 717 2131 877 
L 2131 2355 
Q 2131 2605 2041 2678 
Q 1952 2752 1658 2771 
L 1658 2880 
L 2669 2880 
L 2669 685 
Q 2669 461 2742 390 
Q 2816 320 3034 320 
L 3072 320 
z
" transform="scale(0.015625)"/>
       <path id="STIXGeneral-Regular-6e" d="M 3104 0 
L 1773 0 
L 1779 96 
Q 2016 115 2096 233 
Q 2176 352 2176 672 
L 2176 1946 
Q 2176 2592 1709 2592 
Q 1549 2592 1408 2515 
Q 1267 2438 1050 2227 
L 1050 461 
Q 1050 269 1136 192 
Q 1222 115 1466 96 
L 1466 0 
L 115 0 
L 115 96 
Q 358 115 435 214 
Q 512 314 512 602 
L 512 2157 
Q 512 2394 467 2483 
Q 422 2573 288 2573 
Q 160 2573 102 2547 
L 102 2656 
Q 550 2784 979 2944 
L 1030 2925 
L 1030 2426 
L 1037 2426 
Q 1491 2944 1958 2944 
Q 2323 2944 2518 2688 
Q 2714 2432 2714 1958 
L 2714 544 
Q 2714 288 2790 205 
Q 2867 122 3104 96 
L 3104 0 
z
" transform="scale(0.015625)"/>
       <path id="STIXGeneral-Regular-63" d="M 2547 998 
L 2637 941 
Q 2362 403 2112 205 
Q 1786 -64 1376 -64 
Q 845 -64 502 336 
Q 160 736 160 1357 
Q 160 2170 698 2618 
Q 1094 2944 1562 2944 
Q 1965 2944 2256 2749 
Q 2547 2554 2547 2285 
Q 2547 2176 2457 2096 
Q 2368 2016 2246 2016 
Q 2022 2016 1939 2310 
L 1901 2451 
Q 1850 2630 1773 2694 
Q 1696 2758 1523 2758 
Q 1133 2758 893 2451 
Q 653 2144 653 1645 
Q 653 1094 928 745 
Q 1203 397 1645 397 
Q 1920 397 2118 528 
Q 2317 659 2547 998 
z
" transform="scale(0.015625)"/>
       <path id="STIXGeneral-Regular-74" d="M 1702 493 
L 1786 422 
Q 1478 -64 1011 -64 
Q 448 -64 448 749 
L 448 2675 
L 109 2675 
Q 83 2694 83 2720 
Q 83 2771 192 2842 
Q 435 2982 813 3526 
Q 826 3546 874 3606 
Q 922 3667 941 3706 
Q 986 3706 986 3622 
L 986 2880 
L 1632 2880 
L 1632 2675 
L 986 2675 
L 986 845 
Q 986 538 1062 403 
Q 1139 269 1318 269 
Q 1510 269 1702 493 
z
" transform="scale(0.015625)"/>
       <path id="STIXGeneral-Regular-69" d="M 1152 4045 
Q 1152 3904 1056 3811 
Q 960 3718 819 3718 
Q 685 3718 592 3811 
Q 499 3904 499 4045 
Q 499 4179 595 4275 
Q 691 4371 826 4371 
Q 966 4371 1059 4275 
Q 1152 4179 1152 4045 
z
M 1619 0 
L 102 0 
L 102 96 
Q 435 115 521 211 
Q 608 307 608 666 
L 608 2118 
Q 608 2342 563 2432 
Q 518 2522 397 2522 
Q 243 2522 128 2490 
L 128 2592 
L 1120 2944 
L 1146 2918 
L 1146 672 
Q 1146 314 1226 218 
Q 1306 122 1619 96 
L 1619 0 
z
" transform="scale(0.015625)"/>
       <path id="STIXGeneral-Regular-6f" d="M 3008 1478 
Q 3008 806 2608 371 
Q 2208 -64 1568 -64 
Q 979 -64 582 368 
Q 186 800 186 1459 
Q 186 2125 582 2534 
Q 979 2944 1626 2944 
Q 2221 2944 2614 2537 
Q 3008 2131 3008 1478 
z
M 2432 1306 
Q 2432 2035 2112 2445 
Q 1856 2765 1504 2765 
Q 1171 2765 966 2493 
Q 762 2221 762 1747 
Q 762 928 1101 435 
Q 1318 115 1677 115 
Q 2029 115 2230 432 
Q 2432 749 2432 1306 
z
" transform="scale(0.015625)"/>
       <path id="STIXGeneral-Regular-20" transform="scale(0.015625)"/>
       <path id="STIXGeneral-Regular-56" d="M 4461 4237 
L 4461 4115 
Q 4262 4109 4134 3990 
Q 4006 3872 3872 3533 
L 2451 -70 
L 2355 -70 
L 794 3411 
Q 589 3866 467 3987 
Q 346 4109 102 4115 
L 102 4237 
L 1798 4237 
L 1798 4115 
L 1619 4102 
Q 1331 4083 1331 3904 
Q 1331 3776 1581 3219 
L 2554 1030 
L 3494 3392 
Q 3616 3699 3616 3853 
Q 3616 3898 3606 3933 
Q 3597 3968 3584 3993 
Q 3571 4019 3536 4038 
Q 3501 4058 3481 4067 
Q 3462 4077 3411 4086 
Q 3360 4096 3337 4099 
Q 3315 4102 3248 4108 
Q 3181 4115 3155 4115 
L 3155 4237 
L 4461 4237 
z
" transform="scale(0.015625)"/>
       <path id="STIXGeneral-Regular-6c" d="M 1645 0 
L 134 0 
L 134 96 
Q 435 122 531 221 
Q 627 320 627 589 
L 627 3590 
Q 627 3821 569 3910 
Q 512 4000 358 4000 
Q 224 4000 122 3987 
L 122 4090 
Q 730 4237 1133 4371 
L 1165 4346 
L 1165 557 
Q 1165 288 1254 201 
Q 1344 115 1645 96 
L 1645 0 
z
" transform="scale(0.015625)"/>
      </defs>
      <use xlink:href="#STIXGeneral-Regular-57"/>
      <use xlink:href="#STIXGeneral-Regular-61" transform="translate(94.399994 0)"/>
      <use xlink:href="#STIXGeneral-Regular-76" transform="translate(138.799988 0)"/>
      <use xlink:href="#STIXGeneral-Regular-65" transform="translate(188.799973 0)"/>
      <use xlink:href="#STIXGeneral-Regular-66" transform="translate(233.199966 0)"/>
      <use xlink:href="#STIXGeneral-Regular-75" transform="translate(266.499954 0)"/>
      <use xlink:href="#STIXGeneral-Regular-6e" transform="translate(316.499939 0)"/>
      <use xlink:href="#STIXGeneral-Regular-63" transform="translate(366.499924 0)"/>
      <use xlink:href="#STIXGeneral-Regular-74" transform="translate(410.899918 0)"/>
      <use xlink:href="#STIXGeneral-Regular-69" transform="translate(438.699905 0)"/>
      <use xlink:href="#STIXGeneral-Regular-6f" transform="translate(466.499893 0)"/>
      <use xlink:href="#STIXGeneral-Regular-6e" transform="translate(516.499878 0)"/>
      <use xlink:href="#STIXGeneral-Regular-20" transform="translate(566.499863 0)"/>
      <use xlink:href="#STIXGeneral-Regular-56" transform="translate(591.499847 0)"/>
      <use xlink:href="#STIXGeneral-Regular-61" transform="translate(663.699829 0)"/>
      <use xlink:href="#STIXGeneral-Regular-6c" transform="translate(708.099823 0)"/>
      <use xlink:href="#STIXGeneral-Regular-75" transform="translate(735.899811 0)"/>
      <use xlink:href="#STIXGeneral-Regular-65" transform="translate(785.899796 0)"/>
     </g>
    </g>
   </g>
   <g id="line2d_29">
    <path d="M 68.578381 168.047061 
L 73.870484 124.434117 
L 76.957545 100.919176 
L 79.162588 85.624118 
L 81.367631 71.917042 
L 83.131665 62.273354 
L 84.8957 53.934655 
L 86.218726 48.599561 
L 87.541751 44.09379 
L 88.864777 40.448627 
L 89.746795 38.509383 
L 90.628812 36.969992 
L 91.510829 35.835206 
L 92.392846 35.108527 
L 93.274864 34.792199 
L 94.156881 34.887199 
L 95.038898 35.393232 
L 95.920915 36.308737 
L 96.802933 37.630888 
L 97.68495 39.355604 
L 98.566967 41.477561 
L 99.889993 45.390665 
L 101.213019 50.155371 
L 102.536045 55.7386 
L 104.300079 64.388376 
L 106.064114 74.317047 
L 107.828148 85.402116 
L 110.033191 100.675067 
L 112.679243 120.688253 
L 116.207312 149.313441 
L 124.586476 218.324842 
L 127.232527 238.10688 
L 129.437571 253.129948 
L 131.642614 266.513787 
L 133.406648 275.866141 
L 135.170683 283.888272 
L 136.493709 288.97172 
L 137.816734 293.215587 
L 139.13976 296.59041 
L 140.021777 298.345664 
L 140.903795 299.698716 
L 141.785812 300.64539 
L 142.667829 301.182764 
L 143.549846 301.309178 
L 144.431864 301.024243 
L 145.313881 300.328837 
L 146.195898 299.225108 
L 147.077915 297.716463 
L 147.959933 295.807558 
L 149.282959 292.206936 
L 150.605984 287.744272 
L 151.92901 282.450551 
L 153.252036 276.362527 
L 155.016071 267.083393 
L 156.780105 256.582394 
L 158.985148 241.936575 
L 161.6312 222.5093 
L 164.71826 197.976093 
L 176.184485 104.640109 
L 178.830536 86.069232 
L 181.035579 72.309571 
L 182.799614 62.618316 
L 184.563648 54.227795 
L 185.886674 48.851423 
L 187.2097 44.302626 
L 188.532726 40.612987 
L 189.414743 38.643439 
L 190.29676 37.07333 
L 191.178778 35.907507 
L 192.060795 35.149569 
L 192.942812 34.801854 
L 193.824829 34.865437 
L 194.706847 35.340121 
L 195.588864 36.224441 
L 196.470881 37.515667 
L 197.352898 39.209813 
L 198.234916 41.301651 
L 199.557941 45.170622 
L 200.880967 49.892724 
L 202.203993 55.435172 
L 203.968028 64.033897 
L 205.732062 73.91589 
L 207.496097 84.959231 
L 209.70114 100.187759 
L 212.347192 120.160095 
L 215.875261 148.753729 
L 224.254424 217.800681 
L 226.900476 237.625199 
L 229.105519 252.69393 
L 231.310562 266.131832 
L 233.074597 275.53279 
L 234.838631 283.607638 
L 236.161657 288.732932 
L 237.484683 293.020304 
L 238.807709 296.439987 
L 239.689726 298.225748 
L 240.571743 299.609678 
L 241.453761 300.587504 
L 242.335778 301.156208 
L 243.217795 301.314034 
L 244.099812 301.060496 
L 244.98183 300.396376 
L 245.863847 299.323724 
L 246.745864 297.845852 
L 247.627881 295.96732 
L 248.950907 292.411305 
L 250.273933 287.991829 
L 251.596959 282.739576 
L 252.919985 276.691013 
L 254.684019 267.460903 
L 256.448054 257.00427 
L 258.653097 242.40653 
L 261.299149 223.02493 
L 264.386209 198.526874 
L 272.765373 129.573556 
L 273.206381 127.821925 
L 273.64739 127.387517 
L 274.088399 128.284555 
L 274.529407 130.483666 
L 274.970416 133.912836 
L 275.852433 143.975584 
L 277.175459 164.407727 
L 278.939493 192.185439 
L 279.821511 202.226394 
L 280.262519 205.642258 
L 280.703528 207.827022 
L 281.144537 208.709141 
L 281.585545 208.25973 
L 282.026554 206.493506 
L 282.467562 203.468305 
L 283.34958 194.075214 
L 284.231597 181.300736 
L 286.877649 140.158422 
L 287.759666 131.470355 
L 288.200675 128.860606 
L 288.641683 127.534065 
L 289.082692 127.534172 
L 289.5237 128.860924 
L 289.964709 131.470874 
L 290.405718 135.278557 
L 291.287735 145.953233 
L 292.610761 166.805625 
L 293.933787 188.015944 
L 294.815804 199.283952 
L 295.256813 203.468889 
L 295.697821 206.493894 
L 296.13883 208.259909 
L 296.579838 208.709106 
L 297.020847 207.826773 
L 297.461856 205.641805 
L 297.902864 202.225751 
L 298.784882 192.184484 
L 300.107907 171.767926 
L 301.871942 143.974628 
L 302.753959 133.912191 
L 303.194968 130.48321 
L 303.635976 128.284305 
L 304.076985 127.387479 
L 304.517994 127.822102 
L 304.959002 129.573941 
L 305.841019 136.166851 
L 311.574132 183.95044 
L 315.543209 216.197411 
L 318.189261 236.149032 
L 320.394304 251.355128 
L 322.599347 264.956188 
L 324.363382 274.504148 
L 326.127416 282.738688 
L 327.450442 287.990899 
L 328.773468 292.410341 
L 330.096494 295.966329 
L 330.978511 297.844846 
L 331.860528 299.322708 
L 332.742545 300.395351 
L 333.624563 301.059466 
L 334.50658 301.313002 
L 335.388597 301.155176 
L 336.270614 300.586477 
L 337.152632 299.608659 
L 338.034649 298.22474 
L 338.916666 296.438993 
L 339.798683 294.256929 
L 341.121709 290.255804 
L 342.444735 285.406183 
L 343.767761 279.741738 
L 345.531795 270.990396 
L 347.29583 260.968985 
L 349.500873 246.845915 
L 351.705916 231.204685 
L 354.351968 210.857256 
L 358.321046 178.296478 
L 364.936175 123.633812 
L 368.023235 100.188285 
L 370.228278 84.959875 
L 372.433321 71.332245 
L 374.197356 61.760307 
L 375.96139 53.499688 
L 377.284416 48.22673 
L 378.607442 43.785684 
L 379.930468 40.207386 
L 380.812485 38.313678 
L 381.694502 36.820427 
L 382.57652 35.732242 
L 383.458537 35.052483 
L 384.340554 34.783248 
L 385.222571 34.925368 
L 386.104589 35.478403 
L 386.986606 36.440648 
L 387.868623 37.809131 
L 388.75064 39.579629 
L 389.632658 41.746677 
L 390.955684 45.725816 
L 392.278709 50.554231 
L 393.601735 56.1984 
L 395.36577 64.924392 
L 397.129804 74.922666 
L 399.334847 89.020358 
L 401.53989 104.6406 
L 404.185942 124.969201 
L 408.15502 157.515758 
L 414.770149 212.193627 
L 417.85721 235.662338 
L 420.062253 250.912993 
L 422.267296 264.567131 
L 424.03133 274.163004 
L 425.795365 282.449665 
L 427.118391 287.743345 
L 428.441416 292.205974 
L 429.764442 295.806568 
L 430.64646 297.715458 
L 431.528477 299.224092 
L 432.410494 300.327812 
L 433.292511 301.023213 
L 434.174529 301.308146 
L 435.056546 301.181733 
L 435.938563 300.644363 
L 436.82058 299.697697 
L 437.702598 298.344655 
L 438.584615 296.589414 
L 439.466632 294.437393 
L 440.789658 290.480258 
L 442.112684 285.673069 
L 443.43571 280.049203 
L 445.199744 271.348599 
L 446.963779 261.373507 
L 449.168822 247.301256 
L 451.373865 231.702073 
L 454.019917 211.392391 
L 457.988994 178.860202 
L 465.045132 120.68862 
L 467.691184 100.675588 
L 469.896227 85.402757 
L 472.10127 71.722172 
L 473.865305 62.102407 
L 475.629339 53.789741 
L 476.952365 48.475362 
L 478.275391 43.99117 
L 479.598417 40.368297 
L 480.480434 38.444233 
L 481.362451 36.920223 
L 482.244468 35.800972 
L 483.126486 35.089934 
L 484.008503 34.789304 
L 484.89052 34.90001 
L 485.772537 35.42171 
L 486.654555 36.352795 
L 487.536572 37.690389 
L 488.418589 39.430365 
L 489.300606 41.567351 
L 490.623632 45.502464 
L 491.946658 50.288404 
L 493.269684 55.891942 
L 495.033718 64.567118 
L 496.797753 74.518983 
L 499.002796 88.56573 
L 501.207839 104.143785 
L 503.853891 124.434455 
L 507.822968 156.952131 
L 509.145994 168.047061 
L 509.145994 168.047061 
" clip-path="url(#pc044a77053)" style="fill: none; stroke: #0000ff; stroke-width: 1.5; stroke-linecap: square"/>
   </g>
   <g id="line2d_30">
    <path d="M 68.578381 168.047061 
L 73.870484 179.630071 
L 76.957545 185.875322 
L 79.603596 190.701676 
L 81.808639 194.24904 
L 83.572674 196.726428 
L 85.336708 198.849983 
L 87.100743 200.593506 
L 88.423769 201.638627 
L 89.746795 202.450521 
L 91.06982 203.023553 
L 92.392846 203.353743 
L 93.715872 203.438798 
L 95.038898 203.278129 
L 96.361924 202.87285 
L 97.68495 202.225776 
L 99.007976 201.3414 
L 100.331001 200.22586 
L 102.095036 198.392499 
L 103.85907 196.18475 
L 105.623105 193.629851 
L 107.828148 189.996444 
L 110.033191 185.940154 
L 112.679243 180.624922 
L 116.207312 173.022458 
L 124.586476 154.69396 
L 127.232527 149.440118 
L 129.437571 145.450193 
L 131.642614 141.895626 
L 133.406648 139.411767 
L 135.170683 137.281197 
L 136.934717 135.530203 
L 138.257743 134.479233 
L 139.580769 133.661325 
L 140.903795 133.082157 
L 142.226821 132.74575 
L 143.549846 132.65444 
L 144.872872 132.808861 
L 146.195898 133.207941 
L 147.518924 133.848908 
L 148.84195 134.727314 
L 150.164976 135.837059 
L 151.92901 137.663037 
L 153.693045 139.863879 
L 155.457079 142.412433 
L 157.662122 146.038816 
L 159.867165 150.089216 
L 162.513217 155.399036 
L 166.041286 162.997327 
L 174.861459 182.23683 
L 177.50751 187.420434 
L 179.712553 191.335494 
L 181.917597 194.801873 
L 183.681631 197.206723 
L 185.445666 199.251814 
L 187.2097 200.911914 
L 188.532726 201.891832 
L 189.855752 202.636767 
L 191.178778 203.141544 
L 192.501804 203.402661 
L 193.824829 203.418304 
L 195.147855 203.188365 
L 196.470881 202.714439 
L 197.793907 201.999818 
L 199.116933 201.049462 
L 200.439959 199.869972 
L 202.203993 197.95526 
L 203.968028 195.671555 
L 205.732062 193.047031 
L 207.937105 189.336797 
L 210.583157 184.349951 
L 213.670217 177.971156 
L 218.521312 167.289034 
L 223.813416 155.750421 
L 226.900476 149.568046 
L 229.546528 144.815229 
L 231.751571 141.341472 
L 233.515605 138.930029 
L 235.27964 136.877819 
L 237.043674 135.210162 
L 238.3667 134.224344 
L 239.689726 133.473357 
L 241.012752 132.962416 
L 242.335778 132.695067 
L 243.658804 132.673167 
L 244.98183 132.896868 
L 246.304855 133.364616 
L 247.627881 134.073165 
L 248.950907 135.017595 
L 250.273933 136.191348 
L 252.037968 138.09877 
L 253.802002 140.375681 
L 255.566037 142.993989 
L 257.77108 146.697382 
L 260.417131 151.677554 
L 263.504192 158.050906 
L 268.355287 168.730009 
L 272.324364 177.465506 
L 272.765373 178.265105 
L 273.206381 178.730315 
L 273.64739 178.845688 
L 274.088399 178.607446 
L 274.529407 178.023392 
L 274.970416 177.112651 
L 275.852433 174.440121 
L 277.175459 169.013619 
L 278.939493 161.636233 
L 279.821511 158.969491 
L 280.262519 158.062284 
L 280.703528 157.48204 
L 281.144537 157.247761 
L 281.585545 157.367118 
L 282.026554 157.836204 
L 282.467562 158.639656 
L 283.34958 161.134335 
L 284.231597 164.527064 
L 286.877649 175.453907 
L 287.759666 177.761341 
L 288.200675 178.454455 
L 288.641683 178.806766 
L 289.082692 178.806738 
L 289.5237 178.45437 
L 289.964709 177.761203 
L 290.405718 176.749934 
L 291.287735 173.914884 
L 292.610761 168.37677 
L 293.933787 162.743595 
L 294.815804 159.750964 
L 295.256813 158.639501 
L 295.697821 157.836101 
L 296.13883 157.367071 
L 296.579838 157.24777 
L 297.020847 157.482106 
L 297.461856 158.062404 
L 297.902864 158.969662 
L 298.784882 161.636487 
L 300.107907 167.058849 
L 301.871942 174.440375 
L 302.753959 177.112822 
L 303.194968 178.023513 
L 303.635976 178.607513 
L 304.076985 178.845698 
L 304.517994 178.730268 
L 304.959002 178.265003 
L 305.841019 176.51501 
L 312.01514 162.84815 
L 315.984218 154.345488 
L 318.63027 149.11969 
L 320.835313 145.159964 
L 323.040356 141.641186 
L 324.80439 139.189524 
L 326.568425 137.093893 
L 328.332459 135.380149 
L 329.655485 134.358358 
L 330.978511 133.570467 
L 332.301537 133.021948 
L 333.624563 132.716607 
L 334.947589 132.656566 
L 336.270614 132.842241 
L 337.59364 133.272344 
L 338.916666 133.943887 
L 340.239692 134.852208 
L 341.562718 135.991002 
L 343.326752 137.854015 
L 345.090787 140.089536 
L 346.854821 142.669985 
L 349.059864 146.331726 
L 351.264908 150.41184 
L 353.910959 155.749071 
L 357.880037 164.345249 
L 365.377183 180.76659 
L 368.464244 186.910924 
L 370.669287 190.876814 
L 372.87433 194.402859 
L 374.638365 196.861037 
L 376.402399 198.963721 
L 378.166434 200.68497 
L 379.489459 201.712629 
L 380.812485 202.506548 
L 382.135511 203.061216 
L 383.458537 203.372779 
L 384.781563 203.439077 
L 386.104589 203.259648 
L 387.427615 202.835737 
L 388.75064 202.170289 
L 390.073666 201.267924 
L 391.396692 200.134905 
L 393.160727 198.279242 
L 394.924761 196.050588 
L 396.688796 193.476439 
L 398.893839 189.821658 
L 401.098882 185.747361 
L 403.744934 180.415448 
L 407.714011 171.823556 
L 415.211158 155.397647 
L 418.298218 149.246791 
L 420.503261 145.274756 
L 422.708304 141.741458 
L 424.472339 139.276775 
L 426.236373 137.167047 
L 428.000408 135.438302 
L 429.323434 134.404779 
L 430.64646 133.604835 
L 431.969485 133.044023 
L 433.292511 132.726237 
L 434.615537 132.653683 
L 435.938563 132.826866 
L 437.261589 133.244582 
L 438.584615 133.903932 
L 439.907641 134.800338 
L 441.230666 135.927576 
L 442.994701 137.77588 
L 444.758735 139.997657 
L 446.52277 142.565494 
L 448.727813 146.213301 
L 450.932856 150.281762 
L 453.578908 155.608333 
L 457.106977 163.219876 
L 465.486141 181.540613 
L 468.132192 186.783654 
L 470.337236 190.761816 
L 472.542279 194.302349 
L 474.306313 196.773527 
L 476.070348 198.89029 
L 477.834382 200.626523 
L 479.157408 201.665904 
L 480.480434 202.471871 
L 481.80346 203.038825 
L 483.126486 203.362832 
L 484.449511 203.441641 
L 485.772537 203.274706 
L 487.095563 202.863185 
L 488.418589 202.209936 
L 489.741615 201.319495 
L 491.064641 200.198042 
L 492.828675 198.357105 
L 494.59271 196.142216 
L 496.356744 193.580701 
L 498.561787 189.939887 
L 500.76683 185.87728 
L 503.412882 180.556074 
L 506.940951 172.948636 
L 509.145994 168.047061 
L 509.145994 168.047061 
" clip-path="url(#pc044a77053)" style="fill: none; stroke-dasharray: 5.55,2.4; stroke-dashoffset: 0; stroke: #ff0000; stroke-width: 1.5"/>
   </g>
   <g id="patch_3">
    <path d="M 46.55 314.640625 
L 46.55 21.455625 
" style="fill: none; stroke: #000000; stroke-width: 0.8; stroke-linejoin: miter; stroke-linecap: square"/>
   </g>
   <g id="patch_4">
    <path d="M 531.174375 314.640625 
L 531.174375 21.455625 
" style="fill: none; stroke: #000000; stroke-width: 0.8; stroke-linejoin: miter; stroke-linecap: square"/>
   </g>
   <g id="patch_5">
    <path d="M 46.55 314.640625 
L 531.174375 314.640625 
" style="fill: none; stroke: #000000; stroke-width: 0.8; stroke-linejoin: miter; stroke-linecap: square"/>
   </g>
   <g id="patch_6">
    <path d="M 46.55 21.455625 
L 531.174375 21.455625 
" style="fill: none; stroke: #000000; stroke-width: 0.8; stroke-linejoin: miter; stroke-linecap: square"/>
   </g>
   <g id="text_17">
    <!-- Wavefunction for Energy = 10.240733799523927 eV -->
    <g transform="translate(159.44125 15.455625) scale(0.12 -0.12)">
     <defs>
      <path id="STIXGeneral-Regular-72" d="M 1024 2931 
L 1024 2342 
Q 1267 2688 1430 2816 
Q 1594 2944 1792 2944 
Q 1958 2944 2051 2854 
Q 2144 2765 2144 2605 
Q 2144 2470 2077 2393 
Q 2010 2317 1894 2317 
Q 1773 2317 1638 2445 
Q 1536 2541 1472 2541 
Q 1338 2541 1181 2355 
Q 1024 2170 1024 2016 
L 1024 576 
Q 1024 301 1133 205 
Q 1242 109 1568 96 
L 1568 0 
L 32 0 
L 32 96 
Q 339 154 412 224 
Q 486 294 486 538 
L 486 2138 
Q 486 2349 438 2435 
Q 390 2522 269 2522 
Q 166 2522 45 2496 
L 45 2598 
Q 448 2726 992 2944 
L 1024 2931 
z
" transform="scale(0.015625)"/>
      <path id="STIXGeneral-Regular-45" d="M 3821 1082 
L 3526 0 
L 77 0 
L 77 122 
Q 442 147 538 252 
Q 634 358 634 730 
L 634 3520 
Q 634 3878 534 3987 
Q 435 4096 77 4115 
L 77 4237 
L 3469 4237 
L 3494 3322 
L 3334 3322 
Q 3264 3750 3085 3872 
Q 2906 3994 2349 3994 
L 1510 3994 
Q 1370 3994 1328 3952 
Q 1286 3910 1286 3763 
L 1286 2355 
L 2253 2355 
Q 2656 2355 2787 2470 
Q 2918 2586 2976 2970 
L 3123 2970 
L 3123 1472 
L 2976 1472 
Q 2918 1875 2790 1984 
Q 2662 2093 2253 2093 
L 1286 2093 
L 1286 538 
Q 1286 346 1420 291 
Q 1555 237 1933 237 
L 2163 237 
Q 2848 237 3136 403 
Q 3424 570 3642 1082 
L 3821 1082 
z
" transform="scale(0.015625)"/>
      <path id="STIXGeneral-Regular-67" d="M 3008 2483 
L 2477 2483 
Q 2598 2208 2598 1946 
Q 2598 1453 2265 1203 
Q 1933 954 1600 954 
Q 1530 954 1357 973 
L 1235 986 
Q 1107 947 979 812 
Q 851 678 851 582 
Q 851 435 1350 410 
L 2176 371 
Q 2528 358 2739 172 
Q 2950 -13 2950 -314 
Q 2950 -685 2566 -986 
Q 2035 -1395 1286 -1395 
Q 826 -1395 502 -1212 
Q 179 -1030 179 -774 
Q 179 -595 320 -419 
Q 461 -243 806 6 
Q 602 102 534 172 
Q 467 243 467 346 
Q 467 531 762 787 
Q 909 915 1037 1043 
Q 717 1203 579 1401 
Q 442 1600 442 1901 
Q 442 2336 752 2640 
Q 1062 2944 1510 2944 
Q 1766 2944 2022 2848 
L 2163 2797 
Q 2349 2733 2515 2733 
L 3008 2733 
L 3008 2483 
z
M 973 2163 
L 973 2144 
Q 973 1683 1155 1398 
Q 1338 1114 1632 1114 
Q 1850 1114 1978 1270 
Q 2106 1427 2106 1690 
Q 2106 2112 1914 2464 
Q 1754 2765 1446 2765 
Q 1222 2765 1097 2605 
Q 973 2445 973 2163 
z
M 2771 -410 
Q 2771 -230 2595 -163 
Q 2419 -96 1978 -96 
Q 1344 -96 941 -13 
Q 749 -243 688 -348 
Q 627 -454 627 -563 
Q 627 -774 880 -902 
Q 1133 -1030 1555 -1030 
Q 2099 -1030 2435 -860 
Q 2771 -691 2771 -410 
z
" transform="scale(0.015625)"/>
      <path id="STIXGeneral-Regular-79" d="M 3040 2880 
L 3040 2784 
Q 2925 2771 2854 2700 
Q 2784 2630 2720 2458 
L 1760 -160 
Q 1510 -838 1257 -1116 
Q 1005 -1395 640 -1395 
Q 435 -1395 313 -1289 
Q 192 -1184 192 -1024 
Q 192 -902 272 -816 
Q 352 -730 467 -730 
Q 653 -730 800 -813 
Q 883 -858 966 -858 
Q 1101 -858 1286 -576 
Q 1376 -448 1459 -211 
Q 1542 26 1542 115 
Q 1542 198 1274 762 
L 429 2566 
Q 346 2752 90 2790 
L 90 2880 
L 1402 2880 
L 1402 2784 
Q 1197 2778 1117 2739 
Q 1037 2701 1037 2611 
Q 1037 2541 1120 2349 
L 1837 749 
L 2458 2515 
Q 2483 2573 2483 2630 
Q 2483 2784 2189 2784 
L 2189 2880 
L 3040 2880 
z
" transform="scale(0.015625)"/>
      <path id="STIXGeneral-Regular-3d" d="M 4077 2048 
L 307 2048 
L 307 2470 
L 4077 2470 
L 4077 2048 
z
M 4077 768 
L 307 768 
L 307 1190 
L 4077 1190 
L 4077 768 
z
" transform="scale(0.015625)"/>
      <path id="STIXGeneral-Regular-34" d="M 3027 1069 
L 2368 1069 
L 2368 0 
L 1869 0 
L 1869 1069 
L 77 1069 
L 77 1478 
L 2086 4326 
L 2368 4326 
L 2368 1478 
L 3027 1478 
L 3027 1069 
z
M 1869 1478 
L 1869 3674 
L 333 1478 
L 1869 1478 
z
" transform="scale(0.015625)"/>
      <path id="STIXGeneral-Regular-37" d="M 2874 4134 
L 1517 -51 
L 1101 -51 
L 2368 3763 
L 992 3763 
Q 717 3763 582 3667 
Q 448 3571 243 3238 
L 128 3296 
L 512 4237 
L 2874 4237 
L 2874 4134 
z
" transform="scale(0.015625)"/>
      <path id="STIXGeneral-Regular-33" d="M 390 3264 
L 288 3290 
Q 435 3770 748 4048 
Q 1062 4326 1542 4326 
Q 1990 4326 2265 4083 
Q 2541 3840 2541 3450 
Q 2541 2925 1946 2566 
Q 2298 2413 2477 2227 
Q 2758 1914 2758 1402 
Q 2758 890 2464 506 
Q 2246 211 1840 60 
Q 1434 -90 979 -90 
Q 262 -90 262 275 
Q 262 378 339 442 
Q 416 506 525 506 
Q 685 506 915 339 
Q 1197 141 1466 141 
Q 1818 141 2058 425 
Q 2298 710 2298 1120 
Q 2298 1856 1632 2048 
Q 1434 2112 979 2112 
L 979 2202 
Q 1338 2323 1517 2432 
Q 2035 2726 2035 3290 
Q 2035 3610 1852 3776 
Q 1670 3942 1344 3942 
Q 768 3942 390 3264 
z
" transform="scale(0.015625)"/>
      <path id="STIXGeneral-Regular-39" d="M 378 -141 
L 358 -13 
Q 1094 115 1603 608 
Q 2112 1101 2304 1882 
Q 1933 1517 1344 1517 
Q 826 1517 509 1875 
Q 192 2234 192 2816 
Q 192 3462 573 3894 
Q 954 4326 1523 4326 
Q 2131 4326 2528 3840 
Q 2938 3328 2938 2522 
Q 2938 1958 2742 1462 
Q 2547 966 2170 621 
Q 1773 262 1395 105 
Q 1018 -51 378 -141 
z
M 2317 2272 
L 2317 2522 
Q 2317 4147 1472 4147 
Q 1171 4147 1005 3930 
Q 909 3802 845 3546 
Q 781 3290 781 3034 
Q 781 2464 995 2128 
Q 1210 1792 1568 1792 
Q 1824 1792 2070 1917 
Q 2317 2042 2317 2272 
z
" transform="scale(0.015625)"/>
     </defs>
     <use xlink:href="#STIXGeneral-Regular-57"/>
     <use xlink:href="#STIXGeneral-Regular-61" transform="translate(94.399994 0)"/>
     <use xlink:href="#STIXGeneral-Regular-76" transform="translate(138.799988 0)"/>
     <use xlink:href="#STIXGeneral-Regular-65" transform="translate(188.799973 0)"/>
     <use xlink:href="#STIXGeneral-Regular-66" transform="translate(233.199966 0)"/>
     <use xlink:href="#STIXGeneral-Regular-75" transform="translate(266.499954 0)"/>
     <use xlink:href="#STIXGeneral-Regular-6e" transform="translate(316.499939 0)"/>
     <use xlink:href="#STIXGeneral-Regular-63" transform="translate(366.499924 0)"/>
     <use xlink:href="#STIXGeneral-Regular-74" transform="translate(410.899918 0)"/>
     <use xlink:href="#STIXGeneral-Regular-69" transform="translate(438.699905 0)"/>
     <use xlink:href="#STIXGeneral-Regular-6f" transform="translate(466.499893 0)"/>
     <use xlink:href="#STIXGeneral-Regular-6e" transform="translate(516.499878 0)"/>
     <use xlink:href="#STIXGeneral-Regular-20" transform="translate(566.499863 0)"/>
     <use xlink:href="#STIXGeneral-Regular-66" transform="translate(591.499847 0)"/>
     <use xlink:href="#STIXGeneral-Regular-6f" transform="translate(624.799835 0)"/>
     <use xlink:href="#STIXGeneral-Regular-72" transform="translate(674.79982 0)"/>
     <use xlink:href="#STIXGeneral-Regular-20" transform="translate(708.099808 0)"/>
     <use xlink:href="#STIXGeneral-Regular-45" transform="translate(733.099792 0)"/>
     <use xlink:href="#STIXGeneral-Regular-6e" transform="translate(794.199783 0)"/>
     <use xlink:href="#STIXGeneral-Regular-65" transform="translate(844.199768 0)"/>
     <use xlink:href="#STIXGeneral-Regular-72" transform="translate(888.599762 0)"/>
     <use xlink:href="#STIXGeneral-Regular-67" transform="translate(921.89975 0)"/>
     <use xlink:href="#STIXGeneral-Regular-79" transform="translate(971.899734 0)"/>
     <use xlink:href="#STIXGeneral-Regular-20" transform="translate(1021.899719 0)"/>
     <use xlink:href="#STIXGeneral-Regular-3d" transform="translate(1046.899704 0)"/>
     <use xlink:href="#STIXGeneral-Regular-20" transform="translate(1115.399689 0)"/>
     <use xlink:href="#STIXGeneral-Regular-31" transform="translate(1140.399673 0)"/>
     <use xlink:href="#STIXGeneral-Regular-30" transform="translate(1190.399658 0)"/>
     <use xlink:href="#STIXGeneral-Regular-2e" transform="translate(1240.399643 0)"/>
     <use xlink:href="#STIXGeneral-Regular-32" transform="translate(1265.399628 0)"/>
     <use xlink:href="#STIXGeneral-Regular-34" transform="translate(1315.399612 0)"/>
     <use xlink:href="#STIXGeneral-Regular-30" transform="translate(1365.399597 0)"/>
     <use xlink:href="#STIXGeneral-Regular-37" transform="translate(1415.399582 0)"/>
     <use xlink:href="#STIXGeneral-Regular-33" transform="translate(1465.399567 0)"/>
     <use xlink:href="#STIXGeneral-Regular-33" transform="translate(1515.399551 0)"/>
     <use xlink:href="#STIXGeneral-Regular-37" transform="translate(1565.399536 0)"/>
     <use xlink:href="#STIXGeneral-Regular-39" transform="translate(1615.399521 0)"/>
     <use xlink:href="#STIXGeneral-Regular-39" transform="translate(1665.399506 0)"/>
     <use xlink:href="#STIXGeneral-Regular-35" transform="translate(1715.39949 0)"/>
     <use xlink:href="#STIXGeneral-Regular-32" transform="translate(1765.399475 0)"/>
     <use xlink:href="#STIXGeneral-Regular-33" transform="translate(1815.39946 0)"/>
     <use xlink:href="#STIXGeneral-Regular-39" transform="translate(1865.399445 0)"/>
     <use xlink:href="#STIXGeneral-Regular-32" transform="translate(1915.399429 0)"/>
     <use xlink:href="#STIXGeneral-Regular-37" transform="translate(1965.399414 0)"/>
     <use xlink:href="#STIXGeneral-Regular-20" transform="translate(2015.399399 0)"/>
     <use xlink:href="#STIXGeneral-Regular-65" transform="translate(2040.399384 0)"/>
     <use xlink:href="#STIXGeneral-Regular-56" transform="translate(2084.799377 0)"/>
    </g>
   </g>
   <g id="legend_1">
    <g id="patch_7">
     <path d="M 243.002031 57.805625 
L 334.722344 57.805625 
Q 336.722344 57.805625 336.722344 55.805625 
L 336.722344 28.455625 
Q 336.722344 26.455625 334.722344 26.455625 
L 243.002031 26.455625 
Q 241.002031 26.455625 241.002031 28.455625 
L 241.002031 55.805625 
Q 241.002031 57.805625 243.002031 57.805625 
z
" style="fill: #ffffff; opacity: 0.8; stroke: #cccccc; stroke-linejoin: miter"/>
    </g>
    <g id="line2d_31">
     <path d="M 245.002031 33.955625 
L 255.002031 33.955625 
L 265.002031 33.955625 
" style="fill: none; stroke: #0000ff; stroke-width: 1.5; stroke-linecap: square"/>
    </g>
    <g id="text_18">
     <!-- Real Part -->
     <g transform="translate(273.002031 37.455625) scale(0.1 -0.1)">
      <defs>
       <path id="STIXGeneral-Regular-52" d="M 4224 0 
L 3187 0 
L 1664 1971 
L 1306 1958 
L 1306 717 
Q 1306 352 1405 249 
Q 1504 147 1875 122 
L 1875 0 
L 109 0 
L 109 122 
Q 474 154 563 262 
Q 653 371 653 794 
L 653 3526 
Q 653 3885 563 3987 
Q 474 4090 109 4115 
L 109 4237 
L 1850 4237 
Q 2726 4237 3187 3859 
Q 3501 3603 3501 3091 
Q 3501 2221 2342 2042 
L 3622 422 
Q 3757 256 3878 198 
Q 4000 141 4224 122 
L 4224 0 
z
M 1306 3731 
L 1306 2195 
Q 1766 2202 1990 2246 
Q 2214 2291 2438 2413 
Q 2803 2618 2803 3142 
Q 2803 4000 1632 4000 
Q 1459 4000 1382 3945 
Q 1306 3891 1306 3731 
z
" transform="scale(0.015625)"/>
       <path id="STIXGeneral-Regular-50" d="M 102 4237 
L 1760 4237 
Q 2669 4237 3149 3834 
Q 3469 3565 3469 3072 
Q 3469 2560 3104 2234 
Q 2835 1990 2553 1916 
Q 2272 1843 1734 1843 
Q 1549 1843 1293 1862 
L 1293 717 
Q 1293 352 1398 246 
Q 1504 141 1894 122 
L 1894 0 
L 102 0 
L 102 122 
Q 474 147 557 256 
Q 640 365 640 781 
L 640 3526 
Q 640 3885 547 3987 
Q 454 4090 102 4115 
L 102 4237 
z
M 1293 3770 
L 1293 2118 
Q 1510 2099 1683 2099 
Q 2202 2099 2486 2352 
Q 2771 2605 2771 3040 
Q 2771 3558 2476 3779 
Q 2182 4000 1517 4000 
Q 1382 4000 1337 3952 
Q 1293 3904 1293 3770 
z
" transform="scale(0.015625)"/>
      </defs>
      <use xlink:href="#STIXGeneral-Regular-52"/>
      <use xlink:href="#STIXGeneral-Regular-65" transform="translate(66.699997 0)"/>
      <use xlink:href="#STIXGeneral-Regular-61" transform="translate(111.099991 0)"/>
      <use xlink:href="#STIXGeneral-Regular-6c" transform="translate(155.499985 0)"/>
      <use xlink:href="#STIXGeneral-Regular-20" transform="translate(183.299973 0)"/>
      <use xlink:href="#STIXGeneral-Regular-50" transform="translate(208.299957 0)"/>
      <use xlink:href="#STIXGeneral-Regular-61" transform="translate(263.999954 0)"/>
      <use xlink:href="#STIXGeneral-Regular-72" transform="translate(308.399948 0)"/>
      <use xlink:href="#STIXGeneral-Regular-74" transform="translate(341.699936 0)"/>
     </g>
    </g>
    <g id="line2d_32">
     <path d="M 245.002031 48.125937 
L 255.002031 48.125937 
L 265.002031 48.125937 
" style="fill: none; stroke-dasharray: 5.55,2.4; stroke-dashoffset: 0; stroke: #ff0000; stroke-width: 1.5"/>
    </g>
    <g id="text_19">
     <!-- Imaginary Part -->
     <g transform="translate(273.002031 51.625937) scale(0.1 -0.1)">
      <defs>
       <path id="STIXGeneral-Regular-49" d="M 2016 0 
L 115 0 
L 115 122 
Q 518 134 627 240 
Q 736 346 736 717 
L 736 3526 
Q 736 3898 633 3994 
Q 531 4090 115 4115 
L 115 4237 
L 2016 4237 
L 2016 4115 
Q 1613 4096 1501 3993 
Q 1389 3891 1389 3526 
L 1389 717 
Q 1389 358 1504 246 
Q 1619 134 2016 122 
L 2016 0 
z
" transform="scale(0.015625)"/>
       <path id="STIXGeneral-Regular-6d" d="M 4960 0 
L 3565 0 
L 3565 96 
Q 3834 122 3907 208 
Q 3981 294 3981 576 
L 3981 1894 
Q 3981 2278 3869 2444 
Q 3757 2611 3488 2611 
Q 3264 2611 3107 2521 
Q 2950 2432 2803 2221 
L 2803 608 
Q 2803 301 2896 201 
Q 2989 102 3264 96 
L 3264 0 
L 1830 0 
L 1830 96 
Q 2112 115 2189 188 
Q 2266 262 2266 550 
L 2266 1901 
Q 2266 2611 1850 2611 
Q 1670 2611 1468 2531 
Q 1267 2451 1171 2336 
Q 1088 2240 1088 2227 
L 1088 448 
Q 1088 243 1177 176 
Q 1267 109 1523 96 
L 1523 0 
L 102 0 
L 102 96 
Q 371 102 460 195 
Q 550 288 550 563 
L 550 2150 
Q 550 2387 499 2480 
Q 448 2573 326 2573 
Q 230 2573 122 2547 
L 122 2656 
Q 557 2778 1011 2944 
L 1062 2925 
L 1062 2451 
L 1075 2451 
Q 1363 2752 1584 2848 
Q 1805 2944 2054 2944 
Q 2560 2944 2733 2406 
Q 3232 2944 3776 2944 
Q 4518 2944 4518 1792 
L 4518 493 
Q 4518 282 4582 202 
Q 4646 122 4794 109 
L 4960 96 
L 4960 0 
z
" transform="scale(0.015625)"/>
      </defs>
      <use xlink:href="#STIXGeneral-Regular-49"/>
      <use xlink:href="#STIXGeneral-Regular-6d" transform="translate(33.299988 0)"/>
      <use xlink:href="#STIXGeneral-Regular-61" transform="translate(111.099976 0)"/>
      <use xlink:href="#STIXGeneral-Regular-67" transform="translate(155.499969 0)"/>
      <use xlink:href="#STIXGeneral-Regular-69" transform="translate(205.499954 0)"/>
      <use xlink:href="#STIXGeneral-Regular-6e" transform="translate(233.299942 0)"/>
      <use xlink:href="#STIXGeneral-Regular-61" transform="translate(283.299927 0)"/>
      <use xlink:href="#STIXGeneral-Regular-72" transform="translate(327.699921 0)"/>
      <use xlink:href="#STIXGeneral-Regular-79" transform="translate(360.999908 0)"/>
      <use xlink:href="#STIXGeneral-Regular-20" transform="translate(410.999893 0)"/>
      <use xlink:href="#STIXGeneral-Regular-50" transform="translate(435.999878 0)"/>
      <use xlink:href="#STIXGeneral-Regular-61" transform="translate(491.699875 0)"/>
      <use xlink:href="#STIXGeneral-Regular-72" transform="translate(536.099869 0)"/>
      <use xlink:href="#STIXGeneral-Regular-74" transform="translate(569.399857 0)"/>
     </g>
    </g>
   </g>
  </g>
  <g id="axes_2">
   <g id="patch_8">
    <path d="M 580.255625 314.640625 
L 1064.88 314.640625 
L 1064.88 21.455625 
L 580.255625 21.455625 
z
" style="fill: #ffffff"/>
   </g>
   <g id="matplotlib.axis_3">
    <g id="xtick_10">
     <g id="line2d_33">
      <path d="M 602.284006 314.640625 
L 602.284006 21.455625 
" clip-path="url(#pd794a5615e)" style="fill: none; stroke: #b0b0b0; stroke-width: 0.8; stroke-linecap: square"/>
     </g>
     <g id="line2d_34">
      <g>
       <use xlink:href="#mad0207928b" x="602.284006" y="314.640625" style="stroke: #000000; stroke-width: 0.8"/>
      </g>
     </g>
     <g id="text_20">
      <!-- −20 -->
      <g transform="translate(593.859006 328.470312) scale(0.1 -0.1)">
       <use xlink:href="#STIXGeneral-Regular-2212"/>
       <use xlink:href="#STIXGeneral-Regular-32" transform="translate(68.499985 0)"/>
       <use xlink:href="#STIXGeneral-Regular-30" transform="translate(118.499969 0)"/>
      </g>
     </g>
    </g>
    <g id="xtick_11">
     <g id="line2d_35">
      <path d="M 657.354957 314.640625 
L 657.354957 21.455625 
" clip-path="url(#pd794a5615e)" style="fill: none; stroke: #b0b0b0; stroke-width: 0.8; stroke-linecap: square"/>
     </g>
     <g id="line2d_36">
      <g>
       <use xlink:href="#mad0207928b" x="657.354957" y="314.640625" style="stroke: #000000; stroke-width: 0.8"/>
      </g>
     </g>
     <g id="text_21">
      <!-- −15 -->
      <g transform="translate(648.929957 328.470312) scale(0.1 -0.1)">
       <use xlink:href="#STIXGeneral-Regular-2212"/>
       <use xlink:href="#STIXGeneral-Regular-31" transform="translate(68.499985 0)"/>
       <use xlink:href="#STIXGeneral-Regular-35" transform="translate(118.499969 0)"/>
      </g>
     </g>
    </g>
    <g id="xtick_12">
     <g id="line2d_37">
      <path d="M 712.425909 314.640625 
L 712.425909 21.455625 
" clip-path="url(#pd794a5615e)" style="fill: none; stroke: #b0b0b0; stroke-width: 0.8; stroke-linecap: square"/>
     </g>
     <g id="line2d_38">
      <g>
       <use xlink:href="#mad0207928b" x="712.425909" y="314.640625" style="stroke: #000000; stroke-width: 0.8"/>
      </g>
     </g>
     <g id="text_22">
      <!-- −10 -->
      <g transform="translate(704.000909 328.470312) scale(0.1 -0.1)">
       <use xlink:href="#STIXGeneral-Regular-2212"/>
       <use xlink:href="#STIXGeneral-Regular-31" transform="translate(68.499985 0)"/>
       <use xlink:href="#STIXGeneral-Regular-30" transform="translate(118.499969 0)"/>
      </g>
     </g>
    </g>
    <g id="xtick_13">
     <g id="line2d_39">
      <path d="M 767.496861 314.640625 
L 767.496861 21.455625 
" clip-path="url(#pd794a5615e)" style="fill: none; stroke: #b0b0b0; stroke-width: 0.8; stroke-linecap: square"/>
     </g>
     <g id="line2d_40">
      <g>
       <use xlink:href="#mad0207928b" x="767.496861" y="314.640625" style="stroke: #000000; stroke-width: 0.8"/>
      </g>
     </g>
     <g id="text_23">
      <!-- −5 -->
      <g transform="translate(761.571861 328.470312) scale(0.1 -0.1)">
       <use xlink:href="#STIXGeneral-Regular-2212"/>
       <use xlink:href="#STIXGeneral-Regular-35" transform="translate(68.499985 0)"/>
      </g>
     </g>
    </g>
    <g id="xtick_14">
     <g id="line2d_41">
      <path d="M 822.567813 314.640625 
L 822.567813 21.455625 
" clip-path="url(#pd794a5615e)" style="fill: none; stroke: #b0b0b0; stroke-width: 0.8; stroke-linecap: square"/>
     </g>
     <g id="line2d_42">
      <g>
       <use xlink:href="#mad0207928b" x="822.567813" y="314.640625" style="stroke: #000000; stroke-width: 0.8"/>
      </g>
     </g>
     <g id="text_24">
      <!-- 0 -->
      <g transform="translate(820.067813 328.470312) scale(0.1 -0.1)">
       <use xlink:href="#STIXGeneral-Regular-30"/>
      </g>
     </g>
    </g>
    <g id="xtick_15">
     <g id="line2d_43">
      <path d="M 877.638764 314.640625 
L 877.638764 21.455625 
" clip-path="url(#pd794a5615e)" style="fill: none; stroke: #b0b0b0; stroke-width: 0.8; stroke-linecap: square"/>
     </g>
     <g id="line2d_44">
      <g>
       <use xlink:href="#mad0207928b" x="877.638764" y="314.640625" style="stroke: #000000; stroke-width: 0.8"/>
      </g>
     </g>
     <g id="text_25">
      <!-- 5 -->
      <g transform="translate(875.138764 328.470312) scale(0.1 -0.1)">
       <use xlink:href="#STIXGeneral-Regular-35"/>
      </g>
     </g>
    </g>
    <g id="xtick_16">
     <g id="line2d_45">
      <path d="M 932.709716 314.640625 
L 932.709716 21.455625 
" clip-path="url(#pd794a5615e)" style="fill: none; stroke: #b0b0b0; stroke-width: 0.8; stroke-linecap: square"/>
     </g>
     <g id="line2d_46">
      <g>
       <use xlink:href="#mad0207928b" x="932.709716" y="314.640625" style="stroke: #000000; stroke-width: 0.8"/>
      </g>
     </g>
     <g id="text_26">
      <!-- 10 -->
      <g transform="translate(927.709716 328.470312) scale(0.1 -0.1)">
       <use xlink:href="#STIXGeneral-Regular-31"/>
       <use xlink:href="#STIXGeneral-Regular-30" transform="translate(49.999985 0)"/>
      </g>
     </g>
    </g>
    <g id="xtick_17">
     <g id="line2d_47">
      <path d="M 987.780668 314.640625 
L 987.780668 21.455625 
" clip-path="url(#pd794a5615e)" style="fill: none; stroke: #b0b0b0; stroke-width: 0.8; stroke-linecap: square"/>
     </g>
     <g id="line2d_48">
      <g>
       <use xlink:href="#mad0207928b" x="987.780668" y="314.640625" style="stroke: #000000; stroke-width: 0.8"/>
      </g>
     </g>
     <g id="text_27">
      <!-- 15 -->
      <g transform="translate(982.780668 328.470312) scale(0.1 -0.1)">
       <use xlink:href="#STIXGeneral-Regular-31"/>
       <use xlink:href="#STIXGeneral-Regular-35" transform="translate(49.999985 0)"/>
      </g>
     </g>
    </g>
    <g id="xtick_18">
     <g id="line2d_49">
      <path d="M 1042.851619 314.640625 
L 1042.851619 21.455625 
" clip-path="url(#pd794a5615e)" style="fill: none; stroke: #b0b0b0; stroke-width: 0.8; stroke-linecap: square"/>
     </g>
     <g id="line2d_50">
      <g>
       <use xlink:href="#mad0207928b" x="1042.851619" y="314.640625" style="stroke: #000000; stroke-width: 0.8"/>
      </g>
     </g>
     <g id="text_28">
      <!-- 20 -->
      <g transform="translate(1037.851619 328.470312) scale(0.1 -0.1)">
       <use xlink:href="#STIXGeneral-Regular-32"/>
       <use xlink:href="#STIXGeneral-Regular-30" transform="translate(49.999985 0)"/>
      </g>
     </g>
    </g>
    <g id="text_29">
     <!-- x -->
     <g transform="translate(820.067813 341.470312) scale(0.1 -0.1)">
      <use xlink:href="#STIXGeneral-Regular-78"/>
     </g>
    </g>
   </g>
   <g id="matplotlib.axis_4">
    <g id="ytick_6">
     <g id="line2d_51">
      <path d="M 580.255625 301.314034 
L 1064.88 301.314034 
" clip-path="url(#pd794a5615e)" style="fill: none; stroke: #b0b0b0; stroke-width: 0.8; stroke-linecap: square"/>
     </g>
     <g id="line2d_52">
      <g>
       <use xlink:href="#m5066f7e933" x="580.255625" y="301.314034" style="stroke: #000000; stroke-width: 0.8"/>
      </g>
     </g>
     <g id="text_30">
      <!-- 0.00 -->
      <g transform="translate(555.755625 304.728878) scale(0.1 -0.1)">
       <use xlink:href="#STIXGeneral-Regular-30"/>
       <use xlink:href="#STIXGeneral-Regular-2e" transform="translate(49.999985 0)"/>
       <use xlink:href="#STIXGeneral-Regular-30" transform="translate(74.999969 0)"/>
       <use xlink:href="#STIXGeneral-Regular-30" transform="translate(124.999954 0)"/>
      </g>
     </g>
    </g>
    <g id="ytick_7">
     <g id="line2d_53">
      <path d="M 580.255625 252.596575 
L 1064.88 252.596575 
" clip-path="url(#pd794a5615e)" style="fill: none; stroke: #b0b0b0; stroke-width: 0.8; stroke-linecap: square"/>
     </g>
     <g id="line2d_54">
      <g>
       <use xlink:href="#m5066f7e933" x="580.255625" y="252.596575" style="stroke: #000000; stroke-width: 0.8"/>
      </g>
     </g>
     <g id="text_31">
      <!-- 0.01 -->
      <g transform="translate(555.755625 256.011418) scale(0.1 -0.1)">
       <use xlink:href="#STIXGeneral-Regular-30"/>
       <use xlink:href="#STIXGeneral-Regular-2e" transform="translate(49.999985 0)"/>
       <use xlink:href="#STIXGeneral-Regular-30" transform="translate(74.999969 0)"/>
       <use xlink:href="#STIXGeneral-Regular-31" transform="translate(124.999954 0)"/>
      </g>
     </g>
    </g>
    <g id="ytick_8">
     <g id="line2d_55">
      <path d="M 580.255625 203.879115 
L 1064.88 203.879115 
" clip-path="url(#pd794a5615e)" style="fill: none; stroke: #b0b0b0; stroke-width: 0.8; stroke-linecap: square"/>
     </g>
     <g id="line2d_56">
      <g>
       <use xlink:href="#m5066f7e933" x="580.255625" y="203.879115" style="stroke: #000000; stroke-width: 0.8"/>
      </g>
     </g>
     <g id="text_32">
      <!-- 0.02 -->
      <g transform="translate(555.755625 207.293959) scale(0.1 -0.1)">
       <use xlink:href="#STIXGeneral-Regular-30"/>
       <use xlink:href="#STIXGeneral-Regular-2e" transform="translate(49.999985 0)"/>
       <use xlink:href="#STIXGeneral-Regular-30" transform="translate(74.999969 0)"/>
       <use xlink:href="#STIXGeneral-Regular-32" transform="translate(124.999954 0)"/>
      </g>
     </g>
    </g>
    <g id="ytick_9">
     <g id="line2d_57">
      <path d="M 580.255625 155.161656 
L 1064.88 155.161656 
" clip-path="url(#pd794a5615e)" style="fill: none; stroke: #b0b0b0; stroke-width: 0.8; stroke-linecap: square"/>
     </g>
     <g id="line2d_58">
      <g>
       <use xlink:href="#m5066f7e933" x="580.255625" y="155.161656" style="stroke: #000000; stroke-width: 0.8"/>
      </g>
     </g>
     <g id="text_33">
      <!-- 0.03 -->
      <g transform="translate(555.755625 158.5765) scale(0.1 -0.1)">
       <use xlink:href="#STIXGeneral-Regular-30"/>
       <use xlink:href="#STIXGeneral-Regular-2e" transform="translate(49.999985 0)"/>
       <use xlink:href="#STIXGeneral-Regular-30" transform="translate(74.999969 0)"/>
       <use xlink:href="#STIXGeneral-Regular-33" transform="translate(124.999954 0)"/>
      </g>
     </g>
    </g>
    <g id="ytick_10">
     <g id="line2d_59">
      <path d="M 580.255625 106.444196 
L 1064.88 106.444196 
" clip-path="url(#pd794a5615e)" style="fill: none; stroke: #b0b0b0; stroke-width: 0.8; stroke-linecap: square"/>
     </g>
     <g id="line2d_60">
      <g>
       <use xlink:href="#m5066f7e933" x="580.255625" y="106.444196" style="stroke: #000000; stroke-width: 0.8"/>
      </g>
     </g>
     <g id="text_34">
      <!-- 0.04 -->
      <g transform="translate(555.755625 109.85904) scale(0.1 -0.1)">
       <use xlink:href="#STIXGeneral-Regular-30"/>
       <use xlink:href="#STIXGeneral-Regular-2e" transform="translate(49.999985 0)"/>
       <use xlink:href="#STIXGeneral-Regular-30" transform="translate(74.999969 0)"/>
       <use xlink:href="#STIXGeneral-Regular-34" transform="translate(124.999954 0)"/>
      </g>
     </g>
    </g>
    <g id="ytick_11">
     <g id="line2d_61">
      <path d="M 580.255625 57.726737 
L 1064.88 57.726737 
" clip-path="url(#pd794a5615e)" style="fill: none; stroke: #b0b0b0; stroke-width: 0.8; stroke-linecap: square"/>
     </g>
     <g id="line2d_62">
      <g>
       <use xlink:href="#m5066f7e933" x="580.255625" y="57.726737" style="stroke: #000000; stroke-width: 0.8"/>
      </g>
     </g>
     <g id="text_35">
      <!-- 0.05 -->
      <g transform="translate(555.755625 61.141581) scale(0.1 -0.1)">
       <use xlink:href="#STIXGeneral-Regular-30"/>
       <use xlink:href="#STIXGeneral-Regular-2e" transform="translate(49.999985 0)"/>
       <use xlink:href="#STIXGeneral-Regular-30" transform="translate(74.999969 0)"/>
       <use xlink:href="#STIXGeneral-Regular-35" transform="translate(124.999954 0)"/>
      </g>
     </g>
    </g>
    <g id="text_36">
     <!-- Wavefunction Magnitude -->
     <g transform="translate(549.575938 219.289531) rotate(-90) scale(0.1 -0.1)">
      <defs>
       <path id="STIXGeneral-Regular-4d" d="M 5530 0 
L 3738 0 
L 3738 122 
Q 4115 147 4214 265 
Q 4314 384 4314 787 
L 4314 3661 
L 2682 0 
L 2592 0 
L 979 3514 
L 979 966 
Q 979 448 1088 294 
Q 1197 141 1574 122 
L 1574 0 
L 77 0 
L 77 122 
Q 358 141 480 205 
Q 602 269 650 432 
Q 698 595 698 966 
L 698 3514 
Q 698 3878 589 3984 
Q 480 4090 90 4115 
L 90 4237 
L 1357 4237 
L 2835 1024 
L 4250 4237 
L 5523 4237 
L 5523 4115 
Q 5178 4109 5072 3993 
Q 4966 3878 4966 3520 
L 4966 717 
Q 4966 378 5072 262 
Q 5178 147 5530 122 
L 5530 0 
z
" transform="scale(0.015625)"/>
       <path id="STIXGeneral-Regular-64" d="M 3142 269 
L 2202 -64 
L 2176 -45 
L 2176 365 
Q 1869 -64 1357 -64 
Q 826 -64 499 317 
Q 173 698 173 1312 
Q 173 1990 563 2467 
Q 954 2944 1504 2944 
Q 1850 2944 2176 2669 
L 2176 3667 
Q 2176 3866 2118 3930 
Q 2061 3994 1882 3994 
Q 1792 3994 1741 3987 
L 1741 4090 
Q 2323 4243 2682 4371 
L 2714 4358 
L 2714 730 
Q 2714 506 2768 435 
Q 2822 365 2995 365 
Q 3034 365 3142 371 
L 3142 269 
z
M 2176 653 
L 2176 2125 
Q 2176 2381 1981 2573 
Q 1786 2765 1523 2765 
Q 1158 2765 940 2438 
Q 723 2112 723 1568 
Q 723 979 963 624 
Q 1203 269 1606 269 
Q 1907 269 2080 474 
Q 2176 582 2176 653 
z
" transform="scale(0.015625)"/>
      </defs>
      <use xlink:href="#STIXGeneral-Regular-57"/>
      <use xlink:href="#STIXGeneral-Regular-61" transform="translate(94.399994 0)"/>
      <use xlink:href="#STIXGeneral-Regular-76" transform="translate(138.799988 0)"/>
      <use xlink:href="#STIXGeneral-Regular-65" transform="translate(188.799973 0)"/>
      <use xlink:href="#STIXGeneral-Regular-66" transform="translate(233.199966 0)"/>
      <use xlink:href="#STIXGeneral-Regular-75" transform="translate(266.499954 0)"/>
      <use xlink:href="#STIXGeneral-Regular-6e" transform="translate(316.499939 0)"/>
      <use xlink:href="#STIXGeneral-Regular-63" transform="translate(366.499924 0)"/>
      <use xlink:href="#STIXGeneral-Regular-74" transform="translate(410.899918 0)"/>
      <use xlink:href="#STIXGeneral-Regular-69" transform="translate(438.699905 0)"/>
      <use xlink:href="#STIXGeneral-Regular-6f" transform="translate(466.499893 0)"/>
      <use xlink:href="#STIXGeneral-Regular-6e" transform="translate(516.499878 0)"/>
      <use xlink:href="#STIXGeneral-Regular-20" transform="translate(566.499863 0)"/>
      <use xlink:href="#STIXGeneral-Regular-4d" transform="translate(591.499847 0)"/>
      <use xlink:href="#STIXGeneral-Regular-61" transform="translate(680.399841 0)"/>
      <use xlink:href="#STIXGeneral-Regular-67" transform="translate(724.799835 0)"/>
      <use xlink:href="#STIXGeneral-Regular-6e" transform="translate(774.79982 0)"/>
      <use xlink:href="#STIXGeneral-Regular-69" transform="translate(824.799805 0)"/>
      <use xlink:href="#STIXGeneral-Regular-74" transform="translate(852.599792 0)"/>
      <use xlink:href="#STIXGeneral-Regular-75" transform="translate(880.39978 0)"/>
      <use xlink:href="#STIXGeneral-Regular-64" transform="translate(930.399765 0)"/>
      <use xlink:href="#STIXGeneral-Regular-65" transform="translate(980.39975 0)"/>
     </g>
    </g>
   </g>
   <g id="line2d_63">
    <path d="M 602.284006 301.314034 
L 602.725014 301.108345 
L 603.166023 300.491912 
L 603.607032 299.466639 
L 604.04804 298.035689 
L 604.930057 293.975669 
L 605.812075 288.361942 
L 606.694092 281.263769 
L 608.017118 268.029485 
L 609.340144 252.023184 
L 611.104178 227.145968 
L 613.309221 192.118383 
L 618.601325 105.893716 
L 620.365359 81.434378 
L 621.688385 65.827695 
L 623.011411 53.054795 
L 623.893428 46.292269 
L 624.775445 41.031843 
L 625.657463 37.338419 
L 626.098471 36.094344 
L 626.53948 35.257563 
L 626.980489 34.83066 
L 627.421497 34.81495 
L 627.862506 35.210484 
L 628.303514 36.01604 
L 628.744523 37.229131 
L 629.62654 40.861696 
L 630.508558 46.063361 
L 631.390575 52.769951 
L 632.272592 60.898723 
L 633.595618 75.534592 
L 634.918644 92.735132 
L 636.682678 118.825851 
L 639.32873 162.066422 
L 642.856799 219.900407 
L 644.620833 245.687543 
L 645.943859 262.583886 
L 647.266885 276.859186 
L 648.148902 284.72114 
L 649.03092 291.143566 
L 649.912937 296.047227 
L 650.794954 299.371623 
L 651.235963 300.428004 
L 651.676971 301.07574 
L 652.11798 301.312834 
L 652.558989 301.138553 
L 652.999997 300.553436 
L 653.441006 299.559287 
L 653.882014 298.159177 
L 654.764032 294.159598 
L 655.646049 288.604043 
L 656.528066 281.561054 
L 657.851092 268.402469 
L 659.174118 252.461528 
L 660.938152 227.652287 
L 663.143196 192.674365 
L 668.435299 106.394525 
L 670.199334 81.864969 
L 671.522359 66.19149 
L 672.845385 53.341709 
L 673.727402 46.523368 
L 674.60942 41.204277 
L 675.491437 37.450059 
L 675.932446 36.175024 
L 676.373454 35.307034 
L 676.814463 34.848767 
L 677.255471 34.80164 
L 677.69648 35.165796 
L 678.137489 35.940113 
L 678.578497 37.122199 
L 679.460515 40.693838 
L 680.342532 45.83665 
L 681.224549 52.487182 
L 682.106566 60.563386 
L 683.429592 75.128348 
L 684.752618 92.269245 
L 686.516653 118.300766 
L 689.162704 161.501542 
L 692.690773 219.379005 
L 694.454808 245.227229 
L 695.777834 262.184459 
L 697.100859 276.531719 
L 697.982877 284.446824 
L 698.864894 290.925786 
L 699.746911 295.888669 
L 700.628928 299.274244 
L 701.069937 300.361712 
L 701.510946 301.040741 
L 701.951954 301.309235 
L 702.392963 301.166366 
L 702.833972 300.612573 
L 703.27498 299.649568 
L 703.715989 298.280322 
L 704.598006 294.341256 
L 705.480023 288.843972 
L 706.362041 281.856295 
L 707.685066 268.773647 
L 709.008092 252.898351 
L 710.772127 228.157532 
L 712.97717 193.229903 
L 718.269273 106.896443 
L 720.033308 82.297111 
L 721.356334 66.557119 
L 722.67936 53.630689 
L 723.561377 46.756656 
L 724.443394 41.378995 
L 725.325411 37.564052 
L 725.76642 36.258079 
L 726.207429 35.358894 
L 726.648437 34.869273 
L 727.089446 34.790728 
L 727.530454 35.123501 
L 727.971463 35.866564 
L 728.412472 37.017624 
L 729.294489 40.528274 
L 730.176506 45.612138 
L 731.058523 52.206495 
L 731.940541 60.229984 
L 733.263566 74.723778 
L 734.586592 91.804722 
L 736.350627 117.776576 
L 738.996679 160.936779 
L 742.524748 218.856678 
L 744.288782 244.765526 
L 745.611808 261.783337 
L 746.934834 276.202298 
L 748.25786 287.62266 
L 749.139877 293.410291 
L 750.021894 297.651191 
L 750.462903 299.174501 
L 750.903911 300.293037 
L 751.34492 301.003346 
L 751.785929 301.303236 
L 752.226937 301.191781 
L 752.667946 300.669324 
L 753.108954 299.737479 
L 753.549963 298.399123 
L 754.43198 294.52064 
L 755.313998 289.081727 
L 756.196015 282.149487 
L 757.519041 269.14301 
L 758.842067 253.333646 
L 760.606101 228.661695 
L 762.811144 193.784988 
L 768.103248 107.399463 
L 769.867282 82.730798 
L 771.190308 66.924576 
L 772.513334 53.921728 
L 773.395351 46.992128 
L 774.277368 41.555993 
L 775.159386 37.680393 
L 775.600394 36.343506 
L 776.041403 35.413143 
L 776.482411 34.892177 
L 776.92342 34.782216 
L 777.364429 35.083599 
L 777.805437 35.795395 
L 778.246446 36.915408 
L 778.687455 38.44018 
L 779.569472 42.683942 
L 780.451489 48.474322 
L 781.333506 55.739882 
L 782.656532 69.203388 
L 783.979558 85.407091 
L 785.743593 110.488699 
L 787.948636 145.663741 
L 792.79973 225.110143 
L 794.563765 250.254771 
L 795.886791 266.519613 
L 797.209817 280.054297 
L 798.091834 287.371921 
L 798.973851 293.217313 
L 799.855868 297.518355 
L 800.737886 300.221982 
L 801.178894 300.963558 
L 801.619903 301.294838 
L 802.060912 301.214799 
L 802.50192 300.723687 
L 802.942929 299.823019 
L 803.383937 298.515576 
L 804.265955 294.697746 
L 805.147972 289.317302 
L 806.912006 277.031219 
L 807.353015 276.503906 
L 807.794024 277.586561 
L 808.235032 280.138534 
L 809.11705 288.176487 
L 809.999067 296.576498 
L 810.440075 299.537045 
L 810.881084 301.115265 
L 811.322093 301.106128 
L 811.763101 299.510819 
L 812.20411 296.536591 
L 814.409153 277.565725 
L 814.850162 276.500811 
L 815.29117 277.046268 
L 815.732179 279.131234 
L 816.614196 286.671425 
L 817.496213 295.330378 
L 817.937222 298.677844 
L 818.378231 300.754605 
L 818.819239 301.290861 
L 819.260248 300.216948 
L 819.701256 297.672379 
L 820.583274 289.641675 
L 821.465291 281.236371 
L 821.9063 278.269074 
L 822.347308 276.682429 
L 822.788317 276.682559 
L 823.229325 278.269449 
L 823.670334 281.236941 
L 825.875377 300.217245 
L 826.316386 301.290905 
L 826.757394 300.75439 
L 827.198403 298.677398 
L 828.08042 291.146372 
L 828.962438 282.484224 
L 829.403446 279.130786 
L 829.844455 277.046052 
L 830.285463 276.500854 
L 830.726472 277.566021 
L 831.167481 280.103175 
L 832.049498 288.126598 
L 832.931515 296.537162 
L 833.372524 299.511195 
L 833.813532 301.10626 
L 834.254541 301.115136 
L 834.69555 299.536672 
L 835.136558 296.575929 
L 837.341601 277.586262 
L 837.78261 276.50386 
L 838.223619 277.031433 
L 838.664627 279.100441 
L 840.428662 292.199146 
L 841.310679 296.805392 
L 842.192696 299.823019 
L 842.633705 300.723687 
L 843.074713 301.214799 
L 843.515722 301.294838 
L 843.956731 300.963558 
L 844.397739 300.221982 
L 844.838748 299.072398 
L 845.720765 295.56465 
L 846.602782 290.483591 
L 847.4848 283.891909 
L 848.366817 275.87093 
L 849.689843 261.380527 
L 851.012869 244.302442 
L 852.776903 218.333437 
L 855.422955 175.175183 
L 858.951024 117.253292 
L 860.715058 91.341573 
L 862.038084 74.320888 
L 863.36111 59.898524 
L 864.684136 48.474322 
L 865.566153 42.683942 
L 866.44817 38.44018 
L 866.889179 36.915408 
L 867.330188 35.795395 
L 867.771196 35.083599 
L 868.212205 34.782216 
L 868.653214 34.892177 
L 869.094222 35.413143 
L 869.535231 36.343506 
L 869.976239 37.680393 
L 870.858257 41.555993 
L 871.740274 46.992128 
L 872.622291 53.921728 
L 873.945317 66.924576 
L 875.268343 82.730798 
L 877.032377 107.399463 
L 879.23742 142.273732 
L 884.529524 228.661695 
L 886.293558 253.333646 
L 887.616584 269.14301 
L 888.93961 282.149487 
L 889.821627 289.081727 
L 890.703645 294.52064 
L 891.585662 298.399123 
L 892.026671 299.737479 
L 892.467679 300.669324 
L 892.908688 301.191781 
L 893.349696 301.303236 
L 893.790705 301.003346 
L 894.231714 300.293037 
L 894.672722 299.174501 
L 895.113731 297.651191 
L 895.995748 293.410291 
L 896.877765 287.62266 
L 897.759783 280.359704 
L 899.082808 266.899757 
L 900.405834 250.699114 
L 902.169869 225.620663 
L 904.374912 190.447877 
L 909.226007 110.999269 
L 910.990041 85.851505 
L 912.313067 69.583617 
L 913.636093 56.045385 
L 914.51811 48.725164 
L 915.400127 42.877028 
L 916.282145 38.573128 
L 917.164162 35.866564 
L 917.605171 35.123501 
L 918.046179 34.790728 
L 918.487188 34.869273 
L 918.928196 35.358894 
L 919.369205 36.258079 
L 919.810214 37.564052 
L 920.692231 41.378995 
L 921.574248 46.756656 
L 922.456265 53.630689 
L 923.338283 61.916284 
L 924.661309 76.763285 
L 925.984334 94.140894 
L 927.748369 120.406385 
L 930.394421 163.761667 
L 933.92249 221.458973 
L 935.686524 247.060061 
L 937.00955 263.771926 
L 938.332576 277.829808 
L 939.214593 285.531464 
L 940.09661 291.783594 
L 940.978628 296.509062 
L 941.860645 299.649568 
L 942.301653 300.612573 
L 942.742662 301.166366 
L 943.183671 301.309235 
L 943.624679 301.040741 
L 944.065688 300.361712 
L 944.506697 299.274244 
L 944.947705 297.781694 
L 945.829722 293.601012 
L 946.71174 287.871247 
L 947.593757 280.663088 
L 948.916783 267.278122 
L 950.239809 251.14197 
L 952.003843 226.130147 
L 954.208886 191.00513 
L 959.50099 104.895465 
L 961.265024 80.577882 
L 962.58805 65.105631 
L 963.911076 52.487182 
L 964.793093 45.83665 
L 965.67511 40.693838 
L 966.557128 37.122199 
L 966.998136 35.940113 
L 967.439145 35.165796 
L 967.880154 34.80164 
L 968.321162 34.848767 
L 968.762171 35.307034 
L 969.203179 36.175024 
L 969.644188 37.450059 
L 970.526205 41.204277 
L 971.408223 46.523368 
L 972.29024 53.341709 
L 973.172257 61.575178 
L 974.495283 76.352067 
L 975.818309 93.670965 
L 977.582343 119.87867 
L 980.228395 163.196494 
L 983.756464 220.9404 
L 985.520498 246.603967 
L 986.843524 263.377627 
L 988.16655 277.508237 
L 989.048567 285.263465 
L 989.930585 291.572474 
L 990.812602 296.357427 
L 991.694619 299.559287 
L 992.135628 300.553436 
L 992.576636 301.138553 
L 993.017645 301.312834 
L 993.458654 301.07574 
L 993.899662 300.428004 
L 994.340671 299.371623 
L 994.781679 297.909861 
L 995.663697 293.789473 
L 996.545714 288.117675 
L 997.427731 280.964445 
L 998.750757 267.6547 
L 1000.073783 251.583329 
L 1001.837817 226.638585 
L 1004.042861 191.561968 
L 1009.334964 105.394027 
L 1011.098999 81.005347 
L 1012.422024 65.46574 
L 1013.74505 52.769951 
L 1014.627067 46.063361 
L 1015.509085 40.861696 
L 1016.391102 37.229131 
L 1016.832111 36.01604 
L 1017.273119 35.210484 
L 1017.714128 34.81495 
L 1018.155136 34.83066 
L 1018.596145 35.257563 
L 1019.037154 36.094344 
L 1019.478162 37.338419 
L 1020.36018 41.031843 
L 1021.242197 46.292269 
L 1022.124214 53.054795 
L 1023.006231 61.235989 
L 1024.329257 75.9425 
L 1025.652283 93.202375 
L 1027.416318 119.351822 
L 1030.062369 162.631409 
L 1033.590438 220.420875 
L 1035.354473 246.146458 
L 1036.677499 262.981611 
L 1038.000524 277.184694 
L 1038.882542 284.993355 
L 1039.764559 291.35913 
L 1040.646576 296.203481 
L 1041.528593 299.466639 
L 1041.969602 300.491912 
L 1042.410611 301.108345 
L 1042.851619 301.314034 
L 1042.851619 301.314034 
" clip-path="url(#pd794a5615e)" style="fill: none; stroke: #800080; stroke-width: 1.5; stroke-linecap: square"/>
   </g>
   <g id="patch_9">
    <path d="M 580.255625 314.640625 
L 580.255625 21.455625 
" style="fill: none; stroke: #000000; stroke-width: 0.8; stroke-linejoin: miter; stroke-linecap: square"/>
   </g>
   <g id="patch_10">
    <path d="M 1064.88 314.640625 
L 1064.88 21.455625 
" style="fill: none; stroke: #000000; stroke-width: 0.8; stroke-linejoin: miter; stroke-linecap: square"/>
   </g>
   <g id="patch_11">
    <path d="M 580.255625 314.640625 
L 1064.88 314.640625 
" style="fill: none; stroke: #000000; stroke-width: 0.8; stroke-linejoin: miter; stroke-linecap: square"/>
   </g>
   <g id="patch_12">
    <path d="M 580.255625 21.455625 
L 1064.88 21.455625 
" style="fill: none; stroke: #000000; stroke-width: 0.8; stroke-linejoin: miter; stroke-linecap: square"/>
   </g>
   <g id="text_37">
    <!-- Wavefunction for Energy = 10.240733799523927 eV -->
    <g transform="translate(693.146875 15.455625) scale(0.12 -0.12)">
     <use xlink:href="#STIXGeneral-Regular-57"/>
     <use xlink:href="#STIXGeneral-Regular-61" transform="translate(94.399994 0)"/>
     <use xlink:href="#STIXGeneral-Regular-76" transform="translate(138.799988 0)"/>
     <use xlink:href="#STIXGeneral-Regular-65" transform="translate(188.799973 0)"/>
     <use xlink:href="#STIXGeneral-Regular-66" transform="translate(233.199966 0)"/>
     <use xlink:href="#STIXGeneral-Regular-75" transform="translate(266.499954 0)"/>
     <use xlink:href="#STIXGeneral-Regular-6e" transform="translate(316.499939 0)"/>
     <use xlink:href="#STIXGeneral-Regular-63" transform="translate(366.499924 0)"/>
     <use xlink:href="#STIXGeneral-Regular-74" transform="translate(410.899918 0)"/>
     <use xlink:href="#STIXGeneral-Regular-69" transform="translate(438.699905 0)"/>
     <use xlink:href="#STIXGeneral-Regular-6f" transform="translate(466.499893 0)"/>
     <use xlink:href="#STIXGeneral-Regular-6e" transform="translate(516.499878 0)"/>
     <use xlink:href="#STIXGeneral-Regular-20" transform="translate(566.499863 0)"/>
     <use xlink:href="#STIXGeneral-Regular-66" transform="translate(591.499847 0)"/>
     <use xlink:href="#STIXGeneral-Regular-6f" transform="translate(624.799835 0)"/>
     <use xlink:href="#STIXGeneral-Regular-72" transform="translate(674.79982 0)"/>
     <use xlink:href="#STIXGeneral-Regular-20" transform="translate(708.099808 0)"/>
     <use xlink:href="#STIXGeneral-Regular-45" transform="translate(733.099792 0)"/>
     <use xlink:href="#STIXGeneral-Regular-6e" transform="translate(794.199783 0)"/>
     <use xlink:href="#STIXGeneral-Regular-65" transform="translate(844.199768 0)"/>
     <use xlink:href="#STIXGeneral-Regular-72" transform="translate(888.599762 0)"/>
     <use xlink:href="#STIXGeneral-Regular-67" transform="translate(921.89975 0)"/>
     <use xlink:href="#STIXGeneral-Regular-79" transform="translate(971.899734 0)"/>
     <use xlink:href="#STIXGeneral-Regular-20" transform="translate(1021.899719 0)"/>
     <use xlink:href="#STIXGeneral-Regular-3d" transform="translate(1046.899704 0)"/>
     <use xlink:href="#STIXGeneral-Regular-20" transform="translate(1115.399689 0)"/>
     <use xlink:href="#STIXGeneral-Regular-31" transform="translate(1140.399673 0)"/>
     <use xlink:href="#STIXGeneral-Regular-30" transform="translate(1190.399658 0)"/>
     <use xlink:href="#STIXGeneral-Regular-2e" transform="translate(1240.399643 0)"/>
     <use xlink:href="#STIXGeneral-Regular-32" transform="translate(1265.399628 0)"/>
     <use xlink:href="#STIXGeneral-Regular-34" transform="translate(1315.399612 0)"/>
     <use xlink:href="#STIXGeneral-Regular-30" transform="translate(1365.399597 0)"/>
     <use xlink:href="#STIXGeneral-Regular-37" transform="translate(1415.399582 0)"/>
     <use xlink:href="#STIXGeneral-Regular-33" transform="translate(1465.399567 0)"/>
     <use xlink:href="#STIXGeneral-Regular-33" transform="translate(1515.399551 0)"/>
     <use xlink:href="#STIXGeneral-Regular-37" transform="translate(1565.399536 0)"/>
     <use xlink:href="#STIXGeneral-Regular-39" transform="translate(1615.399521 0)"/>
     <use xlink:href="#STIXGeneral-Regular-39" transform="translate(1665.399506 0)"/>
     <use xlink:href="#STIXGeneral-Regular-35" transform="translate(1715.39949 0)"/>
     <use xlink:href="#STIXGeneral-Regular-32" transform="translate(1765.399475 0)"/>
     <use xlink:href="#STIXGeneral-Regular-33" transform="translate(1815.39946 0)"/>
     <use xlink:href="#STIXGeneral-Regular-39" transform="translate(1865.399445 0)"/>
     <use xlink:href="#STIXGeneral-Regular-32" transform="translate(1915.399429 0)"/>
     <use xlink:href="#STIXGeneral-Regular-37" transform="translate(1965.399414 0)"/>
     <use xlink:href="#STIXGeneral-Regular-20" transform="translate(2015.399399 0)"/>
     <use xlink:href="#STIXGeneral-Regular-65" transform="translate(2040.399384 0)"/>
     <use xlink:href="#STIXGeneral-Regular-56" transform="translate(2084.799377 0)"/>
    </g>
   </g>
   <g id="legend_2">
    <g id="patch_13">
     <path d="M 795.008438 43.625937 
L 850.127188 43.625937 
Q 852.127188 43.625937 852.127188 41.625937 
L 852.127188 28.455625 
Q 852.127188 26.455625 850.127188 26.455625 
L 795.008438 26.455625 
Q 793.008438 26.455625 793.008438 28.455625 
L 793.008438 41.625937 
Q 793.008438 43.625937 795.008438 43.625937 
z
" style="fill: #ffffff; opacity: 0.8; stroke: #cccccc; stroke-linejoin: miter"/>
    </g>
    <g id="line2d_64">
     <path d="M 797.008438 33.955625 
L 807.008438 33.955625 
L 817.008438 33.955625 
" style="fill: none; stroke: #800080; stroke-width: 1.5; stroke-linecap: square"/>
    </g>
    <g id="text_38">
     <!-- |Ψ(x)| -->
     <g transform="translate(825.008438 37.455625) scale(0.1 -0.1)">
      <defs>
       <path id="STIXGeneral-Regular-7c" d="M 851 -90 
L 429 -90 
L 429 4326 
L 851 4326 
L 851 -90 
z
" transform="scale(0.015625)"/>
       <path id="STIXGeneral-Regular-3a8" d="M 4634 4416 
L 4634 4294 
Q 4467 4262 4400 4054 
Q 4333 3846 4333 3629 
Q 4333 3533 4345 3341 
Q 4358 3149 4358 3053 
Q 4358 2598 4118 2291 
Q 3878 1984 3520 1856 
Q 3162 1728 2714 1728 
L 2714 710 
Q 2714 339 2851 236 
Q 2989 134 3373 122 
L 3373 0 
L 1414 0 
L 1414 122 
Q 1830 141 1945 259 
Q 2061 378 2061 794 
L 2061 1728 
Q 1613 1728 1254 1856 
Q 896 1984 656 2291 
Q 416 2598 416 3053 
Q 416 3149 429 3341 
Q 442 3533 442 3629 
Q 442 3846 374 4054 
Q 307 4262 141 4294 
L 141 4416 
Q 1133 4416 1133 3258 
Q 1133 3046 1145 2886 
Q 1158 2726 1212 2544 
Q 1267 2362 1353 2243 
Q 1440 2125 1603 2045 
Q 1766 1965 1990 1965 
L 2061 1965 
L 2061 3597 
Q 2061 3910 1904 4012 
Q 1747 4115 1414 4115 
L 1414 4237 
L 3373 4237 
L 3373 4115 
Q 3027 4115 2870 4019 
Q 2714 3923 2714 3597 
L 2714 1965 
L 2784 1965 
Q 3008 1965 3171 2045 
Q 3334 2125 3420 2243 
Q 3507 2362 3561 2544 
Q 3616 2726 3629 2886 
Q 3642 3046 3642 3258 
Q 3642 4416 4634 4416 
z
" transform="scale(0.015625)"/>
       <path id="STIXGeneral-Regular-28" d="M 1946 -1030 
L 1869 -1133 
Q 1126 -710 716 32 
Q 307 774 307 1613 
Q 307 3386 1888 4326 
L 1946 4224 
Q 1293 3667 1075 3126 
Q 858 2586 858 1632 
Q 858 685 1082 96 
Q 1306 -493 1946 -1030 
z
" transform="scale(0.015625)"/>
       <path id="STIXGeneral-Regular-29" d="M 186 4224 
L 262 4326 
Q 992 3891 1408 3148 
Q 1824 2406 1824 1581 
Q 1824 -166 243 -1133 
L 186 -1030 
Q 845 -486 1059 54 
Q 1274 595 1274 1562 
Q 1274 2534 1059 3120 
Q 845 3706 186 4224 
z
" transform="scale(0.015625)"/>
      </defs>
      <use xlink:href="#STIXGeneral-Regular-7c"/>
      <use xlink:href="#STIXGeneral-Regular-3a8" transform="translate(19.999985 0)"/>
      <use xlink:href="#STIXGeneral-Regular-28" transform="translate(94.599976 0)"/>
      <use xlink:href="#STIXGeneral-Regular-78" transform="translate(127.899963 0)"/>
      <use xlink:href="#STIXGeneral-Regular-29" transform="translate(177.899948 0)"/>
      <use xlink:href="#STIXGeneral-Regular-7c" transform="translate(211.199936 0)"/>
     </g>
    </g>
   </g>
  </g>
 </g>
 <defs>
  <clipPath id="pc044a77053">
   <rect x="46.55" y="21.455625" width="484.624375" height="293.185"/>
  </clipPath>
  <clipPath id="pd794a5615e">
   <rect x="580.255625" y="21.455625" width="484.624375" height="293.185"/>
  </clipPath>
 </defs>
</svg>
