<?xml version="1.0" encoding="utf-8" standalone="no"?>
<!DOCTYPE svg PUBLIC "-//W3C//DTD SVG 1.1//EN"
  "http://www.w3.org/Graphics/SVG/1.1/DTD/svg11.dtd">
<svg xmlns:xlink="http://www.w3.org/1999/xlink" width="1072.08pt" height="350.829375pt" viewBox="0 0 1072.08 350.829375" xmlns="http://www.w3.org/2000/svg" version="1.1">
 <metadata>
  <rdf:RDF xmlns:dc="http://purl.org/dc/elements/1.1/" xmlns:cc="http://creativecommons.org/ns#" xmlns:rdf="http://www.w3.org/1999/02/22-rdf-syntax-ns#">
   <cc:Work>
    <dc:type rdf:resource="http://purl.org/dc/dcmitype/StillImage"/>
    <dc:date>2025-08-25T03:26:42.421672</dc:date>
    <dc:format>image/svg+xml</dc:format>
    <dc:creator>
     <cc:Agent>
      <dc:title>Matplotlib v3.10.5, https://matplotlib.org/</dc:title>
     </cc:Agent>
    </dc:creator>
   </cc:Work>
  </rdf:RDF>
 </metadata>
 <defs>
  <style type="text/css">*{stroke-linejoin: round; stroke-linecap: butt}</style>
 </defs>
 <g id="figure_1">
  <g id="patch_1">
   <path d="M 0 350.829375 
L 1072.08 350.829375 
L 1072.08 0 
L 0 0 
z
" style="fill: #ffffff"/>
  </g>
  <g id="axes_1">
   <g id="patch_2">
    <path d="M 46.55 314.629375 
L 531.174375 314.629375 
L 531.174375 21.455625 
L 46.55 21.455625 
z
" style="fill: #ffffff"/>
   </g>
   <g id="matplotlib.axis_1">
    <g id="xtick_1">
     <g id="line2d_1">
      <path d="M 68.578381 314.629375 
L 68.578381 21.455625 
" clip-path="url(#p23440755af)" style="fill: none; stroke: #b0b0b0; stroke-width: 0.8; stroke-linecap: square"/>
     </g>
     <g id="line2d_2">
      <defs>
       <path id="m06e5f8c22f" d="M 0 0 
L 0 3.5 
" style="stroke: #000000; stroke-width: 0.8"/>
      </defs>
      <g>
       <use xlink:href="#m06e5f8c22f" x="68.578381" y="314.629375" style="stroke: #000000; stroke-width: 0.8"/>
      </g>
     </g>
     <g id="text_1">
      <!-- −10.0 -->
      <g transform="translate(56.403381 328.459062) scale(0.1 -0.1)">
       <defs>
        <path id="STIXGeneral-Regular-2212" d="M 3974 1408 
L 410 1408 
L 410 1830 
L 3974 1830 
L 3974 1408 
z
" transform="scale(0.015625)"/>
        <path id="STIXGeneral-Regular-31" d="M 2522 0 
L 755 0 
L 755 96 
Q 1107 115 1235 227 
Q 1363 339 1363 608 
L 1363 3482 
Q 1363 3795 1171 3795 
Q 1082 3795 883 3718 
L 710 3654 
L 710 3744 
L 1856 4326 
L 1914 4307 
L 1914 486 
Q 1914 275 2042 185 
Q 2170 96 2522 96 
L 2522 0 
z
" transform="scale(0.015625)"/>
        <path id="STIXGeneral-Regular-30" d="M 3046 2112 
Q 3046 1683 2963 1302 
Q 2880 922 2717 602 
Q 2554 282 2266 96 
Q 1978 -90 1600 -90 
Q 1210 -90 915 108 
Q 621 307 461 640 
Q 301 973 227 1350 
Q 154 1728 154 2150 
Q 154 2746 301 3222 
Q 448 3699 790 4012 
Q 1133 4326 1626 4326 
Q 2253 4326 2649 3712 
Q 3046 3098 3046 2112 
z
M 2432 2080 
Q 2432 3091 2217 3625 
Q 2003 4160 1587 4160 
Q 1190 4160 979 3622 
Q 768 3085 768 2106 
Q 768 1120 979 598 
Q 1190 77 1600 77 
Q 2003 77 2217 598 
Q 2432 1120 2432 2080 
z
" transform="scale(0.015625)"/>
        <path id="STIXGeneral-Regular-2e" d="M 1158 275 
Q 1158 134 1052 32 
Q 947 -70 800 -70 
Q 653 -70 550 32 
Q 448 134 448 281 
Q 448 429 553 534 
Q 659 640 806 640 
Q 947 640 1052 531 
Q 1158 422 1158 275 
z
" transform="scale(0.015625)"/>
       </defs>
       <use xlink:href="#STIXGeneral-Regular-2212"/>
       <use xlink:href="#STIXGeneral-Regular-31" transform="translate(68.499985 0)"/>
       <use xlink:href="#STIXGeneral-Regular-30" transform="translate(118.499969 0)"/>
       <use xlink:href="#STIXGeneral-Regular-2e" transform="translate(168.499954 0)"/>
       <use xlink:href="#STIXGeneral-Regular-30" transform="translate(193.499939 0)"/>
      </g>
     </g>
    </g>
    <g id="xtick_2">
     <g id="line2d_3">
      <path d="M 123.649332 314.629375 
L 123.649332 21.455625 
" clip-path="url(#p23440755af)" style="fill: none; stroke: #b0b0b0; stroke-width: 0.8; stroke-linecap: square"/>
     </g>
     <g id="line2d_4">
      <g>
       <use xlink:href="#m06e5f8c22f" x="123.649332" y="314.629375" style="stroke: #000000; stroke-width: 0.8"/>
      </g>
     </g>
     <g id="text_2">
      <!-- −7.5 -->
      <g transform="translate(113.974332 328.459062) scale(0.1 -0.1)">
       <defs>
        <path id="STIXGeneral-Regular-37" d="M 2874 4134 
L 1517 -51 
L 1101 -51 
L 2368 3763 
L 992 3763 
Q 717 3763 582 3667 
Q 448 3571 243 3238 
L 128 3296 
L 512 4237 
L 2874 4237 
L 2874 4134 
z
" transform="scale(0.015625)"/>
        <path id="STIXGeneral-Regular-35" d="M 2803 4358 
L 2573 3814 
Q 2534 3731 2400 3731 
L 1158 3731 
L 902 3187 
Q 1606 3053 1920 2896 
Q 2234 2739 2502 2368 
Q 2726 2061 2726 1555 
Q 2726 1094 2576 780 
Q 2426 467 2099 224 
Q 1664 -90 1011 -90 
Q 646 -90 422 19 
Q 198 128 198 307 
Q 198 550 486 550 
Q 717 550 960 352 
Q 1210 147 1414 147 
Q 1747 147 2012 480 
Q 2278 813 2278 1229 
Q 2278 1843 1850 2189 
Q 1293 2637 486 2637 
Q 410 2637 410 2688 
L 416 2720 
L 1114 4237 
L 2438 4237 
Q 2547 4237 2608 4269 
Q 2669 4301 2746 4403 
L 2803 4358 
z
" transform="scale(0.015625)"/>
       </defs>
       <use xlink:href="#STIXGeneral-Regular-2212"/>
       <use xlink:href="#STIXGeneral-Regular-37" transform="translate(68.499985 0)"/>
       <use xlink:href="#STIXGeneral-Regular-2e" transform="translate(118.499969 0)"/>
       <use xlink:href="#STIXGeneral-Regular-35" transform="translate(143.499954 0)"/>
      </g>
     </g>
    </g>
    <g id="xtick_3">
     <g id="line2d_5">
      <path d="M 178.720284 314.629375 
L 178.720284 21.455625 
" clip-path="url(#p23440755af)" style="fill: none; stroke: #b0b0b0; stroke-width: 0.8; stroke-linecap: square"/>
     </g>
     <g id="line2d_6">
      <g>
       <use xlink:href="#m06e5f8c22f" x="178.720284" y="314.629375" style="stroke: #000000; stroke-width: 0.8"/>
      </g>
     </g>
     <g id="text_3">
      <!-- −5.0 -->
      <g transform="translate(169.045284 328.459062) scale(0.1 -0.1)">
       <use xlink:href="#STIXGeneral-Regular-2212"/>
       <use xlink:href="#STIXGeneral-Regular-35" transform="translate(68.499985 0)"/>
       <use xlink:href="#STIXGeneral-Regular-2e" transform="translate(118.499969 0)"/>
       <use xlink:href="#STIXGeneral-Regular-30" transform="translate(143.499954 0)"/>
      </g>
     </g>
    </g>
    <g id="xtick_4">
     <g id="line2d_7">
      <path d="M 233.791236 314.629375 
L 233.791236 21.455625 
" clip-path="url(#p23440755af)" style="fill: none; stroke: #b0b0b0; stroke-width: 0.8; stroke-linecap: square"/>
     </g>
     <g id="line2d_8">
      <g>
       <use xlink:href="#m06e5f8c22f" x="233.791236" y="314.629375" style="stroke: #000000; stroke-width: 0.8"/>
      </g>
     </g>
     <g id="text_4">
      <!-- −2.5 -->
      <g transform="translate(224.116236 328.459062) scale(0.1 -0.1)">
       <defs>
        <path id="STIXGeneral-Regular-32" d="M 3034 877 
L 2688 0 
L 186 0 
L 186 77 
L 1325 1286 
Q 1773 1754 1965 2144 
Q 2157 2534 2157 2950 
Q 2157 3379 1920 3616 
Q 1683 3853 1267 3853 
Q 922 3853 720 3673 
Q 518 3494 326 3021 
L 192 3053 
Q 301 3648 630 3987 
Q 960 4326 1523 4326 
Q 2054 4326 2380 4006 
Q 2707 3686 2707 3200 
Q 2707 2477 1888 1613 
L 832 486 
L 2330 486 
Q 2541 486 2665 569 
Q 2790 653 2944 915 
L 3034 877 
z
" transform="scale(0.015625)"/>
       </defs>
       <use xlink:href="#STIXGeneral-Regular-2212"/>
       <use xlink:href="#STIXGeneral-Regular-32" transform="translate(68.499985 0)"/>
       <use xlink:href="#STIXGeneral-Regular-2e" transform="translate(118.499969 0)"/>
       <use xlink:href="#STIXGeneral-Regular-35" transform="translate(143.499954 0)"/>
      </g>
     </g>
    </g>
    <g id="xtick_5">
     <g id="line2d_9">
      <path d="M 288.862188 314.629375 
L 288.862188 21.455625 
" clip-path="url(#p23440755af)" style="fill: none; stroke: #b0b0b0; stroke-width: 0.8; stroke-linecap: square"/>
     </g>
     <g id="line2d_10">
      <g>
       <use xlink:href="#m06e5f8c22f" x="288.862188" y="314.629375" style="stroke: #000000; stroke-width: 0.8"/>
      </g>
     </g>
     <g id="text_5">
      <!-- 0.0 -->
      <g transform="translate(282.612188 328.459062) scale(0.1 -0.1)">
       <use xlink:href="#STIXGeneral-Regular-30"/>
       <use xlink:href="#STIXGeneral-Regular-2e" transform="translate(49.999985 0)"/>
       <use xlink:href="#STIXGeneral-Regular-30" transform="translate(74.999969 0)"/>
      </g>
     </g>
    </g>
    <g id="xtick_6">
     <g id="line2d_11">
      <path d="M 343.933139 314.629375 
L 343.933139 21.455625 
" clip-path="url(#p23440755af)" style="fill: none; stroke: #b0b0b0; stroke-width: 0.8; stroke-linecap: square"/>
     </g>
     <g id="line2d_12">
      <g>
       <use xlink:href="#m06e5f8c22f" x="343.933139" y="314.629375" style="stroke: #000000; stroke-width: 0.8"/>
      </g>
     </g>
     <g id="text_6">
      <!-- 2.5 -->
      <g transform="translate(337.683139 328.459062) scale(0.1 -0.1)">
       <use xlink:href="#STIXGeneral-Regular-32"/>
       <use xlink:href="#STIXGeneral-Regular-2e" transform="translate(49.999985 0)"/>
       <use xlink:href="#STIXGeneral-Regular-35" transform="translate(74.999969 0)"/>
      </g>
     </g>
    </g>
    <g id="xtick_7">
     <g id="line2d_13">
      <path d="M 399.004091 314.629375 
L 399.004091 21.455625 
" clip-path="url(#p23440755af)" style="fill: none; stroke: #b0b0b0; stroke-width: 0.8; stroke-linecap: square"/>
     </g>
     <g id="line2d_14">
      <g>
       <use xlink:href="#m06e5f8c22f" x="399.004091" y="314.629375" style="stroke: #000000; stroke-width: 0.8"/>
      </g>
     </g>
     <g id="text_7">
      <!-- 5.0 -->
      <g transform="translate(392.754091 328.459062) scale(0.1 -0.1)">
       <use xlink:href="#STIXGeneral-Regular-35"/>
       <use xlink:href="#STIXGeneral-Regular-2e" transform="translate(49.999985 0)"/>
       <use xlink:href="#STIXGeneral-Regular-30" transform="translate(74.999969 0)"/>
      </g>
     </g>
    </g>
    <g id="xtick_8">
     <g id="line2d_15">
      <path d="M 454.075043 314.629375 
L 454.075043 21.455625 
" clip-path="url(#p23440755af)" style="fill: none; stroke: #b0b0b0; stroke-width: 0.8; stroke-linecap: square"/>
     </g>
     <g id="line2d_16">
      <g>
       <use xlink:href="#m06e5f8c22f" x="454.075043" y="314.629375" style="stroke: #000000; stroke-width: 0.8"/>
      </g>
     </g>
     <g id="text_8">
      <!-- 7.5 -->
      <g transform="translate(447.825043 328.459062) scale(0.1 -0.1)">
       <use xlink:href="#STIXGeneral-Regular-37"/>
       <use xlink:href="#STIXGeneral-Regular-2e" transform="translate(49.999985 0)"/>
       <use xlink:href="#STIXGeneral-Regular-35" transform="translate(74.999969 0)"/>
      </g>
     </g>
    </g>
    <g id="xtick_9">
     <g id="line2d_17">
      <path d="M 509.145994 314.629375 
L 509.145994 21.455625 
" clip-path="url(#p23440755af)" style="fill: none; stroke: #b0b0b0; stroke-width: 0.8; stroke-linecap: square"/>
     </g>
     <g id="line2d_18">
      <g>
       <use xlink:href="#m06e5f8c22f" x="509.145994" y="314.629375" style="stroke: #000000; stroke-width: 0.8"/>
      </g>
     </g>
     <g id="text_9">
      <!-- 10.0 -->
      <g transform="translate(500.395994 328.459062) scale(0.1 -0.1)">
       <use xlink:href="#STIXGeneral-Regular-31"/>
       <use xlink:href="#STIXGeneral-Regular-30" transform="translate(49.999985 0)"/>
       <use xlink:href="#STIXGeneral-Regular-2e" transform="translate(99.999969 0)"/>
       <use xlink:href="#STIXGeneral-Regular-30" transform="translate(124.999954 0)"/>
      </g>
     </g>
    </g>
    <g id="text_10">
     <!-- x -->
     <g transform="translate(286.362188 341.459062) scale(0.1 -0.1)">
      <defs>
       <path id="STIXGeneral-Regular-78" d="M 3066 0 
L 1779 0 
L 1779 96 
Q 1939 109 1987 137 
Q 2035 166 2035 250 
Q 2035 307 1997 365 
L 1414 1261 
L 909 474 
Q 781 275 781 211 
Q 781 96 1037 96 
L 1037 0 
L 109 0 
L 109 96 
Q 269 109 355 169 
Q 442 230 576 422 
L 1306 1478 
L 704 2400 
Q 557 2624 454 2704 
Q 352 2784 211 2784 
L 154 2784 
L 154 2880 
L 1478 2880 
L 1478 2784 
Q 1203 2778 1203 2643 
Q 1203 2509 1498 2074 
Q 1581 1958 1587 1946 
Q 1619 1990 1779 2227 
Q 1811 2285 1856 2349 
Q 1901 2413 1923 2451 
Q 1946 2490 1971 2528 
Q 1997 2566 2006 2595 
Q 2016 2624 2016 2643 
Q 2016 2765 1760 2784 
L 1760 2880 
L 2771 2880 
L 2771 2784 
Q 2445 2771 2253 2502 
L 1722 1734 
L 2541 480 
Q 2790 96 3066 96 
L 3066 0 
z
" transform="scale(0.015625)"/>
      </defs>
      <use xlink:href="#STIXGeneral-Regular-78"/>
     </g>
    </g>
   </g>
   <g id="matplotlib.axis_2">
    <g id="ytick_1">
     <g id="line2d_19">
      <path d="M 46.55 290.385358 
L 531.174375 290.385358 
" clip-path="url(#p23440755af)" style="fill: none; stroke: #b0b0b0; stroke-width: 0.8; stroke-linecap: square"/>
     </g>
     <g id="line2d_20">
      <defs>
       <path id="mc1a728ba6f" d="M 0 0 
L -3.5 0 
" style="stroke: #000000; stroke-width: 0.8"/>
      </defs>
      <g>
       <use xlink:href="#mc1a728ba6f" x="46.55" y="290.385358" style="stroke: #000000; stroke-width: 0.8"/>
      </g>
     </g>
     <g id="text_11">
      <!-- −0.3 -->
      <g transform="translate(20.2 293.800202) scale(0.1 -0.1)">
       <defs>
        <path id="STIXGeneral-Regular-33" d="M 390 3264 
L 288 3290 
Q 435 3770 748 4048 
Q 1062 4326 1542 4326 
Q 1990 4326 2265 4083 
Q 2541 3840 2541 3450 
Q 2541 2925 1946 2566 
Q 2298 2413 2477 2227 
Q 2758 1914 2758 1402 
Q 2758 890 2464 506 
Q 2246 211 1840 60 
Q 1434 -90 979 -90 
Q 262 -90 262 275 
Q 262 378 339 442 
Q 416 506 525 506 
Q 685 506 915 339 
Q 1197 141 1466 141 
Q 1818 141 2058 425 
Q 2298 710 2298 1120 
Q 2298 1856 1632 2048 
Q 1434 2112 979 2112 
L 979 2202 
Q 1338 2323 1517 2432 
Q 2035 2726 2035 3290 
Q 2035 3610 1852 3776 
Q 1670 3942 1344 3942 
Q 768 3942 390 3264 
z
" transform="scale(0.015625)"/>
       </defs>
       <use xlink:href="#STIXGeneral-Regular-2212"/>
       <use xlink:href="#STIXGeneral-Regular-30" transform="translate(68.499985 0)"/>
       <use xlink:href="#STIXGeneral-Regular-2e" transform="translate(118.499969 0)"/>
       <use xlink:href="#STIXGeneral-Regular-33" transform="translate(143.499954 0)"/>
      </g>
     </g>
    </g>
    <g id="ytick_2">
     <g id="line2d_21">
      <path d="M 46.55 249.60438 
L 531.174375 249.60438 
" clip-path="url(#p23440755af)" style="fill: none; stroke: #b0b0b0; stroke-width: 0.8; stroke-linecap: square"/>
     </g>
     <g id="line2d_22">
      <g>
       <use xlink:href="#mc1a728ba6f" x="46.55" y="249.60438" style="stroke: #000000; stroke-width: 0.8"/>
      </g>
     </g>
     <g id="text_12">
      <!-- −0.2 -->
      <g transform="translate(20.2 253.019223) scale(0.1 -0.1)">
       <use xlink:href="#STIXGeneral-Regular-2212"/>
       <use xlink:href="#STIXGeneral-Regular-30" transform="translate(68.499985 0)"/>
       <use xlink:href="#STIXGeneral-Regular-2e" transform="translate(118.499969 0)"/>
       <use xlink:href="#STIXGeneral-Regular-32" transform="translate(143.499954 0)"/>
      </g>
     </g>
    </g>
    <g id="ytick_3">
     <g id="line2d_23">
      <path d="M 46.55 208.823401 
L 531.174375 208.823401 
" clip-path="url(#p23440755af)" style="fill: none; stroke: #b0b0b0; stroke-width: 0.8; stroke-linecap: square"/>
     </g>
     <g id="line2d_24">
      <g>
       <use xlink:href="#mc1a728ba6f" x="46.55" y="208.823401" style="stroke: #000000; stroke-width: 0.8"/>
      </g>
     </g>
     <g id="text_13">
      <!-- −0.1 -->
      <g transform="translate(20.2 212.238245) scale(0.1 -0.1)">
       <use xlink:href="#STIXGeneral-Regular-2212"/>
       <use xlink:href="#STIXGeneral-Regular-30" transform="translate(68.499985 0)"/>
       <use xlink:href="#STIXGeneral-Regular-2e" transform="translate(118.499969 0)"/>
       <use xlink:href="#STIXGeneral-Regular-31" transform="translate(143.499954 0)"/>
      </g>
     </g>
    </g>
    <g id="ytick_4">
     <g id="line2d_25">
      <path d="M 46.55 168.042423 
L 531.174375 168.042423 
" clip-path="url(#p23440755af)" style="fill: none; stroke: #b0b0b0; stroke-width: 0.8; stroke-linecap: square"/>
     </g>
     <g id="line2d_26">
      <g>
       <use xlink:href="#mc1a728ba6f" x="46.55" y="168.042423" style="stroke: #000000; stroke-width: 0.8"/>
      </g>
     </g>
     <g id="text_14">
      <!-- 0.0 -->
      <g transform="translate(27.05 171.457267) scale(0.1 -0.1)">
       <use xlink:href="#STIXGeneral-Regular-30"/>
       <use xlink:href="#STIXGeneral-Regular-2e" transform="translate(49.999985 0)"/>
       <use xlink:href="#STIXGeneral-Regular-30" transform="translate(74.999969 0)"/>
      </g>
     </g>
    </g>
    <g id="ytick_5">
     <g id="line2d_27">
      <path d="M 46.55 127.261444 
L 531.174375 127.261444 
" clip-path="url(#p23440755af)" style="fill: none; stroke: #b0b0b0; stroke-width: 0.8; stroke-linecap: square"/>
     </g>
     <g id="line2d_28">
      <g>
       <use xlink:href="#mc1a728ba6f" x="46.55" y="127.261444" style="stroke: #000000; stroke-width: 0.8"/>
      </g>
     </g>
     <g id="text_15">
      <!-- 0.1 -->
      <g transform="translate(27.05 130.676288) scale(0.1 -0.1)">
       <use xlink:href="#STIXGeneral-Regular-30"/>
       <use xlink:href="#STIXGeneral-Regular-2e" transform="translate(49.999985 0)"/>
       <use xlink:href="#STIXGeneral-Regular-31" transform="translate(74.999969 0)"/>
      </g>
     </g>
    </g>
    <g id="ytick_6">
     <g id="line2d_29">
      <path d="M 46.55 86.480466 
L 531.174375 86.480466 
" clip-path="url(#p23440755af)" style="fill: none; stroke: #b0b0b0; stroke-width: 0.8; stroke-linecap: square"/>
     </g>
     <g id="line2d_30">
      <g>
       <use xlink:href="#mc1a728ba6f" x="46.55" y="86.480466" style="stroke: #000000; stroke-width: 0.8"/>
      </g>
     </g>
     <g id="text_16">
      <!-- 0.2 -->
      <g transform="translate(27.05 89.89531) scale(0.1 -0.1)">
       <use xlink:href="#STIXGeneral-Regular-30"/>
       <use xlink:href="#STIXGeneral-Regular-2e" transform="translate(49.999985 0)"/>
       <use xlink:href="#STIXGeneral-Regular-32" transform="translate(74.999969 0)"/>
      </g>
     </g>
    </g>
    <g id="ytick_7">
     <g id="line2d_31">
      <path d="M 46.55 45.699488 
L 531.174375 45.699488 
" clip-path="url(#p23440755af)" style="fill: none; stroke: #b0b0b0; stroke-width: 0.8; stroke-linecap: square"/>
     </g>
     <g id="line2d_32">
      <g>
       <use xlink:href="#mc1a728ba6f" x="46.55" y="45.699488" style="stroke: #000000; stroke-width: 0.8"/>
      </g>
     </g>
     <g id="text_17">
      <!-- 0.3 -->
      <g transform="translate(27.05 49.114331) scale(0.1 -0.1)">
       <use xlink:href="#STIXGeneral-Regular-30"/>
       <use xlink:href="#STIXGeneral-Regular-2e" transform="translate(49.999985 0)"/>
       <use xlink:href="#STIXGeneral-Regular-33" transform="translate(74.999969 0)"/>
      </g>
     </g>
    </g>
    <g id="text_18">
     <!-- Wavefunction Value -->
     <g transform="translate(14.029688 209.558906) rotate(-90) scale(0.1 -0.1)">
      <defs>
       <path id="STIXGeneral-Regular-57" d="M 5965 4237 
L 5965 4115 
Q 5709 4064 5616 3990 
Q 5523 3917 5434 3667 
Q 4704 1709 4128 -70 
L 4032 -70 
Q 3642 1011 3008 2637 
L 2022 -70 
L 1926 -70 
Q 1709 576 1277 1753 
Q 845 2931 698 3347 
Q 538 3808 406 3958 
Q 275 4109 32 4115 
L 32 4237 
L 1594 4237 
L 1594 4115 
Q 1357 4109 1270 4064 
Q 1184 4019 1184 3917 
Q 1184 3808 1254 3616 
L 2176 1210 
L 2842 3021 
L 2662 3501 
Q 2509 3917 2400 4013 
Q 2291 4109 2010 4115 
L 2010 4237 
L 3706 4237 
L 3706 4115 
Q 3213 4102 3213 3891 
Q 3213 3808 3322 3520 
L 4237 1190 
L 5043 3360 
Q 5152 3667 5152 3853 
Q 5152 4109 4704 4115 
L 4704 4237 
L 5965 4237 
z
" transform="scale(0.015625)"/>
       <path id="STIXGeneral-Regular-61" d="M 2829 422 
L 2829 243 
Q 2586 -64 2253 -64 
Q 1888 -64 1843 403 
L 1837 403 
Q 1427 -64 909 -64 
Q 608 -64 422 112 
Q 237 288 237 602 
Q 237 1050 685 1350 
Q 992 1555 1837 1869 
L 1837 2214 
Q 1837 2502 1699 2646 
Q 1562 2790 1338 2790 
Q 1146 2790 1018 2697 
Q 890 2605 890 2477 
Q 890 2419 909 2348 
Q 928 2278 928 2208 
Q 928 2112 841 2029 
Q 755 1946 634 1946 
Q 525 1946 441 2029 
Q 358 2112 358 2240 
Q 358 2547 685 2752 
Q 986 2944 1421 2944 
Q 1939 2944 2176 2656 
Q 2291 2522 2323 2384 
Q 2355 2246 2355 1946 
L 2355 723 
Q 2355 301 2554 301 
Q 2682 301 2829 422 
z
M 1837 813 
L 1837 1715 
Q 1248 1510 1018 1293 
Q 800 1094 800 800 
Q 800 557 921 432 
Q 1043 307 1242 307 
Q 1453 307 1613 410 
Q 1747 506 1792 589 
Q 1837 672 1837 813 
z
" transform="scale(0.015625)"/>
       <path id="STIXGeneral-Regular-76" d="M 3053 2880 
L 3053 2784 
Q 2906 2771 2835 2688 
Q 2765 2605 2637 2285 
L 1818 230 
Q 1690 -90 1638 -90 
Q 1587 -90 1523 77 
Q 1510 96 1497 141 
Q 1485 186 1472 211 
L 704 2048 
Q 499 2534 403 2652 
Q 307 2771 122 2784 
L 122 2880 
L 1376 2880 
L 1376 2784 
Q 1210 2771 1146 2732 
Q 1082 2694 1082 2611 
Q 1082 2509 1139 2368 
L 1792 730 
L 2426 2387 
Q 2464 2483 2464 2579 
Q 2464 2758 2163 2784 
L 2163 2880 
L 3053 2880 
z
" transform="scale(0.015625)"/>
       <path id="STIXGeneral-Regular-65" d="M 2611 1050 
L 2714 1005 
Q 2330 -64 1376 -64 
Q 813 -64 486 329 
Q 160 723 160 1389 
Q 160 2074 525 2509 
Q 890 2944 1485 2944 
Q 2061 2944 2374 2502 
Q 2560 2246 2592 1773 
L 621 1773 
Q 646 1370 700 1158 
Q 755 947 915 730 
Q 1184 378 1626 378 
Q 1939 378 2153 531 
Q 2368 685 2611 1050 
z
M 634 1978 
L 1939 1978 
Q 1882 2381 1750 2547 
Q 1619 2714 1312 2714 
Q 1043 2714 864 2525 
Q 685 2336 634 1978 
z
" transform="scale(0.015625)"/>
       <path id="STIXGeneral-Regular-66" d="M 134 2880 
L 659 2880 
Q 666 3264 710 3478 
Q 755 3693 883 3910 
Q 1152 4371 1786 4371 
Q 2074 4371 2262 4259 
Q 2451 4147 2451 3974 
Q 2451 3866 2374 3789 
Q 2298 3712 2182 3712 
Q 2029 3712 1894 3942 
Q 1741 4192 1555 4192 
Q 1197 4192 1197 3622 
L 1197 2880 
L 1978 2880 
L 1978 2675 
L 1197 2675 
L 1197 666 
Q 1197 307 1299 208 
Q 1402 109 1792 96 
L 1792 0 
L 128 0 
L 128 96 
Q 474 115 566 214 
Q 659 314 659 666 
L 659 2675 
L 134 2675 
L 134 2880 
z
" transform="scale(0.015625)"/>
       <path id="STIXGeneral-Regular-75" d="M 3072 320 
L 3072 230 
Q 2573 96 2195 -58 
L 2163 -38 
L 2163 486 
L 2150 486 
Q 1747 -64 1235 -64 
Q 870 -64 662 160 
Q 454 384 454 755 
L 454 2362 
Q 454 2598 371 2688 
Q 288 2778 58 2790 
L 58 2880 
L 992 2880 
L 992 813 
Q 992 595 1123 451 
Q 1254 307 1446 307 
Q 1760 307 1984 506 
Q 2067 582 2099 649 
Q 2131 717 2131 877 
L 2131 2355 
Q 2131 2605 2041 2678 
Q 1952 2752 1658 2771 
L 1658 2880 
L 2669 2880 
L 2669 685 
Q 2669 461 2742 390 
Q 2816 320 3034 320 
L 3072 320 
z
" transform="scale(0.015625)"/>
       <path id="STIXGeneral-Regular-6e" d="M 3104 0 
L 1773 0 
L 1779 96 
Q 2016 115 2096 233 
Q 2176 352 2176 672 
L 2176 1946 
Q 2176 2592 1709 2592 
Q 1549 2592 1408 2515 
Q 1267 2438 1050 2227 
L 1050 461 
Q 1050 269 1136 192 
Q 1222 115 1466 96 
L 1466 0 
L 115 0 
L 115 96 
Q 358 115 435 214 
Q 512 314 512 602 
L 512 2157 
Q 512 2394 467 2483 
Q 422 2573 288 2573 
Q 160 2573 102 2547 
L 102 2656 
Q 550 2784 979 2944 
L 1030 2925 
L 1030 2426 
L 1037 2426 
Q 1491 2944 1958 2944 
Q 2323 2944 2518 2688 
Q 2714 2432 2714 1958 
L 2714 544 
Q 2714 288 2790 205 
Q 2867 122 3104 96 
L 3104 0 
z
" transform="scale(0.015625)"/>
       <path id="STIXGeneral-Regular-63" d="M 2547 998 
L 2637 941 
Q 2362 403 2112 205 
Q 1786 -64 1376 -64 
Q 845 -64 502 336 
Q 160 736 160 1357 
Q 160 2170 698 2618 
Q 1094 2944 1562 2944 
Q 1965 2944 2256 2749 
Q 2547 2554 2547 2285 
Q 2547 2176 2457 2096 
Q 2368 2016 2246 2016 
Q 2022 2016 1939 2310 
L 1901 2451 
Q 1850 2630 1773 2694 
Q 1696 2758 1523 2758 
Q 1133 2758 893 2451 
Q 653 2144 653 1645 
Q 653 1094 928 745 
Q 1203 397 1645 397 
Q 1920 397 2118 528 
Q 2317 659 2547 998 
z
" transform="scale(0.015625)"/>
       <path id="STIXGeneral-Regular-74" d="M 1702 493 
L 1786 422 
Q 1478 -64 1011 -64 
Q 448 -64 448 749 
L 448 2675 
L 109 2675 
Q 83 2694 83 2720 
Q 83 2771 192 2842 
Q 435 2982 813 3526 
Q 826 3546 874 3606 
Q 922 3667 941 3706 
Q 986 3706 986 3622 
L 986 2880 
L 1632 2880 
L 1632 2675 
L 986 2675 
L 986 845 
Q 986 538 1062 403 
Q 1139 269 1318 269 
Q 1510 269 1702 493 
z
" transform="scale(0.015625)"/>
       <path id="STIXGeneral-Regular-69" d="M 1152 4045 
Q 1152 3904 1056 3811 
Q 960 3718 819 3718 
Q 685 3718 592 3811 
Q 499 3904 499 4045 
Q 499 4179 595 4275 
Q 691 4371 826 4371 
Q 966 4371 1059 4275 
Q 1152 4179 1152 4045 
z
M 1619 0 
L 102 0 
L 102 96 
Q 435 115 521 211 
Q 608 307 608 666 
L 608 2118 
Q 608 2342 563 2432 
Q 518 2522 397 2522 
Q 243 2522 128 2490 
L 128 2592 
L 1120 2944 
L 1146 2918 
L 1146 672 
Q 1146 314 1226 218 
Q 1306 122 1619 96 
L 1619 0 
z
" transform="scale(0.015625)"/>
       <path id="STIXGeneral-Regular-6f" d="M 3008 1478 
Q 3008 806 2608 371 
Q 2208 -64 1568 -64 
Q 979 -64 582 368 
Q 186 800 186 1459 
Q 186 2125 582 2534 
Q 979 2944 1626 2944 
Q 2221 2944 2614 2537 
Q 3008 2131 3008 1478 
z
M 2432 1306 
Q 2432 2035 2112 2445 
Q 1856 2765 1504 2765 
Q 1171 2765 966 2493 
Q 762 2221 762 1747 
Q 762 928 1101 435 
Q 1318 115 1677 115 
Q 2029 115 2230 432 
Q 2432 749 2432 1306 
z
" transform="scale(0.015625)"/>
       <path id="STIXGeneral-Regular-20" transform="scale(0.015625)"/>
       <path id="STIXGeneral-Regular-56" d="M 4461 4237 
L 4461 4115 
Q 4262 4109 4134 3990 
Q 4006 3872 3872 3533 
L 2451 -70 
L 2355 -70 
L 794 3411 
Q 589 3866 467 3987 
Q 346 4109 102 4115 
L 102 4237 
L 1798 4237 
L 1798 4115 
L 1619 4102 
Q 1331 4083 1331 3904 
Q 1331 3776 1581 3219 
L 2554 1030 
L 3494 3392 
Q 3616 3699 3616 3853 
Q 3616 3898 3606 3933 
Q 3597 3968 3584 3993 
Q 3571 4019 3536 4038 
Q 3501 4058 3481 4067 
Q 3462 4077 3411 4086 
Q 3360 4096 3337 4099 
Q 3315 4102 3248 4108 
Q 3181 4115 3155 4115 
L 3155 4237 
L 4461 4237 
z
" transform="scale(0.015625)"/>
       <path id="STIXGeneral-Regular-6c" d="M 1645 0 
L 134 0 
L 134 96 
Q 435 122 531 221 
Q 627 320 627 589 
L 627 3590 
Q 627 3821 569 3910 
Q 512 4000 358 4000 
Q 224 4000 122 3987 
L 122 4090 
Q 730 4237 1133 4371 
L 1165 4346 
L 1165 557 
Q 1165 288 1254 201 
Q 1344 115 1645 96 
L 1645 0 
z
" transform="scale(0.015625)"/>
      </defs>
      <use xlink:href="#STIXGeneral-Regular-57"/>
      <use xlink:href="#STIXGeneral-Regular-61" transform="translate(94.399994 0)"/>
      <use xlink:href="#STIXGeneral-Regular-76" transform="translate(138.799988 0)"/>
      <use xlink:href="#STIXGeneral-Regular-65" transform="translate(188.799973 0)"/>
      <use xlink:href="#STIXGeneral-Regular-66" transform="translate(233.199966 0)"/>
      <use xlink:href="#STIXGeneral-Regular-75" transform="translate(266.499954 0)"/>
      <use xlink:href="#STIXGeneral-Regular-6e" transform="translate(316.499939 0)"/>
      <use xlink:href="#STIXGeneral-Regular-63" transform="translate(366.499924 0)"/>
      <use xlink:href="#STIXGeneral-Regular-74" transform="translate(410.899918 0)"/>
      <use xlink:href="#STIXGeneral-Regular-69" transform="translate(438.699905 0)"/>
      <use xlink:href="#STIXGeneral-Regular-6f" transform="translate(466.499893 0)"/>
      <use xlink:href="#STIXGeneral-Regular-6e" transform="translate(516.499878 0)"/>
      <use xlink:href="#STIXGeneral-Regular-20" transform="translate(566.499863 0)"/>
      <use xlink:href="#STIXGeneral-Regular-56" transform="translate(591.499847 0)"/>
      <use xlink:href="#STIXGeneral-Regular-61" transform="translate(663.699829 0)"/>
      <use xlink:href="#STIXGeneral-Regular-6c" transform="translate(708.099823 0)"/>
      <use xlink:href="#STIXGeneral-Regular-75" transform="translate(735.899811 0)"/>
      <use xlink:href="#STIXGeneral-Regular-65" transform="translate(785.899796 0)"/>
     </g>
    </g>
   </g>
   <g id="line2d_33">
    <path d="M 68.578381 168.042423 
L 73.870484 157.413455 
L 76.516536 152.559354 
L 78.721579 148.916072 
L 80.926622 145.731827 
L 82.690657 143.566712 
L 84.454691 141.777821 
L 85.777717 140.699819 
L 87.100743 139.858364 
L 88.423769 139.260735 
L 89.746795 138.912101 
L 91.06982 138.815479 
L 92.392846 138.971705 
L 93.715872 139.379428 
L 95.038898 140.035119 
L 96.361924 140.933107 
L 97.68495 142.065623 
L 99.448984 143.923249 
L 101.213019 146.151617 
L 102.977053 148.716475 
L 105.182096 152.335229 
L 107.828148 157.167039 
L 111.356217 164.162781 
L 118.853364 179.266394 
L 121.499415 184.065848 
L 123.704458 187.64924 
L 125.468493 190.180907 
L 127.232527 192.372278 
L 128.996562 194.189668 
L 130.319588 195.290252 
L 131.642614 196.15511 
L 132.96564 196.77676 
L 134.288665 197.149823 
L 135.611691 197.271073 
L 136.934717 197.13946 
L 138.257743 196.756124 
L 139.580769 196.124379 
L 140.903795 195.249693 
L 142.226821 194.13963 
L 143.990855 192.31029 
L 145.75489 190.107922 
L 147.518924 187.566379 
L 149.723967 183.97245 
L 152.370019 179.163328 
L 155.898088 172.184555 
L 163.836243 156.228855 
L 166.482295 151.486359 
L 168.687338 147.964585 
L 170.451372 145.490432 
L 172.215407 143.362931 
L 173.979441 141.614785 
L 175.302467 140.569023 
L 176.625493 139.760939 
L 177.948519 139.197524 
L 179.271545 138.883651 
L 180.594571 138.822036 
L 181.917597 139.013213 
L 183.240622 139.455526 
L 184.563648 140.145151 
L 185.886674 141.07612 
L 187.2097 142.240379 
L 188.973735 144.137933 
L 190.737769 146.402929 
L 192.501804 149.000551 
L 194.706847 152.654068 
L 197.352898 157.517431 
L 200.880967 164.536296 
L 208.378114 179.613119 
L 211.024166 184.379421 
L 213.229209 187.926855 
L 214.993243 190.424912 
L 216.757278 192.578921 
L 218.521312 194.355774 
L 219.844338 195.424244 
L 221.167364 196.255828 
L 222.49039 196.843333 
L 223.813416 197.181676 
L 225.136442 197.26793 
L 226.459467 197.101348 
L 227.782493 196.683371 
L 229.105519 196.017617 
L 230.428545 195.109844 
L 231.751571 193.967905 
L 233.515605 192.098419 
L 235.27964 189.859163 
L 237.043674 187.284555 
L 239.248717 183.65544 
L 241.894769 178.8142 
L 245.422838 171.811487 
L 252.919985 156.715549 
L 255.566037 151.925832 
L 256.448054 150.513982 
L 257.330071 149.439148 
L 258.212088 148.733531 
L 259.094105 148.411136 
L 259.976123 148.47836 
L 260.85814 148.933871 
L 261.740157 149.768626 
L 262.622174 150.966059 
L 263.504192 152.502405 
L 264.827218 155.373992 
L 266.150243 158.810123 
L 268.355287 165.36713 
L 272.324364 177.428421 
L 273.64739 180.843773 
L 274.970416 183.688658 
L 275.852433 185.20449 
L 276.73445 186.379708 
L 277.616468 187.190989 
L 278.498485 187.62223 
L 279.380502 187.664873 
L 280.262519 187.318072 
L 281.144537 186.588709 
L 282.026554 185.491259 
L 282.908571 184.047505 
L 284.231597 181.296975 
L 285.554623 177.955781 
L 287.318657 172.84237 
L 292.169752 158.128975 
L 293.492778 154.787794 
L 294.815804 152.03728 
L 295.697821 150.593538 
L 296.579838 149.496103 
L 297.461856 148.766754 
L 298.343873 148.419967 
L 299.22589 148.462624 
L 300.107907 148.89388 
L 300.989925 149.705175 
L 301.871942 150.880406 
L 302.753959 152.396251 
L 304.076985 155.241151 
L 305.400011 158.656516 
L 307.164045 163.831835 
L 312.01514 178.47391 
L 313.338166 181.737748 
L 314.661192 184.39128 
L 315.543209 185.761561 
L 316.425226 186.780172 
L 317.307244 187.426897 
L 318.189261 187.688901 
L 319.071278 187.560983 
L 319.953295 187.045683 
L 320.835313 186.153227 
L 321.71733 184.901328 
L 323.922373 181.018141 
L 327.009433 175.071798 
L 338.034649 153.202796 
L 340.239692 149.491361 
L 342.444735 146.225157 
L 344.20877 143.985847 
L 345.972804 142.116316 
L 347.29583 140.97435 
L 348.618856 140.066555 
L 349.941882 139.400784 
L 351.264908 138.982798 
L 352.587933 138.816212 
L 353.910959 138.902468 
L 355.233985 139.240818 
L 356.557011 139.828337 
L 357.880037 140.659942 
L 359.203063 141.728437 
L 360.967097 143.505333 
L 362.731132 145.659395 
L 364.495166 148.157512 
L 366.700209 151.705031 
L 369.346261 156.471448 
L 372.433321 162.524869 
L 381.694502 181.055698 
L 384.340554 185.673467 
L 386.545597 189.062725 
L 388.309632 191.414407 
L 390.073666 193.406833 
L 391.837701 195.009376 
L 393.160727 195.940367 
L 394.483753 196.630008 
L 395.806778 197.072332 
L 397.129804 197.263513 
L 398.45283 197.201897 
L 399.775856 196.888017 
L 401.098882 196.324587 
L 402.421908 195.516484 
L 403.744934 194.470697 
L 405.508968 192.722509 
L 407.273003 190.594957 
L 409.037037 188.120744 
L 411.24208 184.598885 
L 413.888132 179.856275 
L 416.975192 173.819987 
L 426.677382 154.457869 
L 429.323434 149.903971 
L 431.528477 146.581436 
L 433.292511 144.290832 
L 435.056546 142.36532 
L 436.82058 140.834498 
L 438.143606 139.95979 
L 439.466632 139.32803 
L 440.789658 138.944684 
L 442.112684 138.813068 
L 443.43571 138.934321 
L 444.758735 139.307394 
L 446.081761 139.929058 
L 447.404787 140.793937 
L 448.727813 141.894548 
L 450.491848 143.711982 
L 452.255882 145.903405 
L 454.019917 148.435134 
L 456.22496 152.018611 
L 458.871011 156.818181 
L 462.39908 163.789809 
L 470.337236 179.754167 
L 472.983287 184.506845 
L 475.18833 188.03954 
L 476.952365 190.523839 
L 478.716399 192.66257 
L 480.480434 194.422858 
L 481.80346 195.478213 
L 483.126486 196.296216 
L 484.449511 196.869791 
L 485.772537 197.193974 
L 487.095563 197.265961 
L 488.418589 197.08513 
L 489.741615 196.653045 
L 491.064641 195.973444 
L 492.387667 195.052207 
L 493.710693 193.897303 
L 495.474727 192.011498 
L 497.238762 189.757259 
L 499.002796 187.169235 
L 501.207839 183.525864 
L 503.853891 178.671647 
L 507.38196 171.659341 
L 509.145994 168.042423 
L 509.145994 168.042423 
" clip-path="url(#p23440755af)" style="fill: none; stroke: #0000ff; stroke-width: 1.5; stroke-linecap: square"/>
   </g>
   <g id="line2d_34">
    <path d="M 68.578381 168.042423 
L 73.429476 123.455075 
L 76.075527 100.990137 
L 78.28057 84.007302 
L 80.044605 71.855166 
L 81.808639 61.181549 
L 83.131665 54.24624 
L 84.454691 48.295403 
L 85.777717 43.38052 
L 87.100743 39.544111 
L 87.98276 37.60244 
L 88.864777 36.162509 
L 89.746795 35.229855 
L 90.628812 34.808068 
L 91.06982 34.789332 
L 91.510829 34.898768 
L 91.951838 35.136269 
L 92.833855 35.994431 
L 93.715872 37.360517 
L 94.597889 39.229274 
L 95.479907 41.593512 
L 96.802933 46.048491 
L 98.125958 51.558864 
L 99.448984 58.076957 
L 101.213019 68.236657 
L 102.977053 79.930497 
L 105.182096 96.429321 
L 107.387139 114.64688 
L 110.4742 142.200346 
L 119.735381 226.744512 
L 121.940424 244.518309 
L 124.145467 260.456664 
L 125.909502 271.627053 
L 127.673536 281.205214 
L 128.996562 287.254383 
L 130.319588 292.272227 
L 131.642614 296.215335 
L 132.524631 298.22976 
L 133.406648 299.743418 
L 134.288665 300.750486 
L 135.170683 301.247091 
L 135.611691 301.303295 
L 136.0527 301.231322 
L 136.493709 301.031239 
L 137.375726 300.247639 
L 138.257743 298.955509 
L 139.13976 297.159821 
L 140.021777 294.86748 
L 140.903795 292.087305 
L 142.226821 287.026249 
L 143.549846 280.935841 
L 144.872872 273.868771 
L 146.636907 263.033582 
L 148.400941 250.738258 
L 150.605984 233.605616 
L 153.252036 211.008343 
L 156.780105 178.713595 
L 162.954226 121.841047 
L 165.600278 99.512173 
L 167.805321 82.681962 
L 169.569355 70.67503 
L 171.33339 60.164758 
L 172.656416 53.36236 
L 173.979441 47.552081 
L 175.302467 42.784187 
L 176.184485 40.205446 
L 177.066502 38.118431 
L 177.948519 36.531171 
L 178.830536 35.449771 
L 179.712553 34.878391 
L 180.153562 34.784722 
L 180.594571 34.819228 
L 181.035579 34.981876 
L 181.917597 35.69085 
L 182.799614 36.908916 
L 183.681631 38.631389 
L 184.563648 40.851644 
L 185.445666 43.56114 
L 186.768691 48.519407 
L 188.091717 54.511691 
L 189.414743 61.486151 
L 191.178778 72.207814 
L 192.942812 84.402576 
L 195.147855 101.430082 
L 197.793907 123.934609 
L 201.321976 156.167389 
L 207.937105 216.97595 
L 210.583157 239.064478 
L 212.7882 255.62823 
L 214.552235 267.383189 
L 216.316269 277.611156 
L 217.639295 284.184512 
L 218.962321 289.753102 
L 220.285347 294.268749 
L 221.167364 296.674535 
L 222.049381 298.585536 
L 222.931398 299.994401 
L 223.813416 300.895711 
L 224.695433 301.285998 
L 225.136442 301.288963 
L 225.57745 301.163762 
L 226.459467 300.529473 
L 227.341485 299.385571 
L 228.223502 297.736455 
L 229.105519 295.588469 
L 229.987536 292.949875 
L 231.310562 288.094803 
L 232.633588 282.201135 
L 233.956614 275.319858 
L 235.720649 264.712603 
L 237.484683 252.619405 
L 239.689726 235.698436 
L 242.335778 213.288505 
L 245.863847 181.120342 
L 252.478976 120.234686 
L 255.125028 98.045581 
L 256.448054 88.125789 
L 257.330071 83.225348 
L 258.212088 80.008261 
L 258.653097 79.052273 
L 259.094105 78.538379 
L 259.535114 78.46913 
L 259.976123 78.844872 
L 260.417131 79.663738 
L 260.85814 80.92166 
L 261.740157 84.727522 
L 262.622174 90.186927 
L 263.504192 97.19152 
L 264.827218 110.283816 
L 266.150243 125.950013 
L 267.914278 149.622775 
L 272.324364 210.835584 
L 273.64739 226.407044 
L 274.970416 239.377599 
L 275.852433 246.288664 
L 276.73445 251.646785 
L 277.616468 255.34562 
L 278.057476 256.548534 
L 278.498485 257.311759 
L 278.939493 257.631503 
L 279.380502 257.506179 
L 279.821511 256.936408 
L 280.262519 255.925022 
L 280.703528 254.477045 
L 281.585545 250.302224 
L 282.467562 244.494802 
L 283.34958 237.170038 
L 284.672606 223.663418 
L 285.995631 207.678156 
L 288.200675 177.499421 
L 291.728744 128.406265 
L 293.051769 112.421057 
L 294.374795 98.914506 
L 295.256813 91.589797 
L 296.13883 85.782434 
L 297.020847 81.607676 
L 297.461856 80.159731 
L 297.902864 79.148378 
L 298.343873 78.578641 
L 298.784882 78.45335 
L 299.22589 78.773128 
L 299.666899 79.536386 
L 300.107907 80.739332 
L 300.989925 84.438231 
L 301.871942 89.796412 
L 302.753959 96.707533 
L 304.076985 109.67816 
L 305.400011 125.249678 
L 307.164045 148.845281 
L 311.574132 210.135251 
L 312.897157 225.801392 
L 314.220183 238.893616 
L 315.102201 245.898153 
L 315.984218 251.357497 
L 316.866235 255.163297 
L 317.307244 256.421185 
L 317.748252 257.240018 
L 318.189261 257.615727 
L 318.63027 257.546445 
L 319.071278 257.032517 
L 319.512287 256.076496 
L 319.953295 254.683131 
L 320.835313 250.614197 
L 321.71733 244.906471 
L 323.922373 227.200538 
L 326.568425 204.086077 
L 330.978511 163.210702 
L 335.388597 122.796393 
L 338.034649 100.386488 
L 340.239692 83.465538 
L 342.003726 71.372354 
L 343.767761 60.765112 
L 345.090787 53.883843 
L 346.413813 47.990182 
L 347.736839 43.135116 
L 348.618856 40.496525 
L 349.500873 38.348541 
L 350.38289 36.699427 
L 351.264908 35.555526 
L 352.146925 34.921237 
L 352.587933 34.796037 
L 353.028942 34.799002 
L 353.469951 34.930127 
L 354.351968 35.576236 
L 355.233985 36.731878 
L 356.116002 38.392607 
L 356.99802 40.552037 
L 357.880037 43.20186 
L 359.203063 48.073281 
L 360.526089 53.982577 
L 361.849114 60.878627 
L 363.613149 71.504029 
L 365.377183 83.613349 
L 367.582227 100.551248 
L 370.228278 122.976243 
L 373.756347 155.154768 
L 380.371477 216.028489 
L 383.017528 238.201776 
L 385.222571 254.859072 
L 386.986606 266.702281 
L 388.75064 277.028963 
L 390.073666 283.682318 
L 391.396692 289.335251 
L 392.719718 293.938855 
L 393.601735 296.404914 
L 394.483753 298.377224 
L 395.36577 299.848199 
L 396.247787 300.812182 
L 397.129804 301.265463 
L 397.570813 301.299969 
L 398.011822 301.2063 
L 398.45283 300.984546 
L 399.334847 300.157759 
L 400.216865 298.822789 
L 401.098882 296.98477 
L 401.980899 294.650772 
L 402.862916 291.829773 
L 404.185942 286.709387 
L 405.508968 280.562391 
L 406.831994 273.441963 
L 408.596028 262.541448 
L 410.360063 250.188364 
L 412.565106 232.9955 
L 415.211158 210.345392 
L 418.739227 178.016009 
L 424.913347 121.18546 
L 427.559399 98.913131 
L 429.764442 82.145947 
L 431.528477 70.198782 
L 433.292511 59.755598 
L 434.615537 53.007703 
L 435.938563 47.254996 
L 437.261589 42.547244 
L 438.143606 40.009769 
L 439.025623 37.964773 
L 439.907641 36.420123 
L 440.789658 35.38176 
L 441.671675 34.853678 
L 442.112684 34.781705 
L 442.553692 34.837909 
L 442.994701 35.022238 
L 443.876718 35.774435 
L 444.758735 37.035403 
L 445.640753 38.800291 
L 446.52277 41.062311 
L 447.404787 43.812763 
L 448.727813 48.8306 
L 450.050839 54.879762 
L 451.373865 61.907916 
L 453.137899 72.695419 
L 454.901934 84.948525 
L 457.106977 102.037067 
L 459.753029 124.595505 
L 463.281098 156.864457 
L 469.455218 213.766432 
L 472.10127 236.135971 
L 474.306313 253.011665 
L 476.070348 265.061803 
L 477.834382 275.620632 
L 479.157408 282.462511 
L 480.480434 288.31452 
L 481.80346 293.126032 
L 482.685477 295.734716 
L 483.567494 297.852229 
L 484.449511 299.470427 
L 485.331529 300.583085 
L 486.213546 301.185924 
L 486.654555 301.295359 
L 487.095563 301.276624 
L 487.536572 301.129736 
L 488.418589 300.45219 
L 489.300606 299.265328 
L 490.182624 297.573715 
L 491.064641 295.383859 
L 491.946658 292.704181 
L 493.269684 287.789304 
L 494.59271 281.838474 
L 495.915736 274.903173 
L 497.67977 264.229568 
L 499.443805 252.077446 
L 501.648848 235.094631 
L 504.294899 212.629719 
L 507.822968 180.42385 
L 509.145994 168.042423 
L 509.145994 168.042423 
" clip-path="url(#p23440755af)" style="fill: none; stroke-dasharray: 5.55,2.4; stroke-dashoffset: 0; stroke: #ff0000; stroke-width: 1.5"/>
   </g>
   <g id="patch_3">
    <path d="M 46.55 314.629375 
L 46.55 21.455625 
" style="fill: none; stroke: #000000; stroke-width: 0.8; stroke-linejoin: miter; stroke-linecap: square"/>
   </g>
   <g id="patch_4">
    <path d="M 531.174375 314.629375 
L 531.174375 21.455625 
" style="fill: none; stroke: #000000; stroke-width: 0.8; stroke-linejoin: miter; stroke-linecap: square"/>
   </g>
   <g id="patch_5">
    <path d="M 46.55 314.629375 
L 531.174375 314.629375 
" style="fill: none; stroke: #000000; stroke-width: 0.8; stroke-linejoin: miter; stroke-linecap: square"/>
   </g>
   <g id="patch_6">
    <path d="M 46.55 21.455625 
L 531.174375 21.455625 
" style="fill: none; stroke: #000000; stroke-width: 0.8; stroke-linejoin: miter; stroke-linecap: square"/>
   </g>
   <g id="text_19">
    <!-- Wavefunction for Energy = 6.200017792150386 eV -->
    <g transform="translate(162.44125 15.455625) scale(0.12 -0.12)">
     <defs>
      <path id="STIXGeneral-Regular-72" d="M 1024 2931 
L 1024 2342 
Q 1267 2688 1430 2816 
Q 1594 2944 1792 2944 
Q 1958 2944 2051 2854 
Q 2144 2765 2144 2605 
Q 2144 2470 2077 2393 
Q 2010 2317 1894 2317 
Q 1773 2317 1638 2445 
Q 1536 2541 1472 2541 
Q 1338 2541 1181 2355 
Q 1024 2170 1024 2016 
L 1024 576 
Q 1024 301 1133 205 
Q 1242 109 1568 96 
L 1568 0 
L 32 0 
L 32 96 
Q 339 154 412 224 
Q 486 294 486 538 
L 486 2138 
Q 486 2349 438 2435 
Q 390 2522 269 2522 
Q 166 2522 45 2496 
L 45 2598 
Q 448 2726 992 2944 
L 1024 2931 
z
" transform="scale(0.015625)"/>
      <path id="STIXGeneral-Regular-45" d="M 3821 1082 
L 3526 0 
L 77 0 
L 77 122 
Q 442 147 538 252 
Q 634 358 634 730 
L 634 3520 
Q 634 3878 534 3987 
Q 435 4096 77 4115 
L 77 4237 
L 3469 4237 
L 3494 3322 
L 3334 3322 
Q 3264 3750 3085 3872 
Q 2906 3994 2349 3994 
L 1510 3994 
Q 1370 3994 1328 3952 
Q 1286 3910 1286 3763 
L 1286 2355 
L 2253 2355 
Q 2656 2355 2787 2470 
Q 2918 2586 2976 2970 
L 3123 2970 
L 3123 1472 
L 2976 1472 
Q 2918 1875 2790 1984 
Q 2662 2093 2253 2093 
L 1286 2093 
L 1286 538 
Q 1286 346 1420 291 
Q 1555 237 1933 237 
L 2163 237 
Q 2848 237 3136 403 
Q 3424 570 3642 1082 
L 3821 1082 
z
" transform="scale(0.015625)"/>
      <path id="STIXGeneral-Regular-67" d="M 3008 2483 
L 2477 2483 
Q 2598 2208 2598 1946 
Q 2598 1453 2265 1203 
Q 1933 954 1600 954 
Q 1530 954 1357 973 
L 1235 986 
Q 1107 947 979 812 
Q 851 678 851 582 
Q 851 435 1350 410 
L 2176 371 
Q 2528 358 2739 172 
Q 2950 -13 2950 -314 
Q 2950 -685 2566 -986 
Q 2035 -1395 1286 -1395 
Q 826 -1395 502 -1212 
Q 179 -1030 179 -774 
Q 179 -595 320 -419 
Q 461 -243 806 6 
Q 602 102 534 172 
Q 467 243 467 346 
Q 467 531 762 787 
Q 909 915 1037 1043 
Q 717 1203 579 1401 
Q 442 1600 442 1901 
Q 442 2336 752 2640 
Q 1062 2944 1510 2944 
Q 1766 2944 2022 2848 
L 2163 2797 
Q 2349 2733 2515 2733 
L 3008 2733 
L 3008 2483 
z
M 973 2163 
L 973 2144 
Q 973 1683 1155 1398 
Q 1338 1114 1632 1114 
Q 1850 1114 1978 1270 
Q 2106 1427 2106 1690 
Q 2106 2112 1914 2464 
Q 1754 2765 1446 2765 
Q 1222 2765 1097 2605 
Q 973 2445 973 2163 
z
M 2771 -410 
Q 2771 -230 2595 -163 
Q 2419 -96 1978 -96 
Q 1344 -96 941 -13 
Q 749 -243 688 -348 
Q 627 -454 627 -563 
Q 627 -774 880 -902 
Q 1133 -1030 1555 -1030 
Q 2099 -1030 2435 -860 
Q 2771 -691 2771 -410 
z
" transform="scale(0.015625)"/>
      <path id="STIXGeneral-Regular-79" d="M 3040 2880 
L 3040 2784 
Q 2925 2771 2854 2700 
Q 2784 2630 2720 2458 
L 1760 -160 
Q 1510 -838 1257 -1116 
Q 1005 -1395 640 -1395 
Q 435 -1395 313 -1289 
Q 192 -1184 192 -1024 
Q 192 -902 272 -816 
Q 352 -730 467 -730 
Q 653 -730 800 -813 
Q 883 -858 966 -858 
Q 1101 -858 1286 -576 
Q 1376 -448 1459 -211 
Q 1542 26 1542 115 
Q 1542 198 1274 762 
L 429 2566 
Q 346 2752 90 2790 
L 90 2880 
L 1402 2880 
L 1402 2784 
Q 1197 2778 1117 2739 
Q 1037 2701 1037 2611 
Q 1037 2541 1120 2349 
L 1837 749 
L 2458 2515 
Q 2483 2573 2483 2630 
Q 2483 2784 2189 2784 
L 2189 2880 
L 3040 2880 
z
" transform="scale(0.015625)"/>
      <path id="STIXGeneral-Regular-3d" d="M 4077 2048 
L 307 2048 
L 307 2470 
L 4077 2470 
L 4077 2048 
z
M 4077 768 
L 307 768 
L 307 1190 
L 4077 1190 
L 4077 768 
z
" transform="scale(0.015625)"/>
      <path id="STIXGeneral-Regular-36" d="M 2854 4378 
L 2867 4275 
Q 2112 4154 1606 3664 
Q 1101 3174 973 2451 
Q 1344 2739 1786 2739 
Q 2349 2739 2672 2380 
Q 2995 2022 2995 1402 
Q 2995 774 2669 378 
Q 2291 -90 1651 -90 
Q 870 -90 518 557 
Q 218 1107 218 1786 
Q 218 2835 915 3552 
Q 1312 3962 1731 4131 
Q 2150 4301 2854 4378 
z
M 2419 1203 
Q 2419 2445 1555 2445 
Q 1235 2445 1024 2275 
Q 813 2106 813 1702 
Q 813 954 1046 522 
Q 1280 90 1722 90 
Q 2061 90 2240 394 
Q 2419 698 2419 1203 
z
" transform="scale(0.015625)"/>
      <path id="STIXGeneral-Regular-39" d="M 378 -141 
L 358 -13 
Q 1094 115 1603 608 
Q 2112 1101 2304 1882 
Q 1933 1517 1344 1517 
Q 826 1517 509 1875 
Q 192 2234 192 2816 
Q 192 3462 573 3894 
Q 954 4326 1523 4326 
Q 2131 4326 2528 3840 
Q 2938 3328 2938 2522 
Q 2938 1958 2742 1462 
Q 2547 966 2170 621 
Q 1773 262 1395 105 
Q 1018 -51 378 -141 
z
M 2317 2272 
L 2317 2522 
Q 2317 4147 1472 4147 
Q 1171 4147 1005 3930 
Q 909 3802 845 3546 
Q 781 3290 781 3034 
Q 781 2464 995 2128 
Q 1210 1792 1568 1792 
Q 1824 1792 2070 1917 
Q 2317 2042 2317 2272 
z
" transform="scale(0.015625)"/>
      <path id="STIXGeneral-Regular-38" d="M 2848 992 
Q 2848 499 2505 204 
Q 2163 -90 1587 -90 
Q 1050 -90 704 204 
Q 358 499 358 954 
Q 358 1293 524 1533 
Q 691 1773 1190 2125 
Q 710 2522 553 2765 
Q 397 3008 397 3328 
Q 397 3782 745 4054 
Q 1094 4326 1638 4326 
Q 2106 4326 2410 4060 
Q 2714 3795 2714 3411 
Q 2714 3059 2531 2848 
Q 2349 2637 1856 2374 
Q 2432 1990 2640 1689 
Q 2848 1389 2848 992 
z
M 2272 3411 
Q 2272 3744 2086 3945 
Q 1901 4147 1574 4147 
Q 1248 4147 1059 3977 
Q 870 3808 870 3513 
Q 870 3219 1059 2979 
Q 1248 2739 1670 2490 
Q 1997 2682 2134 2896 
Q 2272 3110 2272 3411 
z
M 1734 1741 
L 1357 1997 
Q 1075 1766 960 1545 
Q 845 1325 845 1011 
Q 845 576 1065 333 
Q 1286 90 1658 90 
Q 1971 90 2166 285 
Q 2362 480 2362 794 
Q 2362 1082 2214 1299 
Q 2067 1517 1734 1741 
z
" transform="scale(0.015625)"/>
     </defs>
     <use xlink:href="#STIXGeneral-Regular-57"/>
     <use xlink:href="#STIXGeneral-Regular-61" transform="translate(94.399994 0)"/>
     <use xlink:href="#STIXGeneral-Regular-76" transform="translate(138.799988 0)"/>
     <use xlink:href="#STIXGeneral-Regular-65" transform="translate(188.799973 0)"/>
     <use xlink:href="#STIXGeneral-Regular-66" transform="translate(233.199966 0)"/>
     <use xlink:href="#STIXGeneral-Regular-75" transform="translate(266.499954 0)"/>
     <use xlink:href="#STIXGeneral-Regular-6e" transform="translate(316.499939 0)"/>
     <use xlink:href="#STIXGeneral-Regular-63" transform="translate(366.499924 0)"/>
     <use xlink:href="#STIXGeneral-Regular-74" transform="translate(410.899918 0)"/>
     <use xlink:href="#STIXGeneral-Regular-69" transform="translate(438.699905 0)"/>
     <use xlink:href="#STIXGeneral-Regular-6f" transform="translate(466.499893 0)"/>
     <use xlink:href="#STIXGeneral-Regular-6e" transform="translate(516.499878 0)"/>
     <use xlink:href="#STIXGeneral-Regular-20" transform="translate(566.499863 0)"/>
     <use xlink:href="#STIXGeneral-Regular-66" transform="translate(591.499847 0)"/>
     <use xlink:href="#STIXGeneral-Regular-6f" transform="translate(624.799835 0)"/>
     <use xlink:href="#STIXGeneral-Regular-72" transform="translate(674.79982 0)"/>
     <use xlink:href="#STIXGeneral-Regular-20" transform="translate(708.099808 0)"/>
     <use xlink:href="#STIXGeneral-Regular-45" transform="translate(733.099792 0)"/>
     <use xlink:href="#STIXGeneral-Regular-6e" transform="translate(794.199783 0)"/>
     <use xlink:href="#STIXGeneral-Regular-65" transform="translate(844.199768 0)"/>
     <use xlink:href="#STIXGeneral-Regular-72" transform="translate(888.599762 0)"/>
     <use xlink:href="#STIXGeneral-Regular-67" transform="translate(921.89975 0)"/>
     <use xlink:href="#STIXGeneral-Regular-79" transform="translate(971.899734 0)"/>
     <use xlink:href="#STIXGeneral-Regular-20" transform="translate(1021.899719 0)"/>
     <use xlink:href="#STIXGeneral-Regular-3d" transform="translate(1046.899704 0)"/>
     <use xlink:href="#STIXGeneral-Regular-20" transform="translate(1115.399689 0)"/>
     <use xlink:href="#STIXGeneral-Regular-36" transform="translate(1140.399673 0)"/>
     <use xlink:href="#STIXGeneral-Regular-2e" transform="translate(1190.399658 0)"/>
     <use xlink:href="#STIXGeneral-Regular-32" transform="translate(1215.399643 0)"/>
     <use xlink:href="#STIXGeneral-Regular-30" transform="translate(1265.399628 0)"/>
     <use xlink:href="#STIXGeneral-Regular-30" transform="translate(1315.399612 0)"/>
     <use xlink:href="#STIXGeneral-Regular-30" transform="translate(1365.399597 0)"/>
     <use xlink:href="#STIXGeneral-Regular-31" transform="translate(1415.399582 0)"/>
     <use xlink:href="#STIXGeneral-Regular-37" transform="translate(1465.399567 0)"/>
     <use xlink:href="#STIXGeneral-Regular-37" transform="translate(1515.399551 0)"/>
     <use xlink:href="#STIXGeneral-Regular-39" transform="translate(1565.399536 0)"/>
     <use xlink:href="#STIXGeneral-Regular-32" transform="translate(1615.399521 0)"/>
     <use xlink:href="#STIXGeneral-Regular-31" transform="translate(1665.399506 0)"/>
     <use xlink:href="#STIXGeneral-Regular-35" transform="translate(1715.39949 0)"/>
     <use xlink:href="#STIXGeneral-Regular-30" transform="translate(1765.399475 0)"/>
     <use xlink:href="#STIXGeneral-Regular-33" transform="translate(1815.39946 0)"/>
     <use xlink:href="#STIXGeneral-Regular-38" transform="translate(1865.399445 0)"/>
     <use xlink:href="#STIXGeneral-Regular-36" transform="translate(1915.399429 0)"/>
     <use xlink:href="#STIXGeneral-Regular-20" transform="translate(1965.399414 0)"/>
     <use xlink:href="#STIXGeneral-Regular-65" transform="translate(1990.399399 0)"/>
     <use xlink:href="#STIXGeneral-Regular-56" transform="translate(2034.799393 0)"/>
    </g>
   </g>
   <g id="legend_1">
    <g id="patch_7">
     <path d="M 243.002031 309.629375 
L 334.722344 309.629375 
Q 336.722344 309.629375 336.722344 307.629375 
L 336.722344 280.279375 
Q 336.722344 278.279375 334.722344 278.279375 
L 243.002031 278.279375 
Q 241.002031 278.279375 241.002031 280.279375 
L 241.002031 307.629375 
Q 241.002031 309.629375 243.002031 309.629375 
z
" style="fill: #ffffff; opacity: 0.8; stroke: #cccccc; stroke-linejoin: miter"/>
    </g>
    <g id="line2d_35">
     <path d="M 245.002031 285.779375 
L 255.002031 285.779375 
L 265.002031 285.779375 
" style="fill: none; stroke: #0000ff; stroke-width: 1.5; stroke-linecap: square"/>
    </g>
    <g id="text_20">
     <!-- Real Part -->
     <g transform="translate(273.002031 289.279375) scale(0.1 -0.1)">
      <defs>
       <path id="STIXGeneral-Regular-52" d="M 4224 0 
L 3187 0 
L 1664 1971 
L 1306 1958 
L 1306 717 
Q 1306 352 1405 249 
Q 1504 147 1875 122 
L 1875 0 
L 109 0 
L 109 122 
Q 474 154 563 262 
Q 653 371 653 794 
L 653 3526 
Q 653 3885 563 3987 
Q 474 4090 109 4115 
L 109 4237 
L 1850 4237 
Q 2726 4237 3187 3859 
Q 3501 3603 3501 3091 
Q 3501 2221 2342 2042 
L 3622 422 
Q 3757 256 3878 198 
Q 4000 141 4224 122 
L 4224 0 
z
M 1306 3731 
L 1306 2195 
Q 1766 2202 1990 2246 
Q 2214 2291 2438 2413 
Q 2803 2618 2803 3142 
Q 2803 4000 1632 4000 
Q 1459 4000 1382 3945 
Q 1306 3891 1306 3731 
z
" transform="scale(0.015625)"/>
       <path id="STIXGeneral-Regular-50" d="M 102 4237 
L 1760 4237 
Q 2669 4237 3149 3834 
Q 3469 3565 3469 3072 
Q 3469 2560 3104 2234 
Q 2835 1990 2553 1916 
Q 2272 1843 1734 1843 
Q 1549 1843 1293 1862 
L 1293 717 
Q 1293 352 1398 246 
Q 1504 141 1894 122 
L 1894 0 
L 102 0 
L 102 122 
Q 474 147 557 256 
Q 640 365 640 781 
L 640 3526 
Q 640 3885 547 3987 
Q 454 4090 102 4115 
L 102 4237 
z
M 1293 3770 
L 1293 2118 
Q 1510 2099 1683 2099 
Q 2202 2099 2486 2352 
Q 2771 2605 2771 3040 
Q 2771 3558 2476 3779 
Q 2182 4000 1517 4000 
Q 1382 4000 1337 3952 
Q 1293 3904 1293 3770 
z
" transform="scale(0.015625)"/>
      </defs>
      <use xlink:href="#STIXGeneral-Regular-52"/>
      <use xlink:href="#STIXGeneral-Regular-65" transform="translate(66.699997 0)"/>
      <use xlink:href="#STIXGeneral-Regular-61" transform="translate(111.099991 0)"/>
      <use xlink:href="#STIXGeneral-Regular-6c" transform="translate(155.499985 0)"/>
      <use xlink:href="#STIXGeneral-Regular-20" transform="translate(183.299973 0)"/>
      <use xlink:href="#STIXGeneral-Regular-50" transform="translate(208.299957 0)"/>
      <use xlink:href="#STIXGeneral-Regular-61" transform="translate(263.999954 0)"/>
      <use xlink:href="#STIXGeneral-Regular-72" transform="translate(308.399948 0)"/>
      <use xlink:href="#STIXGeneral-Regular-74" transform="translate(341.699936 0)"/>
     </g>
    </g>
    <g id="line2d_36">
     <path d="M 245.002031 299.949687 
L 255.002031 299.949687 
L 265.002031 299.949687 
" style="fill: none; stroke-dasharray: 5.55,2.4; stroke-dashoffset: 0; stroke: #ff0000; stroke-width: 1.5"/>
    </g>
    <g id="text_21">
     <!-- Imaginary Part -->
     <g transform="translate(273.002031 303.449687) scale(0.1 -0.1)">
      <defs>
       <path id="STIXGeneral-Regular-49" d="M 2016 0 
L 115 0 
L 115 122 
Q 518 134 627 240 
Q 736 346 736 717 
L 736 3526 
Q 736 3898 633 3994 
Q 531 4090 115 4115 
L 115 4237 
L 2016 4237 
L 2016 4115 
Q 1613 4096 1501 3993 
Q 1389 3891 1389 3526 
L 1389 717 
Q 1389 358 1504 246 
Q 1619 134 2016 122 
L 2016 0 
z
" transform="scale(0.015625)"/>
       <path id="STIXGeneral-Regular-6d" d="M 4960 0 
L 3565 0 
L 3565 96 
Q 3834 122 3907 208 
Q 3981 294 3981 576 
L 3981 1894 
Q 3981 2278 3869 2444 
Q 3757 2611 3488 2611 
Q 3264 2611 3107 2521 
Q 2950 2432 2803 2221 
L 2803 608 
Q 2803 301 2896 201 
Q 2989 102 3264 96 
L 3264 0 
L 1830 0 
L 1830 96 
Q 2112 115 2189 188 
Q 2266 262 2266 550 
L 2266 1901 
Q 2266 2611 1850 2611 
Q 1670 2611 1468 2531 
Q 1267 2451 1171 2336 
Q 1088 2240 1088 2227 
L 1088 448 
Q 1088 243 1177 176 
Q 1267 109 1523 96 
L 1523 0 
L 102 0 
L 102 96 
Q 371 102 460 195 
Q 550 288 550 563 
L 550 2150 
Q 550 2387 499 2480 
Q 448 2573 326 2573 
Q 230 2573 122 2547 
L 122 2656 
Q 557 2778 1011 2944 
L 1062 2925 
L 1062 2451 
L 1075 2451 
Q 1363 2752 1584 2848 
Q 1805 2944 2054 2944 
Q 2560 2944 2733 2406 
Q 3232 2944 3776 2944 
Q 4518 2944 4518 1792 
L 4518 493 
Q 4518 282 4582 202 
Q 4646 122 4794 109 
L 4960 96 
L 4960 0 
z
" transform="scale(0.015625)"/>
      </defs>
      <use xlink:href="#STIXGeneral-Regular-49"/>
      <use xlink:href="#STIXGeneral-Regular-6d" transform="translate(33.299988 0)"/>
      <use xlink:href="#STIXGeneral-Regular-61" transform="translate(111.099976 0)"/>
      <use xlink:href="#STIXGeneral-Regular-67" transform="translate(155.499969 0)"/>
      <use xlink:href="#STIXGeneral-Regular-69" transform="translate(205.499954 0)"/>
      <use xlink:href="#STIXGeneral-Regular-6e" transform="translate(233.299942 0)"/>
      <use xlink:href="#STIXGeneral-Regular-61" transform="translate(283.299927 0)"/>
      <use xlink:href="#STIXGeneral-Regular-72" transform="translate(327.699921 0)"/>
      <use xlink:href="#STIXGeneral-Regular-79" transform="translate(360.999908 0)"/>
      <use xlink:href="#STIXGeneral-Regular-20" transform="translate(410.999893 0)"/>
      <use xlink:href="#STIXGeneral-Regular-50" transform="translate(435.999878 0)"/>
      <use xlink:href="#STIXGeneral-Regular-61" transform="translate(491.699875 0)"/>
      <use xlink:href="#STIXGeneral-Regular-72" transform="translate(536.099869 0)"/>
      <use xlink:href="#STIXGeneral-Regular-74" transform="translate(569.399857 0)"/>
     </g>
    </g>
   </g>
  </g>
  <g id="axes_2">
   <g id="patch_8">
    <path d="M 580.255625 314.629375 
L 1064.88 314.629375 
L 1064.88 21.455625 
L 580.255625 21.455625 
z
" style="fill: #ffffff"/>
   </g>
   <g id="matplotlib.axis_3">
    <g id="xtick_10">
     <g id="line2d_37">
      <path d="M 602.284006 314.629375 
L 602.284006 21.455625 
" clip-path="url(#p5e45ec0ec3)" style="fill: none; stroke: #b0b0b0; stroke-width: 0.8; stroke-linecap: square"/>
     </g>
     <g id="line2d_38">
      <g>
       <use xlink:href="#m06e5f8c22f" x="602.284006" y="314.629375" style="stroke: #000000; stroke-width: 0.8"/>
      </g>
     </g>
     <g id="text_22">
      <!-- −10.0 -->
      <g transform="translate(590.109006 328.459062) scale(0.1 -0.1)">
       <use xlink:href="#STIXGeneral-Regular-2212"/>
       <use xlink:href="#STIXGeneral-Regular-31" transform="translate(68.499985 0)"/>
       <use xlink:href="#STIXGeneral-Regular-30" transform="translate(118.499969 0)"/>
       <use xlink:href="#STIXGeneral-Regular-2e" transform="translate(168.499954 0)"/>
       <use xlink:href="#STIXGeneral-Regular-30" transform="translate(193.499939 0)"/>
      </g>
     </g>
    </g>
    <g id="xtick_11">
     <g id="line2d_39">
      <path d="M 657.354957 314.629375 
L 657.354957 21.455625 
" clip-path="url(#p5e45ec0ec3)" style="fill: none; stroke: #b0b0b0; stroke-width: 0.8; stroke-linecap: square"/>
     </g>
     <g id="line2d_40">
      <g>
       <use xlink:href="#m06e5f8c22f" x="657.354957" y="314.629375" style="stroke: #000000; stroke-width: 0.8"/>
      </g>
     </g>
     <g id="text_23">
      <!-- −7.5 -->
      <g transform="translate(647.679957 328.459062) scale(0.1 -0.1)">
       <use xlink:href="#STIXGeneral-Regular-2212"/>
       <use xlink:href="#STIXGeneral-Regular-37" transform="translate(68.499985 0)"/>
       <use xlink:href="#STIXGeneral-Regular-2e" transform="translate(118.499969 0)"/>
       <use xlink:href="#STIXGeneral-Regular-35" transform="translate(143.499954 0)"/>
      </g>
     </g>
    </g>
    <g id="xtick_12">
     <g id="line2d_41">
      <path d="M 712.425909 314.629375 
L 712.425909 21.455625 
" clip-path="url(#p5e45ec0ec3)" style="fill: none; stroke: #b0b0b0; stroke-width: 0.8; stroke-linecap: square"/>
     </g>
     <g id="line2d_42">
      <g>
       <use xlink:href="#m06e5f8c22f" x="712.425909" y="314.629375" style="stroke: #000000; stroke-width: 0.8"/>
      </g>
     </g>
     <g id="text_24">
      <!-- −5.0 -->
      <g transform="translate(702.750909 328.459062) scale(0.1 -0.1)">
       <use xlink:href="#STIXGeneral-Regular-2212"/>
       <use xlink:href="#STIXGeneral-Regular-35" transform="translate(68.499985 0)"/>
       <use xlink:href="#STIXGeneral-Regular-2e" transform="translate(118.499969 0)"/>
       <use xlink:href="#STIXGeneral-Regular-30" transform="translate(143.499954 0)"/>
      </g>
     </g>
    </g>
    <g id="xtick_13">
     <g id="line2d_43">
      <path d="M 767.496861 314.629375 
L 767.496861 21.455625 
" clip-path="url(#p5e45ec0ec3)" style="fill: none; stroke: #b0b0b0; stroke-width: 0.8; stroke-linecap: square"/>
     </g>
     <g id="line2d_44">
      <g>
       <use xlink:href="#m06e5f8c22f" x="767.496861" y="314.629375" style="stroke: #000000; stroke-width: 0.8"/>
      </g>
     </g>
     <g id="text_25">
      <!-- −2.5 -->
      <g transform="translate(757.821861 328.459062) scale(0.1 -0.1)">
       <use xlink:href="#STIXGeneral-Regular-2212"/>
       <use xlink:href="#STIXGeneral-Regular-32" transform="translate(68.499985 0)"/>
       <use xlink:href="#STIXGeneral-Regular-2e" transform="translate(118.499969 0)"/>
       <use xlink:href="#STIXGeneral-Regular-35" transform="translate(143.499954 0)"/>
      </g>
     </g>
    </g>
    <g id="xtick_14">
     <g id="line2d_45">
      <path d="M 822.567813 314.629375 
L 822.567813 21.455625 
" clip-path="url(#p5e45ec0ec3)" style="fill: none; stroke: #b0b0b0; stroke-width: 0.8; stroke-linecap: square"/>
     </g>
     <g id="line2d_46">
      <g>
       <use xlink:href="#m06e5f8c22f" x="822.567813" y="314.629375" style="stroke: #000000; stroke-width: 0.8"/>
      </g>
     </g>
     <g id="text_26">
      <!-- 0.0 -->
      <g transform="translate(816.317813 328.459062) scale(0.1 -0.1)">
       <use xlink:href="#STIXGeneral-Regular-30"/>
       <use xlink:href="#STIXGeneral-Regular-2e" transform="translate(49.999985 0)"/>
       <use xlink:href="#STIXGeneral-Regular-30" transform="translate(74.999969 0)"/>
      </g>
     </g>
    </g>
    <g id="xtick_15">
     <g id="line2d_47">
      <path d="M 877.638764 314.629375 
L 877.638764 21.455625 
" clip-path="url(#p5e45ec0ec3)" style="fill: none; stroke: #b0b0b0; stroke-width: 0.8; stroke-linecap: square"/>
     </g>
     <g id="line2d_48">
      <g>
       <use xlink:href="#m06e5f8c22f" x="877.638764" y="314.629375" style="stroke: #000000; stroke-width: 0.8"/>
      </g>
     </g>
     <g id="text_27">
      <!-- 2.5 -->
      <g transform="translate(871.388764 328.459062) scale(0.1 -0.1)">
       <use xlink:href="#STIXGeneral-Regular-32"/>
       <use xlink:href="#STIXGeneral-Regular-2e" transform="translate(49.999985 0)"/>
       <use xlink:href="#STIXGeneral-Regular-35" transform="translate(74.999969 0)"/>
      </g>
     </g>
    </g>
    <g id="xtick_16">
     <g id="line2d_49">
      <path d="M 932.709716 314.629375 
L 932.709716 21.455625 
" clip-path="url(#p5e45ec0ec3)" style="fill: none; stroke: #b0b0b0; stroke-width: 0.8; stroke-linecap: square"/>
     </g>
     <g id="line2d_50">
      <g>
       <use xlink:href="#m06e5f8c22f" x="932.709716" y="314.629375" style="stroke: #000000; stroke-width: 0.8"/>
      </g>
     </g>
     <g id="text_28">
      <!-- 5.0 -->
      <g transform="translate(926.459716 328.459062) scale(0.1 -0.1)">
       <use xlink:href="#STIXGeneral-Regular-35"/>
       <use xlink:href="#STIXGeneral-Regular-2e" transform="translate(49.999985 0)"/>
       <use xlink:href="#STIXGeneral-Regular-30" transform="translate(74.999969 0)"/>
      </g>
     </g>
    </g>
    <g id="xtick_17">
     <g id="line2d_51">
      <path d="M 987.780668 314.629375 
L 987.780668 21.455625 
" clip-path="url(#p5e45ec0ec3)" style="fill: none; stroke: #b0b0b0; stroke-width: 0.8; stroke-linecap: square"/>
     </g>
     <g id="line2d_52">
      <g>
       <use xlink:href="#m06e5f8c22f" x="987.780668" y="314.629375" style="stroke: #000000; stroke-width: 0.8"/>
      </g>
     </g>
     <g id="text_29">
      <!-- 7.5 -->
      <g transform="translate(981.530668 328.459062) scale(0.1 -0.1)">
       <use xlink:href="#STIXGeneral-Regular-37"/>
       <use xlink:href="#STIXGeneral-Regular-2e" transform="translate(49.999985 0)"/>
       <use xlink:href="#STIXGeneral-Regular-35" transform="translate(74.999969 0)"/>
      </g>
     </g>
    </g>
    <g id="xtick_18">
     <g id="line2d_53">
      <path d="M 1042.851619 314.629375 
L 1042.851619 21.455625 
" clip-path="url(#p5e45ec0ec3)" style="fill: none; stroke: #b0b0b0; stroke-width: 0.8; stroke-linecap: square"/>
     </g>
     <g id="line2d_54">
      <g>
       <use xlink:href="#m06e5f8c22f" x="1042.851619" y="314.629375" style="stroke: #000000; stroke-width: 0.8"/>
      </g>
     </g>
     <g id="text_30">
      <!-- 10.0 -->
      <g transform="translate(1034.101619 328.459062) scale(0.1 -0.1)">
       <use xlink:href="#STIXGeneral-Regular-31"/>
       <use xlink:href="#STIXGeneral-Regular-30" transform="translate(49.999985 0)"/>
       <use xlink:href="#STIXGeneral-Regular-2e" transform="translate(99.999969 0)"/>
       <use xlink:href="#STIXGeneral-Regular-30" transform="translate(124.999954 0)"/>
      </g>
     </g>
    </g>
    <g id="text_31">
     <!-- x -->
     <g transform="translate(820.067813 341.459062) scale(0.1 -0.1)">
      <use xlink:href="#STIXGeneral-Regular-78"/>
     </g>
    </g>
   </g>
   <g id="matplotlib.axis_4">
    <g id="ytick_8">
     <g id="line2d_55">
      <path d="M 580.255625 301.303295 
L 1064.88 301.303295 
" clip-path="url(#p5e45ec0ec3)" style="fill: none; stroke: #b0b0b0; stroke-width: 0.8; stroke-linecap: square"/>
     </g>
     <g id="line2d_56">
      <g>
       <use xlink:href="#mc1a728ba6f" x="580.255625" y="301.303295" style="stroke: #000000; stroke-width: 0.8"/>
      </g>
     </g>
     <g id="text_32">
      <!-- 0.00 -->
      <g transform="translate(555.755625 304.718139) scale(0.1 -0.1)">
       <use xlink:href="#STIXGeneral-Regular-30"/>
       <use xlink:href="#STIXGeneral-Regular-2e" transform="translate(49.999985 0)"/>
       <use xlink:href="#STIXGeneral-Regular-30" transform="translate(74.999969 0)"/>
       <use xlink:href="#STIXGeneral-Regular-30" transform="translate(124.999954 0)"/>
      </g>
     </g>
    </g>
    <g id="ytick_9">
     <g id="line2d_57">
      <path d="M 580.255625 253.674833 
L 1064.88 253.674833 
" clip-path="url(#p5e45ec0ec3)" style="fill: none; stroke: #b0b0b0; stroke-width: 0.8; stroke-linecap: square"/>
     </g>
     <g id="line2d_58">
      <g>
       <use xlink:href="#mc1a728ba6f" x="580.255625" y="253.674833" style="stroke: #000000; stroke-width: 0.8"/>
      </g>
     </g>
     <g id="text_33">
      <!-- 0.02 -->
      <g transform="translate(555.755625 257.089676) scale(0.1 -0.1)">
       <use xlink:href="#STIXGeneral-Regular-30"/>
       <use xlink:href="#STIXGeneral-Regular-2e" transform="translate(49.999985 0)"/>
       <use xlink:href="#STIXGeneral-Regular-30" transform="translate(74.999969 0)"/>
       <use xlink:href="#STIXGeneral-Regular-32" transform="translate(124.999954 0)"/>
      </g>
     </g>
    </g>
    <g id="ytick_10">
     <g id="line2d_59">
      <path d="M 580.255625 206.04637 
L 1064.88 206.04637 
" clip-path="url(#p5e45ec0ec3)" style="fill: none; stroke: #b0b0b0; stroke-width: 0.8; stroke-linecap: square"/>
     </g>
     <g id="line2d_60">
      <g>
       <use xlink:href="#mc1a728ba6f" x="580.255625" y="206.04637" style="stroke: #000000; stroke-width: 0.8"/>
      </g>
     </g>
     <g id="text_34">
      <!-- 0.04 -->
      <g transform="translate(555.755625 209.461214) scale(0.1 -0.1)">
       <defs>
        <path id="STIXGeneral-Regular-34" d="M 3027 1069 
L 2368 1069 
L 2368 0 
L 1869 0 
L 1869 1069 
L 77 1069 
L 77 1478 
L 2086 4326 
L 2368 4326 
L 2368 1478 
L 3027 1478 
L 3027 1069 
z
M 1869 1478 
L 1869 3674 
L 333 1478 
L 1869 1478 
z
" transform="scale(0.015625)"/>
       </defs>
       <use xlink:href="#STIXGeneral-Regular-30"/>
       <use xlink:href="#STIXGeneral-Regular-2e" transform="translate(49.999985 0)"/>
       <use xlink:href="#STIXGeneral-Regular-30" transform="translate(74.999969 0)"/>
       <use xlink:href="#STIXGeneral-Regular-34" transform="translate(124.999954 0)"/>
      </g>
     </g>
    </g>
    <g id="ytick_11">
     <g id="line2d_61">
      <path d="M 580.255625 158.417907 
L 1064.88 158.417907 
" clip-path="url(#p5e45ec0ec3)" style="fill: none; stroke: #b0b0b0; stroke-width: 0.8; stroke-linecap: square"/>
     </g>
     <g id="line2d_62">
      <g>
       <use xlink:href="#mc1a728ba6f" x="580.255625" y="158.417907" style="stroke: #000000; stroke-width: 0.8"/>
      </g>
     </g>
     <g id="text_35">
      <!-- 0.06 -->
      <g transform="translate(555.755625 161.832751) scale(0.1 -0.1)">
       <use xlink:href="#STIXGeneral-Regular-30"/>
       <use xlink:href="#STIXGeneral-Regular-2e" transform="translate(49.999985 0)"/>
       <use xlink:href="#STIXGeneral-Regular-30" transform="translate(74.999969 0)"/>
       <use xlink:href="#STIXGeneral-Regular-36" transform="translate(124.999954 0)"/>
      </g>
     </g>
    </g>
    <g id="ytick_12">
     <g id="line2d_63">
      <path d="M 580.255625 110.789444 
L 1064.88 110.789444 
" clip-path="url(#p5e45ec0ec3)" style="fill: none; stroke: #b0b0b0; stroke-width: 0.8; stroke-linecap: square"/>
     </g>
     <g id="line2d_64">
      <g>
       <use xlink:href="#mc1a728ba6f" x="580.255625" y="110.789444" style="stroke: #000000; stroke-width: 0.8"/>
      </g>
     </g>
     <g id="text_36">
      <!-- 0.08 -->
      <g transform="translate(555.755625 114.204288) scale(0.1 -0.1)">
       <use xlink:href="#STIXGeneral-Regular-30"/>
       <use xlink:href="#STIXGeneral-Regular-2e" transform="translate(49.999985 0)"/>
       <use xlink:href="#STIXGeneral-Regular-30" transform="translate(74.999969 0)"/>
       <use xlink:href="#STIXGeneral-Regular-38" transform="translate(124.999954 0)"/>
      </g>
     </g>
    </g>
    <g id="ytick_13">
     <g id="line2d_65">
      <path d="M 580.255625 63.160981 
L 1064.88 63.160981 
" clip-path="url(#p5e45ec0ec3)" style="fill: none; stroke: #b0b0b0; stroke-width: 0.8; stroke-linecap: square"/>
     </g>
     <g id="line2d_66">
      <g>
       <use xlink:href="#mc1a728ba6f" x="580.255625" y="63.160981" style="stroke: #000000; stroke-width: 0.8"/>
      </g>
     </g>
     <g id="text_37">
      <!-- 0.10 -->
      <g transform="translate(555.755625 66.575825) scale(0.1 -0.1)">
       <use xlink:href="#STIXGeneral-Regular-30"/>
       <use xlink:href="#STIXGeneral-Regular-2e" transform="translate(49.999985 0)"/>
       <use xlink:href="#STIXGeneral-Regular-31" transform="translate(74.999969 0)"/>
       <use xlink:href="#STIXGeneral-Regular-30" transform="translate(124.999954 0)"/>
      </g>
     </g>
    </g>
    <g id="text_38">
     <!-- Wavefunction Magnitude -->
     <g transform="translate(549.575938 219.283906) rotate(-90) scale(0.1 -0.1)">
      <defs>
       <path id="STIXGeneral-Regular-4d" d="M 5530 0 
L 3738 0 
L 3738 122 
Q 4115 147 4214 265 
Q 4314 384 4314 787 
L 4314 3661 
L 2682 0 
L 2592 0 
L 979 3514 
L 979 966 
Q 979 448 1088 294 
Q 1197 141 1574 122 
L 1574 0 
L 77 0 
L 77 122 
Q 358 141 480 205 
Q 602 269 650 432 
Q 698 595 698 966 
L 698 3514 
Q 698 3878 589 3984 
Q 480 4090 90 4115 
L 90 4237 
L 1357 4237 
L 2835 1024 
L 4250 4237 
L 5523 4237 
L 5523 4115 
Q 5178 4109 5072 3993 
Q 4966 3878 4966 3520 
L 4966 717 
Q 4966 378 5072 262 
Q 5178 147 5530 122 
L 5530 0 
z
" transform="scale(0.015625)"/>
       <path id="STIXGeneral-Regular-64" d="M 3142 269 
L 2202 -64 
L 2176 -45 
L 2176 365 
Q 1869 -64 1357 -64 
Q 826 -64 499 317 
Q 173 698 173 1312 
Q 173 1990 563 2467 
Q 954 2944 1504 2944 
Q 1850 2944 2176 2669 
L 2176 3667 
Q 2176 3866 2118 3930 
Q 2061 3994 1882 3994 
Q 1792 3994 1741 3987 
L 1741 4090 
Q 2323 4243 2682 4371 
L 2714 4358 
L 2714 730 
Q 2714 506 2768 435 
Q 2822 365 2995 365 
Q 3034 365 3142 371 
L 3142 269 
z
M 2176 653 
L 2176 2125 
Q 2176 2381 1981 2573 
Q 1786 2765 1523 2765 
Q 1158 2765 940 2438 
Q 723 2112 723 1568 
Q 723 979 963 624 
Q 1203 269 1606 269 
Q 1907 269 2080 474 
Q 2176 582 2176 653 
z
" transform="scale(0.015625)"/>
      </defs>
      <use xlink:href="#STIXGeneral-Regular-57"/>
      <use xlink:href="#STIXGeneral-Regular-61" transform="translate(94.399994 0)"/>
      <use xlink:href="#STIXGeneral-Regular-76" transform="translate(138.799988 0)"/>
      <use xlink:href="#STIXGeneral-Regular-65" transform="translate(188.799973 0)"/>
      <use xlink:href="#STIXGeneral-Regular-66" transform="translate(233.199966 0)"/>
      <use xlink:href="#STIXGeneral-Regular-75" transform="translate(266.499954 0)"/>
      <use xlink:href="#STIXGeneral-Regular-6e" transform="translate(316.499939 0)"/>
      <use xlink:href="#STIXGeneral-Regular-63" transform="translate(366.499924 0)"/>
      <use xlink:href="#STIXGeneral-Regular-74" transform="translate(410.899918 0)"/>
      <use xlink:href="#STIXGeneral-Regular-69" transform="translate(438.699905 0)"/>
      <use xlink:href="#STIXGeneral-Regular-6f" transform="translate(466.499893 0)"/>
      <use xlink:href="#STIXGeneral-Regular-6e" transform="translate(516.499878 0)"/>
      <use xlink:href="#STIXGeneral-Regular-20" transform="translate(566.499863 0)"/>
      <use xlink:href="#STIXGeneral-Regular-4d" transform="translate(591.499847 0)"/>
      <use xlink:href="#STIXGeneral-Regular-61" transform="translate(680.399841 0)"/>
      <use xlink:href="#STIXGeneral-Regular-67" transform="translate(724.799835 0)"/>
      <use xlink:href="#STIXGeneral-Regular-6e" transform="translate(774.79982 0)"/>
      <use xlink:href="#STIXGeneral-Regular-69" transform="translate(824.799805 0)"/>
      <use xlink:href="#STIXGeneral-Regular-74" transform="translate(852.599792 0)"/>
      <use xlink:href="#STIXGeneral-Regular-75" transform="translate(880.39978 0)"/>
      <use xlink:href="#STIXGeneral-Regular-64" transform="translate(930.399765 0)"/>
      <use xlink:href="#STIXGeneral-Regular-65" transform="translate(980.39975 0)"/>
     </g>
    </g>
   </g>
   <g id="line2d_67">
    <path d="M 602.284006 301.303295 
L 602.725014 301.047 
L 603.166023 300.279098 
L 603.607032 299.002545 
L 604.04804 297.22225 
L 604.930057 292.179738 
L 605.812075 285.229072 
L 606.694092 276.477094 
L 608.017118 260.273016 
L 609.340144 240.884209 
L 611.104178 211.248591 
L 614.191238 154.205201 
L 616.83729 106.954219 
L 618.601325 79.739392 
L 619.924351 62.797999 
L 620.806368 53.491523 
L 621.688385 45.945832 
L 622.570402 40.276915 
L 623.45242 36.571908 
L 623.893428 35.474875 
L 624.334437 34.887764 
L 624.775445 34.812832 
L 625.216454 35.250368 
L 625.657463 36.19869 
L 626.098471 37.654148 
L 626.980489 42.062155 
L 627.862506 48.406631 
L 628.744523 56.590054 
L 629.62654 66.486635 
L 630.949566 84.204275 
L 632.272592 104.816824 
L 634.477635 143.63613 
L 639.32873 231.714386 
L 641.092764 258.513806 
L 642.41579 275.054739 
L 643.297808 284.059367 
L 644.179825 291.28066 
L 645.061842 296.607621 
L 645.502851 298.533962 
L 645.943859 299.958365 
L 646.384868 300.875349 
L 646.825877 301.281388 
L 647.266885 301.17492 
L 647.707894 300.556354 
L 648.148902 299.428069 
L 648.589911 297.794406 
L 649.471928 293.038001 
L 650.353946 286.360249 
L 651.235963 277.863796 
L 652.558989 262.001901 
L 653.882014 242.89558 
L 655.646049 213.527226 
L 658.733109 156.610679 
L 661.379161 109.111698 
L 663.143196 81.563566 
L 664.466221 64.297484 
L 665.348239 54.745014 
L 666.230256 46.934061 
L 667.112273 40.984691 
L 667.99429 36.988353 
L 668.435299 35.742969 
L 668.876308 35.006475 
L 669.317316 34.781705 
L 669.758325 35.069522 
L 670.199334 35.86882 
L 670.640342 37.176524 
L 671.081351 38.987604 
L 671.963368 44.090117 
L 672.845385 51.097928 
L 673.727402 59.903318 
L 675.050428 76.178732 
L 676.373454 95.626177 
L 678.137489 125.316801 
L 681.224549 182.384498 
L 683.870601 229.581308 
L 685.634635 256.724849 
L 686.957661 273.5972 
L 687.839678 282.851515 
L 688.721696 290.341063 
L 689.603713 295.95072 
L 690.48573 299.594259 
L 690.926739 300.660025 
L 691.367747 301.215673 
L 691.808756 301.259067 
L 692.249765 300.79004 
L 692.690773 299.810395 
L 693.131782 298.323902 
L 694.013799 293.855166 
L 694.895816 287.452523 
L 695.777834 279.21439 
L 696.659851 269.267397 
L 697.982877 251.483871 
L 699.746911 223.411494 
L 701.951954 183.77491 
L 705.921032 111.288553 
L 707.685066 83.416174 
L 709.008092 65.83108 
L 710.331118 51.775322 
L 711.213135 44.610786 
L 712.095153 39.343544 
L 712.536161 37.447887 
L 712.97717 36.054561 
L 713.418178 35.168927 
L 713.859187 34.794391 
L 714.300196 34.932395 
L 714.741204 35.582406 
L 715.182213 36.741926 
L 715.623222 38.406493 
L 716.505239 43.223241 
L 717.387256 49.958612 
L 718.269273 58.509074 
L 719.592299 74.443417 
L 720.915325 93.609711 
L 722.67936 123.035115 
L 725.76642 179.979912 
L 728.412472 227.427997 
L 730.176506 254.906735 
L 731.499532 272.104956 
L 732.381549 281.605916 
L 733.263566 289.361256 
L 734.145584 295.251765 
L 735.027601 299.1869 
L 735.46861 300.401097 
L 735.909618 301.106172 
L 736.350627 301.299414 
L 736.791635 300.98008 
L 737.232644 300.149397 
L 737.673653 298.810562 
L 738.114661 296.968723 
L 738.996679 291.806282 
L 739.878696 284.741428 
L 740.760713 275.882756 
L 742.083739 259.536243 
L 743.406765 240.030441 
L 745.170799 210.285244 
L 748.698868 145.013139 
L 750.903911 106.052121 
L 752.667946 78.98026 
L 753.990972 62.177198 
L 754.872989 52.975178 
L 755.755006 45.541881 
L 756.637023 39.991566 
L 757.519041 36.409549 
L 757.960049 35.375066 
L 758.401058 34.850889 
L 758.842067 34.839033 
L 759.283075 35.339544 
L 759.724084 36.350498 
L 760.165092 37.868005 
L 761.04711 42.397405 
L 761.929127 48.858121 
L 762.811144 57.150844 
L 764.13417 72.738876 
L 765.457196 91.617718 
L 767.22123 120.768226 
L 769.867282 169.313294 
L 772.954342 225.25516 
L 774.718377 253.060061 
L 776.041403 270.578497 
L 777.364429 284.556356 
L 778.246446 291.66403 
L 779.128463 296.871476 
L 779.569472 298.736422 
L 780.01048 300.098651 
L 780.451489 300.952921 
L 780.892498 301.295948 
L 781.333506 301.126412 
L 781.774515 300.444964 
L 782.215524 299.254227 
L 782.656532 297.55878 
L 783.538549 292.681758 
L 784.420567 285.888867 
L 785.302584 277.28452 
L 786.62561 261.277962 
L 787.948636 242.051973 
L 791.035696 193.33564 
L 791.917713 184.989948 
L 792.358722 182.450073 
L 792.79973 181.073417 
L 793.240739 180.887304 
L 793.681748 181.895427 
L 794.122756 184.077778 
L 794.563765 187.391045 
L 795.445782 197.126151 
L 796.327799 210.331735 
L 797.650825 234.310323 
L 799.855868 274.712295 
L 800.737886 287.287641 
L 801.619903 296.21128 
L 802.060912 299.070456 
L 802.50192 300.778301 
L 802.942929 301.30092 
L 803.383937 300.62794 
L 803.824946 298.772717 
L 804.265955 295.772072 
L 805.147972 286.594282 
L 806.029989 273.819556 
L 807.353015 250.179106 
L 809.558058 209.416298 
L 810.440075 196.401006 
L 811.322093 186.913472 
L 811.763101 183.739498 
L 812.20411 181.703153 
L 812.645118 180.844852 
L 813.086127 181.181629 
L 813.527136 182.706802 
L 813.968144 185.390099 
L 814.409153 189.178266 
L 815.29117 199.748041 
L 816.173187 213.58118 
L 817.937222 246.495166 
L 819.260248 270.644403 
L 820.142265 284.079146 
L 821.024282 294.115632 
L 821.465291 297.599406 
L 821.9063 299.961045 
L 822.347308 301.153676 
L 822.788317 301.153631 
L 823.229325 299.960911 
L 823.670334 297.599186 
L 824.111343 294.115331 
L 824.99336 284.0787 
L 825.875377 270.643848 
L 827.198403 246.494532 
L 828.962438 213.580613 
L 829.844455 199.747577 
L 830.726472 189.177943 
L 831.167481 185.389856 
L 831.608489 182.706644 
L 832.049498 181.181559 
L 832.490507 180.844871 
L 832.931515 181.703261 
L 833.372524 183.739694 
L 833.813532 186.913751 
L 834.69555 196.401433 
L 835.577567 209.41684 
L 836.900593 233.248828 
L 839.105636 273.82009 
L 839.987653 286.594699 
L 840.86967 295.772339 
L 841.310679 298.7729 
L 841.751688 300.628035 
L 842.192696 301.300926 
L 842.633705 300.778218 
L 843.074713 299.070284 
L 843.515722 296.211024 
L 843.956731 292.257183 
L 844.838748 281.399812 
L 845.720765 267.355835 
L 847.4848 234.309691 
L 848.807826 210.331187 
L 849.689843 197.125715 
L 850.57186 187.390755 
L 851.012869 184.077571 
L 851.453877 181.895307 
L 851.894886 180.887273 
L 852.335895 181.073476 
L 852.776903 182.45022 
L 853.217912 184.990181 
L 853.65892 188.642949 
L 854.540938 198.976275 
L 855.422955 212.633931 
L 857.186989 242.051973 
L 858.510015 261.277962 
L 859.833041 277.28452 
L 860.715058 285.888867 
L 861.597076 292.681758 
L 862.479093 297.55878 
L 862.920101 299.254227 
L 863.36111 300.444964 
L 863.802119 301.126412 
L 864.243127 301.295948 
L 864.684136 300.952921 
L 865.125145 300.098651 
L 865.566153 298.736422 
L 866.007162 296.871476 
L 866.889179 291.66403 
L 867.771196 284.556356 
L 868.653214 275.65771 
L 869.976239 259.2579 
L 871.299265 239.708412 
L 873.0633 209.92247 
L 876.591369 144.636668 
L 878.796412 105.713941 
L 880.560446 78.696232 
L 881.883472 61.945423 
L 882.765489 52.782809 
L 883.647507 45.391875 
L 884.529524 39.886228 
L 885.411541 36.350498 
L 885.85255 35.339544 
L 886.293558 34.839033 
L 886.734567 34.850889 
L 887.175576 35.375066 
L 887.616584 36.409549 
L 888.057593 37.950358 
L 888.93961 42.525323 
L 889.821627 49.029638 
L 890.703645 57.363324 
L 892.026671 73.006493 
L 893.349696 91.931231 
L 895.113731 121.125873 
L 897.759783 169.695589 
L 900.846843 225.600214 
L 902.610877 253.354116 
L 903.933903 270.822269 
L 905.256929 284.741428 
L 906.138946 291.806282 
L 907.020964 296.968723 
L 907.461972 298.810562 
L 907.902981 300.149397 
L 908.34399 300.98008 
L 908.784998 301.299414 
L 909.226007 301.106172 
L 909.667015 300.401097 
L 910.108024 299.1869 
L 910.549033 297.468253 
L 911.43105 292.545964 
L 912.313067 285.709892 
L 913.195084 277.065116 
L 914.51811 261.004417 
L 915.841136 241.733733 
L 917.605171 212.209422 
L 920.692231 155.217136 
L 923.338283 107.859875 
L 925.102317 80.503666 
L 926.425343 63.42493 
L 927.30736 54.014539 
L 928.189378 46.356895 
L 929.071395 40.569705 
L 929.953412 36.741926 
L 930.394421 35.582406 
L 930.835429 34.932395 
L 931.276438 34.794391 
L 931.717447 35.168927 
L 932.158455 36.054561 
L 932.599464 37.447887 
L 933.040472 39.343544 
L 933.92249 44.610786 
L 934.804507 51.775322 
L 935.686524 60.727024 
L 937.00955 77.197516 
L 938.332576 96.804861 
L 940.09661 126.644618 
L 944.065688 200.028746 
L 946.270731 237.98524 
L 947.593757 257.764442 
L 948.916783 274.445535 
L 949.7988 283.555619 
L 950.680817 290.890113 
L 951.562835 296.336277 
L 952.444852 299.810395 
L 952.88586 300.79004 
L 953.326869 301.259067 
L 953.767878 301.215673 
L 954.208886 300.660025 
L 954.649895 299.594259 
L 955.090903 298.022476 
L 955.972921 293.386963 
L 956.854938 286.824739 
L 957.736955 278.436675 
L 959.059981 262.720368 
L 960.383007 243.734826 
L 962.147041 214.481854 
L 964.793093 165.879973 
L 967.880154 110.025596 
L 969.644188 82.339881 
L 970.967214 64.938833 
L 972.29024 51.097928 
L 973.172257 44.090117 
L 974.054274 38.987604 
L 974.495283 37.176524 
L 974.936291 35.86882 
L 975.3773 35.069522 
L 975.818309 34.781705 
L 976.259317 35.006475 
L 976.700326 35.742969 
L 977.141335 36.988353 
L 977.582343 38.737837 
L 978.46436 43.720274 
L 979.346378 50.613693 
L 980.228395 59.312134 
L 981.551421 75.444639 
L 982.874447 94.774525 
L 984.638481 124.354705 
L 987.725542 181.372959 
L 990.371593 228.677424 
L 992.135628 255.963141 
L 993.458654 272.97333 
L 994.340671 282.331831 
L 995.222688 289.933554 
L 996.104705 295.661649 
L 996.986723 299.428069 
L 997.427731 300.556354 
L 997.86874 301.17492 
L 998.309748 301.281388 
L 998.750757 300.875349 
L 999.191766 299.958365 
L 999.632774 298.533962 
L 1000.514792 294.186749 
L 1001.396809 287.900532 
L 1002.278826 279.771938 
L 1003.160843 269.925914 
L 1004.483869 252.274419 
L 1005.806895 231.714386 
L 1007.57093 201.015111 
L 1013.304042 97.666453 
L 1014.627067 77.94425 
L 1015.950093 61.333116 
L 1016.832111 52.275694 
L 1017.714128 44.997747 
L 1018.596145 39.611146 
L 1019.478162 36.19869 
L 1019.919171 35.250368 
L 1020.36018 34.812832 
L 1020.801188 34.887764 
L 1021.242197 35.474875 
L 1021.683205 36.571908 
L 1022.124214 38.174643 
L 1023.006231 42.870637 
L 1023.888249 49.490673 
L 1024.770266 57.932993 
L 1026.093292 73.722208 
L 1027.416318 92.768279 
L 1029.180352 122.079155 
L 1031.826404 170.712492 
L 1034.913464 226.515808 
L 1036.677499 254.132933 
L 1038.000524 271.466624 
L 1038.882542 281.070466 
L 1039.764559 288.936917 
L 1040.646576 294.945061 
L 1041.528593 299.002545 
L 1041.969602 300.279098 
L 1042.410611 301.047 
L 1042.851619 301.303295 
L 1042.851619 301.303295 
" clip-path="url(#p5e45ec0ec3)" style="fill: none; stroke: #800080; stroke-width: 1.5; stroke-linecap: square"/>
   </g>
   <g id="patch_9">
    <path d="M 580.255625 314.629375 
L 580.255625 21.455625 
" style="fill: none; stroke: #000000; stroke-width: 0.8; stroke-linejoin: miter; stroke-linecap: square"/>
   </g>
   <g id="patch_10">
    <path d="M 1064.88 314.629375 
L 1064.88 21.455625 
" style="fill: none; stroke: #000000; stroke-width: 0.8; stroke-linejoin: miter; stroke-linecap: square"/>
   </g>
   <g id="patch_11">
    <path d="M 580.255625 314.629375 
L 1064.88 314.629375 
" style="fill: none; stroke: #000000; stroke-width: 0.8; stroke-linejoin: miter; stroke-linecap: square"/>
   </g>
   <g id="patch_12">
    <path d="M 580.255625 21.455625 
L 1064.88 21.455625 
" style="fill: none; stroke: #000000; stroke-width: 0.8; stroke-linejoin: miter; stroke-linecap: square"/>
   </g>
   <g id="text_39">
    <!-- Wavefunction for Energy = 6.200017792150386 eV -->
    <g transform="translate(696.146875 15.455625) scale(0.12 -0.12)">
     <use xlink:href="#STIXGeneral-Regular-57"/>
     <use xlink:href="#STIXGeneral-Regular-61" transform="translate(94.399994 0)"/>
     <use xlink:href="#STIXGeneral-Regular-76" transform="translate(138.799988 0)"/>
     <use xlink:href="#STIXGeneral-Regular-65" transform="translate(188.799973 0)"/>
     <use xlink:href="#STIXGeneral-Regular-66" transform="translate(233.199966 0)"/>
     <use xlink:href="#STIXGeneral-Regular-75" transform="translate(266.499954 0)"/>
     <use xlink:href="#STIXGeneral-Regular-6e" transform="translate(316.499939 0)"/>
     <use xlink:href="#STIXGeneral-Regular-63" transform="translate(366.499924 0)"/>
     <use xlink:href="#STIXGeneral-Regular-74" transform="translate(410.899918 0)"/>
     <use xlink:href="#STIXGeneral-Regular-69" transform="translate(438.699905 0)"/>
     <use xlink:href="#STIXGeneral-Regular-6f" transform="translate(466.499893 0)"/>
     <use xlink:href="#STIXGeneral-Regular-6e" transform="translate(516.499878 0)"/>
     <use xlink:href="#STIXGeneral-Regular-20" transform="translate(566.499863 0)"/>
     <use xlink:href="#STIXGeneral-Regular-66" transform="translate(591.499847 0)"/>
     <use xlink:href="#STIXGeneral-Regular-6f" transform="translate(624.799835 0)"/>
     <use xlink:href="#STIXGeneral-Regular-72" transform="translate(674.79982 0)"/>
     <use xlink:href="#STIXGeneral-Regular-20" transform="translate(708.099808 0)"/>
     <use xlink:href="#STIXGeneral-Regular-45" transform="translate(733.099792 0)"/>
     <use xlink:href="#STIXGeneral-Regular-6e" transform="translate(794.199783 0)"/>
     <use xlink:href="#STIXGeneral-Regular-65" transform="translate(844.199768 0)"/>
     <use xlink:href="#STIXGeneral-Regular-72" transform="translate(888.599762 0)"/>
     <use xlink:href="#STIXGeneral-Regular-67" transform="translate(921.89975 0)"/>
     <use xlink:href="#STIXGeneral-Regular-79" transform="translate(971.899734 0)"/>
     <use xlink:href="#STIXGeneral-Regular-20" transform="translate(1021.899719 0)"/>
     <use xlink:href="#STIXGeneral-Regular-3d" transform="translate(1046.899704 0)"/>
     <use xlink:href="#STIXGeneral-Regular-20" transform="translate(1115.399689 0)"/>
     <use xlink:href="#STIXGeneral-Regular-36" transform="translate(1140.399673 0)"/>
     <use xlink:href="#STIXGeneral-Regular-2e" transform="translate(1190.399658 0)"/>
     <use xlink:href="#STIXGeneral-Regular-32" transform="translate(1215.399643 0)"/>
     <use xlink:href="#STIXGeneral-Regular-30" transform="translate(1265.399628 0)"/>
     <use xlink:href="#STIXGeneral-Regular-30" transform="translate(1315.399612 0)"/>
     <use xlink:href="#STIXGeneral-Regular-30" transform="translate(1365.399597 0)"/>
     <use xlink:href="#STIXGeneral-Regular-31" transform="translate(1415.399582 0)"/>
     <use xlink:href="#STIXGeneral-Regular-37" transform="translate(1465.399567 0)"/>
     <use xlink:href="#STIXGeneral-Regular-37" transform="translate(1515.399551 0)"/>
     <use xlink:href="#STIXGeneral-Regular-39" transform="translate(1565.399536 0)"/>
     <use xlink:href="#STIXGeneral-Regular-32" transform="translate(1615.399521 0)"/>
     <use xlink:href="#STIXGeneral-Regular-31" transform="translate(1665.399506 0)"/>
     <use xlink:href="#STIXGeneral-Regular-35" transform="translate(1715.39949 0)"/>
     <use xlink:href="#STIXGeneral-Regular-30" transform="translate(1765.399475 0)"/>
     <use xlink:href="#STIXGeneral-Regular-33" transform="translate(1815.39946 0)"/>
     <use xlink:href="#STIXGeneral-Regular-38" transform="translate(1865.399445 0)"/>
     <use xlink:href="#STIXGeneral-Regular-36" transform="translate(1915.399429 0)"/>
     <use xlink:href="#STIXGeneral-Regular-20" transform="translate(1965.399414 0)"/>
     <use xlink:href="#STIXGeneral-Regular-65" transform="translate(1990.399399 0)"/>
     <use xlink:href="#STIXGeneral-Regular-56" transform="translate(2034.799393 0)"/>
    </g>
   </g>
   <g id="legend_2">
    <g id="patch_13">
     <path d="M 795.008438 43.625938 
L 850.127188 43.625938 
Q 852.127188 43.625938 852.127188 41.625938 
L 852.127188 28.455625 
Q 852.127188 26.455625 850.127188 26.455625 
L 795.008438 26.455625 
Q 793.008438 26.455625 793.008438 28.455625 
L 793.008438 41.625938 
Q 793.008438 43.625938 795.008438 43.625938 
z
" style="fill: #ffffff; opacity: 0.8; stroke: #cccccc; stroke-linejoin: miter"/>
    </g>
    <g id="line2d_68">
     <path d="M 797.008438 33.955625 
L 807.008438 33.955625 
L 817.008438 33.955625 
" style="fill: none; stroke: #800080; stroke-width: 1.5; stroke-linecap: square"/>
    </g>
    <g id="text_40">
     <!-- |Ψ(x)| -->
     <g transform="translate(825.008438 37.455625) scale(0.1 -0.1)">
      <defs>
       <path id="STIXGeneral-Regular-7c" d="M 851 -90 
L 429 -90 
L 429 4326 
L 851 4326 
L 851 -90 
z
" transform="scale(0.015625)"/>
       <path id="STIXGeneral-Regular-3a8" d="M 4634 4416 
L 4634 4294 
Q 4467 4262 4400 4054 
Q 4333 3846 4333 3629 
Q 4333 3533 4345 3341 
Q 4358 3149 4358 3053 
Q 4358 2598 4118 2291 
Q 3878 1984 3520 1856 
Q 3162 1728 2714 1728 
L 2714 710 
Q 2714 339 2851 236 
Q 2989 134 3373 122 
L 3373 0 
L 1414 0 
L 1414 122 
Q 1830 141 1945 259 
Q 2061 378 2061 794 
L 2061 1728 
Q 1613 1728 1254 1856 
Q 896 1984 656 2291 
Q 416 2598 416 3053 
Q 416 3149 429 3341 
Q 442 3533 442 3629 
Q 442 3846 374 4054 
Q 307 4262 141 4294 
L 141 4416 
Q 1133 4416 1133 3258 
Q 1133 3046 1145 2886 
Q 1158 2726 1212 2544 
Q 1267 2362 1353 2243 
Q 1440 2125 1603 2045 
Q 1766 1965 1990 1965 
L 2061 1965 
L 2061 3597 
Q 2061 3910 1904 4012 
Q 1747 4115 1414 4115 
L 1414 4237 
L 3373 4237 
L 3373 4115 
Q 3027 4115 2870 4019 
Q 2714 3923 2714 3597 
L 2714 1965 
L 2784 1965 
Q 3008 1965 3171 2045 
Q 3334 2125 3420 2243 
Q 3507 2362 3561 2544 
Q 3616 2726 3629 2886 
Q 3642 3046 3642 3258 
Q 3642 4416 4634 4416 
z
" transform="scale(0.015625)"/>
       <path id="STIXGeneral-Regular-28" d="M 1946 -1030 
L 1869 -1133 
Q 1126 -710 716 32 
Q 307 774 307 1613 
Q 307 3386 1888 4326 
L 1946 4224 
Q 1293 3667 1075 3126 
Q 858 2586 858 1632 
Q 858 685 1082 96 
Q 1306 -493 1946 -1030 
z
" transform="scale(0.015625)"/>
       <path id="STIXGeneral-Regular-29" d="M 186 4224 
L 262 4326 
Q 992 3891 1408 3148 
Q 1824 2406 1824 1581 
Q 1824 -166 243 -1133 
L 186 -1030 
Q 845 -486 1059 54 
Q 1274 595 1274 1562 
Q 1274 2534 1059 3120 
Q 845 3706 186 4224 
z
" transform="scale(0.015625)"/>
      </defs>
      <use xlink:href="#STIXGeneral-Regular-7c"/>
      <use xlink:href="#STIXGeneral-Regular-3a8" transform="translate(19.999985 0)"/>
      <use xlink:href="#STIXGeneral-Regular-28" transform="translate(94.599976 0)"/>
      <use xlink:href="#STIXGeneral-Regular-78" transform="translate(127.899963 0)"/>
      <use xlink:href="#STIXGeneral-Regular-29" transform="translate(177.899948 0)"/>
      <use xlink:href="#STIXGeneral-Regular-7c" transform="translate(211.199936 0)"/>
     </g>
    </g>
   </g>
  </g>
 </g>
 <defs>
  <clipPath id="p23440755af">
   <rect x="46.55" y="21.455625" width="484.624375" height="293.17375"/>
  </clipPath>
  <clipPath id="p5e45ec0ec3">
   <rect x="580.255625" y="21.455625" width="484.624375" height="293.17375"/>
  </clipPath>
 </defs>
</svg>
