<?xml version="1.0" encoding="utf-8" standalone="no"?>
<!DOCTYPE svg PUBLIC "-//W3C//DTD SVG 1.1//EN"
  "http://www.w3.org/Graphics/SVG/1.1/DTD/svg11.dtd">
<svg xmlns:xlink="http://www.w3.org/1999/xlink" width="1072.08pt" height="350.829375pt" viewBox="0 0 1072.08 350.829375" xmlns="http://www.w3.org/2000/svg" version="1.1">
 <metadata>
  <rdf:RDF xmlns:dc="http://purl.org/dc/elements/1.1/" xmlns:cc="http://creativecommons.org/ns#" xmlns:rdf="http://www.w3.org/1999/02/22-rdf-syntax-ns#">
   <cc:Work>
    <dc:type rdf:resource="http://purl.org/dc/dcmitype/StillImage"/>
    <dc:date>2025-08-27T14:59:31.530257</dc:date>
    <dc:format>image/svg+xml</dc:format>
    <dc:creator>
     <cc:Agent>
      <dc:title>Matplotlib v3.10.5, https://matplotlib.org/</dc:title>
     </cc:Agent>
    </dc:creator>
   </cc:Work>
  </rdf:RDF>
 </metadata>
 <defs>
  <style type="text/css">*{stroke-linejoin: round; stroke-linecap: butt}</style>
 </defs>
 <g id="figure_1">
  <g id="patch_1">
   <path d="M 0 350.829375 
L 1072.08 350.829375 
L 1072.08 0 
L 0 0 
z
" style="fill: #ffffff"/>
  </g>
  <g id="axes_1">
   <g id="patch_2">
    <path d="M 46.55 314.629375 
L 533.694375 314.629375 
L 533.694375 21.455625 
L 46.55 21.455625 
z
" style="fill: #ffffff"/>
   </g>
   <g id="matplotlib.axis_1">
    <g id="xtick_1">
     <g id="line2d_1">
      <path d="M 68.692926 314.629375 
L 68.692926 21.455625 
" clip-path="url(#p9df9ddd721)" style="fill: none; stroke: #b0b0b0; stroke-width: 0.8; stroke-linecap: square"/>
     </g>
     <g id="line2d_2">
      <defs>
       <path id="m5e8b2bee41" d="M 0 0 
L 0 3.5 
" style="stroke: #000000; stroke-width: 0.8"/>
      </defs>
      <g>
       <use xlink:href="#m5e8b2bee41" x="68.692926" y="314.629375" style="stroke: #000000; stroke-width: 0.8"/>
      </g>
     </g>
     <g id="text_1">
      <!-- −1.5 -->
      <g transform="translate(59.017926 328.459062) scale(0.1 -0.1)">
       <defs>
        <path id="STIXGeneral-Regular-2212" d="M 3974 1408 
L 410 1408 
L 410 1830 
L 3974 1830 
L 3974 1408 
z
" transform="scale(0.015625)"/>
        <path id="STIXGeneral-Regular-31" d="M 2522 0 
L 755 0 
L 755 96 
Q 1107 115 1235 227 
Q 1363 339 1363 608 
L 1363 3482 
Q 1363 3795 1171 3795 
Q 1082 3795 883 3718 
L 710 3654 
L 710 3744 
L 1856 4326 
L 1914 4307 
L 1914 486 
Q 1914 275 2042 185 
Q 2170 96 2522 96 
L 2522 0 
z
" transform="scale(0.015625)"/>
        <path id="STIXGeneral-Regular-2e" d="M 1158 275 
Q 1158 134 1052 32 
Q 947 -70 800 -70 
Q 653 -70 550 32 
Q 448 134 448 281 
Q 448 429 553 534 
Q 659 640 806 640 
Q 947 640 1052 531 
Q 1158 422 1158 275 
z
" transform="scale(0.015625)"/>
        <path id="STIXGeneral-Regular-35" d="M 2803 4358 
L 2573 3814 
Q 2534 3731 2400 3731 
L 1158 3731 
L 902 3187 
Q 1606 3053 1920 2896 
Q 2234 2739 2502 2368 
Q 2726 2061 2726 1555 
Q 2726 1094 2576 780 
Q 2426 467 2099 224 
Q 1664 -90 1011 -90 
Q 646 -90 422 19 
Q 198 128 198 307 
Q 198 550 486 550 
Q 717 550 960 352 
Q 1210 147 1414 147 
Q 1747 147 2012 480 
Q 2278 813 2278 1229 
Q 2278 1843 1850 2189 
Q 1293 2637 486 2637 
Q 410 2637 410 2688 
L 416 2720 
L 1114 4237 
L 2438 4237 
Q 2547 4237 2608 4269 
Q 2669 4301 2746 4403 
L 2803 4358 
z
" transform="scale(0.015625)"/>
       </defs>
       <use xlink:href="#STIXGeneral-Regular-2212"/>
       <use xlink:href="#STIXGeneral-Regular-31" transform="translate(68.499985 0)"/>
       <use xlink:href="#STIXGeneral-Regular-2e" transform="translate(118.499969 0)"/>
       <use xlink:href="#STIXGeneral-Regular-35" transform="translate(143.499954 0)"/>
      </g>
     </g>
    </g>
    <g id="xtick_2">
     <g id="line2d_3">
      <path d="M 142.50268 314.629375 
L 142.50268 21.455625 
" clip-path="url(#p9df9ddd721)" style="fill: none; stroke: #b0b0b0; stroke-width: 0.8; stroke-linecap: square"/>
     </g>
     <g id="line2d_4">
      <g>
       <use xlink:href="#m5e8b2bee41" x="142.50268" y="314.629375" style="stroke: #000000; stroke-width: 0.8"/>
      </g>
     </g>
     <g id="text_2">
      <!-- −1.0 -->
      <g transform="translate(132.82768 328.459062) scale(0.1 -0.1)">
       <defs>
        <path id="STIXGeneral-Regular-30" d="M 3046 2112 
Q 3046 1683 2963 1302 
Q 2880 922 2717 602 
Q 2554 282 2266 96 
Q 1978 -90 1600 -90 
Q 1210 -90 915 108 
Q 621 307 461 640 
Q 301 973 227 1350 
Q 154 1728 154 2150 
Q 154 2746 301 3222 
Q 448 3699 790 4012 
Q 1133 4326 1626 4326 
Q 2253 4326 2649 3712 
Q 3046 3098 3046 2112 
z
M 2432 2080 
Q 2432 3091 2217 3625 
Q 2003 4160 1587 4160 
Q 1190 4160 979 3622 
Q 768 3085 768 2106 
Q 768 1120 979 598 
Q 1190 77 1600 77 
Q 2003 77 2217 598 
Q 2432 1120 2432 2080 
z
" transform="scale(0.015625)"/>
       </defs>
       <use xlink:href="#STIXGeneral-Regular-2212"/>
       <use xlink:href="#STIXGeneral-Regular-31" transform="translate(68.499985 0)"/>
       <use xlink:href="#STIXGeneral-Regular-2e" transform="translate(118.499969 0)"/>
       <use xlink:href="#STIXGeneral-Regular-30" transform="translate(143.499954 0)"/>
      </g>
     </g>
    </g>
    <g id="xtick_3">
     <g id="line2d_5">
      <path d="M 216.312434 314.629375 
L 216.312434 21.455625 
" clip-path="url(#p9df9ddd721)" style="fill: none; stroke: #b0b0b0; stroke-width: 0.8; stroke-linecap: square"/>
     </g>
     <g id="line2d_6">
      <g>
       <use xlink:href="#m5e8b2bee41" x="216.312434" y="314.629375" style="stroke: #000000; stroke-width: 0.8"/>
      </g>
     </g>
     <g id="text_3">
      <!-- −0.5 -->
      <g transform="translate(206.637434 328.459062) scale(0.1 -0.1)">
       <use xlink:href="#STIXGeneral-Regular-2212"/>
       <use xlink:href="#STIXGeneral-Regular-30" transform="translate(68.499985 0)"/>
       <use xlink:href="#STIXGeneral-Regular-2e" transform="translate(118.499969 0)"/>
       <use xlink:href="#STIXGeneral-Regular-35" transform="translate(143.499954 0)"/>
      </g>
     </g>
    </g>
    <g id="xtick_4">
     <g id="line2d_7">
      <path d="M 290.122187 314.629375 
L 290.122187 21.455625 
" clip-path="url(#p9df9ddd721)" style="fill: none; stroke: #b0b0b0; stroke-width: 0.8; stroke-linecap: square"/>
     </g>
     <g id="line2d_8">
      <g>
       <use xlink:href="#m5e8b2bee41" x="290.122187" y="314.629375" style="stroke: #000000; stroke-width: 0.8"/>
      </g>
     </g>
     <g id="text_4">
      <!-- 0.0 -->
      <g transform="translate(283.872187 328.459062) scale(0.1 -0.1)">
       <use xlink:href="#STIXGeneral-Regular-30"/>
       <use xlink:href="#STIXGeneral-Regular-2e" transform="translate(49.999985 0)"/>
       <use xlink:href="#STIXGeneral-Regular-30" transform="translate(74.999969 0)"/>
      </g>
     </g>
    </g>
    <g id="xtick_5">
     <g id="line2d_9">
      <path d="M 363.931941 314.629375 
L 363.931941 21.455625 
" clip-path="url(#p9df9ddd721)" style="fill: none; stroke: #b0b0b0; stroke-width: 0.8; stroke-linecap: square"/>
     </g>
     <g id="line2d_10">
      <g>
       <use xlink:href="#m5e8b2bee41" x="363.931941" y="314.629375" style="stroke: #000000; stroke-width: 0.8"/>
      </g>
     </g>
     <g id="text_5">
      <!-- 0.5 -->
      <g transform="translate(357.681941 328.459062) scale(0.1 -0.1)">
       <use xlink:href="#STIXGeneral-Regular-30"/>
       <use xlink:href="#STIXGeneral-Regular-2e" transform="translate(49.999985 0)"/>
       <use xlink:href="#STIXGeneral-Regular-35" transform="translate(74.999969 0)"/>
      </g>
     </g>
    </g>
    <g id="xtick_6">
     <g id="line2d_11">
      <path d="M 437.741695 314.629375 
L 437.741695 21.455625 
" clip-path="url(#p9df9ddd721)" style="fill: none; stroke: #b0b0b0; stroke-width: 0.8; stroke-linecap: square"/>
     </g>
     <g id="line2d_12">
      <g>
       <use xlink:href="#m5e8b2bee41" x="437.741695" y="314.629375" style="stroke: #000000; stroke-width: 0.8"/>
      </g>
     </g>
     <g id="text_6">
      <!-- 1.0 -->
      <g transform="translate(431.491695 328.459062) scale(0.1 -0.1)">
       <use xlink:href="#STIXGeneral-Regular-31"/>
       <use xlink:href="#STIXGeneral-Regular-2e" transform="translate(49.999985 0)"/>
       <use xlink:href="#STIXGeneral-Regular-30" transform="translate(74.999969 0)"/>
      </g>
     </g>
    </g>
    <g id="xtick_7">
     <g id="line2d_13">
      <path d="M 511.551449 314.629375 
L 511.551449 21.455625 
" clip-path="url(#p9df9ddd721)" style="fill: none; stroke: #b0b0b0; stroke-width: 0.8; stroke-linecap: square"/>
     </g>
     <g id="line2d_14">
      <g>
       <use xlink:href="#m5e8b2bee41" x="511.551449" y="314.629375" style="stroke: #000000; stroke-width: 0.8"/>
      </g>
     </g>
     <g id="text_7">
      <!-- 1.5 -->
      <g transform="translate(505.301449 328.459062) scale(0.1 -0.1)">
       <use xlink:href="#STIXGeneral-Regular-31"/>
       <use xlink:href="#STIXGeneral-Regular-2e" transform="translate(49.999985 0)"/>
       <use xlink:href="#STIXGeneral-Regular-35" transform="translate(74.999969 0)"/>
      </g>
     </g>
    </g>
    <g id="text_8">
     <!-- x -->
     <g transform="translate(287.622187 341.459062) scale(0.1 -0.1)">
      <defs>
       <path id="STIXGeneral-Regular-78" d="M 3066 0 
L 1779 0 
L 1779 96 
Q 1939 109 1987 137 
Q 2035 166 2035 250 
Q 2035 307 1997 365 
L 1414 1261 
L 909 474 
Q 781 275 781 211 
Q 781 96 1037 96 
L 1037 0 
L 109 0 
L 109 96 
Q 269 109 355 169 
Q 442 230 576 422 
L 1306 1478 
L 704 2400 
Q 557 2624 454 2704 
Q 352 2784 211 2784 
L 154 2784 
L 154 2880 
L 1478 2880 
L 1478 2784 
Q 1203 2778 1203 2643 
Q 1203 2509 1498 2074 
Q 1581 1958 1587 1946 
Q 1619 1990 1779 2227 
Q 1811 2285 1856 2349 
Q 1901 2413 1923 2451 
Q 1946 2490 1971 2528 
Q 1997 2566 2006 2595 
Q 2016 2624 2016 2643 
Q 2016 2765 1760 2784 
L 1760 2880 
L 2771 2880 
L 2771 2784 
Q 2445 2771 2253 2502 
L 1722 1734 
L 2541 480 
Q 2790 96 3066 96 
L 3066 0 
z
" transform="scale(0.015625)"/>
      </defs>
      <use xlink:href="#STIXGeneral-Regular-78"/>
     </g>
    </g>
   </g>
   <g id="matplotlib.axis_2">
    <g id="ytick_1">
     <g id="line2d_15">
      <path d="M 46.55 298.611029 
L 533.694375 298.611029 
" clip-path="url(#p9df9ddd721)" style="fill: none; stroke: #b0b0b0; stroke-width: 0.8; stroke-linecap: square"/>
     </g>
     <g id="line2d_16">
      <defs>
       <path id="mf1ad365125" d="M 0 0 
L -3.5 0 
" style="stroke: #000000; stroke-width: 0.8"/>
      </defs>
      <g>
       <use xlink:href="#mf1ad365125" x="46.55" y="298.611029" style="stroke: #000000; stroke-width: 0.8"/>
      </g>
     </g>
     <g id="text_9">
      <!-- −0.8 -->
      <g transform="translate(20.2 302.025873) scale(0.1 -0.1)">
       <defs>
        <path id="STIXGeneral-Regular-38" d="M 2848 992 
Q 2848 499 2505 204 
Q 2163 -90 1587 -90 
Q 1050 -90 704 204 
Q 358 499 358 954 
Q 358 1293 524 1533 
Q 691 1773 1190 2125 
Q 710 2522 553 2765 
Q 397 3008 397 3328 
Q 397 3782 745 4054 
Q 1094 4326 1638 4326 
Q 2106 4326 2410 4060 
Q 2714 3795 2714 3411 
Q 2714 3059 2531 2848 
Q 2349 2637 1856 2374 
Q 2432 1990 2640 1689 
Q 2848 1389 2848 992 
z
M 2272 3411 
Q 2272 3744 2086 3945 
Q 1901 4147 1574 4147 
Q 1248 4147 1059 3977 
Q 870 3808 870 3513 
Q 870 3219 1059 2979 
Q 1248 2739 1670 2490 
Q 1997 2682 2134 2896 
Q 2272 3110 2272 3411 
z
M 1734 1741 
L 1357 1997 
Q 1075 1766 960 1545 
Q 845 1325 845 1011 
Q 845 576 1065 333 
Q 1286 90 1658 90 
Q 1971 90 2166 285 
Q 2362 480 2362 794 
Q 2362 1082 2214 1299 
Q 2067 1517 1734 1741 
z
" transform="scale(0.015625)"/>
       </defs>
       <use xlink:href="#STIXGeneral-Regular-2212"/>
       <use xlink:href="#STIXGeneral-Regular-30" transform="translate(68.499985 0)"/>
       <use xlink:href="#STIXGeneral-Regular-2e" transform="translate(118.499969 0)"/>
       <use xlink:href="#STIXGeneral-Regular-38" transform="translate(143.499954 0)"/>
      </g>
     </g>
    </g>
    <g id="ytick_2">
     <g id="line2d_17">
      <path d="M 46.55 265.968732 
L 533.694375 265.968732 
" clip-path="url(#p9df9ddd721)" style="fill: none; stroke: #b0b0b0; stroke-width: 0.8; stroke-linecap: square"/>
     </g>
     <g id="line2d_18">
      <g>
       <use xlink:href="#mf1ad365125" x="46.55" y="265.968732" style="stroke: #000000; stroke-width: 0.8"/>
      </g>
     </g>
     <g id="text_10">
      <!-- −0.6 -->
      <g transform="translate(20.2 269.383576) scale(0.1 -0.1)">
       <defs>
        <path id="STIXGeneral-Regular-36" d="M 2854 4378 
L 2867 4275 
Q 2112 4154 1606 3664 
Q 1101 3174 973 2451 
Q 1344 2739 1786 2739 
Q 2349 2739 2672 2380 
Q 2995 2022 2995 1402 
Q 2995 774 2669 378 
Q 2291 -90 1651 -90 
Q 870 -90 518 557 
Q 218 1107 218 1786 
Q 218 2835 915 3552 
Q 1312 3962 1731 4131 
Q 2150 4301 2854 4378 
z
M 2419 1203 
Q 2419 2445 1555 2445 
Q 1235 2445 1024 2275 
Q 813 2106 813 1702 
Q 813 954 1046 522 
Q 1280 90 1722 90 
Q 2061 90 2240 394 
Q 2419 698 2419 1203 
z
" transform="scale(0.015625)"/>
       </defs>
       <use xlink:href="#STIXGeneral-Regular-2212"/>
       <use xlink:href="#STIXGeneral-Regular-30" transform="translate(68.499985 0)"/>
       <use xlink:href="#STIXGeneral-Regular-2e" transform="translate(118.499969 0)"/>
       <use xlink:href="#STIXGeneral-Regular-36" transform="translate(143.499954 0)"/>
      </g>
     </g>
    </g>
    <g id="ytick_3">
     <g id="line2d_19">
      <path d="M 46.55 233.326435 
L 533.694375 233.326435 
" clip-path="url(#p9df9ddd721)" style="fill: none; stroke: #b0b0b0; stroke-width: 0.8; stroke-linecap: square"/>
     </g>
     <g id="line2d_20">
      <g>
       <use xlink:href="#mf1ad365125" x="46.55" y="233.326435" style="stroke: #000000; stroke-width: 0.8"/>
      </g>
     </g>
     <g id="text_11">
      <!-- −0.4 -->
      <g transform="translate(20.2 236.741279) scale(0.1 -0.1)">
       <defs>
        <path id="STIXGeneral-Regular-34" d="M 3027 1069 
L 2368 1069 
L 2368 0 
L 1869 0 
L 1869 1069 
L 77 1069 
L 77 1478 
L 2086 4326 
L 2368 4326 
L 2368 1478 
L 3027 1478 
L 3027 1069 
z
M 1869 1478 
L 1869 3674 
L 333 1478 
L 1869 1478 
z
" transform="scale(0.015625)"/>
       </defs>
       <use xlink:href="#STIXGeneral-Regular-2212"/>
       <use xlink:href="#STIXGeneral-Regular-30" transform="translate(68.499985 0)"/>
       <use xlink:href="#STIXGeneral-Regular-2e" transform="translate(118.499969 0)"/>
       <use xlink:href="#STIXGeneral-Regular-34" transform="translate(143.499954 0)"/>
      </g>
     </g>
    </g>
    <g id="ytick_4">
     <g id="line2d_21">
      <path d="M 46.55 200.684138 
L 533.694375 200.684138 
" clip-path="url(#p9df9ddd721)" style="fill: none; stroke: #b0b0b0; stroke-width: 0.8; stroke-linecap: square"/>
     </g>
     <g id="line2d_22">
      <g>
       <use xlink:href="#mf1ad365125" x="46.55" y="200.684138" style="stroke: #000000; stroke-width: 0.8"/>
      </g>
     </g>
     <g id="text_12">
      <!-- −0.2 -->
      <g transform="translate(20.2 204.098982) scale(0.1 -0.1)">
       <defs>
        <path id="STIXGeneral-Regular-32" d="M 3034 877 
L 2688 0 
L 186 0 
L 186 77 
L 1325 1286 
Q 1773 1754 1965 2144 
Q 2157 2534 2157 2950 
Q 2157 3379 1920 3616 
Q 1683 3853 1267 3853 
Q 922 3853 720 3673 
Q 518 3494 326 3021 
L 192 3053 
Q 301 3648 630 3987 
Q 960 4326 1523 4326 
Q 2054 4326 2380 4006 
Q 2707 3686 2707 3200 
Q 2707 2477 1888 1613 
L 832 486 
L 2330 486 
Q 2541 486 2665 569 
Q 2790 653 2944 915 
L 3034 877 
z
" transform="scale(0.015625)"/>
       </defs>
       <use xlink:href="#STIXGeneral-Regular-2212"/>
       <use xlink:href="#STIXGeneral-Regular-30" transform="translate(68.499985 0)"/>
       <use xlink:href="#STIXGeneral-Regular-2e" transform="translate(118.499969 0)"/>
       <use xlink:href="#STIXGeneral-Regular-32" transform="translate(143.499954 0)"/>
      </g>
     </g>
    </g>
    <g id="ytick_5">
     <g id="line2d_23">
      <path d="M 46.55 168.041841 
L 533.694375 168.041841 
" clip-path="url(#p9df9ddd721)" style="fill: none; stroke: #b0b0b0; stroke-width: 0.8; stroke-linecap: square"/>
     </g>
     <g id="line2d_24">
      <g>
       <use xlink:href="#mf1ad365125" x="46.55" y="168.041841" style="stroke: #000000; stroke-width: 0.8"/>
      </g>
     </g>
     <g id="text_13">
      <!-- 0.0 -->
      <g transform="translate(27.05 171.456685) scale(0.1 -0.1)">
       <use xlink:href="#STIXGeneral-Regular-30"/>
       <use xlink:href="#STIXGeneral-Regular-2e" transform="translate(49.999985 0)"/>
       <use xlink:href="#STIXGeneral-Regular-30" transform="translate(74.999969 0)"/>
      </g>
     </g>
    </g>
    <g id="ytick_6">
     <g id="line2d_25">
      <path d="M 46.55 135.399544 
L 533.694375 135.399544 
" clip-path="url(#p9df9ddd721)" style="fill: none; stroke: #b0b0b0; stroke-width: 0.8; stroke-linecap: square"/>
     </g>
     <g id="line2d_26">
      <g>
       <use xlink:href="#mf1ad365125" x="46.55" y="135.399544" style="stroke: #000000; stroke-width: 0.8"/>
      </g>
     </g>
     <g id="text_14">
      <!-- 0.2 -->
      <g transform="translate(27.05 138.814388) scale(0.1 -0.1)">
       <use xlink:href="#STIXGeneral-Regular-30"/>
       <use xlink:href="#STIXGeneral-Regular-2e" transform="translate(49.999985 0)"/>
       <use xlink:href="#STIXGeneral-Regular-32" transform="translate(74.999969 0)"/>
      </g>
     </g>
    </g>
    <g id="ytick_7">
     <g id="line2d_27">
      <path d="M 46.55 102.757247 
L 533.694375 102.757247 
" clip-path="url(#p9df9ddd721)" style="fill: none; stroke: #b0b0b0; stroke-width: 0.8; stroke-linecap: square"/>
     </g>
     <g id="line2d_28">
      <g>
       <use xlink:href="#mf1ad365125" x="46.55" y="102.757247" style="stroke: #000000; stroke-width: 0.8"/>
      </g>
     </g>
     <g id="text_15">
      <!-- 0.4 -->
      <g transform="translate(27.05 106.172091) scale(0.1 -0.1)">
       <use xlink:href="#STIXGeneral-Regular-30"/>
       <use xlink:href="#STIXGeneral-Regular-2e" transform="translate(49.999985 0)"/>
       <use xlink:href="#STIXGeneral-Regular-34" transform="translate(74.999969 0)"/>
      </g>
     </g>
    </g>
    <g id="ytick_8">
     <g id="line2d_29">
      <path d="M 46.55 70.11495 
L 533.694375 70.11495 
" clip-path="url(#p9df9ddd721)" style="fill: none; stroke: #b0b0b0; stroke-width: 0.8; stroke-linecap: square"/>
     </g>
     <g id="line2d_30">
      <g>
       <use xlink:href="#mf1ad365125" x="46.55" y="70.11495" style="stroke: #000000; stroke-width: 0.8"/>
      </g>
     </g>
     <g id="text_16">
      <!-- 0.6 -->
      <g transform="translate(27.05 73.529794) scale(0.1 -0.1)">
       <use xlink:href="#STIXGeneral-Regular-30"/>
       <use xlink:href="#STIXGeneral-Regular-2e" transform="translate(49.999985 0)"/>
       <use xlink:href="#STIXGeneral-Regular-36" transform="translate(74.999969 0)"/>
      </g>
     </g>
    </g>
    <g id="ytick_9">
     <g id="line2d_31">
      <path d="M 46.55 37.472653 
L 533.694375 37.472653 
" clip-path="url(#p9df9ddd721)" style="fill: none; stroke: #b0b0b0; stroke-width: 0.8; stroke-linecap: square"/>
     </g>
     <g id="line2d_32">
      <g>
       <use xlink:href="#mf1ad365125" x="46.55" y="37.472653" style="stroke: #000000; stroke-width: 0.8"/>
      </g>
     </g>
     <g id="text_17">
      <!-- 0.8 -->
      <g transform="translate(27.05 40.887497) scale(0.1 -0.1)">
       <use xlink:href="#STIXGeneral-Regular-30"/>
       <use xlink:href="#STIXGeneral-Regular-2e" transform="translate(49.999985 0)"/>
       <use xlink:href="#STIXGeneral-Regular-38" transform="translate(74.999969 0)"/>
      </g>
     </g>
    </g>
    <g id="text_18">
     <!-- Wavefunction Value -->
     <g transform="translate(14.029688 209.558906) rotate(-90) scale(0.1 -0.1)">
      <defs>
       <path id="STIXGeneral-Regular-57" d="M 5965 4237 
L 5965 4115 
Q 5709 4064 5616 3990 
Q 5523 3917 5434 3667 
Q 4704 1709 4128 -70 
L 4032 -70 
Q 3642 1011 3008 2637 
L 2022 -70 
L 1926 -70 
Q 1709 576 1277 1753 
Q 845 2931 698 3347 
Q 538 3808 406 3958 
Q 275 4109 32 4115 
L 32 4237 
L 1594 4237 
L 1594 4115 
Q 1357 4109 1270 4064 
Q 1184 4019 1184 3917 
Q 1184 3808 1254 3616 
L 2176 1210 
L 2842 3021 
L 2662 3501 
Q 2509 3917 2400 4013 
Q 2291 4109 2010 4115 
L 2010 4237 
L 3706 4237 
L 3706 4115 
Q 3213 4102 3213 3891 
Q 3213 3808 3322 3520 
L 4237 1190 
L 5043 3360 
Q 5152 3667 5152 3853 
Q 5152 4109 4704 4115 
L 4704 4237 
L 5965 4237 
z
" transform="scale(0.015625)"/>
       <path id="STIXGeneral-Regular-61" d="M 2829 422 
L 2829 243 
Q 2586 -64 2253 -64 
Q 1888 -64 1843 403 
L 1837 403 
Q 1427 -64 909 -64 
Q 608 -64 422 112 
Q 237 288 237 602 
Q 237 1050 685 1350 
Q 992 1555 1837 1869 
L 1837 2214 
Q 1837 2502 1699 2646 
Q 1562 2790 1338 2790 
Q 1146 2790 1018 2697 
Q 890 2605 890 2477 
Q 890 2419 909 2348 
Q 928 2278 928 2208 
Q 928 2112 841 2029 
Q 755 1946 634 1946 
Q 525 1946 441 2029 
Q 358 2112 358 2240 
Q 358 2547 685 2752 
Q 986 2944 1421 2944 
Q 1939 2944 2176 2656 
Q 2291 2522 2323 2384 
Q 2355 2246 2355 1946 
L 2355 723 
Q 2355 301 2554 301 
Q 2682 301 2829 422 
z
M 1837 813 
L 1837 1715 
Q 1248 1510 1018 1293 
Q 800 1094 800 800 
Q 800 557 921 432 
Q 1043 307 1242 307 
Q 1453 307 1613 410 
Q 1747 506 1792 589 
Q 1837 672 1837 813 
z
" transform="scale(0.015625)"/>
       <path id="STIXGeneral-Regular-76" d="M 3053 2880 
L 3053 2784 
Q 2906 2771 2835 2688 
Q 2765 2605 2637 2285 
L 1818 230 
Q 1690 -90 1638 -90 
Q 1587 -90 1523 77 
Q 1510 96 1497 141 
Q 1485 186 1472 211 
L 704 2048 
Q 499 2534 403 2652 
Q 307 2771 122 2784 
L 122 2880 
L 1376 2880 
L 1376 2784 
Q 1210 2771 1146 2732 
Q 1082 2694 1082 2611 
Q 1082 2509 1139 2368 
L 1792 730 
L 2426 2387 
Q 2464 2483 2464 2579 
Q 2464 2758 2163 2784 
L 2163 2880 
L 3053 2880 
z
" transform="scale(0.015625)"/>
       <path id="STIXGeneral-Regular-65" d="M 2611 1050 
L 2714 1005 
Q 2330 -64 1376 -64 
Q 813 -64 486 329 
Q 160 723 160 1389 
Q 160 2074 525 2509 
Q 890 2944 1485 2944 
Q 2061 2944 2374 2502 
Q 2560 2246 2592 1773 
L 621 1773 
Q 646 1370 700 1158 
Q 755 947 915 730 
Q 1184 378 1626 378 
Q 1939 378 2153 531 
Q 2368 685 2611 1050 
z
M 634 1978 
L 1939 1978 
Q 1882 2381 1750 2547 
Q 1619 2714 1312 2714 
Q 1043 2714 864 2525 
Q 685 2336 634 1978 
z
" transform="scale(0.015625)"/>
       <path id="STIXGeneral-Regular-66" d="M 134 2880 
L 659 2880 
Q 666 3264 710 3478 
Q 755 3693 883 3910 
Q 1152 4371 1786 4371 
Q 2074 4371 2262 4259 
Q 2451 4147 2451 3974 
Q 2451 3866 2374 3789 
Q 2298 3712 2182 3712 
Q 2029 3712 1894 3942 
Q 1741 4192 1555 4192 
Q 1197 4192 1197 3622 
L 1197 2880 
L 1978 2880 
L 1978 2675 
L 1197 2675 
L 1197 666 
Q 1197 307 1299 208 
Q 1402 109 1792 96 
L 1792 0 
L 128 0 
L 128 96 
Q 474 115 566 214 
Q 659 314 659 666 
L 659 2675 
L 134 2675 
L 134 2880 
z
" transform="scale(0.015625)"/>
       <path id="STIXGeneral-Regular-75" d="M 3072 320 
L 3072 230 
Q 2573 96 2195 -58 
L 2163 -38 
L 2163 486 
L 2150 486 
Q 1747 -64 1235 -64 
Q 870 -64 662 160 
Q 454 384 454 755 
L 454 2362 
Q 454 2598 371 2688 
Q 288 2778 58 2790 
L 58 2880 
L 992 2880 
L 992 813 
Q 992 595 1123 451 
Q 1254 307 1446 307 
Q 1760 307 1984 506 
Q 2067 582 2099 649 
Q 2131 717 2131 877 
L 2131 2355 
Q 2131 2605 2041 2678 
Q 1952 2752 1658 2771 
L 1658 2880 
L 2669 2880 
L 2669 685 
Q 2669 461 2742 390 
Q 2816 320 3034 320 
L 3072 320 
z
" transform="scale(0.015625)"/>
       <path id="STIXGeneral-Regular-6e" d="M 3104 0 
L 1773 0 
L 1779 96 
Q 2016 115 2096 233 
Q 2176 352 2176 672 
L 2176 1946 
Q 2176 2592 1709 2592 
Q 1549 2592 1408 2515 
Q 1267 2438 1050 2227 
L 1050 461 
Q 1050 269 1136 192 
Q 1222 115 1466 96 
L 1466 0 
L 115 0 
L 115 96 
Q 358 115 435 214 
Q 512 314 512 602 
L 512 2157 
Q 512 2394 467 2483 
Q 422 2573 288 2573 
Q 160 2573 102 2547 
L 102 2656 
Q 550 2784 979 2944 
L 1030 2925 
L 1030 2426 
L 1037 2426 
Q 1491 2944 1958 2944 
Q 2323 2944 2518 2688 
Q 2714 2432 2714 1958 
L 2714 544 
Q 2714 288 2790 205 
Q 2867 122 3104 96 
L 3104 0 
z
" transform="scale(0.015625)"/>
       <path id="STIXGeneral-Regular-63" d="M 2547 998 
L 2637 941 
Q 2362 403 2112 205 
Q 1786 -64 1376 -64 
Q 845 -64 502 336 
Q 160 736 160 1357 
Q 160 2170 698 2618 
Q 1094 2944 1562 2944 
Q 1965 2944 2256 2749 
Q 2547 2554 2547 2285 
Q 2547 2176 2457 2096 
Q 2368 2016 2246 2016 
Q 2022 2016 1939 2310 
L 1901 2451 
Q 1850 2630 1773 2694 
Q 1696 2758 1523 2758 
Q 1133 2758 893 2451 
Q 653 2144 653 1645 
Q 653 1094 928 745 
Q 1203 397 1645 397 
Q 1920 397 2118 528 
Q 2317 659 2547 998 
z
" transform="scale(0.015625)"/>
       <path id="STIXGeneral-Regular-74" d="M 1702 493 
L 1786 422 
Q 1478 -64 1011 -64 
Q 448 -64 448 749 
L 448 2675 
L 109 2675 
Q 83 2694 83 2720 
Q 83 2771 192 2842 
Q 435 2982 813 3526 
Q 826 3546 874 3606 
Q 922 3667 941 3706 
Q 986 3706 986 3622 
L 986 2880 
L 1632 2880 
L 1632 2675 
L 986 2675 
L 986 845 
Q 986 538 1062 403 
Q 1139 269 1318 269 
Q 1510 269 1702 493 
z
" transform="scale(0.015625)"/>
       <path id="STIXGeneral-Regular-69" d="M 1152 4045 
Q 1152 3904 1056 3811 
Q 960 3718 819 3718 
Q 685 3718 592 3811 
Q 499 3904 499 4045 
Q 499 4179 595 4275 
Q 691 4371 826 4371 
Q 966 4371 1059 4275 
Q 1152 4179 1152 4045 
z
M 1619 0 
L 102 0 
L 102 96 
Q 435 115 521 211 
Q 608 307 608 666 
L 608 2118 
Q 608 2342 563 2432 
Q 518 2522 397 2522 
Q 243 2522 128 2490 
L 128 2592 
L 1120 2944 
L 1146 2918 
L 1146 672 
Q 1146 314 1226 218 
Q 1306 122 1619 96 
L 1619 0 
z
" transform="scale(0.015625)"/>
       <path id="STIXGeneral-Regular-6f" d="M 3008 1478 
Q 3008 806 2608 371 
Q 2208 -64 1568 -64 
Q 979 -64 582 368 
Q 186 800 186 1459 
Q 186 2125 582 2534 
Q 979 2944 1626 2944 
Q 2221 2944 2614 2537 
Q 3008 2131 3008 1478 
z
M 2432 1306 
Q 2432 2035 2112 2445 
Q 1856 2765 1504 2765 
Q 1171 2765 966 2493 
Q 762 2221 762 1747 
Q 762 928 1101 435 
Q 1318 115 1677 115 
Q 2029 115 2230 432 
Q 2432 749 2432 1306 
z
" transform="scale(0.015625)"/>
       <path id="STIXGeneral-Regular-20" transform="scale(0.015625)"/>
       <path id="STIXGeneral-Regular-56" d="M 4461 4237 
L 4461 4115 
Q 4262 4109 4134 3990 
Q 4006 3872 3872 3533 
L 2451 -70 
L 2355 -70 
L 794 3411 
Q 589 3866 467 3987 
Q 346 4109 102 4115 
L 102 4237 
L 1798 4237 
L 1798 4115 
L 1619 4102 
Q 1331 4083 1331 3904 
Q 1331 3776 1581 3219 
L 2554 1030 
L 3494 3392 
Q 3616 3699 3616 3853 
Q 3616 3898 3606 3933 
Q 3597 3968 3584 3993 
Q 3571 4019 3536 4038 
Q 3501 4058 3481 4067 
Q 3462 4077 3411 4086 
Q 3360 4096 3337 4099 
Q 3315 4102 3248 4108 
Q 3181 4115 3155 4115 
L 3155 4237 
L 4461 4237 
z
" transform="scale(0.015625)"/>
       <path id="STIXGeneral-Regular-6c" d="M 1645 0 
L 134 0 
L 134 96 
Q 435 122 531 221 
Q 627 320 627 589 
L 627 3590 
Q 627 3821 569 3910 
Q 512 4000 358 4000 
Q 224 4000 122 3987 
L 122 4090 
Q 730 4237 1133 4371 
L 1165 4346 
L 1165 557 
Q 1165 288 1254 201 
Q 1344 115 1645 96 
L 1645 0 
z
" transform="scale(0.015625)"/>
      </defs>
      <use xlink:href="#STIXGeneral-Regular-57"/>
      <use xlink:href="#STIXGeneral-Regular-61" transform="translate(94.399994 0)"/>
      <use xlink:href="#STIXGeneral-Regular-76" transform="translate(138.799988 0)"/>
      <use xlink:href="#STIXGeneral-Regular-65" transform="translate(188.799973 0)"/>
      <use xlink:href="#STIXGeneral-Regular-66" transform="translate(233.199966 0)"/>
      <use xlink:href="#STIXGeneral-Regular-75" transform="translate(266.499954 0)"/>
      <use xlink:href="#STIXGeneral-Regular-6e" transform="translate(316.499939 0)"/>
      <use xlink:href="#STIXGeneral-Regular-63" transform="translate(366.499924 0)"/>
      <use xlink:href="#STIXGeneral-Regular-74" transform="translate(410.899918 0)"/>
      <use xlink:href="#STIXGeneral-Regular-69" transform="translate(438.699905 0)"/>
      <use xlink:href="#STIXGeneral-Regular-6f" transform="translate(466.499893 0)"/>
      <use xlink:href="#STIXGeneral-Regular-6e" transform="translate(516.499878 0)"/>
      <use xlink:href="#STIXGeneral-Regular-20" transform="translate(566.499863 0)"/>
      <use xlink:href="#STIXGeneral-Regular-56" transform="translate(591.499847 0)"/>
      <use xlink:href="#STIXGeneral-Regular-61" transform="translate(663.699829 0)"/>
      <use xlink:href="#STIXGeneral-Regular-6c" transform="translate(708.099823 0)"/>
      <use xlink:href="#STIXGeneral-Regular-75" transform="translate(735.899811 0)"/>
      <use xlink:href="#STIXGeneral-Regular-65" transform="translate(785.899796 0)"/>
     </g>
    </g>
   </g>
   <g id="line2d_33">
    <path d="M 68.692926 168.041841 
L 73.125944 213.225975 
L 75.785755 238.090218 
L 78.002264 256.555322 
L 79.775472 269.449579 
L 81.105377 277.860297 
L 82.435283 285.089383 
L 83.765188 291.059053 
L 84.651792 294.306858 
L 85.538395 296.950542 
L 86.424999 298.977457 
L 87.311603 300.377903 
L 88.198206 301.145182 
L 88.641508 301.290117 
L 89.08481 301.275621 
L 89.528112 301.101712 
L 89.971414 300.768597 
L 90.858017 299.626535 
L 91.744621 297.8549 
L 92.631225 295.462169 
L 93.517828 292.459788 
L 94.847734 286.845331 
L 96.177639 279.952564 
L 97.507545 271.855653 
L 99.280752 259.338989 
L 101.053959 245.077154 
L 103.270468 225.213789 
L 105.930279 199.181711 
L 115.68292 101.229652 
L 117.899429 82.382925 
L 119.672636 69.121404 
L 121.445843 57.750776 
L 122.775749 50.595937 
L 124.105654 44.704799 
L 124.992258 41.511315 
L 125.878862 38.923222 
L 126.765465 36.952903 
L 127.652069 35.609785 
L 128.095371 35.175553 
L 128.538672 34.900295 
L 128.981974 34.78434 
L 129.425276 34.827827 
L 129.868578 35.030704 
L 130.31188 35.392728 
L 131.198483 36.592295 
L 132.085087 38.420788 
L 132.971691 40.86946 
L 133.858294 43.926594 
L 135.1882 49.620386 
L 136.518105 56.588377 
L 137.848011 64.755592 
L 139.621218 77.357042 
L 141.394425 91.691959 
L 143.610934 111.62811 
L 146.270745 137.717522 
L 155.580084 231.564327 
L 157.796593 250.77758 
L 159.5698 264.395744 
L 161.343007 276.172074 
L 162.672913 283.658752 
L 164.002818 289.901408 
L 165.332724 294.832871 
L 166.219328 297.365271 
L 167.105931 299.278916 
L 167.992535 300.564651 
L 168.435837 300.970012 
L 168.879138 301.216325 
L 169.32244 301.303295 
L 169.765742 301.230819 
L 170.209044 300.998983 
L 170.652346 300.608064 
L 171.538949 299.35104 
L 172.425553 297.46576 
L 173.312157 294.961246 
L 174.19876 291.849479 
L 175.528666 286.076578 
L 176.858571 279.033638 
L 178.188477 270.796442 
L 179.961684 258.110704 
L 181.734891 243.703273 
L 183.951401 223.695124 
L 186.611211 197.54941 
L 195.92055 103.783821 
L 198.137059 84.650698 
L 199.910266 71.110855 
L 201.683474 59.423878 
L 203.013379 52.010432 
L 204.343284 45.845469 
L 205.67319 40.995323 
L 206.559794 38.518717 
L 207.446397 36.661821 
L 208.333001 35.433518 
L 208.776303 35.057045 
L 209.219605 34.839687 
L 209.662906 34.781705 
L 210.106208 34.883167 
L 210.54951 35.143954 
L 210.992812 35.563752 
L 211.879415 36.878184 
L 212.766019 38.820176 
L 213.652623 41.380434 
L 214.539226 44.54671 
L 215.869132 50.398493 
L 217.199037 57.516102 
L 218.528943 65.822953 
L 220.30215 78.592478 
L 222.075357 93.071853 
L 224.291867 113.151208 
L 226.951678 139.352189 
L 235.817714 228.970354 
L 238.034223 248.458059 
L 239.80743 262.346084 
L 241.580638 274.431456 
L 242.910543 282.172098 
L 244.240449 288.684715 
L 245.570354 293.89923 
L 246.456958 296.626105 
L 247.343561 298.737762 
L 248.230165 300.224098 
L 249.116769 301.078002 
L 249.560071 301.266397 
L 250.003372 301.295388 
L 250.446674 301.164943 
L 250.889976 300.875217 
L 251.333278 300.426556 
L 252.219882 299.054767 
L 253.106485 297.056141 
L 253.993089 294.44024 
L 254.879692 291.21958 
L 256.209598 285.289148 
L 257.539503 278.09715 
L 258.869409 269.720972 
L 260.642616 256.868167 
L 262.415823 242.31742 
L 264.632333 222.167653 
L 267.292144 195.912441 
L 276.15818 106.369127 
L 278.374689 86.958879 
L 280.147896 73.147276 
L 281.921104 61.149611 
L 283.251009 53.481152 
L 284.580915 47.04535 
L 285.91082 41.911455 
L 286.797424 39.240014 
L 287.684027 37.184831 
L 288.570631 35.75574 
L 289.457235 34.959578 
L 289.900537 34.800154 
L 290.343838 34.800154 
L 290.78714 34.959577 
L 291.230442 35.278232 
L 292.117046 36.391523 
L 293.003649 38.134702 
L 293.890253 40.499428 
L 294.776857 43.474386 
L 296.106762 49.049091 
L 297.436668 55.904143 
L 298.766573 63.965781 
L 300.53978 76.439865 
L 302.312988 90.664947 
L 304.529497 110.491623 
L 307.189308 136.494648 
L 316.941948 234.491096 
L 319.158457 253.3793 
L 320.931664 266.680978 
L 322.704872 278.09714 
L 324.034777 285.28914 
L 325.364683 291.219574 
L 326.251286 294.440235 
L 327.13789 297.056137 
L 328.024493 299.054764 
L 328.911097 300.426554 
L 329.354399 300.875215 
L 329.797701 301.164942 
L 330.241003 301.295388 
L 330.684304 301.266397 
L 331.127606 301.078003 
L 331.570908 300.730432 
L 332.457512 299.559613 
L 333.344115 297.75954 
L 334.230719 295.338827 
L 335.117323 292.309056 
L 336.447228 286.654904 
L 337.777134 279.724492 
L 339.107039 271.592389 
L 340.880246 259.033271 
L 342.653454 244.734825 
L 344.869963 224.83497 
L 347.529774 198.774096 
L 356.839112 104.888074 
L 359.055621 85.635039 
L 360.828829 71.977916 
L 362.602036 60.157084 
L 363.931941 52.633899 
L 365.261847 46.352489 
L 366.591752 41.380439 
L 367.478356 38.82018 
L 368.36496 36.878188 
L 369.251563 35.563754 
L 369.694865 35.143955 
L 370.138167 34.883168 
L 370.581469 34.781705 
L 371.02477 34.839686 
L 371.468072 35.057044 
L 371.911374 35.433516 
L 372.797978 36.661818 
L 373.684581 38.518713 
L 374.571185 40.995317 
L 375.457789 44.079782 
L 376.787694 49.813157 
L 378.1176 56.818656 
L 379.447505 65.020901 
L 381.220712 77.664557 
L 382.99392 92.035801 
L 385.210429 112.008049 
L 387.87024 138.12574 
L 397.179578 231.932402 
L 399.396087 251.105686 
L 401.169295 264.684757 
L 402.942502 276.41647 
L 404.272407 283.866569 
L 405.602313 290.07041 
L 406.932218 294.96124 
L 407.818822 297.465756 
L 408.705426 299.351037 
L 409.592029 300.608062 
L 410.035331 300.998982 
L 410.478633 301.230819 
L 410.921935 301.303295 
L 411.365237 301.216326 
L 411.808538 300.970013 
L 412.25184 300.564653 
L 413.138444 299.278919 
L 414.025047 297.365275 
L 414.911651 294.832876 
L 415.798255 291.69384 
L 417.12816 285.88147 
L 418.458066 278.801162 
L 419.787971 270.529098 
L 421.561178 257.801404 
L 423.334386 243.35793 
L 425.550895 223.31408 
L 428.210706 197.140604 
L 437.520044 103.417013 
L 439.736553 84.324238 
L 441.509761 70.823756 
L 443.282968 59.181627 
L 444.612873 51.804908 
L 445.942779 45.678882 
L 447.272684 40.869465 
L 448.159288 38.420792 
L 449.045892 36.592298 
L 449.932495 35.39273 
L 450.375797 35.030705 
L 450.819099 34.827828 
L 451.262401 34.78434 
L 451.705703 34.900295 
L 452.149004 35.175552 
L 452.592306 35.609783 
L 453.47891 36.9529 
L 454.365513 38.923218 
L 455.252117 41.51131 
L 456.138721 44.704793 
L 457.468626 50.595929 
L 458.798532 57.750767 
L 460.128437 66.092322 
L 461.901645 78.903549 
L 463.674852 93.418682 
L 465.891361 113.533341 
L 468.551172 139.761567 
L 477.417208 229.34275 
L 479.633717 248.791823 
L 481.406925 262.641707 
L 483.180132 274.683286 
L 484.510038 282.387875 
L 485.839943 288.862117 
L 487.169849 294.036349 
L 488.056452 296.735521 
L 488.943056 298.818951 
L 489.829659 300.276673 
L 490.716263 301.101711 
L 491.159565 301.275621 
L 491.602867 301.290117 
L 492.046169 301.145183 
L 492.48947 300.840991 
L 493.376074 299.756481 
L 494.262678 298.041775 
L 495.149281 295.705079 
L 496.035885 292.757572 
L 497.36579 287.222674 
L 498.695696 280.405405 
L 500.025601 272.37912 
L 501.798809 259.94774 
L 503.572016 245.759551 
L 505.788525 225.96976 
L 508.448336 199.996046 
L 511.551449 168.041858 
L 511.551449 168.041858 
" clip-path="url(#p9df9ddd721)" style="fill: none; stroke: #0000ff; stroke-width: 1.5; stroke-linecap: square"/>
   </g>
   <g id="line2d_34">
    <path d="M 68.692926 168.041841 
L 511.551449 168.041841 
L 511.551449 168.041841 
" clip-path="url(#p9df9ddd721)" style="fill: none; stroke-dasharray: 5.55,2.4; stroke-dashoffset: 0; stroke: #ff0000; stroke-width: 1.5"/>
   </g>
   <g id="patch_3">
    <path d="M 46.55 314.629375 
L 46.55 21.455625 
" style="fill: none; stroke: #000000; stroke-width: 0.8; stroke-linejoin: miter; stroke-linecap: square"/>
   </g>
   <g id="patch_4">
    <path d="M 533.694375 314.629375 
L 533.694375 21.455625 
" style="fill: none; stroke: #000000; stroke-width: 0.8; stroke-linejoin: miter; stroke-linecap: square"/>
   </g>
   <g id="patch_5">
    <path d="M 46.55 314.629375 
L 533.694375 314.629375 
" style="fill: none; stroke: #000000; stroke-width: 0.8; stroke-linejoin: miter; stroke-linecap: square"/>
   </g>
   <g id="patch_6">
    <path d="M 46.55 21.455625 
L 533.694375 21.455625 
" style="fill: none; stroke: #000000; stroke-width: 0.8; stroke-linejoin: miter; stroke-linecap: square"/>
   </g>
   <g id="text_19">
    <!-- Wavefunction for Energy = 66.34567352973362 eV -->
    <g transform="translate(163.70125 15.455625) scale(0.12 -0.12)">
     <defs>
      <path id="STIXGeneral-Regular-72" d="M 1024 2931 
L 1024 2342 
Q 1267 2688 1430 2816 
Q 1594 2944 1792 2944 
Q 1958 2944 2051 2854 
Q 2144 2765 2144 2605 
Q 2144 2470 2077 2393 
Q 2010 2317 1894 2317 
Q 1773 2317 1638 2445 
Q 1536 2541 1472 2541 
Q 1338 2541 1181 2355 
Q 1024 2170 1024 2016 
L 1024 576 
Q 1024 301 1133 205 
Q 1242 109 1568 96 
L 1568 0 
L 32 0 
L 32 96 
Q 339 154 412 224 
Q 486 294 486 538 
L 486 2138 
Q 486 2349 438 2435 
Q 390 2522 269 2522 
Q 166 2522 45 2496 
L 45 2598 
Q 448 2726 992 2944 
L 1024 2931 
z
" transform="scale(0.015625)"/>
      <path id="STIXGeneral-Regular-45" d="M 3821 1082 
L 3526 0 
L 77 0 
L 77 122 
Q 442 147 538 252 
Q 634 358 634 730 
L 634 3520 
Q 634 3878 534 3987 
Q 435 4096 77 4115 
L 77 4237 
L 3469 4237 
L 3494 3322 
L 3334 3322 
Q 3264 3750 3085 3872 
Q 2906 3994 2349 3994 
L 1510 3994 
Q 1370 3994 1328 3952 
Q 1286 3910 1286 3763 
L 1286 2355 
L 2253 2355 
Q 2656 2355 2787 2470 
Q 2918 2586 2976 2970 
L 3123 2970 
L 3123 1472 
L 2976 1472 
Q 2918 1875 2790 1984 
Q 2662 2093 2253 2093 
L 1286 2093 
L 1286 538 
Q 1286 346 1420 291 
Q 1555 237 1933 237 
L 2163 237 
Q 2848 237 3136 403 
Q 3424 570 3642 1082 
L 3821 1082 
z
" transform="scale(0.015625)"/>
      <path id="STIXGeneral-Regular-67" d="M 3008 2483 
L 2477 2483 
Q 2598 2208 2598 1946 
Q 2598 1453 2265 1203 
Q 1933 954 1600 954 
Q 1530 954 1357 973 
L 1235 986 
Q 1107 947 979 812 
Q 851 678 851 582 
Q 851 435 1350 410 
L 2176 371 
Q 2528 358 2739 172 
Q 2950 -13 2950 -314 
Q 2950 -685 2566 -986 
Q 2035 -1395 1286 -1395 
Q 826 -1395 502 -1212 
Q 179 -1030 179 -774 
Q 179 -595 320 -419 
Q 461 -243 806 6 
Q 602 102 534 172 
Q 467 243 467 346 
Q 467 531 762 787 
Q 909 915 1037 1043 
Q 717 1203 579 1401 
Q 442 1600 442 1901 
Q 442 2336 752 2640 
Q 1062 2944 1510 2944 
Q 1766 2944 2022 2848 
L 2163 2797 
Q 2349 2733 2515 2733 
L 3008 2733 
L 3008 2483 
z
M 973 2163 
L 973 2144 
Q 973 1683 1155 1398 
Q 1338 1114 1632 1114 
Q 1850 1114 1978 1270 
Q 2106 1427 2106 1690 
Q 2106 2112 1914 2464 
Q 1754 2765 1446 2765 
Q 1222 2765 1097 2605 
Q 973 2445 973 2163 
z
M 2771 -410 
Q 2771 -230 2595 -163 
Q 2419 -96 1978 -96 
Q 1344 -96 941 -13 
Q 749 -243 688 -348 
Q 627 -454 627 -563 
Q 627 -774 880 -902 
Q 1133 -1030 1555 -1030 
Q 2099 -1030 2435 -860 
Q 2771 -691 2771 -410 
z
" transform="scale(0.015625)"/>
      <path id="STIXGeneral-Regular-79" d="M 3040 2880 
L 3040 2784 
Q 2925 2771 2854 2700 
Q 2784 2630 2720 2458 
L 1760 -160 
Q 1510 -838 1257 -1116 
Q 1005 -1395 640 -1395 
Q 435 -1395 313 -1289 
Q 192 -1184 192 -1024 
Q 192 -902 272 -816 
Q 352 -730 467 -730 
Q 653 -730 800 -813 
Q 883 -858 966 -858 
Q 1101 -858 1286 -576 
Q 1376 -448 1459 -211 
Q 1542 26 1542 115 
Q 1542 198 1274 762 
L 429 2566 
Q 346 2752 90 2790 
L 90 2880 
L 1402 2880 
L 1402 2784 
Q 1197 2778 1117 2739 
Q 1037 2701 1037 2611 
Q 1037 2541 1120 2349 
L 1837 749 
L 2458 2515 
Q 2483 2573 2483 2630 
Q 2483 2784 2189 2784 
L 2189 2880 
L 3040 2880 
z
" transform="scale(0.015625)"/>
      <path id="STIXGeneral-Regular-3d" d="M 4077 2048 
L 307 2048 
L 307 2470 
L 4077 2470 
L 4077 2048 
z
M 4077 768 
L 307 768 
L 307 1190 
L 4077 1190 
L 4077 768 
z
" transform="scale(0.015625)"/>
      <path id="STIXGeneral-Regular-33" d="M 390 3264 
L 288 3290 
Q 435 3770 748 4048 
Q 1062 4326 1542 4326 
Q 1990 4326 2265 4083 
Q 2541 3840 2541 3450 
Q 2541 2925 1946 2566 
Q 2298 2413 2477 2227 
Q 2758 1914 2758 1402 
Q 2758 890 2464 506 
Q 2246 211 1840 60 
Q 1434 -90 979 -90 
Q 262 -90 262 275 
Q 262 378 339 442 
Q 416 506 525 506 
Q 685 506 915 339 
Q 1197 141 1466 141 
Q 1818 141 2058 425 
Q 2298 710 2298 1120 
Q 2298 1856 1632 2048 
Q 1434 2112 979 2112 
L 979 2202 
Q 1338 2323 1517 2432 
Q 2035 2726 2035 3290 
Q 2035 3610 1852 3776 
Q 1670 3942 1344 3942 
Q 768 3942 390 3264 
z
" transform="scale(0.015625)"/>
      <path id="STIXGeneral-Regular-37" d="M 2874 4134 
L 1517 -51 
L 1101 -51 
L 2368 3763 
L 992 3763 
Q 717 3763 582 3667 
Q 448 3571 243 3238 
L 128 3296 
L 512 4237 
L 2874 4237 
L 2874 4134 
z
" transform="scale(0.015625)"/>
      <path id="STIXGeneral-Regular-39" d="M 378 -141 
L 358 -13 
Q 1094 115 1603 608 
Q 2112 1101 2304 1882 
Q 1933 1517 1344 1517 
Q 826 1517 509 1875 
Q 192 2234 192 2816 
Q 192 3462 573 3894 
Q 954 4326 1523 4326 
Q 2131 4326 2528 3840 
Q 2938 3328 2938 2522 
Q 2938 1958 2742 1462 
Q 2547 966 2170 621 
Q 1773 262 1395 105 
Q 1018 -51 378 -141 
z
M 2317 2272 
L 2317 2522 
Q 2317 4147 1472 4147 
Q 1171 4147 1005 3930 
Q 909 3802 845 3546 
Q 781 3290 781 3034 
Q 781 2464 995 2128 
Q 1210 1792 1568 1792 
Q 1824 1792 2070 1917 
Q 2317 2042 2317 2272 
z
" transform="scale(0.015625)"/>
     </defs>
     <use xlink:href="#STIXGeneral-Regular-57"/>
     <use xlink:href="#STIXGeneral-Regular-61" transform="translate(94.399994 0)"/>
     <use xlink:href="#STIXGeneral-Regular-76" transform="translate(138.799988 0)"/>
     <use xlink:href="#STIXGeneral-Regular-65" transform="translate(188.799973 0)"/>
     <use xlink:href="#STIXGeneral-Regular-66" transform="translate(233.199966 0)"/>
     <use xlink:href="#STIXGeneral-Regular-75" transform="translate(266.499954 0)"/>
     <use xlink:href="#STIXGeneral-Regular-6e" transform="translate(316.499939 0)"/>
     <use xlink:href="#STIXGeneral-Regular-63" transform="translate(366.499924 0)"/>
     <use xlink:href="#STIXGeneral-Regular-74" transform="translate(410.899918 0)"/>
     <use xlink:href="#STIXGeneral-Regular-69" transform="translate(438.699905 0)"/>
     <use xlink:href="#STIXGeneral-Regular-6f" transform="translate(466.499893 0)"/>
     <use xlink:href="#STIXGeneral-Regular-6e" transform="translate(516.499878 0)"/>
     <use xlink:href="#STIXGeneral-Regular-20" transform="translate(566.499863 0)"/>
     <use xlink:href="#STIXGeneral-Regular-66" transform="translate(591.499847 0)"/>
     <use xlink:href="#STIXGeneral-Regular-6f" transform="translate(624.799835 0)"/>
     <use xlink:href="#STIXGeneral-Regular-72" transform="translate(674.79982 0)"/>
     <use xlink:href="#STIXGeneral-Regular-20" transform="translate(708.099808 0)"/>
     <use xlink:href="#STIXGeneral-Regular-45" transform="translate(733.099792 0)"/>
     <use xlink:href="#STIXGeneral-Regular-6e" transform="translate(794.199783 0)"/>
     <use xlink:href="#STIXGeneral-Regular-65" transform="translate(844.199768 0)"/>
     <use xlink:href="#STIXGeneral-Regular-72" transform="translate(888.599762 0)"/>
     <use xlink:href="#STIXGeneral-Regular-67" transform="translate(921.89975 0)"/>
     <use xlink:href="#STIXGeneral-Regular-79" transform="translate(971.899734 0)"/>
     <use xlink:href="#STIXGeneral-Regular-20" transform="translate(1021.899719 0)"/>
     <use xlink:href="#STIXGeneral-Regular-3d" transform="translate(1046.899704 0)"/>
     <use xlink:href="#STIXGeneral-Regular-20" transform="translate(1115.399689 0)"/>
     <use xlink:href="#STIXGeneral-Regular-36" transform="translate(1140.399673 0)"/>
     <use xlink:href="#STIXGeneral-Regular-36" transform="translate(1190.399658 0)"/>
     <use xlink:href="#STIXGeneral-Regular-2e" transform="translate(1240.399643 0)"/>
     <use xlink:href="#STIXGeneral-Regular-33" transform="translate(1265.399628 0)"/>
     <use xlink:href="#STIXGeneral-Regular-34" transform="translate(1315.399612 0)"/>
     <use xlink:href="#STIXGeneral-Regular-35" transform="translate(1365.399597 0)"/>
     <use xlink:href="#STIXGeneral-Regular-36" transform="translate(1415.399582 0)"/>
     <use xlink:href="#STIXGeneral-Regular-37" transform="translate(1465.399567 0)"/>
     <use xlink:href="#STIXGeneral-Regular-33" transform="translate(1515.399551 0)"/>
     <use xlink:href="#STIXGeneral-Regular-35" transform="translate(1565.399536 0)"/>
     <use xlink:href="#STIXGeneral-Regular-32" transform="translate(1615.399521 0)"/>
     <use xlink:href="#STIXGeneral-Regular-39" transform="translate(1665.399506 0)"/>
     <use xlink:href="#STIXGeneral-Regular-37" transform="translate(1715.39949 0)"/>
     <use xlink:href="#STIXGeneral-Regular-33" transform="translate(1765.399475 0)"/>
     <use xlink:href="#STIXGeneral-Regular-33" transform="translate(1815.39946 0)"/>
     <use xlink:href="#STIXGeneral-Regular-36" transform="translate(1865.399445 0)"/>
     <use xlink:href="#STIXGeneral-Regular-32" transform="translate(1915.399429 0)"/>
     <use xlink:href="#STIXGeneral-Regular-20" transform="translate(1965.399414 0)"/>
     <use xlink:href="#STIXGeneral-Regular-65" transform="translate(1990.399399 0)"/>
     <use xlink:href="#STIXGeneral-Regular-56" transform="translate(2034.799393 0)"/>
    </g>
   </g>
   <g id="legend_1">
    <g id="patch_7">
     <path d="M 53.55 309.629375 
L 145.270313 309.629375 
Q 147.270313 309.629375 147.270313 307.629375 
L 147.270313 280.279375 
Q 147.270313 278.279375 145.270313 278.279375 
L 53.55 278.279375 
Q 51.55 278.279375 51.55 280.279375 
L 51.55 307.629375 
Q 51.55 309.629375 53.55 309.629375 
z
" style="fill: #ffffff; opacity: 0.8; stroke: #cccccc; stroke-linejoin: miter"/>
    </g>
    <g id="line2d_35">
     <path d="M 55.55 285.779375 
L 65.55 285.779375 
L 75.55 285.779375 
" style="fill: none; stroke: #0000ff; stroke-width: 1.5; stroke-linecap: square"/>
    </g>
    <g id="text_20">
     <!-- Real Part -->
     <g transform="translate(83.55 289.279375) scale(0.1 -0.1)">
      <defs>
       <path id="STIXGeneral-Regular-52" d="M 4224 0 
L 3187 0 
L 1664 1971 
L 1306 1958 
L 1306 717 
Q 1306 352 1405 249 
Q 1504 147 1875 122 
L 1875 0 
L 109 0 
L 109 122 
Q 474 154 563 262 
Q 653 371 653 794 
L 653 3526 
Q 653 3885 563 3987 
Q 474 4090 109 4115 
L 109 4237 
L 1850 4237 
Q 2726 4237 3187 3859 
Q 3501 3603 3501 3091 
Q 3501 2221 2342 2042 
L 3622 422 
Q 3757 256 3878 198 
Q 4000 141 4224 122 
L 4224 0 
z
M 1306 3731 
L 1306 2195 
Q 1766 2202 1990 2246 
Q 2214 2291 2438 2413 
Q 2803 2618 2803 3142 
Q 2803 4000 1632 4000 
Q 1459 4000 1382 3945 
Q 1306 3891 1306 3731 
z
" transform="scale(0.015625)"/>
       <path id="STIXGeneral-Regular-50" d="M 102 4237 
L 1760 4237 
Q 2669 4237 3149 3834 
Q 3469 3565 3469 3072 
Q 3469 2560 3104 2234 
Q 2835 1990 2553 1916 
Q 2272 1843 1734 1843 
Q 1549 1843 1293 1862 
L 1293 717 
Q 1293 352 1398 246 
Q 1504 141 1894 122 
L 1894 0 
L 102 0 
L 102 122 
Q 474 147 557 256 
Q 640 365 640 781 
L 640 3526 
Q 640 3885 547 3987 
Q 454 4090 102 4115 
L 102 4237 
z
M 1293 3770 
L 1293 2118 
Q 1510 2099 1683 2099 
Q 2202 2099 2486 2352 
Q 2771 2605 2771 3040 
Q 2771 3558 2476 3779 
Q 2182 4000 1517 4000 
Q 1382 4000 1337 3952 
Q 1293 3904 1293 3770 
z
" transform="scale(0.015625)"/>
      </defs>
      <use xlink:href="#STIXGeneral-Regular-52"/>
      <use xlink:href="#STIXGeneral-Regular-65" transform="translate(66.699997 0)"/>
      <use xlink:href="#STIXGeneral-Regular-61" transform="translate(111.099991 0)"/>
      <use xlink:href="#STIXGeneral-Regular-6c" transform="translate(155.499985 0)"/>
      <use xlink:href="#STIXGeneral-Regular-20" transform="translate(183.299973 0)"/>
      <use xlink:href="#STIXGeneral-Regular-50" transform="translate(208.299957 0)"/>
      <use xlink:href="#STIXGeneral-Regular-61" transform="translate(263.999954 0)"/>
      <use xlink:href="#STIXGeneral-Regular-72" transform="translate(308.399948 0)"/>
      <use xlink:href="#STIXGeneral-Regular-74" transform="translate(341.699936 0)"/>
     </g>
    </g>
    <g id="line2d_36">
     <path d="M 55.55 299.949687 
L 65.55 299.949687 
L 75.55 299.949687 
" style="fill: none; stroke-dasharray: 5.55,2.4; stroke-dashoffset: 0; stroke: #ff0000; stroke-width: 1.5"/>
    </g>
    <g id="text_21">
     <!-- Imaginary Part -->
     <g transform="translate(83.55 303.449687) scale(0.1 -0.1)">
      <defs>
       <path id="STIXGeneral-Regular-49" d="M 2016 0 
L 115 0 
L 115 122 
Q 518 134 627 240 
Q 736 346 736 717 
L 736 3526 
Q 736 3898 633 3994 
Q 531 4090 115 4115 
L 115 4237 
L 2016 4237 
L 2016 4115 
Q 1613 4096 1501 3993 
Q 1389 3891 1389 3526 
L 1389 717 
Q 1389 358 1504 246 
Q 1619 134 2016 122 
L 2016 0 
z
" transform="scale(0.015625)"/>
       <path id="STIXGeneral-Regular-6d" d="M 4960 0 
L 3565 0 
L 3565 96 
Q 3834 122 3907 208 
Q 3981 294 3981 576 
L 3981 1894 
Q 3981 2278 3869 2444 
Q 3757 2611 3488 2611 
Q 3264 2611 3107 2521 
Q 2950 2432 2803 2221 
L 2803 608 
Q 2803 301 2896 201 
Q 2989 102 3264 96 
L 3264 0 
L 1830 0 
L 1830 96 
Q 2112 115 2189 188 
Q 2266 262 2266 550 
L 2266 1901 
Q 2266 2611 1850 2611 
Q 1670 2611 1468 2531 
Q 1267 2451 1171 2336 
Q 1088 2240 1088 2227 
L 1088 448 
Q 1088 243 1177 176 
Q 1267 109 1523 96 
L 1523 0 
L 102 0 
L 102 96 
Q 371 102 460 195 
Q 550 288 550 563 
L 550 2150 
Q 550 2387 499 2480 
Q 448 2573 326 2573 
Q 230 2573 122 2547 
L 122 2656 
Q 557 2778 1011 2944 
L 1062 2925 
L 1062 2451 
L 1075 2451 
Q 1363 2752 1584 2848 
Q 1805 2944 2054 2944 
Q 2560 2944 2733 2406 
Q 3232 2944 3776 2944 
Q 4518 2944 4518 1792 
L 4518 493 
Q 4518 282 4582 202 
Q 4646 122 4794 109 
L 4960 96 
L 4960 0 
z
" transform="scale(0.015625)"/>
      </defs>
      <use xlink:href="#STIXGeneral-Regular-49"/>
      <use xlink:href="#STIXGeneral-Regular-6d" transform="translate(33.299988 0)"/>
      <use xlink:href="#STIXGeneral-Regular-61" transform="translate(111.099976 0)"/>
      <use xlink:href="#STIXGeneral-Regular-67" transform="translate(155.499969 0)"/>
      <use xlink:href="#STIXGeneral-Regular-69" transform="translate(205.499954 0)"/>
      <use xlink:href="#STIXGeneral-Regular-6e" transform="translate(233.299942 0)"/>
      <use xlink:href="#STIXGeneral-Regular-61" transform="translate(283.299927 0)"/>
      <use xlink:href="#STIXGeneral-Regular-72" transform="translate(327.699921 0)"/>
      <use xlink:href="#STIXGeneral-Regular-79" transform="translate(360.999908 0)"/>
      <use xlink:href="#STIXGeneral-Regular-20" transform="translate(410.999893 0)"/>
      <use xlink:href="#STIXGeneral-Regular-50" transform="translate(435.999878 0)"/>
      <use xlink:href="#STIXGeneral-Regular-61" transform="translate(491.699875 0)"/>
      <use xlink:href="#STIXGeneral-Regular-72" transform="translate(536.099869 0)"/>
      <use xlink:href="#STIXGeneral-Regular-74" transform="translate(569.399857 0)"/>
     </g>
    </g>
   </g>
  </g>
  <g id="axes_2">
   <g id="patch_8">
    <path d="M 577.735625 314.629375 
L 1064.88 314.629375 
L 1064.88 21.455625 
L 577.735625 21.455625 
z
" style="fill: #ffffff"/>
   </g>
   <g id="matplotlib.axis_3">
    <g id="xtick_8">
     <g id="line2d_37">
      <path d="M 599.878551 314.629375 
L 599.878551 21.455625 
" clip-path="url(#p9747daa225)" style="fill: none; stroke: #b0b0b0; stroke-width: 0.8; stroke-linecap: square"/>
     </g>
     <g id="line2d_38">
      <g>
       <use xlink:href="#m5e8b2bee41" x="599.878551" y="314.629375" style="stroke: #000000; stroke-width: 0.8"/>
      </g>
     </g>
     <g id="text_22">
      <!-- −1.5 -->
      <g transform="translate(590.203551 328.459062) scale(0.1 -0.1)">
       <use xlink:href="#STIXGeneral-Regular-2212"/>
       <use xlink:href="#STIXGeneral-Regular-31" transform="translate(68.499985 0)"/>
       <use xlink:href="#STIXGeneral-Regular-2e" transform="translate(118.499969 0)"/>
       <use xlink:href="#STIXGeneral-Regular-35" transform="translate(143.499954 0)"/>
      </g>
     </g>
    </g>
    <g id="xtick_9">
     <g id="line2d_39">
      <path d="M 673.688305 314.629375 
L 673.688305 21.455625 
" clip-path="url(#p9747daa225)" style="fill: none; stroke: #b0b0b0; stroke-width: 0.8; stroke-linecap: square"/>
     </g>
     <g id="line2d_40">
      <g>
       <use xlink:href="#m5e8b2bee41" x="673.688305" y="314.629375" style="stroke: #000000; stroke-width: 0.8"/>
      </g>
     </g>
     <g id="text_23">
      <!-- −1.0 -->
      <g transform="translate(664.013305 328.459062) scale(0.1 -0.1)">
       <use xlink:href="#STIXGeneral-Regular-2212"/>
       <use xlink:href="#STIXGeneral-Regular-31" transform="translate(68.499985 0)"/>
       <use xlink:href="#STIXGeneral-Regular-2e" transform="translate(118.499969 0)"/>
       <use xlink:href="#STIXGeneral-Regular-30" transform="translate(143.499954 0)"/>
      </g>
     </g>
    </g>
    <g id="xtick_10">
     <g id="line2d_41">
      <path d="M 747.498059 314.629375 
L 747.498059 21.455625 
" clip-path="url(#p9747daa225)" style="fill: none; stroke: #b0b0b0; stroke-width: 0.8; stroke-linecap: square"/>
     </g>
     <g id="line2d_42">
      <g>
       <use xlink:href="#m5e8b2bee41" x="747.498059" y="314.629375" style="stroke: #000000; stroke-width: 0.8"/>
      </g>
     </g>
     <g id="text_24">
      <!-- −0.5 -->
      <g transform="translate(737.823059 328.459062) scale(0.1 -0.1)">
       <use xlink:href="#STIXGeneral-Regular-2212"/>
       <use xlink:href="#STIXGeneral-Regular-30" transform="translate(68.499985 0)"/>
       <use xlink:href="#STIXGeneral-Regular-2e" transform="translate(118.499969 0)"/>
       <use xlink:href="#STIXGeneral-Regular-35" transform="translate(143.499954 0)"/>
      </g>
     </g>
    </g>
    <g id="xtick_11">
     <g id="line2d_43">
      <path d="M 821.307813 314.629375 
L 821.307813 21.455625 
" clip-path="url(#p9747daa225)" style="fill: none; stroke: #b0b0b0; stroke-width: 0.8; stroke-linecap: square"/>
     </g>
     <g id="line2d_44">
      <g>
       <use xlink:href="#m5e8b2bee41" x="821.307813" y="314.629375" style="stroke: #000000; stroke-width: 0.8"/>
      </g>
     </g>
     <g id="text_25">
      <!-- 0.0 -->
      <g transform="translate(815.057813 328.459062) scale(0.1 -0.1)">
       <use xlink:href="#STIXGeneral-Regular-30"/>
       <use xlink:href="#STIXGeneral-Regular-2e" transform="translate(49.999985 0)"/>
       <use xlink:href="#STIXGeneral-Regular-30" transform="translate(74.999969 0)"/>
      </g>
     </g>
    </g>
    <g id="xtick_12">
     <g id="line2d_45">
      <path d="M 895.117566 314.629375 
L 895.117566 21.455625 
" clip-path="url(#p9747daa225)" style="fill: none; stroke: #b0b0b0; stroke-width: 0.8; stroke-linecap: square"/>
     </g>
     <g id="line2d_46">
      <g>
       <use xlink:href="#m5e8b2bee41" x="895.117566" y="314.629375" style="stroke: #000000; stroke-width: 0.8"/>
      </g>
     </g>
     <g id="text_26">
      <!-- 0.5 -->
      <g transform="translate(888.867566 328.459062) scale(0.1 -0.1)">
       <use xlink:href="#STIXGeneral-Regular-30"/>
       <use xlink:href="#STIXGeneral-Regular-2e" transform="translate(49.999985 0)"/>
       <use xlink:href="#STIXGeneral-Regular-35" transform="translate(74.999969 0)"/>
      </g>
     </g>
    </g>
    <g id="xtick_13">
     <g id="line2d_47">
      <path d="M 968.92732 314.629375 
L 968.92732 21.455625 
" clip-path="url(#p9747daa225)" style="fill: none; stroke: #b0b0b0; stroke-width: 0.8; stroke-linecap: square"/>
     </g>
     <g id="line2d_48">
      <g>
       <use xlink:href="#m5e8b2bee41" x="968.92732" y="314.629375" style="stroke: #000000; stroke-width: 0.8"/>
      </g>
     </g>
     <g id="text_27">
      <!-- 1.0 -->
      <g transform="translate(962.67732 328.459062) scale(0.1 -0.1)">
       <use xlink:href="#STIXGeneral-Regular-31"/>
       <use xlink:href="#STIXGeneral-Regular-2e" transform="translate(49.999985 0)"/>
       <use xlink:href="#STIXGeneral-Regular-30" transform="translate(74.999969 0)"/>
      </g>
     </g>
    </g>
    <g id="xtick_14">
     <g id="line2d_49">
      <path d="M 1042.737074 314.629375 
L 1042.737074 21.455625 
" clip-path="url(#p9747daa225)" style="fill: none; stroke: #b0b0b0; stroke-width: 0.8; stroke-linecap: square"/>
     </g>
     <g id="line2d_50">
      <g>
       <use xlink:href="#m5e8b2bee41" x="1042.737074" y="314.629375" style="stroke: #000000; stroke-width: 0.8"/>
      </g>
     </g>
     <g id="text_28">
      <!-- 1.5 -->
      <g transform="translate(1036.487074 328.459062) scale(0.1 -0.1)">
       <use xlink:href="#STIXGeneral-Regular-31"/>
       <use xlink:href="#STIXGeneral-Regular-2e" transform="translate(49.999985 0)"/>
       <use xlink:href="#STIXGeneral-Regular-35" transform="translate(74.999969 0)"/>
      </g>
     </g>
    </g>
    <g id="text_29">
     <!-- x -->
     <g transform="translate(818.807813 341.459062) scale(0.1 -0.1)">
      <use xlink:href="#STIXGeneral-Regular-78"/>
     </g>
    </g>
   </g>
   <g id="matplotlib.axis_4">
    <g id="ytick_10">
     <g id="line2d_51">
      <path d="M 577.735625 301.303295 
L 1064.88 301.303295 
" clip-path="url(#p9747daa225)" style="fill: none; stroke: #b0b0b0; stroke-width: 0.8; stroke-linecap: square"/>
     </g>
     <g id="line2d_52">
      <g>
       <use xlink:href="#mf1ad365125" x="577.735625" y="301.303295" style="stroke: #000000; stroke-width: 0.8"/>
      </g>
     </g>
     <g id="text_30">
      <!-- 0.0 -->
      <g transform="translate(558.235625 304.718139) scale(0.1 -0.1)">
       <use xlink:href="#STIXGeneral-Regular-30"/>
       <use xlink:href="#STIXGeneral-Regular-2e" transform="translate(49.999985 0)"/>
       <use xlink:href="#STIXGeneral-Regular-30" transform="translate(74.999969 0)"/>
      </g>
     </g>
    </g>
    <g id="ytick_11">
     <g id="line2d_53">
      <path d="M 577.735625 261.324958 
L 1064.88 261.324958 
" clip-path="url(#p9747daa225)" style="fill: none; stroke: #b0b0b0; stroke-width: 0.8; stroke-linecap: square"/>
     </g>
     <g id="line2d_54">
      <g>
       <use xlink:href="#mf1ad365125" x="577.735625" y="261.324958" style="stroke: #000000; stroke-width: 0.8"/>
      </g>
     </g>
     <g id="text_31">
      <!-- 0.1 -->
      <g transform="translate(558.235625 264.739802) scale(0.1 -0.1)">
       <use xlink:href="#STIXGeneral-Regular-30"/>
       <use xlink:href="#STIXGeneral-Regular-2e" transform="translate(49.999985 0)"/>
       <use xlink:href="#STIXGeneral-Regular-31" transform="translate(74.999969 0)"/>
      </g>
     </g>
    </g>
    <g id="ytick_12">
     <g id="line2d_55">
      <path d="M 577.735625 221.34662 
L 1064.88 221.34662 
" clip-path="url(#p9747daa225)" style="fill: none; stroke: #b0b0b0; stroke-width: 0.8; stroke-linecap: square"/>
     </g>
     <g id="line2d_56">
      <g>
       <use xlink:href="#mf1ad365125" x="577.735625" y="221.34662" style="stroke: #000000; stroke-width: 0.8"/>
      </g>
     </g>
     <g id="text_32">
      <!-- 0.2 -->
      <g transform="translate(558.235625 224.761464) scale(0.1 -0.1)">
       <use xlink:href="#STIXGeneral-Regular-30"/>
       <use xlink:href="#STIXGeneral-Regular-2e" transform="translate(49.999985 0)"/>
       <use xlink:href="#STIXGeneral-Regular-32" transform="translate(74.999969 0)"/>
      </g>
     </g>
    </g>
    <g id="ytick_13">
     <g id="line2d_57">
      <path d="M 577.735625 181.368283 
L 1064.88 181.368283 
" clip-path="url(#p9747daa225)" style="fill: none; stroke: #b0b0b0; stroke-width: 0.8; stroke-linecap: square"/>
     </g>
     <g id="line2d_58">
      <g>
       <use xlink:href="#mf1ad365125" x="577.735625" y="181.368283" style="stroke: #000000; stroke-width: 0.8"/>
      </g>
     </g>
     <g id="text_33">
      <!-- 0.3 -->
      <g transform="translate(558.235625 184.783126) scale(0.1 -0.1)">
       <use xlink:href="#STIXGeneral-Regular-30"/>
       <use xlink:href="#STIXGeneral-Regular-2e" transform="translate(49.999985 0)"/>
       <use xlink:href="#STIXGeneral-Regular-33" transform="translate(74.999969 0)"/>
      </g>
     </g>
    </g>
    <g id="ytick_14">
     <g id="line2d_59">
      <path d="M 577.735625 141.389945 
L 1064.88 141.389945 
" clip-path="url(#p9747daa225)" style="fill: none; stroke: #b0b0b0; stroke-width: 0.8; stroke-linecap: square"/>
     </g>
     <g id="line2d_60">
      <g>
       <use xlink:href="#mf1ad365125" x="577.735625" y="141.389945" style="stroke: #000000; stroke-width: 0.8"/>
      </g>
     </g>
     <g id="text_34">
      <!-- 0.4 -->
      <g transform="translate(558.235625 144.804789) scale(0.1 -0.1)">
       <use xlink:href="#STIXGeneral-Regular-30"/>
       <use xlink:href="#STIXGeneral-Regular-2e" transform="translate(49.999985 0)"/>
       <use xlink:href="#STIXGeneral-Regular-34" transform="translate(74.999969 0)"/>
      </g>
     </g>
    </g>
    <g id="ytick_15">
     <g id="line2d_61">
      <path d="M 577.735625 101.411607 
L 1064.88 101.411607 
" clip-path="url(#p9747daa225)" style="fill: none; stroke: #b0b0b0; stroke-width: 0.8; stroke-linecap: square"/>
     </g>
     <g id="line2d_62">
      <g>
       <use xlink:href="#mf1ad365125" x="577.735625" y="101.411607" style="stroke: #000000; stroke-width: 0.8"/>
      </g>
     </g>
     <g id="text_35">
      <!-- 0.5 -->
      <g transform="translate(558.235625 104.826451) scale(0.1 -0.1)">
       <use xlink:href="#STIXGeneral-Regular-30"/>
       <use xlink:href="#STIXGeneral-Regular-2e" transform="translate(49.999985 0)"/>
       <use xlink:href="#STIXGeneral-Regular-35" transform="translate(74.999969 0)"/>
      </g>
     </g>
    </g>
    <g id="ytick_16">
     <g id="line2d_63">
      <path d="M 577.735625 61.43327 
L 1064.88 61.43327 
" clip-path="url(#p9747daa225)" style="fill: none; stroke: #b0b0b0; stroke-width: 0.8; stroke-linecap: square"/>
     </g>
     <g id="line2d_64">
      <g>
       <use xlink:href="#mf1ad365125" x="577.735625" y="61.43327" style="stroke: #000000; stroke-width: 0.8"/>
      </g>
     </g>
     <g id="text_36">
      <!-- 0.6 -->
      <g transform="translate(558.235625 64.848114) scale(0.1 -0.1)">
       <use xlink:href="#STIXGeneral-Regular-30"/>
       <use xlink:href="#STIXGeneral-Regular-2e" transform="translate(49.999985 0)"/>
       <use xlink:href="#STIXGeneral-Regular-36" transform="translate(74.999969 0)"/>
      </g>
     </g>
    </g>
    <g id="text_37">
     <!-- Wavefunction Magnitude -->
     <g transform="translate(552.055938 219.283906) rotate(-90) scale(0.1 -0.1)">
      <defs>
       <path id="STIXGeneral-Regular-4d" d="M 5530 0 
L 3738 0 
L 3738 122 
Q 4115 147 4214 265 
Q 4314 384 4314 787 
L 4314 3661 
L 2682 0 
L 2592 0 
L 979 3514 
L 979 966 
Q 979 448 1088 294 
Q 1197 141 1574 122 
L 1574 0 
L 77 0 
L 77 122 
Q 358 141 480 205 
Q 602 269 650 432 
Q 698 595 698 966 
L 698 3514 
Q 698 3878 589 3984 
Q 480 4090 90 4115 
L 90 4237 
L 1357 4237 
L 2835 1024 
L 4250 4237 
L 5523 4237 
L 5523 4115 
Q 5178 4109 5072 3993 
Q 4966 3878 4966 3520 
L 4966 717 
Q 4966 378 5072 262 
Q 5178 147 5530 122 
L 5530 0 
z
" transform="scale(0.015625)"/>
       <path id="STIXGeneral-Regular-64" d="M 3142 269 
L 2202 -64 
L 2176 -45 
L 2176 365 
Q 1869 -64 1357 -64 
Q 826 -64 499 317 
Q 173 698 173 1312 
Q 173 1990 563 2467 
Q 954 2944 1504 2944 
Q 1850 2944 2176 2669 
L 2176 3667 
Q 2176 3866 2118 3930 
Q 2061 3994 1882 3994 
Q 1792 3994 1741 3987 
L 1741 4090 
Q 2323 4243 2682 4371 
L 2714 4358 
L 2714 730 
Q 2714 506 2768 435 
Q 2822 365 2995 365 
Q 3034 365 3142 371 
L 3142 269 
z
M 2176 653 
L 2176 2125 
Q 2176 2381 1981 2573 
Q 1786 2765 1523 2765 
Q 1158 2765 940 2438 
Q 723 2112 723 1568 
Q 723 979 963 624 
Q 1203 269 1606 269 
Q 1907 269 2080 474 
Q 2176 582 2176 653 
z
" transform="scale(0.015625)"/>
      </defs>
      <use xlink:href="#STIXGeneral-Regular-57"/>
      <use xlink:href="#STIXGeneral-Regular-61" transform="translate(94.399994 0)"/>
      <use xlink:href="#STIXGeneral-Regular-76" transform="translate(138.799988 0)"/>
      <use xlink:href="#STIXGeneral-Regular-65" transform="translate(188.799973 0)"/>
      <use xlink:href="#STIXGeneral-Regular-66" transform="translate(233.199966 0)"/>
      <use xlink:href="#STIXGeneral-Regular-75" transform="translate(266.499954 0)"/>
      <use xlink:href="#STIXGeneral-Regular-6e" transform="translate(316.499939 0)"/>
      <use xlink:href="#STIXGeneral-Regular-63" transform="translate(366.499924 0)"/>
      <use xlink:href="#STIXGeneral-Regular-74" transform="translate(410.899918 0)"/>
      <use xlink:href="#STIXGeneral-Regular-69" transform="translate(438.699905 0)"/>
      <use xlink:href="#STIXGeneral-Regular-6f" transform="translate(466.499893 0)"/>
      <use xlink:href="#STIXGeneral-Regular-6e" transform="translate(516.499878 0)"/>
      <use xlink:href="#STIXGeneral-Regular-20" transform="translate(566.499863 0)"/>
      <use xlink:href="#STIXGeneral-Regular-4d" transform="translate(591.499847 0)"/>
      <use xlink:href="#STIXGeneral-Regular-61" transform="translate(680.399841 0)"/>
      <use xlink:href="#STIXGeneral-Regular-67" transform="translate(724.799835 0)"/>
      <use xlink:href="#STIXGeneral-Regular-6e" transform="translate(774.79982 0)"/>
      <use xlink:href="#STIXGeneral-Regular-69" transform="translate(824.799805 0)"/>
      <use xlink:href="#STIXGeneral-Regular-74" transform="translate(852.599792 0)"/>
      <use xlink:href="#STIXGeneral-Regular-75" transform="translate(880.39978 0)"/>
      <use xlink:href="#STIXGeneral-Regular-64" transform="translate(930.399765 0)"/>
      <use xlink:href="#STIXGeneral-Regular-65" transform="translate(980.39975 0)"/>
     </g>
    </g>
   </g>
   <g id="line2d_65">
    <path d="M 599.878551 301.303295 
L 600.321853 300.984498 
L 600.765155 300.029632 
L 601.208457 298.443266 
L 601.651758 296.232989 
L 602.538362 289.985941 
L 603.424966 281.4079 
L 604.311569 270.66284 
L 605.641475 250.941765 
L 606.97138 227.662333 
L 609.187889 183.720943 
L 612.734304 111.818556 
L 614.507511 80.947574 
L 615.837417 62.032671 
L 616.72402 51.908282 
L 617.610624 44.003827 
L 618.497228 38.470402 
L 618.94053 36.627712 
L 619.383831 35.413781 
L 619.827133 34.834416 
L 620.270435 34.89239 
L 620.713737 35.587426 
L 621.157039 36.916197 
L 621.600341 38.872348 
L 622.486944 44.626389 
L 623.373548 52.739561 
L 624.260151 63.056776 
L 625.590057 82.223161 
L 626.919962 105.073216 
L 628.69317 139.557286 
L 633.56949 237.196867 
L 634.899395 259.186228 
L 636.229301 277.26335 
L 637.115904 286.75015 
L 638.002508 293.96781 
L 638.889112 298.778365 
L 639.332414 300.250389 
L 639.775715 301.089857 
L 640.219017 301.292753 
L 640.662319 300.858104 
L 641.105621 299.787991 
L 641.548923 298.087534 
L 641.992224 295.764869 
L 642.878828 289.30029 
L 643.765432 280.517825 
L 644.652035 269.585354 
L 645.981941 249.622795 
L 647.311846 226.158495 
L 649.528355 182.055107 
L 653.07477 110.30326 
L 654.847977 79.685768 
L 656.177883 61.02534 
L 657.064487 51.09538 
L 657.95109 43.400892 
L 658.837694 38.088959 
L 659.280996 36.36002 
L 659.724297 35.261121 
L 660.167599 34.797519 
L 660.610901 34.971432 
L 661.054203 35.782029 
L 661.497505 37.22543 
L 661.940807 39.294731 
L 662.82741 45.268479 
L 663.714014 53.589083 
L 664.600618 64.097492 
L 665.930523 83.512328 
L 667.260428 106.555496 
L 669.033636 141.197036 
L 673.466654 230.641473 
L 674.796559 253.540147 
L 676.126465 272.768932 
L 677.013069 283.134101 
L 677.899672 291.299253 
L 678.786276 297.108309 
L 679.229578 299.092777 
L 679.67288 300.450227 
L 680.116181 301.174165 
L 680.559483 301.261126 
L 681.002785 300.710695 
L 681.446087 299.525505 
L 681.889389 297.711226 
L 682.775992 292.233095 
L 683.662596 284.381017 
L 684.5492 274.305087 
L 685.879105 255.453525 
L 687.209011 232.849946 
L 688.982218 198.570382 
L 693.858538 100.687084 
L 695.188443 78.437942 
L 696.518349 60.034943 
L 697.404953 50.300981 
L 698.291556 42.817678 
L 699.17816 37.728078 
L 699.621462 36.113164 
L 700.064763 35.129471 
L 700.508065 34.781705 
L 700.951367 35.07153 
L 701.394669 35.997559 
L 701.837971 37.555362 
L 702.281273 39.737486 
L 703.167876 45.929995 
L 704.05448 54.456715 
L 704.941084 65.154655 
L 706.270989 84.814869 
L 707.600895 108.047506 
L 709.817404 151.947308 
L 713.363818 223.885554 
L 715.137026 254.819148 
L 716.466931 273.797205 
L 717.353535 283.969953 
L 718.240138 291.926706 
L 719.126742 297.51537 
L 719.570044 299.386454 
L 720.013346 300.629115 
L 720.456647 301.237407 
L 720.899949 301.208421 
L 721.343251 300.542294 
L 721.786553 299.242214 
L 722.229855 297.314401 
L 723.116458 291.61543 
L 724.003062 283.55432 
L 724.889666 273.285161 
L 726.219571 254.181364 
L 727.549477 231.380156 
L 729.322684 196.936307 
L 734.199004 99.246049 
L 735.528909 77.204293 
L 736.858815 59.061634 
L 737.745419 49.525212 
L 738.632022 42.254277 
L 739.518626 37.387816 
L 739.961928 35.887182 
L 740.40523 35.018851 
L 740.848531 34.786976 
L 741.291833 35.192667 
L 741.735135 36.233982 
L 742.178437 37.905941 
L 742.621739 40.200542 
L 743.508342 46.610832 
L 744.394946 55.342319 
L 745.28155 66.228097 
L 746.611455 86.130579 
L 747.941361 109.549008 
L 750.15787 153.612548 
L 753.704284 225.403096 
L 755.477492 256.084418 
L 756.807397 274.808744 
L 757.694001 284.787461 
L 758.580604 292.534558 
L 759.467208 297.901945 
L 759.91051 299.659348 
L 760.353812 300.787023 
L 760.797113 301.279574 
L 761.240415 301.134644 
L 761.683717 300.352927 
L 762.127019 298.938163 
L 762.570321 296.897121 
L 763.456924 290.978213 
L 764.343528 282.709346 
L 765.230132 272.248582 
L 766.560037 252.895574 
L 767.889943 229.900344 
L 769.66315 195.29766 
L 774.096168 105.81314 
L 775.426074 82.866073 
L 776.755979 63.575078 
L 777.642583 53.162058 
L 778.529186 44.945006 
L 779.41579 39.080993 
L 779.859092 37.068227 
L 780.302394 35.682111 
L 780.745696 34.929279 
L 781.188997 34.813332 
L 781.632299 35.334824 
L 782.075601 36.491261 
L 782.518903 38.27711 
L 783.405507 43.699894 
L 784.29211 51.499517 
L 785.178714 61.526889 
L 786.508619 80.314923 
L 787.838525 102.868534 
L 789.611732 137.106176 
L 794.488052 235.035316 
L 795.817958 257.335758 
L 797.147863 275.80339 
L 798.034467 285.586498 
L 798.92107 293.122711 
L 799.807674 298.267972 
L 800.250976 299.911418 
L 800.694278 300.923928 
L 801.137579 301.30066 
L 801.580881 301.03981 
L 802.024183 300.142626 
L 802.467485 298.613401 
L 802.910787 296.459452 
L 803.79739 290.321544 
L 804.683994 281.846229 
L 805.570598 271.195516 
L 806.900503 251.596357 
L 808.230409 228.410745 
L 810.446918 184.552965 
L 813.993332 112.57957 
L 815.76654 81.583671 
L 817.096445 62.542647 
L 817.983049 52.321641 
L 818.869652 44.312668 
L 819.756256 38.66882 
L 820.199558 36.769361 
L 820.64286 35.497983 
L 821.086162 34.860769 
L 821.529463 34.860768 
L 821.972765 35.49798 
L 822.416067 36.769355 
L 822.859369 38.668812 
L 823.745973 44.312655 
L 824.632576 52.321624 
L 825.51918 62.542626 
L 826.849085 81.583645 
L 828.178991 104.335782 
L 829.952198 138.739068 
L 834.828518 236.479038 
L 836.158424 258.572969 
L 837.488329 276.780985 
L 838.374933 286.366936 
L 839.261536 293.691073 
L 840.14814 298.613394 
L 840.591442 300.142621 
L 841.034744 301.039807 
L 841.478046 301.30066 
L 841.921347 300.923931 
L 842.364649 299.911423 
L 842.807951 298.26798 
L 843.251253 296.001465 
L 844.137856 289.645527 
L 845.02446 280.965105 
L 845.911064 270.126127 
L 847.240969 250.28392 
L 848.570875 226.911594 
L 850.787384 182.888336 
L 854.333798 111.059797 
L 856.107006 80.314949 
L 857.436911 61.52691 
L 858.323515 51.499534 
L 859.210118 43.699906 
L 860.096722 38.277118 
L 860.540024 36.491267 
L 860.983326 35.334828 
L 861.426628 34.813333 
L 861.869929 34.929278 
L 862.313231 35.682107 
L 862.756533 37.06822 
L 863.199835 39.080984 
L 864.086439 44.944993 
L 864.973042 53.162041 
L 865.859646 63.575057 
L 867.189551 82.866047 
L 868.519457 105.81311 
L 870.292664 140.376597 
L 874.725682 229.900313 
L 876.055588 252.895547 
L 877.385493 272.248561 
L 878.272097 282.709329 
L 879.158701 290.9782 
L 880.045304 296.897112 
L 880.488606 298.938157 
L 880.931908 300.352923 
L 881.37521 301.134643 
L 881.818512 301.279575 
L 882.261813 300.787026 
L 882.705115 299.659354 
L 883.148417 297.901953 
L 883.591719 295.523231 
L 884.478322 288.950269 
L 885.364926 280.066113 
L 886.25153 269.040586 
L 887.581435 248.95847 
L 888.911341 225.403128 
L 891.12785 181.221359 
L 894.674264 109.549039 
L 896.00417 86.130606 
L 897.334075 66.22812 
L 898.220679 55.342338 
L 899.107283 46.610847 
L 899.993886 40.200552 
L 900.437188 37.905948 
L 900.88049 36.233988 
L 901.323792 35.19267 
L 901.767094 34.786976 
L 902.210395 35.018849 
L 902.653697 35.887178 
L 903.096999 37.387809 
L 903.540301 39.513562 
L 904.426905 45.596808 
L 905.313508 54.020635 
L 906.200112 64.624017 
L 907.530017 84.161926 
L 908.859923 107.300284 
L 911.076432 151.115609 
L 914.622847 223.123439 
L 916.396054 254.181338 
L 917.725959 273.285139 
L 918.612563 283.554303 
L 919.499167 291.615417 
L 920.38577 297.314392 
L 920.829072 299.242207 
L 921.272374 300.54229 
L 921.715676 301.208419 
L 922.158978 301.237408 
L 922.602279 300.629118 
L 923.045581 299.38646 
L 923.488883 297.515378 
L 924.375487 291.926719 
L 925.26209 283.96997 
L 926.148694 273.797226 
L 927.478599 254.819174 
L 928.808505 232.116333 
L 930.581712 197.753949 
L 935.458032 99.965235 
L 936.787938 77.819346 
L 938.117843 59.546153 
L 939.004447 49.910768 
L 939.891051 42.533501 
L 940.777654 37.555369 
L 941.220956 35.997564 
L 941.664258 35.071532 
L 942.10756 34.781705 
L 942.550862 35.129468 
L 942.994163 36.113159 
L 943.437465 37.72807 
L 943.880767 39.966476 
L 944.767371 46.267998 
L 945.653974 54.89727 
L 946.540578 65.68934 
L 947.870483 85.471077 
L 949.200389 108.797069 
L 951.416898 152.779609 
L 954.963313 224.645429 
L 956.73652 255.453499 
L 958.066425 274.305066 
L 958.953029 284.381 
L 959.839633 292.233082 
L 960.726236 297.711218 
L 961.169538 299.525499 
L 961.61284 300.710691 
L 962.056142 301.261125 
L 962.499444 301.174166 
L 962.942745 300.450231 
L 963.386047 299.092783 
L 963.829349 297.108318 
L 964.715953 291.299266 
L 965.602556 283.134118 
L 966.48916 272.768953 
L 967.819066 253.540173 
L 969.148971 230.641503 
L 970.922178 196.117555 
L 975.798498 98.529614 
L 977.128404 76.592859 
L 978.458309 58.581447 
L 979.344913 49.14436 
L 980.231517 41.980041 
L 981.11812 37.225437 
L 981.561422 35.782033 
L 982.004724 34.971434 
L 982.448026 34.797518 
L 982.891328 35.261118 
L 983.334629 36.360015 
L 983.777931 38.088951 
L 984.221233 40.439655 
L 985.107837 46.958456 
L 985.99444 55.791808 
L 986.881044 66.770859 
L 988.210949 86.793293 
L 989.540855 110.303229 
L 991.757364 154.446024 
L 995.303779 226.158463 
L 996.633684 249.622767 
L 997.96359 269.585331 
L 998.850193 280.517806 
L 999.736797 289.300275 
L 1000.623401 295.764859 
L 1001.066702 298.087527 
L 1001.510004 299.787986 
L 1001.953306 300.858101 
L 1002.396608 301.292752 
L 1002.83991 301.089859 
L 1003.283211 300.250394 
L 1003.726513 298.778371 
L 1004.169815 296.680835 
L 1005.056419 290.65231 
L 1005.943022 282.280056 
L 1006.829626 271.72411 
L 1008.159532 252.247644 
L 1009.489437 229.156769 
L 1011.262644 194.47672 
L 1015.695663 105.073246 
L 1017.025568 82.223188 
L 1018.355474 63.056797 
L 1019.242077 52.739578 
L 1020.128681 44.626402 
L 1021.015284 38.872356 
L 1021.458586 36.916204 
L 1021.901888 35.58743 
L 1022.34519 34.892391 
L 1022.788492 34.834415 
L 1023.231794 35.413777 
L 1023.675095 36.627706 
L 1024.118397 38.470394 
L 1025.005001 44.003815 
L 1025.891605 51.908265 
L 1026.778208 62.03265 
L 1028.108114 80.947548 
L 1029.438019 103.600868 
L 1031.211226 137.92201 
L 1036.087546 235.758501 
L 1037.417452 257.956129 
L 1038.747357 276.294319 
L 1039.633961 285.979042 
L 1040.520565 293.409366 
L 1041.407168 298.443259 
L 1041.85047 300.029628 
L 1042.293772 300.984496 
L 1042.737074 301.303295 
L 1042.737074 301.303295 
" clip-path="url(#p9747daa225)" style="fill: none; stroke: #800080; stroke-width: 1.5; stroke-linecap: square"/>
   </g>
   <g id="patch_9">
    <path d="M 577.735625 314.629375 
L 577.735625 21.455625 
" style="fill: none; stroke: #000000; stroke-width: 0.8; stroke-linejoin: miter; stroke-linecap: square"/>
   </g>
   <g id="patch_10">
    <path d="M 1064.88 314.629375 
L 1064.88 21.455625 
" style="fill: none; stroke: #000000; stroke-width: 0.8; stroke-linejoin: miter; stroke-linecap: square"/>
   </g>
   <g id="patch_11">
    <path d="M 577.735625 314.629375 
L 1064.88 314.629375 
" style="fill: none; stroke: #000000; stroke-width: 0.8; stroke-linejoin: miter; stroke-linecap: square"/>
   </g>
   <g id="patch_12">
    <path d="M 577.735625 21.455625 
L 1064.88 21.455625 
" style="fill: none; stroke: #000000; stroke-width: 0.8; stroke-linejoin: miter; stroke-linecap: square"/>
   </g>
   <g id="text_38">
    <!-- Wavefunction for Energy = 66.34567352973362 eV -->
    <g transform="translate(694.886875 15.455625) scale(0.12 -0.12)">
     <use xlink:href="#STIXGeneral-Regular-57"/>
     <use xlink:href="#STIXGeneral-Regular-61" transform="translate(94.399994 0)"/>
     <use xlink:href="#STIXGeneral-Regular-76" transform="translate(138.799988 0)"/>
     <use xlink:href="#STIXGeneral-Regular-65" transform="translate(188.799973 0)"/>
     <use xlink:href="#STIXGeneral-Regular-66" transform="translate(233.199966 0)"/>
     <use xlink:href="#STIXGeneral-Regular-75" transform="translate(266.499954 0)"/>
     <use xlink:href="#STIXGeneral-Regular-6e" transform="translate(316.499939 0)"/>
     <use xlink:href="#STIXGeneral-Regular-63" transform="translate(366.499924 0)"/>
     <use xlink:href="#STIXGeneral-Regular-74" transform="translate(410.899918 0)"/>
     <use xlink:href="#STIXGeneral-Regular-69" transform="translate(438.699905 0)"/>
     <use xlink:href="#STIXGeneral-Regular-6f" transform="translate(466.499893 0)"/>
     <use xlink:href="#STIXGeneral-Regular-6e" transform="translate(516.499878 0)"/>
     <use xlink:href="#STIXGeneral-Regular-20" transform="translate(566.499863 0)"/>
     <use xlink:href="#STIXGeneral-Regular-66" transform="translate(591.499847 0)"/>
     <use xlink:href="#STIXGeneral-Regular-6f" transform="translate(624.799835 0)"/>
     <use xlink:href="#STIXGeneral-Regular-72" transform="translate(674.79982 0)"/>
     <use xlink:href="#STIXGeneral-Regular-20" transform="translate(708.099808 0)"/>
     <use xlink:href="#STIXGeneral-Regular-45" transform="translate(733.099792 0)"/>
     <use xlink:href="#STIXGeneral-Regular-6e" transform="translate(794.199783 0)"/>
     <use xlink:href="#STIXGeneral-Regular-65" transform="translate(844.199768 0)"/>
     <use xlink:href="#STIXGeneral-Regular-72" transform="translate(888.599762 0)"/>
     <use xlink:href="#STIXGeneral-Regular-67" transform="translate(921.89975 0)"/>
     <use xlink:href="#STIXGeneral-Regular-79" transform="translate(971.899734 0)"/>
     <use xlink:href="#STIXGeneral-Regular-20" transform="translate(1021.899719 0)"/>
     <use xlink:href="#STIXGeneral-Regular-3d" transform="translate(1046.899704 0)"/>
     <use xlink:href="#STIXGeneral-Regular-20" transform="translate(1115.399689 0)"/>
     <use xlink:href="#STIXGeneral-Regular-36" transform="translate(1140.399673 0)"/>
     <use xlink:href="#STIXGeneral-Regular-36" transform="translate(1190.399658 0)"/>
     <use xlink:href="#STIXGeneral-Regular-2e" transform="translate(1240.399643 0)"/>
     <use xlink:href="#STIXGeneral-Regular-33" transform="translate(1265.399628 0)"/>
     <use xlink:href="#STIXGeneral-Regular-34" transform="translate(1315.399612 0)"/>
     <use xlink:href="#STIXGeneral-Regular-35" transform="translate(1365.399597 0)"/>
     <use xlink:href="#STIXGeneral-Regular-36" transform="translate(1415.399582 0)"/>
     <use xlink:href="#STIXGeneral-Regular-37" transform="translate(1465.399567 0)"/>
     <use xlink:href="#STIXGeneral-Regular-33" transform="translate(1515.399551 0)"/>
     <use xlink:href="#STIXGeneral-Regular-35" transform="translate(1565.399536 0)"/>
     <use xlink:href="#STIXGeneral-Regular-32" transform="translate(1615.399521 0)"/>
     <use xlink:href="#STIXGeneral-Regular-39" transform="translate(1665.399506 0)"/>
     <use xlink:href="#STIXGeneral-Regular-37" transform="translate(1715.39949 0)"/>
     <use xlink:href="#STIXGeneral-Regular-33" transform="translate(1765.399475 0)"/>
     <use xlink:href="#STIXGeneral-Regular-33" transform="translate(1815.39946 0)"/>
     <use xlink:href="#STIXGeneral-Regular-36" transform="translate(1865.399445 0)"/>
     <use xlink:href="#STIXGeneral-Regular-32" transform="translate(1915.399429 0)"/>
     <use xlink:href="#STIXGeneral-Regular-20" transform="translate(1965.399414 0)"/>
     <use xlink:href="#STIXGeneral-Regular-65" transform="translate(1990.399399 0)"/>
     <use xlink:href="#STIXGeneral-Regular-56" transform="translate(2034.799393 0)"/>
    </g>
   </g>
   <g id="legend_2">
    <g id="patch_13">
     <path d="M 1002.76125 176.627656 
L 1057.88 176.627656 
Q 1059.88 176.627656 1059.88 174.627656 
L 1059.88 161.457344 
Q 1059.88 159.457344 1057.88 159.457344 
L 1002.76125 159.457344 
Q 1000.76125 159.457344 1000.76125 161.457344 
L 1000.76125 174.627656 
Q 1000.76125 176.627656 1002.76125 176.627656 
z
" style="fill: #ffffff; opacity: 0.8; stroke: #cccccc; stroke-linejoin: miter"/>
    </g>
    <g id="line2d_66">
     <path d="M 1004.76125 166.957344 
L 1014.76125 166.957344 
L 1024.76125 166.957344 
" style="fill: none; stroke: #800080; stroke-width: 1.5; stroke-linecap: square"/>
    </g>
    <g id="text_39">
     <!-- |Ψ(x)| -->
     <g transform="translate(1032.76125 170.457344) scale(0.1 -0.1)">
      <defs>
       <path id="STIXGeneral-Regular-7c" d="M 851 -90 
L 429 -90 
L 429 4326 
L 851 4326 
L 851 -90 
z
" transform="scale(0.015625)"/>
       <path id="STIXGeneral-Regular-3a8" d="M 4634 4416 
L 4634 4294 
Q 4467 4262 4400 4054 
Q 4333 3846 4333 3629 
Q 4333 3533 4345 3341 
Q 4358 3149 4358 3053 
Q 4358 2598 4118 2291 
Q 3878 1984 3520 1856 
Q 3162 1728 2714 1728 
L 2714 710 
Q 2714 339 2851 236 
Q 2989 134 3373 122 
L 3373 0 
L 1414 0 
L 1414 122 
Q 1830 141 1945 259 
Q 2061 378 2061 794 
L 2061 1728 
Q 1613 1728 1254 1856 
Q 896 1984 656 2291 
Q 416 2598 416 3053 
Q 416 3149 429 3341 
Q 442 3533 442 3629 
Q 442 3846 374 4054 
Q 307 4262 141 4294 
L 141 4416 
Q 1133 4416 1133 3258 
Q 1133 3046 1145 2886 
Q 1158 2726 1212 2544 
Q 1267 2362 1353 2243 
Q 1440 2125 1603 2045 
Q 1766 1965 1990 1965 
L 2061 1965 
L 2061 3597 
Q 2061 3910 1904 4012 
Q 1747 4115 1414 4115 
L 1414 4237 
L 3373 4237 
L 3373 4115 
Q 3027 4115 2870 4019 
Q 2714 3923 2714 3597 
L 2714 1965 
L 2784 1965 
Q 3008 1965 3171 2045 
Q 3334 2125 3420 2243 
Q 3507 2362 3561 2544 
Q 3616 2726 3629 2886 
Q 3642 3046 3642 3258 
Q 3642 4416 4634 4416 
z
" transform="scale(0.015625)"/>
       <path id="STIXGeneral-Regular-28" d="M 1946 -1030 
L 1869 -1133 
Q 1126 -710 716 32 
Q 307 774 307 1613 
Q 307 3386 1888 4326 
L 1946 4224 
Q 1293 3667 1075 3126 
Q 858 2586 858 1632 
Q 858 685 1082 96 
Q 1306 -493 1946 -1030 
z
" transform="scale(0.015625)"/>
       <path id="STIXGeneral-Regular-29" d="M 186 4224 
L 262 4326 
Q 992 3891 1408 3148 
Q 1824 2406 1824 1581 
Q 1824 -166 243 -1133 
L 186 -1030 
Q 845 -486 1059 54 
Q 1274 595 1274 1562 
Q 1274 2534 1059 3120 
Q 845 3706 186 4224 
z
" transform="scale(0.015625)"/>
      </defs>
      <use xlink:href="#STIXGeneral-Regular-7c"/>
      <use xlink:href="#STIXGeneral-Regular-3a8" transform="translate(19.999985 0)"/>
      <use xlink:href="#STIXGeneral-Regular-28" transform="translate(94.599976 0)"/>
      <use xlink:href="#STIXGeneral-Regular-78" transform="translate(127.899963 0)"/>
      <use xlink:href="#STIXGeneral-Regular-29" transform="translate(177.899948 0)"/>
      <use xlink:href="#STIXGeneral-Regular-7c" transform="translate(211.199936 0)"/>
     </g>
    </g>
   </g>
  </g>
 </g>
 <defs>
  <clipPath id="p9df9ddd721">
   <rect x="46.55" y="21.455625" width="487.144375" height="293.17375"/>
  </clipPath>
  <clipPath id="p9747daa225">
   <rect x="577.735625" y="21.455625" width="487.144375" height="293.17375"/>
  </clipPath>
 </defs>
</svg>
