<?xml version="1.0" encoding="utf-8" standalone="no"?>
<!DOCTYPE svg PUBLIC "-//W3C//DTD SVG 1.1//EN"
  "http://www.w3.org/Graphics/SVG/1.1/DTD/svg11.dtd">
<svg xmlns:xlink="http://www.w3.org/1999/xlink" width="1072.08pt" height="350.829375pt" viewBox="0 0 1072.08 350.829375" xmlns="http://www.w3.org/2000/svg" version="1.1">
 <metadata>
  <rdf:RDF xmlns:dc="http://purl.org/dc/elements/1.1/" xmlns:cc="http://creativecommons.org/ns#" xmlns:rdf="http://www.w3.org/1999/02/22-rdf-syntax-ns#">
   <cc:Work>
    <dc:type rdf:resource="http://purl.org/dc/dcmitype/StillImage"/>
    <dc:date>2025-08-25T03:26:40.914942</dc:date>
    <dc:format>image/svg+xml</dc:format>
    <dc:creator>
     <cc:Agent>
      <dc:title>Matplotlib v3.10.5, https://matplotlib.org/</dc:title>
     </cc:Agent>
    </dc:creator>
   </cc:Work>
  </rdf:RDF>
 </metadata>
 <defs>
  <style type="text/css">*{stroke-linejoin: round; stroke-linecap: butt}</style>
 </defs>
 <g id="figure_1">
  <g id="patch_1">
   <path d="M 0 350.829375 
L 1072.08 350.829375 
L 1072.08 0 
L 0 0 
z
" style="fill: #ffffff"/>
  </g>
  <g id="axes_1">
   <g id="patch_2">
    <path d="M 46.55 314.629375 
L 531.174375 314.629375 
L 531.174375 21.455625 
L 46.55 21.455625 
z
" style="fill: #ffffff"/>
   </g>
   <g id="matplotlib.axis_1">
    <g id="xtick_1">
     <g id="line2d_1">
      <path d="M 68.578381 314.629375 
L 68.578381 21.455625 
" clip-path="url(#pf05fe41e0e)" style="fill: none; stroke: #b0b0b0; stroke-width: 0.8; stroke-linecap: square"/>
     </g>
     <g id="line2d_2">
      <defs>
       <path id="m2a3f7c1dd9" d="M 0 0 
L 0 3.5 
" style="stroke: #000000; stroke-width: 0.8"/>
      </defs>
      <g>
       <use xlink:href="#m2a3f7c1dd9" x="68.578381" y="314.629375" style="stroke: #000000; stroke-width: 0.8"/>
      </g>
     </g>
     <g id="text_1">
      <!-- −10.0 -->
      <g transform="translate(56.403381 328.459062) scale(0.1 -0.1)">
       <defs>
        <path id="STIXGeneral-Regular-2212" d="M 3974 1408 
L 410 1408 
L 410 1830 
L 3974 1830 
L 3974 1408 
z
" transform="scale(0.015625)"/>
        <path id="STIXGeneral-Regular-31" d="M 2522 0 
L 755 0 
L 755 96 
Q 1107 115 1235 227 
Q 1363 339 1363 608 
L 1363 3482 
Q 1363 3795 1171 3795 
Q 1082 3795 883 3718 
L 710 3654 
L 710 3744 
L 1856 4326 
L 1914 4307 
L 1914 486 
Q 1914 275 2042 185 
Q 2170 96 2522 96 
L 2522 0 
z
" transform="scale(0.015625)"/>
        <path id="STIXGeneral-Regular-30" d="M 3046 2112 
Q 3046 1683 2963 1302 
Q 2880 922 2717 602 
Q 2554 282 2266 96 
Q 1978 -90 1600 -90 
Q 1210 -90 915 108 
Q 621 307 461 640 
Q 301 973 227 1350 
Q 154 1728 154 2150 
Q 154 2746 301 3222 
Q 448 3699 790 4012 
Q 1133 4326 1626 4326 
Q 2253 4326 2649 3712 
Q 3046 3098 3046 2112 
z
M 2432 2080 
Q 2432 3091 2217 3625 
Q 2003 4160 1587 4160 
Q 1190 4160 979 3622 
Q 768 3085 768 2106 
Q 768 1120 979 598 
Q 1190 77 1600 77 
Q 2003 77 2217 598 
Q 2432 1120 2432 2080 
z
" transform="scale(0.015625)"/>
        <path id="STIXGeneral-Regular-2e" d="M 1158 275 
Q 1158 134 1052 32 
Q 947 -70 800 -70 
Q 653 -70 550 32 
Q 448 134 448 281 
Q 448 429 553 534 
Q 659 640 806 640 
Q 947 640 1052 531 
Q 1158 422 1158 275 
z
" transform="scale(0.015625)"/>
       </defs>
       <use xlink:href="#STIXGeneral-Regular-2212"/>
       <use xlink:href="#STIXGeneral-Regular-31" transform="translate(68.499985 0)"/>
       <use xlink:href="#STIXGeneral-Regular-30" transform="translate(118.499969 0)"/>
       <use xlink:href="#STIXGeneral-Regular-2e" transform="translate(168.499954 0)"/>
       <use xlink:href="#STIXGeneral-Regular-30" transform="translate(193.499939 0)"/>
      </g>
     </g>
    </g>
    <g id="xtick_2">
     <g id="line2d_3">
      <path d="M 123.649332 314.629375 
L 123.649332 21.455625 
" clip-path="url(#pf05fe41e0e)" style="fill: none; stroke: #b0b0b0; stroke-width: 0.8; stroke-linecap: square"/>
     </g>
     <g id="line2d_4">
      <g>
       <use xlink:href="#m2a3f7c1dd9" x="123.649332" y="314.629375" style="stroke: #000000; stroke-width: 0.8"/>
      </g>
     </g>
     <g id="text_2">
      <!-- −7.5 -->
      <g transform="translate(113.974332 328.459062) scale(0.1 -0.1)">
       <defs>
        <path id="STIXGeneral-Regular-37" d="M 2874 4134 
L 1517 -51 
L 1101 -51 
L 2368 3763 
L 992 3763 
Q 717 3763 582 3667 
Q 448 3571 243 3238 
L 128 3296 
L 512 4237 
L 2874 4237 
L 2874 4134 
z
" transform="scale(0.015625)"/>
        <path id="STIXGeneral-Regular-35" d="M 2803 4358 
L 2573 3814 
Q 2534 3731 2400 3731 
L 1158 3731 
L 902 3187 
Q 1606 3053 1920 2896 
Q 2234 2739 2502 2368 
Q 2726 2061 2726 1555 
Q 2726 1094 2576 780 
Q 2426 467 2099 224 
Q 1664 -90 1011 -90 
Q 646 -90 422 19 
Q 198 128 198 307 
Q 198 550 486 550 
Q 717 550 960 352 
Q 1210 147 1414 147 
Q 1747 147 2012 480 
Q 2278 813 2278 1229 
Q 2278 1843 1850 2189 
Q 1293 2637 486 2637 
Q 410 2637 410 2688 
L 416 2720 
L 1114 4237 
L 2438 4237 
Q 2547 4237 2608 4269 
Q 2669 4301 2746 4403 
L 2803 4358 
z
" transform="scale(0.015625)"/>
       </defs>
       <use xlink:href="#STIXGeneral-Regular-2212"/>
       <use xlink:href="#STIXGeneral-Regular-37" transform="translate(68.499985 0)"/>
       <use xlink:href="#STIXGeneral-Regular-2e" transform="translate(118.499969 0)"/>
       <use xlink:href="#STIXGeneral-Regular-35" transform="translate(143.499954 0)"/>
      </g>
     </g>
    </g>
    <g id="xtick_3">
     <g id="line2d_5">
      <path d="M 178.720284 314.629375 
L 178.720284 21.455625 
" clip-path="url(#pf05fe41e0e)" style="fill: none; stroke: #b0b0b0; stroke-width: 0.8; stroke-linecap: square"/>
     </g>
     <g id="line2d_6">
      <g>
       <use xlink:href="#m2a3f7c1dd9" x="178.720284" y="314.629375" style="stroke: #000000; stroke-width: 0.8"/>
      </g>
     </g>
     <g id="text_3">
      <!-- −5.0 -->
      <g transform="translate(169.045284 328.459062) scale(0.1 -0.1)">
       <use xlink:href="#STIXGeneral-Regular-2212"/>
       <use xlink:href="#STIXGeneral-Regular-35" transform="translate(68.499985 0)"/>
       <use xlink:href="#STIXGeneral-Regular-2e" transform="translate(118.499969 0)"/>
       <use xlink:href="#STIXGeneral-Regular-30" transform="translate(143.499954 0)"/>
      </g>
     </g>
    </g>
    <g id="xtick_4">
     <g id="line2d_7">
      <path d="M 233.791236 314.629375 
L 233.791236 21.455625 
" clip-path="url(#pf05fe41e0e)" style="fill: none; stroke: #b0b0b0; stroke-width: 0.8; stroke-linecap: square"/>
     </g>
     <g id="line2d_8">
      <g>
       <use xlink:href="#m2a3f7c1dd9" x="233.791236" y="314.629375" style="stroke: #000000; stroke-width: 0.8"/>
      </g>
     </g>
     <g id="text_4">
      <!-- −2.5 -->
      <g transform="translate(224.116236 328.459062) scale(0.1 -0.1)">
       <defs>
        <path id="STIXGeneral-Regular-32" d="M 3034 877 
L 2688 0 
L 186 0 
L 186 77 
L 1325 1286 
Q 1773 1754 1965 2144 
Q 2157 2534 2157 2950 
Q 2157 3379 1920 3616 
Q 1683 3853 1267 3853 
Q 922 3853 720 3673 
Q 518 3494 326 3021 
L 192 3053 
Q 301 3648 630 3987 
Q 960 4326 1523 4326 
Q 2054 4326 2380 4006 
Q 2707 3686 2707 3200 
Q 2707 2477 1888 1613 
L 832 486 
L 2330 486 
Q 2541 486 2665 569 
Q 2790 653 2944 915 
L 3034 877 
z
" transform="scale(0.015625)"/>
       </defs>
       <use xlink:href="#STIXGeneral-Regular-2212"/>
       <use xlink:href="#STIXGeneral-Regular-32" transform="translate(68.499985 0)"/>
       <use xlink:href="#STIXGeneral-Regular-2e" transform="translate(118.499969 0)"/>
       <use xlink:href="#STIXGeneral-Regular-35" transform="translate(143.499954 0)"/>
      </g>
     </g>
    </g>
    <g id="xtick_5">
     <g id="line2d_9">
      <path d="M 288.862188 314.629375 
L 288.862188 21.455625 
" clip-path="url(#pf05fe41e0e)" style="fill: none; stroke: #b0b0b0; stroke-width: 0.8; stroke-linecap: square"/>
     </g>
     <g id="line2d_10">
      <g>
       <use xlink:href="#m2a3f7c1dd9" x="288.862188" y="314.629375" style="stroke: #000000; stroke-width: 0.8"/>
      </g>
     </g>
     <g id="text_5">
      <!-- 0.0 -->
      <g transform="translate(282.612188 328.459062) scale(0.1 -0.1)">
       <use xlink:href="#STIXGeneral-Regular-30"/>
       <use xlink:href="#STIXGeneral-Regular-2e" transform="translate(49.999985 0)"/>
       <use xlink:href="#STIXGeneral-Regular-30" transform="translate(74.999969 0)"/>
      </g>
     </g>
    </g>
    <g id="xtick_6">
     <g id="line2d_11">
      <path d="M 343.933139 314.629375 
L 343.933139 21.455625 
" clip-path="url(#pf05fe41e0e)" style="fill: none; stroke: #b0b0b0; stroke-width: 0.8; stroke-linecap: square"/>
     </g>
     <g id="line2d_12">
      <g>
       <use xlink:href="#m2a3f7c1dd9" x="343.933139" y="314.629375" style="stroke: #000000; stroke-width: 0.8"/>
      </g>
     </g>
     <g id="text_6">
      <!-- 2.5 -->
      <g transform="translate(337.683139 328.459062) scale(0.1 -0.1)">
       <use xlink:href="#STIXGeneral-Regular-32"/>
       <use xlink:href="#STIXGeneral-Regular-2e" transform="translate(49.999985 0)"/>
       <use xlink:href="#STIXGeneral-Regular-35" transform="translate(74.999969 0)"/>
      </g>
     </g>
    </g>
    <g id="xtick_7">
     <g id="line2d_13">
      <path d="M 399.004091 314.629375 
L 399.004091 21.455625 
" clip-path="url(#pf05fe41e0e)" style="fill: none; stroke: #b0b0b0; stroke-width: 0.8; stroke-linecap: square"/>
     </g>
     <g id="line2d_14">
      <g>
       <use xlink:href="#m2a3f7c1dd9" x="399.004091" y="314.629375" style="stroke: #000000; stroke-width: 0.8"/>
      </g>
     </g>
     <g id="text_7">
      <!-- 5.0 -->
      <g transform="translate(392.754091 328.459062) scale(0.1 -0.1)">
       <use xlink:href="#STIXGeneral-Regular-35"/>
       <use xlink:href="#STIXGeneral-Regular-2e" transform="translate(49.999985 0)"/>
       <use xlink:href="#STIXGeneral-Regular-30" transform="translate(74.999969 0)"/>
      </g>
     </g>
    </g>
    <g id="xtick_8">
     <g id="line2d_15">
      <path d="M 454.075043 314.629375 
L 454.075043 21.455625 
" clip-path="url(#pf05fe41e0e)" style="fill: none; stroke: #b0b0b0; stroke-width: 0.8; stroke-linecap: square"/>
     </g>
     <g id="line2d_16">
      <g>
       <use xlink:href="#m2a3f7c1dd9" x="454.075043" y="314.629375" style="stroke: #000000; stroke-width: 0.8"/>
      </g>
     </g>
     <g id="text_8">
      <!-- 7.5 -->
      <g transform="translate(447.825043 328.459062) scale(0.1 -0.1)">
       <use xlink:href="#STIXGeneral-Regular-37"/>
       <use xlink:href="#STIXGeneral-Regular-2e" transform="translate(49.999985 0)"/>
       <use xlink:href="#STIXGeneral-Regular-35" transform="translate(74.999969 0)"/>
      </g>
     </g>
    </g>
    <g id="xtick_9">
     <g id="line2d_17">
      <path d="M 509.145994 314.629375 
L 509.145994 21.455625 
" clip-path="url(#pf05fe41e0e)" style="fill: none; stroke: #b0b0b0; stroke-width: 0.8; stroke-linecap: square"/>
     </g>
     <g id="line2d_18">
      <g>
       <use xlink:href="#m2a3f7c1dd9" x="509.145994" y="314.629375" style="stroke: #000000; stroke-width: 0.8"/>
      </g>
     </g>
     <g id="text_9">
      <!-- 10.0 -->
      <g transform="translate(500.395994 328.459062) scale(0.1 -0.1)">
       <use xlink:href="#STIXGeneral-Regular-31"/>
       <use xlink:href="#STIXGeneral-Regular-30" transform="translate(49.999985 0)"/>
       <use xlink:href="#STIXGeneral-Regular-2e" transform="translate(99.999969 0)"/>
       <use xlink:href="#STIXGeneral-Regular-30" transform="translate(124.999954 0)"/>
      </g>
     </g>
    </g>
    <g id="text_10">
     <!-- x -->
     <g transform="translate(286.362188 341.459062) scale(0.1 -0.1)">
      <defs>
       <path id="STIXGeneral-Regular-78" d="M 3066 0 
L 1779 0 
L 1779 96 
Q 1939 109 1987 137 
Q 2035 166 2035 250 
Q 2035 307 1997 365 
L 1414 1261 
L 909 474 
Q 781 275 781 211 
Q 781 96 1037 96 
L 1037 0 
L 109 0 
L 109 96 
Q 269 109 355 169 
Q 442 230 576 422 
L 1306 1478 
L 704 2400 
Q 557 2624 454 2704 
Q 352 2784 211 2784 
L 154 2784 
L 154 2880 
L 1478 2880 
L 1478 2784 
Q 1203 2778 1203 2643 
Q 1203 2509 1498 2074 
Q 1581 1958 1587 1946 
Q 1619 1990 1779 2227 
Q 1811 2285 1856 2349 
Q 1901 2413 1923 2451 
Q 1946 2490 1971 2528 
Q 1997 2566 2006 2595 
Q 2016 2624 2016 2643 
Q 2016 2765 1760 2784 
L 1760 2880 
L 2771 2880 
L 2771 2784 
Q 2445 2771 2253 2502 
L 1722 1734 
L 2541 480 
Q 2790 96 3066 96 
L 3066 0 
z
" transform="scale(0.015625)"/>
      </defs>
      <use xlink:href="#STIXGeneral-Regular-78"/>
     </g>
    </g>
   </g>
   <g id="matplotlib.axis_2">
    <g id="ytick_1">
     <g id="line2d_19">
      <path d="M 46.55 289.372442 
L 531.174375 289.372442 
" clip-path="url(#pf05fe41e0e)" style="fill: none; stroke: #b0b0b0; stroke-width: 0.8; stroke-linecap: square"/>
     </g>
     <g id="line2d_20">
      <defs>
       <path id="m653793a69b" d="M 0 0 
L -3.5 0 
" style="stroke: #000000; stroke-width: 0.8"/>
      </defs>
      <g>
       <use xlink:href="#m653793a69b" x="46.55" y="289.372442" style="stroke: #000000; stroke-width: 0.8"/>
      </g>
     </g>
     <g id="text_11">
      <!-- −0.3 -->
      <g transform="translate(20.2 292.787286) scale(0.1 -0.1)">
       <defs>
        <path id="STIXGeneral-Regular-33" d="M 390 3264 
L 288 3290 
Q 435 3770 748 4048 
Q 1062 4326 1542 4326 
Q 1990 4326 2265 4083 
Q 2541 3840 2541 3450 
Q 2541 2925 1946 2566 
Q 2298 2413 2477 2227 
Q 2758 1914 2758 1402 
Q 2758 890 2464 506 
Q 2246 211 1840 60 
Q 1434 -90 979 -90 
Q 262 -90 262 275 
Q 262 378 339 442 
Q 416 506 525 506 
Q 685 506 915 339 
Q 1197 141 1466 141 
Q 1818 141 2058 425 
Q 2298 710 2298 1120 
Q 2298 1856 1632 2048 
Q 1434 2112 979 2112 
L 979 2202 
Q 1338 2323 1517 2432 
Q 2035 2726 2035 3290 
Q 2035 3610 1852 3776 
Q 1670 3942 1344 3942 
Q 768 3942 390 3264 
z
" transform="scale(0.015625)"/>
       </defs>
       <use xlink:href="#STIXGeneral-Regular-2212"/>
       <use xlink:href="#STIXGeneral-Regular-30" transform="translate(68.499985 0)"/>
       <use xlink:href="#STIXGeneral-Regular-2e" transform="translate(118.499969 0)"/>
       <use xlink:href="#STIXGeneral-Regular-33" transform="translate(143.499954 0)"/>
      </g>
     </g>
    </g>
    <g id="ytick_2">
     <g id="line2d_21">
      <path d="M 46.55 248.929146 
L 531.174375 248.929146 
" clip-path="url(#pf05fe41e0e)" style="fill: none; stroke: #b0b0b0; stroke-width: 0.8; stroke-linecap: square"/>
     </g>
     <g id="line2d_22">
      <g>
       <use xlink:href="#m653793a69b" x="46.55" y="248.929146" style="stroke: #000000; stroke-width: 0.8"/>
      </g>
     </g>
     <g id="text_12">
      <!-- −0.2 -->
      <g transform="translate(20.2 252.34399) scale(0.1 -0.1)">
       <use xlink:href="#STIXGeneral-Regular-2212"/>
       <use xlink:href="#STIXGeneral-Regular-30" transform="translate(68.499985 0)"/>
       <use xlink:href="#STIXGeneral-Regular-2e" transform="translate(118.499969 0)"/>
       <use xlink:href="#STIXGeneral-Regular-32" transform="translate(143.499954 0)"/>
      </g>
     </g>
    </g>
    <g id="ytick_3">
     <g id="line2d_23">
      <path d="M 46.55 208.48585 
L 531.174375 208.48585 
" clip-path="url(#pf05fe41e0e)" style="fill: none; stroke: #b0b0b0; stroke-width: 0.8; stroke-linecap: square"/>
     </g>
     <g id="line2d_24">
      <g>
       <use xlink:href="#m653793a69b" x="46.55" y="208.48585" style="stroke: #000000; stroke-width: 0.8"/>
      </g>
     </g>
     <g id="text_13">
      <!-- −0.1 -->
      <g transform="translate(20.2 211.900693) scale(0.1 -0.1)">
       <use xlink:href="#STIXGeneral-Regular-2212"/>
       <use xlink:href="#STIXGeneral-Regular-30" transform="translate(68.499985 0)"/>
       <use xlink:href="#STIXGeneral-Regular-2e" transform="translate(118.499969 0)"/>
       <use xlink:href="#STIXGeneral-Regular-31" transform="translate(143.499954 0)"/>
      </g>
     </g>
    </g>
    <g id="ytick_4">
     <g id="line2d_25">
      <path d="M 46.55 168.042553 
L 531.174375 168.042553 
" clip-path="url(#pf05fe41e0e)" style="fill: none; stroke: #b0b0b0; stroke-width: 0.8; stroke-linecap: square"/>
     </g>
     <g id="line2d_26">
      <g>
       <use xlink:href="#m653793a69b" x="46.55" y="168.042553" style="stroke: #000000; stroke-width: 0.8"/>
      </g>
     </g>
     <g id="text_14">
      <!-- 0.0 -->
      <g transform="translate(27.05 171.457397) scale(0.1 -0.1)">
       <use xlink:href="#STIXGeneral-Regular-30"/>
       <use xlink:href="#STIXGeneral-Regular-2e" transform="translate(49.999985 0)"/>
       <use xlink:href="#STIXGeneral-Regular-30" transform="translate(74.999969 0)"/>
      </g>
     </g>
    </g>
    <g id="ytick_5">
     <g id="line2d_27">
      <path d="M 46.55 127.599257 
L 531.174375 127.599257 
" clip-path="url(#pf05fe41e0e)" style="fill: none; stroke: #b0b0b0; stroke-width: 0.8; stroke-linecap: square"/>
     </g>
     <g id="line2d_28">
      <g>
       <use xlink:href="#m653793a69b" x="46.55" y="127.599257" style="stroke: #000000; stroke-width: 0.8"/>
      </g>
     </g>
     <g id="text_15">
      <!-- 0.1 -->
      <g transform="translate(27.05 131.014101) scale(0.1 -0.1)">
       <use xlink:href="#STIXGeneral-Regular-30"/>
       <use xlink:href="#STIXGeneral-Regular-2e" transform="translate(49.999985 0)"/>
       <use xlink:href="#STIXGeneral-Regular-31" transform="translate(74.999969 0)"/>
      </g>
     </g>
    </g>
    <g id="ytick_6">
     <g id="line2d_29">
      <path d="M 46.55 87.15596 
L 531.174375 87.15596 
" clip-path="url(#pf05fe41e0e)" style="fill: none; stroke: #b0b0b0; stroke-width: 0.8; stroke-linecap: square"/>
     </g>
     <g id="line2d_30">
      <g>
       <use xlink:href="#m653793a69b" x="46.55" y="87.15596" style="stroke: #000000; stroke-width: 0.8"/>
      </g>
     </g>
     <g id="text_16">
      <!-- 0.2 -->
      <g transform="translate(27.05 90.570804) scale(0.1 -0.1)">
       <use xlink:href="#STIXGeneral-Regular-30"/>
       <use xlink:href="#STIXGeneral-Regular-2e" transform="translate(49.999985 0)"/>
       <use xlink:href="#STIXGeneral-Regular-32" transform="translate(74.999969 0)"/>
      </g>
     </g>
    </g>
    <g id="ytick_7">
     <g id="line2d_31">
      <path d="M 46.55 46.712664 
L 531.174375 46.712664 
" clip-path="url(#pf05fe41e0e)" style="fill: none; stroke: #b0b0b0; stroke-width: 0.8; stroke-linecap: square"/>
     </g>
     <g id="line2d_32">
      <g>
       <use xlink:href="#m653793a69b" x="46.55" y="46.712664" style="stroke: #000000; stroke-width: 0.8"/>
      </g>
     </g>
     <g id="text_17">
      <!-- 0.3 -->
      <g transform="translate(27.05 50.127508) scale(0.1 -0.1)">
       <use xlink:href="#STIXGeneral-Regular-30"/>
       <use xlink:href="#STIXGeneral-Regular-2e" transform="translate(49.999985 0)"/>
       <use xlink:href="#STIXGeneral-Regular-33" transform="translate(74.999969 0)"/>
      </g>
     </g>
    </g>
    <g id="text_18">
     <!-- Wavefunction Value -->
     <g transform="translate(14.029688 209.558906) rotate(-90) scale(0.1 -0.1)">
      <defs>
       <path id="STIXGeneral-Regular-57" d="M 5965 4237 
L 5965 4115 
Q 5709 4064 5616 3990 
Q 5523 3917 5434 3667 
Q 4704 1709 4128 -70 
L 4032 -70 
Q 3642 1011 3008 2637 
L 2022 -70 
L 1926 -70 
Q 1709 576 1277 1753 
Q 845 2931 698 3347 
Q 538 3808 406 3958 
Q 275 4109 32 4115 
L 32 4237 
L 1594 4237 
L 1594 4115 
Q 1357 4109 1270 4064 
Q 1184 4019 1184 3917 
Q 1184 3808 1254 3616 
L 2176 1210 
L 2842 3021 
L 2662 3501 
Q 2509 3917 2400 4013 
Q 2291 4109 2010 4115 
L 2010 4237 
L 3706 4237 
L 3706 4115 
Q 3213 4102 3213 3891 
Q 3213 3808 3322 3520 
L 4237 1190 
L 5043 3360 
Q 5152 3667 5152 3853 
Q 5152 4109 4704 4115 
L 4704 4237 
L 5965 4237 
z
" transform="scale(0.015625)"/>
       <path id="STIXGeneral-Regular-61" d="M 2829 422 
L 2829 243 
Q 2586 -64 2253 -64 
Q 1888 -64 1843 403 
L 1837 403 
Q 1427 -64 909 -64 
Q 608 -64 422 112 
Q 237 288 237 602 
Q 237 1050 685 1350 
Q 992 1555 1837 1869 
L 1837 2214 
Q 1837 2502 1699 2646 
Q 1562 2790 1338 2790 
Q 1146 2790 1018 2697 
Q 890 2605 890 2477 
Q 890 2419 909 2348 
Q 928 2278 928 2208 
Q 928 2112 841 2029 
Q 755 1946 634 1946 
Q 525 1946 441 2029 
Q 358 2112 358 2240 
Q 358 2547 685 2752 
Q 986 2944 1421 2944 
Q 1939 2944 2176 2656 
Q 2291 2522 2323 2384 
Q 2355 2246 2355 1946 
L 2355 723 
Q 2355 301 2554 301 
Q 2682 301 2829 422 
z
M 1837 813 
L 1837 1715 
Q 1248 1510 1018 1293 
Q 800 1094 800 800 
Q 800 557 921 432 
Q 1043 307 1242 307 
Q 1453 307 1613 410 
Q 1747 506 1792 589 
Q 1837 672 1837 813 
z
" transform="scale(0.015625)"/>
       <path id="STIXGeneral-Regular-76" d="M 3053 2880 
L 3053 2784 
Q 2906 2771 2835 2688 
Q 2765 2605 2637 2285 
L 1818 230 
Q 1690 -90 1638 -90 
Q 1587 -90 1523 77 
Q 1510 96 1497 141 
Q 1485 186 1472 211 
L 704 2048 
Q 499 2534 403 2652 
Q 307 2771 122 2784 
L 122 2880 
L 1376 2880 
L 1376 2784 
Q 1210 2771 1146 2732 
Q 1082 2694 1082 2611 
Q 1082 2509 1139 2368 
L 1792 730 
L 2426 2387 
Q 2464 2483 2464 2579 
Q 2464 2758 2163 2784 
L 2163 2880 
L 3053 2880 
z
" transform="scale(0.015625)"/>
       <path id="STIXGeneral-Regular-65" d="M 2611 1050 
L 2714 1005 
Q 2330 -64 1376 -64 
Q 813 -64 486 329 
Q 160 723 160 1389 
Q 160 2074 525 2509 
Q 890 2944 1485 2944 
Q 2061 2944 2374 2502 
Q 2560 2246 2592 1773 
L 621 1773 
Q 646 1370 700 1158 
Q 755 947 915 730 
Q 1184 378 1626 378 
Q 1939 378 2153 531 
Q 2368 685 2611 1050 
z
M 634 1978 
L 1939 1978 
Q 1882 2381 1750 2547 
Q 1619 2714 1312 2714 
Q 1043 2714 864 2525 
Q 685 2336 634 1978 
z
" transform="scale(0.015625)"/>
       <path id="STIXGeneral-Regular-66" d="M 134 2880 
L 659 2880 
Q 666 3264 710 3478 
Q 755 3693 883 3910 
Q 1152 4371 1786 4371 
Q 2074 4371 2262 4259 
Q 2451 4147 2451 3974 
Q 2451 3866 2374 3789 
Q 2298 3712 2182 3712 
Q 2029 3712 1894 3942 
Q 1741 4192 1555 4192 
Q 1197 4192 1197 3622 
L 1197 2880 
L 1978 2880 
L 1978 2675 
L 1197 2675 
L 1197 666 
Q 1197 307 1299 208 
Q 1402 109 1792 96 
L 1792 0 
L 128 0 
L 128 96 
Q 474 115 566 214 
Q 659 314 659 666 
L 659 2675 
L 134 2675 
L 134 2880 
z
" transform="scale(0.015625)"/>
       <path id="STIXGeneral-Regular-75" d="M 3072 320 
L 3072 230 
Q 2573 96 2195 -58 
L 2163 -38 
L 2163 486 
L 2150 486 
Q 1747 -64 1235 -64 
Q 870 -64 662 160 
Q 454 384 454 755 
L 454 2362 
Q 454 2598 371 2688 
Q 288 2778 58 2790 
L 58 2880 
L 992 2880 
L 992 813 
Q 992 595 1123 451 
Q 1254 307 1446 307 
Q 1760 307 1984 506 
Q 2067 582 2099 649 
Q 2131 717 2131 877 
L 2131 2355 
Q 2131 2605 2041 2678 
Q 1952 2752 1658 2771 
L 1658 2880 
L 2669 2880 
L 2669 685 
Q 2669 461 2742 390 
Q 2816 320 3034 320 
L 3072 320 
z
" transform="scale(0.015625)"/>
       <path id="STIXGeneral-Regular-6e" d="M 3104 0 
L 1773 0 
L 1779 96 
Q 2016 115 2096 233 
Q 2176 352 2176 672 
L 2176 1946 
Q 2176 2592 1709 2592 
Q 1549 2592 1408 2515 
Q 1267 2438 1050 2227 
L 1050 461 
Q 1050 269 1136 192 
Q 1222 115 1466 96 
L 1466 0 
L 115 0 
L 115 96 
Q 358 115 435 214 
Q 512 314 512 602 
L 512 2157 
Q 512 2394 467 2483 
Q 422 2573 288 2573 
Q 160 2573 102 2547 
L 102 2656 
Q 550 2784 979 2944 
L 1030 2925 
L 1030 2426 
L 1037 2426 
Q 1491 2944 1958 2944 
Q 2323 2944 2518 2688 
Q 2714 2432 2714 1958 
L 2714 544 
Q 2714 288 2790 205 
Q 2867 122 3104 96 
L 3104 0 
z
" transform="scale(0.015625)"/>
       <path id="STIXGeneral-Regular-63" d="M 2547 998 
L 2637 941 
Q 2362 403 2112 205 
Q 1786 -64 1376 -64 
Q 845 -64 502 336 
Q 160 736 160 1357 
Q 160 2170 698 2618 
Q 1094 2944 1562 2944 
Q 1965 2944 2256 2749 
Q 2547 2554 2547 2285 
Q 2547 2176 2457 2096 
Q 2368 2016 2246 2016 
Q 2022 2016 1939 2310 
L 1901 2451 
Q 1850 2630 1773 2694 
Q 1696 2758 1523 2758 
Q 1133 2758 893 2451 
Q 653 2144 653 1645 
Q 653 1094 928 745 
Q 1203 397 1645 397 
Q 1920 397 2118 528 
Q 2317 659 2547 998 
z
" transform="scale(0.015625)"/>
       <path id="STIXGeneral-Regular-74" d="M 1702 493 
L 1786 422 
Q 1478 -64 1011 -64 
Q 448 -64 448 749 
L 448 2675 
L 109 2675 
Q 83 2694 83 2720 
Q 83 2771 192 2842 
Q 435 2982 813 3526 
Q 826 3546 874 3606 
Q 922 3667 941 3706 
Q 986 3706 986 3622 
L 986 2880 
L 1632 2880 
L 1632 2675 
L 986 2675 
L 986 845 
Q 986 538 1062 403 
Q 1139 269 1318 269 
Q 1510 269 1702 493 
z
" transform="scale(0.015625)"/>
       <path id="STIXGeneral-Regular-69" d="M 1152 4045 
Q 1152 3904 1056 3811 
Q 960 3718 819 3718 
Q 685 3718 592 3811 
Q 499 3904 499 4045 
Q 499 4179 595 4275 
Q 691 4371 826 4371 
Q 966 4371 1059 4275 
Q 1152 4179 1152 4045 
z
M 1619 0 
L 102 0 
L 102 96 
Q 435 115 521 211 
Q 608 307 608 666 
L 608 2118 
Q 608 2342 563 2432 
Q 518 2522 397 2522 
Q 243 2522 128 2490 
L 128 2592 
L 1120 2944 
L 1146 2918 
L 1146 672 
Q 1146 314 1226 218 
Q 1306 122 1619 96 
L 1619 0 
z
" transform="scale(0.015625)"/>
       <path id="STIXGeneral-Regular-6f" d="M 3008 1478 
Q 3008 806 2608 371 
Q 2208 -64 1568 -64 
Q 979 -64 582 368 
Q 186 800 186 1459 
Q 186 2125 582 2534 
Q 979 2944 1626 2944 
Q 2221 2944 2614 2537 
Q 3008 2131 3008 1478 
z
M 2432 1306 
Q 2432 2035 2112 2445 
Q 1856 2765 1504 2765 
Q 1171 2765 966 2493 
Q 762 2221 762 1747 
Q 762 928 1101 435 
Q 1318 115 1677 115 
Q 2029 115 2230 432 
Q 2432 749 2432 1306 
z
" transform="scale(0.015625)"/>
       <path id="STIXGeneral-Regular-20" transform="scale(0.015625)"/>
       <path id="STIXGeneral-Regular-56" d="M 4461 4237 
L 4461 4115 
Q 4262 4109 4134 3990 
Q 4006 3872 3872 3533 
L 2451 -70 
L 2355 -70 
L 794 3411 
Q 589 3866 467 3987 
Q 346 4109 102 4115 
L 102 4237 
L 1798 4237 
L 1798 4115 
L 1619 4102 
Q 1331 4083 1331 3904 
Q 1331 3776 1581 3219 
L 2554 1030 
L 3494 3392 
Q 3616 3699 3616 3853 
Q 3616 3898 3606 3933 
Q 3597 3968 3584 3993 
Q 3571 4019 3536 4038 
Q 3501 4058 3481 4067 
Q 3462 4077 3411 4086 
Q 3360 4096 3337 4099 
Q 3315 4102 3248 4108 
Q 3181 4115 3155 4115 
L 3155 4237 
L 4461 4237 
z
" transform="scale(0.015625)"/>
       <path id="STIXGeneral-Regular-6c" d="M 1645 0 
L 134 0 
L 134 96 
Q 435 122 531 221 
Q 627 320 627 589 
L 627 3590 
Q 627 3821 569 3910 
Q 512 4000 358 4000 
Q 224 4000 122 3987 
L 122 4090 
Q 730 4237 1133 4371 
L 1165 4346 
L 1165 557 
Q 1165 288 1254 201 
Q 1344 115 1645 96 
L 1645 0 
z
" transform="scale(0.015625)"/>
      </defs>
      <use xlink:href="#STIXGeneral-Regular-57"/>
      <use xlink:href="#STIXGeneral-Regular-61" transform="translate(94.399994 0)"/>
      <use xlink:href="#STIXGeneral-Regular-76" transform="translate(138.799988 0)"/>
      <use xlink:href="#STIXGeneral-Regular-65" transform="translate(188.799973 0)"/>
      <use xlink:href="#STIXGeneral-Regular-66" transform="translate(233.199966 0)"/>
      <use xlink:href="#STIXGeneral-Regular-75" transform="translate(266.499954 0)"/>
      <use xlink:href="#STIXGeneral-Regular-6e" transform="translate(316.499939 0)"/>
      <use xlink:href="#STIXGeneral-Regular-63" transform="translate(366.499924 0)"/>
      <use xlink:href="#STIXGeneral-Regular-74" transform="translate(410.899918 0)"/>
      <use xlink:href="#STIXGeneral-Regular-69" transform="translate(438.699905 0)"/>
      <use xlink:href="#STIXGeneral-Regular-6f" transform="translate(466.499893 0)"/>
      <use xlink:href="#STIXGeneral-Regular-6e" transform="translate(516.499878 0)"/>
      <use xlink:href="#STIXGeneral-Regular-20" transform="translate(566.499863 0)"/>
      <use xlink:href="#STIXGeneral-Regular-56" transform="translate(591.499847 0)"/>
      <use xlink:href="#STIXGeneral-Regular-61" transform="translate(663.699829 0)"/>
      <use xlink:href="#STIXGeneral-Regular-6c" transform="translate(708.099823 0)"/>
      <use xlink:href="#STIXGeneral-Regular-75" transform="translate(735.899811 0)"/>
      <use xlink:href="#STIXGeneral-Regular-65" transform="translate(785.899796 0)"/>
     </g>
    </g>
   </g>
   <g id="line2d_33">
    <path d="M 68.578381 168.042553 
L 79.603596 200.592666 
L 85.336708 216.860741 
L 90.187803 230.009482 
L 94.597889 241.333548 
L 98.566967 250.91823 
L 102.095036 258.891526 
L 105.623105 266.298678 
L 108.710165 272.279142 
L 111.797226 277.762218 
L 114.443277 282.046218 
L 117.089329 285.930506 
L 119.735381 289.401464 
L 121.940424 291.969367 
L 124.145467 294.235504 
L 126.35051 296.194358 
L 128.555553 297.841159 
L 130.760596 299.171897 
L 132.524631 300.006718 
L 134.288665 300.635868 
L 136.0527 301.058368 
L 137.816734 301.273559 
L 139.580769 301.281104 
L 141.344803 301.080994 
L 143.108838 300.673538 
L 144.872872 300.059374 
L 146.636907 299.239456 
L 148.400941 298.215064 
L 150.605984 296.649495 
L 152.811028 294.770764 
L 155.016071 292.583446 
L 157.221114 290.092868 
L 159.426157 287.305094 
L 162.072209 283.577074 
L 164.71826 279.443976 
L 167.364312 274.92029 
L 170.451372 269.170231 
L 173.538433 262.937618 
L 177.066502 255.262001 
L 180.594571 247.04286 
L 184.563648 237.210538 
L 188.973735 225.649526 
L 193.824829 212.28924 
L 199.557941 195.840721 
L 207.937105 171.055195 
L 219.844338 135.86327 
L 225.57745 119.580266 
L 230.428545 106.41431 
L 234.838631 95.071127 
L 238.807709 85.466574 
L 242.335778 77.473625 
L 245.863847 70.045075 
L 248.950907 64.044561 
L 252.037968 58.540296 
L 254.684019 54.237305 
L 256.007045 52.276402 
L 256.448054 52.060516 
L 256.889062 52.320624 
L 257.330071 53.055657 
L 257.77108 54.262601 
L 258.212088 55.9365 
L 259.094105 60.6558 
L 259.976123 67.136165 
L 260.85814 75.271321 
L 262.181166 90.278062 
L 263.504192 108.149279 
L 265.268226 135.283417 
L 271.442347 234.550306 
L 272.765373 251.477825 
L 274.088399 265.331985 
L 274.970416 272.6034 
L 275.852433 278.160094 
L 276.73445 281.910941 
L 277.175459 283.088761 
L 277.616468 283.794429 
L 278.057476 284.025047 
L 278.498485 283.77967 
L 278.939493 283.059305 
L 279.380502 281.866907 
L 279.821511 280.207372 
L 280.703528 275.516017 
L 281.585545 269.062176 
L 282.467562 260.951687 
L 283.790588 245.977589 
L 285.113614 228.132734 
L 286.877649 201.022332 
L 293.051769 101.723421 
L 294.374795 84.767259 
L 295.697821 70.878565 
L 296.579838 63.581473 
L 297.461856 57.997466 
L 298.343873 54.218119 
L 298.784882 53.025748 
L 299.22589 52.305409 
L 299.666899 52.060059 
L 300.107907 52.290704 
L 300.548916 52.996398 
L 300.989925 54.174245 
L 301.430933 55.819411 
L 302.31295 60.482801 
L 303.194968 66.910093 
L 304.076985 74.995883 
L 305.400011 89.937279 
L 306.723037 107.755703 
L 308.487071 134.842263 
L 314.661192 234.172803 
L 315.984218 251.157541 
L 317.307244 265.080716 
L 318.189261 272.403456 
L 319.071278 278.014753 
L 319.953295 281.822587 
L 320.394304 283.029504 
L 320.835313 283.764511 
L 321.276321 284.024592 
L 321.71733 283.808679 
L 323.040356 281.847892 
L 325.686407 277.544897 
L 328.773468 272.040628 
L 331.860528 266.040109 
L 334.947589 259.571973 
L 338.475658 251.646913 
L 342.444735 242.111055 
L 346.413813 231.9911 
L 350.823899 220.158857 
L 356.116002 205.301013 
L 362.731132 186.019679 
L 383.458537 125.038659 
L 388.75064 110.435534 
L 393.160727 98.874513 
L 397.129804 89.042184 
L 400.657873 80.823035 
L 404.185942 73.147413 
L 407.273003 66.914795 
L 410.360063 61.164731 
L 413.447123 55.924659 
L 416.093175 51.858102 
L 418.739227 48.198902 
L 421.385278 44.95989 
L 423.590322 42.589927 
L 425.795365 40.525445 
L 428.000408 38.77147 
L 430.205451 37.332275 
L 431.969485 36.40994 
L 433.73352 35.692758 
L 435.497554 35.181848 
L 437.261589 34.878006 
L 439.025623 34.781705 
L 440.789658 34.893094 
L 442.553692 35.212002 
L 444.317727 35.73793 
L 446.081761 36.470059 
L 447.845796 37.407248 
L 450.050839 38.864844 
L 452.255882 40.636992 
L 454.460925 42.719376 
L 456.665968 45.106925 
L 458.871011 47.793825 
L 461.517063 51.403988 
L 464.163115 55.4231 
L 466.809167 59.83707 
L 469.896227 65.465037 
L 472.983287 71.582476 
L 476.070348 78.160196 
L 479.598417 86.200841 
L 483.567494 95.85357 
L 487.97758 107.243032 
L 492.828675 120.45056 
L 498.561787 136.769452 
L 506.058934 158.842687 
L 509.145994 168.042553 
L 509.145994 168.042553 
" clip-path="url(#pf05fe41e0e)" style="fill: none; stroke: #0000ff; stroke-width: 1.5; stroke-linecap: square"/>
   </g>
   <g id="line2d_34">
    <path d="M 68.578381 168.042553 
L 81.808639 176.647314 
L 88.864777 180.976035 
L 95.038898 184.503116 
L 100.331001 187.278959 
L 105.182096 189.587578 
L 110.033191 191.642475 
L 114.443277 193.269967 
L 118.853364 194.651891 
L 122.822441 195.674492 
L 126.791519 196.47919 
L 130.760596 197.05964 
L 134.729674 197.411264 
L 138.698752 197.531288 
L 142.667829 197.418768 
L 146.636907 197.07459 
L 150.605984 196.501468 
L 154.575062 195.703921 
L 158.54414 194.68824 
L 162.954226 193.313666 
L 167.364312 191.693099 
L 171.774398 189.842313 
L 176.625493 187.56211 
L 181.917597 184.813454 
L 187.650709 181.571844 
L 194.265838 177.558705 
L 202.645002 172.188207 
L 225.57745 157.318528 
L 232.19258 153.383722 
L 237.925692 150.230067 
L 243.217795 147.577837 
L 248.06889 145.397697 
L 252.478976 143.646545 
L 256.007045 142.425126 
L 256.889062 142.434911 
L 257.77108 142.864644 
L 258.653097 143.707275 
L 259.535114 144.948988 
L 260.417131 146.569418 
L 261.740157 149.650435 
L 263.063183 153.408931 
L 264.827218 159.231858 
L 267.914278 170.556181 
L 270.56033 179.951998 
L 272.324364 185.326225 
L 273.64739 188.632533 
L 274.529407 190.421795 
L 275.411425 191.844054 
L 276.293442 192.875986 
L 277.175459 193.500667 
L 278.057476 193.707854 
L 278.939493 193.494149 
L 279.821511 192.863056 
L 280.703528 191.824925 
L 281.585545 190.39678 
L 282.467562 188.602043 
L 283.790588 185.288485 
L 285.113614 181.339668 
L 286.877649 175.340516 
L 293.051769 153.367058 
L 294.374795 149.614897 
L 295.697821 146.541524 
L 296.579838 144.92678 
L 297.461856 143.691117 
L 298.343873 142.8548 
L 299.22589 142.431545 
L 300.107907 142.428291 
L 300.989925 142.845092 
L 301.871942 143.675113 
L 302.753959 144.904743 
L 303.635976 146.513815 
L 304.959002 149.579561 
L 306.282028 153.325395 
L 308.046063 159.136291 
L 311.133123 170.454827 
L 313.779175 179.861706 
L 315.543209 185.250814 
L 316.866235 188.571583 
L 317.748252 190.371769 
L 318.63027 191.805772 
L 319.512287 192.850076 
L 320.394304 193.487554 
L 321.276321 193.707753 
L 322.158338 193.523577 
L 326.568425 191.937029 
L 330.978511 190.117888 
L 335.829606 187.869385 
L 341.121709 185.151172 
L 346.854821 181.93719 
L 353.469951 177.948441 
L 361.408106 172.883885 
L 386.545597 156.622408 
L 392.719718 152.986417 
L 398.45283 149.865755 
L 403.744934 147.24931 
L 408.596028 145.10603 
L 413.006115 143.391381 
L 417.416201 141.916691 
L 421.385278 140.80655 
L 425.354356 139.911189 
L 429.323434 139.23767 
L 433.292511 138.791303 
L 437.261589 138.575608 
L 441.230666 138.592287 
L 445.199744 138.841208 
L 449.168822 139.320408 
L 453.137899 140.026108 
L 457.106977 140.952743 
L 461.076054 142.093006 
L 465.486141 143.599524 
L 469.896227 145.343974 
L 474.747322 147.51735 
L 479.598417 149.932439 
L 484.89052 152.809263 
L 491.064641 156.432336 
L 498.120779 160.839787 
L 508.704986 167.751503 
L 509.145994 168.042553 
L 509.145994 168.042553 
" clip-path="url(#pf05fe41e0e)" style="fill: none; stroke-dasharray: 5.55,2.4; stroke-dashoffset: 0; stroke: #ff0000; stroke-width: 1.5"/>
   </g>
   <g id="patch_3">
    <path d="M 46.55 314.629375 
L 46.55 21.455625 
" style="fill: none; stroke: #000000; stroke-width: 0.8; stroke-linejoin: miter; stroke-linecap: square"/>
   </g>
   <g id="patch_4">
    <path d="M 531.174375 314.629375 
L 531.174375 21.455625 
" style="fill: none; stroke: #000000; stroke-width: 0.8; stroke-linejoin: miter; stroke-linecap: square"/>
   </g>
   <g id="patch_5">
    <path d="M 46.55 314.629375 
L 531.174375 314.629375 
" style="fill: none; stroke: #000000; stroke-width: 0.8; stroke-linejoin: miter; stroke-linecap: square"/>
   </g>
   <g id="patch_6">
    <path d="M 46.55 21.455625 
L 531.174375 21.455625 
" style="fill: none; stroke: #000000; stroke-width: 0.8; stroke-linejoin: miter; stroke-linecap: square"/>
   </g>
   <g id="text_19">
    <!-- Wavefunction for Energy = 5.121532663009955 eV -->
    <g transform="translate(162.44125 15.455625) scale(0.12 -0.12)">
     <defs>
      <path id="STIXGeneral-Regular-72" d="M 1024 2931 
L 1024 2342 
Q 1267 2688 1430 2816 
Q 1594 2944 1792 2944 
Q 1958 2944 2051 2854 
Q 2144 2765 2144 2605 
Q 2144 2470 2077 2393 
Q 2010 2317 1894 2317 
Q 1773 2317 1638 2445 
Q 1536 2541 1472 2541 
Q 1338 2541 1181 2355 
Q 1024 2170 1024 2016 
L 1024 576 
Q 1024 301 1133 205 
Q 1242 109 1568 96 
L 1568 0 
L 32 0 
L 32 96 
Q 339 154 412 224 
Q 486 294 486 538 
L 486 2138 
Q 486 2349 438 2435 
Q 390 2522 269 2522 
Q 166 2522 45 2496 
L 45 2598 
Q 448 2726 992 2944 
L 1024 2931 
z
" transform="scale(0.015625)"/>
      <path id="STIXGeneral-Regular-45" d="M 3821 1082 
L 3526 0 
L 77 0 
L 77 122 
Q 442 147 538 252 
Q 634 358 634 730 
L 634 3520 
Q 634 3878 534 3987 
Q 435 4096 77 4115 
L 77 4237 
L 3469 4237 
L 3494 3322 
L 3334 3322 
Q 3264 3750 3085 3872 
Q 2906 3994 2349 3994 
L 1510 3994 
Q 1370 3994 1328 3952 
Q 1286 3910 1286 3763 
L 1286 2355 
L 2253 2355 
Q 2656 2355 2787 2470 
Q 2918 2586 2976 2970 
L 3123 2970 
L 3123 1472 
L 2976 1472 
Q 2918 1875 2790 1984 
Q 2662 2093 2253 2093 
L 1286 2093 
L 1286 538 
Q 1286 346 1420 291 
Q 1555 237 1933 237 
L 2163 237 
Q 2848 237 3136 403 
Q 3424 570 3642 1082 
L 3821 1082 
z
" transform="scale(0.015625)"/>
      <path id="STIXGeneral-Regular-67" d="M 3008 2483 
L 2477 2483 
Q 2598 2208 2598 1946 
Q 2598 1453 2265 1203 
Q 1933 954 1600 954 
Q 1530 954 1357 973 
L 1235 986 
Q 1107 947 979 812 
Q 851 678 851 582 
Q 851 435 1350 410 
L 2176 371 
Q 2528 358 2739 172 
Q 2950 -13 2950 -314 
Q 2950 -685 2566 -986 
Q 2035 -1395 1286 -1395 
Q 826 -1395 502 -1212 
Q 179 -1030 179 -774 
Q 179 -595 320 -419 
Q 461 -243 806 6 
Q 602 102 534 172 
Q 467 243 467 346 
Q 467 531 762 787 
Q 909 915 1037 1043 
Q 717 1203 579 1401 
Q 442 1600 442 1901 
Q 442 2336 752 2640 
Q 1062 2944 1510 2944 
Q 1766 2944 2022 2848 
L 2163 2797 
Q 2349 2733 2515 2733 
L 3008 2733 
L 3008 2483 
z
M 973 2163 
L 973 2144 
Q 973 1683 1155 1398 
Q 1338 1114 1632 1114 
Q 1850 1114 1978 1270 
Q 2106 1427 2106 1690 
Q 2106 2112 1914 2464 
Q 1754 2765 1446 2765 
Q 1222 2765 1097 2605 
Q 973 2445 973 2163 
z
M 2771 -410 
Q 2771 -230 2595 -163 
Q 2419 -96 1978 -96 
Q 1344 -96 941 -13 
Q 749 -243 688 -348 
Q 627 -454 627 -563 
Q 627 -774 880 -902 
Q 1133 -1030 1555 -1030 
Q 2099 -1030 2435 -860 
Q 2771 -691 2771 -410 
z
" transform="scale(0.015625)"/>
      <path id="STIXGeneral-Regular-79" d="M 3040 2880 
L 3040 2784 
Q 2925 2771 2854 2700 
Q 2784 2630 2720 2458 
L 1760 -160 
Q 1510 -838 1257 -1116 
Q 1005 -1395 640 -1395 
Q 435 -1395 313 -1289 
Q 192 -1184 192 -1024 
Q 192 -902 272 -816 
Q 352 -730 467 -730 
Q 653 -730 800 -813 
Q 883 -858 966 -858 
Q 1101 -858 1286 -576 
Q 1376 -448 1459 -211 
Q 1542 26 1542 115 
Q 1542 198 1274 762 
L 429 2566 
Q 346 2752 90 2790 
L 90 2880 
L 1402 2880 
L 1402 2784 
Q 1197 2778 1117 2739 
Q 1037 2701 1037 2611 
Q 1037 2541 1120 2349 
L 1837 749 
L 2458 2515 
Q 2483 2573 2483 2630 
Q 2483 2784 2189 2784 
L 2189 2880 
L 3040 2880 
z
" transform="scale(0.015625)"/>
      <path id="STIXGeneral-Regular-3d" d="M 4077 2048 
L 307 2048 
L 307 2470 
L 4077 2470 
L 4077 2048 
z
M 4077 768 
L 307 768 
L 307 1190 
L 4077 1190 
L 4077 768 
z
" transform="scale(0.015625)"/>
      <path id="STIXGeneral-Regular-36" d="M 2854 4378 
L 2867 4275 
Q 2112 4154 1606 3664 
Q 1101 3174 973 2451 
Q 1344 2739 1786 2739 
Q 2349 2739 2672 2380 
Q 2995 2022 2995 1402 
Q 2995 774 2669 378 
Q 2291 -90 1651 -90 
Q 870 -90 518 557 
Q 218 1107 218 1786 
Q 218 2835 915 3552 
Q 1312 3962 1731 4131 
Q 2150 4301 2854 4378 
z
M 2419 1203 
Q 2419 2445 1555 2445 
Q 1235 2445 1024 2275 
Q 813 2106 813 1702 
Q 813 954 1046 522 
Q 1280 90 1722 90 
Q 2061 90 2240 394 
Q 2419 698 2419 1203 
z
" transform="scale(0.015625)"/>
      <path id="STIXGeneral-Regular-39" d="M 378 -141 
L 358 -13 
Q 1094 115 1603 608 
Q 2112 1101 2304 1882 
Q 1933 1517 1344 1517 
Q 826 1517 509 1875 
Q 192 2234 192 2816 
Q 192 3462 573 3894 
Q 954 4326 1523 4326 
Q 2131 4326 2528 3840 
Q 2938 3328 2938 2522 
Q 2938 1958 2742 1462 
Q 2547 966 2170 621 
Q 1773 262 1395 105 
Q 1018 -51 378 -141 
z
M 2317 2272 
L 2317 2522 
Q 2317 4147 1472 4147 
Q 1171 4147 1005 3930 
Q 909 3802 845 3546 
Q 781 3290 781 3034 
Q 781 2464 995 2128 
Q 1210 1792 1568 1792 
Q 1824 1792 2070 1917 
Q 2317 2042 2317 2272 
z
" transform="scale(0.015625)"/>
     </defs>
     <use xlink:href="#STIXGeneral-Regular-57"/>
     <use xlink:href="#STIXGeneral-Regular-61" transform="translate(94.399994 0)"/>
     <use xlink:href="#STIXGeneral-Regular-76" transform="translate(138.799988 0)"/>
     <use xlink:href="#STIXGeneral-Regular-65" transform="translate(188.799973 0)"/>
     <use xlink:href="#STIXGeneral-Regular-66" transform="translate(233.199966 0)"/>
     <use xlink:href="#STIXGeneral-Regular-75" transform="translate(266.499954 0)"/>
     <use xlink:href="#STIXGeneral-Regular-6e" transform="translate(316.499939 0)"/>
     <use xlink:href="#STIXGeneral-Regular-63" transform="translate(366.499924 0)"/>
     <use xlink:href="#STIXGeneral-Regular-74" transform="translate(410.899918 0)"/>
     <use xlink:href="#STIXGeneral-Regular-69" transform="translate(438.699905 0)"/>
     <use xlink:href="#STIXGeneral-Regular-6f" transform="translate(466.499893 0)"/>
     <use xlink:href="#STIXGeneral-Regular-6e" transform="translate(516.499878 0)"/>
     <use xlink:href="#STIXGeneral-Regular-20" transform="translate(566.499863 0)"/>
     <use xlink:href="#STIXGeneral-Regular-66" transform="translate(591.499847 0)"/>
     <use xlink:href="#STIXGeneral-Regular-6f" transform="translate(624.799835 0)"/>
     <use xlink:href="#STIXGeneral-Regular-72" transform="translate(674.79982 0)"/>
     <use xlink:href="#STIXGeneral-Regular-20" transform="translate(708.099808 0)"/>
     <use xlink:href="#STIXGeneral-Regular-45" transform="translate(733.099792 0)"/>
     <use xlink:href="#STIXGeneral-Regular-6e" transform="translate(794.199783 0)"/>
     <use xlink:href="#STIXGeneral-Regular-65" transform="translate(844.199768 0)"/>
     <use xlink:href="#STIXGeneral-Regular-72" transform="translate(888.599762 0)"/>
     <use xlink:href="#STIXGeneral-Regular-67" transform="translate(921.89975 0)"/>
     <use xlink:href="#STIXGeneral-Regular-79" transform="translate(971.899734 0)"/>
     <use xlink:href="#STIXGeneral-Regular-20" transform="translate(1021.899719 0)"/>
     <use xlink:href="#STIXGeneral-Regular-3d" transform="translate(1046.899704 0)"/>
     <use xlink:href="#STIXGeneral-Regular-20" transform="translate(1115.399689 0)"/>
     <use xlink:href="#STIXGeneral-Regular-35" transform="translate(1140.399673 0)"/>
     <use xlink:href="#STIXGeneral-Regular-2e" transform="translate(1190.399658 0)"/>
     <use xlink:href="#STIXGeneral-Regular-31" transform="translate(1215.399643 0)"/>
     <use xlink:href="#STIXGeneral-Regular-32" transform="translate(1265.399628 0)"/>
     <use xlink:href="#STIXGeneral-Regular-31" transform="translate(1315.399612 0)"/>
     <use xlink:href="#STIXGeneral-Regular-35" transform="translate(1365.399597 0)"/>
     <use xlink:href="#STIXGeneral-Regular-33" transform="translate(1415.399582 0)"/>
     <use xlink:href="#STIXGeneral-Regular-32" transform="translate(1465.399567 0)"/>
     <use xlink:href="#STIXGeneral-Regular-36" transform="translate(1515.399551 0)"/>
     <use xlink:href="#STIXGeneral-Regular-36" transform="translate(1565.399536 0)"/>
     <use xlink:href="#STIXGeneral-Regular-33" transform="translate(1615.399521 0)"/>
     <use xlink:href="#STIXGeneral-Regular-30" transform="translate(1665.399506 0)"/>
     <use xlink:href="#STIXGeneral-Regular-30" transform="translate(1715.39949 0)"/>
     <use xlink:href="#STIXGeneral-Regular-39" transform="translate(1765.399475 0)"/>
     <use xlink:href="#STIXGeneral-Regular-39" transform="translate(1815.39946 0)"/>
     <use xlink:href="#STIXGeneral-Regular-35" transform="translate(1865.399445 0)"/>
     <use xlink:href="#STIXGeneral-Regular-35" transform="translate(1915.399429 0)"/>
     <use xlink:href="#STIXGeneral-Regular-20" transform="translate(1965.399414 0)"/>
     <use xlink:href="#STIXGeneral-Regular-65" transform="translate(1990.399399 0)"/>
     <use xlink:href="#STIXGeneral-Regular-56" transform="translate(2034.799393 0)"/>
    </g>
   </g>
   <g id="legend_1">
    <g id="patch_7">
     <path d="M 53.55 57.805625 
L 145.270313 57.805625 
Q 147.270313 57.805625 147.270313 55.805625 
L 147.270313 28.455625 
Q 147.270313 26.455625 145.270313 26.455625 
L 53.55 26.455625 
Q 51.55 26.455625 51.55 28.455625 
L 51.55 55.805625 
Q 51.55 57.805625 53.55 57.805625 
z
" style="fill: #ffffff; opacity: 0.8; stroke: #cccccc; stroke-linejoin: miter"/>
    </g>
    <g id="line2d_35">
     <path d="M 55.55 33.955625 
L 65.55 33.955625 
L 75.55 33.955625 
" style="fill: none; stroke: #0000ff; stroke-width: 1.5; stroke-linecap: square"/>
    </g>
    <g id="text_20">
     <!-- Real Part -->
     <g transform="translate(83.55 37.455625) scale(0.1 -0.1)">
      <defs>
       <path id="STIXGeneral-Regular-52" d="M 4224 0 
L 3187 0 
L 1664 1971 
L 1306 1958 
L 1306 717 
Q 1306 352 1405 249 
Q 1504 147 1875 122 
L 1875 0 
L 109 0 
L 109 122 
Q 474 154 563 262 
Q 653 371 653 794 
L 653 3526 
Q 653 3885 563 3987 
Q 474 4090 109 4115 
L 109 4237 
L 1850 4237 
Q 2726 4237 3187 3859 
Q 3501 3603 3501 3091 
Q 3501 2221 2342 2042 
L 3622 422 
Q 3757 256 3878 198 
Q 4000 141 4224 122 
L 4224 0 
z
M 1306 3731 
L 1306 2195 
Q 1766 2202 1990 2246 
Q 2214 2291 2438 2413 
Q 2803 2618 2803 3142 
Q 2803 4000 1632 4000 
Q 1459 4000 1382 3945 
Q 1306 3891 1306 3731 
z
" transform="scale(0.015625)"/>
       <path id="STIXGeneral-Regular-50" d="M 102 4237 
L 1760 4237 
Q 2669 4237 3149 3834 
Q 3469 3565 3469 3072 
Q 3469 2560 3104 2234 
Q 2835 1990 2553 1916 
Q 2272 1843 1734 1843 
Q 1549 1843 1293 1862 
L 1293 717 
Q 1293 352 1398 246 
Q 1504 141 1894 122 
L 1894 0 
L 102 0 
L 102 122 
Q 474 147 557 256 
Q 640 365 640 781 
L 640 3526 
Q 640 3885 547 3987 
Q 454 4090 102 4115 
L 102 4237 
z
M 1293 3770 
L 1293 2118 
Q 1510 2099 1683 2099 
Q 2202 2099 2486 2352 
Q 2771 2605 2771 3040 
Q 2771 3558 2476 3779 
Q 2182 4000 1517 4000 
Q 1382 4000 1337 3952 
Q 1293 3904 1293 3770 
z
" transform="scale(0.015625)"/>
      </defs>
      <use xlink:href="#STIXGeneral-Regular-52"/>
      <use xlink:href="#STIXGeneral-Regular-65" transform="translate(66.699997 0)"/>
      <use xlink:href="#STIXGeneral-Regular-61" transform="translate(111.099991 0)"/>
      <use xlink:href="#STIXGeneral-Regular-6c" transform="translate(155.499985 0)"/>
      <use xlink:href="#STIXGeneral-Regular-20" transform="translate(183.299973 0)"/>
      <use xlink:href="#STIXGeneral-Regular-50" transform="translate(208.299957 0)"/>
      <use xlink:href="#STIXGeneral-Regular-61" transform="translate(263.999954 0)"/>
      <use xlink:href="#STIXGeneral-Regular-72" transform="translate(308.399948 0)"/>
      <use xlink:href="#STIXGeneral-Regular-74" transform="translate(341.699936 0)"/>
     </g>
    </g>
    <g id="line2d_36">
     <path d="M 55.55 48.125937 
L 65.55 48.125937 
L 75.55 48.125937 
" style="fill: none; stroke-dasharray: 5.55,2.4; stroke-dashoffset: 0; stroke: #ff0000; stroke-width: 1.5"/>
    </g>
    <g id="text_21">
     <!-- Imaginary Part -->
     <g transform="translate(83.55 51.625937) scale(0.1 -0.1)">
      <defs>
       <path id="STIXGeneral-Regular-49" d="M 2016 0 
L 115 0 
L 115 122 
Q 518 134 627 240 
Q 736 346 736 717 
L 736 3526 
Q 736 3898 633 3994 
Q 531 4090 115 4115 
L 115 4237 
L 2016 4237 
L 2016 4115 
Q 1613 4096 1501 3993 
Q 1389 3891 1389 3526 
L 1389 717 
Q 1389 358 1504 246 
Q 1619 134 2016 122 
L 2016 0 
z
" transform="scale(0.015625)"/>
       <path id="STIXGeneral-Regular-6d" d="M 4960 0 
L 3565 0 
L 3565 96 
Q 3834 122 3907 208 
Q 3981 294 3981 576 
L 3981 1894 
Q 3981 2278 3869 2444 
Q 3757 2611 3488 2611 
Q 3264 2611 3107 2521 
Q 2950 2432 2803 2221 
L 2803 608 
Q 2803 301 2896 201 
Q 2989 102 3264 96 
L 3264 0 
L 1830 0 
L 1830 96 
Q 2112 115 2189 188 
Q 2266 262 2266 550 
L 2266 1901 
Q 2266 2611 1850 2611 
Q 1670 2611 1468 2531 
Q 1267 2451 1171 2336 
Q 1088 2240 1088 2227 
L 1088 448 
Q 1088 243 1177 176 
Q 1267 109 1523 96 
L 1523 0 
L 102 0 
L 102 96 
Q 371 102 460 195 
Q 550 288 550 563 
L 550 2150 
Q 550 2387 499 2480 
Q 448 2573 326 2573 
Q 230 2573 122 2547 
L 122 2656 
Q 557 2778 1011 2944 
L 1062 2925 
L 1062 2451 
L 1075 2451 
Q 1363 2752 1584 2848 
Q 1805 2944 2054 2944 
Q 2560 2944 2733 2406 
Q 3232 2944 3776 2944 
Q 4518 2944 4518 1792 
L 4518 493 
Q 4518 282 4582 202 
Q 4646 122 4794 109 
L 4960 96 
L 4960 0 
z
" transform="scale(0.015625)"/>
      </defs>
      <use xlink:href="#STIXGeneral-Regular-49"/>
      <use xlink:href="#STIXGeneral-Regular-6d" transform="translate(33.299988 0)"/>
      <use xlink:href="#STIXGeneral-Regular-61" transform="translate(111.099976 0)"/>
      <use xlink:href="#STIXGeneral-Regular-67" transform="translate(155.499969 0)"/>
      <use xlink:href="#STIXGeneral-Regular-69" transform="translate(205.499954 0)"/>
      <use xlink:href="#STIXGeneral-Regular-6e" transform="translate(233.299942 0)"/>
      <use xlink:href="#STIXGeneral-Regular-61" transform="translate(283.299927 0)"/>
      <use xlink:href="#STIXGeneral-Regular-72" transform="translate(327.699921 0)"/>
      <use xlink:href="#STIXGeneral-Regular-79" transform="translate(360.999908 0)"/>
      <use xlink:href="#STIXGeneral-Regular-20" transform="translate(410.999893 0)"/>
      <use xlink:href="#STIXGeneral-Regular-50" transform="translate(435.999878 0)"/>
      <use xlink:href="#STIXGeneral-Regular-61" transform="translate(491.699875 0)"/>
      <use xlink:href="#STIXGeneral-Regular-72" transform="translate(536.099869 0)"/>
      <use xlink:href="#STIXGeneral-Regular-74" transform="translate(569.399857 0)"/>
     </g>
    </g>
   </g>
  </g>
  <g id="axes_2">
   <g id="patch_8">
    <path d="M 580.255625 314.629375 
L 1064.88 314.629375 
L 1064.88 21.455625 
L 580.255625 21.455625 
z
" style="fill: #ffffff"/>
   </g>
   <g id="matplotlib.axis_3">
    <g id="xtick_10">
     <g id="line2d_37">
      <path d="M 602.284006 314.629375 
L 602.284006 21.455625 
" clip-path="url(#pe6b32987d5)" style="fill: none; stroke: #b0b0b0; stroke-width: 0.8; stroke-linecap: square"/>
     </g>
     <g id="line2d_38">
      <g>
       <use xlink:href="#m2a3f7c1dd9" x="602.284006" y="314.629375" style="stroke: #000000; stroke-width: 0.8"/>
      </g>
     </g>
     <g id="text_22">
      <!-- −10.0 -->
      <g transform="translate(590.109006 328.459062) scale(0.1 -0.1)">
       <use xlink:href="#STIXGeneral-Regular-2212"/>
       <use xlink:href="#STIXGeneral-Regular-31" transform="translate(68.499985 0)"/>
       <use xlink:href="#STIXGeneral-Regular-30" transform="translate(118.499969 0)"/>
       <use xlink:href="#STIXGeneral-Regular-2e" transform="translate(168.499954 0)"/>
       <use xlink:href="#STIXGeneral-Regular-30" transform="translate(193.499939 0)"/>
      </g>
     </g>
    </g>
    <g id="xtick_11">
     <g id="line2d_39">
      <path d="M 657.354957 314.629375 
L 657.354957 21.455625 
" clip-path="url(#pe6b32987d5)" style="fill: none; stroke: #b0b0b0; stroke-width: 0.8; stroke-linecap: square"/>
     </g>
     <g id="line2d_40">
      <g>
       <use xlink:href="#m2a3f7c1dd9" x="657.354957" y="314.629375" style="stroke: #000000; stroke-width: 0.8"/>
      </g>
     </g>
     <g id="text_23">
      <!-- −7.5 -->
      <g transform="translate(647.679957 328.459062) scale(0.1 -0.1)">
       <use xlink:href="#STIXGeneral-Regular-2212"/>
       <use xlink:href="#STIXGeneral-Regular-37" transform="translate(68.499985 0)"/>
       <use xlink:href="#STIXGeneral-Regular-2e" transform="translate(118.499969 0)"/>
       <use xlink:href="#STIXGeneral-Regular-35" transform="translate(143.499954 0)"/>
      </g>
     </g>
    </g>
    <g id="xtick_12">
     <g id="line2d_41">
      <path d="M 712.425909 314.629375 
L 712.425909 21.455625 
" clip-path="url(#pe6b32987d5)" style="fill: none; stroke: #b0b0b0; stroke-width: 0.8; stroke-linecap: square"/>
     </g>
     <g id="line2d_42">
      <g>
       <use xlink:href="#m2a3f7c1dd9" x="712.425909" y="314.629375" style="stroke: #000000; stroke-width: 0.8"/>
      </g>
     </g>
     <g id="text_24">
      <!-- −5.0 -->
      <g transform="translate(702.750909 328.459062) scale(0.1 -0.1)">
       <use xlink:href="#STIXGeneral-Regular-2212"/>
       <use xlink:href="#STIXGeneral-Regular-35" transform="translate(68.499985 0)"/>
       <use xlink:href="#STIXGeneral-Regular-2e" transform="translate(118.499969 0)"/>
       <use xlink:href="#STIXGeneral-Regular-30" transform="translate(143.499954 0)"/>
      </g>
     </g>
    </g>
    <g id="xtick_13">
     <g id="line2d_43">
      <path d="M 767.496861 314.629375 
L 767.496861 21.455625 
" clip-path="url(#pe6b32987d5)" style="fill: none; stroke: #b0b0b0; stroke-width: 0.8; stroke-linecap: square"/>
     </g>
     <g id="line2d_44">
      <g>
       <use xlink:href="#m2a3f7c1dd9" x="767.496861" y="314.629375" style="stroke: #000000; stroke-width: 0.8"/>
      </g>
     </g>
     <g id="text_25">
      <!-- −2.5 -->
      <g transform="translate(757.821861 328.459062) scale(0.1 -0.1)">
       <use xlink:href="#STIXGeneral-Regular-2212"/>
       <use xlink:href="#STIXGeneral-Regular-32" transform="translate(68.499985 0)"/>
       <use xlink:href="#STIXGeneral-Regular-2e" transform="translate(118.499969 0)"/>
       <use xlink:href="#STIXGeneral-Regular-35" transform="translate(143.499954 0)"/>
      </g>
     </g>
    </g>
    <g id="xtick_14">
     <g id="line2d_45">
      <path d="M 822.567813 314.629375 
L 822.567813 21.455625 
" clip-path="url(#pe6b32987d5)" style="fill: none; stroke: #b0b0b0; stroke-width: 0.8; stroke-linecap: square"/>
     </g>
     <g id="line2d_46">
      <g>
       <use xlink:href="#m2a3f7c1dd9" x="822.567813" y="314.629375" style="stroke: #000000; stroke-width: 0.8"/>
      </g>
     </g>
     <g id="text_26">
      <!-- 0.0 -->
      <g transform="translate(816.317813 328.459062) scale(0.1 -0.1)">
       <use xlink:href="#STIXGeneral-Regular-30"/>
       <use xlink:href="#STIXGeneral-Regular-2e" transform="translate(49.999985 0)"/>
       <use xlink:href="#STIXGeneral-Regular-30" transform="translate(74.999969 0)"/>
      </g>
     </g>
    </g>
    <g id="xtick_15">
     <g id="line2d_47">
      <path d="M 877.638764 314.629375 
L 877.638764 21.455625 
" clip-path="url(#pe6b32987d5)" style="fill: none; stroke: #b0b0b0; stroke-width: 0.8; stroke-linecap: square"/>
     </g>
     <g id="line2d_48">
      <g>
       <use xlink:href="#m2a3f7c1dd9" x="877.638764" y="314.629375" style="stroke: #000000; stroke-width: 0.8"/>
      </g>
     </g>
     <g id="text_27">
      <!-- 2.5 -->
      <g transform="translate(871.388764 328.459062) scale(0.1 -0.1)">
       <use xlink:href="#STIXGeneral-Regular-32"/>
       <use xlink:href="#STIXGeneral-Regular-2e" transform="translate(49.999985 0)"/>
       <use xlink:href="#STIXGeneral-Regular-35" transform="translate(74.999969 0)"/>
      </g>
     </g>
    </g>
    <g id="xtick_16">
     <g id="line2d_49">
      <path d="M 932.709716 314.629375 
L 932.709716 21.455625 
" clip-path="url(#pe6b32987d5)" style="fill: none; stroke: #b0b0b0; stroke-width: 0.8; stroke-linecap: square"/>
     </g>
     <g id="line2d_50">
      <g>
       <use xlink:href="#m2a3f7c1dd9" x="932.709716" y="314.629375" style="stroke: #000000; stroke-width: 0.8"/>
      </g>
     </g>
     <g id="text_28">
      <!-- 5.0 -->
      <g transform="translate(926.459716 328.459062) scale(0.1 -0.1)">
       <use xlink:href="#STIXGeneral-Regular-35"/>
       <use xlink:href="#STIXGeneral-Regular-2e" transform="translate(49.999985 0)"/>
       <use xlink:href="#STIXGeneral-Regular-30" transform="translate(74.999969 0)"/>
      </g>
     </g>
    </g>
    <g id="xtick_17">
     <g id="line2d_51">
      <path d="M 987.780668 314.629375 
L 987.780668 21.455625 
" clip-path="url(#pe6b32987d5)" style="fill: none; stroke: #b0b0b0; stroke-width: 0.8; stroke-linecap: square"/>
     </g>
     <g id="line2d_52">
      <g>
       <use xlink:href="#m2a3f7c1dd9" x="987.780668" y="314.629375" style="stroke: #000000; stroke-width: 0.8"/>
      </g>
     </g>
     <g id="text_29">
      <!-- 7.5 -->
      <g transform="translate(981.530668 328.459062) scale(0.1 -0.1)">
       <use xlink:href="#STIXGeneral-Regular-37"/>
       <use xlink:href="#STIXGeneral-Regular-2e" transform="translate(49.999985 0)"/>
       <use xlink:href="#STIXGeneral-Regular-35" transform="translate(74.999969 0)"/>
      </g>
     </g>
    </g>
    <g id="xtick_18">
     <g id="line2d_53">
      <path d="M 1042.851619 314.629375 
L 1042.851619 21.455625 
" clip-path="url(#pe6b32987d5)" style="fill: none; stroke: #b0b0b0; stroke-width: 0.8; stroke-linecap: square"/>
     </g>
     <g id="line2d_54">
      <g>
       <use xlink:href="#m2a3f7c1dd9" x="1042.851619" y="314.629375" style="stroke: #000000; stroke-width: 0.8"/>
      </g>
     </g>
     <g id="text_30">
      <!-- 10.0 -->
      <g transform="translate(1034.101619 328.459062) scale(0.1 -0.1)">
       <use xlink:href="#STIXGeneral-Regular-31"/>
       <use xlink:href="#STIXGeneral-Regular-30" transform="translate(49.999985 0)"/>
       <use xlink:href="#STIXGeneral-Regular-2e" transform="translate(99.999969 0)"/>
       <use xlink:href="#STIXGeneral-Regular-30" transform="translate(124.999954 0)"/>
      </g>
     </g>
    </g>
    <g id="text_31">
     <!-- x -->
     <g transform="translate(820.067813 341.459062) scale(0.1 -0.1)">
      <use xlink:href="#STIXGeneral-Regular-78"/>
     </g>
    </g>
   </g>
   <g id="matplotlib.axis_4">
    <g id="ytick_8">
     <g id="line2d_55">
      <path d="M 580.255625 301.303295 
L 1064.88 301.303295 
" clip-path="url(#pe6b32987d5)" style="fill: none; stroke: #b0b0b0; stroke-width: 0.8; stroke-linecap: square"/>
     </g>
     <g id="line2d_56">
      <g>
       <use xlink:href="#m653793a69b" x="580.255625" y="301.303295" style="stroke: #000000; stroke-width: 0.8"/>
      </g>
     </g>
     <g id="text_32">
      <!-- 0.00 -->
      <g transform="translate(555.755625 304.718139) scale(0.1 -0.1)">
       <use xlink:href="#STIXGeneral-Regular-30"/>
       <use xlink:href="#STIXGeneral-Regular-2e" transform="translate(49.999985 0)"/>
       <use xlink:href="#STIXGeneral-Regular-30" transform="translate(74.999969 0)"/>
       <use xlink:href="#STIXGeneral-Regular-30" transform="translate(124.999954 0)"/>
      </g>
     </g>
    </g>
    <g id="ytick_9">
     <g id="line2d_57">
      <path d="M 580.255625 254.498646 
L 1064.88 254.498646 
" clip-path="url(#pe6b32987d5)" style="fill: none; stroke: #b0b0b0; stroke-width: 0.8; stroke-linecap: square"/>
     </g>
     <g id="line2d_58">
      <g>
       <use xlink:href="#m653793a69b" x="580.255625" y="254.498646" style="stroke: #000000; stroke-width: 0.8"/>
      </g>
     </g>
     <g id="text_33">
      <!-- 0.02 -->
      <g transform="translate(555.755625 257.913489) scale(0.1 -0.1)">
       <use xlink:href="#STIXGeneral-Regular-30"/>
       <use xlink:href="#STIXGeneral-Regular-2e" transform="translate(49.999985 0)"/>
       <use xlink:href="#STIXGeneral-Regular-30" transform="translate(74.999969 0)"/>
       <use xlink:href="#STIXGeneral-Regular-32" transform="translate(124.999954 0)"/>
      </g>
     </g>
    </g>
    <g id="ytick_10">
     <g id="line2d_59">
      <path d="M 580.255625 207.693996 
L 1064.88 207.693996 
" clip-path="url(#pe6b32987d5)" style="fill: none; stroke: #b0b0b0; stroke-width: 0.8; stroke-linecap: square"/>
     </g>
     <g id="line2d_60">
      <g>
       <use xlink:href="#m653793a69b" x="580.255625" y="207.693996" style="stroke: #000000; stroke-width: 0.8"/>
      </g>
     </g>
     <g id="text_34">
      <!-- 0.04 -->
      <g transform="translate(555.755625 211.10884) scale(0.1 -0.1)">
       <defs>
        <path id="STIXGeneral-Regular-34" d="M 3027 1069 
L 2368 1069 
L 2368 0 
L 1869 0 
L 1869 1069 
L 77 1069 
L 77 1478 
L 2086 4326 
L 2368 4326 
L 2368 1478 
L 3027 1478 
L 3027 1069 
z
M 1869 1478 
L 1869 3674 
L 333 1478 
L 1869 1478 
z
" transform="scale(0.015625)"/>
       </defs>
       <use xlink:href="#STIXGeneral-Regular-30"/>
       <use xlink:href="#STIXGeneral-Regular-2e" transform="translate(49.999985 0)"/>
       <use xlink:href="#STIXGeneral-Regular-30" transform="translate(74.999969 0)"/>
       <use xlink:href="#STIXGeneral-Regular-34" transform="translate(124.999954 0)"/>
      </g>
     </g>
    </g>
    <g id="ytick_11">
     <g id="line2d_61">
      <path d="M 580.255625 160.889346 
L 1064.88 160.889346 
" clip-path="url(#pe6b32987d5)" style="fill: none; stroke: #b0b0b0; stroke-width: 0.8; stroke-linecap: square"/>
     </g>
     <g id="line2d_62">
      <g>
       <use xlink:href="#m653793a69b" x="580.255625" y="160.889346" style="stroke: #000000; stroke-width: 0.8"/>
      </g>
     </g>
     <g id="text_35">
      <!-- 0.06 -->
      <g transform="translate(555.755625 164.30419) scale(0.1 -0.1)">
       <use xlink:href="#STIXGeneral-Regular-30"/>
       <use xlink:href="#STIXGeneral-Regular-2e" transform="translate(49.999985 0)"/>
       <use xlink:href="#STIXGeneral-Regular-30" transform="translate(74.999969 0)"/>
       <use xlink:href="#STIXGeneral-Regular-36" transform="translate(124.999954 0)"/>
      </g>
     </g>
    </g>
    <g id="ytick_12">
     <g id="line2d_63">
      <path d="M 580.255625 114.084696 
L 1064.88 114.084696 
" clip-path="url(#pe6b32987d5)" style="fill: none; stroke: #b0b0b0; stroke-width: 0.8; stroke-linecap: square"/>
     </g>
     <g id="line2d_64">
      <g>
       <use xlink:href="#m653793a69b" x="580.255625" y="114.084696" style="stroke: #000000; stroke-width: 0.8"/>
      </g>
     </g>
     <g id="text_36">
      <!-- 0.08 -->
      <g transform="translate(555.755625 117.49954) scale(0.1 -0.1)">
       <defs>
        <path id="STIXGeneral-Regular-38" d="M 2848 992 
Q 2848 499 2505 204 
Q 2163 -90 1587 -90 
Q 1050 -90 704 204 
Q 358 499 358 954 
Q 358 1293 524 1533 
Q 691 1773 1190 2125 
Q 710 2522 553 2765 
Q 397 3008 397 3328 
Q 397 3782 745 4054 
Q 1094 4326 1638 4326 
Q 2106 4326 2410 4060 
Q 2714 3795 2714 3411 
Q 2714 3059 2531 2848 
Q 2349 2637 1856 2374 
Q 2432 1990 2640 1689 
Q 2848 1389 2848 992 
z
M 2272 3411 
Q 2272 3744 2086 3945 
Q 1901 4147 1574 4147 
Q 1248 4147 1059 3977 
Q 870 3808 870 3513 
Q 870 3219 1059 2979 
Q 1248 2739 1670 2490 
Q 1997 2682 2134 2896 
Q 2272 3110 2272 3411 
z
M 1734 1741 
L 1357 1997 
Q 1075 1766 960 1545 
Q 845 1325 845 1011 
Q 845 576 1065 333 
Q 1286 90 1658 90 
Q 1971 90 2166 285 
Q 2362 480 2362 794 
Q 2362 1082 2214 1299 
Q 2067 1517 1734 1741 
z
" transform="scale(0.015625)"/>
       </defs>
       <use xlink:href="#STIXGeneral-Regular-30"/>
       <use xlink:href="#STIXGeneral-Regular-2e" transform="translate(49.999985 0)"/>
       <use xlink:href="#STIXGeneral-Regular-30" transform="translate(74.999969 0)"/>
       <use xlink:href="#STIXGeneral-Regular-38" transform="translate(124.999954 0)"/>
      </g>
     </g>
    </g>
    <g id="ytick_13">
     <g id="line2d_65">
      <path d="M 580.255625 67.280046 
L 1064.88 67.280046 
" clip-path="url(#pe6b32987d5)" style="fill: none; stroke: #b0b0b0; stroke-width: 0.8; stroke-linecap: square"/>
     </g>
     <g id="line2d_66">
      <g>
       <use xlink:href="#m653793a69b" x="580.255625" y="67.280046" style="stroke: #000000; stroke-width: 0.8"/>
      </g>
     </g>
     <g id="text_37">
      <!-- 0.10 -->
      <g transform="translate(555.755625 70.69489) scale(0.1 -0.1)">
       <use xlink:href="#STIXGeneral-Regular-30"/>
       <use xlink:href="#STIXGeneral-Regular-2e" transform="translate(49.999985 0)"/>
       <use xlink:href="#STIXGeneral-Regular-31" transform="translate(74.999969 0)"/>
       <use xlink:href="#STIXGeneral-Regular-30" transform="translate(124.999954 0)"/>
      </g>
     </g>
    </g>
    <g id="text_38">
     <!-- Wavefunction Magnitude -->
     <g transform="translate(549.575938 219.283906) rotate(-90) scale(0.1 -0.1)">
      <defs>
       <path id="STIXGeneral-Regular-4d" d="M 5530 0 
L 3738 0 
L 3738 122 
Q 4115 147 4214 265 
Q 4314 384 4314 787 
L 4314 3661 
L 2682 0 
L 2592 0 
L 979 3514 
L 979 966 
Q 979 448 1088 294 
Q 1197 141 1574 122 
L 1574 0 
L 77 0 
L 77 122 
Q 358 141 480 205 
Q 602 269 650 432 
Q 698 595 698 966 
L 698 3514 
Q 698 3878 589 3984 
Q 480 4090 90 4115 
L 90 4237 
L 1357 4237 
L 2835 1024 
L 4250 4237 
L 5523 4237 
L 5523 4115 
Q 5178 4109 5072 3993 
Q 4966 3878 4966 3520 
L 4966 717 
Q 4966 378 5072 262 
Q 5178 147 5530 122 
L 5530 0 
z
" transform="scale(0.015625)"/>
       <path id="STIXGeneral-Regular-64" d="M 3142 269 
L 2202 -64 
L 2176 -45 
L 2176 365 
Q 1869 -64 1357 -64 
Q 826 -64 499 317 
Q 173 698 173 1312 
Q 173 1990 563 2467 
Q 954 2944 1504 2944 
Q 1850 2944 2176 2669 
L 2176 3667 
Q 2176 3866 2118 3930 
Q 2061 3994 1882 3994 
Q 1792 3994 1741 3987 
L 1741 4090 
Q 2323 4243 2682 4371 
L 2714 4358 
L 2714 730 
Q 2714 506 2768 435 
Q 2822 365 2995 365 
Q 3034 365 3142 371 
L 3142 269 
z
M 2176 653 
L 2176 2125 
Q 2176 2381 1981 2573 
Q 1786 2765 1523 2765 
Q 1158 2765 940 2438 
Q 723 2112 723 1568 
Q 723 979 963 624 
Q 1203 269 1606 269 
Q 1907 269 2080 474 
Q 2176 582 2176 653 
z
" transform="scale(0.015625)"/>
      </defs>
      <use xlink:href="#STIXGeneral-Regular-57"/>
      <use xlink:href="#STIXGeneral-Regular-61" transform="translate(94.399994 0)"/>
      <use xlink:href="#STIXGeneral-Regular-76" transform="translate(138.799988 0)"/>
      <use xlink:href="#STIXGeneral-Regular-65" transform="translate(188.799973 0)"/>
      <use xlink:href="#STIXGeneral-Regular-66" transform="translate(233.199966 0)"/>
      <use xlink:href="#STIXGeneral-Regular-75" transform="translate(266.499954 0)"/>
      <use xlink:href="#STIXGeneral-Regular-6e" transform="translate(316.499939 0)"/>
      <use xlink:href="#STIXGeneral-Regular-63" transform="translate(366.499924 0)"/>
      <use xlink:href="#STIXGeneral-Regular-74" transform="translate(410.899918 0)"/>
      <use xlink:href="#STIXGeneral-Regular-69" transform="translate(438.699905 0)"/>
      <use xlink:href="#STIXGeneral-Regular-6f" transform="translate(466.499893 0)"/>
      <use xlink:href="#STIXGeneral-Regular-6e" transform="translate(516.499878 0)"/>
      <use xlink:href="#STIXGeneral-Regular-20" transform="translate(566.499863 0)"/>
      <use xlink:href="#STIXGeneral-Regular-4d" transform="translate(591.499847 0)"/>
      <use xlink:href="#STIXGeneral-Regular-61" transform="translate(680.399841 0)"/>
      <use xlink:href="#STIXGeneral-Regular-67" transform="translate(724.799835 0)"/>
      <use xlink:href="#STIXGeneral-Regular-6e" transform="translate(774.79982 0)"/>
      <use xlink:href="#STIXGeneral-Regular-69" transform="translate(824.799805 0)"/>
      <use xlink:href="#STIXGeneral-Regular-74" transform="translate(852.599792 0)"/>
      <use xlink:href="#STIXGeneral-Regular-75" transform="translate(880.39978 0)"/>
      <use xlink:href="#STIXGeneral-Regular-64" transform="translate(930.399765 0)"/>
      <use xlink:href="#STIXGeneral-Regular-65" transform="translate(980.39975 0)"/>
     </g>
    </g>
   </g>
   <g id="line2d_67">
    <path d="M 602.284006 301.303295 
L 603.166023 301.19945 
L 604.04804 300.888074 
L 604.930057 300.369654 
L 605.812075 299.644998 
L 607.135101 298.173878 
L 608.458126 296.2465 
L 609.781152 293.869621 
L 611.104178 291.051576 
L 612.868213 286.625219 
L 614.632247 281.459888 
L 616.396282 275.587773 
L 618.601325 267.309862 
L 620.806368 258.065662 
L 623.45242 245.82443 
L 626.098471 232.493297 
L 629.185532 215.812733 
L 633.154609 193.074718 
L 646.825877 113.340741 
L 649.912937 97.124053 
L 652.558989 84.289057 
L 655.20504 72.627627 
L 657.410083 63.92468 
L 659.615127 56.235231 
L 661.379161 50.864041 
L 663.143196 46.223071 
L 664.466221 43.239123 
L 665.789247 40.692751 
L 667.112273 38.592883 
L 668.435299 36.94688 
L 669.758325 35.760514 
L 670.640342 35.227078 
L 671.522359 34.900639 
L 672.404377 34.781705 
L 673.286394 34.870461 
L 674.168411 35.16677 
L 675.050428 35.67017 
L 675.932446 36.379876 
L 677.255471 37.828751 
L 678.578497 39.734171 
L 679.901523 42.089456 
L 681.224549 44.886347 
L 682.547575 48.115038 
L 684.311609 53.071869 
L 686.075644 58.745161 
L 687.839678 65.099559 
L 690.044722 73.939652 
L 692.249765 83.695756 
L 694.895816 96.477928 
L 697.982877 112.644475 
L 701.510946 132.394783 
L 706.803049 163.523738 
L 714.300196 207.636537 
L 717.828265 227.155042 
L 720.915325 243.042662 
L 723.561377 255.533378 
L 725.76642 265.01275 
L 727.971463 273.548194 
L 729.735498 279.640757 
L 731.499532 285.037872 
L 733.263566 289.705905 
L 734.586592 292.710795 
L 735.909618 295.278581 
L 737.232644 297.40026 
L 738.55567 299.068394 
L 739.878696 300.277133 
L 740.760713 300.825581 
L 741.64273 301.167081 
L 742.524748 301.301102 
L 743.406765 301.227435 
L 744.288782 300.946195 
L 745.170799 300.45782 
L 746.052817 299.76307 
L 747.375842 298.336452 
L 748.698868 296.453005 
L 750.021894 294.119334 
L 751.34492 291.34362 
L 752.667946 288.135596 
L 754.43198 283.205403 
L 756.196015 277.557547 
L 757.960049 271.227225 
L 760.165092 262.415087 
L 762.370136 252.684306 
L 765.016187 239.928704 
L 768.103248 223.787427 
L 771.631317 204.057866 
L 776.92342 172.942751 
L 784.420567 128.81309 
L 787.948636 109.27226 
L 789.71267 100.166683 
L 790.153679 99.415806 
L 790.594687 100.320319 
L 791.035696 102.865387 
L 791.476705 107.009273 
L 791.917713 112.684022 
L 792.79973 128.230279 
L 793.681748 148.488549 
L 795.004774 184.752745 
L 797.209817 247.465898 
L 798.091834 268.55921 
L 798.973851 285.197105 
L 799.855868 296.292662 
L 800.296877 299.519931 
L 800.737886 301.121028 
L 801.178894 301.069695 
L 801.619903 299.366774 
L 802.060912 296.040193 
L 802.50192 291.144504 
L 803.383937 276.991362 
L 804.265955 257.831948 
L 805.588981 222.513708 
L 808.235032 147.802424 
L 809.11705 127.671686 
L 809.999067 112.289454 
L 810.440075 106.707128 
L 810.881084 102.660619 
L 811.322093 100.216287 
L 811.763101 99.414216 
L 812.20411 100.267561 
L 812.645118 102.762326 
L 813.086127 106.857601 
L 813.527136 112.486224 
L 814.409153 127.950665 
L 815.29117 148.145386 
L 816.614196 184.357195 
L 818.819239 247.111323 
L 819.701256 268.263415 
L 820.583274 284.979415 
L 821.465291 296.167298 
L 821.9063 299.444204 
L 822.347308 301.096179 
L 822.788317 301.096132 
L 823.229325 299.444065 
L 823.670334 296.167068 
L 824.111343 291.318884 
L 824.99336 277.25144 
L 825.875377 258.160733 
L 827.198403 222.904256 
L 829.844455 148.144763 
L 830.726472 127.950158 
L 831.608489 112.485866 
L 832.049498 106.857326 
L 832.490507 102.76214 
L 832.931515 100.267466 
L 833.372524 99.414215 
L 833.813532 100.216378 
L 834.254541 102.660802 
L 834.69555 106.7074 
L 835.136558 112.28981 
L 836.018575 127.672192 
L 836.900593 147.803046 
L 838.223619 183.961898 
L 840.428662 246.756012 
L 841.310679 267.966551 
L 842.192696 284.760393 
L 843.074713 296.040425 
L 843.515722 299.366916 
L 843.956731 301.069744 
L 844.397739 301.120984 
L 844.838748 299.519795 
L 845.279757 296.292435 
L 845.720765 291.491832 
L 846.602782 277.510307 
L 847.4848 258.488608 
L 848.807826 223.294449 
L 851.453877 148.487924 
L 852.335895 128.229769 
L 853.217912 112.683661 
L 853.65892 107.008996 
L 854.099929 102.865198 
L 854.540938 100.320221 
L 854.981946 99.415802 
L 855.422955 100.166772 
L 856.745981 106.922875 
L 860.27405 126.306835 
L 864.684136 151.938294 
L 875.268343 214.06605 
L 878.796412 233.161417 
L 881.883472 248.555712 
L 884.529524 260.539514 
L 886.734567 269.542542 
L 888.93961 277.557547 
L 890.703645 283.205403 
L 892.467679 288.135596 
L 894.231714 292.317405 
L 895.554739 294.946776 
L 896.877765 297.131204 
L 898.200791 298.86303 
L 899.523817 300.136182 
L 900.405834 300.727859 
L 901.287852 301.112742 
L 902.169869 301.29023 
L 903.051886 301.260047 
L 903.933903 301.02224 
L 904.815921 300.577179 
L 905.697938 299.925559 
L 906.579955 299.068394 
L 907.902981 297.40026 
L 909.226007 295.278581 
L 910.549033 292.710795 
L 911.872059 289.705905 
L 913.636093 285.037872 
L 915.400127 279.640757 
L 917.164162 273.548194 
L 919.369205 265.01275 
L 921.574248 255.533378 
L 924.2203 243.042662 
L 926.866352 229.501023 
L 930.394421 210.140489 
L 934.804507 184.525565 
L 945.388714 122.377344 
L 948.916783 103.256828 
L 952.003843 87.833687 
L 954.649895 75.820508 
L 956.854938 66.790031 
L 959.059981 58.745161 
L 960.824016 53.071869 
L 962.58805 48.115038 
L 964.352085 43.905556 
L 965.67511 41.254854 
L 966.998136 39.048684 
L 968.321162 37.294782 
L 969.644188 35.999296 
L 970.526205 35.392625 
L 971.408223 34.992693 
L 972.29024 34.800123 
L 973.172257 34.815214 
L 974.054274 35.037944 
L 974.936291 35.467966 
L 975.818309 36.104608 
L 976.700326 36.94688 
L 978.023352 38.592883 
L 979.346378 40.692751 
L 980.669404 43.239123 
L 981.992429 46.223071 
L 983.756464 50.864041 
L 985.520498 56.235231 
L 987.284533 62.303168 
L 989.489576 70.809888 
L 991.694619 80.263086 
L 994.340671 92.726115 
L 996.986723 106.244488 
L 1000.514792 125.581437 
L 1004.924878 151.179615 
L 1015.509085 213.347789 
L 1019.037154 232.493297 
L 1022.124214 247.945158 
L 1024.770266 259.987615 
L 1026.975309 269.045467 
L 1029.180352 277.120135 
L 1030.944387 282.818816 
L 1032.708421 287.802244 
L 1034.472455 292.039364 
L 1035.795481 294.711376 
L 1037.118507 296.93927 
L 1038.441533 298.715234 
L 1039.764559 300.033042 
L 1040.646576 300.654702 
L 1041.528593 301.06968 
L 1042.410611 301.277331 
L 1042.851619 301.303295 
L 1042.851619 301.303295 
" clip-path="url(#pe6b32987d5)" style="fill: none; stroke: #800080; stroke-width: 1.5; stroke-linecap: square"/>
   </g>
   <g id="patch_9">
    <path d="M 580.255625 314.629375 
L 580.255625 21.455625 
" style="fill: none; stroke: #000000; stroke-width: 0.8; stroke-linejoin: miter; stroke-linecap: square"/>
   </g>
   <g id="patch_10">
    <path d="M 1064.88 314.629375 
L 1064.88 21.455625 
" style="fill: none; stroke: #000000; stroke-width: 0.8; stroke-linejoin: miter; stroke-linecap: square"/>
   </g>
   <g id="patch_11">
    <path d="M 580.255625 314.629375 
L 1064.88 314.629375 
" style="fill: none; stroke: #000000; stroke-width: 0.8; stroke-linejoin: miter; stroke-linecap: square"/>
   </g>
   <g id="patch_12">
    <path d="M 580.255625 21.455625 
L 1064.88 21.455625 
" style="fill: none; stroke: #000000; stroke-width: 0.8; stroke-linejoin: miter; stroke-linecap: square"/>
   </g>
   <g id="text_39">
    <!-- Wavefunction for Energy = 5.121532663009955 eV -->
    <g transform="translate(696.146875 15.455625) scale(0.12 -0.12)">
     <use xlink:href="#STIXGeneral-Regular-57"/>
     <use xlink:href="#STIXGeneral-Regular-61" transform="translate(94.399994 0)"/>
     <use xlink:href="#STIXGeneral-Regular-76" transform="translate(138.799988 0)"/>
     <use xlink:href="#STIXGeneral-Regular-65" transform="translate(188.799973 0)"/>
     <use xlink:href="#STIXGeneral-Regular-66" transform="translate(233.199966 0)"/>
     <use xlink:href="#STIXGeneral-Regular-75" transform="translate(266.499954 0)"/>
     <use xlink:href="#STIXGeneral-Regular-6e" transform="translate(316.499939 0)"/>
     <use xlink:href="#STIXGeneral-Regular-63" transform="translate(366.499924 0)"/>
     <use xlink:href="#STIXGeneral-Regular-74" transform="translate(410.899918 0)"/>
     <use xlink:href="#STIXGeneral-Regular-69" transform="translate(438.699905 0)"/>
     <use xlink:href="#STIXGeneral-Regular-6f" transform="translate(466.499893 0)"/>
     <use xlink:href="#STIXGeneral-Regular-6e" transform="translate(516.499878 0)"/>
     <use xlink:href="#STIXGeneral-Regular-20" transform="translate(566.499863 0)"/>
     <use xlink:href="#STIXGeneral-Regular-66" transform="translate(591.499847 0)"/>
     <use xlink:href="#STIXGeneral-Regular-6f" transform="translate(624.799835 0)"/>
     <use xlink:href="#STIXGeneral-Regular-72" transform="translate(674.79982 0)"/>
     <use xlink:href="#STIXGeneral-Regular-20" transform="translate(708.099808 0)"/>
     <use xlink:href="#STIXGeneral-Regular-45" transform="translate(733.099792 0)"/>
     <use xlink:href="#STIXGeneral-Regular-6e" transform="translate(794.199783 0)"/>
     <use xlink:href="#STIXGeneral-Regular-65" transform="translate(844.199768 0)"/>
     <use xlink:href="#STIXGeneral-Regular-72" transform="translate(888.599762 0)"/>
     <use xlink:href="#STIXGeneral-Regular-67" transform="translate(921.89975 0)"/>
     <use xlink:href="#STIXGeneral-Regular-79" transform="translate(971.899734 0)"/>
     <use xlink:href="#STIXGeneral-Regular-20" transform="translate(1021.899719 0)"/>
     <use xlink:href="#STIXGeneral-Regular-3d" transform="translate(1046.899704 0)"/>
     <use xlink:href="#STIXGeneral-Regular-20" transform="translate(1115.399689 0)"/>
     <use xlink:href="#STIXGeneral-Regular-35" transform="translate(1140.399673 0)"/>
     <use xlink:href="#STIXGeneral-Regular-2e" transform="translate(1190.399658 0)"/>
     <use xlink:href="#STIXGeneral-Regular-31" transform="translate(1215.399643 0)"/>
     <use xlink:href="#STIXGeneral-Regular-32" transform="translate(1265.399628 0)"/>
     <use xlink:href="#STIXGeneral-Regular-31" transform="translate(1315.399612 0)"/>
     <use xlink:href="#STIXGeneral-Regular-35" transform="translate(1365.399597 0)"/>
     <use xlink:href="#STIXGeneral-Regular-33" transform="translate(1415.399582 0)"/>
     <use xlink:href="#STIXGeneral-Regular-32" transform="translate(1465.399567 0)"/>
     <use xlink:href="#STIXGeneral-Regular-36" transform="translate(1515.399551 0)"/>
     <use xlink:href="#STIXGeneral-Regular-36" transform="translate(1565.399536 0)"/>
     <use xlink:href="#STIXGeneral-Regular-33" transform="translate(1615.399521 0)"/>
     <use xlink:href="#STIXGeneral-Regular-30" transform="translate(1665.399506 0)"/>
     <use xlink:href="#STIXGeneral-Regular-30" transform="translate(1715.39949 0)"/>
     <use xlink:href="#STIXGeneral-Regular-39" transform="translate(1765.399475 0)"/>
     <use xlink:href="#STIXGeneral-Regular-39" transform="translate(1815.39946 0)"/>
     <use xlink:href="#STIXGeneral-Regular-35" transform="translate(1865.399445 0)"/>
     <use xlink:href="#STIXGeneral-Regular-35" transform="translate(1915.399429 0)"/>
     <use xlink:href="#STIXGeneral-Regular-20" transform="translate(1965.399414 0)"/>
     <use xlink:href="#STIXGeneral-Regular-65" transform="translate(1990.399399 0)"/>
     <use xlink:href="#STIXGeneral-Regular-56" transform="translate(2034.799393 0)"/>
    </g>
   </g>
   <g id="legend_2">
    <g id="patch_13">
     <path d="M 1002.76125 43.625938 
L 1057.88 43.625938 
Q 1059.88 43.625938 1059.88 41.625938 
L 1059.88 28.455625 
Q 1059.88 26.455625 1057.88 26.455625 
L 1002.76125 26.455625 
Q 1000.76125 26.455625 1000.76125 28.455625 
L 1000.76125 41.625938 
Q 1000.76125 43.625938 1002.76125 43.625938 
z
" style="fill: #ffffff; opacity: 0.8; stroke: #cccccc; stroke-linejoin: miter"/>
    </g>
    <g id="line2d_68">
     <path d="M 1004.76125 33.955625 
L 1014.76125 33.955625 
L 1024.76125 33.955625 
" style="fill: none; stroke: #800080; stroke-width: 1.5; stroke-linecap: square"/>
    </g>
    <g id="text_40">
     <!-- |Ψ(x)| -->
     <g transform="translate(1032.76125 37.455625) scale(0.1 -0.1)">
      <defs>
       <path id="STIXGeneral-Regular-7c" d="M 851 -90 
L 429 -90 
L 429 4326 
L 851 4326 
L 851 -90 
z
" transform="scale(0.015625)"/>
       <path id="STIXGeneral-Regular-3a8" d="M 4634 4416 
L 4634 4294 
Q 4467 4262 4400 4054 
Q 4333 3846 4333 3629 
Q 4333 3533 4345 3341 
Q 4358 3149 4358 3053 
Q 4358 2598 4118 2291 
Q 3878 1984 3520 1856 
Q 3162 1728 2714 1728 
L 2714 710 
Q 2714 339 2851 236 
Q 2989 134 3373 122 
L 3373 0 
L 1414 0 
L 1414 122 
Q 1830 141 1945 259 
Q 2061 378 2061 794 
L 2061 1728 
Q 1613 1728 1254 1856 
Q 896 1984 656 2291 
Q 416 2598 416 3053 
Q 416 3149 429 3341 
Q 442 3533 442 3629 
Q 442 3846 374 4054 
Q 307 4262 141 4294 
L 141 4416 
Q 1133 4416 1133 3258 
Q 1133 3046 1145 2886 
Q 1158 2726 1212 2544 
Q 1267 2362 1353 2243 
Q 1440 2125 1603 2045 
Q 1766 1965 1990 1965 
L 2061 1965 
L 2061 3597 
Q 2061 3910 1904 4012 
Q 1747 4115 1414 4115 
L 1414 4237 
L 3373 4237 
L 3373 4115 
Q 3027 4115 2870 4019 
Q 2714 3923 2714 3597 
L 2714 1965 
L 2784 1965 
Q 3008 1965 3171 2045 
Q 3334 2125 3420 2243 
Q 3507 2362 3561 2544 
Q 3616 2726 3629 2886 
Q 3642 3046 3642 3258 
Q 3642 4416 4634 4416 
z
" transform="scale(0.015625)"/>
       <path id="STIXGeneral-Regular-28" d="M 1946 -1030 
L 1869 -1133 
Q 1126 -710 716 32 
Q 307 774 307 1613 
Q 307 3386 1888 4326 
L 1946 4224 
Q 1293 3667 1075 3126 
Q 858 2586 858 1632 
Q 858 685 1082 96 
Q 1306 -493 1946 -1030 
z
" transform="scale(0.015625)"/>
       <path id="STIXGeneral-Regular-29" d="M 186 4224 
L 262 4326 
Q 992 3891 1408 3148 
Q 1824 2406 1824 1581 
Q 1824 -166 243 -1133 
L 186 -1030 
Q 845 -486 1059 54 
Q 1274 595 1274 1562 
Q 1274 2534 1059 3120 
Q 845 3706 186 4224 
z
" transform="scale(0.015625)"/>
      </defs>
      <use xlink:href="#STIXGeneral-Regular-7c"/>
      <use xlink:href="#STIXGeneral-Regular-3a8" transform="translate(19.999985 0)"/>
      <use xlink:href="#STIXGeneral-Regular-28" transform="translate(94.599976 0)"/>
      <use xlink:href="#STIXGeneral-Regular-78" transform="translate(127.899963 0)"/>
      <use xlink:href="#STIXGeneral-Regular-29" transform="translate(177.899948 0)"/>
      <use xlink:href="#STIXGeneral-Regular-7c" transform="translate(211.199936 0)"/>
     </g>
    </g>
   </g>
  </g>
 </g>
 <defs>
  <clipPath id="pf05fe41e0e">
   <rect x="46.55" y="21.455625" width="484.624375" height="293.17375"/>
  </clipPath>
  <clipPath id="pe6b32987d5">
   <rect x="580.255625" y="21.455625" width="484.624375" height="293.17375"/>
  </clipPath>
 </defs>
</svg>
