<?xml version="1.0" encoding="utf-8" standalone="no"?>
<!DOCTYPE svg PUBLIC "-//W3C//DTD SVG 1.1//EN"
  "http://www.w3.org/Graphics/SVG/1.1/DTD/svg11.dtd">
<svg xmlns:xlink="http://www.w3.org/1999/xlink" width="604.9pt" height="376.04pt" viewBox="0 0 604.9 376.04" xmlns="http://www.w3.org/2000/svg" version="1.1">
 <metadata>
  <rdf:RDF xmlns:dc="http://purl.org/dc/elements/1.1/" xmlns:cc="http://creativecommons.org/ns#" xmlns:rdf="http://www.w3.org/1999/02/22-rdf-syntax-ns#">
   <cc:Work>
    <dc:type rdf:resource="http://purl.org/dc/dcmitype/StillImage"/>
    <dc:date>2025-08-27T15:00:39.097328</dc:date>
    <dc:format>image/svg+xml</dc:format>
    <dc:creator>
     <cc:Agent>
      <dc:title>Matplotlib v3.10.5, https://matplotlib.org/</dc:title>
     </cc:Agent>
    </dc:creator>
   </cc:Work>
  </rdf:RDF>
 </metadata>
 <defs>
  <style type="text/css">*{stroke-linejoin: round; stroke-linecap: butt}</style>
 </defs>
 <g id="figure_1">
  <g id="patch_1">
   <path d="M 0 376.04 
L 604.9 376.04 
L 604.9 0 
L 0 0 
z
" style="fill: #ffffff"/>
  </g>
  <g id="axes_1">
   <g id="patch_2">
    <path d="M 39.7 339.84 
L 597.7 339.84 
L 597.7 7.2 
L 39.7 7.2 
z
" style="fill: #ffffff"/>
   </g>
   <g id="matplotlib.axis_1">
    <g id="xtick_1">
     <g id="line2d_1">
      <defs>
       <path id="ma0f7c73182" d="M 0 0 
L 0 3.5 
" style="stroke: #000000; stroke-width: 0.8"/>
      </defs>
      <g>
       <use xlink:href="#ma0f7c73182" x="65.063636" y="339.84" style="stroke: #000000; stroke-width: 0.8"/>
      </g>
     </g>
     <g id="text_1">
      <!-- −30 -->
      <g transform="translate(56.638636 353.669688) scale(0.1 -0.1)">
       <defs>
        <path id="STIXGeneral-Regular-2212" d="M 3974 1408 
L 410 1408 
L 410 1830 
L 3974 1830 
L 3974 1408 
z
" transform="scale(0.015625)"/>
        <path id="STIXGeneral-Regular-33" d="M 390 3264 
L 288 3290 
Q 435 3770 748 4048 
Q 1062 4326 1542 4326 
Q 1990 4326 2265 4083 
Q 2541 3840 2541 3450 
Q 2541 2925 1946 2566 
Q 2298 2413 2477 2227 
Q 2758 1914 2758 1402 
Q 2758 890 2464 506 
Q 2246 211 1840 60 
Q 1434 -90 979 -90 
Q 262 -90 262 275 
Q 262 378 339 442 
Q 416 506 525 506 
Q 685 506 915 339 
Q 1197 141 1466 141 
Q 1818 141 2058 425 
Q 2298 710 2298 1120 
Q 2298 1856 1632 2048 
Q 1434 2112 979 2112 
L 979 2202 
Q 1338 2323 1517 2432 
Q 2035 2726 2035 3290 
Q 2035 3610 1852 3776 
Q 1670 3942 1344 3942 
Q 768 3942 390 3264 
z
" transform="scale(0.015625)"/>
        <path id="STIXGeneral-Regular-30" d="M 3046 2112 
Q 3046 1683 2963 1302 
Q 2880 922 2717 602 
Q 2554 282 2266 96 
Q 1978 -90 1600 -90 
Q 1210 -90 915 108 
Q 621 307 461 640 
Q 301 973 227 1350 
Q 154 1728 154 2150 
Q 154 2746 301 3222 
Q 448 3699 790 4012 
Q 1133 4326 1626 4326 
Q 2253 4326 2649 3712 
Q 3046 3098 3046 2112 
z
M 2432 2080 
Q 2432 3091 2217 3625 
Q 2003 4160 1587 4160 
Q 1190 4160 979 3622 
Q 768 3085 768 2106 
Q 768 1120 979 598 
Q 1190 77 1600 77 
Q 2003 77 2217 598 
Q 2432 1120 2432 2080 
z
" transform="scale(0.015625)"/>
       </defs>
       <use xlink:href="#STIXGeneral-Regular-2212"/>
       <use xlink:href="#STIXGeneral-Regular-33" transform="translate(68.499985 0)"/>
       <use xlink:href="#STIXGeneral-Regular-30" transform="translate(118.499969 0)"/>
      </g>
     </g>
    </g>
    <g id="xtick_2">
     <g id="line2d_2">
      <g>
       <use xlink:href="#ma0f7c73182" x="149.609091" y="339.84" style="stroke: #000000; stroke-width: 0.8"/>
      </g>
     </g>
     <g id="text_2">
      <!-- −20 -->
      <g transform="translate(141.184091 353.669688) scale(0.1 -0.1)">
       <defs>
        <path id="STIXGeneral-Regular-32" d="M 3034 877 
L 2688 0 
L 186 0 
L 186 77 
L 1325 1286 
Q 1773 1754 1965 2144 
Q 2157 2534 2157 2950 
Q 2157 3379 1920 3616 
Q 1683 3853 1267 3853 
Q 922 3853 720 3673 
Q 518 3494 326 3021 
L 192 3053 
Q 301 3648 630 3987 
Q 960 4326 1523 4326 
Q 2054 4326 2380 4006 
Q 2707 3686 2707 3200 
Q 2707 2477 1888 1613 
L 832 486 
L 2330 486 
Q 2541 486 2665 569 
Q 2790 653 2944 915 
L 3034 877 
z
" transform="scale(0.015625)"/>
       </defs>
       <use xlink:href="#STIXGeneral-Regular-2212"/>
       <use xlink:href="#STIXGeneral-Regular-32" transform="translate(68.499985 0)"/>
       <use xlink:href="#STIXGeneral-Regular-30" transform="translate(118.499969 0)"/>
      </g>
     </g>
    </g>
    <g id="xtick_3">
     <g id="line2d_3">
      <g>
       <use xlink:href="#ma0f7c73182" x="234.154545" y="339.84" style="stroke: #000000; stroke-width: 0.8"/>
      </g>
     </g>
     <g id="text_3">
      <!-- −10 -->
      <g transform="translate(225.729545 353.669688) scale(0.1 -0.1)">
       <defs>
        <path id="STIXGeneral-Regular-31" d="M 2522 0 
L 755 0 
L 755 96 
Q 1107 115 1235 227 
Q 1363 339 1363 608 
L 1363 3482 
Q 1363 3795 1171 3795 
Q 1082 3795 883 3718 
L 710 3654 
L 710 3744 
L 1856 4326 
L 1914 4307 
L 1914 486 
Q 1914 275 2042 185 
Q 2170 96 2522 96 
L 2522 0 
z
" transform="scale(0.015625)"/>
       </defs>
       <use xlink:href="#STIXGeneral-Regular-2212"/>
       <use xlink:href="#STIXGeneral-Regular-31" transform="translate(68.499985 0)"/>
       <use xlink:href="#STIXGeneral-Regular-30" transform="translate(118.499969 0)"/>
      </g>
     </g>
    </g>
    <g id="xtick_4">
     <g id="line2d_4">
      <g>
       <use xlink:href="#ma0f7c73182" x="318.7" y="339.84" style="stroke: #000000; stroke-width: 0.8"/>
      </g>
     </g>
     <g id="text_4">
      <!-- 0 -->
      <g transform="translate(316.2 353.669688) scale(0.1 -0.1)">
       <use xlink:href="#STIXGeneral-Regular-30"/>
      </g>
     </g>
    </g>
    <g id="xtick_5">
     <g id="line2d_5">
      <g>
       <use xlink:href="#ma0f7c73182" x="403.245455" y="339.84" style="stroke: #000000; stroke-width: 0.8"/>
      </g>
     </g>
     <g id="text_5">
      <!-- 10 -->
      <g transform="translate(398.245455 353.669688) scale(0.1 -0.1)">
       <use xlink:href="#STIXGeneral-Regular-31"/>
       <use xlink:href="#STIXGeneral-Regular-30" transform="translate(49.999985 0)"/>
      </g>
     </g>
    </g>
    <g id="xtick_6">
     <g id="line2d_6">
      <g>
       <use xlink:href="#ma0f7c73182" x="487.790909" y="339.84" style="stroke: #000000; stroke-width: 0.8"/>
      </g>
     </g>
     <g id="text_6">
      <!-- 20 -->
      <g transform="translate(482.790909 353.669688) scale(0.1 -0.1)">
       <use xlink:href="#STIXGeneral-Regular-32"/>
       <use xlink:href="#STIXGeneral-Regular-30" transform="translate(49.999985 0)"/>
      </g>
     </g>
    </g>
    <g id="xtick_7">
     <g id="line2d_7">
      <g>
       <use xlink:href="#ma0f7c73182" x="572.336364" y="339.84" style="stroke: #000000; stroke-width: 0.8"/>
      </g>
     </g>
     <g id="text_7">
      <!-- 30 -->
      <g transform="translate(567.336364 353.669688) scale(0.1 -0.1)">
       <use xlink:href="#STIXGeneral-Regular-33"/>
       <use xlink:href="#STIXGeneral-Regular-30" transform="translate(49.999985 0)"/>
      </g>
     </g>
    </g>
    <g id="text_8">
     <!-- x -->
     <g transform="translate(316.2 366.669688) scale(0.1 -0.1)">
      <defs>
       <path id="STIXGeneral-Regular-78" d="M 3066 0 
L 1779 0 
L 1779 96 
Q 1939 109 1987 137 
Q 2035 166 2035 250 
Q 2035 307 1997 365 
L 1414 1261 
L 909 474 
Q 781 275 781 211 
Q 781 96 1037 96 
L 1037 0 
L 109 0 
L 109 96 
Q 269 109 355 169 
Q 442 230 576 422 
L 1306 1478 
L 704 2400 
Q 557 2624 454 2704 
Q 352 2784 211 2784 
L 154 2784 
L 154 2880 
L 1478 2880 
L 1478 2784 
Q 1203 2778 1203 2643 
Q 1203 2509 1498 2074 
Q 1581 1958 1587 1946 
Q 1619 1990 1779 2227 
Q 1811 2285 1856 2349 
Q 1901 2413 1923 2451 
Q 1946 2490 1971 2528 
Q 1997 2566 2006 2595 
Q 2016 2624 2016 2643 
Q 2016 2765 1760 2784 
L 1760 2880 
L 2771 2880 
L 2771 2784 
Q 2445 2771 2253 2502 
L 1722 1734 
L 2541 480 
Q 2790 96 3066 96 
L 3066 0 
z
" transform="scale(0.015625)"/>
      </defs>
      <use xlink:href="#STIXGeneral-Regular-78"/>
     </g>
    </g>
   </g>
   <g id="matplotlib.axis_2">
    <g id="ytick_1">
     <g id="line2d_8">
      <defs>
       <path id="m8959acdd6d" d="M 0 0 
L -3.5 0 
" style="stroke: #000000; stroke-width: 0.8"/>
      </defs>
      <g>
       <use xlink:href="#m8959acdd6d" x="39.7" y="324.72" style="stroke: #000000; stroke-width: 0.8"/>
      </g>
     </g>
     <g id="text_9">
      <!-- 0.0 -->
      <g transform="translate(20.2 328.134844) scale(0.1 -0.1)">
       <defs>
        <path id="STIXGeneral-Regular-2e" d="M 1158 275 
Q 1158 134 1052 32 
Q 947 -70 800 -70 
Q 653 -70 550 32 
Q 448 134 448 281 
Q 448 429 553 534 
Q 659 640 806 640 
Q 947 640 1052 531 
Q 1158 422 1158 275 
z
" transform="scale(0.015625)"/>
       </defs>
       <use xlink:href="#STIXGeneral-Regular-30"/>
       <use xlink:href="#STIXGeneral-Regular-2e" transform="translate(49.999985 0)"/>
       <use xlink:href="#STIXGeneral-Regular-30" transform="translate(74.999969 0)"/>
      </g>
     </g>
    </g>
    <g id="ytick_2">
     <g id="line2d_9">
      <g>
       <use xlink:href="#m8959acdd6d" x="39.7" y="257.543232" style="stroke: #000000; stroke-width: 0.8"/>
      </g>
     </g>
     <g id="text_10">
      <!-- 0.1 -->
      <g transform="translate(20.2 260.958076) scale(0.1 -0.1)">
       <use xlink:href="#STIXGeneral-Regular-30"/>
       <use xlink:href="#STIXGeneral-Regular-2e" transform="translate(49.999985 0)"/>
       <use xlink:href="#STIXGeneral-Regular-31" transform="translate(74.999969 0)"/>
      </g>
     </g>
    </g>
    <g id="ytick_3">
     <g id="line2d_10">
      <g>
       <use xlink:href="#m8959acdd6d" x="39.7" y="190.366465" style="stroke: #000000; stroke-width: 0.8"/>
      </g>
     </g>
     <g id="text_11">
      <!-- 0.2 -->
      <g transform="translate(20.2 193.781309) scale(0.1 -0.1)">
       <use xlink:href="#STIXGeneral-Regular-30"/>
       <use xlink:href="#STIXGeneral-Regular-2e" transform="translate(49.999985 0)"/>
       <use xlink:href="#STIXGeneral-Regular-32" transform="translate(74.999969 0)"/>
      </g>
     </g>
    </g>
    <g id="ytick_4">
     <g id="line2d_11">
      <g>
       <use xlink:href="#m8959acdd6d" x="39.7" y="123.189697" style="stroke: #000000; stroke-width: 0.8"/>
      </g>
     </g>
     <g id="text_12">
      <!-- 0.3 -->
      <g transform="translate(20.2 126.604541) scale(0.1 -0.1)">
       <use xlink:href="#STIXGeneral-Regular-30"/>
       <use xlink:href="#STIXGeneral-Regular-2e" transform="translate(49.999985 0)"/>
       <use xlink:href="#STIXGeneral-Regular-33" transform="translate(74.999969 0)"/>
      </g>
     </g>
    </g>
    <g id="ytick_5">
     <g id="line2d_12">
      <g>
       <use xlink:href="#m8959acdd6d" x="39.7" y="56.01293" style="stroke: #000000; stroke-width: 0.8"/>
      </g>
     </g>
     <g id="text_13">
      <!-- 0.4 -->
      <g transform="translate(20.2 59.427773) scale(0.1 -0.1)">
       <defs>
        <path id="STIXGeneral-Regular-34" d="M 3027 1069 
L 2368 1069 
L 2368 0 
L 1869 0 
L 1869 1069 
L 77 1069 
L 77 1478 
L 2086 4326 
L 2368 4326 
L 2368 1478 
L 3027 1478 
L 3027 1069 
z
M 1869 1478 
L 1869 3674 
L 333 1478 
L 1869 1478 
z
" transform="scale(0.015625)"/>
       </defs>
       <use xlink:href="#STIXGeneral-Regular-30"/>
       <use xlink:href="#STIXGeneral-Regular-2e" transform="translate(49.999985 0)"/>
       <use xlink:href="#STIXGeneral-Regular-34" transform="translate(74.999969 0)"/>
      </g>
     </g>
    </g>
    <g id="text_14">
     <!-- Pth -->
     <g transform="translate(14.029688 180.195) rotate(-90) scale(0.1 -0.1)">
      <defs>
       <path id="STIXGeneral-Regular-50" d="M 102 4237 
L 1760 4237 
Q 2669 4237 3149 3834 
Q 3469 3565 3469 3072 
Q 3469 2560 3104 2234 
Q 2835 1990 2553 1916 
Q 2272 1843 1734 1843 
Q 1549 1843 1293 1862 
L 1293 717 
Q 1293 352 1398 246 
Q 1504 141 1894 122 
L 1894 0 
L 102 0 
L 102 122 
Q 474 147 557 256 
Q 640 365 640 781 
L 640 3526 
Q 640 3885 547 3987 
Q 454 4090 102 4115 
L 102 4237 
z
M 1293 3770 
L 1293 2118 
Q 1510 2099 1683 2099 
Q 2202 2099 2486 2352 
Q 2771 2605 2771 3040 
Q 2771 3558 2476 3779 
Q 2182 4000 1517 4000 
Q 1382 4000 1337 3952 
Q 1293 3904 1293 3770 
z
" transform="scale(0.015625)"/>
       <path id="STIXGeneral-Regular-74" d="M 1702 493 
L 1786 422 
Q 1478 -64 1011 -64 
Q 448 -64 448 749 
L 448 2675 
L 109 2675 
Q 83 2694 83 2720 
Q 83 2771 192 2842 
Q 435 2982 813 3526 
Q 826 3546 874 3606 
Q 922 3667 941 3706 
Q 986 3706 986 3622 
L 986 2880 
L 1632 2880 
L 1632 2675 
L 986 2675 
L 986 845 
Q 986 538 1062 403 
Q 1139 269 1318 269 
Q 1510 269 1702 493 
z
" transform="scale(0.015625)"/>
       <path id="STIXGeneral-Regular-68" d="M 3117 0 
L 1760 0 
L 1760 96 
Q 2042 128 2118 224 
Q 2195 320 2195 653 
L 2195 1920 
Q 2195 2598 1722 2598 
Q 1530 2598 1370 2508 
Q 1210 2419 1005 2195 
L 1005 653 
Q 1005 320 1081 224 
Q 1158 128 1440 96 
L 1440 0 
L 58 0 
L 58 96 
Q 333 134 400 224 
Q 467 314 467 653 
L 467 3667 
Q 467 3872 406 3933 
Q 346 3994 141 3994 
Q 83 3994 64 3987 
L 64 4090 
L 237 4141 
Q 730 4288 973 4371 
L 1005 4352 
L 1005 2406 
Q 1229 2694 1446 2819 
Q 1664 2944 1946 2944 
Q 2733 2944 2733 1926 
L 2733 653 
Q 2733 320 2793 233 
Q 2854 147 3117 96 
L 3117 0 
z
" transform="scale(0.015625)"/>
      </defs>
      <use xlink:href="#STIXGeneral-Regular-50"/>
      <use xlink:href="#STIXGeneral-Regular-74" transform="translate(55.699997 0)"/>
      <use xlink:href="#STIXGeneral-Regular-68" transform="translate(83.499985 0)"/>
     </g>
    </g>
   </g>
   <g id="line2d_13">
    <path d="M 65.063636 324.72 
L 300.16603 324.591771 
L 301.18159 324.409353 
L 302.19715 323.932076 
L 302.70493 323.452747 
L 303.21271 322.672806 
L 303.72049 321.401397 
L 304.22827 319.325242 
L 304.73605 315.929481 
L 305.24383 310.367047 
L 305.75161 301.242624 
L 306.25939 286.832483 
L 307.27495 249.3722 
L 310.321622 124.081525 
L 311.337182 91.608515 
L 312.352742 66.675965 
L 313.368302 48.872121 
L 314.383862 37.006704 
L 314.89165 32.844162 
L 315.39943 29.621033 
L 315.90721 27.172613 
L 316.41499 25.354027 
L 316.92277 24.044035 
L 317.43055 23.146561 
L 317.938329 22.587641 
L 318.44611 22.32 
L 318.95389 22.32 
L 319.461671 22.587641 
L 319.96945 23.145798 
L 320.47723 24.044035 
L 320.98501 25.354027 
L 321.49279 27.171851 
L 322.00057 29.621033 
L 322.50835 32.844162 
L 323.016138 37.006704 
L 323.523918 42.286322 
L 324.031698 48.871358 
L 325.047258 66.675965 
L 326.062818 91.607752 
L 327.078378 124.080763 
L 328.60171 184.504337 
L 330.63283 269.147971 
L 331.64839 301.242624 
L 332.15617 310.367047 
L 332.66395 315.929481 
L 333.17173 319.325242 
L 333.67951 321.401397 
L 334.18729 322.672806 
L 334.69507 323.452747 
L 335.20285 323.932076 
L 336.21841 324.409353 
L 337.74175 324.63513 
L 340.78843 324.703034 
L 375.825335 324.711502 
L 572.336364 324.72 
L 572.336364 324.72 
" clip-path="url(#p9325c76af0)" style="fill: none; stroke: #1f77b4; stroke-width: 1.5; stroke-linecap: square"/>
   </g>
   <g id="line2d_14">
    <path d="M 65.063636 324.72 
L 65.571755 324.572949 
L 66.079027 324.138975 
L 66.587145 323.439201 
L 67.602536 321.388322 
L 70.649555 313.872489 
L 71.664945 312.297143 
L 72.172218 311.828698 
L 72.680336 311.578134 
L 73.188455 311.534377 
L 73.695727 311.675684 
L 74.711118 312.386239 
L 77.250018 314.842558 
L 78.266255 315.402676 
L 79.281645 315.543395 
L 80.297036 315.324158 
L 83.344055 314.1947 
L 84.359445 314.189773 
L 85.374836 314.462034 
L 86.898345 315.207623 
L 88.421855 315.947425 
L 89.437245 316.231394 
L 90.452636 316.282519 
L 91.468027 316.125347 
L 95.022318 315.307116 
L 96.038555 315.3525 
L 97.561218 315.68321 
L 99.592845 316.19835 
L 100.608236 316.300963 
L 101.623627 316.24708 
L 103.147136 315.928892 
L 105.686036 315.35345 
L 107.209545 315.324293 
L 109.240327 315.649443 
L 111.271955 315.960625 
L 112.794618 315.944532 
L 115.333518 315.554922 
L 116.857027 315.398924 
L 118.380536 315.470527 
L 120.411318 315.845898 
L 122.442945 316.183072 
L 123.966455 316.22163 
L 129.551527 315.981644 
L 134.122055 316.48363 
L 136.152836 316.300285 
L 139.707127 315.860092 
L 141.738755 315.887802 
L 144.784927 315.939424 
L 146.816555 315.68773 
L 150.370845 315.114006 
L 152.401627 315.069752 
L 156.464036 315.161922 
L 162.557227 314.898746 
L 165.604245 315.313444 
L 168.143145 315.548458 
L 173.729064 315.836767 
L 178.806864 316.513872 
L 181.345764 316.495745 
L 184.900055 316.494298 
L 188.962464 316.610743 
L 190.993245 316.437432 
L 196.071045 315.852045 
L 201.656964 315.475771 
L 205.718527 315.003754 
L 208.257427 314.975593 
L 213.335227 315.033498 
L 216.890364 315.059264 
L 219.936536 315.361993 
L 223.490827 315.6998 
L 236.185665 316.266065 
L 242.786805 316.133348 
L 246.341265 315.993036 
L 252.434625 315.681583 
L 264.113565 315.670327 
L 272.238045 315.841468 
L 282.39373 315.445891 
L 285.44041 314.922298 
L 287.97931 314.563697 
L 290.51821 314.480975 
L 292.54933 314.35784 
L 294.07267 314.046884 
L 297.62713 313.019768 
L 298.64269 312.996488 
L 299.65825 313.21568 
L 302.19715 314.203063 
L 302.70493 314.157407 
L 303.21271 313.840665 
L 303.72049 313.107418 
L 304.22827 311.755152 
L 304.73605 309.496282 
L 305.24383 305.914121 
L 305.75161 300.39363 
L 306.76717 285.167878 
L 307.27495 279.524885 
L 307.78273 275.835004 
L 308.29051 273.953178 
L 308.79829 273.452774 
L 309.30607 273.772363 
L 310.321622 274.842333 
L 310.829402 274.972971 
L 311.337182 274.744241 
L 312.860522 273.410734 
L 313.368302 273.293205 
L 313.876082 273.440117 
L 315.39943 274.497881 
L 315.90721 274.643437 
L 316.41499 274.573823 
L 317.43055 273.979848 
L 318.44611 273.469499 
L 318.95389 273.468595 
L 319.461671 273.657998 
L 320.98501 274.571563 
L 321.49279 274.642985 
L 322.00057 274.499237 
L 324.031698 273.295013 
L 324.539478 273.410734 
L 325.047258 273.775075 
L 326.062818 274.741077 
L 326.570598 274.969807 
L 327.078378 274.840524 
L 328.60171 273.455486 
L 329.10949 273.956794 
L 329.61727 275.837264 
L 330.12505 279.526015 
L 330.63283 285.1672 
L 332.15617 305.914121 
L 332.66395 309.496282 
L 333.17173 311.755152 
L 333.67951 313.107418 
L 334.18729 313.840665 
L 334.69507 314.157407 
L 335.20285 314.203063 
L 336.21841 313.876286 
L 337.74175 313.21568 
L 338.75731 312.996488 
L 339.77287 313.019768 
L 341.29621 313.392969 
L 343.83511 314.174811 
L 345.35845 314.413802 
L 347.89735 314.494174 
L 349.92847 314.611568 
L 352.46737 315.017948 
L 355.51405 315.505017 
L 358.05295 315.650663 
L 370.747535 315.768012 
L 376.333115 315.623541 
L 386.996495 315.735013 
L 399.183215 316.193016 
L 404.260845 316.276598 
L 407.815136 316.017717 
L 411.877545 315.782522 
L 415.939955 315.537564 
L 421.525873 315.018491 
L 431.173355 314.979345 
L 433.712255 315.201068 
L 438.281936 315.719508 
L 444.375973 316.153508 
L 447.930264 316.585022 
L 449.961045 316.615173 
L 456.054236 316.495745 
L 459.101255 316.487111 
L 461.132036 316.252685 
L 465.194445 315.665942 
L 468.241464 315.574947 
L 470.780364 315.438749 
L 476.873555 314.843779 
L 479.920573 315.094523 
L 482.459473 315.17806 
L 487.029155 315.114006 
L 489.060782 315.402541 
L 492.106955 315.900097 
L 494.138582 315.958274 
L 498.200145 315.888525 
L 500.739045 316.222263 
L 502.770673 316.465142 
L 504.294182 316.455333 
L 506.324964 316.197491 
L 508.863864 315.90638 
L 510.894645 315.98413 
L 513.941664 316.23162 
L 515.465173 316.124126 
L 520.542973 315.398924 
L 522.066482 315.554922 
L 525.112655 315.977259 
L 526.636164 315.911398 
L 531.205845 315.309964 
L 532.729355 315.532411 
L 536.283645 316.293414 
L 537.299882 316.268552 
L 538.822545 315.968535 
L 541.361445 315.3525 
L 542.377682 315.307116 
L 543.393073 315.432782 
L 547.455482 316.286136 
L 548.470873 316.11721 
L 549.486264 315.730357 
L 552.533282 314.294239 
L 553.548673 314.156051 
L 554.564064 314.301516 
L 556.087573 314.900193 
L 557.611082 315.470708 
L 558.626473 315.524545 
L 559.641864 315.173856 
L 560.657255 314.421984 
L 563.196155 311.971858 
L 563.704273 311.675684 
L 564.211545 311.534377 
L 564.719664 311.578134 
L 565.227782 311.828698 
L 565.735055 312.297143 
L 566.243173 312.982791 
L 567.258564 314.940876 
L 568.782073 318.804113 
L 570.305582 322.507455 
L 570.812855 323.439201 
L 571.320973 324.138975 
L 571.828245 324.572949 
L 572.336364 324.72 
L 572.336364 324.72 
" clip-path="url(#p9325c76af0)" style="fill: none; stroke: #ff7f0e; stroke-width: 1.5; stroke-linecap: square"/>
   </g>
   <g id="line2d_15">
    <path d="M 65.063636 324.72 
L 65.571755 324.54861 
L 66.079027 324.043025 
L 66.587145 323.228501 
L 67.602536 320.847151 
L 70.649555 312.260232 
L 71.156827 311.281212 
L 71.664945 310.54739 
L 72.172218 310.072503 
L 72.680336 309.855253 
L 73.188455 309.88023 
L 73.695727 310.119489 
L 74.711118 311.081183 
L 77.250018 314.087753 
L 78.266255 314.705864 
L 78.773527 314.814335 
L 79.281645 314.794926 
L 80.297036 314.444 
L 82.835936 313.061582 
L 83.851327 312.87032 
L 84.866718 313.042132 
L 85.882955 313.52498 
L 88.421855 315.072259 
L 89.437245 315.397197 
L 90.452636 315.427187 
L 91.468027 315.198386 
L 94.515045 314.182136 
L 95.530436 314.134491 
L 96.545827 314.302384 
L 100.608236 315.406437 
L 101.623627 315.334371 
L 103.147136 314.928869 
L 105.177918 314.305602 
L 106.194155 314.164645 
L 107.209545 314.194078 
L 108.733055 314.492326 
L 110.763836 314.958839 
L 112.287345 315.037051 
L 113.810855 314.820502 
L 116.349755 314.318637 
L 117.872418 314.301621 
L 119.395927 314.567981 
L 122.442945 315.232872 
L 123.966455 315.260572 
L 126.505355 314.927488 
L 128.028018 314.806456 
L 129.551527 314.905232 
L 134.122055 315.533739 
L 135.644718 315.390947 
L 139.707127 314.77958 
L 141.738755 314.848202 
L 144.277655 314.986663 
L 145.800318 314.863981 
L 148.339218 314.349101 
L 150.370845 314.020843 
L 151.894355 313.97922 
L 156.972155 314.12591 
L 161.541836 313.742953 
L 163.573464 313.948178 
L 167.635027 314.523615 
L 170.682045 314.543045 
L 172.712827 314.643224 
L 175.251727 315.059884 
L 177.790627 315.469098 
L 179.822255 315.54036 
L 184.900055 315.459157 
L 188.962464 315.63365 
L 190.993245 315.440779 
L 195.562927 314.830774 
L 202.164236 314.38105 
L 205.718527 313.928811 
L 207.750155 313.904081 
L 213.335227 313.994751 
L 216.890364 313.990585 
L 219.429264 314.257977 
L 222.983555 314.657084 
L 235.170105 315.287427 
L 249.895725 314.71628 
L 253.450185 314.638789 
L 267.160245 314.762544 
L 271.222485 314.847852 
L 281.37817 314.552698 
L 283.40929 314.284935 
L 287.97931 313.471724 
L 290.01043 313.431793 
L 292.54933 313.379424 
L 294.07267 313.060716 
L 296.10379 312.290717 
L 297.62713 311.798257 
L 298.64269 311.727408 
L 299.65825 311.962644 
L 300.67381 312.498809 
L 302.19715 313.511738 
L 302.70493 313.725813 
L 303.21271 313.754256 
L 303.72049 313.486286 
L 304.22827 312.774637 
L 304.73605 311.419713 
L 305.24383 309.144614 
L 305.75161 305.555306 
L 306.76717 296.13317 
L 307.27495 293.35798 
L 307.78273 292.150757 
L 308.29051 292.213459 
L 308.79829 293.057463 
L 309.81385 295.054651 
L 310.321622 295.502848 
L 310.829402 295.436433 
L 311.337182 294.969467 
L 312.352742 293.725324 
L 312.860522 293.368911 
L 313.368302 293.333435 
L 313.876082 293.592082 
L 315.39943 294.840144 
L 315.90721 294.965342 
L 316.41499 294.8486 
L 317.43055 294.14382 
L 317.938329 293.784932 
L 318.44611 293.573106 
L 318.95389 293.572075 
L 319.461671 293.782251 
L 320.98501 294.846332 
L 321.49279 294.964723 
L 322.00057 294.841381 
L 323.016138 294.035122 
L 323.523918 293.595176 
L 324.031698 293.335292 
L 324.539478 293.368911 
L 325.047258 293.723674 
L 326.570598 295.433546 
L 327.078378 295.501404 
L 327.58615 295.054858 
L 329.10949 292.216759 
L 329.61727 292.153438 
L 330.12505 293.359217 
L 330.63283 296.132551 
L 332.15617 309.144614 
L 332.66395 311.419713 
L 333.17173 312.774637 
L 333.67951 313.486286 
L 334.18729 313.754256 
L 334.69507 313.725813 
L 335.71063 313.196124 
L 337.23397 312.198107 
L 338.24953 311.804507 
L 339.26509 311.728171 
L 340.28065 311.925311 
L 342.31177 312.702942 
L 343.83511 313.198805 
L 345.35845 313.424904 
L 347.89735 313.424182 
L 349.92847 313.520711 
L 351.95959 313.867202 
L 355.00627 314.445238 
L 357.03739 314.610037 
L 368.716415 314.823059 
L 377.856455 314.597146 
L 389.535395 314.855607 
L 394.105415 315.112871 
L 406.292473 315.135436 
L 410.862155 314.780158 
L 415.939955 314.521326 
L 421.525873 313.95154 
L 425.587436 314.028454 
L 429.142573 313.92153 
L 431.681473 313.928811 
L 434.220373 314.22281 
L 437.774664 314.679319 
L 444.883245 315.198468 
L 447.930264 315.606878 
L 449.961045 315.624802 
L 455.038845 315.430487 
L 459.101255 315.510721 
L 461.132036 315.252858 
L 465.194445 314.597249 
L 467.733345 314.550078 
L 470.272245 314.488366 
L 472.303873 314.213281 
L 475.350045 313.767332 
L 476.873555 313.754895 
L 479.412455 314.020472 
L 481.443236 314.179826 
L 483.474864 314.111184 
L 486.521036 313.986666 
L 488.044545 314.151672 
L 493.122345 314.986663 
L 495.153973 314.890732 
L 497.692873 314.77958 
L 499.216382 314.9279 
L 503.277945 315.533739 
L 504.801455 315.442821 
L 509.371982 314.806456 
L 510.894645 314.927488 
L 513.941664 315.280455 
L 515.465173 315.16458 
L 517.495955 314.695263 
L 519.019464 314.363787 
L 520.542973 314.278664 
L 522.066482 314.483003 
L 525.112655 315.037051 
L 526.636164 314.958839 
L 528.666945 314.492326 
L 530.190455 314.194078 
L 531.205845 314.164645 
L 532.222082 314.305602 
L 533.744745 314.756108 
L 535.776373 315.334371 
L 536.791764 315.406437 
L 537.807155 315.279383 
L 539.330664 314.80792 
L 540.854173 314.302384 
L 541.869564 314.134491 
L 542.884955 314.182136 
L 543.900345 314.437647 
L 546.947364 315.427187 
L 547.962755 315.397197 
L 548.978145 315.072259 
L 550.501655 314.176237 
L 552.025164 313.251978 
L 553.040555 312.911509 
L 554.055945 312.921802 
L 555.072182 313.277636 
L 558.118355 314.794926 
L 558.626473 314.814335 
L 559.133745 314.705864 
L 559.641864 314.462543 
L 560.657255 313.595644 
L 562.180764 311.708906 
L 563.196155 310.534932 
L 563.704273 310.119489 
L 564.211545 309.88023 
L 564.719664 309.855253 
L 565.227782 310.072503 
L 565.735055 310.54739 
L 566.243173 311.281212 
L 567.258564 313.455884 
L 568.782073 317.8623 
L 570.305582 322.145457 
L 570.812855 323.228501 
L 571.320973 324.043025 
L 571.828245 324.54861 
L 572.336364 324.72 
L 572.336364 324.72 
" clip-path="url(#p9325c76af0)" style="fill: none; stroke: #2ca02c; stroke-width: 1.5; stroke-linecap: square"/>
   </g>
   <g id="line2d_16">
    <path d="M 65.063636 324.72 
L 65.571755 324.546001 
L 66.079027 324.03275 
L 66.587145 323.205966 
L 67.602536 320.789497 
L 70.649555 312.093554 
L 71.156827 311.106892 
L 71.664945 310.370057 
L 72.172218 309.896806 
L 72.680336 309.685558 
L 73.188455 309.720357 
L 73.695727 309.972473 
L 74.711118 310.965241 
L 77.250018 314.034405 
L 78.266255 314.657071 
L 78.773527 314.762788 
L 79.281645 314.737708 
L 80.297036 314.369244 
L 82.835936 312.942139 
L 83.851327 312.745618 
L 84.866718 312.921826 
L 85.882955 313.41645 
L 88.421855 314.996713 
L 89.437245 315.32578 
L 90.452636 315.352368 
L 91.468027 315.114179 
L 94.515045 314.068254 
L 95.530436 314.020087 
L 96.545827 314.19326 
L 100.608236 315.326395 
L 101.623627 315.251939 
L 103.147136 314.835643 
L 105.177918 314.19758 
L 106.194155 314.054253 
L 107.209545 314.085811 
L 108.733055 314.393448 
L 110.763836 314.872657 
L 112.287345 314.952177 
L 113.810855 314.728902 
L 116.349755 314.212549 
L 117.872418 314.194545 
L 119.395927 314.467048 
L 122.442945 315.145682 
L 123.966455 315.171617 
L 125.997236 314.901776 
L 128.028018 314.700732 
L 129.551527 314.801329 
L 134.122055 315.445089 
L 135.644718 315.298709 
L 139.707127 314.675596 
L 141.738755 314.749866 
L 144.277655 314.897029 
L 145.800318 314.774145 
L 148.339218 314.251034 
L 150.370845 313.918634 
L 151.894355 313.879107 
L 156.972155 314.035634 
L 161.541836 313.641718 
L 163.573464 313.850248 
L 167.635027 314.432659 
L 170.173927 314.447517 
L 172.712827 314.541691 
L 174.744455 314.862417 
L 177.790627 315.37674 
L 179.822255 315.445834 
L 184.900055 315.358568 
L 188.962464 315.540622 
L 190.993245 315.345795 
L 195.562927 314.730708 
L 202.164236 314.286707 
L 205.718527 313.829711 
L 207.750155 313.807108 
L 213.335227 313.900555 
L 216.382245 313.867191 
L 218.921145 314.094115 
L 222.983555 314.563642 
L 235.677885 315.175397 
L 241.771245 315.022537 
L 245.325705 314.945791 
L 253.450185 314.542175 
L 267.160245 314.666436 
L 271.222485 314.752976 
L 281.37817 314.461183 
L 283.40929 314.193316 
L 287.97931 313.372063 
L 290.01043 313.337283 
L 292.54933 313.296434 
L 294.07267 312.97865 
L 296.10379 312.19631 
L 297.62713 311.688913 
L 298.64269 311.610752 
L 299.65825 311.845329 
L 300.67381 312.391751 
L 302.70493 313.693701 
L 303.21271 313.759537 
L 303.72049 313.541791 
L 304.22827 312.898701 
L 304.73605 311.639369 
L 305.24383 309.500544 
L 305.75161 306.10976 
L 306.76717 297.266152 
L 307.27495 294.761377 
L 307.78273 293.775516 
L 308.29051 293.997637 
L 309.81385 296.969556 
L 310.321622 297.390153 
L 310.829402 297.288494 
L 311.337182 296.791561 
L 312.352742 295.526606 
L 312.860522 295.17825 
L 313.368302 295.156652 
L 313.876082 295.429602 
L 315.39943 296.690834 
L 315.90721 296.811111 
L 316.41499 296.688413 
L 317.43055 295.974572 
L 317.938329 295.613555 
L 318.44611 295.400929 
L 318.95389 295.399999 
L 319.461671 295.611135 
L 320.98501 296.686179 
L 321.49279 296.810738 
L 322.00057 296.692137 
L 323.016138 295.882782 
L 323.523918 295.432767 
L 324.031698 295.1587 
L 324.539478 295.178436 
L 325.047258 295.52493 
L 326.570598 297.285515 
L 327.078378 297.388663 
L 327.58615 296.969928 
L 328.09393 296.071762 
L 329.10949 294.000989 
L 329.61727 293.778309 
L 330.12505 294.762494 
L 330.63283 297.265407 
L 332.15617 309.500544 
L 332.66395 311.639369 
L 333.17173 312.898701 
L 333.67951 313.541791 
L 334.18729 313.759537 
L 334.69507 313.693701 
L 335.71063 313.115032 
L 337.23397 312.084281 
L 338.24953 311.686437 
L 339.26509 311.614587 
L 340.28065 311.820882 
L 344.85067 313.296434 
L 346.37401 313.360203 
L 349.42069 313.372063 
L 351.45181 313.666481 
L 355.51405 314.414618 
L 358.05295 314.536515 
L 363.638615 314.662824 
L 367.700855 314.752324 
L 373.794215 314.519795 
L 378.364235 314.507916 
L 389.535395 314.758543 
L 394.105415 315.017175 
L 406.292473 315.039369 
L 410.862155 314.682113 
L 415.939955 314.427893 
L 421.525873 313.85345 
L 425.587436 313.936043 
L 428.634455 313.848404 
L 431.173355 313.805842 
L 433.204136 313.978717 
L 438.281936 314.617041 
L 443.867855 314.940839 
L 448.437536 315.540622 
L 450.469164 315.502062 
L 454.531573 315.315354 
L 459.609373 315.37674 
L 461.640155 315.062977 
L 464.687173 314.541691 
L 466.717955 314.444371 
L 470.272245 314.397749 
L 472.303873 314.119865 
L 475.350045 313.666313 
L 476.873555 313.654583 
L 479.412455 313.927646 
L 481.443236 314.090448 
L 483.474864 314.017946 
L 486.013764 313.872143 
L 487.537273 313.974416 
L 489.568055 314.365222 
L 492.106955 314.837561 
L 493.630464 314.893994 
L 498.708264 314.755024 
L 501.247164 315.209916 
L 502.770673 315.421015 
L 504.294182 315.409378 
L 506.324964 315.077779 
L 508.355745 314.742251 
L 509.879255 314.720095 
L 511.910882 314.98234 
L 513.941664 315.192843 
L 515.465173 315.076383 
L 517.495955 314.597249 
L 519.019464 314.258109 
L 520.542973 314.171346 
L 522.066482 314.381644 
L 525.112655 314.952177 
L 526.636164 314.872657 
L 528.666945 314.393448 
L 530.190455 314.085811 
L 531.205845 314.054253 
L 532.222082 314.19758 
L 533.744745 314.658579 
L 535.776373 315.251939 
L 536.791764 315.326395 
L 537.807155 315.196511 
L 539.330664 314.712871 
L 540.854173 314.19326 
L 541.869564 314.020087 
L 542.884955 314.068254 
L 543.900345 314.33035 
L 546.947364 315.352368 
L 547.962755 315.32578 
L 548.978145 314.996713 
L 550.501655 314.082628 
L 552.025164 313.136872 
L 553.040555 312.787882 
L 554.055945 312.798495 
L 555.072182 313.16439 
L 558.118355 314.737708 
L 558.626473 314.762788 
L 559.133745 314.657071 
L 559.641864 314.413221 
L 560.657255 313.534809 
L 562.180764 311.609057 
L 563.196155 310.4029 
L 563.704273 309.972473 
L 564.211545 309.720357 
L 564.719664 309.685558 
L 565.227782 309.896806 
L 565.735055 310.370057 
L 566.243173 311.106892 
L 567.258564 313.301219 
L 568.782073 317.762616 
L 570.305582 322.106808 
L 570.812855 323.205966 
L 571.320973 324.03275 
L 571.828245 324.546001 
L 572.336364 324.72 
L 572.336364 324.72 
" clip-path="url(#p9325c76af0)" style="fill: none; stroke: #d62728; stroke-width: 1.5; stroke-linecap: square"/>
   </g>
   <g id="patch_3">
    <path d="M 39.7 339.84 
L 39.7 7.2 
" style="fill: none; stroke: #000000; stroke-width: 0.8; stroke-linejoin: miter; stroke-linecap: square"/>
   </g>
   <g id="patch_4">
    <path d="M 597.7 339.84 
L 597.7 7.2 
" style="fill: none; stroke: #000000; stroke-width: 0.8; stroke-linejoin: miter; stroke-linecap: square"/>
   </g>
   <g id="patch_5">
    <path d="M 39.7 339.84 
L 597.7 339.84 
" style="fill: none; stroke: #000000; stroke-width: 0.8; stroke-linejoin: miter; stroke-linecap: square"/>
   </g>
   <g id="patch_6">
    <path d="M 39.7 7.2 
L 597.7 7.2 
" style="fill: none; stroke: #000000; stroke-width: 0.8; stroke-linejoin: miter; stroke-linecap: square"/>
   </g>
   <g id="legend_1">
    <g id="patch_7">
     <path d="M 530.740625 71.88125 
L 590.7 71.88125 
Q 592.7 71.88125 592.7 69.88125 
L 592.7 14.2 
Q 592.7 12.2 590.7 12.2 
L 530.740625 12.2 
Q 528.740625 12.2 528.740625 14.2 
L 528.740625 69.88125 
Q 528.740625 71.88125 530.740625 71.88125 
z
" style="fill: #ffffff; opacity: 0.8; stroke: #cccccc; stroke-linejoin: miter"/>
    </g>
    <g id="line2d_17">
     <path d="M 532.740625 19.7 
L 542.740625 19.7 
L 552.740625 19.7 
" style="fill: none; stroke: #1f77b4; stroke-width: 1.5; stroke-linecap: square"/>
    </g>
    <g id="text_15">
     <!-- T=1 -->
     <g transform="translate(560.740625 23.2) scale(0.1 -0.1)">
      <defs>
       <path id="STIXGeneral-Regular-54" d="M 3795 3149 
L 3642 3149 
Q 3539 3674 3353 3821 
Q 3168 3968 2656 3968 
L 2278 3968 
L 2278 710 
Q 2278 346 2387 243 
Q 2496 141 2893 122 
L 2893 0 
L 1024 0 
L 1024 122 
Q 1427 147 1526 256 
Q 1626 365 1626 787 
L 1626 3968 
L 1242 3968 
Q 723 3968 540 3817 
Q 358 3667 262 3149 
L 109 3149 
L 154 4237 
L 3750 4237 
L 3795 3149 
z
" transform="scale(0.015625)"/>
       <path id="STIXGeneral-Regular-3d" d="M 4077 2048 
L 307 2048 
L 307 2470 
L 4077 2470 
L 4077 2048 
z
M 4077 768 
L 307 768 
L 307 1190 
L 4077 1190 
L 4077 768 
z
" transform="scale(0.015625)"/>
      </defs>
      <use xlink:href="#STIXGeneral-Regular-54"/>
      <use xlink:href="#STIXGeneral-Regular-3d" transform="translate(61.099991 0)"/>
      <use xlink:href="#STIXGeneral-Regular-31" transform="translate(129.599976 0)"/>
     </g>
    </g>
    <g id="line2d_18">
     <path d="M 532.740625 33.870313 
L 542.740625 33.870313 
L 552.740625 33.870313 
" style="fill: none; stroke: #ff7f0e; stroke-width: 1.5; stroke-linecap: square"/>
    </g>
    <g id="text_16">
     <!-- T=10 -->
     <g transform="translate(560.740625 37.370313) scale(0.1 -0.1)">
      <use xlink:href="#STIXGeneral-Regular-54"/>
      <use xlink:href="#STIXGeneral-Regular-3d" transform="translate(61.099991 0)"/>
      <use xlink:href="#STIXGeneral-Regular-31" transform="translate(129.599976 0)"/>
      <use xlink:href="#STIXGeneral-Regular-30" transform="translate(179.59996 0)"/>
     </g>
    </g>
    <g id="line2d_19">
     <path d="M 532.740625 48.040625 
L 542.740625 48.040625 
L 552.740625 48.040625 
" style="fill: none; stroke: #2ca02c; stroke-width: 1.5; stroke-linecap: square"/>
    </g>
    <g id="text_17">
     <!-- T=50 -->
     <g transform="translate(560.740625 51.540625) scale(0.1 -0.1)">
      <defs>
       <path id="STIXGeneral-Regular-35" d="M 2803 4358 
L 2573 3814 
Q 2534 3731 2400 3731 
L 1158 3731 
L 902 3187 
Q 1606 3053 1920 2896 
Q 2234 2739 2502 2368 
Q 2726 2061 2726 1555 
Q 2726 1094 2576 780 
Q 2426 467 2099 224 
Q 1664 -90 1011 -90 
Q 646 -90 422 19 
Q 198 128 198 307 
Q 198 550 486 550 
Q 717 550 960 352 
Q 1210 147 1414 147 
Q 1747 147 2012 480 
Q 2278 813 2278 1229 
Q 2278 1843 1850 2189 
Q 1293 2637 486 2637 
Q 410 2637 410 2688 
L 416 2720 
L 1114 4237 
L 2438 4237 
Q 2547 4237 2608 4269 
Q 2669 4301 2746 4403 
L 2803 4358 
z
" transform="scale(0.015625)"/>
      </defs>
      <use xlink:href="#STIXGeneral-Regular-54"/>
      <use xlink:href="#STIXGeneral-Regular-3d" transform="translate(61.099991 0)"/>
      <use xlink:href="#STIXGeneral-Regular-35" transform="translate(129.599976 0)"/>
      <use xlink:href="#STIXGeneral-Regular-30" transform="translate(179.59996 0)"/>
     </g>
    </g>
    <g id="line2d_20">
     <path d="M 532.740625 62.210938 
L 542.740625 62.210938 
L 552.740625 62.210938 
" style="fill: none; stroke: #d62728; stroke-width: 1.5; stroke-linecap: square"/>
    </g>
    <g id="text_18">
     <!-- T=100 -->
     <g transform="translate(560.740625 65.710938) scale(0.1 -0.1)">
      <use xlink:href="#STIXGeneral-Regular-54"/>
      <use xlink:href="#STIXGeneral-Regular-3d" transform="translate(61.099991 0)"/>
      <use xlink:href="#STIXGeneral-Regular-31" transform="translate(129.599976 0)"/>
      <use xlink:href="#STIXGeneral-Regular-30" transform="translate(179.59996 0)"/>
      <use xlink:href="#STIXGeneral-Regular-30" transform="translate(229.599945 0)"/>
     </g>
    </g>
   </g>
  </g>
 </g>
 <defs>
  <clipPath id="p9325c76af0">
   <rect x="39.7" y="7.2" width="558" height="332.64"/>
  </clipPath>
 </defs>
</svg>
