<?xml version="1.0" encoding="utf-8" standalone="no"?>
<!DOCTYPE svg PUBLIC "-//W3C//DTD SVG 1.1//EN"
  "http://www.w3.org/Graphics/SVG/1.1/DTD/svg11.dtd">
<svg xmlns:xlink="http://www.w3.org/1999/xlink" width="1072.08pt" height="350.829375pt" viewBox="0 0 1072.08 350.829375" xmlns="http://www.w3.org/2000/svg" version="1.1">
 <metadata>
  <rdf:RDF xmlns:dc="http://purl.org/dc/elements/1.1/" xmlns:cc="http://creativecommons.org/ns#" xmlns:rdf="http://www.w3.org/1999/02/22-rdf-syntax-ns#">
   <cc:Work>
    <dc:type rdf:resource="http://purl.org/dc/dcmitype/StillImage"/>
    <dc:date>2025-08-25T02:30:12.217913</dc:date>
    <dc:format>image/svg+xml</dc:format>
    <dc:creator>
     <cc:Agent>
      <dc:title>Matplotlib v3.10.5, https://matplotlib.org/</dc:title>
     </cc:Agent>
    </dc:creator>
   </cc:Work>
  </rdf:RDF>
 </metadata>
 <defs>
  <style type="text/css">*{stroke-linejoin: round; stroke-linecap: butt}</style>
 </defs>
 <g id="figure_1">
  <g id="patch_1">
   <path d="M 0 350.829375 
L 1072.08 350.829375 
L 1072.08 0 
L 0 0 
z
" style="fill: #ffffff"/>
  </g>
  <g id="axes_1">
   <g id="patch_2">
    <path d="M 46.55 314.629375 
L 533.694375 314.629375 
L 533.694375 21.455625 
L 46.55 21.455625 
z
" style="fill: #ffffff"/>
   </g>
   <g id="matplotlib.axis_1">
    <g id="xtick_1">
     <g id="line2d_1">
      <path d="M 68.692926 314.629375 
L 68.692926 21.455625 
" clip-path="url(#p1df89696cb)" style="fill: none; stroke: #b0b0b0; stroke-width: 0.8; stroke-linecap: square"/>
     </g>
     <g id="line2d_2">
      <defs>
       <path id="m136b1a1ce0" d="M 0 0 
L 0 3.5 
" style="stroke: #000000; stroke-width: 0.8"/>
      </defs>
      <g>
       <use xlink:href="#m136b1a1ce0" x="68.692926" y="314.629375" style="stroke: #000000; stroke-width: 0.8"/>
      </g>
     </g>
     <g id="text_1">
      <!-- −1.5 -->
      <g transform="translate(59.017926 328.459062) scale(0.1 -0.1)">
       <defs>
        <path id="STIXGeneral-Regular-2212" d="M 3974 1408 
L 410 1408 
L 410 1830 
L 3974 1830 
L 3974 1408 
z
" transform="scale(0.015625)"/>
        <path id="STIXGeneral-Regular-31" d="M 2522 0 
L 755 0 
L 755 96 
Q 1107 115 1235 227 
Q 1363 339 1363 608 
L 1363 3482 
Q 1363 3795 1171 3795 
Q 1082 3795 883 3718 
L 710 3654 
L 710 3744 
L 1856 4326 
L 1914 4307 
L 1914 486 
Q 1914 275 2042 185 
Q 2170 96 2522 96 
L 2522 0 
z
" transform="scale(0.015625)"/>
        <path id="STIXGeneral-Regular-2e" d="M 1158 275 
Q 1158 134 1052 32 
Q 947 -70 800 -70 
Q 653 -70 550 32 
Q 448 134 448 281 
Q 448 429 553 534 
Q 659 640 806 640 
Q 947 640 1052 531 
Q 1158 422 1158 275 
z
" transform="scale(0.015625)"/>
        <path id="STIXGeneral-Regular-35" d="M 2803 4358 
L 2573 3814 
Q 2534 3731 2400 3731 
L 1158 3731 
L 902 3187 
Q 1606 3053 1920 2896 
Q 2234 2739 2502 2368 
Q 2726 2061 2726 1555 
Q 2726 1094 2576 780 
Q 2426 467 2099 224 
Q 1664 -90 1011 -90 
Q 646 -90 422 19 
Q 198 128 198 307 
Q 198 550 486 550 
Q 717 550 960 352 
Q 1210 147 1414 147 
Q 1747 147 2012 480 
Q 2278 813 2278 1229 
Q 2278 1843 1850 2189 
Q 1293 2637 486 2637 
Q 410 2637 410 2688 
L 416 2720 
L 1114 4237 
L 2438 4237 
Q 2547 4237 2608 4269 
Q 2669 4301 2746 4403 
L 2803 4358 
z
" transform="scale(0.015625)"/>
       </defs>
       <use xlink:href="#STIXGeneral-Regular-2212"/>
       <use xlink:href="#STIXGeneral-Regular-31" transform="translate(68.499985 0)"/>
       <use xlink:href="#STIXGeneral-Regular-2e" transform="translate(118.499969 0)"/>
       <use xlink:href="#STIXGeneral-Regular-35" transform="translate(143.499954 0)"/>
      </g>
     </g>
    </g>
    <g id="xtick_2">
     <g id="line2d_3">
      <path d="M 142.50268 314.629375 
L 142.50268 21.455625 
" clip-path="url(#p1df89696cb)" style="fill: none; stroke: #b0b0b0; stroke-width: 0.8; stroke-linecap: square"/>
     </g>
     <g id="line2d_4">
      <g>
       <use xlink:href="#m136b1a1ce0" x="142.50268" y="314.629375" style="stroke: #000000; stroke-width: 0.8"/>
      </g>
     </g>
     <g id="text_2">
      <!-- −1.0 -->
      <g transform="translate(132.82768 328.459062) scale(0.1 -0.1)">
       <defs>
        <path id="STIXGeneral-Regular-30" d="M 3046 2112 
Q 3046 1683 2963 1302 
Q 2880 922 2717 602 
Q 2554 282 2266 96 
Q 1978 -90 1600 -90 
Q 1210 -90 915 108 
Q 621 307 461 640 
Q 301 973 227 1350 
Q 154 1728 154 2150 
Q 154 2746 301 3222 
Q 448 3699 790 4012 
Q 1133 4326 1626 4326 
Q 2253 4326 2649 3712 
Q 3046 3098 3046 2112 
z
M 2432 2080 
Q 2432 3091 2217 3625 
Q 2003 4160 1587 4160 
Q 1190 4160 979 3622 
Q 768 3085 768 2106 
Q 768 1120 979 598 
Q 1190 77 1600 77 
Q 2003 77 2217 598 
Q 2432 1120 2432 2080 
z
" transform="scale(0.015625)"/>
       </defs>
       <use xlink:href="#STIXGeneral-Regular-2212"/>
       <use xlink:href="#STIXGeneral-Regular-31" transform="translate(68.499985 0)"/>
       <use xlink:href="#STIXGeneral-Regular-2e" transform="translate(118.499969 0)"/>
       <use xlink:href="#STIXGeneral-Regular-30" transform="translate(143.499954 0)"/>
      </g>
     </g>
    </g>
    <g id="xtick_3">
     <g id="line2d_5">
      <path d="M 216.312434 314.629375 
L 216.312434 21.455625 
" clip-path="url(#p1df89696cb)" style="fill: none; stroke: #b0b0b0; stroke-width: 0.8; stroke-linecap: square"/>
     </g>
     <g id="line2d_6">
      <g>
       <use xlink:href="#m136b1a1ce0" x="216.312434" y="314.629375" style="stroke: #000000; stroke-width: 0.8"/>
      </g>
     </g>
     <g id="text_3">
      <!-- −0.5 -->
      <g transform="translate(206.637434 328.459062) scale(0.1 -0.1)">
       <use xlink:href="#STIXGeneral-Regular-2212"/>
       <use xlink:href="#STIXGeneral-Regular-30" transform="translate(68.499985 0)"/>
       <use xlink:href="#STIXGeneral-Regular-2e" transform="translate(118.499969 0)"/>
       <use xlink:href="#STIXGeneral-Regular-35" transform="translate(143.499954 0)"/>
      </g>
     </g>
    </g>
    <g id="xtick_4">
     <g id="line2d_7">
      <path d="M 290.122187 314.629375 
L 290.122187 21.455625 
" clip-path="url(#p1df89696cb)" style="fill: none; stroke: #b0b0b0; stroke-width: 0.8; stroke-linecap: square"/>
     </g>
     <g id="line2d_8">
      <g>
       <use xlink:href="#m136b1a1ce0" x="290.122187" y="314.629375" style="stroke: #000000; stroke-width: 0.8"/>
      </g>
     </g>
     <g id="text_4">
      <!-- 0.0 -->
      <g transform="translate(283.872187 328.459062) scale(0.1 -0.1)">
       <use xlink:href="#STIXGeneral-Regular-30"/>
       <use xlink:href="#STIXGeneral-Regular-2e" transform="translate(49.999985 0)"/>
       <use xlink:href="#STIXGeneral-Regular-30" transform="translate(74.999969 0)"/>
      </g>
     </g>
    </g>
    <g id="xtick_5">
     <g id="line2d_9">
      <path d="M 363.931941 314.629375 
L 363.931941 21.455625 
" clip-path="url(#p1df89696cb)" style="fill: none; stroke: #b0b0b0; stroke-width: 0.8; stroke-linecap: square"/>
     </g>
     <g id="line2d_10">
      <g>
       <use xlink:href="#m136b1a1ce0" x="363.931941" y="314.629375" style="stroke: #000000; stroke-width: 0.8"/>
      </g>
     </g>
     <g id="text_5">
      <!-- 0.5 -->
      <g transform="translate(357.681941 328.459062) scale(0.1 -0.1)">
       <use xlink:href="#STIXGeneral-Regular-30"/>
       <use xlink:href="#STIXGeneral-Regular-2e" transform="translate(49.999985 0)"/>
       <use xlink:href="#STIXGeneral-Regular-35" transform="translate(74.999969 0)"/>
      </g>
     </g>
    </g>
    <g id="xtick_6">
     <g id="line2d_11">
      <path d="M 437.741695 314.629375 
L 437.741695 21.455625 
" clip-path="url(#p1df89696cb)" style="fill: none; stroke: #b0b0b0; stroke-width: 0.8; stroke-linecap: square"/>
     </g>
     <g id="line2d_12">
      <g>
       <use xlink:href="#m136b1a1ce0" x="437.741695" y="314.629375" style="stroke: #000000; stroke-width: 0.8"/>
      </g>
     </g>
     <g id="text_6">
      <!-- 1.0 -->
      <g transform="translate(431.491695 328.459062) scale(0.1 -0.1)">
       <use xlink:href="#STIXGeneral-Regular-31"/>
       <use xlink:href="#STIXGeneral-Regular-2e" transform="translate(49.999985 0)"/>
       <use xlink:href="#STIXGeneral-Regular-30" transform="translate(74.999969 0)"/>
      </g>
     </g>
    </g>
    <g id="xtick_7">
     <g id="line2d_13">
      <path d="M 511.551449 314.629375 
L 511.551449 21.455625 
" clip-path="url(#p1df89696cb)" style="fill: none; stroke: #b0b0b0; stroke-width: 0.8; stroke-linecap: square"/>
     </g>
     <g id="line2d_14">
      <g>
       <use xlink:href="#m136b1a1ce0" x="511.551449" y="314.629375" style="stroke: #000000; stroke-width: 0.8"/>
      </g>
     </g>
     <g id="text_7">
      <!-- 1.5 -->
      <g transform="translate(505.301449 328.459062) scale(0.1 -0.1)">
       <use xlink:href="#STIXGeneral-Regular-31"/>
       <use xlink:href="#STIXGeneral-Regular-2e" transform="translate(49.999985 0)"/>
       <use xlink:href="#STIXGeneral-Regular-35" transform="translate(74.999969 0)"/>
      </g>
     </g>
    </g>
    <g id="text_8">
     <!-- x -->
     <g transform="translate(287.622187 341.459062) scale(0.1 -0.1)">
      <defs>
       <path id="STIXGeneral-Regular-78" d="M 3066 0 
L 1779 0 
L 1779 96 
Q 1939 109 1987 137 
Q 2035 166 2035 250 
Q 2035 307 1997 365 
L 1414 1261 
L 909 474 
Q 781 275 781 211 
Q 781 96 1037 96 
L 1037 0 
L 109 0 
L 109 96 
Q 269 109 355 169 
Q 442 230 576 422 
L 1306 1478 
L 704 2400 
Q 557 2624 454 2704 
Q 352 2784 211 2784 
L 154 2784 
L 154 2880 
L 1478 2880 
L 1478 2784 
Q 1203 2778 1203 2643 
Q 1203 2509 1498 2074 
Q 1581 1958 1587 1946 
Q 1619 1990 1779 2227 
Q 1811 2285 1856 2349 
Q 1901 2413 1923 2451 
Q 1946 2490 1971 2528 
Q 1997 2566 2006 2595 
Q 2016 2624 2016 2643 
Q 2016 2765 1760 2784 
L 1760 2880 
L 2771 2880 
L 2771 2784 
Q 2445 2771 2253 2502 
L 1722 1734 
L 2541 480 
Q 2790 96 3066 96 
L 3066 0 
z
" transform="scale(0.015625)"/>
      </defs>
      <use xlink:href="#STIXGeneral-Regular-78"/>
     </g>
    </g>
   </g>
   <g id="matplotlib.axis_2">
    <g id="ytick_1">
     <g id="line2d_15">
      <path d="M 46.55 298.612348 
L 533.694375 298.612348 
" clip-path="url(#p1df89696cb)" style="fill: none; stroke: #b0b0b0; stroke-width: 0.8; stroke-linecap: square"/>
     </g>
     <g id="line2d_16">
      <defs>
       <path id="m10430ef54c" d="M 0 0 
L -3.5 0 
" style="stroke: #000000; stroke-width: 0.8"/>
      </defs>
      <g>
       <use xlink:href="#m10430ef54c" x="46.55" y="298.612348" style="stroke: #000000; stroke-width: 0.8"/>
      </g>
     </g>
     <g id="text_9">
      <!-- −0.8 -->
      <g transform="translate(20.2 302.027191) scale(0.1 -0.1)">
       <defs>
        <path id="STIXGeneral-Regular-38" d="M 2848 992 
Q 2848 499 2505 204 
Q 2163 -90 1587 -90 
Q 1050 -90 704 204 
Q 358 499 358 954 
Q 358 1293 524 1533 
Q 691 1773 1190 2125 
Q 710 2522 553 2765 
Q 397 3008 397 3328 
Q 397 3782 745 4054 
Q 1094 4326 1638 4326 
Q 2106 4326 2410 4060 
Q 2714 3795 2714 3411 
Q 2714 3059 2531 2848 
Q 2349 2637 1856 2374 
Q 2432 1990 2640 1689 
Q 2848 1389 2848 992 
z
M 2272 3411 
Q 2272 3744 2086 3945 
Q 1901 4147 1574 4147 
Q 1248 4147 1059 3977 
Q 870 3808 870 3513 
Q 870 3219 1059 2979 
Q 1248 2739 1670 2490 
Q 1997 2682 2134 2896 
Q 2272 3110 2272 3411 
z
M 1734 1741 
L 1357 1997 
Q 1075 1766 960 1545 
Q 845 1325 845 1011 
Q 845 576 1065 333 
Q 1286 90 1658 90 
Q 1971 90 2166 285 
Q 2362 480 2362 794 
Q 2362 1082 2214 1299 
Q 2067 1517 1734 1741 
z
" transform="scale(0.015625)"/>
       </defs>
       <use xlink:href="#STIXGeneral-Regular-2212"/>
       <use xlink:href="#STIXGeneral-Regular-30" transform="translate(68.499985 0)"/>
       <use xlink:href="#STIXGeneral-Regular-2e" transform="translate(118.499969 0)"/>
       <use xlink:href="#STIXGeneral-Regular-38" transform="translate(143.499954 0)"/>
      </g>
     </g>
    </g>
    <g id="ytick_2">
     <g id="line2d_17">
      <path d="M 46.55 265.970051 
L 533.694375 265.970051 
" clip-path="url(#p1df89696cb)" style="fill: none; stroke: #b0b0b0; stroke-width: 0.8; stroke-linecap: square"/>
     </g>
     <g id="line2d_18">
      <g>
       <use xlink:href="#m10430ef54c" x="46.55" y="265.970051" style="stroke: #000000; stroke-width: 0.8"/>
      </g>
     </g>
     <g id="text_10">
      <!-- −0.6 -->
      <g transform="translate(20.2 269.384894) scale(0.1 -0.1)">
       <defs>
        <path id="STIXGeneral-Regular-36" d="M 2854 4378 
L 2867 4275 
Q 2112 4154 1606 3664 
Q 1101 3174 973 2451 
Q 1344 2739 1786 2739 
Q 2349 2739 2672 2380 
Q 2995 2022 2995 1402 
Q 2995 774 2669 378 
Q 2291 -90 1651 -90 
Q 870 -90 518 557 
Q 218 1107 218 1786 
Q 218 2835 915 3552 
Q 1312 3962 1731 4131 
Q 2150 4301 2854 4378 
z
M 2419 1203 
Q 2419 2445 1555 2445 
Q 1235 2445 1024 2275 
Q 813 2106 813 1702 
Q 813 954 1046 522 
Q 1280 90 1722 90 
Q 2061 90 2240 394 
Q 2419 698 2419 1203 
z
" transform="scale(0.015625)"/>
       </defs>
       <use xlink:href="#STIXGeneral-Regular-2212"/>
       <use xlink:href="#STIXGeneral-Regular-30" transform="translate(68.499985 0)"/>
       <use xlink:href="#STIXGeneral-Regular-2e" transform="translate(118.499969 0)"/>
       <use xlink:href="#STIXGeneral-Regular-36" transform="translate(143.499954 0)"/>
      </g>
     </g>
    </g>
    <g id="ytick_3">
     <g id="line2d_19">
      <path d="M 46.55 233.327753 
L 533.694375 233.327753 
" clip-path="url(#p1df89696cb)" style="fill: none; stroke: #b0b0b0; stroke-width: 0.8; stroke-linecap: square"/>
     </g>
     <g id="line2d_20">
      <g>
       <use xlink:href="#m10430ef54c" x="46.55" y="233.327753" style="stroke: #000000; stroke-width: 0.8"/>
      </g>
     </g>
     <g id="text_11">
      <!-- −0.4 -->
      <g transform="translate(20.2 236.742597) scale(0.1 -0.1)">
       <defs>
        <path id="STIXGeneral-Regular-34" d="M 3027 1069 
L 2368 1069 
L 2368 0 
L 1869 0 
L 1869 1069 
L 77 1069 
L 77 1478 
L 2086 4326 
L 2368 4326 
L 2368 1478 
L 3027 1478 
L 3027 1069 
z
M 1869 1478 
L 1869 3674 
L 333 1478 
L 1869 1478 
z
" transform="scale(0.015625)"/>
       </defs>
       <use xlink:href="#STIXGeneral-Regular-2212"/>
       <use xlink:href="#STIXGeneral-Regular-30" transform="translate(68.499985 0)"/>
       <use xlink:href="#STIXGeneral-Regular-2e" transform="translate(118.499969 0)"/>
       <use xlink:href="#STIXGeneral-Regular-34" transform="translate(143.499954 0)"/>
      </g>
     </g>
    </g>
    <g id="ytick_4">
     <g id="line2d_21">
      <path d="M 46.55 200.685456 
L 533.694375 200.685456 
" clip-path="url(#p1df89696cb)" style="fill: none; stroke: #b0b0b0; stroke-width: 0.8; stroke-linecap: square"/>
     </g>
     <g id="line2d_22">
      <g>
       <use xlink:href="#m10430ef54c" x="46.55" y="200.685456" style="stroke: #000000; stroke-width: 0.8"/>
      </g>
     </g>
     <g id="text_12">
      <!-- −0.2 -->
      <g transform="translate(20.2 204.1003) scale(0.1 -0.1)">
       <defs>
        <path id="STIXGeneral-Regular-32" d="M 3034 877 
L 2688 0 
L 186 0 
L 186 77 
L 1325 1286 
Q 1773 1754 1965 2144 
Q 2157 2534 2157 2950 
Q 2157 3379 1920 3616 
Q 1683 3853 1267 3853 
Q 922 3853 720 3673 
Q 518 3494 326 3021 
L 192 3053 
Q 301 3648 630 3987 
Q 960 4326 1523 4326 
Q 2054 4326 2380 4006 
Q 2707 3686 2707 3200 
Q 2707 2477 1888 1613 
L 832 486 
L 2330 486 
Q 2541 486 2665 569 
Q 2790 653 2944 915 
L 3034 877 
z
" transform="scale(0.015625)"/>
       </defs>
       <use xlink:href="#STIXGeneral-Regular-2212"/>
       <use xlink:href="#STIXGeneral-Regular-30" transform="translate(68.499985 0)"/>
       <use xlink:href="#STIXGeneral-Regular-2e" transform="translate(118.499969 0)"/>
       <use xlink:href="#STIXGeneral-Regular-32" transform="translate(143.499954 0)"/>
      </g>
     </g>
    </g>
    <g id="ytick_5">
     <g id="line2d_23">
      <path d="M 46.55 168.043159 
L 533.694375 168.043159 
" clip-path="url(#p1df89696cb)" style="fill: none; stroke: #b0b0b0; stroke-width: 0.8; stroke-linecap: square"/>
     </g>
     <g id="line2d_24">
      <g>
       <use xlink:href="#m10430ef54c" x="46.55" y="168.043159" style="stroke: #000000; stroke-width: 0.8"/>
      </g>
     </g>
     <g id="text_13">
      <!-- 0.0 -->
      <g transform="translate(27.05 171.458003) scale(0.1 -0.1)">
       <use xlink:href="#STIXGeneral-Regular-30"/>
       <use xlink:href="#STIXGeneral-Regular-2e" transform="translate(49.999985 0)"/>
       <use xlink:href="#STIXGeneral-Regular-30" transform="translate(74.999969 0)"/>
      </g>
     </g>
    </g>
    <g id="ytick_6">
     <g id="line2d_25">
      <path d="M 46.55 135.400862 
L 533.694375 135.400862 
" clip-path="url(#p1df89696cb)" style="fill: none; stroke: #b0b0b0; stroke-width: 0.8; stroke-linecap: square"/>
     </g>
     <g id="line2d_26">
      <g>
       <use xlink:href="#m10430ef54c" x="46.55" y="135.400862" style="stroke: #000000; stroke-width: 0.8"/>
      </g>
     </g>
     <g id="text_14">
      <!-- 0.2 -->
      <g transform="translate(27.05 138.815705) scale(0.1 -0.1)">
       <use xlink:href="#STIXGeneral-Regular-30"/>
       <use xlink:href="#STIXGeneral-Regular-2e" transform="translate(49.999985 0)"/>
       <use xlink:href="#STIXGeneral-Regular-32" transform="translate(74.999969 0)"/>
      </g>
     </g>
    </g>
    <g id="ytick_7">
     <g id="line2d_27">
      <path d="M 46.55 102.758565 
L 533.694375 102.758565 
" clip-path="url(#p1df89696cb)" style="fill: none; stroke: #b0b0b0; stroke-width: 0.8; stroke-linecap: square"/>
     </g>
     <g id="line2d_28">
      <g>
       <use xlink:href="#m10430ef54c" x="46.55" y="102.758565" style="stroke: #000000; stroke-width: 0.8"/>
      </g>
     </g>
     <g id="text_15">
      <!-- 0.4 -->
      <g transform="translate(27.05 106.173408) scale(0.1 -0.1)">
       <use xlink:href="#STIXGeneral-Regular-30"/>
       <use xlink:href="#STIXGeneral-Regular-2e" transform="translate(49.999985 0)"/>
       <use xlink:href="#STIXGeneral-Regular-34" transform="translate(74.999969 0)"/>
      </g>
     </g>
    </g>
    <g id="ytick_8">
     <g id="line2d_29">
      <path d="M 46.55 70.116267 
L 533.694375 70.116267 
" clip-path="url(#p1df89696cb)" style="fill: none; stroke: #b0b0b0; stroke-width: 0.8; stroke-linecap: square"/>
     </g>
     <g id="line2d_30">
      <g>
       <use xlink:href="#m10430ef54c" x="46.55" y="70.116267" style="stroke: #000000; stroke-width: 0.8"/>
      </g>
     </g>
     <g id="text_16">
      <!-- 0.6 -->
      <g transform="translate(27.05 73.531111) scale(0.1 -0.1)">
       <use xlink:href="#STIXGeneral-Regular-30"/>
       <use xlink:href="#STIXGeneral-Regular-2e" transform="translate(49.999985 0)"/>
       <use xlink:href="#STIXGeneral-Regular-36" transform="translate(74.999969 0)"/>
      </g>
     </g>
    </g>
    <g id="ytick_9">
     <g id="line2d_31">
      <path d="M 46.55 37.47397 
L 533.694375 37.47397 
" clip-path="url(#p1df89696cb)" style="fill: none; stroke: #b0b0b0; stroke-width: 0.8; stroke-linecap: square"/>
     </g>
     <g id="line2d_32">
      <g>
       <use xlink:href="#m10430ef54c" x="46.55" y="37.47397" style="stroke: #000000; stroke-width: 0.8"/>
      </g>
     </g>
     <g id="text_17">
      <!-- 0.8 -->
      <g transform="translate(27.05 40.888814) scale(0.1 -0.1)">
       <use xlink:href="#STIXGeneral-Regular-30"/>
       <use xlink:href="#STIXGeneral-Regular-2e" transform="translate(49.999985 0)"/>
       <use xlink:href="#STIXGeneral-Regular-38" transform="translate(74.999969 0)"/>
      </g>
     </g>
    </g>
    <g id="text_18">
     <!-- Wavefunction Value -->
     <g transform="translate(14.029688 209.558906) rotate(-90) scale(0.1 -0.1)">
      <defs>
       <path id="STIXGeneral-Regular-57" d="M 5965 4237 
L 5965 4115 
Q 5709 4064 5616 3990 
Q 5523 3917 5434 3667 
Q 4704 1709 4128 -70 
L 4032 -70 
Q 3642 1011 3008 2637 
L 2022 -70 
L 1926 -70 
Q 1709 576 1277 1753 
Q 845 2931 698 3347 
Q 538 3808 406 3958 
Q 275 4109 32 4115 
L 32 4237 
L 1594 4237 
L 1594 4115 
Q 1357 4109 1270 4064 
Q 1184 4019 1184 3917 
Q 1184 3808 1254 3616 
L 2176 1210 
L 2842 3021 
L 2662 3501 
Q 2509 3917 2400 4013 
Q 2291 4109 2010 4115 
L 2010 4237 
L 3706 4237 
L 3706 4115 
Q 3213 4102 3213 3891 
Q 3213 3808 3322 3520 
L 4237 1190 
L 5043 3360 
Q 5152 3667 5152 3853 
Q 5152 4109 4704 4115 
L 4704 4237 
L 5965 4237 
z
" transform="scale(0.015625)"/>
       <path id="STIXGeneral-Regular-61" d="M 2829 422 
L 2829 243 
Q 2586 -64 2253 -64 
Q 1888 -64 1843 403 
L 1837 403 
Q 1427 -64 909 -64 
Q 608 -64 422 112 
Q 237 288 237 602 
Q 237 1050 685 1350 
Q 992 1555 1837 1869 
L 1837 2214 
Q 1837 2502 1699 2646 
Q 1562 2790 1338 2790 
Q 1146 2790 1018 2697 
Q 890 2605 890 2477 
Q 890 2419 909 2348 
Q 928 2278 928 2208 
Q 928 2112 841 2029 
Q 755 1946 634 1946 
Q 525 1946 441 2029 
Q 358 2112 358 2240 
Q 358 2547 685 2752 
Q 986 2944 1421 2944 
Q 1939 2944 2176 2656 
Q 2291 2522 2323 2384 
Q 2355 2246 2355 1946 
L 2355 723 
Q 2355 301 2554 301 
Q 2682 301 2829 422 
z
M 1837 813 
L 1837 1715 
Q 1248 1510 1018 1293 
Q 800 1094 800 800 
Q 800 557 921 432 
Q 1043 307 1242 307 
Q 1453 307 1613 410 
Q 1747 506 1792 589 
Q 1837 672 1837 813 
z
" transform="scale(0.015625)"/>
       <path id="STIXGeneral-Regular-76" d="M 3053 2880 
L 3053 2784 
Q 2906 2771 2835 2688 
Q 2765 2605 2637 2285 
L 1818 230 
Q 1690 -90 1638 -90 
Q 1587 -90 1523 77 
Q 1510 96 1497 141 
Q 1485 186 1472 211 
L 704 2048 
Q 499 2534 403 2652 
Q 307 2771 122 2784 
L 122 2880 
L 1376 2880 
L 1376 2784 
Q 1210 2771 1146 2732 
Q 1082 2694 1082 2611 
Q 1082 2509 1139 2368 
L 1792 730 
L 2426 2387 
Q 2464 2483 2464 2579 
Q 2464 2758 2163 2784 
L 2163 2880 
L 3053 2880 
z
" transform="scale(0.015625)"/>
       <path id="STIXGeneral-Regular-65" d="M 2611 1050 
L 2714 1005 
Q 2330 -64 1376 -64 
Q 813 -64 486 329 
Q 160 723 160 1389 
Q 160 2074 525 2509 
Q 890 2944 1485 2944 
Q 2061 2944 2374 2502 
Q 2560 2246 2592 1773 
L 621 1773 
Q 646 1370 700 1158 
Q 755 947 915 730 
Q 1184 378 1626 378 
Q 1939 378 2153 531 
Q 2368 685 2611 1050 
z
M 634 1978 
L 1939 1978 
Q 1882 2381 1750 2547 
Q 1619 2714 1312 2714 
Q 1043 2714 864 2525 
Q 685 2336 634 1978 
z
" transform="scale(0.015625)"/>
       <path id="STIXGeneral-Regular-66" d="M 134 2880 
L 659 2880 
Q 666 3264 710 3478 
Q 755 3693 883 3910 
Q 1152 4371 1786 4371 
Q 2074 4371 2262 4259 
Q 2451 4147 2451 3974 
Q 2451 3866 2374 3789 
Q 2298 3712 2182 3712 
Q 2029 3712 1894 3942 
Q 1741 4192 1555 4192 
Q 1197 4192 1197 3622 
L 1197 2880 
L 1978 2880 
L 1978 2675 
L 1197 2675 
L 1197 666 
Q 1197 307 1299 208 
Q 1402 109 1792 96 
L 1792 0 
L 128 0 
L 128 96 
Q 474 115 566 214 
Q 659 314 659 666 
L 659 2675 
L 134 2675 
L 134 2880 
z
" transform="scale(0.015625)"/>
       <path id="STIXGeneral-Regular-75" d="M 3072 320 
L 3072 230 
Q 2573 96 2195 -58 
L 2163 -38 
L 2163 486 
L 2150 486 
Q 1747 -64 1235 -64 
Q 870 -64 662 160 
Q 454 384 454 755 
L 454 2362 
Q 454 2598 371 2688 
Q 288 2778 58 2790 
L 58 2880 
L 992 2880 
L 992 813 
Q 992 595 1123 451 
Q 1254 307 1446 307 
Q 1760 307 1984 506 
Q 2067 582 2099 649 
Q 2131 717 2131 877 
L 2131 2355 
Q 2131 2605 2041 2678 
Q 1952 2752 1658 2771 
L 1658 2880 
L 2669 2880 
L 2669 685 
Q 2669 461 2742 390 
Q 2816 320 3034 320 
L 3072 320 
z
" transform="scale(0.015625)"/>
       <path id="STIXGeneral-Regular-6e" d="M 3104 0 
L 1773 0 
L 1779 96 
Q 2016 115 2096 233 
Q 2176 352 2176 672 
L 2176 1946 
Q 2176 2592 1709 2592 
Q 1549 2592 1408 2515 
Q 1267 2438 1050 2227 
L 1050 461 
Q 1050 269 1136 192 
Q 1222 115 1466 96 
L 1466 0 
L 115 0 
L 115 96 
Q 358 115 435 214 
Q 512 314 512 602 
L 512 2157 
Q 512 2394 467 2483 
Q 422 2573 288 2573 
Q 160 2573 102 2547 
L 102 2656 
Q 550 2784 979 2944 
L 1030 2925 
L 1030 2426 
L 1037 2426 
Q 1491 2944 1958 2944 
Q 2323 2944 2518 2688 
Q 2714 2432 2714 1958 
L 2714 544 
Q 2714 288 2790 205 
Q 2867 122 3104 96 
L 3104 0 
z
" transform="scale(0.015625)"/>
       <path id="STIXGeneral-Regular-63" d="M 2547 998 
L 2637 941 
Q 2362 403 2112 205 
Q 1786 -64 1376 -64 
Q 845 -64 502 336 
Q 160 736 160 1357 
Q 160 2170 698 2618 
Q 1094 2944 1562 2944 
Q 1965 2944 2256 2749 
Q 2547 2554 2547 2285 
Q 2547 2176 2457 2096 
Q 2368 2016 2246 2016 
Q 2022 2016 1939 2310 
L 1901 2451 
Q 1850 2630 1773 2694 
Q 1696 2758 1523 2758 
Q 1133 2758 893 2451 
Q 653 2144 653 1645 
Q 653 1094 928 745 
Q 1203 397 1645 397 
Q 1920 397 2118 528 
Q 2317 659 2547 998 
z
" transform="scale(0.015625)"/>
       <path id="STIXGeneral-Regular-74" d="M 1702 493 
L 1786 422 
Q 1478 -64 1011 -64 
Q 448 -64 448 749 
L 448 2675 
L 109 2675 
Q 83 2694 83 2720 
Q 83 2771 192 2842 
Q 435 2982 813 3526 
Q 826 3546 874 3606 
Q 922 3667 941 3706 
Q 986 3706 986 3622 
L 986 2880 
L 1632 2880 
L 1632 2675 
L 986 2675 
L 986 845 
Q 986 538 1062 403 
Q 1139 269 1318 269 
Q 1510 269 1702 493 
z
" transform="scale(0.015625)"/>
       <path id="STIXGeneral-Regular-69" d="M 1152 4045 
Q 1152 3904 1056 3811 
Q 960 3718 819 3718 
Q 685 3718 592 3811 
Q 499 3904 499 4045 
Q 499 4179 595 4275 
Q 691 4371 826 4371 
Q 966 4371 1059 4275 
Q 1152 4179 1152 4045 
z
M 1619 0 
L 102 0 
L 102 96 
Q 435 115 521 211 
Q 608 307 608 666 
L 608 2118 
Q 608 2342 563 2432 
Q 518 2522 397 2522 
Q 243 2522 128 2490 
L 128 2592 
L 1120 2944 
L 1146 2918 
L 1146 672 
Q 1146 314 1226 218 
Q 1306 122 1619 96 
L 1619 0 
z
" transform="scale(0.015625)"/>
       <path id="STIXGeneral-Regular-6f" d="M 3008 1478 
Q 3008 806 2608 371 
Q 2208 -64 1568 -64 
Q 979 -64 582 368 
Q 186 800 186 1459 
Q 186 2125 582 2534 
Q 979 2944 1626 2944 
Q 2221 2944 2614 2537 
Q 3008 2131 3008 1478 
z
M 2432 1306 
Q 2432 2035 2112 2445 
Q 1856 2765 1504 2765 
Q 1171 2765 966 2493 
Q 762 2221 762 1747 
Q 762 928 1101 435 
Q 1318 115 1677 115 
Q 2029 115 2230 432 
Q 2432 749 2432 1306 
z
" transform="scale(0.015625)"/>
       <path id="STIXGeneral-Regular-20" transform="scale(0.015625)"/>
       <path id="STIXGeneral-Regular-56" d="M 4461 4237 
L 4461 4115 
Q 4262 4109 4134 3990 
Q 4006 3872 3872 3533 
L 2451 -70 
L 2355 -70 
L 794 3411 
Q 589 3866 467 3987 
Q 346 4109 102 4115 
L 102 4237 
L 1798 4237 
L 1798 4115 
L 1619 4102 
Q 1331 4083 1331 3904 
Q 1331 3776 1581 3219 
L 2554 1030 
L 3494 3392 
Q 3616 3699 3616 3853 
Q 3616 3898 3606 3933 
Q 3597 3968 3584 3993 
Q 3571 4019 3536 4038 
Q 3501 4058 3481 4067 
Q 3462 4077 3411 4086 
Q 3360 4096 3337 4099 
Q 3315 4102 3248 4108 
Q 3181 4115 3155 4115 
L 3155 4237 
L 4461 4237 
z
" transform="scale(0.015625)"/>
       <path id="STIXGeneral-Regular-6c" d="M 1645 0 
L 134 0 
L 134 96 
Q 435 122 531 221 
Q 627 320 627 589 
L 627 3590 
Q 627 3821 569 3910 
Q 512 4000 358 4000 
Q 224 4000 122 3987 
L 122 4090 
Q 730 4237 1133 4371 
L 1165 4346 
L 1165 557 
Q 1165 288 1254 201 
Q 1344 115 1645 96 
L 1645 0 
z
" transform="scale(0.015625)"/>
      </defs>
      <use xlink:href="#STIXGeneral-Regular-57"/>
      <use xlink:href="#STIXGeneral-Regular-61" transform="translate(94.399994 0)"/>
      <use xlink:href="#STIXGeneral-Regular-76" transform="translate(138.799988 0)"/>
      <use xlink:href="#STIXGeneral-Regular-65" transform="translate(188.799973 0)"/>
      <use xlink:href="#STIXGeneral-Regular-66" transform="translate(233.199966 0)"/>
      <use xlink:href="#STIXGeneral-Regular-75" transform="translate(266.499954 0)"/>
      <use xlink:href="#STIXGeneral-Regular-6e" transform="translate(316.499939 0)"/>
      <use xlink:href="#STIXGeneral-Regular-63" transform="translate(366.499924 0)"/>
      <use xlink:href="#STIXGeneral-Regular-74" transform="translate(410.899918 0)"/>
      <use xlink:href="#STIXGeneral-Regular-69" transform="translate(438.699905 0)"/>
      <use xlink:href="#STIXGeneral-Regular-6f" transform="translate(466.499893 0)"/>
      <use xlink:href="#STIXGeneral-Regular-6e" transform="translate(516.499878 0)"/>
      <use xlink:href="#STIXGeneral-Regular-20" transform="translate(566.499863 0)"/>
      <use xlink:href="#STIXGeneral-Regular-56" transform="translate(591.499847 0)"/>
      <use xlink:href="#STIXGeneral-Regular-61" transform="translate(663.699829 0)"/>
      <use xlink:href="#STIXGeneral-Regular-6c" transform="translate(708.099823 0)"/>
      <use xlink:href="#STIXGeneral-Regular-75" transform="translate(735.899811 0)"/>
      <use xlink:href="#STIXGeneral-Regular-65" transform="translate(785.899796 0)"/>
     </g>
    </g>
   </g>
   <g id="line2d_33">
    <path d="M 68.692926 168.043159 
L 76.672359 130.828136 
L 81.105377 111.250041 
L 84.651792 96.574335 
L 87.754905 84.652013 
L 90.414716 75.23099 
L 93.074526 66.635422 
L 95.291036 60.158396 
L 97.507545 54.347847 
L 99.724054 49.239671 
L 101.497261 45.680195 
L 103.270468 42.604597 
L 105.043676 40.025039 
L 106.373581 38.422107 
L 107.703487 37.107544 
L 109.033392 36.084272 
L 110.363298 35.354569 
L 111.693203 34.920057 
L 113.023109 34.781705 
L 114.353014 34.939818 
L 115.68292 35.394046 
L 117.012825 36.143378 
L 118.34273 37.186146 
L 119.672636 38.520032 
L 121.002541 40.142068 
L 122.332447 42.048645 
L 124.105654 45.025945 
L 125.878862 48.489711 
L 127.652069 52.426244 
L 129.868578 57.987851 
L 132.085087 64.229344 
L 134.301596 71.112166 
L 136.961407 80.157973 
L 139.621218 89.985417 
L 142.724331 102.321713 
L 146.270745 117.385108 
L 150.703764 137.310908 
L 157.353291 168.462223 
L 165.332724 205.66039 
L 169.765742 225.215098 
L 173.312157 239.86533 
L 176.41527 251.760766 
L 179.07508 261.155586 
L 181.734891 269.722279 
L 183.951401 276.173388 
L 186.16791 281.956504 
L 188.384419 287.0359 
L 190.157626 290.571501 
L 191.930833 293.62257 
L 193.704041 296.177043 
L 195.033946 297.760853 
L 196.363852 299.056082 
L 197.693757 300.059846 
L 199.023663 300.769914 
L 200.353568 301.184704 
L 201.683474 301.303295 
L 203.013379 301.125423 
L 204.343284 300.651483 
L 205.67319 299.88253 
L 207.003095 298.820275 
L 208.333001 297.46708 
L 209.662906 295.825956 
L 211.436114 293.196303 
L 213.209321 290.071738 
L 214.982528 286.464619 
L 216.755736 282.389208 
L 218.972245 276.661133 
L 221.188754 270.262051 
L 223.405263 263.231494 
L 226.065074 254.022691 
L 228.724885 244.0492 
L 231.827998 231.56566 
L 235.374412 216.366662 
L 239.80743 196.323432 
L 246.90026 163.015494 
L 253.993089 130.024092 
L 258.426107 110.492964 
L 261.972522 95.868351 
L 265.075634 83.999919 
L 267.735445 74.631395 
L 270.395256 66.093661 
L 272.611765 59.668532 
L 274.828275 53.912907 
L 277.044784 48.862342 
L 278.817991 45.350651 
L 280.591198 42.32414 
L 282.364406 39.794779 
L 283.694311 38.230104 
L 285.024217 36.954224 
L 286.354122 35.969977 
L 287.684027 35.279552 
L 289.013933 34.884486 
L 290.343838 34.785658 
L 291.673744 34.983287 
L 293.003649 35.476934 
L 294.333555 36.265501 
L 295.66346 37.347233 
L 296.993366 38.719724 
L 298.323271 40.37992 
L 300.096479 43.034581 
L 301.869686 46.183582 
L 303.642893 49.814471 
L 305.4161 53.912888 
L 307.63261 59.66851 
L 309.849119 66.093636 
L 312.065628 73.148573 
L 314.725439 82.384225 
L 317.38525 92.381713 
L 320.488362 104.889363 
L 324.034777 120.110436 
L 328.467795 140.172545 
L 336.003926 175.582419 
L 342.653454 206.463686 
L 347.086472 225.971041 
L 350.632887 240.569891 
L 353.735999 252.411201 
L 356.39581 261.753335 
L 359.055621 270.262027 
L 361.27213 276.661111 
L 363.488639 282.389188 
L 365.705149 287.410873 
L 367.478356 290.89862 
L 369.251563 293.900541 
L 371.02477 296.404767 
L 372.354676 297.95029 
L 373.684581 299.20681 
L 375.014487 300.17153 
L 376.344392 300.842305 
L 377.674298 301.217642 
L 379.004203 301.296706 
L 380.334109 301.079322 
L 381.664014 300.565973 
L 382.99392 299.7578 
L 384.323825 298.656602 
L 385.653731 297.26483 
L 386.983636 295.585578 
L 388.756843 292.905934 
L 390.530051 289.732527 
L 392.303258 286.077906 
L 394.076465 281.956524 
L 396.292974 276.17341 
L 398.509484 269.722304 
L 400.725993 262.643056 
L 403.385804 253.380647 
L 406.488916 241.621407 
L 409.592029 228.971703 
L 413.138444 213.621345 
L 417.571462 193.450135 
L 426.8808 149.662769 
L 432.200422 125.232448 
L 436.190139 107.861281 
L 439.736553 93.420039 
L 442.839666 81.743907 
L 445.499477 72.562041 
L 448.159288 64.229368 
L 450.375797 57.987872 
L 452.592306 52.426262 
L 454.365513 48.489727 
L 456.138721 45.02596 
L 457.911928 42.048657 
L 459.685135 39.569592 
L 461.015041 38.043236 
L 462.344946 36.806089 
L 463.674852 35.860905 
L 465.004757 35.209787 
L 466.334663 34.854182 
L 467.664568 34.794883 
L 468.994474 35.03202 
L 470.324379 35.565067 
L 471.654285 36.392837 
L 472.98419 37.513489 
L 474.314096 38.924531 
L 475.644001 40.622821 
L 477.417208 43.327421 
L 479.190416 46.525202 
L 480.963623 50.20352 
L 482.73683 54.347827 
L 484.953339 60.158374 
L 487.169849 66.635398 
L 489.386358 73.738886 
L 492.046169 83.02796 
L 495.149281 94.814672 
L 498.252394 107.487614 
L 502.242111 124.835736 
L 507.118431 147.175716 
L 511.551449 168.043121 
L 511.551449 168.043121 
" clip-path="url(#p1df89696cb)" style="fill: none; stroke: #0000ff; stroke-width: 1.5; stroke-linecap: square"/>
   </g>
   <g id="line2d_34">
    <path d="M 68.692926 168.043159 
L 511.551449 168.043159 
L 511.551449 168.043159 
" clip-path="url(#p1df89696cb)" style="fill: none; stroke-dasharray: 5.55,2.4; stroke-dashoffset: 0; stroke: #ff0000; stroke-width: 1.5"/>
   </g>
   <g id="patch_3">
    <path d="M 46.55 314.629375 
L 46.55 21.455625 
" style="fill: none; stroke: #000000; stroke-width: 0.8; stroke-linejoin: miter; stroke-linecap: square"/>
   </g>
   <g id="patch_4">
    <path d="M 533.694375 314.629375 
L 533.694375 21.455625 
" style="fill: none; stroke: #000000; stroke-width: 0.8; stroke-linejoin: miter; stroke-linecap: square"/>
   </g>
   <g id="patch_5">
    <path d="M 46.55 314.629375 
L 533.694375 314.629375 
" style="fill: none; stroke: #000000; stroke-width: 0.8; stroke-linejoin: miter; stroke-linecap: square"/>
   </g>
   <g id="patch_6">
    <path d="M 46.55 21.455625 
L 533.694375 21.455625 
" style="fill: none; stroke: #000000; stroke-width: 0.8; stroke-linejoin: miter; stroke-linecap: square"/>
   </g>
   <g id="text_19">
    <!-- Wavefunction for Energy = 13.707783393133566 eV -->
    <g transform="translate(160.70125 15.455625) scale(0.12 -0.12)">
     <defs>
      <path id="STIXGeneral-Regular-72" d="M 1024 2931 
L 1024 2342 
Q 1267 2688 1430 2816 
Q 1594 2944 1792 2944 
Q 1958 2944 2051 2854 
Q 2144 2765 2144 2605 
Q 2144 2470 2077 2393 
Q 2010 2317 1894 2317 
Q 1773 2317 1638 2445 
Q 1536 2541 1472 2541 
Q 1338 2541 1181 2355 
Q 1024 2170 1024 2016 
L 1024 576 
Q 1024 301 1133 205 
Q 1242 109 1568 96 
L 1568 0 
L 32 0 
L 32 96 
Q 339 154 412 224 
Q 486 294 486 538 
L 486 2138 
Q 486 2349 438 2435 
Q 390 2522 269 2522 
Q 166 2522 45 2496 
L 45 2598 
Q 448 2726 992 2944 
L 1024 2931 
z
" transform="scale(0.015625)"/>
      <path id="STIXGeneral-Regular-45" d="M 3821 1082 
L 3526 0 
L 77 0 
L 77 122 
Q 442 147 538 252 
Q 634 358 634 730 
L 634 3520 
Q 634 3878 534 3987 
Q 435 4096 77 4115 
L 77 4237 
L 3469 4237 
L 3494 3322 
L 3334 3322 
Q 3264 3750 3085 3872 
Q 2906 3994 2349 3994 
L 1510 3994 
Q 1370 3994 1328 3952 
Q 1286 3910 1286 3763 
L 1286 2355 
L 2253 2355 
Q 2656 2355 2787 2470 
Q 2918 2586 2976 2970 
L 3123 2970 
L 3123 1472 
L 2976 1472 
Q 2918 1875 2790 1984 
Q 2662 2093 2253 2093 
L 1286 2093 
L 1286 538 
Q 1286 346 1420 291 
Q 1555 237 1933 237 
L 2163 237 
Q 2848 237 3136 403 
Q 3424 570 3642 1082 
L 3821 1082 
z
" transform="scale(0.015625)"/>
      <path id="STIXGeneral-Regular-67" d="M 3008 2483 
L 2477 2483 
Q 2598 2208 2598 1946 
Q 2598 1453 2265 1203 
Q 1933 954 1600 954 
Q 1530 954 1357 973 
L 1235 986 
Q 1107 947 979 812 
Q 851 678 851 582 
Q 851 435 1350 410 
L 2176 371 
Q 2528 358 2739 172 
Q 2950 -13 2950 -314 
Q 2950 -685 2566 -986 
Q 2035 -1395 1286 -1395 
Q 826 -1395 502 -1212 
Q 179 -1030 179 -774 
Q 179 -595 320 -419 
Q 461 -243 806 6 
Q 602 102 534 172 
Q 467 243 467 346 
Q 467 531 762 787 
Q 909 915 1037 1043 
Q 717 1203 579 1401 
Q 442 1600 442 1901 
Q 442 2336 752 2640 
Q 1062 2944 1510 2944 
Q 1766 2944 2022 2848 
L 2163 2797 
Q 2349 2733 2515 2733 
L 3008 2733 
L 3008 2483 
z
M 973 2163 
L 973 2144 
Q 973 1683 1155 1398 
Q 1338 1114 1632 1114 
Q 1850 1114 1978 1270 
Q 2106 1427 2106 1690 
Q 2106 2112 1914 2464 
Q 1754 2765 1446 2765 
Q 1222 2765 1097 2605 
Q 973 2445 973 2163 
z
M 2771 -410 
Q 2771 -230 2595 -163 
Q 2419 -96 1978 -96 
Q 1344 -96 941 -13 
Q 749 -243 688 -348 
Q 627 -454 627 -563 
Q 627 -774 880 -902 
Q 1133 -1030 1555 -1030 
Q 2099 -1030 2435 -860 
Q 2771 -691 2771 -410 
z
" transform="scale(0.015625)"/>
      <path id="STIXGeneral-Regular-79" d="M 3040 2880 
L 3040 2784 
Q 2925 2771 2854 2700 
Q 2784 2630 2720 2458 
L 1760 -160 
Q 1510 -838 1257 -1116 
Q 1005 -1395 640 -1395 
Q 435 -1395 313 -1289 
Q 192 -1184 192 -1024 
Q 192 -902 272 -816 
Q 352 -730 467 -730 
Q 653 -730 800 -813 
Q 883 -858 966 -858 
Q 1101 -858 1286 -576 
Q 1376 -448 1459 -211 
Q 1542 26 1542 115 
Q 1542 198 1274 762 
L 429 2566 
Q 346 2752 90 2790 
L 90 2880 
L 1402 2880 
L 1402 2784 
Q 1197 2778 1117 2739 
Q 1037 2701 1037 2611 
Q 1037 2541 1120 2349 
L 1837 749 
L 2458 2515 
Q 2483 2573 2483 2630 
Q 2483 2784 2189 2784 
L 2189 2880 
L 3040 2880 
z
" transform="scale(0.015625)"/>
      <path id="STIXGeneral-Regular-3d" d="M 4077 2048 
L 307 2048 
L 307 2470 
L 4077 2470 
L 4077 2048 
z
M 4077 768 
L 307 768 
L 307 1190 
L 4077 1190 
L 4077 768 
z
" transform="scale(0.015625)"/>
      <path id="STIXGeneral-Regular-33" d="M 390 3264 
L 288 3290 
Q 435 3770 748 4048 
Q 1062 4326 1542 4326 
Q 1990 4326 2265 4083 
Q 2541 3840 2541 3450 
Q 2541 2925 1946 2566 
Q 2298 2413 2477 2227 
Q 2758 1914 2758 1402 
Q 2758 890 2464 506 
Q 2246 211 1840 60 
Q 1434 -90 979 -90 
Q 262 -90 262 275 
Q 262 378 339 442 
Q 416 506 525 506 
Q 685 506 915 339 
Q 1197 141 1466 141 
Q 1818 141 2058 425 
Q 2298 710 2298 1120 
Q 2298 1856 1632 2048 
Q 1434 2112 979 2112 
L 979 2202 
Q 1338 2323 1517 2432 
Q 2035 2726 2035 3290 
Q 2035 3610 1852 3776 
Q 1670 3942 1344 3942 
Q 768 3942 390 3264 
z
" transform="scale(0.015625)"/>
      <path id="STIXGeneral-Regular-37" d="M 2874 4134 
L 1517 -51 
L 1101 -51 
L 2368 3763 
L 992 3763 
Q 717 3763 582 3667 
Q 448 3571 243 3238 
L 128 3296 
L 512 4237 
L 2874 4237 
L 2874 4134 
z
" transform="scale(0.015625)"/>
      <path id="STIXGeneral-Regular-39" d="M 378 -141 
L 358 -13 
Q 1094 115 1603 608 
Q 2112 1101 2304 1882 
Q 1933 1517 1344 1517 
Q 826 1517 509 1875 
Q 192 2234 192 2816 
Q 192 3462 573 3894 
Q 954 4326 1523 4326 
Q 2131 4326 2528 3840 
Q 2938 3328 2938 2522 
Q 2938 1958 2742 1462 
Q 2547 966 2170 621 
Q 1773 262 1395 105 
Q 1018 -51 378 -141 
z
M 2317 2272 
L 2317 2522 
Q 2317 4147 1472 4147 
Q 1171 4147 1005 3930 
Q 909 3802 845 3546 
Q 781 3290 781 3034 
Q 781 2464 995 2128 
Q 1210 1792 1568 1792 
Q 1824 1792 2070 1917 
Q 2317 2042 2317 2272 
z
" transform="scale(0.015625)"/>
     </defs>
     <use xlink:href="#STIXGeneral-Regular-57"/>
     <use xlink:href="#STIXGeneral-Regular-61" transform="translate(94.399994 0)"/>
     <use xlink:href="#STIXGeneral-Regular-76" transform="translate(138.799988 0)"/>
     <use xlink:href="#STIXGeneral-Regular-65" transform="translate(188.799973 0)"/>
     <use xlink:href="#STIXGeneral-Regular-66" transform="translate(233.199966 0)"/>
     <use xlink:href="#STIXGeneral-Regular-75" transform="translate(266.499954 0)"/>
     <use xlink:href="#STIXGeneral-Regular-6e" transform="translate(316.499939 0)"/>
     <use xlink:href="#STIXGeneral-Regular-63" transform="translate(366.499924 0)"/>
     <use xlink:href="#STIXGeneral-Regular-74" transform="translate(410.899918 0)"/>
     <use xlink:href="#STIXGeneral-Regular-69" transform="translate(438.699905 0)"/>
     <use xlink:href="#STIXGeneral-Regular-6f" transform="translate(466.499893 0)"/>
     <use xlink:href="#STIXGeneral-Regular-6e" transform="translate(516.499878 0)"/>
     <use xlink:href="#STIXGeneral-Regular-20" transform="translate(566.499863 0)"/>
     <use xlink:href="#STIXGeneral-Regular-66" transform="translate(591.499847 0)"/>
     <use xlink:href="#STIXGeneral-Regular-6f" transform="translate(624.799835 0)"/>
     <use xlink:href="#STIXGeneral-Regular-72" transform="translate(674.79982 0)"/>
     <use xlink:href="#STIXGeneral-Regular-20" transform="translate(708.099808 0)"/>
     <use xlink:href="#STIXGeneral-Regular-45" transform="translate(733.099792 0)"/>
     <use xlink:href="#STIXGeneral-Regular-6e" transform="translate(794.199783 0)"/>
     <use xlink:href="#STIXGeneral-Regular-65" transform="translate(844.199768 0)"/>
     <use xlink:href="#STIXGeneral-Regular-72" transform="translate(888.599762 0)"/>
     <use xlink:href="#STIXGeneral-Regular-67" transform="translate(921.89975 0)"/>
     <use xlink:href="#STIXGeneral-Regular-79" transform="translate(971.899734 0)"/>
     <use xlink:href="#STIXGeneral-Regular-20" transform="translate(1021.899719 0)"/>
     <use xlink:href="#STIXGeneral-Regular-3d" transform="translate(1046.899704 0)"/>
     <use xlink:href="#STIXGeneral-Regular-20" transform="translate(1115.399689 0)"/>
     <use xlink:href="#STIXGeneral-Regular-31" transform="translate(1140.399673 0)"/>
     <use xlink:href="#STIXGeneral-Regular-33" transform="translate(1190.399658 0)"/>
     <use xlink:href="#STIXGeneral-Regular-2e" transform="translate(1240.399643 0)"/>
     <use xlink:href="#STIXGeneral-Regular-37" transform="translate(1265.399628 0)"/>
     <use xlink:href="#STIXGeneral-Regular-30" transform="translate(1315.399612 0)"/>
     <use xlink:href="#STIXGeneral-Regular-37" transform="translate(1365.399597 0)"/>
     <use xlink:href="#STIXGeneral-Regular-37" transform="translate(1415.399582 0)"/>
     <use xlink:href="#STIXGeneral-Regular-38" transform="translate(1465.399567 0)"/>
     <use xlink:href="#STIXGeneral-Regular-33" transform="translate(1515.399551 0)"/>
     <use xlink:href="#STIXGeneral-Regular-33" transform="translate(1565.399536 0)"/>
     <use xlink:href="#STIXGeneral-Regular-39" transform="translate(1615.399521 0)"/>
     <use xlink:href="#STIXGeneral-Regular-33" transform="translate(1665.399506 0)"/>
     <use xlink:href="#STIXGeneral-Regular-31" transform="translate(1715.39949 0)"/>
     <use xlink:href="#STIXGeneral-Regular-33" transform="translate(1765.399475 0)"/>
     <use xlink:href="#STIXGeneral-Regular-33" transform="translate(1815.39946 0)"/>
     <use xlink:href="#STIXGeneral-Regular-35" transform="translate(1865.399445 0)"/>
     <use xlink:href="#STIXGeneral-Regular-36" transform="translate(1915.399429 0)"/>
     <use xlink:href="#STIXGeneral-Regular-36" transform="translate(1965.399414 0)"/>
     <use xlink:href="#STIXGeneral-Regular-20" transform="translate(2015.399399 0)"/>
     <use xlink:href="#STIXGeneral-Regular-65" transform="translate(2040.399384 0)"/>
     <use xlink:href="#STIXGeneral-Regular-56" transform="translate(2084.799377 0)"/>
    </g>
   </g>
   <g id="legend_1">
    <g id="patch_7">
     <path d="M 53.55 309.629375 
L 145.270313 309.629375 
Q 147.270313 309.629375 147.270313 307.629375 
L 147.270313 280.279375 
Q 147.270313 278.279375 145.270313 278.279375 
L 53.55 278.279375 
Q 51.55 278.279375 51.55 280.279375 
L 51.55 307.629375 
Q 51.55 309.629375 53.55 309.629375 
z
" style="fill: #ffffff; opacity: 0.8; stroke: #cccccc; stroke-linejoin: miter"/>
    </g>
    <g id="line2d_35">
     <path d="M 55.55 285.779375 
L 65.55 285.779375 
L 75.55 285.779375 
" style="fill: none; stroke: #0000ff; stroke-width: 1.5; stroke-linecap: square"/>
    </g>
    <g id="text_20">
     <!-- Real Part -->
     <g transform="translate(83.55 289.279375) scale(0.1 -0.1)">
      <defs>
       <path id="STIXGeneral-Regular-52" d="M 4224 0 
L 3187 0 
L 1664 1971 
L 1306 1958 
L 1306 717 
Q 1306 352 1405 249 
Q 1504 147 1875 122 
L 1875 0 
L 109 0 
L 109 122 
Q 474 154 563 262 
Q 653 371 653 794 
L 653 3526 
Q 653 3885 563 3987 
Q 474 4090 109 4115 
L 109 4237 
L 1850 4237 
Q 2726 4237 3187 3859 
Q 3501 3603 3501 3091 
Q 3501 2221 2342 2042 
L 3622 422 
Q 3757 256 3878 198 
Q 4000 141 4224 122 
L 4224 0 
z
M 1306 3731 
L 1306 2195 
Q 1766 2202 1990 2246 
Q 2214 2291 2438 2413 
Q 2803 2618 2803 3142 
Q 2803 4000 1632 4000 
Q 1459 4000 1382 3945 
Q 1306 3891 1306 3731 
z
" transform="scale(0.015625)"/>
       <path id="STIXGeneral-Regular-50" d="M 102 4237 
L 1760 4237 
Q 2669 4237 3149 3834 
Q 3469 3565 3469 3072 
Q 3469 2560 3104 2234 
Q 2835 1990 2553 1916 
Q 2272 1843 1734 1843 
Q 1549 1843 1293 1862 
L 1293 717 
Q 1293 352 1398 246 
Q 1504 141 1894 122 
L 1894 0 
L 102 0 
L 102 122 
Q 474 147 557 256 
Q 640 365 640 781 
L 640 3526 
Q 640 3885 547 3987 
Q 454 4090 102 4115 
L 102 4237 
z
M 1293 3770 
L 1293 2118 
Q 1510 2099 1683 2099 
Q 2202 2099 2486 2352 
Q 2771 2605 2771 3040 
Q 2771 3558 2476 3779 
Q 2182 4000 1517 4000 
Q 1382 4000 1337 3952 
Q 1293 3904 1293 3770 
z
" transform="scale(0.015625)"/>
      </defs>
      <use xlink:href="#STIXGeneral-Regular-52"/>
      <use xlink:href="#STIXGeneral-Regular-65" transform="translate(66.699997 0)"/>
      <use xlink:href="#STIXGeneral-Regular-61" transform="translate(111.099991 0)"/>
      <use xlink:href="#STIXGeneral-Regular-6c" transform="translate(155.499985 0)"/>
      <use xlink:href="#STIXGeneral-Regular-20" transform="translate(183.299973 0)"/>
      <use xlink:href="#STIXGeneral-Regular-50" transform="translate(208.299957 0)"/>
      <use xlink:href="#STIXGeneral-Regular-61" transform="translate(263.999954 0)"/>
      <use xlink:href="#STIXGeneral-Regular-72" transform="translate(308.399948 0)"/>
      <use xlink:href="#STIXGeneral-Regular-74" transform="translate(341.699936 0)"/>
     </g>
    </g>
    <g id="line2d_36">
     <path d="M 55.55 299.949687 
L 65.55 299.949687 
L 75.55 299.949687 
" style="fill: none; stroke-dasharray: 5.55,2.4; stroke-dashoffset: 0; stroke: #ff0000; stroke-width: 1.5"/>
    </g>
    <g id="text_21">
     <!-- Imaginary Part -->
     <g transform="translate(83.55 303.449687) scale(0.1 -0.1)">
      <defs>
       <path id="STIXGeneral-Regular-49" d="M 2016 0 
L 115 0 
L 115 122 
Q 518 134 627 240 
Q 736 346 736 717 
L 736 3526 
Q 736 3898 633 3994 
Q 531 4090 115 4115 
L 115 4237 
L 2016 4237 
L 2016 4115 
Q 1613 4096 1501 3993 
Q 1389 3891 1389 3526 
L 1389 717 
Q 1389 358 1504 246 
Q 1619 134 2016 122 
L 2016 0 
z
" transform="scale(0.015625)"/>
       <path id="STIXGeneral-Regular-6d" d="M 4960 0 
L 3565 0 
L 3565 96 
Q 3834 122 3907 208 
Q 3981 294 3981 576 
L 3981 1894 
Q 3981 2278 3869 2444 
Q 3757 2611 3488 2611 
Q 3264 2611 3107 2521 
Q 2950 2432 2803 2221 
L 2803 608 
Q 2803 301 2896 201 
Q 2989 102 3264 96 
L 3264 0 
L 1830 0 
L 1830 96 
Q 2112 115 2189 188 
Q 2266 262 2266 550 
L 2266 1901 
Q 2266 2611 1850 2611 
Q 1670 2611 1468 2531 
Q 1267 2451 1171 2336 
Q 1088 2240 1088 2227 
L 1088 448 
Q 1088 243 1177 176 
Q 1267 109 1523 96 
L 1523 0 
L 102 0 
L 102 96 
Q 371 102 460 195 
Q 550 288 550 563 
L 550 2150 
Q 550 2387 499 2480 
Q 448 2573 326 2573 
Q 230 2573 122 2547 
L 122 2656 
Q 557 2778 1011 2944 
L 1062 2925 
L 1062 2451 
L 1075 2451 
Q 1363 2752 1584 2848 
Q 1805 2944 2054 2944 
Q 2560 2944 2733 2406 
Q 3232 2944 3776 2944 
Q 4518 2944 4518 1792 
L 4518 493 
Q 4518 282 4582 202 
Q 4646 122 4794 109 
L 4960 96 
L 4960 0 
z
" transform="scale(0.015625)"/>
      </defs>
      <use xlink:href="#STIXGeneral-Regular-49"/>
      <use xlink:href="#STIXGeneral-Regular-6d" transform="translate(33.299988 0)"/>
      <use xlink:href="#STIXGeneral-Regular-61" transform="translate(111.099976 0)"/>
      <use xlink:href="#STIXGeneral-Regular-67" transform="translate(155.499969 0)"/>
      <use xlink:href="#STIXGeneral-Regular-69" transform="translate(205.499954 0)"/>
      <use xlink:href="#STIXGeneral-Regular-6e" transform="translate(233.299942 0)"/>
      <use xlink:href="#STIXGeneral-Regular-61" transform="translate(283.299927 0)"/>
      <use xlink:href="#STIXGeneral-Regular-72" transform="translate(327.699921 0)"/>
      <use xlink:href="#STIXGeneral-Regular-79" transform="translate(360.999908 0)"/>
      <use xlink:href="#STIXGeneral-Regular-20" transform="translate(410.999893 0)"/>
      <use xlink:href="#STIXGeneral-Regular-50" transform="translate(435.999878 0)"/>
      <use xlink:href="#STIXGeneral-Regular-61" transform="translate(491.699875 0)"/>
      <use xlink:href="#STIXGeneral-Regular-72" transform="translate(536.099869 0)"/>
      <use xlink:href="#STIXGeneral-Regular-74" transform="translate(569.399857 0)"/>
     </g>
    </g>
   </g>
  </g>
  <g id="axes_2">
   <g id="patch_8">
    <path d="M 577.735625 314.629375 
L 1064.88 314.629375 
L 1064.88 21.455625 
L 577.735625 21.455625 
z
" style="fill: #ffffff"/>
   </g>
   <g id="matplotlib.axis_3">
    <g id="xtick_8">
     <g id="line2d_37">
      <path d="M 599.878551 314.629375 
L 599.878551 21.455625 
" clip-path="url(#p0238524b23)" style="fill: none; stroke: #b0b0b0; stroke-width: 0.8; stroke-linecap: square"/>
     </g>
     <g id="line2d_38">
      <g>
       <use xlink:href="#m136b1a1ce0" x="599.878551" y="314.629375" style="stroke: #000000; stroke-width: 0.8"/>
      </g>
     </g>
     <g id="text_22">
      <!-- −1.5 -->
      <g transform="translate(590.203551 328.459062) scale(0.1 -0.1)">
       <use xlink:href="#STIXGeneral-Regular-2212"/>
       <use xlink:href="#STIXGeneral-Regular-31" transform="translate(68.499985 0)"/>
       <use xlink:href="#STIXGeneral-Regular-2e" transform="translate(118.499969 0)"/>
       <use xlink:href="#STIXGeneral-Regular-35" transform="translate(143.499954 0)"/>
      </g>
     </g>
    </g>
    <g id="xtick_9">
     <g id="line2d_39">
      <path d="M 673.688305 314.629375 
L 673.688305 21.455625 
" clip-path="url(#p0238524b23)" style="fill: none; stroke: #b0b0b0; stroke-width: 0.8; stroke-linecap: square"/>
     </g>
     <g id="line2d_40">
      <g>
       <use xlink:href="#m136b1a1ce0" x="673.688305" y="314.629375" style="stroke: #000000; stroke-width: 0.8"/>
      </g>
     </g>
     <g id="text_23">
      <!-- −1.0 -->
      <g transform="translate(664.013305 328.459062) scale(0.1 -0.1)">
       <use xlink:href="#STIXGeneral-Regular-2212"/>
       <use xlink:href="#STIXGeneral-Regular-31" transform="translate(68.499985 0)"/>
       <use xlink:href="#STIXGeneral-Regular-2e" transform="translate(118.499969 0)"/>
       <use xlink:href="#STIXGeneral-Regular-30" transform="translate(143.499954 0)"/>
      </g>
     </g>
    </g>
    <g id="xtick_10">
     <g id="line2d_41">
      <path d="M 747.498059 314.629375 
L 747.498059 21.455625 
" clip-path="url(#p0238524b23)" style="fill: none; stroke: #b0b0b0; stroke-width: 0.8; stroke-linecap: square"/>
     </g>
     <g id="line2d_42">
      <g>
       <use xlink:href="#m136b1a1ce0" x="747.498059" y="314.629375" style="stroke: #000000; stroke-width: 0.8"/>
      </g>
     </g>
     <g id="text_24">
      <!-- −0.5 -->
      <g transform="translate(737.823059 328.459062) scale(0.1 -0.1)">
       <use xlink:href="#STIXGeneral-Regular-2212"/>
       <use xlink:href="#STIXGeneral-Regular-30" transform="translate(68.499985 0)"/>
       <use xlink:href="#STIXGeneral-Regular-2e" transform="translate(118.499969 0)"/>
       <use xlink:href="#STIXGeneral-Regular-35" transform="translate(143.499954 0)"/>
      </g>
     </g>
    </g>
    <g id="xtick_11">
     <g id="line2d_43">
      <path d="M 821.307813 314.629375 
L 821.307813 21.455625 
" clip-path="url(#p0238524b23)" style="fill: none; stroke: #b0b0b0; stroke-width: 0.8; stroke-linecap: square"/>
     </g>
     <g id="line2d_44">
      <g>
       <use xlink:href="#m136b1a1ce0" x="821.307813" y="314.629375" style="stroke: #000000; stroke-width: 0.8"/>
      </g>
     </g>
     <g id="text_25">
      <!-- 0.0 -->
      <g transform="translate(815.057813 328.459062) scale(0.1 -0.1)">
       <use xlink:href="#STIXGeneral-Regular-30"/>
       <use xlink:href="#STIXGeneral-Regular-2e" transform="translate(49.999985 0)"/>
       <use xlink:href="#STIXGeneral-Regular-30" transform="translate(74.999969 0)"/>
      </g>
     </g>
    </g>
    <g id="xtick_12">
     <g id="line2d_45">
      <path d="M 895.117566 314.629375 
L 895.117566 21.455625 
" clip-path="url(#p0238524b23)" style="fill: none; stroke: #b0b0b0; stroke-width: 0.8; stroke-linecap: square"/>
     </g>
     <g id="line2d_46">
      <g>
       <use xlink:href="#m136b1a1ce0" x="895.117566" y="314.629375" style="stroke: #000000; stroke-width: 0.8"/>
      </g>
     </g>
     <g id="text_26">
      <!-- 0.5 -->
      <g transform="translate(888.867566 328.459062) scale(0.1 -0.1)">
       <use xlink:href="#STIXGeneral-Regular-30"/>
       <use xlink:href="#STIXGeneral-Regular-2e" transform="translate(49.999985 0)"/>
       <use xlink:href="#STIXGeneral-Regular-35" transform="translate(74.999969 0)"/>
      </g>
     </g>
    </g>
    <g id="xtick_13">
     <g id="line2d_47">
      <path d="M 968.92732 314.629375 
L 968.92732 21.455625 
" clip-path="url(#p0238524b23)" style="fill: none; stroke: #b0b0b0; stroke-width: 0.8; stroke-linecap: square"/>
     </g>
     <g id="line2d_48">
      <g>
       <use xlink:href="#m136b1a1ce0" x="968.92732" y="314.629375" style="stroke: #000000; stroke-width: 0.8"/>
      </g>
     </g>
     <g id="text_27">
      <!-- 1.0 -->
      <g transform="translate(962.67732 328.459062) scale(0.1 -0.1)">
       <use xlink:href="#STIXGeneral-Regular-31"/>
       <use xlink:href="#STIXGeneral-Regular-2e" transform="translate(49.999985 0)"/>
       <use xlink:href="#STIXGeneral-Regular-30" transform="translate(74.999969 0)"/>
      </g>
     </g>
    </g>
    <g id="xtick_14">
     <g id="line2d_49">
      <path d="M 1042.737074 314.629375 
L 1042.737074 21.455625 
" clip-path="url(#p0238524b23)" style="fill: none; stroke: #b0b0b0; stroke-width: 0.8; stroke-linecap: square"/>
     </g>
     <g id="line2d_50">
      <g>
       <use xlink:href="#m136b1a1ce0" x="1042.737074" y="314.629375" style="stroke: #000000; stroke-width: 0.8"/>
      </g>
     </g>
     <g id="text_28">
      <!-- 1.5 -->
      <g transform="translate(1036.487074 328.459062) scale(0.1 -0.1)">
       <use xlink:href="#STIXGeneral-Regular-31"/>
       <use xlink:href="#STIXGeneral-Regular-2e" transform="translate(49.999985 0)"/>
       <use xlink:href="#STIXGeneral-Regular-35" transform="translate(74.999969 0)"/>
      </g>
     </g>
    </g>
    <g id="text_29">
     <!-- x -->
     <g transform="translate(818.807813 341.459062) scale(0.1 -0.1)">
      <use xlink:href="#STIXGeneral-Regular-78"/>
     </g>
    </g>
   </g>
   <g id="matplotlib.axis_4">
    <g id="ytick_10">
     <g id="line2d_51">
      <path d="M 577.735625 301.303295 
L 1064.88 301.303295 
" clip-path="url(#p0238524b23)" style="fill: none; stroke: #b0b0b0; stroke-width: 0.8; stroke-linecap: square"/>
     </g>
     <g id="line2d_52">
      <g>
       <use xlink:href="#m10430ef54c" x="577.735625" y="301.303295" style="stroke: #000000; stroke-width: 0.8"/>
      </g>
     </g>
     <g id="text_30">
      <!-- 0.0 -->
      <g transform="translate(558.235625 304.718139) scale(0.1 -0.1)">
       <use xlink:href="#STIXGeneral-Regular-30"/>
       <use xlink:href="#STIXGeneral-Regular-2e" transform="translate(49.999985 0)"/>
       <use xlink:href="#STIXGeneral-Regular-30" transform="translate(74.999969 0)"/>
      </g>
     </g>
    </g>
    <g id="ytick_11">
     <g id="line2d_53">
      <path d="M 577.735625 261.324957 
L 1064.88 261.324957 
" clip-path="url(#p0238524b23)" style="fill: none; stroke: #b0b0b0; stroke-width: 0.8; stroke-linecap: square"/>
     </g>
     <g id="line2d_54">
      <g>
       <use xlink:href="#m10430ef54c" x="577.735625" y="261.324957" style="stroke: #000000; stroke-width: 0.8"/>
      </g>
     </g>
     <g id="text_31">
      <!-- 0.1 -->
      <g transform="translate(558.235625 264.739801) scale(0.1 -0.1)">
       <use xlink:href="#STIXGeneral-Regular-30"/>
       <use xlink:href="#STIXGeneral-Regular-2e" transform="translate(49.999985 0)"/>
       <use xlink:href="#STIXGeneral-Regular-31" transform="translate(74.999969 0)"/>
      </g>
     </g>
    </g>
    <g id="ytick_12">
     <g id="line2d_55">
      <path d="M 577.735625 221.346619 
L 1064.88 221.346619 
" clip-path="url(#p0238524b23)" style="fill: none; stroke: #b0b0b0; stroke-width: 0.8; stroke-linecap: square"/>
     </g>
     <g id="line2d_56">
      <g>
       <use xlink:href="#m10430ef54c" x="577.735625" y="221.346619" style="stroke: #000000; stroke-width: 0.8"/>
      </g>
     </g>
     <g id="text_32">
      <!-- 0.2 -->
      <g transform="translate(558.235625 224.761463) scale(0.1 -0.1)">
       <use xlink:href="#STIXGeneral-Regular-30"/>
       <use xlink:href="#STIXGeneral-Regular-2e" transform="translate(49.999985 0)"/>
       <use xlink:href="#STIXGeneral-Regular-32" transform="translate(74.999969 0)"/>
      </g>
     </g>
    </g>
    <g id="ytick_13">
     <g id="line2d_57">
      <path d="M 577.735625 181.368281 
L 1064.88 181.368281 
" clip-path="url(#p0238524b23)" style="fill: none; stroke: #b0b0b0; stroke-width: 0.8; stroke-linecap: square"/>
     </g>
     <g id="line2d_58">
      <g>
       <use xlink:href="#m10430ef54c" x="577.735625" y="181.368281" style="stroke: #000000; stroke-width: 0.8"/>
      </g>
     </g>
     <g id="text_33">
      <!-- 0.3 -->
      <g transform="translate(558.235625 184.783125) scale(0.1 -0.1)">
       <use xlink:href="#STIXGeneral-Regular-30"/>
       <use xlink:href="#STIXGeneral-Regular-2e" transform="translate(49.999985 0)"/>
       <use xlink:href="#STIXGeneral-Regular-33" transform="translate(74.999969 0)"/>
      </g>
     </g>
    </g>
    <g id="ytick_14">
     <g id="line2d_59">
      <path d="M 577.735625 141.389943 
L 1064.88 141.389943 
" clip-path="url(#p0238524b23)" style="fill: none; stroke: #b0b0b0; stroke-width: 0.8; stroke-linecap: square"/>
     </g>
     <g id="line2d_60">
      <g>
       <use xlink:href="#m10430ef54c" x="577.735625" y="141.389943" style="stroke: #000000; stroke-width: 0.8"/>
      </g>
     </g>
     <g id="text_34">
      <!-- 0.4 -->
      <g transform="translate(558.235625 144.804786) scale(0.1 -0.1)">
       <use xlink:href="#STIXGeneral-Regular-30"/>
       <use xlink:href="#STIXGeneral-Regular-2e" transform="translate(49.999985 0)"/>
       <use xlink:href="#STIXGeneral-Regular-34" transform="translate(74.999969 0)"/>
      </g>
     </g>
    </g>
    <g id="ytick_15">
     <g id="line2d_61">
      <path d="M 577.735625 101.411604 
L 1064.88 101.411604 
" clip-path="url(#p0238524b23)" style="fill: none; stroke: #b0b0b0; stroke-width: 0.8; stroke-linecap: square"/>
     </g>
     <g id="line2d_62">
      <g>
       <use xlink:href="#m10430ef54c" x="577.735625" y="101.411604" style="stroke: #000000; stroke-width: 0.8"/>
      </g>
     </g>
     <g id="text_35">
      <!-- 0.5 -->
      <g transform="translate(558.235625 104.826448) scale(0.1 -0.1)">
       <use xlink:href="#STIXGeneral-Regular-30"/>
       <use xlink:href="#STIXGeneral-Regular-2e" transform="translate(49.999985 0)"/>
       <use xlink:href="#STIXGeneral-Regular-35" transform="translate(74.999969 0)"/>
      </g>
     </g>
    </g>
    <g id="ytick_16">
     <g id="line2d_63">
      <path d="M 577.735625 61.433266 
L 1064.88 61.433266 
" clip-path="url(#p0238524b23)" style="fill: none; stroke: #b0b0b0; stroke-width: 0.8; stroke-linecap: square"/>
     </g>
     <g id="line2d_64">
      <g>
       <use xlink:href="#m10430ef54c" x="577.735625" y="61.433266" style="stroke: #000000; stroke-width: 0.8"/>
      </g>
     </g>
     <g id="text_36">
      <!-- 0.6 -->
      <g transform="translate(558.235625 64.84811) scale(0.1 -0.1)">
       <use xlink:href="#STIXGeneral-Regular-30"/>
       <use xlink:href="#STIXGeneral-Regular-2e" transform="translate(49.999985 0)"/>
       <use xlink:href="#STIXGeneral-Regular-36" transform="translate(74.999969 0)"/>
      </g>
     </g>
    </g>
    <g id="text_37">
     <!-- Wavefunction Magnitude -->
     <g transform="translate(552.055938 219.283906) rotate(-90) scale(0.1 -0.1)">
      <defs>
       <path id="STIXGeneral-Regular-4d" d="M 5530 0 
L 3738 0 
L 3738 122 
Q 4115 147 4214 265 
Q 4314 384 4314 787 
L 4314 3661 
L 2682 0 
L 2592 0 
L 979 3514 
L 979 966 
Q 979 448 1088 294 
Q 1197 141 1574 122 
L 1574 0 
L 77 0 
L 77 122 
Q 358 141 480 205 
Q 602 269 650 432 
Q 698 595 698 966 
L 698 3514 
Q 698 3878 589 3984 
Q 480 4090 90 4115 
L 90 4237 
L 1357 4237 
L 2835 1024 
L 4250 4237 
L 5523 4237 
L 5523 4115 
Q 5178 4109 5072 3993 
Q 4966 3878 4966 3520 
L 4966 717 
Q 4966 378 5072 262 
Q 5178 147 5530 122 
L 5530 0 
z
" transform="scale(0.015625)"/>
       <path id="STIXGeneral-Regular-64" d="M 3142 269 
L 2202 -64 
L 2176 -45 
L 2176 365 
Q 1869 -64 1357 -64 
Q 826 -64 499 317 
Q 173 698 173 1312 
Q 173 1990 563 2467 
Q 954 2944 1504 2944 
Q 1850 2944 2176 2669 
L 2176 3667 
Q 2176 3866 2118 3930 
Q 2061 3994 1882 3994 
Q 1792 3994 1741 3987 
L 1741 4090 
Q 2323 4243 2682 4371 
L 2714 4358 
L 2714 730 
Q 2714 506 2768 435 
Q 2822 365 2995 365 
Q 3034 365 3142 371 
L 3142 269 
z
M 2176 653 
L 2176 2125 
Q 2176 2381 1981 2573 
Q 1786 2765 1523 2765 
Q 1158 2765 940 2438 
Q 723 2112 723 1568 
Q 723 979 963 624 
Q 1203 269 1606 269 
Q 1907 269 2080 474 
Q 2176 582 2176 653 
z
" transform="scale(0.015625)"/>
      </defs>
      <use xlink:href="#STIXGeneral-Regular-57"/>
      <use xlink:href="#STIXGeneral-Regular-61" transform="translate(94.399994 0)"/>
      <use xlink:href="#STIXGeneral-Regular-76" transform="translate(138.799988 0)"/>
      <use xlink:href="#STIXGeneral-Regular-65" transform="translate(188.799973 0)"/>
      <use xlink:href="#STIXGeneral-Regular-66" transform="translate(233.199966 0)"/>
      <use xlink:href="#STIXGeneral-Regular-75" transform="translate(266.499954 0)"/>
      <use xlink:href="#STIXGeneral-Regular-6e" transform="translate(316.499939 0)"/>
      <use xlink:href="#STIXGeneral-Regular-63" transform="translate(366.499924 0)"/>
      <use xlink:href="#STIXGeneral-Regular-74" transform="translate(410.899918 0)"/>
      <use xlink:href="#STIXGeneral-Regular-69" transform="translate(438.699905 0)"/>
      <use xlink:href="#STIXGeneral-Regular-6f" transform="translate(466.499893 0)"/>
      <use xlink:href="#STIXGeneral-Regular-6e" transform="translate(516.499878 0)"/>
      <use xlink:href="#STIXGeneral-Regular-20" transform="translate(566.499863 0)"/>
      <use xlink:href="#STIXGeneral-Regular-4d" transform="translate(591.499847 0)"/>
      <use xlink:href="#STIXGeneral-Regular-61" transform="translate(680.399841 0)"/>
      <use xlink:href="#STIXGeneral-Regular-67" transform="translate(724.799835 0)"/>
      <use xlink:href="#STIXGeneral-Regular-6e" transform="translate(774.79982 0)"/>
      <use xlink:href="#STIXGeneral-Regular-69" transform="translate(824.799805 0)"/>
      <use xlink:href="#STIXGeneral-Regular-74" transform="translate(852.599792 0)"/>
      <use xlink:href="#STIXGeneral-Regular-75" transform="translate(880.39978 0)"/>
      <use xlink:href="#STIXGeneral-Regular-64" transform="translate(930.399765 0)"/>
      <use xlink:href="#STIXGeneral-Regular-65" transform="translate(980.39975 0)"/>
     </g>
    </g>
   </g>
   <g id="line2d_65">
    <path d="M 599.878551 301.303295 
L 600.321853 301.237407 
L 600.765155 301.039809 
L 601.651758 300.25039 
L 602.538362 298.938161 
L 603.424966 297.108311 
L 604.311569 294.768076 
L 605.198173 291.92671 
L 606.528079 286.750151 
L 607.857984 280.517823 
L 609.187889 273.285156 
L 610.961097 262.197906 
L 612.734304 249.622794 
L 614.950813 232.116313 
L 617.610624 209.062669 
L 621.600341 172.022759 
L 626.919962 122.661141 
L 629.579773 99.965217 
L 631.796283 82.866067 
L 633.56949 70.681249 
L 635.342697 60.034942 
L 636.672603 53.162054 
L 638.002508 47.310892 
L 639.332414 42.533494 
L 640.219017 39.966485 
L 641.105621 37.905945 
L 641.992224 36.36002 
L 642.878828 35.334826 
L 643.765432 34.834416 
L 644.208734 34.781705 
L 644.652035 34.860768 
L 645.095337 35.07153 
L 645.981941 35.88718 
L 646.868545 37.22543 
L 647.755148 39.080987 
L 648.641752 41.446515 
L 649.528355 44.312658 
L 650.858261 49.525203 
L 652.188166 55.791819 
L 653.518072 63.056771 
L 655.291279 74.183456 
L 657.064487 86.79331 
L 659.280996 104.335788 
L 661.940807 127.42059 
L 665.930523 164.480478 
L 671.250145 213.816991 
L 673.909956 236.479043 
L 676.126465 253.540141 
L 677.899672 265.688749 
L 679.67288 276.294331 
L 681.002785 283.134097 
L 682.332691 288.950254 
L 683.662596 293.691075 
L 684.5492 296.232985 
L 685.435803 298.267972 
L 686.322407 299.787989 
L 687.209011 300.787023 
L 688.095614 301.261125 
L 688.538916 301.30066 
L 688.982218 301.208421 
L 689.42552 300.984499 
L 690.312123 300.142626 
L 691.198727 298.778368 
L 692.085331 296.897121 
L 692.971934 294.506325 
L 693.858538 291.615433 
L 695.188443 286.366952 
L 696.518349 280.06611 
L 697.848254 272.768946 
L 699.621462 261.602936 
L 701.394669 248.958466 
L 703.611178 231.380163 
L 706.270989 208.264431 
L 710.260705 171.184932 
L 715.580327 121.874012 
L 718.240138 99.246057 
L 720.456647 82.223179 
L 722.229855 70.110902 
L 724.003062 59.54615 
L 725.332967 52.739572 
L 726.662873 46.958477 
L 727.992778 42.254281 
L 728.879382 39.737494 
L 729.765986 37.728081 
L 730.652589 36.233987 
L 731.539193 35.261122 
L 732.425797 34.813333 
L 732.869099 34.786976 
L 733.3124 34.892389 
L 733.755702 35.129468 
L 734.642306 35.997557 
L 735.528909 37.387809 
L 736.415513 39.294726 
L 737.302117 41.710768 
L 738.18872 44.626381 
L 739.518626 49.910745 
L 740.848531 56.24575 
L 742.178437 63.575055 
L 743.951644 74.780279 
L 745.724851 87.459241 
L 747.941361 105.073195 
L 750.601171 128.219627 
L 754.590888 165.318371 
L 759.91051 214.603211 
L 762.570321 237.196845 
L 764.78683 254.181335 
L 766.560037 266.257161 
L 768.333244 276.780979 
L 769.66315 283.554301 
L 770.993055 289.300276 
L 772.322961 293.967802 
L 773.209565 296.45944 
L 774.096168 298.44326 
L 774.982772 299.911415 
L 775.869375 300.858101 
L 776.312677 301.134642 
L 776.755979 301.279574 
L 777.199281 301.292753 
L 777.642583 301.174166 
L 778.085885 300.923932 
L 778.972488 300.029637 
L 779.859092 298.613404 
L 780.745696 296.680835 
L 781.632299 294.239572 
L 782.962205 289.645532 
L 784.29211 283.969973 
L 785.622016 277.26337 
L 787.395223 266.821739 
L 789.16843 254.819179 
L 791.384939 237.911977 
L 794.04475 215.38766 
L 797.591165 182.88835 
L 804.683994 117.190603 
L 807.343805 94.989171 
L 809.560314 78.437963 
L 811.333521 66.770902 
L 813.106729 56.704145 
L 814.436634 50.300995 
L 815.76654 44.945015 
L 817.096445 40.683841 
L 817.983049 38.470411 
L 818.869652 36.769365 
L 819.756256 35.58743 
L 820.64286 34.92928 
L 821.086162 34.797519 
L 821.529463 34.797518 
L 821.972765 34.929277 
L 822.416067 35.192665 
L 823.302671 36.113157 
L 824.189274 37.555356 
L 825.075878 39.513558 
L 825.962482 41.980019 
L 827.292387 46.610821 
L 828.622293 52.321613 
L 829.952198 59.061605 
L 831.725405 69.544378 
L 833.498613 81.583628 
L 835.715122 98.529554 
L 838.374933 121.088638 
L 841.921347 153.612518 
L 848.570875 215.387589 
L 851.230686 237.911912 
L 853.447195 254.819121 
L 855.220402 266.821688 
L 856.993609 277.263327 
L 858.323515 283.969935 
L 859.65342 289.645501 
L 860.983326 294.239547 
L 861.869929 296.680815 
L 862.756533 298.613389 
L 863.643137 300.029626 
L 864.52974 300.923926 
L 864.973042 301.174163 
L 865.416344 301.292752 
L 865.859646 301.279575 
L 866.302948 301.134646 
L 866.74625 300.858108 
L 867.632853 299.911426 
L 868.519457 298.443275 
L 869.40606 296.45946 
L 870.292664 293.967826 
L 871.62257 289.300307 
L 872.952475 283.554339 
L 874.282381 276.781023 
L 876.055588 266.257212 
L 877.828795 254.181393 
L 880.045304 237.19691 
L 882.705115 214.603282 
L 886.25153 182.055152 
L 892.901057 120.305264 
L 895.560868 97.81593 
L 897.777377 80.947612 
L 899.550585 68.981853 
L 901.323792 58.58146 
L 902.653697 51.908307 
L 903.983603 46.26803 
L 905.313508 41.710792 
L 906.200112 39.294746 
L 907.086716 37.387824 
L 907.973319 35.997567 
L 908.859923 35.129474 
L 909.303225 34.892392 
L 909.746526 34.786977 
L 910.189828 34.813331 
L 910.63313 34.97143 
L 911.519734 35.682103 
L 912.406337 36.916188 
L 913.292941 38.668803 
L 914.179545 40.933018 
L 915.066148 43.69988 
L 916.396054 48.768166 
L 917.725959 54.897255 
L 919.055865 62.032637 
L 920.829072 73.000918 
L 922.602279 85.471055 
L 924.818789 102.868498 
L 927.478599 125.827296 
L 931.025014 158.620877 
L 937.23124 216.170094 
L 939.891051 238.624216 
L 942.10756 255.453476 
L 943.880767 267.382308 
L 945.653974 277.741354 
L 946.98388 284.380984 
L 948.313785 289.985916 
L 949.643691 294.506301 
L 950.530294 296.897102 
L 951.416898 298.778353 
L 952.303502 300.142616 
L 953.190105 300.984494 
L 953.633407 301.208418 
L 954.076709 301.300659 
L 954.520011 301.261127 
L 954.963313 301.089861 
L 955.849916 300.352933 
L 956.73652 299.092789 
L 957.623124 297.314413 
L 958.509727 295.024837 
L 959.396331 292.233115 
L 960.726236 287.128689 
L 962.056142 280.965128 
L 963.386047 273.797248 
L 965.159255 262.789204 
L 966.932462 250.283954 
L 969.148971 232.849995 
L 971.808782 209.859356 
L 975.798498 172.860504 
L 981.11812 123.450137 
L 983.777931 100.687135 
L 985.99444 83.512383 
L 987.767648 71.255498 
L 989.540855 60.528051 
L 990.87076 53.58912 
L 992.200666 47.668115 
L 993.530571 42.817698 
L 994.417175 40.200564 
L 995.303779 38.088973 
L 996.190382 36.491275 
L 997.076986 35.413787 
L 997.96359 34.860771 
L 998.406891 34.781705 
L 998.850193 34.834414 
L 999.293495 35.018846 
L 1000.180099 35.782021 
L 1001.066702 37.068211 
L 1001.953306 38.872331 
L 1002.83991 41.187246 
L 1003.726513 44.003801 
L 1005.056419 49.144316 
L 1006.386324 55.342288 
L 1007.71623 62.542594 
L 1009.489437 73.590292 
L 1011.262644 86.130532 
L 1013.479153 103.600835 
L 1016.138964 126.623088 
L 1020.128681 163.64265 
L 1025.448303 213.028889 
L 1028.108114 235.758467 
L 1030.324623 252.895507 
L 1032.09783 265.116422 
L 1033.871037 275.803355 
L 1035.200943 282.709302 
L 1036.530848 288.595417 
L 1037.860754 293.409352 
L 1038.747357 296.001439 
L 1039.633961 298.087517 
L 1040.520565 299.659339 
L 1041.407168 300.710687 
L 1042.293772 301.237405 
L 1042.737074 301.303295 
L 1042.737074 301.303295 
" clip-path="url(#p0238524b23)" style="fill: none; stroke: #800080; stroke-width: 1.5; stroke-linecap: square"/>
   </g>
   <g id="patch_9">
    <path d="M 577.735625 314.629375 
L 577.735625 21.455625 
" style="fill: none; stroke: #000000; stroke-width: 0.8; stroke-linejoin: miter; stroke-linecap: square"/>
   </g>
   <g id="patch_10">
    <path d="M 1064.88 314.629375 
L 1064.88 21.455625 
" style="fill: none; stroke: #000000; stroke-width: 0.8; stroke-linejoin: miter; stroke-linecap: square"/>
   </g>
   <g id="patch_11">
    <path d="M 577.735625 314.629375 
L 1064.88 314.629375 
" style="fill: none; stroke: #000000; stroke-width: 0.8; stroke-linejoin: miter; stroke-linecap: square"/>
   </g>
   <g id="patch_12">
    <path d="M 577.735625 21.455625 
L 1064.88 21.455625 
" style="fill: none; stroke: #000000; stroke-width: 0.8; stroke-linejoin: miter; stroke-linecap: square"/>
   </g>
   <g id="text_38">
    <!-- Wavefunction for Energy = 13.707783393133566 eV -->
    <g transform="translate(691.886875 15.455625) scale(0.12 -0.12)">
     <use xlink:href="#STIXGeneral-Regular-57"/>
     <use xlink:href="#STIXGeneral-Regular-61" transform="translate(94.399994 0)"/>
     <use xlink:href="#STIXGeneral-Regular-76" transform="translate(138.799988 0)"/>
     <use xlink:href="#STIXGeneral-Regular-65" transform="translate(188.799973 0)"/>
     <use xlink:href="#STIXGeneral-Regular-66" transform="translate(233.199966 0)"/>
     <use xlink:href="#STIXGeneral-Regular-75" transform="translate(266.499954 0)"/>
     <use xlink:href="#STIXGeneral-Regular-6e" transform="translate(316.499939 0)"/>
     <use xlink:href="#STIXGeneral-Regular-63" transform="translate(366.499924 0)"/>
     <use xlink:href="#STIXGeneral-Regular-74" transform="translate(410.899918 0)"/>
     <use xlink:href="#STIXGeneral-Regular-69" transform="translate(438.699905 0)"/>
     <use xlink:href="#STIXGeneral-Regular-6f" transform="translate(466.499893 0)"/>
     <use xlink:href="#STIXGeneral-Regular-6e" transform="translate(516.499878 0)"/>
     <use xlink:href="#STIXGeneral-Regular-20" transform="translate(566.499863 0)"/>
     <use xlink:href="#STIXGeneral-Regular-66" transform="translate(591.499847 0)"/>
     <use xlink:href="#STIXGeneral-Regular-6f" transform="translate(624.799835 0)"/>
     <use xlink:href="#STIXGeneral-Regular-72" transform="translate(674.79982 0)"/>
     <use xlink:href="#STIXGeneral-Regular-20" transform="translate(708.099808 0)"/>
     <use xlink:href="#STIXGeneral-Regular-45" transform="translate(733.099792 0)"/>
     <use xlink:href="#STIXGeneral-Regular-6e" transform="translate(794.199783 0)"/>
     <use xlink:href="#STIXGeneral-Regular-65" transform="translate(844.199768 0)"/>
     <use xlink:href="#STIXGeneral-Regular-72" transform="translate(888.599762 0)"/>
     <use xlink:href="#STIXGeneral-Regular-67" transform="translate(921.89975 0)"/>
     <use xlink:href="#STIXGeneral-Regular-79" transform="translate(971.899734 0)"/>
     <use xlink:href="#STIXGeneral-Regular-20" transform="translate(1021.899719 0)"/>
     <use xlink:href="#STIXGeneral-Regular-3d" transform="translate(1046.899704 0)"/>
     <use xlink:href="#STIXGeneral-Regular-20" transform="translate(1115.399689 0)"/>
     <use xlink:href="#STIXGeneral-Regular-31" transform="translate(1140.399673 0)"/>
     <use xlink:href="#STIXGeneral-Regular-33" transform="translate(1190.399658 0)"/>
     <use xlink:href="#STIXGeneral-Regular-2e" transform="translate(1240.399643 0)"/>
     <use xlink:href="#STIXGeneral-Regular-37" transform="translate(1265.399628 0)"/>
     <use xlink:href="#STIXGeneral-Regular-30" transform="translate(1315.399612 0)"/>
     <use xlink:href="#STIXGeneral-Regular-37" transform="translate(1365.399597 0)"/>
     <use xlink:href="#STIXGeneral-Regular-37" transform="translate(1415.399582 0)"/>
     <use xlink:href="#STIXGeneral-Regular-38" transform="translate(1465.399567 0)"/>
     <use xlink:href="#STIXGeneral-Regular-33" transform="translate(1515.399551 0)"/>
     <use xlink:href="#STIXGeneral-Regular-33" transform="translate(1565.399536 0)"/>
     <use xlink:href="#STIXGeneral-Regular-39" transform="translate(1615.399521 0)"/>
     <use xlink:href="#STIXGeneral-Regular-33" transform="translate(1665.399506 0)"/>
     <use xlink:href="#STIXGeneral-Regular-31" transform="translate(1715.39949 0)"/>
     <use xlink:href="#STIXGeneral-Regular-33" transform="translate(1765.399475 0)"/>
     <use xlink:href="#STIXGeneral-Regular-33" transform="translate(1815.39946 0)"/>
     <use xlink:href="#STIXGeneral-Regular-35" transform="translate(1865.399445 0)"/>
     <use xlink:href="#STIXGeneral-Regular-36" transform="translate(1915.399429 0)"/>
     <use xlink:href="#STIXGeneral-Regular-36" transform="translate(1965.399414 0)"/>
     <use xlink:href="#STIXGeneral-Regular-20" transform="translate(2015.399399 0)"/>
     <use xlink:href="#STIXGeneral-Regular-65" transform="translate(2040.399384 0)"/>
     <use xlink:href="#STIXGeneral-Regular-56" transform="translate(2084.799377 0)"/>
    </g>
   </g>
   <g id="legend_2">
    <g id="patch_13">
     <path d="M 793.748438 309.629375 
L 848.867188 309.629375 
Q 850.867188 309.629375 850.867188 307.629375 
L 850.867188 294.459062 
Q 850.867188 292.459062 848.867188 292.459062 
L 793.748438 292.459062 
Q 791.748438 292.459062 791.748438 294.459062 
L 791.748438 307.629375 
Q 791.748438 309.629375 793.748438 309.629375 
z
" style="fill: #ffffff; opacity: 0.8; stroke: #cccccc; stroke-linejoin: miter"/>
    </g>
    <g id="line2d_66">
     <path d="M 795.748438 299.959062 
L 805.748438 299.959062 
L 815.748438 299.959062 
" style="fill: none; stroke: #800080; stroke-width: 1.5; stroke-linecap: square"/>
    </g>
    <g id="text_39">
     <!-- |Ψ(x)| -->
     <g transform="translate(823.748438 303.459062) scale(0.1 -0.1)">
      <defs>
       <path id="STIXGeneral-Regular-7c" d="M 851 -90 
L 429 -90 
L 429 4326 
L 851 4326 
L 851 -90 
z
" transform="scale(0.015625)"/>
       <path id="STIXGeneral-Regular-3a8" d="M 4634 4416 
L 4634 4294 
Q 4467 4262 4400 4054 
Q 4333 3846 4333 3629 
Q 4333 3533 4345 3341 
Q 4358 3149 4358 3053 
Q 4358 2598 4118 2291 
Q 3878 1984 3520 1856 
Q 3162 1728 2714 1728 
L 2714 710 
Q 2714 339 2851 236 
Q 2989 134 3373 122 
L 3373 0 
L 1414 0 
L 1414 122 
Q 1830 141 1945 259 
Q 2061 378 2061 794 
L 2061 1728 
Q 1613 1728 1254 1856 
Q 896 1984 656 2291 
Q 416 2598 416 3053 
Q 416 3149 429 3341 
Q 442 3533 442 3629 
Q 442 3846 374 4054 
Q 307 4262 141 4294 
L 141 4416 
Q 1133 4416 1133 3258 
Q 1133 3046 1145 2886 
Q 1158 2726 1212 2544 
Q 1267 2362 1353 2243 
Q 1440 2125 1603 2045 
Q 1766 1965 1990 1965 
L 2061 1965 
L 2061 3597 
Q 2061 3910 1904 4012 
Q 1747 4115 1414 4115 
L 1414 4237 
L 3373 4237 
L 3373 4115 
Q 3027 4115 2870 4019 
Q 2714 3923 2714 3597 
L 2714 1965 
L 2784 1965 
Q 3008 1965 3171 2045 
Q 3334 2125 3420 2243 
Q 3507 2362 3561 2544 
Q 3616 2726 3629 2886 
Q 3642 3046 3642 3258 
Q 3642 4416 4634 4416 
z
" transform="scale(0.015625)"/>
       <path id="STIXGeneral-Regular-28" d="M 1946 -1030 
L 1869 -1133 
Q 1126 -710 716 32 
Q 307 774 307 1613 
Q 307 3386 1888 4326 
L 1946 4224 
Q 1293 3667 1075 3126 
Q 858 2586 858 1632 
Q 858 685 1082 96 
Q 1306 -493 1946 -1030 
z
" transform="scale(0.015625)"/>
       <path id="STIXGeneral-Regular-29" d="M 186 4224 
L 262 4326 
Q 992 3891 1408 3148 
Q 1824 2406 1824 1581 
Q 1824 -166 243 -1133 
L 186 -1030 
Q 845 -486 1059 54 
Q 1274 595 1274 1562 
Q 1274 2534 1059 3120 
Q 845 3706 186 4224 
z
" transform="scale(0.015625)"/>
      </defs>
      <use xlink:href="#STIXGeneral-Regular-7c"/>
      <use xlink:href="#STIXGeneral-Regular-3a8" transform="translate(19.999985 0)"/>
      <use xlink:href="#STIXGeneral-Regular-28" transform="translate(94.599976 0)"/>
      <use xlink:href="#STIXGeneral-Regular-78" transform="translate(127.899963 0)"/>
      <use xlink:href="#STIXGeneral-Regular-29" transform="translate(177.899948 0)"/>
      <use xlink:href="#STIXGeneral-Regular-7c" transform="translate(211.199936 0)"/>
     </g>
    </g>
   </g>
  </g>
 </g>
 <defs>
  <clipPath id="p1df89696cb">
   <rect x="46.55" y="21.455625" width="487.144375" height="293.17375"/>
  </clipPath>
  <clipPath id="p0238524b23">
   <rect x="577.735625" y="21.455625" width="487.144375" height="293.17375"/>
  </clipPath>
 </defs>
</svg>
