<?xml version="1.0" encoding="utf-8" standalone="no"?>
<!DOCTYPE svg PUBLIC "-//W3C//DTD SVG 1.1//EN"
  "http://www.w3.org/Graphics/SVG/1.1/DTD/svg11.dtd">
<svg xmlns:xlink="http://www.w3.org/1999/xlink" width="604.9pt" height="376.04pt" viewBox="0 0 604.9 376.04" xmlns="http://www.w3.org/2000/svg" version="1.1">
 <metadata>
  <rdf:RDF xmlns:dc="http://purl.org/dc/elements/1.1/" xmlns:cc="http://creativecommons.org/ns#" xmlns:rdf="http://www.w3.org/1999/02/22-rdf-syntax-ns#">
   <cc:Work>
    <dc:type rdf:resource="http://purl.org/dc/dcmitype/StillImage"/>
    <dc:date>2025-02-23T15:02:27.846883</dc:date>
    <dc:format>image/svg+xml</dc:format>
    <dc:creator>
     <cc:Agent>
      <dc:title>Matplotlib v3.10.0, https://matplotlib.org/</dc:title>
     </cc:Agent>
    </dc:creator>
   </cc:Work>
  </rdf:RDF>
 </metadata>
 <defs>
  <style type="text/css">*{stroke-linejoin: round; stroke-linecap: butt}</style>
 </defs>
 <g id="figure_1">
  <g id="patch_1">
   <path d="M 0 376.04 
L 604.9 376.04 
L 604.9 0 
L 0 0 
z
" style="fill: #ffffff"/>
  </g>
  <g id="axes_1">
   <g id="patch_2">
    <path d="M 39.7 339.84 
L 597.7 339.84 
L 597.7 7.2 
L 39.7 7.2 
z
" style="fill: #ffffff"/>
   </g>
   <g id="matplotlib.axis_1">
    <g id="xtick_1">
     <g id="line2d_1">
      <defs>
       <path id="m325ac42e2b" d="M 0 0 
L 0 3.5 
" style="stroke: #000000; stroke-width: 0.8"/>
      </defs>
      <g>
       <use xlink:href="#m325ac42e2b" x="65.063636" y="339.84" style="stroke: #000000; stroke-width: 0.8"/>
      </g>
     </g>
     <g id="text_1">
      <!-- −6 -->
      <g transform="translate(59.138636 353.669688) scale(0.1 -0.1)">
       <defs>
        <path id="STIXGeneral-Regular-2212" d="M 3974 1408 
L 410 1408 
L 410 1830 
L 3974 1830 
L 3974 1408 
z
" transform="scale(0.015625)"/>
        <path id="STIXGeneral-Regular-36" d="M 2854 4378 
L 2867 4275 
Q 2112 4154 1606 3664 
Q 1101 3174 973 2451 
Q 1344 2739 1786 2739 
Q 2349 2739 2672 2380 
Q 2995 2022 2995 1402 
Q 2995 774 2669 378 
Q 2291 -90 1651 -90 
Q 870 -90 518 557 
Q 218 1107 218 1786 
Q 218 2835 915 3552 
Q 1312 3962 1731 4131 
Q 2150 4301 2854 4378 
z
M 2419 1203 
Q 2419 2445 1555 2445 
Q 1235 2445 1024 2275 
Q 813 2106 813 1702 
Q 813 954 1046 522 
Q 1280 90 1722 90 
Q 2061 90 2240 394 
Q 2419 698 2419 1203 
z
" transform="scale(0.015625)"/>
       </defs>
       <use xlink:href="#STIXGeneral-Regular-2212"/>
       <use xlink:href="#STIXGeneral-Regular-36" transform="translate(68.499985 0)"/>
      </g>
     </g>
    </g>
    <g id="xtick_2">
     <g id="line2d_2">
      <g>
       <use xlink:href="#m325ac42e2b" x="149.609091" y="339.84" style="stroke: #000000; stroke-width: 0.8"/>
      </g>
     </g>
     <g id="text_2">
      <!-- −4 -->
      <g transform="translate(143.684091 353.669688) scale(0.1 -0.1)">
       <defs>
        <path id="STIXGeneral-Regular-34" d="M 3027 1069 
L 2368 1069 
L 2368 0 
L 1869 0 
L 1869 1069 
L 77 1069 
L 77 1478 
L 2086 4326 
L 2368 4326 
L 2368 1478 
L 3027 1478 
L 3027 1069 
z
M 1869 1478 
L 1869 3674 
L 333 1478 
L 1869 1478 
z
" transform="scale(0.015625)"/>
       </defs>
       <use xlink:href="#STIXGeneral-Regular-2212"/>
       <use xlink:href="#STIXGeneral-Regular-34" transform="translate(68.499985 0)"/>
      </g>
     </g>
    </g>
    <g id="xtick_3">
     <g id="line2d_3">
      <g>
       <use xlink:href="#m325ac42e2b" x="234.154545" y="339.84" style="stroke: #000000; stroke-width: 0.8"/>
      </g>
     </g>
     <g id="text_3">
      <!-- −2 -->
      <g transform="translate(228.229545 353.669688) scale(0.1 -0.1)">
       <defs>
        <path id="STIXGeneral-Regular-32" d="M 3034 877 
L 2688 0 
L 186 0 
L 186 77 
L 1325 1286 
Q 1773 1754 1965 2144 
Q 2157 2534 2157 2950 
Q 2157 3379 1920 3616 
Q 1683 3853 1267 3853 
Q 922 3853 720 3673 
Q 518 3494 326 3021 
L 192 3053 
Q 301 3648 630 3987 
Q 960 4326 1523 4326 
Q 2054 4326 2380 4006 
Q 2707 3686 2707 3200 
Q 2707 2477 1888 1613 
L 832 486 
L 2330 486 
Q 2541 486 2665 569 
Q 2790 653 2944 915 
L 3034 877 
z
" transform="scale(0.015625)"/>
       </defs>
       <use xlink:href="#STIXGeneral-Regular-2212"/>
       <use xlink:href="#STIXGeneral-Regular-32" transform="translate(68.499985 0)"/>
      </g>
     </g>
    </g>
    <g id="xtick_4">
     <g id="line2d_4">
      <g>
       <use xlink:href="#m325ac42e2b" x="318.7" y="339.84" style="stroke: #000000; stroke-width: 0.8"/>
      </g>
     </g>
     <g id="text_4">
      <!-- 0 -->
      <g transform="translate(316.2 353.669688) scale(0.1 -0.1)">
       <defs>
        <path id="STIXGeneral-Regular-30" d="M 3046 2112 
Q 3046 1683 2963 1302 
Q 2880 922 2717 602 
Q 2554 282 2266 96 
Q 1978 -90 1600 -90 
Q 1210 -90 915 108 
Q 621 307 461 640 
Q 301 973 227 1350 
Q 154 1728 154 2150 
Q 154 2746 301 3222 
Q 448 3699 790 4012 
Q 1133 4326 1626 4326 
Q 2253 4326 2649 3712 
Q 3046 3098 3046 2112 
z
M 2432 2080 
Q 2432 3091 2217 3625 
Q 2003 4160 1587 4160 
Q 1190 4160 979 3622 
Q 768 3085 768 2106 
Q 768 1120 979 598 
Q 1190 77 1600 77 
Q 2003 77 2217 598 
Q 2432 1120 2432 2080 
z
" transform="scale(0.015625)"/>
       </defs>
       <use xlink:href="#STIXGeneral-Regular-30"/>
      </g>
     </g>
    </g>
    <g id="xtick_5">
     <g id="line2d_5">
      <g>
       <use xlink:href="#m325ac42e2b" x="403.245455" y="339.84" style="stroke: #000000; stroke-width: 0.8"/>
      </g>
     </g>
     <g id="text_5">
      <!-- 2 -->
      <g transform="translate(400.745455 353.669688) scale(0.1 -0.1)">
       <use xlink:href="#STIXGeneral-Regular-32"/>
      </g>
     </g>
    </g>
    <g id="xtick_6">
     <g id="line2d_6">
      <g>
       <use xlink:href="#m325ac42e2b" x="487.790909" y="339.84" style="stroke: #000000; stroke-width: 0.8"/>
      </g>
     </g>
     <g id="text_6">
      <!-- 4 -->
      <g transform="translate(485.290909 353.669688) scale(0.1 -0.1)">
       <use xlink:href="#STIXGeneral-Regular-34"/>
      </g>
     </g>
    </g>
    <g id="xtick_7">
     <g id="line2d_7">
      <g>
       <use xlink:href="#m325ac42e2b" x="572.336364" y="339.84" style="stroke: #000000; stroke-width: 0.8"/>
      </g>
     </g>
     <g id="text_7">
      <!-- 6 -->
      <g transform="translate(569.836364 353.669688) scale(0.1 -0.1)">
       <use xlink:href="#STIXGeneral-Regular-36"/>
      </g>
     </g>
    </g>
    <g id="text_8">
     <!-- x -->
     <g transform="translate(316.2 366.669688) scale(0.1 -0.1)">
      <defs>
       <path id="STIXGeneral-Regular-78" d="M 3066 0 
L 1779 0 
L 1779 96 
Q 1939 109 1987 137 
Q 2035 166 2035 250 
Q 2035 307 1997 365 
L 1414 1261 
L 909 474 
Q 781 275 781 211 
Q 781 96 1037 96 
L 1037 0 
L 109 0 
L 109 96 
Q 269 109 355 169 
Q 442 230 576 422 
L 1306 1478 
L 704 2400 
Q 557 2624 454 2704 
Q 352 2784 211 2784 
L 154 2784 
L 154 2880 
L 1478 2880 
L 1478 2784 
Q 1203 2778 1203 2643 
Q 1203 2509 1498 2074 
Q 1581 1958 1587 1946 
Q 1619 1990 1779 2227 
Q 1811 2285 1856 2349 
Q 1901 2413 1923 2451 
Q 1946 2490 1971 2528 
Q 1997 2566 2006 2595 
Q 2016 2624 2016 2643 
Q 2016 2765 1760 2784 
L 1760 2880 
L 2771 2880 
L 2771 2784 
Q 2445 2771 2253 2502 
L 1722 1734 
L 2541 480 
Q 2790 96 3066 96 
L 3066 0 
z
" transform="scale(0.015625)"/>
      </defs>
      <use xlink:href="#STIXGeneral-Regular-78"/>
     </g>
    </g>
   </g>
   <g id="matplotlib.axis_2">
    <g id="ytick_1">
     <g id="line2d_8">
      <defs>
       <path id="me8157b2670" d="M 0 0 
L -3.5 0 
" style="stroke: #000000; stroke-width: 0.8"/>
      </defs>
      <g>
       <use xlink:href="#me8157b2670" x="39.7" y="324.72" style="stroke: #000000; stroke-width: 0.8"/>
      </g>
     </g>
     <g id="text_9">
      <!-- 0.0 -->
      <g transform="translate(20.2 328.134844) scale(0.1 -0.1)">
       <defs>
        <path id="STIXGeneral-Regular-2e" d="M 1158 275 
Q 1158 134 1052 32 
Q 947 -70 800 -70 
Q 653 -70 550 32 
Q 448 134 448 281 
Q 448 429 553 534 
Q 659 640 806 640 
Q 947 640 1052 531 
Q 1158 422 1158 275 
z
" transform="scale(0.015625)"/>
       </defs>
       <use xlink:href="#STIXGeneral-Regular-30"/>
       <use xlink:href="#STIXGeneral-Regular-2e" transform="translate(49.999985 0)"/>
       <use xlink:href="#STIXGeneral-Regular-30" transform="translate(74.999969 0)"/>
      </g>
     </g>
    </g>
    <g id="ytick_2">
     <g id="line2d_9">
      <g>
       <use xlink:href="#me8157b2670" x="39.7" y="257.589033" style="stroke: #000000; stroke-width: 0.8"/>
      </g>
     </g>
     <g id="text_10">
      <!-- 0.1 -->
      <g transform="translate(20.2 261.003877) scale(0.1 -0.1)">
       <defs>
        <path id="STIXGeneral-Regular-31" d="M 2522 0 
L 755 0 
L 755 96 
Q 1107 115 1235 227 
Q 1363 339 1363 608 
L 1363 3482 
Q 1363 3795 1171 3795 
Q 1082 3795 883 3718 
L 710 3654 
L 710 3744 
L 1856 4326 
L 1914 4307 
L 1914 486 
Q 1914 275 2042 185 
Q 2170 96 2522 96 
L 2522 0 
z
" transform="scale(0.015625)"/>
       </defs>
       <use xlink:href="#STIXGeneral-Regular-30"/>
       <use xlink:href="#STIXGeneral-Regular-2e" transform="translate(49.999985 0)"/>
       <use xlink:href="#STIXGeneral-Regular-31" transform="translate(74.999969 0)"/>
      </g>
     </g>
    </g>
    <g id="ytick_3">
     <g id="line2d_10">
      <g>
       <use xlink:href="#me8157b2670" x="39.7" y="190.458066" style="stroke: #000000; stroke-width: 0.8"/>
      </g>
     </g>
     <g id="text_11">
      <!-- 0.2 -->
      <g transform="translate(20.2 193.87291) scale(0.1 -0.1)">
       <use xlink:href="#STIXGeneral-Regular-30"/>
       <use xlink:href="#STIXGeneral-Regular-2e" transform="translate(49.999985 0)"/>
       <use xlink:href="#STIXGeneral-Regular-32" transform="translate(74.999969 0)"/>
      </g>
     </g>
    </g>
    <g id="ytick_4">
     <g id="line2d_11">
      <g>
       <use xlink:href="#me8157b2670" x="39.7" y="123.327099" style="stroke: #000000; stroke-width: 0.8"/>
      </g>
     </g>
     <g id="text_12">
      <!-- 0.3 -->
      <g transform="translate(20.2 126.741943) scale(0.1 -0.1)">
       <defs>
        <path id="STIXGeneral-Regular-33" d="M 390 3264 
L 288 3290 
Q 435 3770 748 4048 
Q 1062 4326 1542 4326 
Q 1990 4326 2265 4083 
Q 2541 3840 2541 3450 
Q 2541 2925 1946 2566 
Q 2298 2413 2477 2227 
Q 2758 1914 2758 1402 
Q 2758 890 2464 506 
Q 2246 211 1840 60 
Q 1434 -90 979 -90 
Q 262 -90 262 275 
Q 262 378 339 442 
Q 416 506 525 506 
Q 685 506 915 339 
Q 1197 141 1466 141 
Q 1818 141 2058 425 
Q 2298 710 2298 1120 
Q 2298 1856 1632 2048 
Q 1434 2112 979 2112 
L 979 2202 
Q 1338 2323 1517 2432 
Q 2035 2726 2035 3290 
Q 2035 3610 1852 3776 
Q 1670 3942 1344 3942 
Q 768 3942 390 3264 
z
" transform="scale(0.015625)"/>
       </defs>
       <use xlink:href="#STIXGeneral-Regular-30"/>
       <use xlink:href="#STIXGeneral-Regular-2e" transform="translate(49.999985 0)"/>
       <use xlink:href="#STIXGeneral-Regular-33" transform="translate(74.999969 0)"/>
      </g>
     </g>
    </g>
    <g id="ytick_5">
     <g id="line2d_12">
      <g>
       <use xlink:href="#me8157b2670" x="39.7" y="56.196133" style="stroke: #000000; stroke-width: 0.8"/>
      </g>
     </g>
     <g id="text_13">
      <!-- 0.4 -->
      <g transform="translate(20.2 59.610976) scale(0.1 -0.1)">
       <use xlink:href="#STIXGeneral-Regular-30"/>
       <use xlink:href="#STIXGeneral-Regular-2e" transform="translate(49.999985 0)"/>
       <use xlink:href="#STIXGeneral-Regular-34" transform="translate(74.999969 0)"/>
      </g>
     </g>
    </g>
    <g id="text_14">
     <!-- Pth -->
     <g transform="translate(14.029688 180.195) rotate(-90) scale(0.1 -0.1)">
      <defs>
       <path id="STIXGeneral-Regular-50" d="M 102 4237 
L 1760 4237 
Q 2669 4237 3149 3834 
Q 3469 3565 3469 3072 
Q 3469 2560 3104 2234 
Q 2835 1990 2553 1916 
Q 2272 1843 1734 1843 
Q 1549 1843 1293 1862 
L 1293 717 
Q 1293 352 1398 246 
Q 1504 141 1894 122 
L 1894 0 
L 102 0 
L 102 122 
Q 474 147 557 256 
Q 640 365 640 781 
L 640 3526 
Q 640 3885 547 3987 
Q 454 4090 102 4115 
L 102 4237 
z
M 1293 3770 
L 1293 2118 
Q 1510 2099 1683 2099 
Q 2202 2099 2486 2352 
Q 2771 2605 2771 3040 
Q 2771 3558 2476 3779 
Q 2182 4000 1517 4000 
Q 1382 4000 1337 3952 
Q 1293 3904 1293 3770 
z
" transform="scale(0.015625)"/>
       <path id="STIXGeneral-Regular-74" d="M 1702 493 
L 1786 422 
Q 1478 -64 1011 -64 
Q 448 -64 448 749 
L 448 2675 
L 109 2675 
Q 83 2694 83 2720 
Q 83 2771 192 2842 
Q 435 2982 813 3526 
Q 826 3546 874 3606 
Q 922 3667 941 3706 
Q 986 3706 986 3622 
L 986 2880 
L 1632 2880 
L 1632 2675 
L 986 2675 
L 986 845 
Q 986 538 1062 403 
Q 1139 269 1318 269 
Q 1510 269 1702 493 
z
" transform="scale(0.015625)"/>
       <path id="STIXGeneral-Regular-68" d="M 3117 0 
L 1760 0 
L 1760 96 
Q 2042 128 2118 224 
Q 2195 320 2195 653 
L 2195 1920 
Q 2195 2598 1722 2598 
Q 1530 2598 1370 2508 
Q 1210 2419 1005 2195 
L 1005 653 
Q 1005 320 1081 224 
Q 1158 128 1440 96 
L 1440 0 
L 58 0 
L 58 96 
Q 333 134 400 224 
Q 467 314 467 653 
L 467 3667 
Q 467 3872 406 3933 
Q 346 3994 141 3994 
Q 83 3994 64 3987 
L 64 4090 
L 237 4141 
Q 730 4288 973 4371 
L 1005 4352 
L 1005 2406 
Q 1229 2694 1446 2819 
Q 1664 2944 1946 2944 
Q 2733 2944 2733 1926 
L 2733 653 
Q 2733 320 2793 233 
Q 2854 147 3117 96 
L 3117 0 
z
" transform="scale(0.015625)"/>
      </defs>
      <use xlink:href="#STIXGeneral-Regular-50"/>
      <use xlink:href="#STIXGeneral-Regular-74" transform="translate(55.699997 0)"/>
      <use xlink:href="#STIXGeneral-Regular-68" transform="translate(83.499985 0)"/>
     </g>
    </g>
   </g>
   <g id="line2d_13">
    <path d="M 65.063636 324.72 
L 225.014336 324.610986 
L 231.615645 324.379116 
L 235.169936 324.067095 
L 237.708836 323.67245 
L 239.740041 323.185249 
L 241.771245 322.465606 
L 243.294755 321.707741 
L 244.817841 320.690826 
L 246.34135 319.325503 
L 247.356741 318.163847 
L 248.372555 316.74924 
L 249.387945 315.02607 
L 250.403336 312.926639 
L 251.41915 310.368226 
L 252.434541 307.249806 
L 253.450355 303.447943 
L 254.465745 298.811752 
L 255.481136 293.169915 
L 257.512341 280.058616 
L 259.543545 265.343848 
L 262.082445 245.236557 
L 266.144855 210.773909 
L 271.73035 163.211169 
L 274.776945 139.053539 
L 277.315888 120.528751 
L 279.854788 103.731631 
L 281.885908 91.632612 
L 283.917028 80.755007 
L 285.948148 71.090431 
L 287.979268 62.602285 
L 290.010388 55.231101 
L 292.041508 48.899873 
L 293.564848 44.782745 
L 295.088188 41.16196 
L 296.611528 37.997108 
L 298.13491 35.247782 
L 299.65825 32.874334 
L 301.18159 30.838643 
L 302.70493 29.104874 
L 304.22827 27.637957 
L 305.75161 26.407393 
L 307.78273 25.085338 
L 309.81385 24.075116 
L 311.84497 23.327934 
L 313.87609 22.804906 
L 315.907206 22.478586 
L 318.44611 22.32 
L 320.985014 22.425215 
L 323.01613 22.70579 
L 325.04725 23.176973 
L 327.07837 23.865448 
L 329.10949 24.805525 
L 331.14061 26.044476 
L 332.66395 27.202609 
L 334.18729 28.587184 
L 335.71063 30.228698 
L 337.23397 32.159936 
L 338.75731 34.416732 
L 340.280692 37.035683 
L 341.804032 40.05796 
L 343.327372 43.521684 
L 344.850712 47.469552 
L 346.374052 51.940448 
L 347.897392 56.972494 
L 349.928512 64.616628 
L 351.959632 73.393735 
L 353.990752 83.359472 
L 356.021872 94.542811 
L 358.052992 106.943753 
L 360.591892 124.101503 
L 363.13075 142.94575 
L 366.177345 167.403015 
L 370.74745 206.38383 
L 375.82525 249.379303 
L 378.36415 269.153411 
L 380.395355 283.499925 
L 382.426559 296.124869 
L 383.44195 301.244746 
L 384.457764 305.442997 
L 385.473155 308.886212 
L 386.488545 311.710714 
L 387.504359 314.0282 
L 388.51975 315.930084 
L 389.535564 317.49136 
L 391.05865 319.325503 
L 392.582159 320.690826 
L 394.105245 321.707741 
L 395.628755 322.465606 
L 397.659959 323.185249 
L 399.691164 323.67245 
L 402.230064 324.067095 
L 405.784355 324.379116 
L 410.862155 324.579749 
L 420.002364 324.68299 
L 452.500368 324.706144 
L 572.336364 324.72 
L 572.336364 324.72 
" clip-path="url(#pebd40f956f)" style="fill: none; stroke: #1f77b4; stroke-width: 1.5; stroke-linecap: square"/>
   </g>
   <g id="line2d_14">
    <path d="M 65.063636 324.72 
L 65.571332 324.605419 
L 66.079027 324.263567 
L 66.587145 323.700066 
L 67.602536 321.948336 
L 68.617927 319.462145 
L 69.633741 316.395145 
L 71.664945 309.250102 
L 74.203845 300.285192 
L 75.726932 295.726822 
L 76.742745 293.189031 
L 77.758136 291.074437 
L 78.773527 289.366893 
L 79.789341 288.027769 
L 80.804732 287.004979 
L 81.820545 286.241489 
L 83.343632 285.463762 
L 84.867141 284.991604 
L 86.898345 284.65296 
L 89.437245 284.495575 
L 94.515045 284.501217 
L 174.236336 284.473438 
L 196.071045 284.481077 
L 237.708836 284.402602 
L 240.755855 284.172296 
L 242.786636 283.788077 
L 244.310145 283.257497 
L 245.325536 282.724486 
L 246.34135 281.995199 
L 247.356741 281.014424 
L 248.372555 279.71749 
L 249.387945 278.030433 
L 250.403336 275.869569 
L 251.41915 273.141231 
L 252.434541 269.740988 
L 253.450355 265.553294 
L 254.465745 260.448979 
L 258.528155 237.35833 
L 260.051241 230.954389 
L 261.067055 227.479402 
L 262.082445 224.602533 
L 263.097836 222.272565 
L 264.11365 220.424389 
L 265.129041 218.992031 
L 266.144855 217.904308 
L 267.160245 217.096979 
L 268.175636 216.511014 
L 269.699145 215.936335 
L 271.222655 215.607327 
L 273.761555 215.353843 
L 277.823668 215.250539 
L 301.68937 215.237518 
L 364.654259 215.425027 
L 366.685464 215.696741 
L 368.20855 216.095196 
L 369.732059 216.780124 
L 370.74745 217.469392 
L 371.763264 218.408671 
L 372.778655 219.660465 
L 373.794045 221.292485 
L 374.809859 223.37331 
L 375.82525 225.968916 
L 376.841064 229.139201 
L 377.856455 232.92757 
L 378.871845 237.35833 
L 380.395355 245.193761 
L 381.918864 254.312064 
L 382.934255 260.448979 
L 383.949645 265.553294 
L 384.965459 269.740988 
L 385.98085 273.141231 
L 386.996664 275.869569 
L 388.012055 278.030433 
L 389.027445 279.71749 
L 390.043259 281.014424 
L 391.05865 281.995199 
L 392.074464 282.724486 
L 393.59755 283.465232 
L 395.121059 283.911694 
L 397.152264 284.231413 
L 400.198859 284.420398 
L 405.784355 284.469358 
L 451.484555 284.477952 
L 482.45905 284.471789 
L 501.754859 284.476216 
L 519.019464 284.483595 
L 537.299459 284.453993 
L 550.501655 284.65296 
L 552.532859 284.991604 
L 554.056368 285.463762 
L 555.071759 285.939565 
L 556.087573 286.594369 
L 557.102964 287.480348 
L 558.118355 288.65436 
L 559.134168 290.171791 
L 560.149559 292.079171 
L 561.165373 294.40506 
L 562.688459 298.673225 
L 564.211968 303.735351 
L 568.273955 317.99041 
L 569.289768 320.788265 
L 570.305159 322.924136 
L 570.812855 323.700066 
L 571.320973 324.263567 
L 571.828668 324.605419 
L 572.336364 324.72 
L 572.336364 324.72 
" clip-path="url(#pebd40f956f)" style="fill: none; stroke: #ff7f0e; stroke-width: 1.5; stroke-linecap: square"/>
   </g>
   <g id="line2d_15">
    <path d="M 65.063636 324.72 
L 65.571332 324.310127 
L 66.079027 323.09377 
L 66.587145 321.110195 
L 67.094841 318.423045 
L 68.110232 311.298136 
L 69.633741 297.975574 
L 71.156827 284.569642 
L 72.172641 277.122738 
L 73.188032 271.593537 
L 73.695727 269.639236 
L 74.203845 268.22962 
L 74.711541 267.342623 
L 75.219236 266.937069 
L 75.726932 266.956445 
L 76.234627 267.332666 
L 76.742745 267.988495 
L 77.758136 269.814159 
L 79.281645 272.684522 
L 80.297036 273.980033 
L 80.804732 274.333917 
L 81.312427 274.476278 
L 81.820545 274.412498 
L 82.328241 274.159801 
L 83.343632 273.207409 
L 85.882532 270.104264 
L 86.898345 269.376581 
L 87.406041 269.219957 
L 87.913736 269.208385 
L 88.421432 269.335945 
L 89.437245 269.945218 
L 90.960332 271.359139 
L 91.976145 272.279775 
L 92.991536 272.927262 
L 94.006927 273.16758 
L 95.022741 272.972742 
L 96.038132 272.418369 
L 99.084727 270.295065 
L 100.100541 270.003884 
L 101.115932 270.06901 
L 102.131745 270.454918 
L 103.654832 271.383359 
L 105.178341 272.262014 
L 106.193732 272.587641 
L 107.209545 272.618051 
L 108.224936 272.359971 
L 109.748445 271.610222 
L 111.271532 270.811224 
L 112.287345 270.464337 
L 113.302736 270.361805 
L 114.31855 270.517622 
L 115.841636 271.118282 
L 117.872841 272.043225 
L 118.888232 272.308302 
L 119.904045 272.351091 
L 120.919436 272.16917 
L 122.442945 271.598919 
L 124.47415 270.80046 
L 125.489541 270.600778 
L 126.504932 270.605083 
L 127.520745 270.805304 
L 129.55195 271.545904 
L 131.075036 272.037304 
L 132.09085 272.182895 
L 133.106241 272.141182 
L 134.62975 271.772766 
L 137.676345 270.817683 
L 138.691736 270.717842 
L 139.70755 270.789964 
L 141.230636 271.162955 
L 143.769536 271.923469 
L 144.78535 272.061794 
L 145.800741 272.042956 
L 147.32425 271.747469 
L 150.370845 270.91887 
L 151.893932 270.823065 
L 153.417441 271.044545 
L 157.47985 271.972986 
L 159.002936 271.919702 
L 160.526445 271.606454 
L 163.065345 270.996105 
L 164.588432 270.890613 
L 166.111941 271.06742 
L 170.682045 271.926161 
L 172.205132 271.810442 
L 174.744032 271.253108 
L 176.267541 270.991799 
L 177.79105 270.963273 
L 179.314136 271.17668 
L 182.86885 271.848656 
L 184.391936 271.844619 
L 185.915445 271.618564 
L 188.962041 271.043738 
L 190.48555 270.997989 
L 192.008636 271.175873 
L 196.071045 271.83224 
L 197.594555 271.773842 
L 199.625336 271.43153 
L 201.656541 271.089487 
L 203.18005 271.026784 
L 204.703136 271.172912 
L 208.765545 271.794295 
L 210.289055 271.762002 
L 212.319836 271.461133 
L 214.858736 271.084105 
L 216.382245 271.069304 
L 218.41345 271.32227 
L 221.460045 271.758234 
L 222.983555 271.755005 
L 225.014336 271.496925 
L 228.061355 271.08868 
L 229.584441 271.104558 
L 231.615645 271.363714 
L 234.154545 271.721635 
L 235.678055 271.760656 
L 237.708836 271.556668 
L 241.26355 271.077646 
L 242.786636 271.089218 
L 244.817841 271.356179 
L 247.864436 271.798063 
L 248.88025 271.763078 
L 249.895641 271.541329 
L 250.911455 271.067689 
L 251.926845 270.270845 
L 252.942236 269.071407 
L 253.95805 267.381375 
L 254.973441 265.106561 
L 255.989255 262.485128 
L 257.004645 260.474582 
L 258.020036 259.084343 
L 259.03585 258.201382 
L 260.051241 257.687645 
L 261.067055 257.408844 
L 263.097836 257.15803 
L 266.144855 256.999522 
L 268.683755 257.11874 
L 272.238045 257.350715 
L 274.26925 257.222617 
L 277.823668 256.93036 
L 279.854788 257.049847 
L 283.409248 257.385969 
L 285.440368 257.286935 
L 289.502608 256.909369 
L 291.533728 257.043926 
L 295.088188 257.398887 
L 297.119308 257.292587 
L 301.18159 256.901834 
L 303.21271 257.040159 
L 306.76717 257.403462 
L 308.79829 257.296624 
L 312.86053 256.898874 
L 314.891646 257.03666 
L 318.44611 257.404269 
L 320.47723 257.299584 
L 324.53947 256.898874 
L 326.57059 257.034238 
L 330.12505 257.402654 
L 332.15617 257.300929 
L 336.21841 256.901834 
L 338.24953 257.033969 
L 341.804032 257.39781 
L 343.835152 257.298776 
L 347.897392 256.909369 
L 349.928512 257.038006 
L 353.482972 257.385969 
L 355.514092 257.288819 
L 359.576332 256.93036 
L 361.607664 257.053076 
L 365.161955 257.350715 
L 367.193159 257.26137 
L 371.255145 256.999522 
L 374.302164 257.15803 
L 376.332945 257.408844 
L 377.348759 257.687645 
L 378.36415 258.201382 
L 379.379964 259.084343 
L 380.395355 260.474582 
L 381.410745 262.485128 
L 383.44195 267.381375 
L 384.457764 269.071407 
L 385.473155 270.270845 
L 386.488545 271.067689 
L 387.504359 271.541329 
L 388.51975 271.763078 
L 390.043259 271.764154 
L 392.074464 271.448485 
L 394.613364 271.089218 
L 396.13645 271.077646 
L 398.167655 271.309622 
L 401.21425 271.734283 
L 402.737759 271.754466 
L 404.768964 271.530564 
L 407.815559 271.104558 
L 409.338645 271.08868 
L 411.36985 271.324962 
L 414.416445 271.755005 
L 415.939955 271.758234 
L 417.971159 271.500692 
L 421.017755 271.069304 
L 422.541264 271.084105 
L 424.572045 271.367751 
L 427.110945 271.762002 
L 428.634455 271.794295 
L 430.665659 271.541598 
L 433.712255 271.054234 
L 435.235764 271.044815 
L 437.266545 271.331151 
L 439.805445 271.773842 
L 441.328955 271.83224 
L 442.852464 271.671849 
L 446.91445 270.997989 
L 448.437959 271.043738 
L 450.469164 271.402466 
L 453.008064 271.844619 
L 454.53115 271.848656 
L 456.054659 271.62287 
L 459.60895 270.963273 
L 461.132459 270.991799 
L 462.655968 271.253108 
L 465.702564 271.87772 
L 467.22565 271.904362 
L 468.749159 271.67131 
L 472.30345 270.920215 
L 473.826959 270.929365 
L 475.350468 271.205206 
L 478.397064 271.919702 
L 479.92015 271.972986 
L 481.443659 271.729439 
L 484.99795 270.864778 
L 486.521459 270.850515 
L 488.044968 271.146001 
L 491.091564 271.975408 
L 492.106955 272.072558 
L 493.122768 272.01147 
L 494.645855 271.658124 
L 497.69245 270.789964 
L 498.708264 270.717842 
L 499.723655 270.817683 
L 501.247164 271.235616 
L 503.786064 272.053182 
L 504.801455 272.185586 
L 505.817268 272.132571 
L 507.340355 271.73509 
L 510.38695 270.683126 
L 511.402764 270.576827 
L 512.418155 270.676668 
L 513.941664 271.161072 
L 516.480564 272.16917 
L 517.495955 272.351091 
L 518.511768 272.308302 
L 519.527159 272.043225 
L 521.050668 271.366405 
L 522.573755 270.679897 
L 523.589568 270.4089 
L 524.604959 270.380105 
L 525.62035 270.610735 
L 527.143859 271.326307 
L 529.175064 272.359971 
L 530.190455 272.618051 
L 531.206268 272.587641 
L 532.221659 272.262014 
L 533.745168 271.383359 
L 535.268255 270.454918 
L 536.284068 270.06901 
L 537.299459 270.003884 
L 538.315273 270.295065 
L 539.330664 270.891151 
L 541.869564 272.732155 
L 542.884955 273.1221 
L 543.900768 273.102724 
L 544.916159 272.648192 
L 545.931973 271.841659 
L 547.962755 269.945218 
L 548.978568 269.335945 
L 549.486264 269.208385 
L 549.993959 269.219957 
L 550.501655 269.376581 
L 551.009773 269.675297 
L 552.025164 270.641952 
L 554.564064 273.746174 
L 555.071759 274.159801 
L 555.579455 274.412498 
L 556.087573 274.476278 
L 556.595268 274.333917 
L 557.102964 273.980033 
L 557.610659 273.4227 
L 558.626473 271.801561 
L 560.657255 267.988495 
L 561.165373 267.332666 
L 561.673068 266.956445 
L 562.180764 266.937069 
L 562.688459 267.342623 
L 563.196155 268.22962 
L 563.704273 269.639236 
L 564.211968 271.593537 
L 565.227359 277.122738 
L 566.243173 284.569642 
L 567.766259 297.975574 
L 569.289768 311.298136 
L 570.305159 318.423045 
L 570.812855 321.110195 
L 571.320973 323.09377 
L 571.828668 324.310127 
L 572.336364 324.72 
L 572.336364 324.72 
" clip-path="url(#pebd40f956f)" style="fill: none; stroke: #2ca02c; stroke-width: 1.5; stroke-linecap: square"/>
   </g>
   <g id="line2d_16">
    <path d="M 65.063636 324.72 
L 65.571332 324.234714 
L 66.079027 322.795716 
L 66.587145 320.45289 
L 67.094841 317.286964 
L 68.110232 308.941755 
L 70.141436 288.347412 
L 71.156827 278.636914 
L 72.172641 270.767647 
L 72.680336 267.747598 
L 73.188032 265.402022 
L 73.695727 263.743622 
L 74.203845 262.756895 
L 74.711541 262.400709 
L 75.219236 262.610027 
L 75.726932 263.302373 
L 76.234627 264.379977 
L 77.250441 267.264356 
L 78.773527 271.827808 
L 79.789341 274.006704 
L 80.297036 274.667178 
L 80.804732 275.010444 
L 81.312427 275.037793 
L 81.820545 274.768608 
L 82.328241 274.237558 
L 83.343632 272.592295 
L 85.374836 268.698793 
L 86.390227 267.376768 
L 86.898345 267.011537 
L 87.406041 266.864454 
L 87.913736 266.934442 
L 88.421432 267.207073 
L 89.437245 268.24936 
L 92.483841 272.312342 
L 92.991536 272.687048 
L 93.499232 272.901105 
L 94.006927 272.946974 
L 94.515045 272.828102 
L 95.022741 272.556978 
L 96.038132 271.652729 
L 98.577032 268.856428 
L 99.592845 268.226964 
L 100.100541 268.106369 
L 100.608236 268.122951 
L 101.115932 268.271326 
L 102.131745 268.906389 
L 103.654832 270.338672 
L 104.670645 271.265317 
L 105.686036 271.912224 
L 106.701427 272.139417 
L 107.717241 271.913301 
L 108.732632 271.308602 
L 111.77965 269.003726 
L 112.795041 268.688887 
L 113.810432 268.76835 
L 114.826245 269.2068 
L 116.349332 270.262869 
L 117.872841 271.27027 
L 118.888232 271.64713 
L 119.904045 271.683955 
L 120.919436 271.384189 
L 122.442945 270.502552 
L 123.966032 269.551358 
L 124.981845 269.132505 
L 125.997236 269.00308 
L 127.01305 269.18505 
L 128.028441 269.624792 
L 131.075036 271.239045 
L 132.09085 271.441903 
L 133.106241 271.361147 
L 134.121632 271.024127 
L 137.676345 269.352591 
L 138.691736 269.215845 
L 139.70755 269.339455 
L 140.722941 269.686812 
L 144.277232 271.187576 
L 145.293045 271.267686 
L 146.308436 271.109189 
L 147.831945 270.532917 
L 149.86315 269.657525 
L 150.878541 269.411166 
L 151.893932 269.380156 
L 152.909745 269.567294 
L 154.432832 270.136891 
L 156.464036 270.928297 
L 157.47985 271.122756 
L 158.495241 271.111343 
L 159.510632 270.900947 
L 161.541836 270.135168 
L 163.065345 269.629099 
L 164.080736 269.481585 
L 165.09655 269.530038 
L 166.619636 269.924342 
L 169.666232 270.94251 
L 170.682045 271.0476 
L 171.697436 270.967275 
L 173.220945 270.558758 
L 175.759845 269.724283 
L 176.775236 269.572031 
L 177.79105 269.593566 
L 179.314136 269.923265 
L 182.360732 270.855078 
L 183.376545 270.97029 
L 184.391936 270.918821 
L 185.915445 270.571249 
L 188.962041 269.70727 
L 189.977432 269.625868 
L 190.993245 269.703825 
L 192.516755 270.064533 
L 195.055655 270.780352 
L 196.578741 270.911284 
L 198.10225 270.710148 
L 202.672355 269.68229 
L 204.195441 269.809345 
L 206.226645 270.329197 
L 208.25785 270.795211 
L 209.780936 270.844957 
L 211.304445 270.600321 
L 214.858736 269.773167 
L 216.382245 269.756585 
L 217.905755 270.015003 
L 221.460045 270.789612 
L 222.983555 270.779275 
L 224.506641 270.51332 
L 227.553236 269.837771 
L 229.076745 269.77532 
L 230.600255 269.973226 
L 234.662241 270.772384 
L 236.18575 270.740082 
L 238.216955 270.365375 
L 240.755855 269.844663 
L 242.278941 269.770583 
L 243.80245 269.940277 
L 246.34135 270.545622 
L 247.864436 270.855078 
L 249.387945 270.918391 
L 250.403336 270.741589 
L 251.41915 270.328335 
L 252.434541 269.615962 
L 253.450355 268.530606 
L 254.465745 266.985049 
L 256.49695 263.111574 
L 257.512341 261.980994 
L 258.528155 261.381248 
L 259.543545 261.141566 
L 261.067055 261.093758 
L 263.605955 261.000943 
L 266.65255 260.766428 
L 268.175636 260.858813 
L 272.238045 261.318151 
L 273.761555 261.207031 
L 277.823668 260.664784 
L 279.347008 260.765352 
L 283.917028 261.367251 
L 285.440368 261.218445 
L 288.994828 260.649279 
L 290.518168 260.690626 
L 292.549288 261.037983 
L 294.580408 261.356914 
L 296.103748 261.35433 
L 298.13491 261.029154 
L 300.16603 260.678781 
L 301.68937 260.640234 
L 303.21271 260.83534 
L 306.25939 261.362944 
L 307.78273 261.360575 
L 309.81385 261.031522 
L 311.84497 260.676628 
L 313.36831 260.636142 
L 314.891646 260.831248 
L 317.93833 261.363375 
L 319.46167 261.363375 
L 321.492794 261.035399 
L 323.52391 260.678351 
L 325.04725 260.635066 
L 326.57059 260.828018 
L 329.61727 261.360575 
L 331.14061 261.362944 
L 333.17173 261.038629 
L 335.20285 260.682658 
L 336.72619 260.638296 
L 338.24953 260.828018 
L 341.296252 261.35433 
L 342.819592 261.356914 
L 344.850712 261.037983 
L 346.881832 260.69041 
L 348.405172 260.649279 
L 349.928512 260.836201 
L 352.975192 261.341624 
L 354.498532 261.337533 
L 356.529652 261.028292 
L 358.560772 260.707854 
L 360.084112 260.682227 
L 362.115359 260.953782 
L 364.654259 261.303938 
L 366.177345 261.275512 
L 371.763264 260.803253 
L 376.332945 261.093758 
L 377.856455 261.141566 
L 378.871845 261.381248 
L 379.887659 261.980994 
L 380.90305 263.111574 
L 381.918864 264.906935 
L 382.934255 266.985049 
L 383.949645 268.530606 
L 384.965459 269.615962 
L 385.98085 270.328335 
L 386.996664 270.741589 
L 388.012055 270.918391 
L 389.027445 270.911715 
L 390.550955 270.665787 
L 394.613364 269.801377 
L 396.13645 269.792764 
L 397.659959 270.015865 
L 401.21425 270.740082 
L 402.737759 270.772384 
L 404.260845 270.558328 
L 408.323255 269.77532 
L 409.846764 269.837771 
L 411.877545 270.260716 
L 413.90875 270.71424 
L 415.432259 270.818469 
L 416.955345 270.64296 
L 421.52545 269.728374 
L 423.048959 269.843801 
L 425.080164 270.335227 
L 427.110945 270.792196 
L 428.634455 270.846679 
L 430.157964 270.602043 
L 433.712255 269.732681 
L 435.235764 269.712008 
L 436.75885 269.996914 
L 440.313564 270.878982 
L 441.328955 270.905039 
L 442.852464 270.668802 
L 446.91445 269.645465 
L 447.930264 269.646757 
L 449.45335 269.930802 
L 453.008064 270.918821 
L 454.023455 270.97029 
L 455.039268 270.855078 
L 456.562355 270.434933 
L 459.101255 269.668723 
L 460.117068 269.560618 
L 461.132459 269.627591 
L 462.655968 270.01608 
L 465.702564 270.967275 
L 466.717955 271.0476 
L 467.733768 270.94251 
L 469.256855 270.496953 
L 471.795755 269.624576 
L 472.811568 269.481154 
L 473.826959 269.531761 
L 474.84235 269.767998 
L 478.904759 271.111343 
L 479.92015 271.122756 
L 480.935964 270.928297 
L 482.45905 270.357623 
L 484.490255 269.567294 
L 485.506068 269.380156 
L 486.521459 269.411166 
L 487.53685 269.657525 
L 489.060359 270.297325 
L 490.583868 270.9522 
L 491.599259 271.216648 
L 492.61465 271.257995 
L 493.630464 271.060305 
L 495.15355 270.42352 
L 497.184755 269.489553 
L 498.200568 269.245994 
L 499.215959 269.251808 
L 500.23135 269.512595 
L 501.754859 270.241335 
L 503.278368 271.024127 
L 504.293759 271.361147 
L 505.30915 271.441903 
L 506.324964 271.239045 
L 507.340355 270.793919 
L 510.38695 269.18505 
L 511.402764 269.00308 
L 512.418155 269.132505 
L 513.433968 269.551358 
L 516.988259 271.572619 
L 518.00365 271.709797 
L 519.019464 271.498109 
L 520.034855 270.97675 
L 523.08145 268.948382 
L 524.097264 268.679196 
L 525.112655 268.798715 
L 526.128468 269.293586 
L 527.651555 270.486401 
L 529.175064 271.649714 
L 530.190455 272.080842 
L 530.698573 272.139417 
L 531.206268 272.082996 
L 532.221659 271.634855 
L 533.237473 270.824714 
L 535.776373 268.539004 
L 536.791764 268.122951 
L 537.299459 268.106369 
L 537.807155 268.226964 
L 538.822968 268.856428 
L 539.838359 269.885579 
L 541.869564 272.155783 
L 542.884955 272.828102 
L 543.393073 272.946974 
L 543.900768 272.901105 
L 544.408464 272.687048 
L 544.916159 272.312342 
L 545.931973 271.159581 
L 548.470873 267.656936 
L 548.978568 267.207073 
L 549.486264 266.934442 
L 549.993959 266.864454 
L 550.501655 267.011537 
L 551.009773 267.376768 
L 551.517468 267.947657 
L 552.532859 269.591843 
L 554.564064 273.492883 
L 555.071759 274.237558 
L 555.579455 274.768608 
L 556.087573 275.037793 
L 556.595268 275.010444 
L 557.102964 274.667178 
L 557.610659 274.006704 
L 558.118355 273.047542 
L 559.134168 270.405 
L 561.165373 264.379977 
L 561.673068 263.302373 
L 562.180764 262.610027 
L 562.688459 262.400709 
L 563.196155 262.756895 
L 563.704273 263.743622 
L 564.211968 265.402022 
L 564.719664 267.747598 
L 565.735055 274.42082 
L 566.750868 283.319238 
L 569.797464 313.406211 
L 570.812855 320.45289 
L 571.320973 322.795716 
L 571.828668 324.234714 
L 572.336364 324.72 
L 572.336364 324.72 
" clip-path="url(#pebd40f956f)" style="fill: none; stroke: #d62728; stroke-width: 1.5; stroke-linecap: square"/>
   </g>
   <g id="patch_3">
    <path d="M 39.7 339.84 
L 39.7 7.2 
" style="fill: none; stroke: #000000; stroke-width: 0.8; stroke-linejoin: miter; stroke-linecap: square"/>
   </g>
   <g id="patch_4">
    <path d="M 597.7 339.84 
L 597.7 7.2 
" style="fill: none; stroke: #000000; stroke-width: 0.8; stroke-linejoin: miter; stroke-linecap: square"/>
   </g>
   <g id="patch_5">
    <path d="M 39.7 339.84 
L 597.7 339.84 
" style="fill: none; stroke: #000000; stroke-width: 0.8; stroke-linejoin: miter; stroke-linecap: square"/>
   </g>
   <g id="patch_6">
    <path d="M 39.7 7.2 
L 597.7 7.2 
" style="fill: none; stroke: #000000; stroke-width: 0.8; stroke-linejoin: miter; stroke-linecap: square"/>
   </g>
   <g id="legend_1">
    <g id="patch_7">
     <path d="M 530.740625 71.88125 
L 590.7 71.88125 
Q 592.7 71.88125 592.7 69.88125 
L 592.7 14.2 
Q 592.7 12.2 590.7 12.2 
L 530.740625 12.2 
Q 528.740625 12.2 528.740625 14.2 
L 528.740625 69.88125 
Q 528.740625 71.88125 530.740625 71.88125 
z
" style="fill: #ffffff; opacity: 0.8; stroke: #cccccc; stroke-linejoin: miter"/>
    </g>
    <g id="line2d_17">
     <path d="M 532.740625 19.7 
L 542.740625 19.7 
L 552.740625 19.7 
" style="fill: none; stroke: #1f77b4; stroke-width: 1.5; stroke-linecap: square"/>
    </g>
    <g id="text_15">
     <!-- T=1 -->
     <g transform="translate(560.740625 23.2) scale(0.1 -0.1)">
      <defs>
       <path id="STIXGeneral-Regular-54" d="M 3795 3149 
L 3642 3149 
Q 3539 3674 3353 3821 
Q 3168 3968 2656 3968 
L 2278 3968 
L 2278 710 
Q 2278 346 2387 243 
Q 2496 141 2893 122 
L 2893 0 
L 1024 0 
L 1024 122 
Q 1427 147 1526 256 
Q 1626 365 1626 787 
L 1626 3968 
L 1242 3968 
Q 723 3968 540 3817 
Q 358 3667 262 3149 
L 109 3149 
L 154 4237 
L 3750 4237 
L 3795 3149 
z
" transform="scale(0.015625)"/>
       <path id="STIXGeneral-Regular-3d" d="M 4077 2048 
L 307 2048 
L 307 2470 
L 4077 2470 
L 4077 2048 
z
M 4077 768 
L 307 768 
L 307 1190 
L 4077 1190 
L 4077 768 
z
" transform="scale(0.015625)"/>
      </defs>
      <use xlink:href="#STIXGeneral-Regular-54"/>
      <use xlink:href="#STIXGeneral-Regular-3d" transform="translate(61.099991 0)"/>
      <use xlink:href="#STIXGeneral-Regular-31" transform="translate(129.599976 0)"/>
     </g>
    </g>
    <g id="line2d_18">
     <path d="M 532.740625 33.870313 
L 542.740625 33.870313 
L 552.740625 33.870313 
" style="fill: none; stroke: #ff7f0e; stroke-width: 1.5; stroke-linecap: square"/>
    </g>
    <g id="text_16">
     <!-- T=10 -->
     <g transform="translate(560.740625 37.370313) scale(0.1 -0.1)">
      <use xlink:href="#STIXGeneral-Regular-54"/>
      <use xlink:href="#STIXGeneral-Regular-3d" transform="translate(61.099991 0)"/>
      <use xlink:href="#STIXGeneral-Regular-31" transform="translate(129.599976 0)"/>
      <use xlink:href="#STIXGeneral-Regular-30" transform="translate(179.59996 0)"/>
     </g>
    </g>
    <g id="line2d_19">
     <path d="M 532.740625 48.040625 
L 542.740625 48.040625 
L 552.740625 48.040625 
" style="fill: none; stroke: #2ca02c; stroke-width: 1.5; stroke-linecap: square"/>
    </g>
    <g id="text_17">
     <!-- T=50 -->
     <g transform="translate(560.740625 51.540625) scale(0.1 -0.1)">
      <defs>
       <path id="STIXGeneral-Regular-35" d="M 2803 4358 
L 2573 3814 
Q 2534 3731 2400 3731 
L 1158 3731 
L 902 3187 
Q 1606 3053 1920 2896 
Q 2234 2739 2502 2368 
Q 2726 2061 2726 1555 
Q 2726 1094 2576 780 
Q 2426 467 2099 224 
Q 1664 -90 1011 -90 
Q 646 -90 422 19 
Q 198 128 198 307 
Q 198 550 486 550 
Q 717 550 960 352 
Q 1210 147 1414 147 
Q 1747 147 2012 480 
Q 2278 813 2278 1229 
Q 2278 1843 1850 2189 
Q 1293 2637 486 2637 
Q 410 2637 410 2688 
L 416 2720 
L 1114 4237 
L 2438 4237 
Q 2547 4237 2608 4269 
Q 2669 4301 2746 4403 
L 2803 4358 
z
" transform="scale(0.015625)"/>
      </defs>
      <use xlink:href="#STIXGeneral-Regular-54"/>
      <use xlink:href="#STIXGeneral-Regular-3d" transform="translate(61.099991 0)"/>
      <use xlink:href="#STIXGeneral-Regular-35" transform="translate(129.599976 0)"/>
      <use xlink:href="#STIXGeneral-Regular-30" transform="translate(179.59996 0)"/>
     </g>
    </g>
    <g id="line2d_20">
     <path d="M 532.740625 62.210938 
L 542.740625 62.210938 
L 552.740625 62.210938 
" style="fill: none; stroke: #d62728; stroke-width: 1.5; stroke-linecap: square"/>
    </g>
    <g id="text_18">
     <!-- T=100 -->
     <g transform="translate(560.740625 65.710938) scale(0.1 -0.1)">
      <use xlink:href="#STIXGeneral-Regular-54"/>
      <use xlink:href="#STIXGeneral-Regular-3d" transform="translate(61.099991 0)"/>
      <use xlink:href="#STIXGeneral-Regular-31" transform="translate(129.599976 0)"/>
      <use xlink:href="#STIXGeneral-Regular-30" transform="translate(179.59996 0)"/>
      <use xlink:href="#STIXGeneral-Regular-30" transform="translate(229.599945 0)"/>
     </g>
    </g>
   </g>
  </g>
 </g>
 <defs>
  <clipPath id="pebd40f956f">
   <rect x="39.7" y="7.2" width="558" height="332.64"/>
  </clipPath>
 </defs>
</svg>
